<svg width="32" height="32" viewBox="0 0 32 32" fill="none" xmlns="http://www.w3.org/2000/svg">
<path d="M16 32C24.8366 32 32 24.8366 32 16C32 7.16344 24.8366 0 16 0C7.16344 0 0 7.16344 0 16C0 24.8366 7.16344 32 16 32Z" fill="#082D63"/>
<path d="M16.0198 5.52979C14.7198 5.52979 13.6748 10.2298 13.6748 16.0198C13.6748 21.8098 14.7248 26.5098 16.0198 26.5098C17.3148 26.5098 18.3638 21.8098 18.3638 16.0198C18.3638 10.2298 17.3138 5.52979 16.0198 5.52979ZM16.1818 25.9168C16.1689 25.9437 16.1497 25.967 16.1258 25.9849C16.102 26.0028 16.0742 26.0147 16.0448 26.0196C16.0154 26.0245 15.9852 26.0223 15.9568 26.0131C15.9285 26.0039 15.9027 25.988 15.8818 25.9668C15.4576 25.3732 15.1538 24.7022 14.9878 23.9918C13.9478 20.6348 14.1998 13.4278 14.1998 13.4278C14.6898 7.70679 15.5818 6.35479 15.8848 6.05479C15.9158 6.02402 15.9568 6.00523 16.0003 6.00175C16.0439 5.99827 16.0873 6.01033 16.1228 6.03579C16.5073 6.50938 16.7838 7.06124 16.9328 7.65279C17.5973 10.2152 17.929 12.8526 17.9198 15.4998C17.9403 17.8478 17.7576 20.1932 17.3738 22.5098C16.8738 25.3238 16.1818 25.9158 16.1818 25.9158V25.9168Z" fill="white"/>
<path d="M25.118 10.8C24.473 9.67596 19.878 11.1 14.851 13.986C9.824 16.872 6.278 20.116 6.921 21.24C7.564 22.364 12.162 20.94 17.189 18.054C22.216 15.168 25.763 11.923 25.119 10.8H25.118ZM7.515 21.085C7.269 21.055 7.325 20.851 7.325 20.851C7.62803 20.1878 8.05815 19.5906 8.591 19.093C10.984 16.518 17.36 13.147 17.36 13.147C22.566 10.725 24.183 10.827 24.593 10.939C24.6357 10.9506 24.6728 10.9772 24.6976 11.0139C24.7224 11.0506 24.7332 11.095 24.728 11.139C24.678 11.676 23.728 12.646 23.728 12.646C21.8376 14.4999 19.7162 16.1025 17.416 17.414C15.3894 18.6 13.2638 19.6082 11.063 20.427C8.375 21.395 7.515 21.087 7.515 21.087V21.085Z" fill="white"/>
<path d="M25.095 21.2769C25.745 20.1569 22.208 16.8939 17.195 13.9889C12.182 11.0839 7.59297 9.64086 6.94397 10.7629C6.29497 11.8849 9.83197 15.1459 14.844 18.0509C19.856 20.9559 24.444 22.3989 25.095 21.2769ZM7.37497 11.1999C7.27497 10.9719 7.48097 10.9169 7.48097 10.9169C8.20724 10.8468 8.94021 10.9205 9.63797 11.1339C13.065 11.9139 19.176 15.7419 19.176 15.7419C23.876 19.0339 24.603 20.4849 24.711 20.8959C24.7221 20.9377 24.7182 20.9822 24.6999 21.0215C24.6817 21.0608 24.6502 21.0924 24.611 21.1109C24.0065 21.2072 23.3882 21.1693 22.8 20.9999C20.2485 20.2917 17.7987 19.2582 15.511 17.9249C13.4708 16.7656 11.5352 15.4312 9.72597 13.9369C7.53897 12.0999 7.37597 11.1999 7.37597 11.1999H7.37497Z" fill="white"/>
<path d="M15.9947 17.2287C16.6763 17.2287 17.2287 16.6763 17.2287 15.9947C17.2287 15.3132 16.6763 14.7607 15.9947 14.7607C15.3132 14.7607 14.7607 15.3132 14.7607 15.9947C14.7607 16.6763 15.3132 17.2287 15.9947 17.2287Z" fill="white"/>
<path d="M21.0547 12.2559C21.607 12.2559 22.0547 11.8081 22.0547 11.2559C22.0547 10.7036 21.607 10.2559 21.0547 10.2559C20.5024 10.2559 20.0547 10.7036 20.0547 11.2559C20.0547 11.8081 20.5024 12.2559 21.0547 12.2559Z" fill="white"/>
<path d="M9.30566 14.7739C9.85795 14.7739 10.3057 14.3262 10.3057 13.7739C10.3057 13.2216 9.85795 12.7739 9.30566 12.7739C8.75338 12.7739 8.30566 13.2216 8.30566 13.7739C8.30566 14.3262 8.75338 14.7739 9.30566 14.7739Z" fill="white"/>
<path d="M14.5391 23.856C15.0913 23.856 15.5391 23.4082 15.5391 22.856C15.5391 22.3037 15.0913 21.856 14.5391 21.856C13.9868 21.856 13.5391 22.3037 13.5391 22.856C13.5391 23.4082 13.9868 23.856 14.5391 23.856Z" fill="white"/>
</svg>
