<svg width="24" height="24" viewBox="0 0 24 24" fill="none" xmlns="http://www.w3.org/2000/svg">
<path d="M12 24C18.6274 24 24 18.6274 24 12C24 5.37258 18.6274 0 12 0C5.37258 0 0 5.37258 0 12C0 18.6274 5.37258 24 12 24Z" fill="#082D63"/>
<path d="M12.015 4.14734C11.04 4.14734 10.2562 7.67234 10.2562 12.0148C10.2562 16.3573 11.0438 19.8823 12.015 19.8823C12.9862 19.8823 13.773 16.3573 13.773 12.0148C13.773 7.67234 12.9855 4.14734 12.015 4.14734ZM12.1365 19.4376C12.1268 19.4577 12.1124 19.4753 12.0945 19.4887C12.0766 19.5021 12.0558 19.511 12.0337 19.5147C12.0117 19.5184 11.9891 19.5167 11.9678 19.5098C11.9465 19.5029 11.9272 19.491 11.9115 19.4751C11.5933 19.0299 11.3655 18.5267 11.241 17.9938C10.461 15.4761 10.65 10.0708 10.65 10.0708C11.0175 5.78009 11.6865 4.76609 11.9137 4.54109C11.937 4.51801 11.9677 4.50392 12.0004 4.50131C12.0331 4.49871 12.0656 4.50775 12.0922 4.52684C12.3806 4.88203 12.588 5.29593 12.6997 5.73959C13.1981 7.66143 13.4469 9.63945 13.44 11.6248C13.4553 13.3859 13.3183 15.1449 13.0305 16.8823C12.6555 18.9928 12.1365 19.4376 12.1365 19.4376Z" fill="white"/>
<path d="M18.8385 8.09984C18.3547 7.25684 14.9085 8.32484 11.1382 10.4893C7.368 12.6538 4.7085 15.0868 5.19075 15.9298C5.673 16.7728 9.1215 15.7048 12.8917 13.5403C16.662 11.3758 19.3215 8.94209 18.8385 8.09984ZM5.63625 15.8136C5.45175 15.7911 5.49375 15.6381 5.49375 15.6381C5.72102 15.1407 6.04361 14.6928 6.44325 14.3196C8.238 12.3883 13.02 9.86009 13.02 9.86009C16.9245 8.04359 18.1373 8.12009 18.4447 8.20409C18.4768 8.21284 18.5046 8.23279 18.5232 8.26031C18.5418 8.28783 18.5499 8.32111 18.546 8.35409C18.5085 8.75684 17.796 9.48434 17.796 9.48434C16.3782 10.8748 14.7871 12.0767 13.062 13.0603C11.5421 13.9499 9.94783 14.706 8.29725 15.3201C6.28125 16.0461 5.63625 15.8151 5.63625 15.8151V15.8136Z" fill="white"/>
<path d="M18.8212 15.9576C19.3087 15.1176 16.656 12.6703 12.8962 10.4916C9.1365 8.31284 5.69475 7.23059 5.208 8.07209C4.72125 8.91359 7.374 11.3593 11.133 13.5381C14.892 15.7168 18.333 16.7991 18.8212 15.9576ZM5.53125 8.39984C5.45625 8.22884 5.61075 8.18759 5.61075 8.18759C6.15546 8.13503 6.70518 8.19033 7.2285 8.35034C9.79875 8.93534 14.382 11.8063 14.382 11.8063C17.907 14.2753 18.4522 15.3636 18.5332 15.6718C18.5416 15.7032 18.5387 15.7366 18.525 15.7661C18.5113 15.7955 18.4877 15.8193 18.4582 15.8331C18.0049 15.9054 17.5412 15.8769 17.1 15.7498C15.1864 15.2187 13.3491 14.4436 11.6332 13.4436C10.1031 12.5741 8.65139 11.5734 7.2945 10.4526C5.65425 9.07484 5.532 8.39984 5.532 8.39984H5.53125Z" fill="white"/>
<path d="M11.9961 12.9216C12.5072 12.9216 12.9216 12.5072 12.9216 11.9961C12.9216 11.4849 12.5072 11.0706 11.9961 11.0706C11.4849 11.0706 11.0706 11.4849 11.0706 11.9961C11.0706 12.5072 11.4849 12.9216 11.9961 12.9216Z" fill="white"/>
<path d="M15.791 9.19189C16.2052 9.19189 16.541 8.85611 16.541 8.44189C16.541 8.02768 16.2052 7.69189 15.791 7.69189C15.3768 7.69189 15.041 8.02768 15.041 8.44189C15.041 8.85611 15.3768 9.19189 15.791 9.19189Z" fill="white"/>
<path d="M6.97925 11.0804C7.39346 11.0804 7.72925 10.7447 7.72925 10.3304C7.72925 9.91623 7.39346 9.58044 6.97925 9.58044C6.56503 9.58044 6.22925 9.91623 6.22925 10.3304C6.22925 10.7447 6.56503 11.0804 6.97925 11.0804Z" fill="white"/>
<path d="M10.9042 17.8918C11.3185 17.8918 11.6542 17.5561 11.6542 17.1418C11.6542 16.7276 11.3185 16.3918 10.9042 16.3918C10.49 16.3918 10.1542 16.7276 10.1542 17.1418C10.1542 17.5561 10.49 17.8918 10.9042 17.8918Z" fill="white"/>
</svg>
