<svg width="24" height="24" viewBox="0 0 24 24" fill="none" xmlns="http://www.w3.org/2000/svg">
<path d="M12 24C18.6274 24 24 18.6274 24 12C24 5.37258 18.6274 0 12 0C5.37258 0 0 5.37258 0 12C0 18.6274 5.37258 24 12 24Z" fill="#F7931A"/>
<path d="M17.392 10.515C17.628 8.943 16.43 8.098 14.792 7.534L15.323 5.404L14.023 5.082L13.511 7.155C13.171 7.07 12.821 6.99 12.472 6.91L12.993 4.823L11.697 4.5L11.166 6.629C10.884 6.565 10.607 6.502 10.338 6.434V6.427L8.54996 5.981L8.20496 7.365C8.20496 7.365 9.16696 7.585 9.14696 7.599C9.32576 7.62156 9.48863 7.71319 9.60075 7.85428C9.71288 7.99537 9.76535 8.17472 9.74696 8.354L9.14696 10.78C9.1928 10.7916 9.23788 10.8059 9.28196 10.823L9.14496 10.789L8.29696 14.189C8.2785 14.2484 8.2485 14.3036 8.20869 14.3513C8.16888 14.3991 8.12004 14.4386 8.06496 14.4675C8.00988 14.4964 7.94964 14.5141 7.8877 14.5197C7.82575 14.5253 7.76331 14.5186 7.70396 14.5C7.71696 14.519 6.76196 14.265 6.76196 14.265L6.11896 15.749L7.80696 16.17C8.12096 16.249 8.42796 16.331 8.72996 16.409L8.19396 18.563L9.49396 18.886L10.025 16.756C10.379 16.856 10.725 16.94 11.059 17.024L10.529 19.145L11.829 19.467L12.365 17.318C14.576 17.736 16.238 17.568 16.938 15.568C17.0812 15.2858 17.164 14.9769 17.181 14.6609C17.1981 14.3449 17.149 14.0289 17.0369 13.7329C16.9248 13.437 16.7521 13.1678 16.53 12.9424C16.3079 12.717 16.0412 12.5404 15.747 12.424C16.1937 12.3342 16.5983 12.0992 16.8976 11.7555C17.197 11.4119 17.3743 10.9789 17.402 10.524L17.392 10.515ZM14.429 14.669C14.029 16.279 11.318 15.409 10.439 15.19L11.151 12.336C12.031 12.556 14.849 12.99 14.429 14.669ZM14.829 10.492C14.464 11.957 12.208 11.212 11.477 11.03L12.122 8.443C12.853 8.625 15.211 8.965 14.83 10.493L14.829 10.492Z" fill="white"/>
</svg>
