<svg width="24" height="24" viewBox="0 0 24 24" fill="none" xmlns="http://www.w3.org/2000/svg">
<path d="M24 12C24 18.6274 18.6274 24 12 24C5.37258 24 0 18.6274 0 12C0 5.37258 5.37258 0 12 0C18.6274 0 24 5.37258 24 12Z" fill="#25376C"/>
<path d="M16.4403 4.27548H7.53016L6.49521 8.82886H17.5329L16.4403 4.27548ZM9.11086 15.0838V12.0577L6.46693 10.3855L3.47733 12.605L7.55844 19.7244H9.1978L11.1231 17.9083V17.0144L9.11086 15.0838Z" fill="white"/>
<path d="M14.8889 9.52106H9.14019L10.0892 12.0577L9.80221 14.9116H14.229L13.942 12.0577L14.8889 9.52106Z" fill="white"/>
<path d="M17.5329 10.3561L14.9172 12.0567V15.0828L12.9343 17.0134V17.9073L14.8596 19.6939H16.4696L20.5225 12.6039L17.5329 10.3561Z" fill="white"/>
</svg>
