<svg width="24" height="24" viewBox="0 0 24 24" fill="none" xmlns="http://www.w3.org/2000/svg">
<path d="M12 24C18.6274 24 24 18.6274 24 12C24 5.37258 18.6274 0 12 0C5.37258 0 0 5.37258 0 12C0 18.6274 5.37258 24 12 24Z" fill="#627EEA"/>
<path d="M12.375 3V9.6525L18 12.165L12.375 3Z" fill="white"/>
<path d="M12.375 3L6.75 12.165L12.375 9.6525V3Z" fill="white"/>
<path d="M12.375 16.476V21L18 13.212L12.375 16.476Z" fill="white"/>
<path d="M12.375 21V16.4753L6.75 13.212L12.375 21Z" fill="white"/>
<path d="M12.375 15.4298L18 12.165L12.375 9.654V15.4298Z" fill="white"/>
<path d="M6.75 12.165L12.375 15.4298V9.65475L6.75 12.165Z" fill="white"/>
</svg>
