<svg width="24" height="24" viewBox="0 0 24 24" fill="none" xmlns="http://www.w3.org/2000/svg">
<path d="M12 24C18.6274 24 24 18.6274 24 12C24 5.37258 18.6274 0 12 0C5.37258 0 0 5.37258 0 12C0 18.6274 5.37258 24 12 24Z" fill="#ED4E33"/>
<path d="M9.89644 6.42553C6.6228 7.68426 6.32292 10.9079 5.38424 12.4133C4.43443 13.9367 2.25847 14.7773 2.55603 15.5536C2.85357 16.3299 5.03213 15.4961 6.75568 15.9914C8.45881 16.4809 10.8351 18.6757 14.1088 17.417C15.7764 16.7757 16.984 15.4559 17.5393 13.8927C17.5991 13.7249 17.4874 13.5455 17.3102 13.5289C17.2001 13.5185 17.0944 13.5763 17.0448 13.6752C16.5425 14.6773 15.6808 15.5026 14.5532 15.936C12.6916 16.6518 10.6547 16.0898 9.4037 14.6804C9.11958 14.3604 8.87657 13.996 8.68475 13.5934C8.63201 13.4825 8.58186 13.3699 8.5374 13.2534C8.49268 13.1368 8.45467 13.0195 8.41977 12.9017C9.4037 12.4424 10.5391 11.9558 11.8263 11.461C13.0884 10.9757 14.237 10.5821 15.2597 10.2672C15.9515 10.0544 16.5856 9.87725 17.1582 9.7325C17.1996 9.72214 17.2405 9.71179 17.281 9.70169C17.3676 9.6802 17.4566 9.72655 17.4886 9.80993L17.4892 9.81148C17.5081 9.86093 17.5243 9.91065 17.5418 9.96037C17.6551 10.2812 17.74 10.6054 17.796 10.9304C17.8206 11.0725 17.9757 11.15 18.1029 11.0816C18.5729 10.8289 19.0028 10.5824 19.3869 10.3452C20.8184 9.46217 21.612 8.7133 21.4491 8.28889C21.2866 7.86422 20.1966 7.83989 18.5429 8.14284C18.0174 8.23917 17.4346 8.36864 16.8067 8.52894C16.6981 8.55664 16.5883 8.58538 16.477 8.6149C15.9486 8.75526 15.3913 8.91605 14.8109 9.09602C13.7316 9.43083 12.5737 9.83194 11.3783 10.2916C10.2599 10.7217 9.19998 11.1676 8.22794 11.6119C8.21606 9.72604 9.35432 7.94319 11.2159 7.22748C12.3433 6.794 13.5351 6.82949 14.578 7.23784C14.6809 7.27823 14.798 7.25026 14.8732 7.16871C14.9937 7.03793 14.9567 6.82973 14.8003 6.74481C13.3433 5.95581 11.5641 5.78439 9.89644 6.42553Z" fill="white"/>
</svg>
