<?xml version="1.0" encoding="UTF-8" standalone="no"?>
<svg
   width="256"
   height="256"
   viewBox="0 0 256 256.00001"
   fill="none"
   version="1.1"
   id="svg32"
   sodipodi:docname="Evmos EVMOS Coin Icon 256x256.svg"
   inkscape:version="1.2 (dc2aedaf03, 2022-05-15)"
   xmlns:inkscape="http://www.inkscape.org/namespaces/inkscape"
   xmlns:sodipodi="http://sodipodi.sourceforge.net/DTD/sodipodi-0.dtd"
   xmlns="http://www.w3.org/2000/svg"
   xmlns:svg="http://www.w3.org/2000/svg">
  <defs
     id="defs36" />
  <sodipodi:namedview
     id="namedview34"
     pagecolor="#ffffff"
     bordercolor="#666666"
     borderopacity="1.0"
     inkscape:showpageshadow="2"
     inkscape:pageopacity="0.0"
     inkscape:pagecheckerboard="0"
     inkscape:deskcolor="#d1d1d1"
     showgrid="false"
     showguides="false"
     inkscape:zoom="0.72392638"
     inkscape:cx="209.27542"
     inkscape:cy="180.95763"
     inkscape:window-width="1366"
     inkscape:window-height="705"
     inkscape:window-x="-8"
     inkscape:window-y="-8"
     inkscape:window-maximized="1"
     inkscape:current-layer="svg32" />
  <circle
     style="fill:#ff6600;stroke:none;stroke-width:5"
     id="path872"
     cx="128"
     cy="128"
     r="128" />
  <path
     d="M 103.84384,68.656648 C 69.278787,81.979674 66.112421,116.10006 56.201191,132.03515 c -10.02856,16.12422 -33.003706,25.02053 -29.8619,33.23801 3.141677,8.21622 26.144164,-0.60884 44.342496,4.63403 17.982631,5.18087 43.073653,28.41182 77.638463,15.08817 17.60833,-6.78587 30.35859,-20.75508 36.22172,-37.30193 0.63036,-1.77603 -0.54809,-3.67546 -2.41893,-3.85091 -1.16198,-0.10956 -2.27842,0.50164 -2.80243,1.54857 -5.30365,10.6064 -14.40211,19.34158 -26.3081,23.93005 -19.65638,7.57573 -41.16334,1.6278 -54.371313,-13.29074 -2.999906,-3.38725 -5.565653,-7.24345 -7.591032,-11.50538 -0.556819,-1.17312 -1.086419,-2.36535 -1.555908,-3.59872 -0.47227,-1.23327 -0.873519,-2.47488 -1.241988,-3.72194 10.388928,-4.86226 22.377311,-10.01222 35.968691,-15.24992 13.32492,-5.13632 25.45367,-9.30225 36.25083,-12.6352 7.30486,-2.25284 14.00084,-4.12759 20.04624,-5.6597 0.43796,-0.10967 0.86833,-0.21923 1.29744,-0.3262 0.91389,-0.22746 1.8531,0.26315 2.19107,1.14566 l 0.007,0.0164 c 0.19873,0.52352 0.37087,1.04971 0.55694,1.57603 1.1949,3.39585 2.09108,6.82726 2.6822,10.26702 0.25948,1.50466 1.89742,2.32425 3.24041,1.60061 4.96314,-2.67499 9.50224,-5.28429 13.55782,-7.79485 15.11474,-9.34618 23.49426,-17.272517 21.77405,-21.764792 -1.71641,-4.494936 -13.22492,-4.752516 -30.68644,-1.545769 -5.5492,1.019579 -11.70092,2.389918 -18.33111,4.086587 -1.14679,0.293149 -2.30753,0.597449 -3.48091,0.909838 -5.57957,1.485529 -11.46421,3.187638 -17.59188,5.092513 -11.39585,3.543813 -23.62209,7.789393 -36.2445,12.654303 -11.80774,4.55252 -22.999199,9.27215 -33.262567,13.97541 -0.12556,-19.96131 11.892934,-38.831888 31.548707,-46.407481 11.90344,-4.588096 24.48788,-4.212546 35.49894,0.10967 1.08604,0.42758 2.32272,0.13164 3.11763,-0.731749 1.27086,-1.384139 0.88099,-3.587757 -0.77086,-4.486705 -15.38302,-8.351272 -34.16852,-10.16564 -51.77737,-3.379387 z"
     fill="#faf1e4"
     id="path20"
     style="stroke:none;stroke-width:1.26579" />
</svg>
