<svg xmlns="http://www.w3.org/2000/svg" width="32" height="32"
     viewBox="0 0 32 32">
    <defs>
        <clipPath id="clip-lum-network-logo">
            <rect width="32" height="32"/>
        </clipPath>
    </defs>
    <g id="lum-network-logo" clip-path="url(#clip-lum-network-logo)">
        <rect width="32" height="32" fill="#fff"/>
        <g id="terra-luna-luna-logo" transform="translate(0.434 0.434)">
            <circle id="Ellipse_3" data-name="Ellipse 3" cx="16" cy="16" r="16" transform="translate(-0.434 -0.434)"
                    fill="#172852"/>
            <g id="Group_1" data-name="Group 1" transform="translate(6.343 6.253)">
                <path id="Path_4" data-name="Path 4"
                      d="M743.944,413.488a9.222,9.222,0,0,1,5.841-.125,9.377,9.377,0,0,1,5.63,4.957,5.713,5.713,0,0,1,.616,2.1,21.443,21.443,0,0,0-4.424-1.8,57,57,0,0,1-7.285-2.692c-.536-.32-1.22-.649-1.366-1.317-.059-.577.552-.9.988-1.123"
                      transform="translate(-737.807 -412.95)" fill="#ffd83d"/>
                <path id="Path_5" data-name="Path 5"
                      d="M419.178,564.018A9.061,9.061,0,0,1,421.8,560.2a11.765,11.765,0,0,0,3.132,6.747,11.274,11.274,0,0,0,8.179,3.49,16.424,16.424,0,0,0,3.588-.47,9.251,9.251,0,1,1-17.517-5.949Z"
                      transform="translate(-418.649 -557.864)" fill="#ffd83d"/>
            </g>
            <path id="Path_6" data-name="Path 6"
                  d="M1288.5,770.4a21.442,21.442,0,0,1,4.424,1.8l.094.049a9.533,9.533,0,0,1,.051,2.919,8.667,8.667,0,0,1-1.851-1.272,7.56,7.56,0,0,1-2.718-3.493"
                  transform="translate(-1268.358 -758.477)" fill="#ff6f03"/>
        </g>
        <g id="lum" transform="translate(-0.349 -0.349)">
            <rect id="Rectangle_1" data-name="Rectangle 1" width="32" height="32" rx="16"
                  transform="translate(0.349 0.349)"/>
            <path id="Path_7" data-name="Path 7"
                  d="M150.78,82.378h-.025a1.742,1.742,0,0,1-1.742-1.742v-.025a1.742,1.742,0,0,1,1.742-1.742h.025a1.742,1.742,0,0,1,1.742,1.742v.025A1.742,1.742,0,0,1,150.78,82.378Z"
                  transform="translate(-134.447 -71.07)" fill="#fff"/>
            <path id="Path_8" data-name="Path 8"
                  d="M150.78,153.952h-.025a1.742,1.742,0,0,1-1.742-1.742v-.025a1.742,1.742,0,0,1,1.742-1.742h.025a1.742,1.742,0,0,1,1.742,1.742v.025A1.742,1.742,0,0,1,150.78,153.952Z"
                  transform="translate(-134.447 -135.739)" fill="#fff"/>
            <path id="Path_9" data-name="Path 9"
                  d="M80.948,152.185v.025a1.742,1.742,0,0,1-1.742,1.742h-.025a1.742,1.742,0,0,1-1.742-1.742v-.025a1.742,1.742,0,0,1,1.742-1.742h.025A1.742,1.742,0,0,1,80.948,152.185Z"
                  transform="translate(-69.777 -135.739)" fill="#fff"/>
            <path id="Path_10" data-name="Path 10"
                  d="M150.755,218.815h.025a1.742,1.742,0,0,1,1.742,1.742v.025a1.742,1.742,0,0,1-1.742,1.742h-.025a1.742,1.742,0,0,1-1.742-1.742v-.025A1.742,1.742,0,0,1,150.755,218.815Z"
                  transform="translate(-134.447 -197.516)" fill="#fff"/>
            <path id="Path_11" data-name="Path 11"
                  d="M222.3,152.21v-.025a1.742,1.742,0,0,1,1.742-1.742h.025a1.742,1.742,0,0,1,1.742,1.742v.025a1.742,1.742,0,0,1-1.742,1.742h-.025A1.742,1.742,0,0,1,222.3,152.21Z"
                  transform="translate(-200.668 -135.739)" fill="#fff"/>
            <path id="Path_12" data-name="Path 12"
                  d="M108.388,206.8a1.108,1.108,0,1,0-1.108-1.108A1.108,1.108,0,0,0,108.388,206.8Z"
                  transform="translate(-96.74 -184.66)" fill="#fff"/>
            <path id="Path_13" data-name="Path 13"
                  d="M108.388,104.092a1.108,1.108,0,1,0-1.108-1.108A1.108,1.108,0,0,0,108.388,104.092Z"
                  transform="translate(-96.74 -91.856)" fill="#fff"/>
            <path id="Path_14" data-name="Path 14"
                  d="M203.8,104.092a1.108,1.108,0,1,0-1.108-1.108A1.108,1.108,0,0,0,203.8,104.092Z"
                  transform="translate(-182.951 -91.856)" fill="#fff"/>
            <path id="Path_15" data-name="Path 15"
                  d="M203.828,206.807a1.108,1.108,0,1,0-1.108-1.108A1.108,1.108,0,0,0,203.828,206.807Z"
                  transform="translate(-182.973 -184.663)" fill="#fff"/>
            <g id="Group_3" data-name="Group 3" transform="translate(7.662 7.8)" opacity="0.8">
                <path id="Path_16" data-name="Path 16"
                      d="M150.78,82.378h-.025a1.742,1.742,0,0,1-1.742-1.742v-.025a1.742,1.742,0,0,1,1.742-1.742h.025a1.742,1.742,0,0,1,1.742,1.742v.025A1.742,1.742,0,0,1,150.78,82.378Z"
                      transform="translate(-142.109 -78.87)" fill="#fff"/>
                <path id="Path_17" data-name="Path 17"
                      d="M150.78,153.952h-.025a1.742,1.742,0,0,1-1.742-1.742v-.025a1.742,1.742,0,0,1,1.742-1.742h.025a1.742,1.742,0,0,1,1.742,1.742v.025A1.742,1.742,0,0,1,150.78,153.952Z"
                      transform="translate(-142.109 -143.539)" fill="#fff"/>
                <path id="Path_18" data-name="Path 18"
                      d="M80.948,152.185v.025a1.742,1.742,0,0,1-1.742,1.742h-.025a1.742,1.742,0,0,1-1.742-1.742v-.025a1.742,1.742,0,0,1,1.742-1.742h.025A1.742,1.742,0,0,1,80.948,152.185Z"
                      transform="translate(-77.439 -143.539)" fill="#fff"/>
                <path id="Path_19" data-name="Path 19"
                      d="M150.755,218.815h.025a1.742,1.742,0,0,1,1.742,1.742v.025a1.742,1.742,0,0,1-1.742,1.742h-.025a1.742,1.742,0,0,1-1.742-1.742v-.025A1.742,1.742,0,0,1,150.755,218.815Z"
                      transform="translate(-142.109 -205.315)" fill="#fff"/>
                <path id="Path_20" data-name="Path 20"
                      d="M222.3,152.21v-.025a1.742,1.742,0,0,1,1.742-1.742h.025a1.742,1.742,0,0,1,1.742,1.742v.025a1.742,1.742,0,0,1-1.742,1.742h-.025A1.742,1.742,0,0,1,222.3,152.21Z"
                      transform="translate(-208.33 -143.539)" fill="#fff"/>
                <path id="Path_21" data-name="Path 21"
                      d="M108.388,206.8a1.108,1.108,0,1,0-1.108-1.108A1.108,1.108,0,0,0,108.388,206.8Z"
                      transform="translate(-104.401 -192.46)" fill="#fff"/>
                <path id="Path_22" data-name="Path 22"
                      d="M108.388,104.092a1.108,1.108,0,1,0-1.108-1.108A1.108,1.108,0,0,0,108.388,104.092Z"
                      transform="translate(-104.401 -99.656)" fill="#fff"/>
                <path id="Path_23" data-name="Path 23"
                      d="M203.8,104.092a1.108,1.108,0,1,0-1.108-1.108A1.108,1.108,0,0,0,203.8,104.092Z"
                      transform="translate(-190.612 -99.656)" fill="#fff"/>
                <path id="Path_24" data-name="Path 24"
                      d="M203.828,206.807a1.108,1.108,0,1,0-1.108-1.108A1.108,1.108,0,0,0,203.828,206.807Z"
                      transform="translate(-190.635 -192.463)" fill="#fff"/>
            </g>
            <g id="Group_4" data-name="Group 4" transform="translate(7.662 7.8)" opacity="0.5">
                <path id="Path_25" data-name="Path 25"
                      d="M150.78,82.378h-.025a1.742,1.742,0,0,1-1.742-1.742v-.025a1.742,1.742,0,0,1,1.742-1.742h.025a1.742,1.742,0,0,1,1.742,1.742v.025A1.742,1.742,0,0,1,150.78,82.378Z"
                      transform="translate(-142.109 -78.87)" fill="#fff"/>
                <path id="Path_26" data-name="Path 26"
                      d="M150.78,153.952h-.025a1.742,1.742,0,0,1-1.742-1.742v-.025a1.742,1.742,0,0,1,1.742-1.742h.025a1.742,1.742,0,0,1,1.742,1.742v.025A1.742,1.742,0,0,1,150.78,153.952Z"
                      transform="translate(-142.109 -143.539)" fill="#fff"/>
                <path id="Path_27" data-name="Path 27"
                      d="M80.948,152.185v.025a1.742,1.742,0,0,1-1.742,1.742h-.025a1.742,1.742,0,0,1-1.742-1.742v-.025a1.742,1.742,0,0,1,1.742-1.742h.025A1.742,1.742,0,0,1,80.948,152.185Z"
                      transform="translate(-77.439 -143.539)" fill="#fff"/>
                <path id="Path_28" data-name="Path 28"
                      d="M150.755,218.815h.025a1.742,1.742,0,0,1,1.742,1.742v.025a1.742,1.742,0,0,1-1.742,1.742h-.025a1.742,1.742,0,0,1-1.742-1.742v-.025A1.742,1.742,0,0,1,150.755,218.815Z"
                      transform="translate(-142.109 -205.315)" fill="#fff"/>
                <path id="Path_29" data-name="Path 29"
                      d="M222.3,152.21v-.025a1.742,1.742,0,0,1,1.742-1.742h.025a1.742,1.742,0,0,1,1.742,1.742v.025a1.742,1.742,0,0,1-1.742,1.742h-.025A1.742,1.742,0,0,1,222.3,152.21Z"
                      transform="translate(-208.33 -143.539)" fill="#fff"/>
                <path id="Path_30" data-name="Path 30"
                      d="M108.388,206.8a1.108,1.108,0,1,0-1.108-1.108A1.108,1.108,0,0,0,108.388,206.8Z"
                      transform="translate(-104.401 -192.46)" fill="#fff"/>
                <path id="Path_31" data-name="Path 31"
                      d="M108.388,104.092a1.108,1.108,0,1,0-1.108-1.108A1.108,1.108,0,0,0,108.388,104.092Z"
                      transform="translate(-104.401 -99.656)" fill="#fff"/>
                <path id="Path_32" data-name="Path 32"
                      d="M203.8,104.092a1.108,1.108,0,1,0-1.108-1.108A1.108,1.108,0,0,0,203.8,104.092Z"
                      transform="translate(-190.612 -99.656)" fill="#fff"/>
                <path id="Path_33" data-name="Path 33"
                      d="M203.828,206.807a1.108,1.108,0,1,0-1.108-1.108A1.108,1.108,0,0,0,203.828,206.807Z"
                      transform="translate(-190.635 -192.463)" fill="#fff"/>
            </g>
            <g id="Group_5" data-name="Group 5" transform="translate(7.554 7.879)" opacity="0.1">
                <path id="Path_34" data-name="Path 34"
                      d="M149.661,83.193h-.025a1.742,1.742,0,0,1-1.742-1.742v-.025a1.742,1.742,0,0,1,1.742-1.742h.025a1.742,1.742,0,0,1,1.742,1.742v.025A1.742,1.742,0,0,1,149.661,83.193Z"
                      transform="translate(-140.99 -79.685)" fill="#fff"/>
                <path id="Path_35" data-name="Path 35"
                      d="M149.661,154.767h-.025a1.742,1.742,0,0,1-1.742-1.742V153a1.742,1.742,0,0,1,1.742-1.742h.025A1.742,1.742,0,0,1,151.4,153v.025A1.742,1.742,0,0,1,149.661,154.767Z"
                      transform="translate(-140.99 -144.354)" fill="#fff"/>
                <path id="Path_36" data-name="Path 36"
                      d="M79.829,153v.025a1.742,1.742,0,0,1-1.742,1.742h-.025a1.742,1.742,0,0,1-1.742-1.742V153a1.742,1.742,0,0,1,1.742-1.742h.025A1.742,1.742,0,0,1,79.829,153Z"
                      transform="translate(-76.32 -144.354)" fill="#fff"/>
                <path id="Path_37" data-name="Path 37"
                      d="M149.636,219.629h.025a1.742,1.742,0,0,1,1.742,1.742v.025a1.742,1.742,0,0,1-1.742,1.742h-.025a1.742,1.742,0,0,1-1.742-1.742v-.025A1.742,1.742,0,0,1,149.636,219.629Z"
                      transform="translate(-140.99 -206.13)" fill="#fff"/>
                <path id="Path_38" data-name="Path 38"
                      d="M221.185,153.025V153a1.742,1.742,0,0,1,1.742-1.742h.025A1.742,1.742,0,0,1,224.694,153v.025a1.742,1.742,0,0,1-1.742,1.742h-.025A1.742,1.742,0,0,1,221.185,153.025Z"
                      transform="translate(-207.211 -144.354)" fill="#fff"/>
                <path id="Path_39" data-name="Path 39"
                      d="M107.27,207.619a1.108,1.108,0,1,0-1.108-1.108A1.108,1.108,0,0,0,107.27,207.619Z"
                      transform="translate(-103.283 -193.275)" fill="#fff"/>
                <path id="Path_40" data-name="Path 40"
                      d="M107.27,104.907a1.108,1.108,0,1,0-1.108-1.108A1.108,1.108,0,0,0,107.27,104.907Z"
                      transform="translate(-103.283 -100.471)" fill="#fff"/>
                <path id="Path_41" data-name="Path 41"
                      d="M202.684,104.907a1.108,1.108,0,1,0-1.108-1.108A1.108,1.108,0,0,0,202.684,104.907Z"
                      transform="translate(-189.493 -100.471)" fill="#fff"/>
                <path id="Path_42" data-name="Path 42"
                      d="M202.709,207.622a1.108,1.108,0,1,0-1.108-1.108A1.108,1.108,0,0,0,202.709,207.622Z"
                      transform="translate(-189.516 -193.278)" fill="#fff"/>
            </g>
            <g id="Group_9" data-name="Group 9" transform="translate(7.554 7.8)" opacity="0.3">
                <path id="Path_43" data-name="Path 43"
                      d="M150.78,82.378h-.025a1.742,1.742,0,0,1-1.742-1.742v-.025a1.742,1.742,0,0,1,1.742-1.742h.025a1.742,1.742,0,0,1,1.742,1.742v.025A1.742,1.742,0,0,1,150.78,82.378Z"
                      transform="translate(-142.001 -78.87)" fill="#fff"/>
                <path id="Path_44" data-name="Path 44"
                      d="M150.78,153.952h-.025a1.742,1.742,0,0,1-1.742-1.742v-.025a1.742,1.742,0,0,1,1.742-1.742h.025a1.742,1.742,0,0,1,1.742,1.742v.025A1.742,1.742,0,0,1,150.78,153.952Z"
                      transform="translate(-142.001 -143.539)" fill="#fff"/>
                <path id="Path_45" data-name="Path 45"
                      d="M80.948,152.185v.025a1.742,1.742,0,0,1-1.742,1.742h-.025a1.742,1.742,0,0,1-1.742-1.742v-.025a1.742,1.742,0,0,1,1.742-1.742h.025A1.742,1.742,0,0,1,80.948,152.185Z"
                      transform="translate(-77.331 -143.539)" fill="#fff"/>
                <path id="Path_46" data-name="Path 46"
                      d="M150.755,218.815h.025a1.742,1.742,0,0,1,1.742,1.742v.025a1.742,1.742,0,0,1-1.742,1.742h-.025a1.742,1.742,0,0,1-1.742-1.742v-.025A1.742,1.742,0,0,1,150.755,218.815Z"
                      transform="translate(-142.001 -205.315)" fill="#fff"/>
                <path id="Path_47" data-name="Path 47"
                      d="M222.3,152.21v-.025a1.742,1.742,0,0,1,1.742-1.742h.025a1.742,1.742,0,0,1,1.742,1.742v.025a1.742,1.742,0,0,1-1.742,1.742h-.025A1.742,1.742,0,0,1,222.3,152.21Z"
                      transform="translate(-208.222 -143.539)" fill="#fff"/>
                <path id="Path_48" data-name="Path 48"
                      d="M108.388,206.8a1.108,1.108,0,1,0-1.108-1.108A1.108,1.108,0,0,0,108.388,206.8Z"
                      transform="translate(-104.294 -192.46)" fill="#fff"/>
                <path id="Path_49" data-name="Path 49"
                      d="M108.388,104.092a1.108,1.108,0,1,0-1.108-1.108A1.108,1.108,0,0,0,108.388,104.092Z"
                      transform="translate(-104.294 -99.656)" fill="#fff"/>
                <path id="Path_50" data-name="Path 50"
                      d="M203.8,104.092a1.108,1.108,0,1,0-1.108-1.108A1.108,1.108,0,0,0,203.8,104.092Z"
                      transform="translate(-190.505 -99.656)" fill="#fff"/>
                <path id="Path_51" data-name="Path 51"
                      d="M203.828,206.807a1.108,1.108,0,1,0-1.108-1.108A1.108,1.108,0,0,0,203.828,206.807Z"
                      transform="translate(-190.527 -192.463)" fill="#fff"/>
                <g id="Group_6" data-name="Group 6" transform="translate(0.108)" opacity="0.8">
                    <path id="Path_52" data-name="Path 52"
                          d="M150.78,82.378h-.025a1.742,1.742,0,0,1-1.742-1.742v-.025a1.742,1.742,0,0,1,1.742-1.742h.025a1.742,1.742,0,0,1,1.742,1.742v.025A1.742,1.742,0,0,1,150.78,82.378Z"
                          transform="translate(-142.109 -78.87)" fill="#fff"/>
                    <path id="Path_53" data-name="Path 53"
                          d="M150.78,153.952h-.025a1.742,1.742,0,0,1-1.742-1.742v-.025a1.742,1.742,0,0,1,1.742-1.742h.025a1.742,1.742,0,0,1,1.742,1.742v.025A1.742,1.742,0,0,1,150.78,153.952Z"
                          transform="translate(-142.109 -143.539)" fill="#fff"/>
                    <path id="Path_54" data-name="Path 54"
                          d="M80.948,152.185v.025a1.742,1.742,0,0,1-1.742,1.742h-.025a1.742,1.742,0,0,1-1.742-1.742v-.025a1.742,1.742,0,0,1,1.742-1.742h.025A1.742,1.742,0,0,1,80.948,152.185Z"
                          transform="translate(-77.439 -143.539)" fill="#fff"/>
                    <path id="Path_55" data-name="Path 55"
                          d="M150.755,218.815h.025a1.742,1.742,0,0,1,1.742,1.742v.025a1.742,1.742,0,0,1-1.742,1.742h-.025a1.742,1.742,0,0,1-1.742-1.742v-.025A1.742,1.742,0,0,1,150.755,218.815Z"
                          transform="translate(-142.109 -205.315)" fill="#fff"/>
                    <path id="Path_56" data-name="Path 56"
                          d="M222.3,152.21v-.025a1.742,1.742,0,0,1,1.742-1.742h.025a1.742,1.742,0,0,1,1.742,1.742v.025a1.742,1.742,0,0,1-1.742,1.742h-.025A1.742,1.742,0,0,1,222.3,152.21Z"
                          transform="translate(-208.33 -143.539)" fill="#fff"/>
                    <path id="Path_57" data-name="Path 57"
                          d="M108.388,206.8a1.108,1.108,0,1,0-1.108-1.108A1.108,1.108,0,0,0,108.388,206.8Z"
                          transform="translate(-104.401 -192.46)" fill="#fff"/>
                    <path id="Path_58" data-name="Path 58"
                          d="M108.388,104.092a1.108,1.108,0,1,0-1.108-1.108A1.108,1.108,0,0,0,108.388,104.092Z"
                          transform="translate(-104.401 -99.656)" fill="#fff"/>
                    <path id="Path_59" data-name="Path 59"
                          d="M203.8,104.092a1.108,1.108,0,1,0-1.108-1.108A1.108,1.108,0,0,0,203.8,104.092Z"
                          transform="translate(-190.612 -99.656)" fill="#fff"/>
                    <path id="Path_60" data-name="Path 60"
                          d="M203.828,206.807a1.108,1.108,0,1,0-1.108-1.108A1.108,1.108,0,0,0,203.828,206.807Z"
                          transform="translate(-190.635 -192.463)" fill="#fff"/>
                </g>
                <g id="Group_7" data-name="Group 7" transform="translate(0.108)" opacity="0.5">
                    <path id="Path_61" data-name="Path 61"
                          d="M150.78,82.378h-.025a1.742,1.742,0,0,1-1.742-1.742v-.025a1.742,1.742,0,0,1,1.742-1.742h.025a1.742,1.742,0,0,1,1.742,1.742v.025A1.742,1.742,0,0,1,150.78,82.378Z"
                          transform="translate(-142.109 -78.87)" fill="#fff"/>
                    <path id="Path_62" data-name="Path 62"
                          d="M150.78,153.952h-.025a1.742,1.742,0,0,1-1.742-1.742v-.025a1.742,1.742,0,0,1,1.742-1.742h.025a1.742,1.742,0,0,1,1.742,1.742v.025A1.742,1.742,0,0,1,150.78,153.952Z"
                          transform="translate(-142.109 -143.539)" fill="#fff"/>
                    <path id="Path_63" data-name="Path 63"
                          d="M80.948,152.185v.025a1.742,1.742,0,0,1-1.742,1.742h-.025a1.742,1.742,0,0,1-1.742-1.742v-.025a1.742,1.742,0,0,1,1.742-1.742h.025A1.742,1.742,0,0,1,80.948,152.185Z"
                          transform="translate(-77.439 -143.539)" fill="#fff"/>
                    <path id="Path_64" data-name="Path 64"
                          d="M150.755,218.815h.025a1.742,1.742,0,0,1,1.742,1.742v.025a1.742,1.742,0,0,1-1.742,1.742h-.025a1.742,1.742,0,0,1-1.742-1.742v-.025A1.742,1.742,0,0,1,150.755,218.815Z"
                          transform="translate(-142.109 -205.315)" fill="#fff"/>
                    <path id="Path_65" data-name="Path 65"
                          d="M222.3,152.21v-.025a1.742,1.742,0,0,1,1.742-1.742h.025a1.742,1.742,0,0,1,1.742,1.742v.025a1.742,1.742,0,0,1-1.742,1.742h-.025A1.742,1.742,0,0,1,222.3,152.21Z"
                          transform="translate(-208.33 -143.539)" fill="#fff"/>
                    <path id="Path_66" data-name="Path 66"
                          d="M108.388,206.8a1.108,1.108,0,1,0-1.108-1.108A1.108,1.108,0,0,0,108.388,206.8Z"
                          transform="translate(-104.401 -192.46)" fill="#fff"/>
                    <path id="Path_67" data-name="Path 67"
                          d="M108.388,104.092a1.108,1.108,0,1,0-1.108-1.108A1.108,1.108,0,0,0,108.388,104.092Z"
                          transform="translate(-104.401 -99.656)" fill="#fff"/>
                    <path id="Path_68" data-name="Path 68"
                          d="M203.8,104.092a1.108,1.108,0,1,0-1.108-1.108A1.108,1.108,0,0,0,203.8,104.092Z"
                          transform="translate(-190.612 -99.656)" fill="#fff"/>
                    <path id="Path_69" data-name="Path 69"
                          d="M203.828,206.807a1.108,1.108,0,1,0-1.108-1.108A1.108,1.108,0,0,0,203.828,206.807Z"
                          transform="translate(-190.635 -192.463)" fill="#fff"/>
                </g>
                <g id="Group_8" data-name="Group 8" transform="translate(0 0.079)" opacity="0.1">
                    <path id="Path_70" data-name="Path 70"
                          d="M149.661,83.193h-.025a1.742,1.742,0,0,1-1.742-1.742v-.025a1.742,1.742,0,0,1,1.742-1.742h.025a1.742,1.742,0,0,1,1.742,1.742v.025A1.742,1.742,0,0,1,149.661,83.193Z"
                          transform="translate(-140.99 -79.685)" fill="#fff"/>
                    <path id="Path_71" data-name="Path 71"
                          d="M149.661,154.767h-.025a1.742,1.742,0,0,1-1.742-1.742V153a1.742,1.742,0,0,1,1.742-1.742h.025A1.742,1.742,0,0,1,151.4,153v.025A1.742,1.742,0,0,1,149.661,154.767Z"
                          transform="translate(-140.99 -144.354)" fill="#fff"/>
                    <path id="Path_72" data-name="Path 72"
                          d="M79.829,153v.025a1.742,1.742,0,0,1-1.742,1.742h-.025a1.742,1.742,0,0,1-1.742-1.742V153a1.742,1.742,0,0,1,1.742-1.742h.025A1.742,1.742,0,0,1,79.829,153Z"
                          transform="translate(-76.32 -144.354)" fill="#fff"/>
                    <path id="Path_73" data-name="Path 73"
                          d="M149.636,219.629h.025a1.742,1.742,0,0,1,1.742,1.742v.025a1.742,1.742,0,0,1-1.742,1.742h-.025a1.742,1.742,0,0,1-1.742-1.742v-.025A1.742,1.742,0,0,1,149.636,219.629Z"
                          transform="translate(-140.99 -206.13)" fill="#fff"/>
                    <path id="Path_74" data-name="Path 74"
                          d="M221.185,153.025V153a1.742,1.742,0,0,1,1.742-1.742h.025A1.742,1.742,0,0,1,224.694,153v.025a1.742,1.742,0,0,1-1.742,1.742h-.025A1.742,1.742,0,0,1,221.185,153.025Z"
                          transform="translate(-207.211 -144.354)" fill="#fff"/>
                    <path id="Path_75" data-name="Path 75"
                          d="M107.27,207.619a1.108,1.108,0,1,0-1.108-1.108A1.108,1.108,0,0,0,107.27,207.619Z"
                          transform="translate(-103.283 -193.275)" fill="#fff"/>
                    <path id="Path_76" data-name="Path 76"
                          d="M107.27,104.907a1.108,1.108,0,1,0-1.108-1.108A1.108,1.108,0,0,0,107.27,104.907Z"
                          transform="translate(-103.283 -100.471)" fill="#fff"/>
                    <path id="Path_77" data-name="Path 77"
                          d="M202.684,104.907a1.108,1.108,0,1,0-1.108-1.108A1.108,1.108,0,0,0,202.684,104.907Z"
                          transform="translate(-189.493 -100.471)" fill="#fff"/>
                    <path id="Path_78" data-name="Path 78"
                          d="M202.709,207.622a1.108,1.108,0,1,0-1.108-1.108A1.108,1.108,0,0,0,202.709,207.622Z"
                          transform="translate(-189.516 -193.278)" fill="#fff"/>
                </g>
            </g>
        </g>
    </g>
</svg>
