<!-- <svg data-name="Group 1159" xmlns="http://www.w3.org/2000/svg" width="16" height="16" viewBox="0 0 16 16">
    <path data-name="Path 19" d="M1184.644 756.228a8 8 0 1 0 8 8 8 8 0 0 0-8-8zm2.8 12h-5.594a1.2 1.2 0 0 1-1.2-1.2v-5.594a1.2 1.2 0 0 1 1.2-1.2h5.594a1.2 1.2 0 0 1 1.2 1.2v5.594a1.2 1.2 0 0 1-1.203 1.2z" transform="translate(-1176.644 -756.228)" style="fill:#ff562e"/>
</svg> -->

<svg width="16" height="17" viewBox="0 0 16 17" fill="none" xmlns="http://www.w3.org/2000/svg">
    <path d="M8.00005 0.499023C6.4178 0.499023 4.87106 0.968178 3.55547 1.84723C2.23987 2.72628 1.21443 3.97569 0.608933 5.4375C0.00343233 6.89931 -0.154949 8.50784 0.153733 10.0597C0.462415 11.6115 1.22437 13.037 2.34319 14.1558C3.46201 15.2746 4.88741 16.0366 6.43926 16.3453C7.9911 16.654 9.59964 16.4955 11.0614 15.89C12.5233 15.2845 13.7727 14.2591 14.6518 12.9435C15.5308 11.6279 16 10.0813 16 8.49902C16 6.37729 15.1572 4.34245 13.6569 2.84216C12.1566 1.34187 10.1218 0.499023 8.00005 0.499023ZM10.8 12.499H5.20598C4.88772 12.499 4.58251 12.3726 4.35747 12.1475C4.13242 11.9225 4.00603 11.6173 4.00603 11.299V5.70502C4.00603 5.38676 4.13242 5.08149 4.35747 4.85645C4.58251 4.6314 4.88772 4.505 5.20598 4.505H10.8C11.1182 4.505 11.4234 4.6314 11.6485 4.85645C11.8735 5.08149 12 5.38676 12 5.70502V11.299C12 11.4569 11.9689 11.6131 11.9084 11.7589C11.8479 11.9047 11.7593 12.0371 11.6475 12.1486C11.5358 12.26 11.4031 12.3484 11.2571 12.4085C11.1112 12.4686 10.9549 12.4994 10.797 12.499H10.8Z"
          fill="#FF562E"/>
</svg>
