<svg xmlns="http://www.w3.org/2000/svg" xmlns:xlink="http://www.w3.org/1999/xlink" width="32" height="32" viewBox="0 0 32 32">
  <defs>
    <clipPath id="clip-secret-scrt-logo">
      <rect width="32" height="32"/>
    </clipPath>
  </defs>
  <g id="secret-scrt-logo" clip-path="url(#clip-secret-scrt-logo)">
    <rect width="32" height="32" fill="#fff"/>
    <g id="terra-luna-luna-logo" transform="translate(-237 -10)">
      <circle id="Ellipse_3" data-name="Ellipse 3" cx="1000" cy="1000" r="1000" fill="#172852"/>
      <g id="Group_1" data-name="Group 1">
        <path id="Path_4" data-name="Path 4" d="M805.5,446.9c117.1-43.8,248.9-43.9,368.2-7.9,155.3,48.2,286.4,165.4,354.9,312.5,18.9,41.9,37,85.6,38.8,132.2-87.3-50.6-183-83.4-278.9-113.3-153.4-55.3-314-93.7-459.2-169.7-33.8-20.2-76.9-40.9-86.1-83-3.7-36.4,34.8-56.7,62.3-70.8" fill="#ffd83d"/>
        <path id="Path_5" data-name="Path 5" d="M452,800.9c33.9-92,89.5-177.4,165-240.7,19.2,157.9,86.4,310.5,197.4,425.3,133.1,138.3,322.7,223.2,515.6,220,76.6,2.4,151.5-15.3,226.2-29.6-73.5,265.6-364.6,441.9-634.3,399.5-162.8-20.8-313.1-117.2-403.8-253.3C415.8,1171.7,390,972,452,800.9Z" fill="#ffd83d"/>
      </g>
      <path id="Path_6" data-name="Path 6" d="M1288.5,770.4c95.9,29.9,191.6,62.7,278.9,113.3l5.9,3.1c8.1,60.9,14,123,3.2,184-43.9-18.6-79.5-51.3-116.7-80.2-71.6-59.6-144.7-127.8-171.3-220.2" fill="#ff6f03"/>
    </g>
    <g id="Group_2" data-name="Group 2" transform="translate(-408 -312)">
      <circle id="Ellipse_2" data-name="Ellipse 2" cx="15" cy="15" r="15" transform="translate(409 313)" fill="#1b1b1b"/>
      <path id="Ellipse_2_-_Outline" data-name="Ellipse 2 - Outline" d="M14-2A15.928,15.928,0,0,1,22.946.733a16.045,16.045,0,0,1,5.8,7.039,15.98,15.98,0,0,1-1.475,15.174,16.045,16.045,0,0,1-7.039,5.8A15.98,15.98,0,0,1,5.054,27.267a16.045,16.045,0,0,1-5.8-7.039A15.98,15.98,0,0,1,.733,5.054a16.045,16.045,0,0,1,7.039-5.8A15.9,15.9,0,0,1,14-2Zm0,30.951A14.951,14.951,0,1,0-.951,14,14.968,14.968,0,0,0,14,28.951Z" transform="translate(410 314)" fill="#fff"/>
      <path id="Path_2" data-name="Path 2" d="M49.372,35.105a.459.459,0,0,0,.708-.052.453.453,0,0,0-.052-.63,7.106,7.106,0,0,0-5.849-2.361c-2.7.131-5.089,1.548-4.931,4.538.131,2.649,2.7,3.62,4.957,4.485,1.731.656,3.252,1.233,3.331,2.466.079,1.364-1.311,2.177-2.518,2.256A6.153,6.153,0,0,1,39.9,43.682a.485.485,0,0,0-.656-.026.5.5,0,0,0-.026.708,7.2,7.2,0,0,0,5.928,2.387c2.518-.184,5.613-1.6,5.456-4.59-.131-2.6-2.6-3.567-4.826-4.407-1.836-.708-3.541-1.364-3.62-2.859-.052-1.075,1.233-1.862,2.151-1.915A6.126,6.126,0,0,1,49.372,35.105Zm.289,7.108a3.2,3.2,0,0,1-1.574,2.728l-.052-.026a2.768,2.768,0,0,0,.393-1.652c0-1.7-1.862-2.361-3.83-3.069-2.177-.787-4.459-1.6-4.459-3.908a3.111,3.111,0,0,1,1.39-2.7l.026.052a3.735,3.735,0,0,0-.341,1.6c0,1.889,2.072,2.649,4.17,3.436C47.536,39.459,49.661,40.246,49.661,42.213Z" transform="translate(379.165 288.357)" fill="#fff" fill-rule="evenodd"/>
      <path id="Path_3" data-name="Path 3" d="M24.721,37.443A12.721,12.721,0,1,1,37.443,24.721,12.736,12.736,0,0,1,24.721,37.443Zm0-24.918a12.2,12.2,0,1,0,12.2,12.2A12.211,12.211,0,0,0,24.721,12.525Z" transform="translate(399.148 303.148)" fill="#fff"/>
    </g>
  </g>
</svg>
