<svg xmlns="http://www.w3.org/2000/svg" xmlns:xlink="http://www.w3.org/1999/xlink" width="32" height="32" viewBox="0 0 32 32">
  <defs>
    <clipPath id="clip-terra-luna-luna-logo">
      <rect width="32" height="32"/>
    </clipPath>
  </defs>
  <g id="terra-luna-luna-logo" clip-path="url(#clip-terra-luna-luna-logo)">
    <rect width="32" height="32" fill="#fff"/>
    <g id="terra-luna-luna-logo-2" data-name="terra-luna-luna-logo" transform="translate(0.434 0.434)">
      <circle id="Ellipse_3" data-name="Ellipse 3" cx="16" cy="16" r="16" transform="translate(-0.434 -0.434)" fill="#172852"/>
      <g id="Group_1" data-name="Group 1" transform="translate(6.343 6.253)">
        <path id="Path_4" data-name="Path 4" d="M743.944,413.488a9.222,9.222,0,0,1,5.841-.125,9.377,9.377,0,0,1,5.63,4.957,5.713,5.713,0,0,1,.616,2.1,21.443,21.443,0,0,0-4.424-1.8,57,57,0,0,1-7.285-2.692c-.536-.32-1.22-.649-1.366-1.317-.059-.577.552-.9.988-1.123" transform="translate(-737.807 -412.95)" fill="#ffd83d"/>
        <path id="Path_5" data-name="Path 5" d="M419.178,564.018A9.061,9.061,0,0,1,421.8,560.2a11.765,11.765,0,0,0,3.132,6.747,11.274,11.274,0,0,0,8.179,3.49,16.424,16.424,0,0,0,3.588-.47,9.251,9.251,0,1,1-17.517-5.949Z" transform="translate(-418.649 -557.864)" fill="#ffd83d"/>
      </g>
      <path id="Path_6" data-name="Path 6" d="M1288.5,770.4a21.442,21.442,0,0,1,4.424,1.8l.094.049a9.533,9.533,0,0,1,.051,2.919,8.667,8.667,0,0,1-1.851-1.272,7.56,7.56,0,0,1-2.718-3.493" transform="translate(-1268.358 -758.477)" fill="#ff6f03"/>
    </g>
  </g>
</svg>
