<svg width="24" height="24" viewBox="0 0 24 24" fill="none" xmlns="http://www.w3.org/2000/svg">
<path d="M11 22C17.0751 22 22 17.0751 22 11C22 4.92487 17.0751 0 11 0C4.92487 0 0 4.92487 0 11C0 17.0751 4.92487 22 11 22Z" fill="#3E73C4"/>
<path d="M13.7653 12.4602C13.7653 11 12.8853 10.4995 11.1253 10.2905C9.8686 10.1234 9.61766 9.78998 9.61766 9.2056C9.61766 8.62123 10.037 8.2431 10.8744 8.2431C11.1721 8.19578 11.4768 8.25872 11.7313 8.42011C11.9859 8.5815 12.1728 8.83025 12.257 9.11966C12.2791 9.17984 12.319 9.23183 12.3715 9.26869C12.424 9.30554 12.4864 9.32551 12.5505 9.32591H13.2208C13.2596 9.32695 13.2981 9.32011 13.3341 9.30581C13.3701 9.2915 13.4028 9.27004 13.4302 9.24272C13.4577 9.2154 13.4793 9.18279 13.4938 9.14686C13.5082 9.11094 13.5153 9.07245 13.5144 9.03373V8.99248C13.4313 8.54048 13.2015 8.12849 12.8606 7.82027C12.5197 7.51205 12.0867 7.32479 11.6286 7.28748V6.2851C11.6286 6.11804 11.5028 5.99291 11.2938 5.95098H10.6647C10.4977 5.95098 10.3718 6.0761 10.3299 6.2851V7.2476C9.79302 7.26693 9.28324 7.4883 8.9026 7.86742C8.52195 8.24653 8.29852 8.75542 8.27703 9.29222C8.27703 10.6672 9.11441 11.211 10.8744 11.4235C12.048 11.6297 12.4247 11.8827 12.4247 12.5503C12.4247 13.2178 11.8383 13.6764 11.0422 13.6764C9.95247 13.6764 9.57572 13.2179 9.44991 12.5915C9.43714 12.5225 9.401 12.4599 9.34754 12.4143C9.29408 12.3687 9.22657 12.343 9.15635 12.3413H8.4441C8.40544 12.3403 8.36699 12.3473 8.33108 12.3616C8.29517 12.3759 8.26254 12.3974 8.23516 12.4247C8.20778 12.452 8.18623 12.4846 8.1718 12.5205C8.15738 12.5564 8.15037 12.5948 8.15122 12.6335V12.6747C8.22889 13.2155 8.49354 13.7121 8.8992 14.078C9.30487 14.444 9.82592 14.6563 10.3718 14.6781V15.675C10.3718 15.8413 10.4977 15.9672 10.7067 16.0084H11.3357C11.5028 16.0084 11.6286 15.8833 11.6705 15.675V14.6712C12.2303 14.6239 12.7531 14.3724 13.1393 13.9645C13.5256 13.5567 13.7484 13.021 13.7653 12.4595V12.4602Z" fill="white"/>
<path d="M8.86347 16.8437C7.65889 16.4073 6.61799 15.6104 5.88235 14.5614C5.14672 13.5124 4.75206 12.2623 4.75206 10.9811C4.75206 9.69985 5.14672 8.44974 5.88235 7.40076C6.61799 6.35178 7.65889 5.55487 8.86347 5.11841C8.94365 5.08379 9.01098 5.02492 9.05598 4.95007C9.10099 4.87522 9.12142 4.78816 9.11441 4.7011V4.11672C9.12004 4.04018 9.09771 3.9642 9.05156 3.90288C9.00541 3.84156 8.93858 3.79906 8.86347 3.78329C8.80446 3.77717 8.74516 3.79175 8.69572 3.82454C7.17208 4.30267 5.8408 5.2546 4.89566 6.54177C3.95052 7.82894 3.44086 9.38417 3.44086 10.9811C3.44086 12.578 3.95052 14.1332 4.89566 15.4204C5.8408 16.7075 7.17208 17.6595 8.69572 18.1376C8.73049 18.1578 8.76955 18.1695 8.80972 18.1717C8.84988 18.1739 8.88999 18.1666 8.92675 18.1503C8.96352 18.134 8.9959 18.1092 9.02123 18.0779C9.04656 18.0467 9.06412 18.0099 9.07247 17.9705C9.11441 17.9293 9.11441 17.8867 9.11441 17.8035V17.2191C9.10123 17.1424 9.07209 17.0694 9.02885 17.0047C8.98562 16.9401 8.92928 16.8852 8.86347 16.8437ZM13.3047 3.82523C13.2702 3.80442 13.2312 3.79212 13.191 3.78934C13.1508 3.78655 13.1105 3.79336 13.0734 3.80921C13.0364 3.82506 13.0036 3.84948 12.9778 3.88048C12.9521 3.91147 12.934 3.94814 12.9252 3.98748C12.8833 4.02941 12.8833 4.07135 12.8833 4.15454V4.74373C12.8903 4.82788 12.9165 4.9093 12.9601 4.98167C13.0036 5.05403 13.0632 5.11541 13.1342 5.16104C14.3388 5.59749 15.3797 6.39441 16.1153 7.44339C16.851 8.49236 17.2456 9.74248 17.2456 11.0237C17.2456 12.3049 16.851 13.555 16.1153 14.604C15.3797 15.653 14.3388 16.4499 13.1342 16.8864C13.054 16.921 12.9867 16.9798 12.9417 17.0547C12.8967 17.1295 12.8763 17.2166 12.8833 17.3037V17.888C12.8777 17.9646 12.9 18.0406 12.9461 18.1019C12.9923 18.1632 13.0591 18.2057 13.1342 18.2215C13.1932 18.2276 13.2525 18.213 13.302 18.1802C14.2449 17.8858 15.1203 17.4077 15.8777 16.7735C16.6352 16.1393 17.2597 15.3616 17.7153 14.485C18.1709 13.6085 18.4486 12.6505 18.5325 11.6662C18.6163 10.6819 18.5046 9.69075 18.2038 8.74979C17.8385 7.59769 17.203 6.54966 16.3503 5.69312C15.4976 4.83658 14.4524 4.19638 13.302 3.82591L13.3047 3.82523Z" fill="white"/>
<circle cx="18" cy="18" r="6" fill="white"/>
<mask id="mask0_5685_19463" style="mask-type:luminance" maskUnits="userSpaceOnUse" x="14" y="14" width="8" height="8">
<path d="M21.5 14.5H14.5V21.5H21.5V14.5Z" fill="white"/>
</mask>
<g mask="url(#mask0_5685_19463)">
<path d="M21.5003 14.5H14.9961L16.8478 16.6831C17.1556 16.4134 17.5589 16.25 18.0003 16.25C18.9668 16.25 19.7503 17.0335 19.7503 18C19.7503 18.436 19.5909 18.8347 19.3271 19.141L21.5003 21.0109V14.5Z" fill="black"/>
<path d="M20.6433 21.4999L18.9223 19.4874C18.6545 19.6538 18.3385 19.7499 18 19.7499C17.0335 19.7499 16.25 18.9664 16.25 17.9999C16.25 17.6645 16.3444 17.3511 16.508 17.0849L14.5 15.3363V21.4999H20.6433Z" fill="black"/>
</g>
</svg>
