<svg width="24" height="24" viewBox="0 0 24 24" fill="none" xmlns="http://www.w3.org/2000/svg">
<path d="M22.9565 11.4783C22.9565 5.13899 17.8175 0 11.4782 0C5.13899 0 0 5.13899 0 11.4783C0 17.8175 5.13899 22.9565 11.4782 22.9565C17.8175 22.9565 22.9565 17.8175 22.9565 11.4783Z" fill="#E50571"/>
<path d="M18.9687 9.88632C18.6686 8.44836 17.9559 7.13128 16.893 6.06845C15.4468 4.62217 13.5254 3.82608 11.4789 3.82608C9.43241 3.82608 7.51098 4.618 6.06469 6.06428C5.71042 6.41855 5.40199 6.79784 5.13107 7.19797C5.05188 7.30634 4.97686 7.41887 4.91434 7.53974C4.20578 8.71927 3.8265 10.0656 3.8265 11.4784C3.8265 13.5249 4.62259 15.4464 6.06886 16.8926C7.51515 18.3389 9.43658 19.135 11.483 19.135C13.5295 19.135 15.451 18.3389 16.8972 16.8926C17.5766 16.2133 18.1184 15.4213 18.4978 14.567C18.5436 14.4752 18.5811 14.3752 18.6186 14.2752C18.9645 13.3999 19.1438 12.4538 19.1438 11.4827C19.1438 10.97 19.0938 10.4823 18.9937 9.99048C18.9895 9.96552 18.9729 9.90296 18.9687 9.88632ZM16.3137 6.38938C16.3554 6.43107 16.4013 6.47274 16.4471 6.51859C17.1223 7.1938 17.6474 7.98571 17.9934 8.84431C18.0268 8.92767 17.9559 9.02353 17.8601 9.00686C17.66 8.96936 17.4308 8.95685 17.1806 8.96102C17.0056 8.96519 16.8514 8.84015 16.8222 8.67343C16.6847 7.90652 16.4846 7.20214 16.2345 6.58528C16.222 6.55193 16.2054 6.51859 16.1928 6.47691C16.1595 6.39772 16.2554 6.32686 16.3137 6.38938ZM17.0431 10.8783C17.0431 10.7991 17.1431 10.7615 17.1932 10.8283C17.2473 10.9075 17.3057 10.9908 17.3599 11.07C17.4308 11.1784 17.4974 11.2868 17.5558 11.3951C17.5933 11.4618 17.585 11.5451 17.5349 11.6035C17.4557 11.6911 17.364 11.7869 17.2682 11.8828C17.2349 11.9161 17.1973 11.9536 17.1598 11.9911C17.114 12.0328 17.0348 11.9995 17.039 11.9411C17.0431 11.8244 17.0473 11.7118 17.0473 11.591C17.0514 11.3451 17.0514 11.1117 17.0431 10.8783ZM7.40261 5.76002C8.58631 4.91393 9.99507 4.45962 11.4789 4.45962C11.8707 4.45962 12.2583 4.49296 12.6375 4.55131C12.7376 4.56798 12.7751 4.69719 12.6918 4.75971C12.325 5.04729 11.9874 5.47243 11.6831 6.0226C11.6123 6.16014 11.4539 6.22267 11.3038 6.18098C10.3035 5.90173 9.31988 5.76836 8.41126 5.79753C8.07365 5.81003 7.76105 5.84338 7.46097 5.89757C7.3776 5.9184 7.33593 5.81003 7.40261 5.76002ZM6.4023 16.2508C6.25226 15.9757 6.44398 15.3297 7.41512 14.346C7.51515 14.2459 7.50681 14.0793 7.39428 13.9876C7.35676 13.9584 7.31926 13.9292 7.27757 13.8959C7.18171 13.8209 7.04 13.8251 6.95247 13.9126C6.93164 13.9334 6.91913 13.9459 6.91496 13.9501C6.43148 14.4461 6.08971 14.9087 5.90214 15.3255C5.84797 15.4464 5.68541 15.4589 5.61456 15.3463C4.86016 14.2127 4.45586 12.8789 4.45586 11.4827C4.45586 10.9866 4.50588 10.4906 4.61008 10.0155C4.62675 9.94466 4.72678 9.94046 4.75179 10.0113C4.89767 10.4906 5.13524 10.9908 5.46035 11.491C5.90214 12.1662 6.4815 12.8164 7.17338 13.4165C7.40678 13.6208 7.65686 13.8167 7.91944 14.0084C8.44877 14.396 9.01562 14.7503 9.62413 15.0629C9.8909 15.2047 10.1577 15.3338 10.4244 15.4589C10.5744 15.5256 10.7454 15.5297 10.8953 15.4713C11.0246 15.4213 11.1496 15.3714 11.2788 15.3172C11.4206 15.2588 11.4956 15.1087 11.4581 14.9587C11.4539 14.942 11.4497 14.9254 11.4497 14.917C11.2371 14.0293 11.1204 13.0248 11.1038 11.9786C11.1038 11.9661 11.1038 11.7286 11.1038 11.4827C11.1038 11.2367 11.1121 11.1242 11.1204 10.945C11.183 9.67789 11.3997 8.49003 11.7415 7.48555C11.7707 7.39386 11.7247 7.29383 11.6289 7.26048C11.5414 7.23131 11.4497 7.20214 11.358 7.17296C11.2705 7.14379 11.1704 7.1938 11.1372 7.2855C10.7661 8.37333 10.5369 9.66125 10.4786 11.0242C10.4703 11.1992 10.3785 11.3576 10.2285 11.4452C9.41991 11.9245 8.68217 12.433 8.03614 12.9414C7.90277 13.0498 7.71104 13.0415 7.58183 12.9331C6.93997 12.3746 6.39814 11.7702 5.98967 11.1409C5.18526 9.90717 4.99353 8.74845 5.452 7.86901L5.45617 7.86484C5.51452 7.76898 5.57705 7.67312 5.63957 7.58142C6.16473 6.88954 7.14003 6.48524 8.43627 6.4394C8.51546 6.43523 8.60298 6.43523 8.68217 6.43523C9.47826 6.43523 10.3285 6.5686 11.1955 6.81869C11.2121 6.82285 11.3372 6.86036 11.3622 6.8687C11.5831 6.93955 11.9582 7.06876 12.0083 7.08543C12.029 7.09377 12.1457 7.13962 12.1624 7.14379C12.5875 7.3105 13.0085 7.49806 13.4253 7.71479C14.2339 8.13576 14.9717 8.62758 15.6218 9.16941C14.3923 9.44867 12.9627 9.99469 11.5247 10.724C11.4581 10.7574 11.4121 10.8241 11.408 10.8991C11.4038 10.9866 11.3955 11.1659 11.3914 11.3117C11.3872 11.3992 11.483 11.4618 11.5622 11.4201C12.9876 10.6699 14.4089 10.1155 15.6302 9.81544C15.8594 9.7613 16.0053 9.54453 15.9761 9.31112C15.9552 9.14858 15.9303 8.98603 15.9011 8.83181C15.8677 8.63591 15.7552 8.45669 15.6009 8.33999C15.03 7.90652 14.4006 7.5064 13.7254 7.15212C13.2711 6.91455 12.8126 6.71031 12.3458 6.5311C12.25 6.49358 12.2041 6.37688 12.2583 6.28519C12.7334 5.43492 13.3003 4.95977 13.8546 4.95977C13.8587 4.95977 13.8672 4.95977 13.8713 4.95977C14.5215 4.97227 15.1675 5.64748 15.651 6.81869C15.8928 7.41053 16.0804 8.09408 16.2137 8.83598C16.2512 9.04438 16.2804 9.25694 16.3054 9.47367C16.3179 9.58626 16.3387 9.75709 16.3512 9.83208C16.4054 10.3948 16.4262 10.9825 16.4179 11.5785C16.4096 11.9578 16.3929 12.3329 16.3596 12.6955C15.4885 13.3957 14.4131 14.1001 13.2294 14.7254C12.9085 14.892 12.5875 15.0546 12.2708 15.2047C12.2041 15.238 11.9291 15.3589 11.9123 15.3672C11.6123 15.5047 11.3163 15.6256 11.0204 15.7423C11.0037 15.7507 10.6703 15.8757 10.6494 15.884C10.6245 15.8923 10.4535 15.9549 10.4327 15.9632C9.79506 16.1883 9.18233 16.3592 8.62383 16.4676C7.21088 16.7385 6.54818 16.53 6.4023 16.2508ZM8.32374 13.5249C8.94059 13.0248 9.66583 12.5163 10.4619 12.0412C10.4786 13.0581 10.5911 14.0376 10.7912 14.917C10.4994 14.7878 10.2035 14.6545 9.91175 14.5003C9.34488 14.2085 8.81138 13.8792 8.32374 13.5249ZM12.3833 18.4432C12.0874 18.4807 11.7832 18.5015 11.4789 18.5015C10.1118 18.5015 8.80722 18.1138 7.6902 17.3928C7.61518 17.3428 7.64852 17.2219 7.73605 17.2178C7.75272 17.2178 7.77357 17.2178 7.78607 17.2136C8.06948 17.1969 8.38208 17.1552 8.71969 17.0885C9.43658 16.9469 10.2368 16.7134 11.0746 16.3925C11.1496 16.3633 11.233 16.4008 11.2663 16.4759C11.5914 17.2678 11.9874 17.8638 12.4417 18.2431C12.5209 18.3097 12.4834 18.4306 12.3833 18.4432ZM15.3551 16.5675C14.855 17.5553 14.2381 18.1055 13.6379 18.093C12.9876 18.0805 12.3416 17.4053 11.8582 16.2341C11.829 16.1633 11.8623 16.0758 11.9332 16.0424C11.9374 16.0382 11.9415 16.0382 11.9498 16.0341C11.9791 16.0215 12.0166 16.0174 12.0499 16.0257C12.946 16.2758 13.8338 16.4091 14.6632 16.4091C14.7507 16.4091 14.8424 16.4092 14.9299 16.405C15.03 16.4008 15.1342 16.3967 15.2342 16.3884C15.3301 16.3884 15.3967 16.4842 15.3551 16.5675ZM15.5718 15.7173C15.3634 15.7464 15.1425 15.7673 14.9133 15.7756C14.3506 15.7965 13.7546 15.7464 13.146 15.634C13.071 15.6214 13.0585 15.5173 13.1252 15.4839C13.2586 15.4172 13.392 15.3463 13.5254 15.2755C14.459 14.7795 15.3343 14.2376 16.097 13.6833C16.1511 13.6416 16.2345 13.6916 16.222 13.7583C16.1136 14.396 15.972 14.9962 15.7844 15.538C15.7469 15.6381 15.6677 15.7047 15.5718 15.7173ZM16.6096 16.2758C16.5597 16.33 16.5013 16.3884 16.4471 16.4425C16.3554 16.5342 16.2512 16.6301 16.1553 16.7176C16.0928 16.7717 15.9969 16.7051 16.0303 16.6301C16.0386 16.6092 16.0512 16.5884 16.0595 16.5634C16.1011 16.4717 16.1387 16.3758 16.1845 16.28C16.1928 16.2591 16.2137 16.2425 16.2345 16.2341C16.3304 16.2091 16.4304 16.1799 16.5221 16.1508C16.6055 16.1257 16.6638 16.2216 16.6096 16.2758ZM18.0185 14.0501C17.9893 14.1209 17.9642 14.1918 17.9308 14.2627C17.9225 14.2752 17.8809 14.3627 17.8767 14.3752C17.6433 14.8045 17.2598 15.1421 16.7597 15.3797C16.643 15.4339 16.518 15.3297 16.5512 15.2047C16.7264 14.5878 16.8514 13.9209 16.9389 13.2165C16.9556 13.0831 17.0181 12.9664 17.1181 12.8789C17.3307 12.6955 17.5307 12.5079 17.7142 12.3246C17.8017 12.2371 17.9559 12.2746 17.9934 12.3955C18.1726 12.9998 18.1851 13.5624 18.0185 14.0501ZM18.1601 10.7615C18.1101 10.8533 17.9725 10.8575 17.9142 10.77C17.9059 10.7574 17.8976 10.7408 17.8892 10.7282C17.6808 10.4031 17.4391 10.0905 17.1723 9.78215C17.1056 9.70706 17.1598 9.59037 17.2598 9.58626H17.264C17.8933 9.58626 18.2227 9.74456 18.3226 9.93213C18.4018 10.0905 18.3769 10.3697 18.1601 10.7615ZM18.5019 11.6869C18.5019 11.7327 18.4352 11.7452 18.4186 11.7035C18.4102 11.6869 18.4018 11.666 18.3935 11.6494C18.3769 11.616 18.381 11.5743 18.406 11.541C18.4102 11.5368 18.4186 11.5244 18.431 11.5076C18.4602 11.4701 18.5061 11.4743 18.5061 11.5159C18.5019 11.5743 18.5019 11.6285 18.5019 11.6869Z" fill="white"/>
<ellipse cx="17.7391" cy="17.7391" rx="6.26086" ry="6.26087" fill="white"/>
<mask id="mask0_7159_7628" style="mask-type:luminance" maskUnits="userSpaceOnUse" x="14" y="14" width="8" height="8">
<path d="M21.3913 14.087H14.0869V21.3913H21.3913V14.087Z" fill="white"/>
</mask>
<g mask="url(#mask0_7159_7628)">
<path d="M21.3916 14.087H14.6046L16.5368 16.3649C16.858 16.0836 17.2788 15.9131 17.7394 15.9131C18.7479 15.9131 19.5655 16.7306 19.5655 17.7392C19.5655 18.1941 19.3991 18.6101 19.124 18.9298L21.3916 20.8809V14.087Z" fill="black"/>
<path d="M20.4973 21.3912L18.7015 19.2913C18.422 19.4649 18.0923 19.5652 17.7391 19.5652C16.7306 19.5652 15.913 18.7476 15.913 17.7391C15.913 17.3891 16.0115 17.0621 16.1822 16.7843L14.0869 14.9597V21.3912H20.4973Z" fill="black"/>
</g>
</svg>
