<svg width="24" height="24" viewBox="0 0 24 24" fill="none" xmlns="http://www.w3.org/2000/svg">
<path d="M12.1057 20.1878C17.3843 20.1878 21.6637 15.669 21.6637 10.0943C21.6637 4.5196 17.3843 0 12.1057 0C6.82727 0 2.54854 4.5196 2.54854 10.0943C2.54854 15.669 6.82727 20.1878 12.1057 20.1878Z" fill="#2E3148"/>
<path d="M12.0833 15.8067C15.1327 15.8067 17.6054 13.1953 17.6054 9.97466C17.6054 6.75406 15.1327 4.14258 12.0833 4.14258C9.03299 4.14258 6.56098 6.75406 6.56098 9.97466C6.56098 13.1953 9.03299 15.8067 12.0833 15.8067Z" fill="#1B1E36"/>
<path d="M24 9.98021C24 11.6443 23.6894 13.2919 23.0864 14.8301C22.4834 16.3675 21.5993 17.7648 20.4854 18.941C19.371 20.1181 18.048 21.0518 16.5923 21.6887C15.1364 22.3255 13.5757 22.6535 12 22.6535C10.4242 22.6535 8.8635 22.3255 7.40776 21.6887C5.95201 21.0518 4.62898 20.1181 3.51448 18.941C2.40073 17.7648 1.51651 16.3675 0.913514 14.8301C0.310513 13.2919 0 11.6443 0 9.98021H2.87627C2.87627 11.2451 3.11174 12.4983 3.57074 13.6674C4.02899 14.8365 4.70101 15.8986 5.54851 16.7936C6.39601 17.688 7.40173 18.3984 8.50876 18.8824C9.61576 19.3664 10.8015 19.6158 12 19.6158C13.1986 19.6158 14.3843 19.3664 15.4913 18.8824C16.5983 18.3984 17.604 17.688 18.4514 16.7936C19.299 15.8986 19.971 14.8365 20.4293 13.6674C20.8883 12.4983 21.1237 11.2451 21.1237 9.98021H24Z" fill="#C73238"/>
<path d="M21.474 9.98021C21.474 11.2943 21.2287 12.5948 20.7524 13.8091C20.2763 15.0225 19.5787 16.126 18.699 17.0551C17.8193 17.9841 16.7753 18.7208 15.6254 19.2238C14.4764 19.7267 13.2443 19.985 12 19.985C10.7557 19.985 9.52422 19.7267 8.37448 19.2238C7.22549 18.7208 6.18072 17.9841 5.30096 17.0551C4.42122 16.126 3.72374 15.0225 3.24749 13.8091C2.77124 12.5948 2.52674 11.2943 2.52674 9.98021H21.474Z" fill="#070B09"/>
<path d="M11.913 1.26015C10.9042 1.26015 10.086 5.12392 10.086 9.89066C10.086 14.6574 10.9042 18.5211 11.913 18.5211C12.9217 18.5211 13.74 14.6574 13.74 9.89066C13.74 5.12392 12.9217 1.26015 11.913 1.26015ZM12.039 18.0341C11.9235 18.1964 11.808 18.0744 11.808 18.0744C11.3437 17.5065 11.1112 16.4499 11.1112 16.4499C10.299 13.6887 10.4925 7.75838 10.4925 7.75838C10.8742 3.05105 11.5687 1.93895 11.805 1.69182C11.8297 1.66647 11.8612 1.65143 11.895 1.64826C11.9287 1.64588 11.9625 1.6554 11.9902 1.67599C12.333 1.93262 12.621 3.00667 12.621 3.00667C13.4707 6.33659 13.3934 9.46452 13.3934 9.46452C13.4707 12.1854 12.9683 15.2316 12.9683 15.2316C12.5813 17.5462 12.039 18.0341 12.039 18.0341Z" fill="white"/>
<path d="M19.0006 5.59525C18.4987 4.6709 14.9183 5.84475 11.0018 8.21624C7.08451 10.5885 4.32151 13.2609 4.82401 14.1846C5.32577 15.109 8.90627 13.9359 12.8227 11.5636C16.74 9.1913 19.503 6.51882 19.0006 5.59525ZM5.28677 14.0578C5.09477 14.0325 5.13827 13.8653 5.13827 13.8653C5.37377 13.1573 6.12452 12.4191 6.12452 12.4191C7.98977 10.3002 12.9563 7.52634 12.9563 7.52634C17.0123 5.53348 18.2723 5.61743 18.5917 5.7101C18.6247 5.7204 18.6533 5.74178 18.672 5.77109C18.6916 5.80119 18.6997 5.83683 18.6967 5.87248C18.6577 6.31525 17.9176 7.11208 17.9176 7.11208C15.6067 9.54932 12.9997 11.0353 12.9997 11.0353C10.803 12.4602 8.05127 13.5153 8.05127 13.5153C5.95724 14.3121 5.28677 14.0578 5.28677 14.0578Z" fill="white"/>
<path d="M18.9833 14.2155C19.4894 13.2935 16.734 10.6084 12.831 8.21871C8.92798 5.82901 5.34748 4.64089 4.84198 5.56446C4.33648 6.48802 7.092 9.17079 10.9972 11.5604C14.9024 13.951 18.4777 15.1391 18.9833 14.2155ZM5.17724 5.92089C5.10299 5.73316 5.26048 5.68881 5.26048 5.68881C5.95948 5.5494 6.94051 5.86623 6.94051 5.86623C9.61048 6.50862 14.3723 9.65871 14.3723 9.65871C18.0374 12.3676 18.6 13.5605 18.684 13.8995C18.693 13.9344 18.6893 13.9708 18.675 14.0032C18.66 14.0358 18.6353 14.0619 18.6044 14.0761C18.222 14.2615 17.1983 13.9859 17.1983 13.9859C14.043 13.0924 11.5192 11.4551 11.5192 11.4551C9.25198 10.1641 7.00949 8.17674 7.00949 8.17674C5.30624 6.66148 5.17798 5.92248 5.17798 5.92248L5.17724 5.92089Z" fill="white"/>
<path d="M11.8935 10.8838C12.4246 10.8838 12.855 10.4292 12.855 9.86843C12.855 9.30764 12.4246 8.85298 11.8935 8.85298C11.3625 8.85298 10.932 9.30764 10.932 9.86843C10.932 10.4292 11.3625 10.8838 11.8935 10.8838Z" fill="white"/>
<path d="M15.8363 6.57985C16.1437 6.57985 16.3936 6.30738 16.3936 5.97074C16.3936 5.63411 16.1437 5.36163 15.8363 5.36163C15.528 5.36163 15.2783 5.63411 15.2783 5.97074C15.2783 6.30738 15.528 6.57985 15.8363 6.57985Z" fill="white"/>
<path d="M6.68248 8.6512C6.98998 8.6512 7.23976 8.37793 7.23976 8.04208C7.23976 7.70546 6.98998 7.43218 6.68248 7.43218C6.37422 7.43218 6.12451 7.70546 6.12451 8.04208C6.12451 8.37793 6.37422 8.6512 6.68248 8.6512Z" fill="white"/>
<path d="M24 17.6633C24 21.1629 21.3137 23.9999 18 23.9999C14.6863 23.9999 12 21.1629 12 17.6633C12 14.1637 14.6863 11.3267 18 11.3267C21.3137 11.3267 24 14.1637 24 17.6633Z" fill="white"/>
<path d="M21.5001 13.9669H14.9959L16.8476 16.2725C17.1555 15.9877 17.5587 15.8151 18.0001 15.8151C18.9666 15.8151 19.7501 16.6426 19.7501 17.6633C19.7501 18.1237 19.5907 18.5448 19.327 18.8684L21.5001 20.8431V13.9669Z" fill="black"/>
<path d="M20.6432 21.3597L18.9222 19.2343C18.6544 19.41 18.3384 19.5115 17.9999 19.5115C17.0334 19.5115 16.2499 18.684 16.2499 17.6633C16.2499 17.3091 16.3443 16.9781 16.5079 16.697L14.4999 14.8503V21.3597H20.6432Z" fill="black"/>
</svg>
