<svg width="24" height="24" viewBox="0 0 24 24" fill="none" xmlns="http://www.w3.org/2000/svg">
<path d="M12.1057 20.6054C17.3843 20.6054 21.6637 16.217 21.6637 10.8031C21.6637 5.38922 17.3843 1 12.1057 1C6.82727 1 2.54854 5.38922 2.54854 10.8031C2.54854 16.217 6.82727 20.6054 12.1057 20.6054Z" fill="#2E3148"/>
<path d="M12.0833 16.3508C15.1327 16.3508 17.6054 13.8146 17.6054 10.6869C17.6054 7.55922 15.1327 5.02308 12.0833 5.02308C9.03299 5.02308 6.56098 7.55922 6.56098 10.6869C6.56098 13.8146 9.03299 16.3508 12.0833 16.3508Z" fill="#1B1E36"/>
<path d="M24 10.6923C24 12.3084 23.6894 13.9084 23.0864 15.4023C22.4834 16.8954 21.5993 18.2523 20.4854 19.3946C19.371 20.5377 18.048 21.4446 16.5923 22.063C15.1364 22.6815 13.5757 23 12 23C10.4242 23 8.8635 22.6815 7.40776 22.063C5.95201 21.4446 4.62898 20.5377 3.51448 19.3946C2.40073 18.2523 1.51651 16.8954 0.913514 15.4023C0.310513 13.9084 0 12.3084 0 10.6923H2.87627C2.87627 11.9207 3.11174 13.1377 3.57074 14.2731C4.02899 15.4085 4.70101 16.44 5.54851 17.3092C6.39601 18.1777 7.40173 18.8677 8.50876 19.3377C9.61576 19.8078 10.8015 20.05 12 20.05C13.1986 20.05 14.3843 19.8078 15.4913 19.3377C16.5983 18.8677 17.604 18.1777 18.4514 17.3092C19.299 16.44 19.971 15.4085 20.4293 14.2731C20.8883 13.1377 21.1237 11.9207 21.1237 10.6923H24Z" fill="#C73238"/>
<path d="M21.474 10.6923C21.474 11.9685 21.2287 13.2315 20.7524 14.4107C20.2763 15.5892 19.5787 16.6608 18.699 17.5631C17.8193 18.4654 16.7753 19.1808 15.6254 19.6693C14.4764 20.1577 13.2443 20.4085 12 20.4085C10.7557 20.4085 9.52422 20.1577 8.37448 19.6693C7.22549 19.1808 6.18072 18.4654 5.30096 17.5631C4.42122 16.6608 3.72374 15.5892 3.24749 14.4107C2.77124 13.2315 2.52674 11.9685 2.52674 10.6923H21.474Z" fill="#070B09"/>
<path d="M11.913 2.2238C10.9042 2.2238 10.086 5.97611 10.086 10.6053C10.086 15.2346 10.9042 18.9868 11.913 18.9868C12.9217 18.9868 13.74 15.2346 13.74 10.6053C13.74 5.97611 12.9217 2.2238 11.913 2.2238ZM12.039 18.5138C11.9235 18.6715 11.808 18.553 11.808 18.553C11.3437 18.0015 11.1112 16.9754 11.1112 16.9754C10.299 14.2938 10.4925 8.53457 10.4925 8.53457C10.8742 3.96304 11.5687 2.88302 11.805 2.64302C11.8297 2.6184 11.8612 2.60379 11.895 2.60071C11.9287 2.5984 11.9625 2.60764 11.9902 2.62764C12.333 2.87687 12.621 3.91994 12.621 3.91994C13.4707 7.1538 13.3934 10.1915 13.3934 10.1915C13.4707 12.8338 12.9683 15.7922 12.9683 15.7922C12.5813 18.04 12.039 18.5138 12.039 18.5138Z" fill="white"/>
<path d="M19.0006 6.43385C18.4987 5.53616 14.9183 6.67615 11.0018 8.97922C7.08451 11.2831 4.32151 13.8784 4.82401 14.7754C5.32577 15.6731 8.90627 14.5339 12.8227 12.23C16.74 9.92615 19.503 7.33077 19.0006 6.43385ZM5.28677 14.6523C5.09477 14.6277 5.13827 14.4654 5.13827 14.4654C5.37377 13.7777 6.12452 13.0608 6.12452 13.0608C7.98977 11.0031 12.9563 8.30923 12.9563 8.30923C17.0123 6.37386 18.2723 6.45538 18.5917 6.54538C18.6247 6.55538 18.6533 6.57615 18.672 6.60461C18.6916 6.63385 18.6997 6.66846 18.6967 6.70308C18.6577 7.13307 17.9176 7.90692 17.9176 7.90692C15.6067 10.2738 12.9997 11.7169 12.9997 11.7169C10.803 13.1008 8.05127 14.1254 8.05127 14.1254C5.95724 14.8992 5.28677 14.6523 5.28677 14.6523Z" fill="white"/>
<path d="M18.9833 14.8054C19.4894 13.91 16.734 11.3024 12.831 8.98162C8.92798 6.66086 5.34748 5.50702 4.84198 6.40394C4.33648 7.30086 7.092 9.90624 10.9972 12.227C14.9024 14.5486 18.4777 15.7024 18.9833 14.8054ZM5.17724 6.75009C5.10299 6.56778 5.26048 6.5247 5.26048 6.5247C5.95948 6.38932 6.94051 6.69701 6.94051 6.69701C9.61048 7.32086 14.3723 10.3801 14.3723 10.3801C18.0374 13.0108 18.6 14.1694 18.684 14.4986C18.693 14.5324 18.6893 14.5678 18.675 14.5993C18.66 14.6309 18.6353 14.6562 18.6044 14.67C18.222 14.8501 17.1983 14.5824 17.1983 14.5824C14.043 13.7147 11.5192 12.1247 11.5192 12.1247C9.25198 10.8709 7.00949 8.94086 7.00949 8.94086C5.30624 7.46932 5.17798 6.75163 5.17798 6.75163L5.17724 6.75009Z" fill="white"/>
<path d="M11.8935 11.5698C12.4246 11.5698 12.855 11.1284 12.855 10.5838C12.855 10.0391 12.4246 9.5976 11.8935 9.5976C11.3625 9.5976 10.932 10.0391 10.932 10.5838C10.932 11.1284 11.3625 11.5698 11.8935 11.5698Z" fill="white"/>
<path d="M15.8363 7.39004C16.1437 7.39004 16.3936 7.12543 16.3936 6.7985C16.3936 6.47158 16.1437 6.20697 15.8363 6.20697C15.528 6.20697 15.2783 6.47158 15.2783 6.7985C15.2783 7.12543 15.528 7.39004 15.8363 7.39004Z" fill="white"/>
<path d="M6.68248 9.40164C6.98998 9.40164 7.23976 9.13625 7.23976 8.81009C7.23976 8.48318 6.98998 8.21778 6.68248 8.21778C6.37422 8.21778 6.12451 8.48318 6.12451 8.81009C6.12451 9.13625 6.37422 9.40164 6.68248 9.40164Z" fill="white"/>
</svg>
