<svg width="24" height="24" viewBox="0 0 24 24" fill="none" xmlns="http://www.w3.org/2000/svg">
<path d="M12 0C9.62662 0 7.30652 0.703762 5.33313 2.02234C3.35973 3.34092 1.8217 5.21506 0.913446 7.40778C0.00519377 9.60049 -0.232439 12.0133 0.230584 14.3411C0.693607 16.6688 1.83641 18.807 3.51464 20.4852C5.19287 22.1635 7.33104 23.3064 9.65881 23.7694C11.9866 24.2324 14.3994 23.9948 16.5922 23.0866C18.7849 22.1783 20.659 20.6402 21.9775 18.6668C23.2961 16.6934 24 14.3734 24 12C24 8.81741 22.7357 5.76515 20.4852 3.51471C18.2348 1.26427 15.1826 0 12 0V0ZM16.1999 18H7.80896C7.33157 18 6.87369 17.8104 6.53613 17.4728C6.19856 17.1352 6.00891 16.6773 6.00891 16.2V7.80896C6.00891 7.33157 6.19856 6.87376 6.53613 6.5362C6.87369 6.19863 7.33157 6.00897 7.80896 6.00897H16.1999C16.6773 6.00897 17.1352 6.19863 17.4728 6.5362C17.8103 6.87376 18 7.33157 18 7.80896V16.2C18 16.4367 17.9533 16.6711 17.8625 16.8897C17.7718 17.1084 17.6389 17.307 17.4713 17.4742C17.3037 17.6414 17.1048 17.7739 16.886 17.8641C16.6671 17.9544 16.4326 18.0005 16.1959 18H16.1999Z" fill="#FF5500"/>
</svg>
