<svg width="24" height="24" viewBox="0 0 24 24" fill="none" xmlns="http://www.w3.org/2000/svg">
<mask id="mask0_8744_20777" style="mask-type:alpha" maskUnits="userSpaceOnUse" x="0" y="0" width="24" height="24">
<path d="M12 24C18.6274 24 24 18.6274 24 12C24 5.37258 18.6274 0 12 0C5.37258 0 0 5.37258 0 12C0 18.6274 5.37258 24 12 24Z" fill="black"/>
</mask>
<g mask="url(#mask0_8744_20777)">
<path d="M19.0939 0H4.90608C2.19653 0 0 2.19653 0 4.90608V19.0939C0 21.8035 2.19653 24 4.90608 24H19.0939C21.8035 24 24 21.8035 24 19.0939V4.90608C24 2.19653 21.8035 0 19.0939 0Z" fill="url(#paint0_linear_8744_20777)"/>
<path d="M15.1581 5.56897L5.83447 18.695H8.69704L18.0691 5.56897H15.1581Z" fill="white"/>
<path d="M8.99496 5.56897L11.7383 9.43676L10.307 11.5465L6.07275 5.56897H8.99496Z" fill="url(#paint1_linear_8744_20777)"/>
<path d="M15.4359 18.6961L12.3945 14.4182L13.8259 12.3671L18.2985 18.6961H15.4359Z" fill="url(#paint2_linear_8744_20777)"/>
<path d="M19.0939 0H4.90608C2.19653 0 0 2.19653 0 4.90608V19.0939C0 21.8035 2.19653 24 4.90608 24H19.0939C21.8035 24 24 21.8035 24 19.0939V4.90608C24 2.19653 21.8035 0 19.0939 0Z" stroke="#2D2D3D" stroke-width="2"/>
</g>
<circle cx="18" cy="18" r="6" fill="white"/>
<mask id="mask1_8744_20777" style="mask-type:luminance" maskUnits="userSpaceOnUse" x="14" y="14" width="8" height="8">
<path d="M21.5 14.5H14.5V21.5H21.5V14.5Z" fill="white"/>
</mask>
<g mask="url(#mask1_8744_20777)">
<path d="M21.5003 14.5H14.9961L16.8478 16.6831C17.1556 16.4134 17.5589 16.25 18.0003 16.25C18.9668 16.25 19.7503 17.0335 19.7503 18C19.7503 18.436 19.5909 18.8347 19.3271 19.141L21.5003 21.0109V14.5Z" fill="black"/>
<path d="M20.6433 21.4999L18.9223 19.4874C18.6545 19.6538 18.3385 19.7499 18 19.7499C17.0335 19.7499 16.25 18.9664 16.25 17.9999C16.25 17.6645 16.3444 17.3511 16.508 17.0849L14.5 15.3363V21.4999H20.6433Z" fill="black"/>
</g>
<defs>
<linearGradient id="paint0_linear_8744_20777" x1="19.4254" y1="-3.38122" x2="13.5248" y2="21.1492" gradientUnits="userSpaceOnUse">
<stop stop-color="#2C2C3D"/>
<stop offset="1" stop-color="#1A1A27"/>
</linearGradient>
<linearGradient id="paint1_linear_8744_20777" x1="8.33894" y1="6.38941" x2="12.1849" y2="11.1142" gradientUnits="userSpaceOnUse">
<stop stop-color="white"/>
<stop offset="1" stop-color="white" stop-opacity="0.55"/>
</linearGradient>
<linearGradient id="paint2_linear_8744_20777" x1="16.0921" y1="17.7" x2="11.3753" y2="11.2291" gradientUnits="userSpaceOnUse">
<stop stop-color="#6966FF"/>
<stop offset="1" stop-color="#6966FF" stop-opacity="0.36"/>
</linearGradient>
</defs>
</svg>
