<svg width="24" height="24" viewBox="0 0 24 24" fill="none" xmlns="http://www.w3.org/2000/svg">
<mask id="mask0_17199_921" style="mask-type:alpha" maskUnits="userSpaceOnUse" x="0" y="0" width="24" height="24">
<path d="M12 24C18.6274 24 24 18.6274 24 12C24 5.37258 18.6274 0 12 0C5.37258 0 0 5.37258 0 12C0 18.6274 5.37258 24 12 24Z" fill="black"/>
</mask>
<g mask="url(#mask0_17199_921)">
<path d="M19.0939 0H4.90608C2.19653 0 0 2.19653 0 4.90608V19.0939C0 21.8035 2.19653 24 4.90608 24H19.0939C21.8035 24 24 21.8035 24 19.0939V4.90608C24 2.19653 21.8035 0 19.0939 0Z" fill="url(#paint0_linear_17199_921)"/>
<path d="M15.158 5.56897L5.83435 18.695H8.69691L18.0689 5.56897H15.158Z" fill="white"/>
<path d="M8.99484 5.56897L11.7381 9.43676L10.3068 11.5465L6.07263 5.56897H8.99484Z" fill="url(#paint1_linear_17199_921)"/>
<path d="M15.4358 18.6961L12.3944 14.4182L13.8258 12.3671L18.2984 18.6961H15.4358Z" fill="url(#paint2_linear_17199_921)"/>
<path d="M19.0939 0H4.90608C2.19653 0 0 2.19653 0 4.90608V19.0939C0 21.8035 2.19653 24 4.90608 24H19.0939C21.8035 24 24 21.8035 24 19.0939V4.90608C24 2.19653 21.8035 0 19.0939 0Z" stroke="#2D2D3D" stroke-width="2"/>
</g>
<defs>
<linearGradient id="paint0_linear_17199_921" x1="19.4254" y1="-3.38122" x2="13.5248" y2="21.1492" gradientUnits="userSpaceOnUse">
<stop stop-color="#2C2C3D"/>
<stop offset="1" stop-color="#1A1A27"/>
</linearGradient>
<linearGradient id="paint1_linear_17199_921" x1="8.33882" y1="6.38941" x2="12.1848" y2="11.1142" gradientUnits="userSpaceOnUse">
<stop stop-color="white"/>
<stop offset="1" stop-color="white" stop-opacity="0.55"/>
</linearGradient>
<linearGradient id="paint2_linear_17199_921" x1="16.092" y1="17.7" x2="11.3752" y2="11.2291" gradientUnits="userSpaceOnUse">
<stop stop-color="#6966FF"/>
<stop offset="1" stop-color="#6966FF" stop-opacity="0.36"/>
</linearGradient>
</defs>
</svg>
