<svg width="26" height="26" viewBox="0 0 26 26" fill="none" xmlns="http://www.w3.org/2000/svg">
<g filter="url(#filter0_d_8744_22295)">
<path d="M13 25C19.6274 25 25 19.6274 25 13C25 6.37258 19.6274 1 13 1C6.37258 1 1 6.37258 1 13C1 19.6274 6.37258 25 13 25Z" fill="white"/>
<path d="M13.8911 11.7955L18.5742 7.13825L16.7976 5.37109L13.0024 9.14541L9.20728 5.37109L7.43065 7.13825L12.1138 11.7955C12.3589 12.0393 12.681 12.1612 13.0018 12.1612C13.3227 12.1612 13.6448 12.0393 13.8898 11.7955H13.8911Z" fill="black"/>
<path d="M20.6704 16.7705L16.8753 12.9961L20.6704 9.22183L18.8938 7.45467L14.2107 12.1119C13.7199 12.6001 13.7199 13.3909 14.2107 13.8791L18.8938 18.5364L20.6704 16.7692V16.7705Z" fill="black"/>
<path d="M12.9961 16.8551L16.7913 20.6294L18.5679 18.8623L13.8848 14.205C13.394 13.7174 12.5989 13.7174 12.1081 14.205L7.42497 18.8623L9.2016 20.6294L12.9961 16.8551Z" fill="black"/>
<path d="M11.7879 13.8867C12.0235 13.6524 12.1561 13.3347 12.1561 13.0031C12.1561 12.6715 12.0241 12.3538 11.7879 12.1195L7.10476 7.46225L5.32812 9.22941L9.12328 13.0037L5.32812 16.778L7.10476 18.5452L11.7879 13.8879V13.8867Z" fill="black"/>
</g>
<defs>
<filter id="filter0_d_8744_22295" x="0.488" y="0.488" width="25.024" height="25.024" filterUnits="userSpaceOnUse" color-interpolation-filters="sRGB">
<feFlood flood-opacity="0" result="BackgroundImageFix"/>
<feColorMatrix in="SourceAlpha" type="matrix" values="0 0 0 0 0 0 0 0 0 0 0 0 0 0 0 0 0 0 127 0" result="hardAlpha"/>
<feOffset/>
<feGaussianBlur stdDeviation="0.256"/>
<feColorMatrix type="matrix" values="0 0 0 0 0 0 0 0 0 0 0 0 0 0 0 0 0 0 0.13 0"/>
<feBlend mode="normal" in2="BackgroundImageFix" result="effect1_dropShadow_8744_22295"/>
<feBlend mode="normal" in="SourceGraphic" in2="effect1_dropShadow_8744_22295" result="shape"/>
</filter>
</defs>
</svg>
