<svg width="24" height="24" viewBox="0 0 24 24" fill="none" xmlns="http://www.w3.org/2000/svg">
<circle cx="12" cy="12" r="12" fill="#DDDCCE"/>
<mask id="mask0_17199_556" style="mask-type:alpha" maskUnits="userSpaceOnUse" x="0" y="0" width="24" height="24">
<path d="M0 12C0 18.6274 5.37258 24 12 24C18.6274 24 24 18.6274 24 12C24 5.37258 18.6274 0 12 0C5.37258 0 0 5.37258 0 12Z" fill="#DDDCCE"/>
</mask>
<g mask="url(#mask0_17199_556)">
<path d="M19.7241 14.8009L20.4007 14.1925L17.4002 11.4038L17.1474 10.1144L15.4675 8.72037L15.3857 2.28003H15.2994L12.9747 7.58218L12.7285 7.57563L10.9638 2.28003H10.8697L9.88519 8.37368L-5.49979 9.3418L-18.96 16.2364V16.4035C-18.96 16.4035 -17.0614 18.222 -13.5457 17.4887C-11.0669 16.972 -6.77547 13.3473 -5.48603 12.3501C-5.75117 17.5003 -7.03409 26.7593 -7.03409 26.7593H-5.47517L-3.66342 16.4021L-2.18707 16.3091L-3.51926 26.7571H-1.84225L-0.0609343 16.1819L6.67824 15.7306L5.52642 26.7505H7.06073L8.85291 15.6143L10.4857 15.5118L9.40346 26.7484H11.121L12.5329 14.5189L13.9339 13.5886L18.6896 16.0431L19.046 15.5052L15.8768 13.3059L16.0043 13.1133L19.7241 14.7995V14.8009ZM-4.40449 11.2185L-4.00533 10.0265L-1.56191 11.5426L-4.40376 11.2185H-4.40449ZM-0.700588 12.1655L-0.301438 10.9735L2.14199 12.4896L-0.699862 12.1655H-0.700588ZM1.88772 10.8616L2.28688 9.66961L4.73031 11.1857L1.88844 10.8616H1.88772ZM5.87415 11.7032L6.27329 10.5113L8.71672 12.0274L5.87487 11.7032H5.87415ZM8.27917 10.4546L8.84131 9.33091L11.0471 11.1778L8.27917 10.4546ZM14.6373 9.88838C14.6011 9.91235 14.5677 9.94071 14.5374 9.97123C14.4613 10.0475 14.4033 10.1428 14.37 10.2481C14.357 10.2903 14.3475 10.3346 14.3432 10.3804C14.3411 10.403 14.3396 10.4262 14.3396 10.4495C14.3396 10.496 14.3447 10.5418 14.3533 10.5861C14.2729 10.4851 14.202 10.379 14.1404 10.2743C14.0787 10.1697 14.0245 10.065 13.9795 9.96687C13.8282 9.63908 13.7659 9.37815 13.7659 9.37815L13.8035 9.33162C13.8035 9.33162 13.8883 9.34617 14.0209 9.37596C14.0469 9.38178 14.0759 9.38833 14.1056 9.39559C14.1353 9.40286 14.1672 9.41085 14.1998 9.41885C14.2323 9.42756 14.2664 9.43629 14.3019 9.44575C14.4773 9.49371 14.6765 9.55695 14.8626 9.63544C14.8995 9.65142 14.9365 9.66742 14.9727 9.68414C15.009 9.70085 15.0437 9.71902 15.0777 9.73719C15.1118 9.75537 15.1443 9.77426 15.1755 9.79389C15.1495 9.78735 15.1233 9.78226 15.0966 9.77935C15.0698 9.77572 15.0422 9.77426 15.0147 9.77426C14.9213 9.77426 14.8329 9.79316 14.7525 9.82732C14.712 9.84477 14.6736 9.86511 14.6381 9.88983L14.6373 9.88838ZM15.5233 11.3202C15.4689 11.3086 15.4131 11.2955 15.3581 11.2802C15.3031 11.265 15.2473 11.2483 15.1929 11.2301C15.1023 11.1988 15.0147 11.1632 14.9336 11.1203C14.9604 11.1232 14.9873 11.1254 15.0147 11.1254C15.1082 11.1254 15.1965 11.1065 15.2769 11.0724C15.3175 11.0549 15.3559 11.0346 15.3914 11.0099C15.5711 10.8885 15.6884 10.6821 15.6884 10.4488C15.6884 10.4022 15.6841 10.3564 15.6746 10.3128C15.666 10.2692 15.6522 10.2263 15.6355 10.1864C16.155 10.685 16.2831 11.3609 16.2831 11.3609L16.2483 11.4111C16.2483 11.4111 15.905 11.4031 15.5226 11.3209L15.5233 11.3202Z" fill="#1B1C16"/>
</g>
</svg>
