<svg width="24" height="24" viewBox="0 0 24 24" fill="none" xmlns="http://www.w3.org/2000/svg">
<path d="M24 12C24 18.6274 18.6274 24 12 24C5.37258 24 0 18.6274 0 12C0 5.37258 5.37258 0 12 0C18.6274 0 24 5.37258 24 12Z" fill="white"/>
<path d="M12 24C8.79396 24 5.78182 22.7515 3.51515 20.4848C1.24849 18.2182 0 15.206 0 12C0 8.79396 1.24849 5.78182 3.51515 3.51515C5.78182 1.24849 8.79396 0 12 0C15.206 0 18.2182 1.24849 20.4848 3.51515C22.7515 5.78182 24 8.79396 24 12C24 15.206 22.7515 18.2182 20.4848 20.4848C18.2182 22.7515 15.206 24 12 24ZM12 0.975756C5.92121 0.975756 0.975756 5.92121 0.975756 12C0.975756 18.0788 5.92121 23.0242 12 23.0242C18.0788 23.0242 23.0242 18.0788 23.0242 12C23.0242 5.92121 18.0788 0.975756 12 0.975756ZM10.5697 8.48484L3.56363 6.7515L8.2182 12.2727L4.4 18.4061L11.0909 15.6848L15.7454 21.206L15.2242 14.006L21.9152 11.2849L14.9091 9.55152L14.3879 2.35151L10.5697 8.48484Z" fill="url(#paint0_linear_8744_22346)"/>
<defs>
<linearGradient id="paint0_linear_8744_22346" x1="1.78678" y1="9.47628" x2="25.0952" y2="15.2359" gradientUnits="userSpaceOnUse">
<stop stop-color="#FEF5A0"/>
<stop offset="0.6354" stop-color="#93D4CB"/>
<stop offset="1" stop-color="#719AD1"/>
</linearGradient>
</defs>
</svg>
