<svg width="24" height="24" viewBox="0 0 24 24" fill="none" xmlns="http://www.w3.org/2000/svg">
<path d="M24 12C24 5.37258 18.6274 0 12 0C5.37258 0 0 5.37258 0 12C0 18.6274 5.37258 24 12 24C18.6274 24 24 18.6274 24 12Z" fill="#E50571"/>
<path d="M19.8309 10.3357C19.5172 8.83238 18.7721 7.45543 17.6609 6.34429C16.1489 4.83227 14.1402 4 12.0007 4C9.86117 4 7.8524 4.82791 6.34037 6.33993C5.96999 6.71031 5.64754 7.10684 5.36431 7.52515C5.28152 7.63845 5.20309 7.7561 5.13773 7.88246C4.39696 9.11561 4.00044 10.5231 4.00044 12.0002C4.00044 14.1397 4.83271 16.1485 6.34473 17.6605C7.85676 19.1725 9.86553 20.0048 12.005 20.0048C14.1445 20.0048 16.1533 19.1725 17.6653 17.6605C18.3756 16.9503 18.942 16.1223 19.3386 15.2291C19.3865 15.1332 19.4257 15.0286 19.4649 14.9241C19.8266 14.009 20.014 13.0199 20.014 12.0046C20.014 11.4686 19.9617 10.9588 19.8571 10.4446C19.8527 10.4185 19.8353 10.3531 19.8309 10.3357ZM17.0553 6.67981C17.0988 6.72339 17.1468 6.76696 17.1947 6.81489C17.9006 7.5208 18.4496 8.3487 18.8113 9.24633C18.8462 9.33348 18.7721 9.4337 18.6719 9.41627C18.4627 9.37706 18.2231 9.36398 17.9616 9.36834C17.7786 9.3727 17.6174 9.24198 17.5869 9.06768C17.4431 8.26591 17.2339 7.52951 16.9725 6.88461C16.9594 6.84975 16.942 6.81489 16.9289 6.77132C16.894 6.68853 16.9943 6.61445 17.0553 6.67981ZM17.8178 11.3728C17.8178 11.29 17.9224 11.2507 17.9747 11.3205C18.0313 11.4033 18.0923 11.4904 18.149 11.5732C18.2231 11.6865 18.2928 11.7998 18.3538 11.9131C18.393 11.9828 18.3843 12.0699 18.332 12.1309C18.2492 12.2225 18.1533 12.3227 18.0531 12.4229C18.0183 12.4578 17.979 12.497 17.9398 12.5362C17.8919 12.5798 17.8091 12.5449 17.8135 12.4839C17.8178 12.3619 17.8222 12.2442 17.8222 12.1179C17.8265 11.8608 17.8265 11.6168 17.8178 11.3728ZM7.7391 6.02184C8.97661 5.13729 10.4494 4.66233 12.0007 4.66233C12.4103 4.66233 12.8155 4.69719 13.212 4.75819C13.3166 4.77562 13.3558 4.9107 13.2687 4.97606C12.8852 5.27672 12.5323 5.72118 12.2142 6.29636C12.1401 6.44015 11.9745 6.50552 11.8176 6.46194C10.7719 6.16999 9.74352 6.03056 8.7936 6.06106C8.44065 6.07413 8.11384 6.10899 7.80011 6.16564C7.71296 6.18742 7.66939 6.07413 7.7391 6.02184ZM6.69332 16.9895C6.53646 16.7019 6.7369 16.0265 7.75218 14.9981C7.85676 14.8935 7.84804 14.7193 7.73039 14.6234C7.69117 14.5929 7.65196 14.5624 7.60838 14.5275C7.50816 14.4491 7.36001 14.4535 7.2685 14.545C7.24672 14.5667 7.23364 14.5798 7.22929 14.5842C6.72383 15.1027 6.36652 15.5864 6.17043 16.0221C6.11379 16.1485 5.94385 16.1616 5.86977 16.0439C5.08108 14.8587 4.65841 13.4643 4.65841 12.0046C4.65841 11.486 4.7107 10.9675 4.81963 10.4708C4.83706 10.3967 4.94164 10.3923 4.96779 10.4664C5.1203 10.9675 5.36867 11.4904 5.70855 12.0133C6.17043 12.7192 6.77612 13.399 7.49945 14.0264C7.74346 14.2399 8.00491 14.4447 8.27943 14.6452C8.83282 15.0504 9.42543 15.4208 10.0616 15.7476C10.3405 15.8958 10.6194 16.0308 10.8982 16.1616C11.0551 16.2313 11.2338 16.2356 11.3906 16.1746C11.5257 16.1223 11.6564 16.0701 11.7915 16.0134C11.9397 15.9524 12.0181 15.7955 11.9789 15.6387C11.9745 15.6212 11.9702 15.6038 11.9702 15.5951C11.7479 14.667 11.6259 13.6168 11.6085 12.5231C11.6085 12.51 11.6085 12.2617 11.6085 12.0046C11.6085 11.7475 11.6172 11.6298 11.6259 11.4425C11.6913 10.1178 11.9179 8.87595 12.2752 7.82581C12.3057 7.72995 12.2577 7.62537 12.1575 7.59051C12.066 7.56001 11.9702 7.52951 11.8743 7.49901C11.7828 7.46851 11.6782 7.52079 11.6434 7.61666C11.2555 8.75394 11.0159 10.1004 10.9549 11.5253C10.9462 11.7083 10.8503 11.8739 10.6934 11.9654C9.8481 12.4665 9.07683 12.9981 8.40143 13.5297C8.262 13.643 8.06155 13.6343 7.92647 13.521C7.25543 12.9371 6.68897 12.3052 6.26194 11.6473C5.42096 10.3575 5.22052 9.14611 5.69983 8.2267L5.70419 8.22234C5.76519 8.12212 5.83056 8.0219 5.89592 7.92603C6.44495 7.2027 7.46459 6.78003 8.81975 6.7321C8.90254 6.72774 8.99404 6.72774 9.07683 6.72774C9.9091 6.72774 10.798 6.86718 11.7044 7.12863C11.7218 7.13298 11.8525 7.1722 11.8787 7.18092C12.1096 7.25499 12.5018 7.39007 12.5541 7.4075C12.5758 7.41622 12.6978 7.46415 12.7153 7.46851C13.1597 7.6428 13.5998 7.83889 14.0356 8.06547C14.8809 8.50557 15.6522 9.01975 16.3319 9.58621C15.0465 9.87816 13.5519 10.449 12.0486 11.2115C11.9789 11.2464 11.9309 11.3161 11.9266 11.3945C11.9222 11.486 11.9135 11.6734 11.9092 11.8259C11.9048 11.9174 12.005 11.9828 12.0878 11.9392C13.578 11.1549 15.0639 10.5753 16.3407 10.2616C16.5803 10.205 16.7328 9.97838 16.7023 9.73436C16.6805 9.56443 16.6544 9.39449 16.6239 9.23326C16.589 9.02846 16.4714 8.84109 16.3101 8.71909C15.7132 8.26591 15.0552 7.8476 14.3493 7.47722C13.8744 7.22885 13.395 7.01533 12.907 6.82797C12.8068 6.78875 12.7589 6.66674 12.8155 6.57088C13.3122 5.68196 13.9049 5.18522 14.4844 5.18522C14.4887 5.18522 14.4975 5.18522 14.5018 5.18522C15.1816 5.19829 15.857 5.90419 16.3624 7.12863C16.6152 7.74738 16.8113 8.462 16.9507 9.23762C16.9899 9.45549 17.0204 9.67772 17.0466 9.9043C17.0596 10.022 17.0814 10.2006 17.0945 10.279C17.1511 10.8673 17.1729 11.4817 17.1642 12.1048C17.1555 12.5013 17.1381 12.8935 17.1032 13.2726C16.1925 14.0046 15.0683 14.741 13.8308 15.3947C13.4953 15.5689 13.1597 15.7389 12.8286 15.8958C12.7589 15.9306 12.4713 16.057 12.4538 16.0657C12.1401 16.2095 11.8307 16.3359 11.5213 16.4579C11.5039 16.4666 11.1553 16.5973 11.1335 16.606C11.1074 16.6147 10.9287 16.6801 10.9069 16.6888C10.2403 16.9241 9.59972 17.1028 9.01583 17.2161C7.53866 17.4993 6.84583 17.2814 6.69332 16.9895ZM8.7021 14.1397C9.34699 13.6168 10.1052 13.0852 10.9375 12.5885C10.9549 13.6517 11.0725 14.6757 11.2817 15.5951C10.9767 15.46 10.6673 15.3206 10.3623 15.1594C9.76966 14.8543 9.21191 14.5101 8.7021 14.1397ZM12.9462 19.2815C12.6368 19.3207 12.3188 19.3425 12.0007 19.3425C10.5714 19.3425 9.20756 18.9372 8.03977 18.1834C7.96133 18.1311 7.99619 18.0047 8.0877 18.0004C8.10513 18.0004 8.12692 18.0004 8.13999 17.996C8.43629 17.9786 8.7631 17.935 9.11605 17.8653C9.86553 17.7172 10.7021 17.4731 11.578 17.1376C11.6564 17.1071 11.7436 17.1463 11.7784 17.2248C12.1183 18.0527 12.5323 18.6758 13.0072 19.0723C13.09 19.142 13.0508 19.2684 12.9462 19.2815ZM16.0531 17.3206C15.5302 18.3533 14.8853 18.9285 14.2578 18.9154C13.578 18.9024 12.9026 18.1965 12.3972 16.972C12.3667 16.898 12.4015 16.8065 12.4756 16.7716C12.48 16.7672 12.4843 16.7672 12.493 16.7629C12.5236 16.7498 12.5628 16.7455 12.5976 16.7542C13.5345 17.0156 14.4626 17.155 15.3297 17.155C15.4212 17.155 15.5171 17.1551 15.6086 17.1507C15.7132 17.1463 15.8221 17.142 15.9267 17.1333C16.0269 17.1333 16.0966 17.2335 16.0531 17.3206ZM16.2796 16.4317C16.0618 16.4622 15.8308 16.484 15.5912 16.4927C15.0029 16.5145 14.3798 16.4622 13.7436 16.3446C13.6652 16.3315 13.6521 16.2226 13.7218 16.1877C13.8613 16.118 14.0007 16.0439 14.1402 15.9698C15.1162 15.4513 16.0313 14.8848 16.8287 14.3053C16.8853 14.2617 16.9725 14.314 16.9594 14.3837C16.8461 15.0504 16.698 15.6779 16.5019 16.2443C16.4627 16.3489 16.3799 16.4186 16.2796 16.4317ZM17.3646 17.0156C17.3124 17.0723 17.2514 17.1333 17.1947 17.1899C17.0988 17.2858 16.9899 17.386 16.8897 17.4775C16.8243 17.5341 16.7241 17.4644 16.759 17.386C16.7677 17.3642 16.7808 17.3424 16.7895 17.3163C16.833 17.2204 16.8723 17.1202 16.9202 17.02C16.9289 16.9982 16.9507 16.9808 16.9725 16.972C17.0727 16.9459 17.1773 16.9154 17.2731 16.8849C17.3603 16.8587 17.4213 16.959 17.3646 17.0156ZM18.8375 14.6888C18.807 14.7628 18.7808 14.8369 18.7459 14.911C18.7372 14.9241 18.6937 15.0156 18.6893 15.0286C18.4453 15.4774 18.0444 15.8304 17.5215 16.0788C17.3995 16.1354 17.2688 16.0265 17.3036 15.8958C17.4867 15.2509 17.6174 14.5537 17.7089 13.8173C17.7263 13.6778 17.7917 13.5558 17.8962 13.4643C18.1185 13.2726 18.3276 13.0765 18.5194 12.8848C18.6109 12.7933 18.7721 12.8325 18.8113 12.9589C18.9987 13.5907 19.0117 14.1789 18.8375 14.6888ZM18.9856 11.2507C18.9333 11.3466 18.7895 11.351 18.7285 11.2595C18.7198 11.2464 18.7111 11.229 18.7024 11.2159C18.4845 10.876 18.2318 10.5492 17.9529 10.2268C17.8832 10.1483 17.9398 10.0263 18.0444 10.022H18.0488C18.7067 10.022 19.051 10.1875 19.1555 10.3836C19.2383 10.5492 19.2122 10.8411 18.9856 11.2507ZM19.3429 12.2181C19.3429 12.266 19.2732 12.2791 19.2558 12.2355C19.2471 12.2181 19.2383 12.1963 19.2296 12.1789C19.2122 12.144 19.2165 12.1004 19.2427 12.0656C19.2471 12.0612 19.2558 12.0482 19.2688 12.0307C19.2993 11.9915 19.3473 11.9959 19.3473 12.0394C19.3429 12.1004 19.3429 12.1571 19.3429 12.2181Z" fill="white"/>
<path d="M23.5658 13.6918C23.4357 13.201 23.0173 12.7101 22.2642 12.1636C21.6597 11.7283 21.0182 11.4783 20.5068 11.4783C20.4045 11.4783 20.3115 11.4875 20.2186 11.5061C19.9861 11.5524 19.7815 11.7191 19.6514 11.9691C19.4933 12.2655 19.4561 12.6638 19.5584 12.9046C19.5956 12.9787 19.6421 13.0713 19.6979 13.1547C19.2051 13.451 18.9261 13.5344 18.8889 13.5436C20.1721 13.9697 21.2414 14.8588 21.9108 16.0165L21.9201 15.9054C21.948 15.5998 22.041 15.2478 22.1712 14.8866C22.3013 14.9237 22.4315 14.9422 22.5617 14.9422C22.9057 14.9422 23.2032 14.8033 23.3892 14.5532C23.5752 14.3031 23.6495 13.9697 23.5658 13.6918Z" fill="#5E12A0"/>
<path d="M22.227 14.618C23.0731 14.8496 23.4171 14.2012 23.3055 13.7659C23.1847 13.3306 22.7942 12.8861 22.1061 12.3859C21.4181 11.8858 20.7207 11.682 20.2744 11.7746C19.8281 11.8673 19.6979 12.5434 19.8095 12.8027C19.856 12.9046 19.9582 13.0528 20.0977 13.2195C19.9211 13.3399 19.7537 13.4325 19.6143 13.5159C20.4697 13.8956 21.2135 14.4883 21.7714 15.2293C21.8364 14.9792 21.9294 14.7569 22.0132 14.5624C22.0782 14.5717 22.1526 14.5902 22.227 14.618Z" fill="url(#paint0_radial_7159_8172)"/>
<path d="M17.3824 23.6941C20.2529 23.6941 22.58 21.3762 22.58 18.5168C22.58 15.6575 20.2529 13.3395 17.3824 13.3395C14.5119 13.3395 12.1848 15.6575 12.1848 18.5168C12.1848 21.3762 14.5119 23.6941 17.3824 23.6941Z" fill="url(#paint1_radial_7159_8172)"/>
<path opacity="0.6" d="M22.8782 13.3396C22.1716 12.5987 21.5765 12.4042 20.8606 12.2467C20.3027 12.117 20.4515 11.8021 21.1302 11.867C20.8048 11.7558 20.498 11.7281 20.2748 11.7744C19.8285 11.867 19.6983 12.5431 19.8099 12.8024C19.8564 12.9043 19.9587 13.0525 20.0982 13.2192C19.8471 13.3859 19.6333 13.5063 19.4565 13.5989C19.5403 13.636 19.6425 13.6823 19.7634 13.7471C20.0795 13.9138 20.4236 14.1917 20.4236 14.1917C19.9029 13.7471 20.0144 13.5434 20.7304 13.0432C20.9536 12.8858 21.3626 12.9043 21.7439 13.0988C22.1251 13.2933 22.5714 13.7842 22.5714 13.7842L22.1437 14.5992C22.1716 14.6085 22.1995 14.6177 22.2274 14.627C22.497 14.7011 22.7109 14.6826 22.8782 14.6177C23.0735 14.4973 23.5849 14.0898 22.8782 13.3396Z" fill="#A98698"/>
<path d="M20.8506 12.6913C21.0365 12.7654 21.2783 12.895 21.5758 13.0895C21.9291 13.3211 22.236 13.5804 22.4313 13.7842C22.1058 14.2102 21.8919 14.7937 21.7618 15.2012C21.8269 15.2938 21.9012 15.3865 21.9663 15.4791C22.0314 15.2475 22.143 14.9048 22.2917 14.5622C22.329 14.5714 22.3755 14.5714 22.4219 14.5714C22.5335 14.5714 22.6637 14.5529 22.766 14.4695C22.8403 14.414 22.9241 14.3121 22.9147 14.1269C22.9147 13.9509 22.7753 13.7286 22.487 13.46C22.2825 13.2655 22.0035 13.0525 21.7246 12.858C20.925 12.3301 20.3671 12.1819 20.116 12.4319C19.9487 12.5987 19.9673 12.8024 20.023 12.9506C19.7255 13.1451 19.4745 13.284 19.3071 13.3766C19.4187 13.4137 19.521 13.46 19.6325 13.5063C19.9301 13.3489 20.3578 13.0803 20.8506 12.6913ZM22.6079 14.0157C22.6358 14.062 22.6451 14.1083 22.6451 14.1361C22.6451 14.2195 22.6172 14.2473 22.5986 14.2658C22.5614 14.2936 22.487 14.3121 22.4219 14.3121C22.4777 14.2009 22.5428 14.1083 22.6079 14.0157ZM20.3113 12.6357C20.3392 12.6079 20.4136 12.5894 20.5345 12.6079C20.4415 12.682 20.3485 12.7468 20.2555 12.8117C20.2462 12.7468 20.2555 12.682 20.3113 12.6357Z" fill="#5E12A0"/>
<path d="M17.3826 13.0341C14.3421 13.0341 11.8782 15.4884 11.8782 18.5171C11.8782 21.5456 14.3421 24 17.3826 24C20.4231 24 22.887 21.5456 22.887 18.5171C22.887 15.4884 20.4138 13.0341 17.3826 13.0341ZM17.3826 23.6944C14.5095 23.6944 12.185 21.379 12.185 18.5171C12.185 15.6551 14.5095 13.3397 17.3826 13.3397C20.2557 13.3397 22.5802 15.6551 22.5802 18.5171C22.5802 21.379 20.2464 23.6944 17.3826 23.6944Z" fill="#5E12A0"/>
<path opacity="0.6" d="M17.3824 23.6941C20.2529 23.6941 22.58 21.3762 22.58 18.5168C22.58 15.6575 20.2529 13.3395 17.3824 13.3395C14.5119 13.3395 12.1848 15.6575 12.1848 18.5168C12.1848 21.3762 14.5119 23.6941 17.3824 23.6941Z" fill="url(#paint2_linear_7159_8172)"/>
<path opacity="0.6" d="M17.3452 23.0644C14.5093 22.6106 12.5846 19.9525 13.0495 17.1276C13.2541 15.8773 13.8863 14.8122 14.7789 14.0435C13.4772 14.7937 12.5102 16.0996 12.2499 17.6926C11.7943 20.5174 13.719 23.1756 16.5456 23.6294C18.1262 23.8887 19.6511 23.3979 20.7762 22.4347C19.7813 23.0089 18.5725 23.259 17.3452 23.0644Z" fill="#A98698"/>
<path opacity="0.6" d="M18.2101 13.4141C16.899 13.201 15.6252 13.4974 14.5838 14.155C14.5652 14.1735 14.5466 14.192 14.5466 14.192C14.9464 13.9512 15.5322 13.7382 15.5322 13.7382C14.0259 14.6088 13.561 15.5998 13.561 15.5998C14.1468 14.4699 15.8669 13.6734 17.2152 13.6178C18.5634 13.5622 19.4467 13.9605 20.5252 14.8218C21.6038 15.6925 22.2547 17.4707 22.1896 18.8785C22.1338 20.2863 21.39 21.4255 21.39 21.4255C21.9013 20.7679 22.2082 20.2863 22.4034 19.7954C22.4407 19.6472 22.4779 19.4991 22.4964 19.3416C22.9613 16.526 21.0459 13.8679 18.2101 13.4141Z" fill="url(#paint3_linear_7159_8172)"/>
<path d="M22.3191 18.4703C22.3191 21.184 20.1061 23.3883 17.3818 23.3883C14.6575 23.3883 12.4353 21.184 12.4353 18.4703H22.3191Z" fill="url(#paint4_linear_7159_8172)"/>
<g opacity="0.6">
<path opacity="0.6" d="M21.929 18.4708C21.929 21.1197 19.8277 23.2869 17.187 23.3888C17.2521 23.3888 17.3172 23.3888 17.3823 23.3888C20.1066 23.3888 22.3195 21.1845 22.3195 18.4708H21.929Z" fill="url(#paint5_linear_7159_8172)"/>
</g>
<g opacity="0.7">
<path opacity="0.7" d="M13.1344 18.4708H12.437C12.437 21.1845 14.6499 23.3888 17.3743 23.3888C17.4951 23.3888 17.6067 23.3888 17.7183 23.3795C15.1613 23.1943 13.1344 21.0641 13.1344 18.4708Z" fill="url(#paint6_linear_7159_8172)"/>
</g>
<path d="M22.3098 18.5173C22.3098 17.9523 21.3242 17.6281 20.0132 17.517C19.0648 17.4429 18.1071 17.5355 17.0099 17.8689C16.0615 18.1468 15.2061 18.1005 14.5831 18.0263C13.1977 17.8689 12.4353 17.8504 12.4353 18.5173C12.4353 19.4805 14.4065 20.6845 17.3633 20.2677C18.8602 20.0547 19.632 19.6194 20.5153 19.323C21.473 19.0081 22.3098 19.0174 22.3098 18.5173Z" fill="url(#paint7_linear_7159_8172)"/>
<path d="M19.0009 16.1838C19.4629 16.1838 19.8374 15.8106 19.8374 15.3503C19.8374 14.8899 19.4629 14.5167 19.0009 14.5167C18.5389 14.5167 18.1643 14.8899 18.1643 15.3503C18.1643 15.8106 18.5389 16.1838 19.0009 16.1838Z" fill="white"/>
<path d="M20.3669 16.804C20.562 16.804 20.7201 16.6464 20.7201 16.452C20.7201 16.2577 20.562 16.1001 20.3669 16.1001C20.1718 16.1001 20.0137 16.2577 20.0137 16.452C20.0137 16.6464 20.1718 16.804 20.3669 16.804Z" fill="white"/>
<g opacity="0.6">
<path opacity="0.6" d="M21.63 14.6831C21.6207 14.6831 21.6115 14.6831 21.6115 14.6831C21.5557 14.6739 21.5185 14.6183 21.5278 14.5535C21.6115 14.1274 21.9647 13.7199 21.9833 13.7014C22.0204 13.6551 22.0948 13.6551 22.132 13.6921C22.1785 13.7292 22.1785 13.8033 22.1413 13.8403C22.132 13.8496 21.8066 14.2293 21.7323 14.5998C21.723 14.6554 21.6766 14.6831 21.63 14.6831Z" fill="url(#paint8_linear_7159_8172)"/>
</g>
<path opacity="0.2" d="M17.0403 22.3792C17.184 22.3792 17.3006 22.2631 17.3006 22.1199C17.3006 21.9767 17.184 21.8606 17.0403 21.8606C16.8966 21.8606 16.78 21.9767 16.78 22.1199C16.78 22.2631 16.8966 22.3792 17.0403 22.3792Z" fill="white"/>
<g opacity="0.4">
<path opacity="0.6" d="M16.8917 22.2889C16.7894 22.187 16.7894 22.0203 16.8917 21.9184C16.9103 21.8999 16.9289 21.8906 16.9475 21.8721C16.9103 21.8814 16.8824 21.8999 16.8545 21.9276C16.7523 22.0295 16.7523 22.1963 16.8545 22.2981C16.9382 22.3815 17.0683 22.4 17.1706 22.3444C17.0776 22.3815 16.9661 22.363 16.8917 22.2889Z" fill="url(#paint9_linear_7159_8172)"/>
</g>
<path opacity="0.3" d="M17.1315 22.0451C17.1623 22.0451 17.1872 22.0204 17.1872 21.9899C17.1872 21.9594 17.1623 21.9347 17.1315 21.9347C17.1007 21.9347 17.0757 21.9594 17.0757 21.9899C17.0757 22.0204 17.1007 22.0451 17.1315 22.0451Z" fill="white"/>
<path opacity="0.2" d="M18.3977 22.2501C18.5415 22.2501 18.658 22.134 18.658 21.9908C18.658 21.8475 18.5415 21.7314 18.3977 21.7314C18.254 21.7314 18.1375 21.8475 18.1375 21.9908C18.1375 22.134 18.254 22.2501 18.3977 22.2501Z" fill="white"/>
<g opacity="0.4">
<path opacity="0.6" d="M18.2471 22.1584C18.1449 22.0565 18.1449 21.8898 18.2471 21.7878C18.2657 21.7694 18.2843 21.7601 18.3029 21.7416C18.2657 21.7508 18.2378 21.7694 18.21 21.7972C18.1077 21.899 18.1077 22.0657 18.21 22.1676C18.2937 22.251 18.4237 22.2695 18.526 22.2139C18.4331 22.251 18.3215 22.2324 18.2471 22.1584Z" fill="url(#paint10_linear_7159_8172)"/>
</g>
<path opacity="0.3" d="M18.4896 21.9152C18.5204 21.9152 18.5454 21.8905 18.5454 21.86C18.5454 21.8295 18.5204 21.8048 18.4896 21.8048C18.4588 21.8048 18.4338 21.8295 18.4338 21.86C18.4338 21.8905 18.4588 21.9152 18.4896 21.9152Z" fill="white"/>
<path opacity="0.2" d="M17.7272 22.8517C17.835 22.8517 17.9224 22.7647 17.9224 22.6573C17.9224 22.5498 17.835 22.4628 17.7272 22.4628C17.6194 22.4628 17.532 22.5498 17.532 22.6573C17.532 22.7647 17.6194 22.8517 17.7272 22.8517Z" fill="white"/>
<g opacity="0.4">
<path opacity="0.6" d="M17.6147 22.7792C17.5403 22.705 17.5403 22.5754 17.6147 22.5013C17.624 22.4921 17.6425 22.4828 17.6518 22.4735C17.624 22.4828 17.6054 22.5013 17.5868 22.5198C17.5124 22.5939 17.5124 22.7236 17.5868 22.7977C17.6518 22.8625 17.7448 22.8718 17.8285 22.8255C17.7541 22.8533 17.6704 22.8347 17.6147 22.7792Z" fill="url(#paint11_linear_7159_8172)"/>
</g>
<path opacity="0.3" d="M17.7916 22.5917C17.8121 22.5917 17.8287 22.5752 17.8287 22.5549C17.8287 22.5346 17.8121 22.5181 17.7916 22.5181C17.771 22.5181 17.7544 22.5346 17.7544 22.5549C17.7544 22.5752 17.771 22.5917 17.7916 22.5917Z" fill="white"/>
<path opacity="0.2" d="M18.9254 22.7127C19.0332 22.7127 19.1206 22.6256 19.1206 22.5182C19.1206 22.4108 19.0332 22.3237 18.9254 22.3237C18.8176 22.3237 18.7302 22.4108 18.7302 22.5182C18.7302 22.6256 18.8176 22.7127 18.9254 22.7127Z" fill="white"/>
<g opacity="0.4">
<path opacity="0.6" d="M18.8158 22.6406C18.7415 22.5665 18.7415 22.4369 18.8158 22.3627C18.8252 22.3535 18.8437 22.3443 18.853 22.335C18.8252 22.3443 18.8065 22.3627 18.788 22.3813C18.7136 22.4553 18.7136 22.585 18.788 22.6592C18.853 22.724 18.946 22.7332 19.0296 22.6869C18.9553 22.7147 18.8716 22.6962 18.8158 22.6406Z" fill="url(#paint12_linear_7159_8172)"/>
</g>
<path opacity="0.3" d="M18.9903 22.4532C19.0109 22.4532 19.0275 22.4367 19.0275 22.4163C19.0275 22.396 19.0109 22.3795 18.9903 22.3795C18.9698 22.3795 18.9531 22.396 18.9531 22.4163C18.9531 22.4367 18.9698 22.4532 18.9903 22.4532Z" fill="white"/>
<path opacity="0.2" d="M15.9317 22.287C16.1679 22.287 16.3593 22.0963 16.3593 21.861C16.3593 21.6257 16.1679 21.4349 15.9317 21.4349C15.6956 21.4349 15.5042 21.6257 15.5042 21.861C15.5042 22.0963 15.6956 22.287 15.9317 22.287Z" fill="white"/>
<g opacity="0.4">
<path opacity="0.6" d="M15.6905 22.129C15.5232 21.9623 15.5232 21.6937 15.6905 21.527C15.7184 21.4992 15.7463 21.4807 15.7835 21.4622C15.7277 21.4807 15.6812 21.5177 15.6348 21.5548C15.4674 21.7215 15.4674 21.9901 15.6348 22.1568C15.7742 22.2958 15.988 22.3235 16.1553 22.2216C15.9973 22.2865 15.8114 22.2587 15.6905 22.129Z" fill="url(#paint13_linear_7159_8172)"/>
</g>
<path opacity="0.3" d="M16.0795 21.7309C16.1309 21.7309 16.1725 21.6894 16.1725 21.6383C16.1725 21.5871 16.1309 21.5457 16.0795 21.5457C16.0282 21.5457 15.9866 21.5871 15.9866 21.6383C15.9866 21.6894 16.0282 21.7309 16.0795 21.7309Z" fill="white"/>
<path opacity="0.2" d="M19.7545 21.2401C19.9907 21.2401 20.1821 21.0494 20.1821 20.8141C20.1821 20.5788 19.9907 20.3881 19.7545 20.3881C19.5184 20.3881 19.3269 20.5788 19.3269 20.8141C19.3269 21.0494 19.5184 21.2401 19.7545 21.2401Z" fill="white"/>
<g opacity="0.4">
<path opacity="0.6" d="M19.5021 21.083C19.3347 20.9163 19.3347 20.6477 19.5021 20.481C19.5299 20.4532 19.5578 20.4347 19.595 20.4161C19.5392 20.4347 19.4928 20.4717 19.4463 20.5088C19.279 20.6755 19.279 20.9441 19.4463 21.1108C19.5857 21.2497 19.7995 21.2775 19.9668 21.1756C19.8088 21.2405 19.6322 21.2127 19.5021 21.083Z" fill="url(#paint14_linear_7159_8172)"/>
</g>
<path opacity="0.3" d="M19.9035 20.6847C19.9549 20.6847 19.9965 20.6432 19.9965 20.592C19.9965 20.5408 19.9549 20.4994 19.9035 20.4994C19.8522 20.4994 19.8105 20.5408 19.8105 20.592C19.8105 20.6432 19.8522 20.6847 19.9035 20.6847Z" fill="white"/>
<defs>
<radialGradient id="paint0_radial_7159_8172" cx="0" cy="0" r="1" gradientUnits="userSpaceOnUse" gradientTransform="translate(23.1359 13.1824) scale(4.15569 4.1395)">
<stop stop-color="#FFEAFF" stop-opacity="0.6"/>
<stop offset="0.6807" stop-color="#A087C9"/>
<stop offset="1" stop-color="#10002F"/>
</radialGradient>
<radialGradient id="paint1_radial_7159_8172" cx="0" cy="0" r="1" gradientUnits="userSpaceOnUse" gradientTransform="translate(22.0478 17.5974) scale(11.6386 12.3299)">
<stop stop-color="#FFEAFF" stop-opacity="0.6"/>
<stop offset="0.6807" stop-color="#A087C9"/>
<stop offset="1" stop-color="#10002F"/>
</radialGradient>
<linearGradient id="paint2_linear_7159_8172" x1="16.5487" y1="23.6207" x2="18.1986" y2="13.4023" gradientUnits="userSpaceOnUse">
<stop stop-color="#81FFFF"/>
<stop offset="0.6202" stop-color="white" stop-opacity="0"/>
</linearGradient>
<linearGradient id="paint3_linear_7159_8172" x1="21.0455" y1="15.0012" x2="16.7629" y2="18.946" gradientUnits="userSpaceOnUse">
<stop offset="0.2888" stop-color="white"/>
<stop offset="0.7796" stop-color="white" stop-opacity="0"/>
</linearGradient>
<linearGradient id="paint4_linear_7159_8172" x1="12.4395" y1="20.9264" x2="22.3167" y2="20.9264" gradientUnits="userSpaceOnUse">
<stop stop-color="#0002E9"/>
<stop offset="0.9952" stop-color="#FF00C7"/>
</linearGradient>
<linearGradient id="paint5_linear_7159_8172" x1="22.7847" y1="18.9024" x2="17.4284" y2="23.9842" gradientUnits="userSpaceOnUse">
<stop offset="0.2888" stop-color="white"/>
<stop offset="0.7796" stop-color="white" stop-opacity="0"/>
</linearGradient>
<linearGradient id="paint6_linear_7159_8172" x1="12.4412" y1="20.9269" x2="17.7255" y2="20.9269" gradientUnits="userSpaceOnUse">
<stop stop-color="#000292"/>
<stop offset="0.9952" stop-color="#7D00C7"/>
</linearGradient>
<linearGradient id="paint7_linear_7159_8172" x1="12.4461" y1="18.9258" x2="22.3101" y2="18.9258" gradientUnits="userSpaceOnUse">
<stop stop-color="#000292"/>
<stop offset="0.9952" stop-color="#BE00C7"/>
</linearGradient>
<linearGradient id="paint8_linear_7159_8172" x1="22.1471" y1="13.6563" x2="21.442" y2="14.8061" gradientUnits="userSpaceOnUse">
<stop offset="0.2888" stop-color="white"/>
<stop offset="0.7796" stop-color="white" stop-opacity="0"/>
</linearGradient>
<linearGradient id="paint9_linear_7159_8172" x1="16.7776" y1="22.1301" x2="17.1708" y2="22.1301" gradientUnits="userSpaceOnUse">
<stop offset="0.2888" stop-color="white"/>
<stop offset="0.7796" stop-color="white" stop-opacity="0"/>
</linearGradient>
<linearGradient id="paint10_linear_7159_8172" x1="18.1321" y1="21.9978" x2="18.5253" y2="21.9978" gradientUnits="userSpaceOnUse">
<stop offset="0.2888" stop-color="white"/>
<stop offset="0.7796" stop-color="white" stop-opacity="0"/>
</linearGradient>
<linearGradient id="paint11_linear_7159_8172" x1="17.5258" y1="22.6606" x2="17.821" y2="22.6606" gradientUnits="userSpaceOnUse">
<stop offset="0.2888" stop-color="white"/>
<stop offset="0.7796" stop-color="white" stop-opacity="0"/>
</linearGradient>
<linearGradient id="paint12_linear_7159_8172" x1="18.727" y1="22.5221" x2="19.0222" y2="22.5221" gradientUnits="userSpaceOnUse">
<stop offset="0.2888" stop-color="white"/>
<stop offset="0.7796" stop-color="white" stop-opacity="0"/>
</linearGradient>
<linearGradient id="paint13_linear_7159_8172" x1="15.505" y1="21.8713" x2="16.1473" y2="21.8713" gradientUnits="userSpaceOnUse">
<stop offset="0.2888" stop-color="white"/>
<stop offset="0.7796" stop-color="white" stop-opacity="0"/>
</linearGradient>
<linearGradient id="paint14_linear_7159_8172" x1="19.3201" y1="20.8249" x2="19.9623" y2="20.8249" gradientUnits="userSpaceOnUse">
<stop offset="0.2888" stop-color="white"/>
<stop offset="0.7796" stop-color="white" stop-opacity="0"/>
</linearGradient>
</defs>
</svg>
