<svg width="24" height="24" viewBox="0 0 24 24" fill="none" xmlns="http://www.w3.org/2000/svg">
<path d="M22.9565 11.4783C22.9565 5.13899 17.8175 0 11.4783 0C5.13899 0 0 5.13899 0 11.4783C0 17.8175 5.13899 22.9565 11.4783 22.9565C17.8175 22.9565 22.9565 17.8175 22.9565 11.4783Z" fill="#E50571"/>
<path d="M18.9687 9.88632C18.6686 8.44836 17.9559 7.13128 16.893 6.06845C15.4468 4.62217 13.5254 3.82609 11.4789 3.82609C9.43242 3.82609 7.51099 4.618 6.0647 6.06428C5.71043 6.41856 5.402 6.79785 5.13108 7.19797C5.05189 7.30634 4.97687 7.41888 4.91435 7.53974C4.20579 8.71928 3.82651 10.0656 3.82651 11.4785C3.82651 13.5249 4.62259 15.4464 6.06887 16.8927C7.51516 18.3389 9.43659 19.135 11.483 19.135C13.5295 19.135 15.451 18.3389 16.8972 16.8927C17.5767 16.2133 18.1184 15.4213 18.4978 14.567C18.5436 14.4752 18.5811 14.3752 18.6186 14.2752C18.9646 13.3999 19.1438 12.4538 19.1438 11.4827C19.1438 10.97 19.0938 10.4823 18.9937 9.99049C18.9895 9.96552 18.9729 9.90297 18.9687 9.88632ZM16.3138 6.38938C16.3554 6.43107 16.4013 6.47274 16.4471 6.51859C17.1223 7.19381 17.6474 7.98571 17.9934 8.84432C18.0268 8.92768 17.9559 9.02354 17.8601 9.00687C17.66 8.96936 17.4308 8.95685 17.1807 8.96102C17.0056 8.96519 16.8514 8.84016 16.8223 8.67343C16.6847 7.90652 16.4846 7.20214 16.2346 6.58528C16.222 6.55194 16.2054 6.51859 16.1929 6.47692C16.1595 6.39772 16.2554 6.32687 16.3138 6.38938ZM17.0431 10.8783C17.0431 10.7991 17.1432 10.7615 17.1932 10.8283C17.2473 10.9075 17.3057 10.9908 17.3599 11.07C17.4308 11.1784 17.4975 11.2868 17.5558 11.3951C17.5933 11.4618 17.585 11.5451 17.535 11.6035C17.4558 11.6911 17.364 11.7869 17.2682 11.8828C17.2349 11.9162 17.1973 11.9537 17.1598 11.9911C17.114 12.0329 17.0348 11.9995 17.039 11.9411C17.0431 11.8244 17.0473 11.7118 17.0473 11.591C17.0514 11.3451 17.0514 11.1117 17.0431 10.8783ZM7.40262 5.76002C8.58632 4.91393 9.99508 4.45962 11.4789 4.45962C11.8707 4.45962 12.2583 4.49296 12.6376 4.55131C12.7376 4.56798 12.7751 4.69719 12.6918 4.75971C12.325 5.0473 11.9874 5.47243 11.6831 6.02261C11.6123 6.16014 11.4539 6.22267 11.3038 6.18099C10.3036 5.90173 9.31989 5.76836 8.41127 5.79754C8.07367 5.81004 7.76106 5.84338 7.46097 5.89757C7.37761 5.9184 7.33594 5.81004 7.40262 5.76002ZM6.40231 16.2508C6.25227 15.9757 6.44399 15.3297 7.41513 14.346C7.51516 14.246 7.50682 14.0793 7.39429 13.9876C7.35677 13.9584 7.31927 13.9293 7.27758 13.8959C7.18172 13.8209 7.04001 13.8251 6.95248 13.9126C6.93165 13.9334 6.91913 13.9459 6.91497 13.9501C6.43149 14.4461 6.08972 14.9087 5.90215 15.3255C5.84797 15.4464 5.68542 15.4589 5.61456 15.3463C4.86016 14.2127 4.45587 12.8789 4.45587 11.4827C4.45587 10.9866 4.50589 10.4907 4.61008 10.0155C4.62675 9.94467 4.72679 9.94046 4.7518 10.0113C4.89768 10.4907 5.13525 10.9908 5.46035 11.491C5.90215 12.1662 6.48151 12.8164 7.17339 13.4166C7.40679 13.6208 7.65687 13.8167 7.91945 14.0085C8.44878 14.396 9.01563 14.7503 9.62414 15.0629C9.89091 15.2047 10.1577 15.3338 10.4244 15.4589C10.5744 15.5256 10.7454 15.5297 10.8954 15.4714C11.0246 15.4213 11.1496 15.3714 11.2788 15.3172C11.4206 15.2588 11.4956 15.1087 11.4581 14.9588C11.4539 14.942 11.4498 14.9254 11.4498 14.9171C11.2371 14.0293 11.1204 13.0248 11.1038 11.9786C11.1038 11.9661 11.1038 11.7286 11.1038 11.4827C11.1038 11.2367 11.1121 11.1242 11.1204 10.945C11.183 9.6779 11.3997 8.49004 11.7415 7.48556C11.7707 7.39387 11.7248 7.29383 11.6289 7.26049C11.5414 7.23131 11.4498 7.20214 11.358 7.17297C11.2705 7.14379 11.1705 7.1938 11.1372 7.2855C10.7661 8.37333 10.5369 9.66125 10.4786 11.0242C10.4703 11.1992 10.3785 11.3576 10.2285 11.4452C9.41992 11.9245 8.68219 12.433 8.03615 12.9415C7.90278 13.0498 7.71105 13.0415 7.58184 12.9331C6.93998 12.3746 6.39815 11.7702 5.98968 11.1409C5.18527 9.90717 4.99354 8.74845 5.45201 7.86902L5.45618 7.86485C5.51453 7.76898 5.57706 7.67312 5.63958 7.58142C6.16474 6.88954 7.14004 6.48525 8.43628 6.4394C8.51547 6.43523 8.603 6.43523 8.68219 6.43523C9.47827 6.43523 10.3285 6.56861 11.1955 6.81869C11.2122 6.82285 11.3372 6.86037 11.3622 6.86871C11.5831 6.93956 11.9582 7.06876 12.0083 7.08543C12.029 7.09378 12.1457 7.13962 12.1625 7.14379C12.5875 7.3105 13.0085 7.49807 13.4254 7.7148C14.2339 8.13576 14.9717 8.62759 15.6218 9.16942C14.3923 9.44868 12.9627 9.9947 11.5247 10.724C11.4581 10.7574 11.4122 10.8241 11.4081 10.8991C11.4038 10.9866 11.3955 11.1659 11.3914 11.3117C11.3872 11.3993 11.483 11.4618 11.5622 11.4201C12.9877 10.6699 14.4089 10.1155 15.6302 9.81544C15.8594 9.7613 16.0053 9.54454 15.9761 9.31113C15.9553 9.14859 15.9303 8.98603 15.9011 8.83181C15.8677 8.63592 15.7553 8.4567 15.601 8.34C15.03 7.90652 14.4006 7.5064 13.7254 7.15212C13.2712 6.91455 12.8126 6.71032 12.3458 6.5311C12.25 6.49359 12.2042 6.37688 12.2583 6.28519C12.7334 5.43492 13.3003 4.95978 13.8546 4.95978C13.8588 4.95978 13.8672 4.95978 13.8713 4.95978C14.5215 4.97228 15.1676 5.64749 15.651 6.81869C15.8928 7.41054 16.0804 8.09409 16.2137 8.83598C16.2512 9.04438 16.2804 9.25695 16.3054 9.47368C16.3179 9.58626 16.3387 9.7571 16.3513 9.83209C16.4054 10.3948 16.4263 10.9825 16.4179 11.5785C16.4096 11.9578 16.393 12.3329 16.3596 12.6955C15.4885 13.3957 14.4132 14.1001 13.2295 14.7254C12.9085 14.892 12.5875 15.0546 12.2708 15.2047C12.2042 15.238 11.9291 15.3589 11.9123 15.3672C11.6123 15.5047 11.3163 15.6256 11.0204 15.7423C11.0037 15.7507 10.6703 15.8757 10.6494 15.884C10.6245 15.8923 10.4535 15.9549 10.4327 15.9632C9.79507 16.1883 9.18234 16.3592 8.62384 16.4676C7.21089 16.7385 6.54819 16.53 6.40231 16.2508ZM8.32375 13.5249C8.9406 13.0248 9.66584 12.5163 10.462 12.0412C10.4786 13.0581 10.5911 14.0376 10.7912 14.9171C10.4995 14.7878 10.2035 14.6545 9.91177 14.5003C9.34489 14.2085 8.81139 13.8792 8.32375 13.5249ZM12.3833 18.4432C12.0874 18.4807 11.7832 18.5015 11.4789 18.5015C10.1118 18.5015 8.80723 18.1138 7.69021 17.3928C7.61519 17.3428 7.64853 17.2219 7.73606 17.2178C7.75273 17.2178 7.77358 17.2178 7.78608 17.2136C8.0695 17.1969 8.3821 17.1552 8.7197 17.0885C9.43659 16.9469 10.2368 16.7134 11.0746 16.3925C11.1496 16.3633 11.233 16.4008 11.2663 16.4759C11.5914 17.2678 11.9874 17.8638 12.4417 18.2431C12.5209 18.3097 12.4834 18.4306 12.3833 18.4432ZM15.3551 16.5675C14.855 17.5553 14.2381 18.1055 13.6379 18.093C12.9877 18.0806 12.3416 17.4053 11.8582 16.2341C11.829 16.1633 11.8623 16.0758 11.9332 16.0424C11.9374 16.0382 11.9415 16.0382 11.9498 16.0341C11.9791 16.0215 12.0166 16.0174 12.0499 16.0258C12.946 16.2758 13.8338 16.4091 14.6632 16.4091C14.7507 16.4091 14.8424 16.4092 14.93 16.405C15.03 16.4008 15.1342 16.3967 15.2342 16.3884C15.3301 16.3884 15.3967 16.4842 15.3551 16.5675ZM15.5718 15.7173C15.3635 15.7465 15.1425 15.7673 14.9133 15.7756C14.3506 15.7965 13.7546 15.7465 13.1461 15.634C13.0711 15.6214 13.0585 15.5173 13.1252 15.4839C13.2586 15.4172 13.392 15.3463 13.5254 15.2755C14.459 14.7795 15.3343 14.2376 16.097 13.6833C16.1512 13.6416 16.2346 13.6917 16.222 13.7583C16.1137 14.396 15.972 14.9963 15.7844 15.538C15.7469 15.6381 15.6677 15.7047 15.5718 15.7173ZM16.6096 16.2758C16.5597 16.33 16.5013 16.3884 16.4471 16.4425C16.3554 16.5342 16.2512 16.6301 16.1554 16.7176C16.0928 16.7717 15.997 16.7051 16.0303 16.6301C16.0387 16.6092 16.0512 16.5884 16.0595 16.5634C16.1011 16.4717 16.1387 16.3758 16.1845 16.28C16.1929 16.2591 16.2137 16.2425 16.2346 16.2341C16.3304 16.2091 16.4305 16.1799 16.5221 16.1508C16.6055 16.1257 16.6639 16.2217 16.6096 16.2758ZM18.0185 14.0502C17.9893 14.1209 17.9642 14.1918 17.9309 14.2627C17.9225 14.2752 17.8809 14.3627 17.8767 14.3752C17.6433 14.8045 17.2599 15.1421 16.7597 15.3797C16.643 15.4339 16.518 15.3297 16.5513 15.2047C16.7264 14.5878 16.8514 13.9209 16.9389 13.2165C16.9556 13.0831 17.0181 12.9664 17.1181 12.8789C17.3307 12.6955 17.5307 12.508 17.7142 12.3246C17.8017 12.2371 17.9559 12.2746 17.9934 12.3955C18.1727 12.9998 18.1851 13.5624 18.0185 14.0502ZM18.1601 10.7615C18.1101 10.8533 17.9726 10.8575 17.9142 10.77C17.9059 10.7574 17.8976 10.7408 17.8893 10.7283C17.6808 10.4031 17.4391 10.0905 17.1723 9.78216C17.1057 9.70707 17.1598 9.59037 17.2599 9.58626H17.2641C17.8934 9.58626 18.2227 9.74457 18.3227 9.93214C18.4019 10.0905 18.3769 10.3697 18.1601 10.7615ZM18.5019 11.6869C18.5019 11.7327 18.4352 11.7452 18.4186 11.7035C18.4103 11.6869 18.4019 11.666 18.3935 11.6494C18.3769 11.616 18.381 11.5743 18.4061 11.541C18.4103 11.5368 18.4186 11.5244 18.431 11.5076C18.4602 11.4701 18.5061 11.4743 18.5061 11.5159C18.5019 11.5743 18.5019 11.6285 18.5019 11.6869Z" fill="white"/>
<path d="M23.5658 13.6918C23.4357 13.201 23.0173 12.7101 22.2642 12.1636C21.6597 11.7283 21.0182 11.4783 20.5068 11.4783C20.4045 11.4783 20.3115 11.4875 20.2186 11.5061C19.9861 11.5524 19.7815 11.7191 19.6514 11.9691C19.4933 12.2655 19.4561 12.6638 19.5584 12.9046C19.5956 12.9787 19.6421 13.0713 19.6979 13.1547C19.2051 13.451 18.9261 13.5344 18.8889 13.5436C20.1721 13.9697 21.2414 14.8588 21.9108 16.0165L21.9201 15.9054C21.948 15.5998 22.041 15.2478 22.1712 14.8866C22.3013 14.9237 22.4315 14.9422 22.5617 14.9422C22.9057 14.9422 23.2032 14.8033 23.3892 14.5532C23.5752 14.3031 23.6495 13.9697 23.5658 13.6918Z" fill="#5E12A0"/>
<path d="M22.227 14.6179C23.0731 14.8495 23.4171 14.2012 23.3055 13.7659C23.1847 13.3306 22.7942 12.886 22.1061 12.3859C21.4181 11.8857 20.7207 11.682 20.2744 11.7746C19.8281 11.8672 19.6979 12.5433 19.8095 12.8026C19.856 12.9045 19.9582 13.0527 20.0977 13.2194C19.9211 13.3398 19.7537 13.4324 19.6143 13.5158C20.4697 13.8955 21.2135 14.4883 21.7714 15.2292C21.8364 14.9792 21.9294 14.7569 22.0132 14.5624C22.0782 14.5716 22.1526 14.5902 22.227 14.6179Z" fill="url(#paint0_radial_7159_8172)"/>
<path d="M17.3824 23.6942C20.2529 23.6942 22.58 21.3762 22.58 18.5169C22.58 15.6575 20.2529 13.3395 17.3824 13.3395C14.5119 13.3395 12.1848 15.6575 12.1848 18.5169C12.1848 21.3762 14.5119 23.6942 17.3824 23.6942Z" fill="url(#paint1_radial_7159_8172)"/>
<path opacity="0.6" d="M22.8784 13.3395C22.1717 12.5986 21.5766 12.4041 20.8607 12.2467C20.3028 12.117 20.4516 11.8021 21.1303 11.8669C20.8049 11.7558 20.4981 11.728 20.2749 11.7743C19.8286 11.8669 19.6985 12.543 19.81 12.8024C19.8565 12.9042 19.9588 13.0524 20.0983 13.2191C19.8472 13.3859 19.6334 13.5063 19.4567 13.5989C19.5404 13.6359 19.6426 13.6822 19.7635 13.7471C20.0797 13.9138 20.4237 14.1916 20.4237 14.1916C19.903 13.7471 20.0146 13.5433 20.7305 13.0432C20.9537 12.8857 21.3628 12.9042 21.744 13.0987C22.1253 13.2932 22.5715 13.7841 22.5715 13.7841L22.1438 14.5991C22.1717 14.6084 22.1996 14.6177 22.2275 14.6269C22.4971 14.701 22.711 14.6825 22.8784 14.6177C23.0736 14.4973 23.585 14.0898 22.8784 13.3395Z" fill="#A98698"/>
<path d="M20.8506 12.6913C21.0365 12.7654 21.2783 12.895 21.5758 13.0895C21.9291 13.3211 22.236 13.5804 22.4313 13.7842C22.1058 14.2102 21.8919 14.7937 21.7618 15.2012C21.8269 15.2938 21.9012 15.3865 21.9663 15.4791C22.0314 15.2475 22.143 14.9048 22.2917 14.5622C22.329 14.5714 22.3755 14.5714 22.4219 14.5714C22.5335 14.5714 22.6637 14.5529 22.766 14.4695C22.8403 14.414 22.9241 14.3121 22.9147 14.1269C22.9147 13.9509 22.7753 13.7286 22.487 13.46C22.2825 13.2655 22.0035 13.0525 21.7246 12.858C20.925 12.3301 20.3671 12.1819 20.116 12.4319C19.9487 12.5987 19.9673 12.8024 20.023 12.9506C19.7255 13.1451 19.4745 13.284 19.3071 13.3766C19.4187 13.4137 19.521 13.46 19.6325 13.5063C19.9301 13.3489 20.3578 13.0803 20.8506 12.6913ZM22.6079 14.0157C22.6358 14.062 22.6451 14.1083 22.6451 14.1361C22.6451 14.2195 22.6172 14.2473 22.5986 14.2658C22.5614 14.2936 22.487 14.3121 22.4219 14.3121C22.4777 14.2009 22.5428 14.1083 22.6079 14.0157ZM20.3113 12.6357C20.3392 12.6079 20.4136 12.5894 20.5345 12.6079C20.4415 12.682 20.3485 12.7468 20.2555 12.8117C20.2462 12.7468 20.2555 12.682 20.3113 12.6357Z" fill="#5E12A0"/>
<path d="M17.3827 13.0341C14.3423 13.0341 11.8783 15.4884 11.8783 18.5171C11.8783 21.5456 14.3423 24 17.3827 24C20.4232 24 22.8871 21.5456 22.8871 18.5171C22.8871 15.4884 20.4139 13.0341 17.3827 13.0341ZM17.3827 23.6944C14.5096 23.6944 12.1851 21.379 12.1851 18.5171C12.1851 15.6551 14.5096 13.3397 17.3827 13.3397C20.2558 13.3397 22.5803 15.6551 22.5803 18.5171C22.5803 21.379 20.2465 23.6944 17.3827 23.6944Z" fill="#5E12A0"/>
<path opacity="0.6" d="M17.3824 23.6942C20.2529 23.6942 22.58 21.3762 22.58 18.5169C22.58 15.6575 20.2529 13.3395 17.3824 13.3395C14.5119 13.3395 12.1848 15.6575 12.1848 18.5169C12.1848 21.3762 14.5119 23.6942 17.3824 23.6942Z" fill="url(#paint2_linear_7159_8172)"/>
<path opacity="0.6" d="M17.3454 23.0644C14.5095 22.6106 12.5848 19.9524 13.0497 17.1276C13.2543 15.8772 13.8866 14.8121 14.7792 14.0434C13.4774 14.7936 12.5105 16.0995 12.2501 17.6926C11.7945 20.5174 13.7192 23.1755 16.5458 23.6294C18.1265 23.8887 19.6513 23.3978 20.7764 22.4346C19.7815 23.0088 18.5728 23.2589 17.3454 23.0644Z" fill="#A98698"/>
<path opacity="0.6" d="M18.2102 13.4141C16.8991 13.2011 15.6253 13.4975 14.5839 14.1551C14.5653 14.1736 14.5467 14.1921 14.5467 14.1921C14.9466 13.9513 15.5323 13.7383 15.5323 13.7383C14.0261 14.6089 13.5612 15.5999 13.5612 15.5999C14.1469 14.47 15.8671 13.6734 17.2153 13.6179C18.5635 13.5623 19.4468 13.9606 20.5254 14.8219C21.6039 15.6925 22.2548 17.4708 22.1897 18.8786C22.1339 20.2864 21.3901 21.4256 21.3901 21.4256C21.9015 20.768 22.2083 20.2864 22.4036 19.7955C22.4408 19.6473 22.478 19.4991 22.4966 19.3416C22.9615 16.5261 21.046 13.8679 18.2102 13.4141Z" fill="url(#paint3_linear_7159_8172)"/>
<path d="M22.3191 18.4703C22.3191 21.1839 20.1061 23.3883 17.3818 23.3883C14.6575 23.3883 12.4353 21.1839 12.4353 18.4703H22.3191Z" fill="url(#paint4_linear_7159_8172)"/>
<g opacity="0.6">
<path opacity="0.6" d="M21.9291 18.4708C21.9291 21.1197 19.8278 23.2869 17.1871 23.3888C17.2522 23.3888 17.3173 23.3888 17.3824 23.3888C20.1067 23.3888 22.3197 21.1845 22.3197 18.4708H21.9291Z" fill="url(#paint5_linear_7159_8172)"/>
</g>
<g opacity="0.7">
<path opacity="0.7" d="M13.1346 18.4708H12.4373C12.4373 21.1845 14.6502 23.3888 17.3745 23.3888C17.4954 23.3888 17.607 23.3888 17.7185 23.3795C15.1616 23.1943 13.1346 21.0641 13.1346 18.4708Z" fill="url(#paint6_linear_7159_8172)"/>
</g>
<path d="M22.3098 18.5173C22.3098 17.9523 21.3242 17.6281 20.0132 17.517C19.0648 17.4429 18.1071 17.5355 17.0099 17.8689C16.0615 18.1468 15.2061 18.1005 14.5831 18.0263C13.1977 17.8689 12.4353 17.8504 12.4353 18.5173C12.4353 19.4805 14.4065 20.6845 17.3633 20.2677C18.8602 20.0547 19.632 19.6194 20.5153 19.323C21.473 19.0081 22.3098 19.0174 22.3098 18.5173Z" fill="url(#paint7_linear_7159_8172)"/>
<path d="M19.0011 16.1838C19.4632 16.1838 19.8377 15.8106 19.8377 15.3503C19.8377 14.8899 19.4632 14.5167 19.0011 14.5167C18.5391 14.5167 18.1646 14.8899 18.1646 15.3503C18.1646 15.8106 18.5391 16.1838 19.0011 16.1838Z" fill="white"/>
<path d="M20.3669 16.8039C20.562 16.8039 20.7201 16.6464 20.7201 16.452C20.7201 16.2576 20.562 16.1 20.3669 16.1C20.1718 16.1 20.0137 16.2576 20.0137 16.452C20.0137 16.6464 20.1718 16.8039 20.3669 16.8039Z" fill="white"/>
<g opacity="0.6">
<path opacity="0.6" d="M21.6302 14.6831C21.6209 14.6831 21.6116 14.6831 21.6116 14.6831C21.5558 14.6738 21.5186 14.6182 21.5279 14.5534C21.6116 14.1274 21.9648 13.7199 21.9834 13.7013C22.0206 13.655 22.0949 13.655 22.1321 13.6921C22.1786 13.7291 22.1786 13.8032 22.1414 13.8403C22.1321 13.8495 21.8068 14.2293 21.7324 14.5997C21.7231 14.6553 21.6767 14.6831 21.6302 14.6831Z" fill="url(#paint8_linear_7159_8172)"/>
</g>
<path opacity="0.2" d="M17.0403 22.3792C17.184 22.3792 17.3006 22.2631 17.3006 22.1199C17.3006 21.9767 17.184 21.8606 17.0403 21.8606C16.8966 21.8606 16.78 21.9767 16.78 22.1199C16.78 22.2631 16.8966 22.3792 17.0403 22.3792Z" fill="white"/>
<g opacity="0.4">
<path opacity="0.6" d="M16.8919 22.2889C16.7897 22.187 16.7897 22.0203 16.8919 21.9184C16.9105 21.8999 16.9291 21.8906 16.9477 21.8721C16.9105 21.8814 16.8826 21.8999 16.8548 21.9276C16.7525 22.0295 16.7525 22.1963 16.8548 22.2981C16.9384 22.3815 17.0685 22.4 17.1708 22.3444C17.0778 22.3815 16.9663 22.363 16.8919 22.2889Z" fill="url(#paint9_linear_7159_8172)"/>
</g>
<path opacity="0.3" d="M17.1317 22.0451C17.1625 22.0451 17.1875 22.0204 17.1875 21.9899C17.1875 21.9594 17.1625 21.9347 17.1317 21.9347C17.1009 21.9347 17.0759 21.9594 17.0759 21.9899C17.0759 22.0204 17.1009 22.0451 17.1317 22.0451Z" fill="white"/>
<path opacity="0.2" d="M18.3977 22.2501C18.5415 22.2501 18.658 22.134 18.658 21.9908C18.658 21.8475 18.5415 21.7314 18.3977 21.7314C18.254 21.7314 18.1375 21.8475 18.1375 21.9908C18.1375 22.134 18.254 22.2501 18.3977 22.2501Z" fill="white"/>
<g opacity="0.4">
<path opacity="0.6" d="M18.2473 22.1584C18.145 22.0565 18.145 21.8898 18.2473 21.7879C18.2658 21.7694 18.2845 21.7601 18.303 21.7416C18.2658 21.7509 18.238 21.7694 18.2101 21.7972C18.1079 21.8991 18.1079 22.0658 18.2101 22.1677C18.2938 22.251 18.4239 22.2695 18.5261 22.214C18.4332 22.251 18.3217 22.2325 18.2473 22.1584Z" fill="url(#paint10_linear_7159_8172)"/>
</g>
<path opacity="0.3" d="M18.4896 21.9152C18.5204 21.9152 18.5454 21.8905 18.5454 21.86C18.5454 21.8295 18.5204 21.8048 18.4896 21.8048C18.4588 21.8048 18.4338 21.8295 18.4338 21.86C18.4338 21.8905 18.4588 21.9152 18.4896 21.9152Z" fill="white"/>
<path opacity="0.2" d="M17.7272 22.8518C17.835 22.8518 17.9224 22.7647 17.9224 22.6573C17.9224 22.5499 17.835 22.4628 17.7272 22.4628C17.6194 22.4628 17.532 22.5499 17.532 22.6573C17.532 22.7647 17.6194 22.8518 17.7272 22.8518Z" fill="white"/>
<g opacity="0.4">
<path opacity="0.6" d="M17.6147 22.7792C17.5403 22.705 17.5403 22.5754 17.6147 22.5013C17.624 22.4921 17.6425 22.4828 17.6518 22.4735C17.624 22.4828 17.6054 22.5013 17.5868 22.5198C17.5124 22.5939 17.5124 22.7236 17.5868 22.7977C17.6518 22.8625 17.7448 22.8718 17.8285 22.8255C17.7541 22.8533 17.6704 22.8347 17.6147 22.7792Z" fill="url(#paint11_linear_7159_8172)"/>
</g>
<path opacity="0.3" d="M17.7916 22.5918C17.8121 22.5918 17.8287 22.5753 17.8287 22.555C17.8287 22.5347 17.8121 22.5181 17.7916 22.5181C17.771 22.5181 17.7544 22.5347 17.7544 22.555C17.7544 22.5753 17.771 22.5918 17.7916 22.5918Z" fill="white"/>
<path opacity="0.2" d="M18.9254 22.7127C19.0332 22.7127 19.1206 22.6256 19.1206 22.5182C19.1206 22.4108 19.0332 22.3237 18.9254 22.3237C18.8176 22.3237 18.7302 22.4108 18.7302 22.5182C18.7302 22.6256 18.8176 22.7127 18.9254 22.7127Z" fill="white"/>
<g opacity="0.4">
<path opacity="0.6" d="M18.8158 22.6406C18.7415 22.5665 18.7415 22.4369 18.8158 22.3627C18.8252 22.3535 18.8437 22.3443 18.853 22.335C18.8252 22.3443 18.8065 22.3627 18.788 22.3813C18.7136 22.4553 18.7136 22.585 18.788 22.6592C18.853 22.724 18.946 22.7332 19.0296 22.6869C18.9553 22.7147 18.8716 22.6962 18.8158 22.6406Z" fill="url(#paint12_linear_7159_8172)"/>
</g>
<path opacity="0.3" d="M18.9903 22.4532C19.0109 22.4532 19.0275 22.4367 19.0275 22.4163C19.0275 22.396 19.0109 22.3795 18.9903 22.3795C18.9698 22.3795 18.9531 22.396 18.9531 22.4163C18.9531 22.4367 18.9698 22.4532 18.9903 22.4532Z" fill="white"/>
<path opacity="0.2" d="M15.9319 22.287C16.168 22.287 16.3594 22.0962 16.3594 21.8609C16.3594 21.6256 16.168 21.4349 15.9319 21.4349C15.6957 21.4349 15.5043 21.6256 15.5043 21.8609C15.5043 22.0962 15.6957 22.287 15.9319 22.287Z" fill="white"/>
<g opacity="0.4">
<path opacity="0.6" d="M15.6907 22.129C15.5233 21.9623 15.5233 21.6937 15.6907 21.527C15.7185 21.4992 15.7464 21.4807 15.7836 21.4622C15.7278 21.4807 15.6814 21.5177 15.6349 21.5548C15.4676 21.7215 15.4676 21.9901 15.6349 22.1568C15.7743 22.2958 15.9881 22.3235 16.1554 22.2216C15.9974 22.2865 15.8115 22.2587 15.6907 22.129Z" fill="url(#paint13_linear_7159_8172)"/>
</g>
<path opacity="0.3" d="M16.0798 21.7309C16.1311 21.7309 16.1727 21.6895 16.1727 21.6383C16.1727 21.5872 16.1311 21.5457 16.0798 21.5457C16.0284 21.5457 15.9868 21.5872 15.9868 21.6383C15.9868 21.6895 16.0284 21.7309 16.0798 21.7309Z" fill="white"/>
<path opacity="0.2" d="M19.7546 21.2402C19.9908 21.2402 20.1822 21.0495 20.1822 20.8142C20.1822 20.5789 19.9908 20.3881 19.7546 20.3881C19.5185 20.3881 19.327 20.5789 19.327 20.8142C19.327 21.0495 19.5185 21.2402 19.7546 21.2402Z" fill="white"/>
<g opacity="0.4">
<path opacity="0.6" d="M19.5023 21.083C19.335 20.9163 19.335 20.6477 19.5023 20.481C19.5302 20.4532 19.5581 20.4347 19.5953 20.4161C19.5394 20.4347 19.493 20.4717 19.4466 20.5088C19.2792 20.6755 19.2792 20.9441 19.4466 21.1108C19.586 21.2497 19.7997 21.2775 19.9671 21.1756C19.8091 21.2405 19.6324 21.2127 19.5023 21.083Z" fill="url(#paint14_linear_7159_8172)"/>
</g>
<path opacity="0.3" d="M19.9036 20.6847C19.955 20.6847 19.9966 20.6432 19.9966 20.5921C19.9966 20.5409 19.955 20.4995 19.9036 20.4995C19.8523 20.4995 19.8107 20.5409 19.8107 20.5921C19.8107 20.6432 19.8523 20.6847 19.9036 20.6847Z" fill="white"/>
<defs>
<radialGradient id="paint0_radial_7159_8172" cx="0" cy="0" r="1" gradientUnits="userSpaceOnUse" gradientTransform="translate(23.1359 13.1824) scale(4.15569 4.1395)">
<stop stop-color="#FFEAFF" stop-opacity="0.6"/>
<stop offset="0.6807" stop-color="#A087C9"/>
<stop offset="1" stop-color="#10002F"/>
</radialGradient>
<radialGradient id="paint1_radial_7159_8172" cx="0" cy="0" r="1" gradientUnits="userSpaceOnUse" gradientTransform="translate(22.0478 17.5974) scale(11.6386 12.3299)">
<stop stop-color="#FFEAFF" stop-opacity="0.6"/>
<stop offset="0.6807" stop-color="#A087C9"/>
<stop offset="1" stop-color="#10002F"/>
</radialGradient>
<linearGradient id="paint2_linear_7159_8172" x1="16.5487" y1="23.6208" x2="18.1986" y2="13.4024" gradientUnits="userSpaceOnUse">
<stop stop-color="#81FFFF"/>
<stop offset="0.6202" stop-color="white" stop-opacity="0"/>
</linearGradient>
<linearGradient id="paint3_linear_7159_8172" x1="21.0456" y1="15.0013" x2="16.763" y2="18.9461" gradientUnits="userSpaceOnUse">
<stop offset="0.2888" stop-color="white"/>
<stop offset="0.7796" stop-color="white" stop-opacity="0"/>
</linearGradient>
<linearGradient id="paint4_linear_7159_8172" x1="12.4395" y1="20.9264" x2="22.3167" y2="20.9264" gradientUnits="userSpaceOnUse">
<stop stop-color="#0002E9"/>
<stop offset="0.9952" stop-color="#FF00C7"/>
</linearGradient>
<linearGradient id="paint5_linear_7159_8172" x1="22.7848" y1="18.9024" x2="17.4285" y2="23.9842" gradientUnits="userSpaceOnUse">
<stop offset="0.2888" stop-color="white"/>
<stop offset="0.7796" stop-color="white" stop-opacity="0"/>
</linearGradient>
<linearGradient id="paint6_linear_7159_8172" x1="12.4414" y1="20.9269" x2="17.7257" y2="20.9269" gradientUnits="userSpaceOnUse">
<stop stop-color="#000292"/>
<stop offset="0.9952" stop-color="#7D00C7"/>
</linearGradient>
<linearGradient id="paint7_linear_7159_8172" x1="12.4461" y1="18.9258" x2="22.3101" y2="18.9258" gradientUnits="userSpaceOnUse">
<stop stop-color="#000292"/>
<stop offset="0.9952" stop-color="#BE00C7"/>
</linearGradient>
<linearGradient id="paint8_linear_7159_8172" x1="22.1472" y1="13.6562" x2="21.4421" y2="14.806" gradientUnits="userSpaceOnUse">
<stop offset="0.2888" stop-color="white"/>
<stop offset="0.7796" stop-color="white" stop-opacity="0"/>
</linearGradient>
<linearGradient id="paint9_linear_7159_8172" x1="16.7778" y1="22.1301" x2="17.1711" y2="22.1301" gradientUnits="userSpaceOnUse">
<stop offset="0.2888" stop-color="white"/>
<stop offset="0.7796" stop-color="white" stop-opacity="0"/>
</linearGradient>
<linearGradient id="paint10_linear_7159_8172" x1="18.1322" y1="21.9979" x2="18.5255" y2="21.9979" gradientUnits="userSpaceOnUse">
<stop offset="0.2888" stop-color="white"/>
<stop offset="0.7796" stop-color="white" stop-opacity="0"/>
</linearGradient>
<linearGradient id="paint11_linear_7159_8172" x1="17.5258" y1="22.6606" x2="17.821" y2="22.6606" gradientUnits="userSpaceOnUse">
<stop offset="0.2888" stop-color="white"/>
<stop offset="0.7796" stop-color="white" stop-opacity="0"/>
</linearGradient>
<linearGradient id="paint12_linear_7159_8172" x1="18.727" y1="22.5221" x2="19.0222" y2="22.5221" gradientUnits="userSpaceOnUse">
<stop offset="0.2888" stop-color="white"/>
<stop offset="0.7796" stop-color="white" stop-opacity="0"/>
</linearGradient>
<linearGradient id="paint13_linear_7159_8172" x1="15.5051" y1="21.8713" x2="16.1474" y2="21.8713" gradientUnits="userSpaceOnUse">
<stop offset="0.2888" stop-color="white"/>
<stop offset="0.7796" stop-color="white" stop-opacity="0"/>
</linearGradient>
<linearGradient id="paint14_linear_7159_8172" x1="19.3204" y1="20.8249" x2="19.9626" y2="20.8249" gradientUnits="userSpaceOnUse">
<stop offset="0.2888" stop-color="white"/>
<stop offset="0.7796" stop-color="white" stop-opacity="0"/>
</linearGradient>
</defs>
</svg>
