<svg width="24" height="24" viewBox="0 0 24 24" fill="none" xmlns="http://www.w3.org/2000/svg">
<path d="M23.6825 12C23.6825 18.6274 18.381 24 11.8413 24C5.30152 24 0 18.6274 0 12C0 5.37258 5.30152 0 11.8413 0C18.381 0 23.6825 5.37258 23.6825 12Z" fill="white"/>
<path d="M9.07831 5L17.0731 19L19.7354 14.3328L14.4069 5H9.07831Z" fill="#F34C2D"/>
<path d="M9.07831 14.6L11.8432 19H17.3672L14.6062 14.6H9.07831Z" fill="#BE312D"/>
<path d="M6.71005 9.4L3.94709 14.2L6.71202 19L12.236 9.4H6.71005Z" fill="#F34C2D"/>
<path d="M23.9673 13.2136C23.8433 12.7227 23.4445 12.2318 22.7267 11.6854C22.1506 11.2501 21.5392 11 21.0518 11C20.9543 11 20.8657 11.0093 20.777 11.0278C20.5555 11.0741 20.3605 11.2408 20.2365 11.4909C20.0858 11.7873 20.0504 12.1855 20.1479 12.4263C20.1833 12.5004 20.2276 12.593 20.2808 12.6764C19.8111 12.9728 19.5452 13.0561 19.5098 13.0654C20.7328 13.4914 21.7519 14.3806 22.3899 15.5383L22.3988 15.4271C22.4254 15.1215 22.514 14.7695 22.6381 14.4083C22.7621 14.4454 22.8862 14.4639 23.0103 14.4639C23.3382 14.4639 23.6217 14.325 23.799 14.0749C23.9762 13.8248 24.0471 13.4914 23.9673 13.2136Z" fill="#5E12A0"/>
<path d="M22.6909 14.1397C23.4973 14.3713 23.8252 13.723 23.7188 13.2877C23.6036 12.8523 23.2314 12.4078 22.5756 11.9076C21.9199 11.4075 21.2553 11.2037 20.8299 11.2964C20.4045 11.389 20.2804 12.0651 20.3867 12.3244C20.4311 12.4263 20.5285 12.5745 20.6615 12.7412C20.4931 12.8616 20.3336 12.9542 20.2007 13.0376C21.016 13.4173 21.7249 14.0101 22.2566 14.751C22.3186 14.5009 22.4073 14.2787 22.4871 14.0842C22.5491 14.0934 22.62 14.112 22.6909 14.1397Z" fill="url(#paint0_radial_8744_20675)"/>
<path d="M18.0739 23.2158C20.8098 23.2158 23.0277 20.8978 23.0277 18.0384C23.0277 15.1791 20.8098 12.8611 18.0739 12.8611C15.338 12.8611 13.1201 15.1791 13.1201 18.0384C13.1201 20.8978 15.338 23.2158 18.0739 23.2158Z" fill="url(#paint1_radial_8744_20675)"/>
<path opacity="0.6" d="M23.3122 12.8613C22.6387 12.1204 22.0715 11.9259 21.3892 11.7684C20.8575 11.6388 20.9993 11.3239 21.6462 11.3887C21.3361 11.2776 21.0436 11.2498 20.8309 11.2961C20.4055 11.3887 20.2815 12.0648 20.3878 12.3241C20.4321 12.426 20.5296 12.5742 20.6626 12.7409C20.4233 12.9076 20.2194 13.028 20.051 13.1207C20.1308 13.1577 20.2283 13.204 20.3435 13.2689C20.6448 13.4356 20.9727 13.7134 20.9727 13.7134C20.4764 13.2689 20.5828 13.0651 21.2651 12.565C21.4778 12.4075 21.8677 12.426 22.2311 12.6205C22.5945 12.815 23.0198 13.3059 23.0198 13.3059L22.6122 14.1209C22.6387 14.1302 22.6653 14.1395 22.6919 14.1487C22.9489 14.2228 23.1527 14.2043 23.3122 14.1395C23.4984 14.0191 23.9857 13.6115 23.3122 12.8613Z" fill="#A98698"/>
<path d="M21.3792 12.2129C21.5565 12.287 21.7869 12.4166 22.0705 12.6111C22.4072 12.8427 22.6997 13.102 22.8858 13.3058C22.5756 13.7318 22.3718 14.3153 22.2478 14.7228C22.3098 14.8154 22.3807 14.9081 22.4427 15.0007C22.5047 14.7691 22.6111 14.4265 22.7528 14.0838C22.7883 14.093 22.8326 14.093 22.8769 14.093C22.9832 14.093 23.1073 14.0745 23.2048 13.9911C23.2757 13.9356 23.3555 13.8337 23.3466 13.6485C23.3466 13.4725 23.2137 13.2502 22.939 12.9816C22.744 12.7871 22.4782 12.5741 22.2123 12.3796C21.4502 11.8517 20.9184 11.7035 20.6792 11.9535C20.5197 12.1203 20.5374 12.324 20.5905 12.4722C20.307 12.6667 20.0677 12.8056 19.9082 12.8983C20.0145 12.9353 20.112 12.9816 20.2183 13.0279C20.5019 12.8705 20.9096 12.6019 21.3792 12.2129ZM23.0542 13.5373C23.0807 13.5836 23.0896 13.6299 23.0896 13.6577C23.0896 13.7411 23.063 13.7689 23.0453 13.7874C23.0099 13.8152 22.939 13.8337 22.8769 13.8337C22.9301 13.7226 22.9921 13.6299 23.0542 13.5373ZM20.8653 12.1573C20.8919 12.1295 20.9628 12.111 21.078 12.1295C20.9894 12.2036 20.9007 12.2685 20.8121 12.3333C20.8032 12.2685 20.8121 12.2036 20.8653 12.1573Z" fill="#5E12A0"/>
<path d="M18.0744 12.5557C15.1765 12.5557 12.8281 15.01 12.8281 18.0387C12.8281 21.0672 15.1765 23.5216 18.0744 23.5216C20.9722 23.5216 23.3206 21.0672 23.3206 18.0387C23.3206 15.01 20.9634 12.5557 18.0744 12.5557ZM18.0744 23.216C15.3361 23.216 13.1206 20.9006 13.1206 18.0387C13.1206 15.1768 15.3361 12.8613 18.0744 12.8613C20.8127 12.8613 23.0282 15.1768 23.0282 18.0387C23.0282 20.9006 20.8039 23.216 18.0744 23.216Z" fill="#5E12A0"/>
<path opacity="0.6" d="M18.0739 23.2158C20.8098 23.2158 23.0277 20.8978 23.0277 18.0384C23.0277 15.1791 20.8098 12.8611 18.0739 12.8611C15.338 12.8611 13.1201 15.1791 13.1201 18.0384C13.1201 20.8978 15.338 23.2158 18.0739 23.2158Z" fill="url(#paint2_linear_8744_20675)"/>
<path opacity="0.6" d="M18.0386 22.5861C15.3357 22.1322 13.5013 19.4741 13.9444 16.6492C14.1394 15.3989 14.742 14.3338 15.5927 13.5651C14.3521 14.3153 13.4304 15.6212 13.1823 17.2142C12.748 20.039 14.5825 22.6972 17.2765 23.151C18.783 23.4104 20.2363 22.9195 21.3087 21.9563C20.3604 22.5305 19.2084 22.7806 18.0386 22.5861Z" fill="#A98698"/>
<path opacity="0.6" d="M18.8629 12.9355C17.6133 12.7225 16.3992 13.0189 15.4067 13.6765C15.389 13.695 15.3712 13.7135 15.3712 13.7135C15.7523 13.4727 16.3106 13.2597 16.3106 13.2597C14.875 14.1303 14.4319 15.1213 14.4319 15.1213C14.9902 13.9914 16.6296 13.1949 17.9146 13.1393C19.1996 13.0837 20.0415 13.482 21.0694 14.3433C22.0974 15.2139 22.7178 16.9922 22.6557 18.4C22.6026 19.8078 21.8936 20.947 21.8936 20.947C22.381 20.2894 22.6734 19.8078 22.8596 19.3169C22.895 19.1687 22.9305 19.0206 22.9482 18.8631C23.3913 16.0475 21.5657 13.3894 18.8629 12.9355Z" fill="url(#paint3_linear_8744_20675)"/>
<path d="M22.7788 17.9919C22.7788 20.7056 20.6697 22.9099 18.0732 22.9099C15.4766 22.9099 13.3586 20.7056 13.3586 17.9919H22.7788Z" fill="url(#paint4_linear_8744_20675)"/>
<g opacity="0.6">
<path opacity="0.6" d="M22.4073 17.9923C22.4073 20.6412 20.4045 22.8084 17.8877 22.9103C17.9497 22.9103 18.0118 22.9103 18.0738 22.9103C20.6704 22.9103 22.7795 20.706 22.7795 17.9923H22.4073Z" fill="url(#paint5_linear_8744_20675)"/>
</g>
<g opacity="0.7">
<path opacity="0.7" d="M14.0252 17.9923H13.3606C13.3606 20.706 15.4697 22.9103 18.0663 22.9103C18.1815 22.9103 18.2878 22.9103 18.3942 22.901C15.9571 22.7158 14.0252 20.5856 14.0252 17.9923Z" fill="url(#paint6_linear_8744_20675)"/>
</g>
<path d="M22.77 18.0389C22.77 17.4739 21.8307 17.1497 20.5811 17.0386C19.6772 16.9645 18.7644 17.0571 17.7187 17.3905C16.8148 17.6684 15.9995 17.6221 15.4057 17.5479C14.0853 17.3905 13.3586 17.372 13.3586 18.0389C13.3586 19.0021 15.2374 20.2061 18.0555 19.7893C19.4822 19.5763 20.2178 19.141 21.0596 18.8446C21.9724 18.5297 22.77 18.539 22.77 18.0389Z" fill="url(#paint7_linear_8744_20675)"/>
<path d="M19.6167 15.7055C20.057 15.7055 20.414 15.3323 20.414 14.8719C20.414 14.4115 20.057 14.0383 19.6167 14.0383C19.1763 14.0383 18.8193 14.4115 18.8193 14.8719C18.8193 15.3323 19.1763 15.7055 19.6167 15.7055Z" fill="white"/>
<path d="M20.9184 16.3256C21.1044 16.3256 21.2551 16.168 21.2551 15.9737C21.2551 15.7793 21.1044 15.6217 20.9184 15.6217C20.7325 15.6217 20.5818 15.7793 20.5818 15.9737C20.5818 16.168 20.7325 16.3256 20.9184 16.3256Z" fill="white"/>
<g opacity="0.6">
<path opacity="0.6" d="M22.1223 14.2049C22.1134 14.2049 22.1046 14.2049 22.1046 14.2049C22.0514 14.1956 22.016 14.14 22.0248 14.0752C22.1046 13.6492 22.4412 13.2416 22.4589 13.2231C22.4943 13.1768 22.5652 13.1768 22.6007 13.2139C22.6449 13.2509 22.6449 13.325 22.6095 13.362C22.6007 13.3713 22.2906 13.751 22.2197 14.1215C22.2108 14.1771 22.1666 14.2049 22.1223 14.2049Z" fill="url(#paint8_linear_8744_20675)"/>
</g>
<path opacity="0.2" d="M17.7478 21.9008C17.8848 21.9008 17.9959 21.7848 17.9959 21.6415C17.9959 21.4983 17.8848 21.3822 17.7478 21.3822C17.6108 21.3822 17.4998 21.4983 17.4998 21.6415C17.4998 21.7848 17.6108 21.9008 17.7478 21.9008Z" fill="white"/>
<g opacity="0.4">
<path opacity="0.6" d="M17.6063 21.8106C17.5089 21.7087 17.5089 21.542 17.6063 21.4401C17.624 21.4216 17.6418 21.4123 17.6595 21.3938C17.624 21.4031 17.5975 21.4216 17.5709 21.4494C17.4734 21.5513 17.4734 21.718 17.5709 21.8198C17.6506 21.9032 17.7746 21.9217 17.8721 21.8662C17.7835 21.9032 17.6772 21.8847 17.6063 21.8106Z" fill="url(#paint9_linear_8744_20675)"/>
</g>
<path opacity="0.3" d="M17.8349 21.5667C17.8643 21.5667 17.8881 21.542 17.8881 21.5115C17.8881 21.481 17.8643 21.4563 17.8349 21.4563C17.8055 21.4563 17.7817 21.481 17.7817 21.5115C17.7817 21.542 17.8055 21.5667 17.8349 21.5667Z" fill="white"/>
<path opacity="0.2" d="M19.0417 21.7719C19.1788 21.7719 19.2898 21.6557 19.2898 21.5125C19.2898 21.3693 19.1788 21.2532 19.0417 21.2532C18.9047 21.2532 18.7937 21.3693 18.7937 21.5125C18.7937 21.6557 18.9047 21.7719 19.0417 21.7719Z" fill="white"/>
<g opacity="0.4">
<path opacity="0.6" d="M18.8978 21.6801C18.8003 21.5782 18.8003 21.4115 18.8978 21.3096C18.9155 21.2911 18.9333 21.2818 18.951 21.2633C18.9155 21.2725 18.8889 21.2911 18.8624 21.3189C18.765 21.4207 18.765 21.5874 18.8624 21.6893C18.9421 21.7727 19.0661 21.7912 19.1636 21.7356C19.075 21.7727 18.9687 21.7542 18.8978 21.6801Z" fill="url(#paint10_linear_8744_20675)"/>
</g>
<path opacity="0.3" d="M19.1291 21.4369C19.1584 21.4369 19.1822 21.4122 19.1822 21.3817C19.1822 21.3512 19.1584 21.3265 19.1291 21.3265C19.0997 21.3265 19.0759 21.3512 19.0759 21.3817C19.0759 21.4122 19.0997 21.4369 19.1291 21.4369Z" fill="white"/>
<path opacity="0.2" d="M18.4021 22.3735C18.5049 22.3735 18.5882 22.2864 18.5882 22.179C18.5882 22.0716 18.5049 21.9845 18.4021 21.9845C18.2994 21.9845 18.2161 22.0716 18.2161 22.179C18.2161 22.2864 18.2994 22.3735 18.4021 22.3735Z" fill="white"/>
<g opacity="0.4">
<path opacity="0.6" d="M18.2951 22.3008C18.2242 22.2267 18.2242 22.097 18.2951 22.0229C18.3039 22.0137 18.3216 22.0044 18.3305 21.9951C18.3039 22.0044 18.2862 22.0229 18.2685 22.0414C18.1976 22.1155 18.1976 22.2452 18.2685 22.3193C18.3305 22.3841 18.4191 22.3934 18.4988 22.3471C18.428 22.3749 18.3482 22.3563 18.2951 22.3008Z" fill="url(#paint11_linear_8744_20675)"/>
</g>
<path opacity="0.3" d="M18.4644 22.1133C18.4842 22.1133 18.5003 22.0968 18.5003 22.0765C18.5003 22.0562 18.4842 22.0397 18.4644 22.0397C18.4445 22.0397 18.4285 22.0562 18.4285 22.0765C18.4285 22.0968 18.4445 22.1133 18.4644 22.1133Z" fill="white"/>
<path opacity="0.2" d="M19.5446 22.2344C19.6474 22.2344 19.7307 22.1474 19.7307 22.04C19.7307 21.9325 19.6474 21.8455 19.5446 21.8455C19.442 21.8455 19.3586 21.9325 19.3586 22.04C19.3586 22.1474 19.442 22.2344 19.5446 22.2344Z" fill="white"/>
<g opacity="0.4">
<path opacity="0.6" d="M19.4401 22.1622C19.3693 22.0881 19.3693 21.9585 19.4401 21.8844C19.449 21.8751 19.4667 21.8659 19.4755 21.8566C19.449 21.8659 19.4312 21.8844 19.4135 21.9029C19.3426 21.977 19.3426 22.1066 19.4135 22.1808C19.4755 22.2456 19.5641 22.2548 19.6439 22.2086C19.573 22.2363 19.4932 22.2178 19.4401 22.1622Z" fill="url(#paint12_linear_8744_20675)"/>
</g>
<path opacity="0.3" d="M19.607 21.9748C19.6268 21.9748 19.6429 21.9583 19.6429 21.9379C19.6429 21.9176 19.6268 21.9011 19.607 21.9011C19.5872 21.9011 19.571 21.9176 19.571 21.9379C19.571 21.9583 19.5872 21.9748 19.607 21.9748Z" fill="white"/>
<path opacity="0.2" d="M16.6912 21.8086C16.9163 21.8086 17.0987 21.6179 17.0987 21.3826C17.0987 21.1473 16.9163 20.9565 16.6912 20.9565C16.4661 20.9565 16.2837 21.1473 16.2837 21.3826C16.2837 21.6179 16.4661 21.8086 16.6912 21.8086Z" fill="white"/>
<g opacity="0.4">
<path opacity="0.6" d="M16.4613 21.6506C16.3019 21.4839 16.3019 21.2153 16.4613 21.0486C16.4879 21.0209 16.5145 21.0023 16.5499 20.9838C16.4968 21.0023 16.4525 21.0393 16.4082 21.0764C16.2487 21.2431 16.2487 21.5117 16.4082 21.6784C16.5411 21.8174 16.7448 21.8452 16.9043 21.7432C16.7537 21.8081 16.5765 21.7803 16.4613 21.6506Z" fill="url(#paint13_linear_8744_20675)"/>
</g>
<path opacity="0.3" d="M16.8322 21.2525C16.8812 21.2525 16.9208 21.211 16.9208 21.1599C16.9208 21.1087 16.8812 21.0673 16.8322 21.0673C16.7833 21.0673 16.7437 21.1087 16.7437 21.1599C16.7437 21.211 16.7833 21.2525 16.8322 21.2525Z" fill="white"/>
<path opacity="0.2" d="M20.3348 20.7618C20.5599 20.7618 20.7423 20.571 20.7423 20.3357C20.7423 20.1004 20.5599 19.9097 20.3348 19.9097C20.1097 19.9097 19.9272 20.1004 19.9272 20.3357C19.9272 20.571 20.1097 20.7618 20.3348 20.7618Z" fill="white"/>
<g opacity="0.4">
<path opacity="0.6" d="M20.0944 20.6046C19.9349 20.4379 19.9349 20.1693 20.0944 20.0026C20.121 19.9748 20.1475 19.9563 20.183 19.9377C20.1298 19.9563 20.0855 19.9933 20.0413 20.0304C19.8818 20.1971 19.8818 20.4657 20.0413 20.6324C20.1741 20.7713 20.3779 20.7991 20.5374 20.6972C20.3868 20.7621 20.2184 20.7343 20.0944 20.6046Z" fill="url(#paint14_linear_8744_20675)"/>
</g>
<path opacity="0.3" d="M20.477 20.2064C20.526 20.2064 20.5656 20.1649 20.5656 20.1137C20.5656 20.0626 20.526 20.0211 20.477 20.0211C20.4281 20.0211 20.3884 20.0626 20.3884 20.1137C20.3884 20.1649 20.4281 20.2064 20.477 20.2064Z" fill="white"/>
<defs>
<radialGradient id="paint0_radial_8744_20675" cx="0" cy="0" r="1" gradientUnits="userSpaceOnUse" gradientTransform="translate(23.5572 12.7042) scale(3.96078 4.13951)">
<stop stop-color="#FFEAFF" stop-opacity="0.6"/>
<stop offset="0.6807" stop-color="#A087C9"/>
<stop offset="1" stop-color="#10002F"/>
</radialGradient>
<radialGradient id="paint1_radial_8744_20675" cx="0" cy="0" r="1" gradientUnits="userSpaceOnUse" gradientTransform="translate(22.5205 17.119) scale(11.0927 12.33)">
<stop stop-color="#FFEAFF" stop-opacity="0.6"/>
<stop offset="0.6807" stop-color="#A087C9"/>
<stop offset="1" stop-color="#10002F"/>
</radialGradient>
<linearGradient id="paint2_linear_8744_20675" x1="17.2793" y1="23.1424" x2="19.006" y2="12.95" gradientUnits="userSpaceOnUse">
<stop stop-color="#81FFFF"/>
<stop offset="0.6202" stop-color="white" stop-opacity="0"/>
</linearGradient>
<linearGradient id="paint3_linear_8744_20675" x1="21.5653" y1="14.5227" x2="17.3044" y2="18.2634" gradientUnits="userSpaceOnUse">
<stop offset="0.2888" stop-color="white"/>
<stop offset="0.7796" stop-color="white" stop-opacity="0"/>
</linearGradient>
<linearGradient id="paint4_linear_8744_20675" x1="13.3626" y1="20.448" x2="22.7766" y2="20.448" gradientUnits="userSpaceOnUse">
<stop stop-color="#0002E9"/>
<stop offset="0.9952" stop-color="#FF00C7"/>
</linearGradient>
<linearGradient id="paint5_linear_8744_20675" x1="23.2228" y1="18.4238" x2="17.8861" y2="23.2495" gradientUnits="userSpaceOnUse">
<stop offset="0.2888" stop-color="white"/>
<stop offset="0.7796" stop-color="white" stop-opacity="0"/>
</linearGradient>
<linearGradient id="paint6_linear_8744_20675" x1="13.3646" y1="20.4484" x2="18.401" y2="20.4484" gradientUnits="userSpaceOnUse">
<stop stop-color="#000292"/>
<stop offset="0.9952" stop-color="#7D00C7"/>
</linearGradient>
<linearGradient id="paint7_linear_8744_20675" x1="13.3689" y1="18.4474" x2="22.7703" y2="18.4474" gradientUnits="userSpaceOnUse">
<stop stop-color="#000292"/>
<stop offset="0.9952" stop-color="#BE00C7"/>
</linearGradient>
<linearGradient id="paint8_linear_8744_20675" x1="22.6151" y1="13.178" x2="21.8951" y2="14.297" gradientUnits="userSpaceOnUse">
<stop offset="0.2888" stop-color="white"/>
<stop offset="0.7796" stop-color="white" stop-opacity="0"/>
</linearGradient>
<linearGradient id="paint9_linear_8744_20675" x1="17.4976" y1="21.6518" x2="17.8724" y2="21.6518" gradientUnits="userSpaceOnUse">
<stop offset="0.2888" stop-color="white"/>
<stop offset="0.7796" stop-color="white" stop-opacity="0"/>
</linearGradient>
<linearGradient id="paint10_linear_8744_20675" x1="18.7882" y1="21.5195" x2="19.163" y2="21.5195" gradientUnits="userSpaceOnUse">
<stop offset="0.2888" stop-color="white"/>
<stop offset="0.7796" stop-color="white" stop-opacity="0"/>
</linearGradient>
<linearGradient id="paint11_linear_8744_20675" x1="18.2103" y1="22.1822" x2="18.4918" y2="22.1822" gradientUnits="userSpaceOnUse">
<stop offset="0.2888" stop-color="white"/>
<stop offset="0.7796" stop-color="white" stop-opacity="0"/>
</linearGradient>
<linearGradient id="paint12_linear_8744_20675" x1="19.3554" y1="22.0437" x2="19.6368" y2="22.0437" gradientUnits="userSpaceOnUse">
<stop offset="0.2888" stop-color="white"/>
<stop offset="0.7796" stop-color="white" stop-opacity="0"/>
</linearGradient>
<linearGradient id="paint13_linear_8744_20675" x1="16.2845" y1="21.3929" x2="16.8966" y2="21.3929" gradientUnits="userSpaceOnUse">
<stop offset="0.2888" stop-color="white"/>
<stop offset="0.7796" stop-color="white" stop-opacity="0"/>
</linearGradient>
<linearGradient id="paint14_linear_8744_20675" x1="19.921" y1="20.3466" x2="20.5331" y2="20.3466" gradientUnits="userSpaceOnUse">
<stop offset="0.2888" stop-color="white"/>
<stop offset="0.7796" stop-color="white" stop-opacity="0"/>
</linearGradient>
</defs>
</svg>
