<svg width="24" height="24" viewBox="0 0 24 24" fill="none" xmlns="http://www.w3.org/2000/svg">
<path d="M12 24C18.6274 24 24 18.6274 24 12C24 5.37258 18.6274 0 12 0C5.37258 0 0 5.37258 0 12C0 18.6274 5.37258 24 12 24Z" fill="black"/>
<path fill-rule="evenodd" clip-rule="evenodd" d="M12.5099 7.13741C12.5099 6.87573 12.3142 6.66357 12.0727 6.66357C12.0727 6.66357 12.0725 6.66357 12.0722 6.66357C11.831 6.66357 11.6353 6.87573 11.6353 7.13741C11.6353 9.0468 11.6353 16.1678 11.6353 18.0775C11.6353 18.3392 11.831 18.5513 12.0722 18.5513C12.0725 18.5513 12.0727 18.5513 12.0727 18.5513C12.3142 18.5513 12.5099 18.3392 12.5099 18.0775C12.5099 16.1678 12.5099 9.0468 12.5099 7.13741Z" fill="white"/>
<path fill-rule="evenodd" clip-rule="evenodd" d="M10.7438 16.1534C10.5024 16.1532 10.3065 16.3652 10.3063 16.6269C10.3063 16.6269 10.3063 16.6272 10.3063 16.6275C10.3061 16.8889 10.5017 17.1012 10.7431 17.1014C11.4145 17.102 12.6924 17.1032 13.3639 17.1038C13.6053 17.104 13.8012 16.892 13.8014 16.6306C13.8014 16.6303 13.8014 16.6301 13.8014 16.6301C13.8016 16.3683 13.6061 16.156 13.3646 16.1558C12.6932 16.1552 11.4153 16.1541 10.7438 16.1534Z" fill="white"/>
<path fill-rule="evenodd" clip-rule="evenodd" d="M8.58299 9.95574C8.34145 9.95552 8.14571 10.1675 8.14551 10.4292C8.14551 10.4292 8.14551 10.4295 8.14551 10.4297C8.14531 10.6912 8.34072 10.9035 8.58226 10.9037C9.95456 10.905 14.1667 10.9087 15.539 10.91C15.7803 10.9102 15.9763 10.6982 15.9765 10.4368C15.9765 10.4365 15.9765 10.4362 15.9765 10.4362C15.9767 10.1745 15.7811 9.96222 15.5397 9.962C14.1674 9.96077 9.95529 9.95697 8.58299 9.95574Z" fill="white"/>
<path fill-rule="evenodd" clip-rule="evenodd" d="M10.0244 7.56072C9.85347 7.37588 9.57668 7.37622 9.40612 7.56148C9.40612 7.56148 9.40593 7.56167 9.40575 7.56187C9.23537 7.74693 9.23566 8.04693 9.40657 8.23176C10.3479 9.24977 13.1702 12.302 14.1115 13.32C14.2824 13.5048 14.5592 13.5045 14.7296 13.3194C14.7298 13.3192 14.7299 13.3191 14.7299 13.3191C14.9005 13.1338 14.9002 12.8338 14.7293 12.649C13.788 11.631 10.9657 8.57873 10.0244 7.56072Z" fill="white"/>
<path fill-rule="evenodd" clip-rule="evenodd" d="M9.41225 12.6571C9.24182 12.8424 9.24232 13.1424 9.41336 13.3272C9.41336 13.3272 9.41355 13.3274 9.41373 13.3276C9.58459 13.5121 9.86139 13.5116 10.0318 13.3262C10.9705 12.3054 13.7848 9.2445 14.7235 8.22362C14.8939 8.03826 14.8934 7.73827 14.7225 7.55373C14.7224 7.55353 14.7222 7.55334 14.7222 7.55334C14.5511 7.3686 14.2743 7.36911 14.1039 7.55447C13.1652 8.57535 10.3509 11.6362 9.41225 12.6571Z" fill="white"/>
</svg>
