<svg width="24" height="24" viewBox="0 0 24 24" fill="none" xmlns="http://www.w3.org/2000/svg">
<path d="M12 24C18.6274 24 24 18.6274 24 12C24 5.37258 18.6274 0 12 0C5.37258 0 0 5.37258 0 12C0 18.6274 5.37258 24 12 24Z" fill="#7B2BF9"/>
<path d="M20.6256 10.1664C20.28 8.5104 19.4592 6.9936 18.2352 5.7696C16.5696 4.104 14.3568 3.1872 12 3.1872C9.6432 3.1872 7.4304 4.0992 5.7648 5.7648C5.3568 6.1728 5.0016 6.6096 4.6896 7.0704C4.5984 7.1952 4.512 7.3248 4.44 7.464C3.624 8.8224 3.1872 10.3728 3.1872 12C3.1872 14.3568 4.104 16.5696 5.7696 18.2352C7.4352 19.9008 9.648 20.8176 12.0048 20.8176C14.3616 20.8176 16.5744 19.9008 18.24 18.2352C19.0224 17.4528 19.6464 16.5408 20.0832 15.5568C20.136 15.4512 20.1792 15.336 20.2224 15.2208C20.6208 14.2128 20.8272 13.1232 20.8272 12.0048C20.8272 11.4144 20.7696 10.8528 20.6544 10.2864C20.6496 10.2576 20.6304 10.1856 20.6256 10.1664ZM17.568 6.1392C17.616 6.1872 17.6688 6.2352 17.7216 6.288C18.4992 7.0656 19.104 7.9776 19.5024 8.9664C19.5408 9.0624 19.4592 9.1728 19.3488 9.1536C19.1184 9.1104 18.8544 9.096 18.5664 9.1008C18.3648 9.1056 18.1872 8.9616 18.1536 8.7696C17.9952 7.8864 17.7648 7.0752 17.4768 6.3648C17.4624 6.3264 17.4432 6.288 17.4288 6.24C17.3904 6.1488 17.5008 6.0672 17.568 6.1392ZM18.408 11.3088C18.408 11.2176 18.5232 11.1744 18.5808 11.2512C18.6432 11.3424 18.7104 11.4384 18.7728 11.5296C18.8544 11.6544 18.9312 11.7792 18.9984 11.904C19.0416 11.9808 19.032 12.0768 18.9744 12.144C18.8832 12.2448 18.7776 12.3552 18.6672 12.4656C18.6288 12.504 18.5856 12.5472 18.5424 12.5904C18.4896 12.6384 18.3984 12.6 18.4032 12.5328C18.408 12.3984 18.4128 12.2688 18.4128 12.1296C18.4176 11.8464 18.4176 11.5776 18.408 11.3088ZM7.3056 5.4144C8.6688 4.44 10.2912 3.9168 12 3.9168C12.4512 3.9168 12.8976 3.9552 13.3344 4.0224C13.4496 4.0416 13.4928 4.1904 13.3968 4.2624C12.9744 4.5936 12.5856 5.0832 12.2352 5.7168C12.1536 5.8752 11.9712 5.9472 11.7984 5.8992C10.6464 5.5776 9.5136 5.424 8.4672 5.4576C8.0784 5.472 7.7184 5.5104 7.3728 5.5728C7.2768 5.5968 7.2288 5.472 7.3056 5.4144ZM6.1536 17.496C5.9808 17.1792 6.2016 16.4352 7.32 15.3024C7.4352 15.1872 7.4256 14.9952 7.296 14.8896C7.2528 14.856 7.2096 14.8224 7.1616 14.784C7.0512 14.6976 6.888 14.7024 6.7872 14.8032C6.7632 14.8272 6.7488 14.8416 6.744 14.8464C6.1872 15.4176 5.7936 15.9504 5.5776 16.4304C5.5152 16.5696 5.328 16.584 5.2464 16.4544C4.3776 15.1488 3.912 13.6128 3.912 12.0048C3.912 11.4336 3.9696 10.8624 4.0896 10.3152C4.1088 10.2336 4.224 10.2288 4.2528 10.3104C4.4208 10.8624 4.6944 11.4384 5.0688 12.0144C5.5776 12.792 6.2448 13.5408 7.0416 14.232C7.3104 14.4672 7.5984 14.6928 7.9008 14.9136C8.5104 15.36 9.1632 15.768 9.864 16.128C10.1712 16.2912 10.4784 16.44 10.7856 16.584C10.9584 16.6608 11.1552 16.6656 11.328 16.5984C11.4768 16.5408 11.6208 16.4832 11.7696 16.4208C11.9328 16.3536 12.0192 16.1808 11.976 16.008C11.9712 15.9888 11.9664 15.9696 11.9664 15.96C11.7216 14.9376 11.5872 13.7808 11.568 12.576C11.568 12.5616 11.568 12.288 11.568 12.0048C11.568 11.7216 11.5776 11.592 11.5872 11.3856C11.6592 9.9264 11.9088 8.5584 12.3024 7.4016C12.336 7.296 12.2832 7.1808 12.1728 7.1424C12.072 7.1088 11.9664 7.0752 11.8608 7.0416C11.76 7.008 11.6448 7.0656 11.6064 7.1712C11.1792 8.424 10.9152 9.9072 10.848 11.4768C10.8384 11.6784 10.7328 11.8608 10.56 11.9616C9.6288 12.5136 8.7792 13.0992 8.0352 13.6848C7.8816 13.8096 7.6608 13.8 7.512 13.6752C6.7728 13.032 6.1488 12.336 5.6784 11.6112C4.752 10.1904 4.5312 8.856 5.0592 7.8432L5.064 7.8384C5.1312 7.728 5.2032 7.6176 5.2752 7.512C5.88 6.7152 7.0032 6.2496 8.496 6.1968C8.5872 6.192 8.688 6.192 8.7792 6.192C9.696 6.192 10.6752 6.3456 11.6736 6.6336C11.6928 6.6384 11.8368 6.6816 11.8656 6.6912C12.12 6.7728 12.552 6.9216 12.6096 6.9408C12.6336 6.9504 12.768 7.0032 12.7872 7.008C13.2768 7.2 13.7616 7.416 14.2416 7.6656C15.1728 8.1504 16.0224 8.7168 16.7712 9.3408C15.3552 9.6624 13.7088 10.2912 12.0528 11.1312C11.976 11.1696 11.9232 11.2464 11.9184 11.3328C11.9136 11.4336 11.904 11.64 11.8992 11.808C11.8944 11.9088 12.0048 11.9808 12.096 11.9328C13.7376 11.0688 15.3744 10.4304 16.7808 10.0848C17.0448 10.0224 17.2128 9.7728 17.1792 9.504C17.1552 9.3168 17.1264 9.1296 17.0928 8.952C17.0544 8.7264 16.9248 8.52 16.7472 8.3856C16.0896 7.8864 15.3648 7.4256 14.5872 7.0176C14.064 6.744 13.536 6.5088 12.9984 6.3024C12.888 6.2592 12.8352 6.1248 12.8976 6.0192C13.4448 5.04 14.0976 4.4928 14.736 4.4928C14.7408 4.4928 14.7504 4.4928 14.7552 4.4928C15.504 4.5072 16.248 5.2848 16.8048 6.6336C17.0832 7.3152 17.2992 8.1024 17.4528 8.9568C17.496 9.1968 17.5296 9.4416 17.5584 9.6912C17.5728 9.8208 17.5968 10.0176 17.6112 10.104C17.6736 10.752 17.6976 11.4288 17.688 12.1152C17.6784 12.552 17.6592 12.984 17.6208 13.4016C16.6176 14.208 15.3792 15.0192 14.016 15.7392C13.6464 15.9312 13.2768 16.1184 12.912 16.2912C12.8352 16.3296 12.5184 16.4688 12.4992 16.4784C12.1536 16.6368 11.8128 16.776 11.472 16.9104C11.4528 16.92 11.0688 17.064 11.0448 17.0736C11.016 17.0832 10.8192 17.1552 10.7952 17.1648C10.0608 17.424 9.3552 17.6208 8.712 17.7456C7.0848 18.0576 6.3216 17.8176 6.1536 17.496ZM8.3664 14.3568C9.0768 13.7808 9.912 13.1952 10.8288 12.648C10.848 13.8192 10.9776 14.9472 11.208 15.96C10.872 15.8112 10.5312 15.6576 10.1952 15.48C9.5424 15.144 8.928 14.7648 8.3664 14.3568ZM13.0416 20.0208C12.7008 20.064 12.3504 20.088 12 20.088C10.4256 20.088 8.9232 19.6416 7.6368 18.8112C7.5504 18.7536 7.5888 18.6144 7.6896 18.6096C7.7088 18.6096 7.7328 18.6096 7.7472 18.6048C8.0736 18.5856 8.4336 18.5376 8.8224 18.4608C9.648 18.2976 10.5696 18.0288 11.5344 17.6592C11.6208 17.6256 11.7168 17.6688 11.7552 17.7552C12.1296 18.6672 12.5856 19.3536 13.1088 19.7904C13.2 19.8672 13.1568 20.0064 13.0416 20.0208ZM16.464 17.8608C15.888 18.9984 15.1776 19.632 14.4864 19.6176C13.7376 19.6032 12.9936 18.8256 12.4368 17.4768C12.4032 17.3952 12.4416 17.2944 12.5232 17.256C12.528 17.2512 12.5328 17.2512 12.5424 17.2464C12.576 17.232 12.6192 17.2272 12.6576 17.2368C13.6896 17.5248 14.712 17.6784 15.6672 17.6784C15.768 17.6784 15.8736 17.6784 15.9744 17.6736C16.0896 17.6688 16.2096 17.664 16.3248 17.6544C16.4352 17.6544 16.512 17.7648 16.464 17.8608ZM16.7136 16.8816C16.4736 16.9152 16.2192 16.9392 15.9552 16.9488C15.3072 16.9728 14.6208 16.9152 13.92 16.7856C13.8336 16.7712 13.8192 16.6512 13.896 16.6128C14.0496 16.536 14.2032 16.4544 14.3568 16.3728C15.432 15.8016 16.44 15.1776 17.3184 14.5392C17.3808 14.4912 17.4768 14.5488 17.4624 14.6256C17.3376 15.36 17.1744 16.0512 16.9584 16.6752C16.9152 16.7904 16.824 16.8672 16.7136 16.8816ZM17.9088 17.5248C17.8512 17.5872 17.784 17.6544 17.7216 17.7168C17.616 17.8224 17.496 17.9328 17.3856 18.0336C17.3136 18.096 17.2032 18.0192 17.2416 17.9328C17.2512 17.9088 17.2656 17.8848 17.2752 17.856C17.3232 17.7504 17.3664 17.64 17.4192 17.5296C17.4288 17.5056 17.4528 17.4864 17.4768 17.4768C17.5872 17.448 17.7024 17.4144 17.808 17.3808C17.904 17.352 17.9712 17.4624 17.9088 17.5248ZM19.5312 14.9616C19.4976 15.0432 19.4688 15.1248 19.4304 15.2064C19.4208 15.2208 19.3728 15.3216 19.368 15.336C19.0992 15.8304 18.6576 16.2192 18.0816 16.4928C17.9472 16.5552 17.8032 16.4352 17.8416 16.2912C18.0432 15.5808 18.1872 14.8128 18.288 14.0016C18.3072 13.848 18.3792 13.7136 18.4944 13.6128C18.7392 13.4016 18.9696 13.1856 19.1808 12.9744C19.2816 12.8736 19.4592 12.9168 19.5024 13.056C19.7088 13.752 19.7232 14.4 19.5312 14.9616ZM19.6944 11.1744C19.6368 11.28 19.4784 11.2848 19.4112 11.184C19.4016 11.1696 19.392 11.1504 19.3824 11.136C19.1424 10.7616 18.864 10.4016 18.5568 10.0464C18.48 9.96 18.5424 9.8256 18.6576 9.8208H18.6624C19.3872 9.8208 19.7664 10.0032 19.8816 10.2192C19.9728 10.4016 19.944 10.7232 19.6944 11.1744ZM20.088 12.24C20.088 12.2928 20.0112 12.3072 19.992 12.2592C19.9824 12.24 19.9728 12.216 19.9632 12.1968C19.944 12.1584 19.9488 12.1104 19.9776 12.072C19.9824 12.0672 19.992 12.0528 20.0064 12.0336C20.04 11.9904 20.0928 11.9952 20.0928 12.0432C20.088 12.1104 20.088 12.1728 20.088 12.24Z" fill="white"/>
<path d="M23.3672 13.6918C23.2414 13.201 22.8373 12.7101 22.1099 12.1636C21.5261 11.7283 20.9065 11.4783 20.4125 11.4783C20.3137 11.4783 20.2239 11.4875 20.1341 11.5061C19.9096 11.5524 19.712 11.7191 19.5863 11.9691C19.4336 12.2655 19.3977 12.6638 19.4965 12.9046C19.5324 12.9787 19.5773 13.0713 19.6312 13.1547C19.1552 13.451 18.8858 13.5344 18.8499 13.5436C20.0892 13.9697 21.122 14.8588 21.7686 16.0166L21.7776 15.9054C21.8045 15.5998 21.8944 15.2478 22.0201 14.8866C22.1458 14.9237 22.2715 14.9422 22.3973 14.9422C22.7296 14.9422 23.0169 14.8033 23.1966 14.5532C23.3762 14.3031 23.448 13.9697 23.3672 13.6918Z" fill="#5E12A0"/>
<path d="M22.0739 14.618C22.8911 14.8496 23.2234 14.2012 23.1156 13.7659C22.9988 13.3306 22.6217 12.8861 21.9571 12.3859C21.2925 11.8858 20.619 11.682 20.1879 11.7746C19.7568 11.8673 19.6311 12.5434 19.7389 12.8027C19.7838 12.9046 19.8825 13.0528 20.0173 13.2195C19.8467 13.3399 19.685 13.4325 19.5503 13.5159C20.3765 13.8956 21.095 14.4883 21.6338 15.2293C21.6966 14.9792 21.7865 14.7569 21.8673 14.5624C21.9301 14.5717 22.002 14.5902 22.0739 14.618Z" fill="url(#paint0_radial_8746_3928)"/>
<path d="M17.3947 23.6942C20.1673 23.6942 22.4149 21.3762 22.4149 18.5168C22.4149 15.6575 20.1673 13.3395 17.3947 13.3395C14.6221 13.3395 12.3745 15.6575 12.3745 18.5168C12.3745 21.3762 14.6221 23.6942 17.3947 23.6942Z" fill="url(#paint1_radial_8746_3928)"/>
<path opacity="0.6" d="M22.7031 13.3396C22.0206 12.5987 21.4458 12.4042 20.7543 12.2467C20.2155 12.117 20.3592 11.8021 21.0148 11.867C20.7005 11.7558 20.4041 11.7281 20.1885 11.7744C19.7574 11.867 19.6317 12.5431 19.7395 12.8024C19.7844 12.9043 19.8832 13.0525 20.0179 13.2192C19.7754 13.3859 19.5689 13.5063 19.3982 13.5989C19.4791 13.636 19.5778 13.6823 19.6946 13.7471C19.9999 13.9138 20.3322 14.1917 20.3322 14.1917C19.8293 13.7471 19.937 13.5434 20.6286 13.0432C20.8441 12.8858 21.2392 12.9043 21.6075 13.0988C21.9757 13.2933 22.4068 13.7842 22.4068 13.7842L21.9937 14.5992C22.0206 14.6085 22.0475 14.6177 22.0745 14.627C22.3349 14.7011 22.5414 14.6826 22.7031 14.6177C22.8917 14.4973 23.3857 14.0898 22.7031 13.3396Z" fill="#A98698"/>
<path d="M20.7444 12.6913C20.924 12.7654 21.1575 12.895 21.445 13.0895C21.7862 13.3211 22.0826 13.5804 22.2712 13.7842C21.9568 14.2102 21.7503 14.7937 21.6246 15.2012C21.6874 15.2938 21.7593 15.3865 21.8221 15.4791C21.885 15.2475 21.9927 14.9048 22.1364 14.5622C22.1724 14.5714 22.2173 14.5714 22.2622 14.5714C22.3699 14.5714 22.4957 14.5529 22.5945 14.4695C22.6663 14.414 22.7472 14.3121 22.7382 14.1269C22.7382 13.9509 22.6035 13.7286 22.325 13.46C22.1275 13.2655 21.8581 13.0525 21.5886 12.858C20.8163 12.3301 20.2774 12.1819 20.0349 12.4319C19.8733 12.5987 19.8913 12.8024 19.9451 12.9506C19.6578 13.1451 19.4153 13.284 19.2537 13.3766C19.3614 13.4137 19.4602 13.46 19.568 13.5063C19.8553 13.3489 20.2684 13.0803 20.7444 12.6913ZM22.4418 14.0157C22.4687 14.062 22.4777 14.1083 22.4777 14.1361C22.4777 14.2195 22.4508 14.2473 22.4328 14.2658C22.3969 14.2936 22.325 14.3121 22.2622 14.3121C22.316 14.2009 22.3789 14.1083 22.4418 14.0157ZM20.2236 12.6357C20.2505 12.6079 20.3224 12.5894 20.4391 12.6079C20.3493 12.682 20.2595 12.7468 20.1697 12.8117C20.1607 12.7468 20.1697 12.682 20.2236 12.6357Z" fill="#5E12A0"/>
<path d="M17.395 13.0341C14.4583 13.0341 12.0784 15.4884 12.0784 18.5171C12.0784 21.5456 14.4583 24 17.395 24C20.3317 24 22.7115 21.5456 22.7115 18.5171C22.7115 15.4884 20.3227 13.0341 17.395 13.0341ZM17.395 23.6944C14.6199 23.6944 12.3747 21.379 12.3747 18.5171C12.3747 15.6551 14.6199 13.3397 17.395 13.3397C20.17 13.3397 22.4152 15.6551 22.4152 18.5171C22.4152 21.379 20.161 23.6944 17.395 23.6944Z" fill="#5E12A0"/>
<path opacity="0.6" d="M17.3947 23.6942C20.1673 23.6942 22.4149 21.3762 22.4149 18.5168C22.4149 15.6575 20.1673 13.3395 17.3947 13.3395C14.6221 13.3395 12.3745 15.6575 12.3745 18.5168C12.3745 21.3762 14.6221 23.6942 17.3947 23.6942Z" fill="url(#paint2_linear_8746_3928)"/>
<path opacity="0.6" d="M17.359 23.0644C14.6198 22.6106 12.7608 19.9525 13.2099 17.1276C13.4074 15.8773 14.0181 14.8122 14.8803 14.0435C13.623 14.7937 12.689 16.0996 12.4375 17.6926C11.9975 20.5174 13.8565 23.1756 16.5866 23.6294C18.1133 23.8887 19.5862 23.3979 20.6729 22.4347C19.7119 23.0089 18.5444 23.259 17.359 23.0644Z" fill="#A98698"/>
<path opacity="0.6" d="M18.1942 13.4141C16.9279 13.201 15.6976 13.4974 14.6917 14.155C14.6738 14.1735 14.6558 14.192 14.6558 14.192C15.042 13.9512 15.6078 13.7382 15.6078 13.7382C14.1529 14.6088 13.7039 15.5998 13.7039 15.5998C14.2696 14.4699 15.9311 13.6734 17.2333 13.6178C18.5355 13.5622 19.3886 13.9605 20.4304 14.8218C21.4722 15.6925 22.1008 17.4707 22.038 18.8785C21.9841 20.2863 21.2656 21.4255 21.2656 21.4255C21.7595 20.7679 22.0559 20.2863 22.2445 19.7954C22.2804 19.6472 22.3164 19.4991 22.3343 19.3416C22.7834 16.526 20.9333 13.8679 18.1942 13.4141Z" fill="url(#paint3_linear_8746_3928)"/>
<path d="M22.1629 18.4703C22.1629 21.184 20.0255 23.3883 17.3942 23.3883C14.7628 23.3883 12.6165 21.184 12.6165 18.4703H22.1629Z" fill="url(#paint4_linear_8746_3928)"/>
<g opacity="0.6">
<path opacity="0.6" d="M21.7862 18.4708C21.7862 21.1197 19.7566 23.2869 17.2061 23.3888C17.2689 23.3888 17.3318 23.3888 17.3947 23.3888C20.026 23.3888 22.1634 21.1845 22.1634 18.4708H21.7862Z" fill="url(#paint5_linear_8746_3928)"/>
</g>
<g opacity="0.7">
<path opacity="0.7" d="M13.2917 18.4708H12.6182C12.6182 21.1845 14.7556 23.3888 17.3869 23.3888C17.5037 23.3888 17.6114 23.3888 17.7192 23.3795C15.2495 23.1943 13.2917 21.0641 13.2917 18.4708Z" fill="url(#paint6_linear_8746_3928)"/>
</g>
<path d="M22.154 18.5173C22.154 17.9523 21.202 17.6281 19.9357 17.517C19.0197 17.4429 18.0947 17.5355 17.035 17.8689C16.1189 18.1468 15.2927 18.1005 14.691 18.0263C13.3529 17.8689 12.6165 17.8504 12.6165 18.5173C12.6165 19.4805 14.5204 20.6845 17.3762 20.2677C18.8221 20.0547 19.5675 19.6194 20.4207 19.323C21.3457 19.0081 22.154 19.0174 22.154 18.5173Z" fill="url(#paint7_linear_8746_3928)"/>
<path d="M18.9582 16.1838C19.4044 16.1838 19.7662 15.8106 19.7662 15.3503C19.7662 14.8899 19.4044 14.5167 18.9582 14.5167C18.5119 14.5167 18.1501 14.8899 18.1501 15.3503C18.1501 15.8106 18.5119 16.1838 18.9582 16.1838Z" fill="white"/>
<path d="M20.2772 16.804C20.4656 16.804 20.6184 16.6464 20.6184 16.452C20.6184 16.2577 20.4656 16.1001 20.2772 16.1001C20.0888 16.1001 19.936 16.2577 19.936 16.452C19.936 16.6464 20.0888 16.804 20.2772 16.804Z" fill="white"/>
<g opacity="0.6">
<path opacity="0.6" d="M21.4976 14.6831C21.4886 14.6831 21.4797 14.6831 21.4797 14.6831C21.4258 14.6739 21.3899 14.6183 21.3988 14.5535C21.4797 14.1274 21.8208 13.7199 21.8388 13.7014C21.8747 13.6551 21.9465 13.6551 21.9824 13.6921C22.0273 13.7292 22.0273 13.8033 21.9914 13.8403C21.9824 13.8496 21.6682 14.2293 21.5964 14.5998C21.5874 14.6554 21.5425 14.6831 21.4976 14.6831Z" fill="url(#paint8_linear_8746_3928)"/>
</g>
<path opacity="0.2" d="M17.0641 22.3792C17.203 22.3792 17.3155 22.2631 17.3155 22.1199C17.3155 21.9767 17.203 21.8606 17.0641 21.8606C16.9253 21.8606 16.8127 21.9767 16.8127 22.1199C16.8127 22.2631 16.9253 22.3792 17.0641 22.3792Z" fill="white"/>
<g opacity="0.4">
<path opacity="0.6" d="M16.9208 22.2889C16.822 22.187 16.822 22.0203 16.9208 21.9184C16.9387 21.8999 16.9567 21.8906 16.9746 21.8721C16.9387 21.8814 16.9118 21.8999 16.8849 21.9276C16.7861 22.0295 16.7861 22.1963 16.8849 22.2981C16.9657 22.3815 17.0913 22.4 17.1901 22.3444C17.1003 22.3815 16.9926 22.363 16.9208 22.2889Z" fill="url(#paint9_linear_8746_3928)"/>
</g>
<path opacity="0.3" d="M17.1525 22.0451C17.1823 22.0451 17.2064 22.0204 17.2064 21.9899C17.2064 21.9594 17.1823 21.9347 17.1525 21.9347C17.1228 21.9347 17.0986 21.9594 17.0986 21.9899C17.0986 22.0204 17.1228 22.0451 17.1525 22.0451Z" fill="white"/>
<path opacity="0.2" d="M18.3754 22.2501C18.5143 22.2501 18.6268 22.134 18.6268 21.9908C18.6268 21.8475 18.5143 21.7314 18.3754 21.7314C18.2366 21.7314 18.124 21.8475 18.124 21.9908C18.124 22.134 18.2366 22.2501 18.3754 22.2501Z" fill="white"/>
<g opacity="0.4">
<path opacity="0.6" d="M18.2298 22.1584C18.1311 22.0565 18.1311 21.8898 18.2298 21.7878C18.2478 21.7694 18.2658 21.7601 18.2837 21.7416C18.2478 21.7508 18.2208 21.7694 18.1939 21.7972C18.0952 21.899 18.0952 22.0657 18.1939 22.1676C18.2748 22.251 18.4004 22.2695 18.4992 22.2139C18.4094 22.251 18.3017 22.2324 18.2298 22.1584Z" fill="url(#paint10_linear_8746_3928)"/>
</g>
<path opacity="0.3" d="M18.464 21.9152C18.4938 21.9152 18.5179 21.8905 18.5179 21.86C18.5179 21.8295 18.4938 21.8048 18.464 21.8048C18.4343 21.8048 18.4102 21.8295 18.4102 21.86C18.4102 21.8905 18.4343 21.9152 18.464 21.9152Z" fill="white"/>
<path opacity="0.2" d="M17.7276 22.8517C17.8317 22.8517 17.9162 22.7647 17.9162 22.6573C17.9162 22.5498 17.8317 22.4628 17.7276 22.4628C17.6235 22.4628 17.5391 22.5498 17.5391 22.6573C17.5391 22.7647 17.6235 22.8517 17.7276 22.8517Z" fill="white"/>
<g opacity="0.4">
<path opacity="0.6" d="M17.6189 22.7792C17.5471 22.705 17.5471 22.5754 17.6189 22.5013C17.6279 22.4921 17.6458 22.4828 17.6548 22.4735C17.6279 22.4828 17.6099 22.5013 17.592 22.5198C17.5201 22.5939 17.5201 22.7236 17.592 22.7977C17.6548 22.8625 17.7446 22.8718 17.8254 22.8255C17.7536 22.8533 17.6728 22.8347 17.6189 22.7792Z" fill="url(#paint11_linear_8746_3928)"/>
</g>
<path opacity="0.3" d="M17.7898 22.5917C17.8097 22.5917 17.8257 22.5752 17.8257 22.5549C17.8257 22.5346 17.8097 22.5181 17.7898 22.5181C17.77 22.5181 17.7539 22.5346 17.7539 22.5549C17.7539 22.5752 17.77 22.5917 17.7898 22.5917Z" fill="white"/>
<path opacity="0.2" d="M18.885 22.7127C18.9892 22.7127 19.0736 22.6256 19.0736 22.5182C19.0736 22.4108 18.9892 22.3237 18.885 22.3237C18.781 22.3237 18.6965 22.4108 18.6965 22.5182C18.6965 22.6256 18.781 22.7127 18.885 22.7127Z" fill="white"/>
<g opacity="0.4">
<path opacity="0.6" d="M18.7793 22.6406C18.7075 22.5665 18.7075 22.4369 18.7793 22.3627C18.7883 22.3535 18.8062 22.3443 18.8152 22.335C18.7883 22.3443 18.7703 22.3627 18.7524 22.3813C18.6805 22.4553 18.6805 22.585 18.7524 22.6592C18.8152 22.724 18.905 22.7332 18.9858 22.6869C18.914 22.7147 18.8332 22.6962 18.7793 22.6406Z" fill="url(#paint12_linear_8746_3928)"/>
</g>
<path opacity="0.3" d="M18.9478 22.4532C18.9677 22.4532 18.9837 22.4367 18.9837 22.4163C18.9837 22.396 18.9677 22.3795 18.9478 22.3795C18.928 22.3795 18.9119 22.396 18.9119 22.4163C18.9119 22.4367 18.928 22.4532 18.9478 22.4532Z" fill="white"/>
<path opacity="0.2" d="M15.9936 22.287C16.2216 22.287 16.4065 22.0963 16.4065 21.861C16.4065 21.6257 16.2216 21.4349 15.9936 21.4349C15.7655 21.4349 15.5806 21.6257 15.5806 21.861C15.5806 22.0963 15.7655 22.287 15.9936 22.287Z" fill="white"/>
<g opacity="0.4">
<path opacity="0.6" d="M15.7608 22.129C15.5992 21.9623 15.5992 21.6937 15.7608 21.527C15.7877 21.4992 15.8146 21.4807 15.8505 21.4622C15.7967 21.4807 15.7518 21.5177 15.7069 21.5548C15.5453 21.7215 15.5453 21.9901 15.7069 22.1568C15.8416 22.2958 16.0481 22.3235 16.2097 22.2216C16.057 22.2865 15.8775 22.2587 15.7608 22.129Z" fill="url(#paint13_linear_8746_3928)"/>
</g>
<path opacity="0.3" d="M16.1364 21.7309C16.186 21.7309 16.2262 21.6894 16.2262 21.6383C16.2262 21.5871 16.186 21.5457 16.1364 21.5457C16.0868 21.5457 16.0466 21.5871 16.0466 21.6383C16.0466 21.6894 16.0868 21.7309 16.1364 21.7309Z" fill="white"/>
<path opacity="0.2" d="M19.6859 21.2401C19.9141 21.2401 20.0989 21.0494 20.0989 20.8141C20.0989 20.5788 19.9141 20.3881 19.6859 20.3881C19.4579 20.3881 19.2729 20.5788 19.2729 20.8141C19.2729 21.0494 19.4579 21.2401 19.6859 21.2401Z" fill="white"/>
<g opacity="0.4">
<path opacity="0.6" d="M19.4422 21.083C19.2805 20.9163 19.2805 20.6477 19.4422 20.481C19.4691 20.4532 19.496 20.4347 19.532 20.4161C19.478 20.4347 19.4332 20.4717 19.3883 20.5088C19.2267 20.6755 19.2267 20.9441 19.3883 21.1108C19.523 21.2497 19.7294 21.2775 19.8911 21.1756C19.7384 21.2405 19.5678 21.2127 19.4422 21.083Z" fill="url(#paint14_linear_8746_3928)"/>
</g>
<path opacity="0.3" d="M19.83 20.6847C19.8796 20.6847 19.9198 20.6432 19.9198 20.592C19.9198 20.5408 19.8796 20.4994 19.83 20.4994C19.7805 20.4994 19.7402 20.5408 19.7402 20.592C19.7402 20.6432 19.7805 20.6847 19.83 20.6847Z" fill="white"/>
<defs>
<radialGradient id="paint0_radial_8746_3928" cx="0" cy="0" r="1" gradientUnits="userSpaceOnUse" gradientTransform="translate(22.9518 13.1824) scale(4.01388 4.13951)">
<stop stop-color="#FFEAFF" stop-opacity="0.6"/>
<stop offset="0.6807" stop-color="#A087C9"/>
<stop offset="1" stop-color="#10002F"/>
</radialGradient>
<radialGradient id="paint1_radial_8746_3928" cx="0" cy="0" r="1" gradientUnits="userSpaceOnUse" gradientTransform="translate(21.901 17.5974) scale(11.2414 12.33)">
<stop stop-color="#FFEAFF" stop-opacity="0.6"/>
<stop offset="0.6807" stop-color="#A087C9"/>
<stop offset="1" stop-color="#10002F"/>
</radialGradient>
<linearGradient id="paint2_linear_8746_3928" x1="16.5894" y1="23.6208" x2="18.2945" y2="13.4209" gradientUnits="userSpaceOnUse">
<stop stop-color="#81FFFF"/>
<stop offset="0.6202" stop-color="white" stop-opacity="0"/>
</linearGradient>
<linearGradient id="paint3_linear_8746_3928" x1="20.9329" y1="15.0012" x2="16.665" y2="18.7983" gradientUnits="userSpaceOnUse">
<stop offset="0.2888" stop-color="white"/>
<stop offset="0.7796" stop-color="white" stop-opacity="0"/>
</linearGradient>
<linearGradient id="paint4_linear_8746_3928" x1="12.6205" y1="20.9264" x2="22.1606" y2="20.9264" gradientUnits="userSpaceOnUse">
<stop stop-color="#0002E9"/>
<stop offset="0.9952" stop-color="#FF00C7"/>
</linearGradient>
<linearGradient id="paint5_linear_8746_3928" x1="22.6127" y1="18.9024" x2="17.2694" y2="23.7989" gradientUnits="userSpaceOnUse">
<stop offset="0.2888" stop-color="white"/>
<stop offset="0.7796" stop-color="white" stop-opacity="0"/>
</linearGradient>
<linearGradient id="paint6_linear_8746_3928" x1="12.6222" y1="20.9269" x2="17.7261" y2="20.9269" gradientUnits="userSpaceOnUse">
<stop stop-color="#000292"/>
<stop offset="0.9952" stop-color="#7D00C7"/>
</linearGradient>
<linearGradient id="paint7_linear_8746_3928" x1="12.6269" y1="18.9258" x2="22.1542" y2="18.9258" gradientUnits="userSpaceOnUse">
<stop stop-color="#000292"/>
<stop offset="0.9952" stop-color="#BE00C7"/>
</linearGradient>
<linearGradient id="paint8_linear_8746_3928" x1="21.997" y1="13.6563" x2="21.2811" y2="14.7839" gradientUnits="userSpaceOnUse">
<stop offset="0.2888" stop-color="white"/>
<stop offset="0.7796" stop-color="white" stop-opacity="0"/>
</linearGradient>
<linearGradient id="paint9_linear_8746_3928" x1="16.8105" y1="22.1301" x2="17.1904" y2="22.1301" gradientUnits="userSpaceOnUse">
<stop offset="0.2888" stop-color="white"/>
<stop offset="0.7796" stop-color="white" stop-opacity="0"/>
</linearGradient>
<linearGradient id="paint10_linear_8746_3928" x1="18.1187" y1="21.9978" x2="18.4985" y2="21.9978" gradientUnits="userSpaceOnUse">
<stop offset="0.2888" stop-color="white"/>
<stop offset="0.7796" stop-color="white" stop-opacity="0"/>
</linearGradient>
<linearGradient id="paint11_linear_8746_3928" x1="17.533" y1="22.6606" x2="17.8182" y2="22.6606" gradientUnits="userSpaceOnUse">
<stop offset="0.2888" stop-color="white"/>
<stop offset="0.7796" stop-color="white" stop-opacity="0"/>
</linearGradient>
<linearGradient id="paint12_linear_8746_3928" x1="18.6935" y1="22.5221" x2="18.9786" y2="22.5221" gradientUnits="userSpaceOnUse">
<stop offset="0.2888" stop-color="white"/>
<stop offset="0.7796" stop-color="white" stop-opacity="0"/>
</linearGradient>
<linearGradient id="paint13_linear_8746_3928" x1="15.5816" y1="21.8713" x2="16.2019" y2="21.8713" gradientUnits="userSpaceOnUse">
<stop offset="0.2888" stop-color="white"/>
<stop offset="0.7796" stop-color="white" stop-opacity="0"/>
</linearGradient>
<linearGradient id="paint14_linear_8746_3928" x1="19.2664" y1="20.8249" x2="19.8867" y2="20.8249" gradientUnits="userSpaceOnUse">
<stop offset="0.2888" stop-color="white"/>
<stop offset="0.7796" stop-color="white" stop-opacity="0"/>
</linearGradient>
</defs>
</svg>
