<svg width="24" height="24" viewBox="0 0 24 24" fill="none" xmlns="http://www.w3.org/2000/svg">
<path d="M12 24C18.6274 24 24 18.6274 24 12C24 5.37258 18.6274 0 12 0C5.37258 0 0 5.37258 0 12C0 18.6274 5.37258 24 12 24Z" fill="#ED4E33"/>
<path d="M9.89644 6.42548C6.6228 7.68422 6.32292 10.9078 5.38424 12.4133C4.43443 13.9367 2.25847 14.7772 2.55603 15.5536C2.85357 16.3299 5.03213 15.496 6.75568 15.9914C8.45881 16.4808 10.8351 18.6757 14.1088 17.4169C15.7764 16.7757 16.984 15.4559 17.5393 13.8927C17.5991 13.7249 17.4874 13.5454 17.3102 13.5288C17.2001 13.5185 17.0944 13.5762 17.0448 13.6751C16.5425 14.6773 15.6808 15.5025 14.5532 15.936C12.6916 16.6518 10.6547 16.0898 9.4037 14.6804C9.11958 14.3603 8.87657 13.996 8.68475 13.5933C8.63201 13.4825 8.58186 13.3699 8.5374 13.2533C8.49267 13.1368 8.45467 13.0195 8.41977 12.9017C9.4037 12.4423 10.5391 11.9558 11.8263 11.4609C13.0884 10.9756 14.237 10.5821 15.2597 10.2672C15.9515 10.0543 16.5856 9.87721 17.1582 9.73246C17.1996 9.7221 17.2405 9.71175 17.281 9.70164C17.3676 9.68016 17.4566 9.7265 17.4886 9.80989L17.4892 9.81143C17.5081 9.86089 17.5243 9.91061 17.5418 9.96033C17.6551 10.2812 17.74 10.6054 17.796 10.9303C17.8206 11.0725 17.9757 11.1499 18.1029 11.0816C18.5729 10.8288 19.0028 10.5823 19.3869 10.3451C20.8184 9.46213 21.612 8.71326 21.4491 8.28885C21.2866 7.86418 20.1966 7.83984 18.5429 8.1428C18.0174 8.23913 17.4346 8.3686 16.8067 8.52889C16.6981 8.5566 16.5883 8.58534 16.4771 8.61486C15.9486 8.75521 15.3913 8.916 14.8109 9.09598C13.7316 9.43079 12.5737 9.8319 11.3783 10.2915C10.2599 10.7216 9.19998 11.1675 8.22794 11.6119C8.21606 9.726 9.35432 7.94315 11.2159 7.22743C12.3433 6.79396 13.5351 6.82944 14.578 7.2378C14.6809 7.27819 14.798 7.25022 14.8732 7.16866C14.9937 7.03788 14.9567 6.82969 14.8003 6.74476C13.3433 5.95576 11.5641 5.78435 9.89644 6.42548Z" fill="white"/>
<path d="M23.3672 13.6918C23.2414 13.201 22.8373 12.7101 22.1099 12.1636C21.5261 11.7283 20.9065 11.4783 20.4125 11.4783C20.3137 11.4783 20.2239 11.4875 20.1341 11.5061C19.9096 11.5524 19.712 11.7191 19.5863 11.9691C19.4336 12.2655 19.3977 12.6638 19.4965 12.9046C19.5324 12.9787 19.5773 13.0713 19.6312 13.1547C19.1552 13.451 18.8858 13.5344 18.8499 13.5436C20.0892 13.9697 21.122 14.8588 21.7686 16.0166L21.7776 15.9054C21.8045 15.5998 21.8944 15.2478 22.0201 14.8866C22.1458 14.9237 22.2715 14.9422 22.3973 14.9422C22.7296 14.9422 23.0169 14.8033 23.1966 14.5532C23.3762 14.3031 23.448 13.9697 23.3672 13.6918Z" fill="#5E12A0"/>
<path d="M22.0739 14.618C22.8911 14.8496 23.2234 14.2012 23.1156 13.7659C22.9988 13.3306 22.6217 12.8861 21.9571 12.3859C21.2925 11.8858 20.619 11.682 20.1879 11.7746C19.7568 11.8673 19.6311 12.5434 19.7389 12.8027C19.7838 12.9046 19.8825 13.0528 20.0173 13.2195C19.8467 13.3399 19.685 13.4325 19.5503 13.5159C20.3765 13.8956 21.095 14.4883 21.6338 15.2293C21.6966 14.9792 21.7865 14.7569 21.8673 14.5624C21.9301 14.5717 22.002 14.5902 22.0739 14.618Z" fill="url(#paint0_radial_8746_2440)"/>
<path d="M17.3947 23.6942C20.1673 23.6942 22.4149 21.3762 22.4149 18.5168C22.4149 15.6575 20.1673 13.3395 17.3947 13.3395C14.6221 13.3395 12.3745 15.6575 12.3745 18.5168C12.3745 21.3762 14.6221 23.6942 17.3947 23.6942Z" fill="url(#paint1_radial_8746_2440)"/>
<path opacity="0.6" d="M22.7031 13.3396C22.0206 12.5987 21.4458 12.4042 20.7543 12.2467C20.2155 12.117 20.3592 11.8021 21.0148 11.867C20.7005 11.7558 20.4041 11.7281 20.1885 11.7744C19.7574 11.867 19.6317 12.5431 19.7395 12.8024C19.7844 12.9043 19.8832 13.0525 20.0179 13.2192C19.7754 13.3859 19.5689 13.5063 19.3982 13.5989C19.4791 13.636 19.5778 13.6823 19.6946 13.7471C19.9999 13.9138 20.3322 14.1917 20.3322 14.1917C19.8293 13.7471 19.937 13.5434 20.6286 13.0432C20.8441 12.8858 21.2392 12.9043 21.6075 13.0988C21.9757 13.2933 22.4068 13.7842 22.4068 13.7842L21.9937 14.5992C22.0206 14.6085 22.0475 14.6177 22.0745 14.627C22.3349 14.7011 22.5414 14.6826 22.7031 14.6177C22.8917 14.4973 23.3857 14.0898 22.7031 13.3396Z" fill="#A98698"/>
<path d="M20.7444 12.6913C20.924 12.7654 21.1575 12.895 21.445 13.0895C21.7862 13.3211 22.0826 13.5804 22.2712 13.7842C21.9568 14.2102 21.7503 14.7937 21.6246 15.2012C21.6874 15.2938 21.7593 15.3865 21.8221 15.4791C21.885 15.2475 21.9927 14.9048 22.1364 14.5622C22.1724 14.5714 22.2173 14.5714 22.2622 14.5714C22.3699 14.5714 22.4957 14.5529 22.5945 14.4695C22.6663 14.414 22.7472 14.3121 22.7382 14.1269C22.7382 13.9509 22.6035 13.7286 22.325 13.46C22.1275 13.2655 21.8581 13.0525 21.5886 12.858C20.8163 12.3301 20.2774 12.1819 20.0349 12.4319C19.8733 12.5987 19.8913 12.8024 19.9451 12.9506C19.6578 13.1451 19.4153 13.284 19.2537 13.3766C19.3614 13.4137 19.4602 13.46 19.568 13.5063C19.8553 13.3489 20.2684 13.0803 20.7444 12.6913ZM22.4418 14.0157C22.4687 14.062 22.4777 14.1083 22.4777 14.1361C22.4777 14.2195 22.4508 14.2473 22.4328 14.2658C22.3969 14.2936 22.325 14.3121 22.2622 14.3121C22.316 14.2009 22.3789 14.1083 22.4418 14.0157ZM20.2236 12.6357C20.2505 12.6079 20.3224 12.5894 20.4391 12.6079C20.3493 12.682 20.2595 12.7468 20.1697 12.8117C20.1607 12.7468 20.1697 12.682 20.2236 12.6357Z" fill="#5E12A0"/>
<path d="M17.395 13.0341C14.4583 13.0341 12.0784 15.4884 12.0784 18.5171C12.0784 21.5456 14.4583 24 17.395 24C20.3317 24 22.7115 21.5456 22.7115 18.5171C22.7115 15.4884 20.3227 13.0341 17.395 13.0341ZM17.395 23.6944C14.6199 23.6944 12.3747 21.379 12.3747 18.5171C12.3747 15.6551 14.6199 13.3397 17.395 13.3397C20.17 13.3397 22.4152 15.6551 22.4152 18.5171C22.4152 21.379 20.161 23.6944 17.395 23.6944Z" fill="#5E12A0"/>
<path opacity="0.6" d="M17.3947 23.6942C20.1673 23.6942 22.4149 21.3762 22.4149 18.5168C22.4149 15.6575 20.1673 13.3395 17.3947 13.3395C14.6221 13.3395 12.3745 15.6575 12.3745 18.5168C12.3745 21.3762 14.6221 23.6942 17.3947 23.6942Z" fill="url(#paint2_linear_8746_2440)"/>
<path opacity="0.6" d="M17.359 23.0644C14.6198 22.6106 12.7608 19.9525 13.2099 17.1276C13.4074 15.8773 14.0181 14.8122 14.8803 14.0435C13.623 14.7937 12.689 16.0996 12.4375 17.6926C11.9975 20.5174 13.8565 23.1756 16.5866 23.6294C18.1133 23.8887 19.5862 23.3979 20.6729 22.4347C19.7119 23.0089 18.5444 23.259 17.359 23.0644Z" fill="#A98698"/>
<path opacity="0.6" d="M18.1942 13.4141C16.9279 13.201 15.6976 13.4974 14.6917 14.155C14.6738 14.1735 14.6558 14.192 14.6558 14.192C15.042 13.9512 15.6078 13.7382 15.6078 13.7382C14.1529 14.6088 13.7039 15.5998 13.7039 15.5998C14.2696 14.4699 15.9311 13.6734 17.2333 13.6178C18.5355 13.5622 19.3886 13.9605 20.4304 14.8218C21.4722 15.6925 22.1008 17.4707 22.038 18.8785C21.9841 20.2863 21.2656 21.4255 21.2656 21.4255C21.7595 20.7679 22.0559 20.2863 22.2445 19.7954C22.2804 19.6472 22.3164 19.4991 22.3343 19.3416C22.7834 16.526 20.9333 13.8679 18.1942 13.4141Z" fill="url(#paint3_linear_8746_2440)"/>
<path d="M22.1629 18.4703C22.1629 21.184 20.0255 23.3883 17.3942 23.3883C14.7628 23.3883 12.6165 21.184 12.6165 18.4703H22.1629Z" fill="url(#paint4_linear_8746_2440)"/>
<g opacity="0.6">
<path opacity="0.6" d="M21.7862 18.4708C21.7862 21.1197 19.7566 23.2869 17.2061 23.3888C17.2689 23.3888 17.3318 23.3888 17.3947 23.3888C20.026 23.3888 22.1634 21.1845 22.1634 18.4708H21.7862Z" fill="url(#paint5_linear_8746_2440)"/>
</g>
<g opacity="0.7">
<path opacity="0.7" d="M13.2917 18.4708H12.6182C12.6182 21.1845 14.7556 23.3888 17.3869 23.3888C17.5037 23.3888 17.6114 23.3888 17.7192 23.3795C15.2495 23.1943 13.2917 21.0641 13.2917 18.4708Z" fill="url(#paint6_linear_8746_2440)"/>
</g>
<path d="M22.154 18.5173C22.154 17.9523 21.202 17.6281 19.9357 17.517C19.0197 17.4429 18.0947 17.5355 17.035 17.8689C16.1189 18.1468 15.2927 18.1005 14.691 18.0263C13.3529 17.8689 12.6165 17.8504 12.6165 18.5173C12.6165 19.4805 14.5204 20.6845 17.3762 20.2677C18.8221 20.0547 19.5675 19.6194 20.4207 19.323C21.3457 19.0081 22.154 19.0174 22.154 18.5173Z" fill="url(#paint7_linear_8746_2440)"/>
<path d="M18.9582 16.1838C19.4044 16.1838 19.7662 15.8106 19.7662 15.3503C19.7662 14.8899 19.4044 14.5167 18.9582 14.5167C18.5119 14.5167 18.1501 14.8899 18.1501 15.3503C18.1501 15.8106 18.5119 16.1838 18.9582 16.1838Z" fill="white"/>
<path d="M20.2772 16.804C20.4656 16.804 20.6184 16.6464 20.6184 16.452C20.6184 16.2577 20.4656 16.1001 20.2772 16.1001C20.0888 16.1001 19.936 16.2577 19.936 16.452C19.936 16.6464 20.0888 16.804 20.2772 16.804Z" fill="white"/>
<g opacity="0.6">
<path opacity="0.6" d="M21.4976 14.6831C21.4886 14.6831 21.4797 14.6831 21.4797 14.6831C21.4258 14.6739 21.3899 14.6183 21.3988 14.5535C21.4797 14.1274 21.8208 13.7199 21.8388 13.7014C21.8747 13.6551 21.9465 13.6551 21.9824 13.6921C22.0273 13.7292 22.0273 13.8033 21.9914 13.8403C21.9824 13.8496 21.6682 14.2293 21.5964 14.5998C21.5874 14.6554 21.5425 14.6831 21.4976 14.6831Z" fill="url(#paint8_linear_8746_2440)"/>
</g>
<path opacity="0.2" d="M17.0641 22.3792C17.203 22.3792 17.3155 22.2631 17.3155 22.1199C17.3155 21.9767 17.203 21.8606 17.0641 21.8606C16.9253 21.8606 16.8127 21.9767 16.8127 22.1199C16.8127 22.2631 16.9253 22.3792 17.0641 22.3792Z" fill="white"/>
<g opacity="0.4">
<path opacity="0.6" d="M16.9208 22.2889C16.822 22.187 16.822 22.0203 16.9208 21.9184C16.9387 21.8999 16.9567 21.8906 16.9746 21.8721C16.9387 21.8814 16.9118 21.8999 16.8849 21.9276C16.7861 22.0295 16.7861 22.1963 16.8849 22.2981C16.9657 22.3815 17.0913 22.4 17.1901 22.3444C17.1003 22.3815 16.9926 22.363 16.9208 22.2889Z" fill="url(#paint9_linear_8746_2440)"/>
</g>
<path opacity="0.3" d="M17.1525 22.0451C17.1823 22.0451 17.2064 22.0204 17.2064 21.9899C17.2064 21.9594 17.1823 21.9347 17.1525 21.9347C17.1228 21.9347 17.0986 21.9594 17.0986 21.9899C17.0986 22.0204 17.1228 22.0451 17.1525 22.0451Z" fill="white"/>
<path opacity="0.2" d="M18.3754 22.2501C18.5143 22.2501 18.6268 22.134 18.6268 21.9908C18.6268 21.8475 18.5143 21.7314 18.3754 21.7314C18.2366 21.7314 18.124 21.8475 18.124 21.9908C18.124 22.134 18.2366 22.2501 18.3754 22.2501Z" fill="white"/>
<g opacity="0.4">
<path opacity="0.6" d="M18.2298 22.1584C18.1311 22.0565 18.1311 21.8898 18.2298 21.7878C18.2478 21.7694 18.2658 21.7601 18.2837 21.7416C18.2478 21.7508 18.2208 21.7694 18.1939 21.7972C18.0952 21.899 18.0952 22.0657 18.1939 22.1676C18.2748 22.251 18.4004 22.2695 18.4992 22.2139C18.4094 22.251 18.3017 22.2324 18.2298 22.1584Z" fill="url(#paint10_linear_8746_2440)"/>
</g>
<path opacity="0.3" d="M18.464 21.9152C18.4938 21.9152 18.5179 21.8905 18.5179 21.86C18.5179 21.8295 18.4938 21.8048 18.464 21.8048C18.4343 21.8048 18.4102 21.8295 18.4102 21.86C18.4102 21.8905 18.4343 21.9152 18.464 21.9152Z" fill="white"/>
<path opacity="0.2" d="M17.7276 22.8517C17.8317 22.8517 17.9162 22.7647 17.9162 22.6573C17.9162 22.5498 17.8317 22.4628 17.7276 22.4628C17.6235 22.4628 17.5391 22.5498 17.5391 22.6573C17.5391 22.7647 17.6235 22.8517 17.7276 22.8517Z" fill="white"/>
<g opacity="0.4">
<path opacity="0.6" d="M17.6189 22.7792C17.5471 22.705 17.5471 22.5754 17.6189 22.5013C17.6279 22.4921 17.6458 22.4828 17.6548 22.4735C17.6279 22.4828 17.6099 22.5013 17.592 22.5198C17.5201 22.5939 17.5201 22.7236 17.592 22.7977C17.6548 22.8625 17.7446 22.8718 17.8254 22.8255C17.7536 22.8533 17.6728 22.8347 17.6189 22.7792Z" fill="url(#paint11_linear_8746_2440)"/>
</g>
<path opacity="0.3" d="M17.7898 22.5917C17.8097 22.5917 17.8257 22.5752 17.8257 22.5549C17.8257 22.5346 17.8097 22.5181 17.7898 22.5181C17.77 22.5181 17.7539 22.5346 17.7539 22.5549C17.7539 22.5752 17.77 22.5917 17.7898 22.5917Z" fill="white"/>
<path opacity="0.2" d="M18.885 22.7127C18.9892 22.7127 19.0736 22.6256 19.0736 22.5182C19.0736 22.4108 18.9892 22.3237 18.885 22.3237C18.781 22.3237 18.6965 22.4108 18.6965 22.5182C18.6965 22.6256 18.781 22.7127 18.885 22.7127Z" fill="white"/>
<g opacity="0.4">
<path opacity="0.6" d="M18.7793 22.6406C18.7075 22.5665 18.7075 22.4369 18.7793 22.3627C18.7883 22.3535 18.8062 22.3443 18.8152 22.335C18.7883 22.3443 18.7703 22.3627 18.7524 22.3813C18.6805 22.4553 18.6805 22.585 18.7524 22.6592C18.8152 22.724 18.905 22.7332 18.9858 22.6869C18.914 22.7147 18.8332 22.6962 18.7793 22.6406Z" fill="url(#paint12_linear_8746_2440)"/>
</g>
<path opacity="0.3" d="M18.9478 22.4532C18.9677 22.4532 18.9837 22.4367 18.9837 22.4163C18.9837 22.396 18.9677 22.3795 18.9478 22.3795C18.928 22.3795 18.9119 22.396 18.9119 22.4163C18.9119 22.4367 18.928 22.4532 18.9478 22.4532Z" fill="white"/>
<path opacity="0.2" d="M15.9936 22.287C16.2216 22.287 16.4065 22.0963 16.4065 21.861C16.4065 21.6257 16.2216 21.4349 15.9936 21.4349C15.7655 21.4349 15.5806 21.6257 15.5806 21.861C15.5806 22.0963 15.7655 22.287 15.9936 22.287Z" fill="white"/>
<g opacity="0.4">
<path opacity="0.6" d="M15.7608 22.129C15.5992 21.9623 15.5992 21.6937 15.7608 21.527C15.7877 21.4992 15.8146 21.4807 15.8505 21.4622C15.7967 21.4807 15.7518 21.5177 15.7069 21.5548C15.5453 21.7215 15.5453 21.9901 15.7069 22.1568C15.8416 22.2958 16.0481 22.3235 16.2097 22.2216C16.057 22.2865 15.8775 22.2587 15.7608 22.129Z" fill="url(#paint13_linear_8746_2440)"/>
</g>
<path opacity="0.3" d="M16.1364 21.7309C16.186 21.7309 16.2262 21.6894 16.2262 21.6383C16.2262 21.5871 16.186 21.5457 16.1364 21.5457C16.0868 21.5457 16.0466 21.5871 16.0466 21.6383C16.0466 21.6894 16.0868 21.7309 16.1364 21.7309Z" fill="white"/>
<path opacity="0.2" d="M19.6859 21.2401C19.9141 21.2401 20.0989 21.0494 20.0989 20.8141C20.0989 20.5788 19.9141 20.3881 19.6859 20.3881C19.4579 20.3881 19.2729 20.5788 19.2729 20.8141C19.2729 21.0494 19.4579 21.2401 19.6859 21.2401Z" fill="white"/>
<g opacity="0.4">
<path opacity="0.6" d="M19.4422 21.083C19.2805 20.9163 19.2805 20.6477 19.4422 20.481C19.4691 20.4532 19.496 20.4347 19.532 20.4161C19.478 20.4347 19.4332 20.4717 19.3883 20.5088C19.2267 20.6755 19.2267 20.9441 19.3883 21.1108C19.523 21.2497 19.7294 21.2775 19.8911 21.1756C19.7384 21.2405 19.5678 21.2127 19.4422 21.083Z" fill="url(#paint14_linear_8746_2440)"/>
</g>
<path opacity="0.3" d="M19.83 20.6847C19.8796 20.6847 19.9198 20.6432 19.9198 20.592C19.9198 20.5408 19.8796 20.4994 19.83 20.4994C19.7805 20.4994 19.7402 20.5408 19.7402 20.592C19.7402 20.6432 19.7805 20.6847 19.83 20.6847Z" fill="white"/>
<defs>
<radialGradient id="paint0_radial_8746_2440" cx="0" cy="0" r="1" gradientUnits="userSpaceOnUse" gradientTransform="translate(22.9518 13.1824) scale(4.01388 4.13951)">
<stop stop-color="#FFEAFF" stop-opacity="0.6"/>
<stop offset="0.6807" stop-color="#A087C9"/>
<stop offset="1" stop-color="#10002F"/>
</radialGradient>
<radialGradient id="paint1_radial_8746_2440" cx="0" cy="0" r="1" gradientUnits="userSpaceOnUse" gradientTransform="translate(21.901 17.5974) scale(11.2414 12.33)">
<stop stop-color="#FFEAFF" stop-opacity="0.6"/>
<stop offset="0.6807" stop-color="#A087C9"/>
<stop offset="1" stop-color="#10002F"/>
</radialGradient>
<linearGradient id="paint2_linear_8746_2440" x1="16.5894" y1="23.6208" x2="18.2945" y2="13.4209" gradientUnits="userSpaceOnUse">
<stop stop-color="#81FFFF"/>
<stop offset="0.6202" stop-color="white" stop-opacity="0"/>
</linearGradient>
<linearGradient id="paint3_linear_8746_2440" x1="20.9329" y1="15.0012" x2="16.665" y2="18.7983" gradientUnits="userSpaceOnUse">
<stop offset="0.2888" stop-color="white"/>
<stop offset="0.7796" stop-color="white" stop-opacity="0"/>
</linearGradient>
<linearGradient id="paint4_linear_8746_2440" x1="12.6205" y1="20.9264" x2="22.1606" y2="20.9264" gradientUnits="userSpaceOnUse">
<stop stop-color="#0002E9"/>
<stop offset="0.9952" stop-color="#FF00C7"/>
</linearGradient>
<linearGradient id="paint5_linear_8746_2440" x1="22.6127" y1="18.9024" x2="17.2694" y2="23.7989" gradientUnits="userSpaceOnUse">
<stop offset="0.2888" stop-color="white"/>
<stop offset="0.7796" stop-color="white" stop-opacity="0"/>
</linearGradient>
<linearGradient id="paint6_linear_8746_2440" x1="12.6222" y1="20.9269" x2="17.7261" y2="20.9269" gradientUnits="userSpaceOnUse">
<stop stop-color="#000292"/>
<stop offset="0.9952" stop-color="#7D00C7"/>
</linearGradient>
<linearGradient id="paint7_linear_8746_2440" x1="12.6269" y1="18.9258" x2="22.1542" y2="18.9258" gradientUnits="userSpaceOnUse">
<stop stop-color="#000292"/>
<stop offset="0.9952" stop-color="#BE00C7"/>
</linearGradient>
<linearGradient id="paint8_linear_8746_2440" x1="21.997" y1="13.6563" x2="21.2811" y2="14.7839" gradientUnits="userSpaceOnUse">
<stop offset="0.2888" stop-color="white"/>
<stop offset="0.7796" stop-color="white" stop-opacity="0"/>
</linearGradient>
<linearGradient id="paint9_linear_8746_2440" x1="16.8105" y1="22.1301" x2="17.1904" y2="22.1301" gradientUnits="userSpaceOnUse">
<stop offset="0.2888" stop-color="white"/>
<stop offset="0.7796" stop-color="white" stop-opacity="0"/>
</linearGradient>
<linearGradient id="paint10_linear_8746_2440" x1="18.1187" y1="21.9978" x2="18.4985" y2="21.9978" gradientUnits="userSpaceOnUse">
<stop offset="0.2888" stop-color="white"/>
<stop offset="0.7796" stop-color="white" stop-opacity="0"/>
</linearGradient>
<linearGradient id="paint11_linear_8746_2440" x1="17.533" y1="22.6606" x2="17.8182" y2="22.6606" gradientUnits="userSpaceOnUse">
<stop offset="0.2888" stop-color="white"/>
<stop offset="0.7796" stop-color="white" stop-opacity="0"/>
</linearGradient>
<linearGradient id="paint12_linear_8746_2440" x1="18.6935" y1="22.5221" x2="18.9786" y2="22.5221" gradientUnits="userSpaceOnUse">
<stop offset="0.2888" stop-color="white"/>
<stop offset="0.7796" stop-color="white" stop-opacity="0"/>
</linearGradient>
<linearGradient id="paint13_linear_8746_2440" x1="15.5816" y1="21.8713" x2="16.2019" y2="21.8713" gradientUnits="userSpaceOnUse">
<stop offset="0.2888" stop-color="white"/>
<stop offset="0.7796" stop-color="white" stop-opacity="0"/>
</linearGradient>
<linearGradient id="paint14_linear_8746_2440" x1="19.2664" y1="20.8249" x2="19.8867" y2="20.8249" gradientUnits="userSpaceOnUse">
<stop offset="0.2888" stop-color="white"/>
<stop offset="0.7796" stop-color="white" stop-opacity="0"/>
</linearGradient>
</defs>
</svg>
