<svg width="24" height="24" viewBox="0 0 24 24" fill="none" xmlns="http://www.w3.org/2000/svg">
<path d="M11 22C17.0751 22 22 17.0751 22 11C22 4.92487 17.0751 0 11 0C4.92487 0 0 4.92487 0 11C0 17.0751 4.92487 22 11 22Z" fill="#3E73C4"/>
<path d="M13.7653 12.4602C13.7653 11 12.8853 10.4995 11.1253 10.2905C9.8686 10.1234 9.61766 9.78998 9.61766 9.2056C9.61766 8.62123 10.037 8.2431 10.8744 8.2431C11.1721 8.19578 11.4768 8.25872 11.7313 8.42011C11.9859 8.5815 12.1728 8.83025 12.257 9.11966C12.2791 9.17984 12.319 9.23183 12.3715 9.26869C12.424 9.30554 12.4864 9.32551 12.5505 9.32591H13.2208C13.2596 9.32695 13.2981 9.32011 13.3341 9.30581C13.3701 9.2915 13.4028 9.27004 13.4302 9.24272C13.4577 9.2154 13.4793 9.18279 13.4938 9.14686C13.5082 9.11094 13.5153 9.07245 13.5144 9.03373V8.99248C13.4313 8.54048 13.2015 8.12849 12.8606 7.82027C12.5197 7.51205 12.0867 7.32479 11.6286 7.28748V6.2851C11.6286 6.11804 11.5028 5.99291 11.2938 5.95098H10.6647C10.4977 5.95098 10.3718 6.0761 10.3299 6.2851V7.2476C9.79302 7.26693 9.28324 7.4883 8.9026 7.86742C8.52195 8.24653 8.29852 8.75542 8.27703 9.29222C8.27703 10.6672 9.11441 11.211 10.8744 11.4235C12.048 11.6297 12.4247 11.8827 12.4247 12.5503C12.4247 13.2178 11.8383 13.6764 11.0422 13.6764C9.95247 13.6764 9.57572 13.2179 9.44991 12.5915C9.43714 12.5225 9.401 12.4599 9.34754 12.4143C9.29408 12.3687 9.22657 12.343 9.15635 12.3413H8.4441C8.40544 12.3403 8.36699 12.3473 8.33108 12.3616C8.29517 12.3759 8.26254 12.3974 8.23516 12.4247C8.20778 12.452 8.18623 12.4846 8.1718 12.5205C8.15738 12.5564 8.15037 12.5948 8.15122 12.6335V12.6747C8.22889 13.2155 8.49354 13.7121 8.8992 14.078C9.30487 14.444 9.82592 14.6563 10.3718 14.6781V15.675C10.3718 15.8413 10.4977 15.9672 10.7067 16.0084H11.3357C11.5028 16.0084 11.6286 15.8833 11.6705 15.675V14.6712C12.2303 14.6239 12.7531 14.3724 13.1393 13.9645C13.5256 13.5567 13.7484 13.021 13.7653 12.4595V12.4602Z" fill="white"/>
<path d="M8.86347 16.8437C7.65889 16.4073 6.61799 15.6104 5.88235 14.5614C5.14672 13.5124 4.75206 12.2623 4.75206 10.9811C4.75206 9.69985 5.14672 8.44974 5.88235 7.40076C6.61799 6.35178 7.65889 5.55487 8.86347 5.11841C8.94365 5.08379 9.01098 5.02492 9.05598 4.95007C9.10099 4.87522 9.12142 4.78816 9.11441 4.7011V4.11672C9.12004 4.04018 9.09771 3.9642 9.05156 3.90288C9.00541 3.84156 8.93858 3.79906 8.86347 3.78329C8.80446 3.77717 8.74516 3.79175 8.69572 3.82454C7.17208 4.30267 5.8408 5.2546 4.89566 6.54177C3.95052 7.82894 3.44086 9.38417 3.44086 10.9811C3.44086 12.578 3.95052 14.1332 4.89566 15.4204C5.8408 16.7075 7.17208 17.6595 8.69572 18.1376C8.73049 18.1578 8.76955 18.1695 8.80972 18.1717C8.84988 18.1739 8.88999 18.1666 8.92675 18.1503C8.96352 18.134 8.9959 18.1092 9.02123 18.0779C9.04656 18.0467 9.06412 18.0099 9.07247 17.9705C9.11441 17.9293 9.11441 17.8867 9.11441 17.8035V17.2191C9.10123 17.1424 9.07209 17.0694 9.02885 17.0047C8.98562 16.9401 8.92928 16.8852 8.86347 16.8437ZM13.3047 3.82523C13.2702 3.80442 13.2312 3.79212 13.191 3.78934C13.1508 3.78655 13.1105 3.79336 13.0734 3.80921C13.0364 3.82506 13.0036 3.84948 12.9778 3.88048C12.9521 3.91147 12.934 3.94814 12.9252 3.98748C12.8833 4.02941 12.8833 4.07135 12.8833 4.15454V4.74373C12.8903 4.82788 12.9165 4.9093 12.9601 4.98167C13.0036 5.05403 13.0632 5.11541 13.1342 5.16104C14.3388 5.59749 15.3797 6.39441 16.1153 7.44339C16.851 8.49236 17.2456 9.74248 17.2456 11.0237C17.2456 12.3049 16.851 13.555 16.1153 14.604C15.3797 15.653 14.3388 16.4499 13.1342 16.8864C13.054 16.921 12.9867 16.9798 12.9417 17.0547C12.8967 17.1295 12.8763 17.2166 12.8833 17.3037V17.888C12.8777 17.9646 12.9 18.0406 12.9461 18.1019C12.9923 18.1632 13.0591 18.2057 13.1342 18.2215C13.1932 18.2276 13.2525 18.213 13.302 18.1802C14.2449 17.8858 15.1203 17.4077 15.8777 16.7735C16.6352 16.1393 17.2597 15.3616 17.7153 14.485C18.1709 13.6085 18.4486 12.6505 18.5325 11.6662C18.6163 10.6819 18.5046 9.69075 18.2038 8.74979C17.8385 7.59769 17.203 6.54966 16.3503 5.69312C15.4976 4.83658 14.4524 4.19638 13.302 3.82591L13.3047 3.82523Z" fill="white"/>
<path d="M23.5674 14.1213C23.443 13.6509 23.0432 13.1805 22.3236 12.6568C21.7461 12.2396 21.1331 12 20.6445 12C20.5468 12 20.4579 12.0089 20.3691 12.0266C20.147 12.071 19.9515 12.2308 19.8272 12.4704C19.6761 12.7544 19.6406 13.1361 19.7383 13.3669C19.7738 13.4379 19.8183 13.5267 19.8716 13.6065C19.4007 13.8906 19.1342 13.9704 19.0986 13.9793C20.3247 14.3876 21.3464 15.2397 21.986 16.3492L21.9949 16.2427C22.0216 15.9498 22.1104 15.6125 22.2348 15.2663C22.3591 15.3018 22.4835 15.3196 22.6079 15.3196C22.9366 15.3196 23.2209 15.1864 23.3986 14.9468C23.5763 14.7071 23.6473 14.3876 23.5674 14.1213Z" fill="#5E12A0"/>
<path d="M22.2882 15.0089C23.0966 15.2308 23.4254 14.6095 23.3187 14.1923C23.2032 13.7751 22.8301 13.3491 22.1727 12.8698C21.5153 12.3905 20.849 12.1952 20.4225 12.284C19.9961 12.3727 19.8717 13.0207 19.9783 13.2692C20.0227 13.3668 20.1204 13.5089 20.2537 13.6686C20.0849 13.784 19.925 13.8728 19.7917 13.9527C20.6091 14.3166 21.3198 14.8846 21.8528 15.5947C21.915 15.355 22.0039 15.142 22.0839 14.9556C22.146 14.9645 22.2171 14.9823 22.2882 15.0089Z" fill="url(#paint0_radial_5684_19300)"/>
<path d="M17.6592 23.7069C20.402 23.7069 22.6255 21.4855 22.6255 18.7453C22.6255 16.0051 20.402 13.7837 17.6592 13.7837C14.9165 13.7837 12.693 16.0051 12.693 18.7453C12.693 21.4855 14.9165 23.7069 17.6592 23.7069Z" fill="url(#paint1_radial_5684_19300)"/>
<path opacity="0.6" d="M22.9105 13.7837C22.2353 13.0737 21.6667 12.8873 20.9827 12.7364C20.4496 12.6121 20.5917 12.3104 21.2403 12.3725C20.9294 12.266 20.6362 12.2393 20.423 12.2837C19.9965 12.3725 19.8722 13.0204 19.9787 13.2689C20.0231 13.3666 20.1209 13.5086 20.2542 13.6684C20.0143 13.8281 19.81 13.9435 19.6411 14.0323C19.7211 14.0678 19.8188 14.1122 19.9343 14.1743C20.2364 14.3341 20.5651 14.6003 20.5651 14.6003C20.0676 14.1743 20.1742 13.979 20.8583 13.4997C21.0715 13.3488 21.4624 13.3666 21.8266 13.553C22.1909 13.7394 22.6173 14.2098 22.6173 14.2098L22.2087 14.9909C22.2353 14.9997 22.262 15.0086 22.2886 15.0175C22.5462 15.0885 22.7506 15.0707 22.9105 15.0086C23.0971 14.8932 23.5857 14.5027 22.9105 13.7837Z" fill="#A98698"/>
<path d="M20.973 13.1625C21.1507 13.2335 21.3817 13.3577 21.666 13.5441C22.0036 13.766 22.2968 14.0146 22.4834 14.2098C22.1724 14.6181 21.968 15.1773 21.8437 15.5678C21.9059 15.6566 21.9769 15.7454 22.0391 15.8341C22.1013 15.6122 22.2079 15.2838 22.3501 14.9554C22.3856 14.9643 22.4301 14.9643 22.4745 14.9643C22.581 14.9643 22.7054 14.9465 22.8032 14.8666C22.8742 14.8134 22.9542 14.7158 22.9453 14.5382C22.9453 14.3696 22.8121 14.1566 22.5367 13.8992C22.3412 13.7128 22.0747 13.5086 21.8082 13.3222C21.0441 12.8163 20.5111 12.6743 20.2712 12.914C20.1113 13.0737 20.129 13.269 20.1823 13.411C19.8981 13.5974 19.6582 13.7305 19.4983 13.8193C19.6049 13.8548 19.7026 13.8992 19.8092 13.9436C20.0935 13.7927 20.5022 13.5353 20.973 13.1625ZM22.6521 14.4317C22.6788 14.4761 22.6877 14.5205 22.6877 14.5471C22.6877 14.627 22.661 14.6536 22.6432 14.6714C22.6078 14.698 22.5367 14.7158 22.4745 14.7158C22.5278 14.6092 22.5899 14.5205 22.6521 14.4317ZM20.4578 13.1092C20.4844 13.0826 20.5555 13.0648 20.671 13.0826C20.5822 13.1536 20.4933 13.2157 20.4045 13.2779C20.3956 13.2157 20.4045 13.1536 20.4578 13.1092Z" fill="#5E12A0"/>
<path d="M17.6595 13.491C14.7543 13.491 12.4 15.8431 12.4 18.7455C12.4 21.6479 14.7543 24 17.6595 24C20.5646 24 22.9188 21.6479 22.9188 18.7455C22.9188 15.8431 20.5557 13.491 17.6595 13.491ZM17.6595 23.7071C14.9142 23.7071 12.6932 21.4882 12.6932 18.7455C12.6932 16.0028 14.9142 13.7839 17.6595 13.7839C20.4046 13.7839 22.6257 16.0028 22.6257 18.7455C22.6257 21.4882 20.3958 23.7071 17.6595 23.7071Z" fill="#5E12A0"/>
<path opacity="0.6" d="M17.6592 23.7069C20.402 23.7069 22.6255 21.4855 22.6255 18.7453C22.6255 16.0051 20.402 13.7837 17.6592 13.7837C14.9165 13.7837 12.693 16.0051 12.693 18.7453C12.693 21.4855 14.9165 23.7069 17.6592 23.7069Z" fill="url(#paint2_linear_5684_19300)"/>
<path opacity="0.6" d="M17.6238 23.1034C14.9142 22.6684 13.0751 20.121 13.5194 17.4139C13.7148 16.2157 14.3189 15.1949 15.1718 14.4583C13.928 15.1772 13.0041 16.4287 12.7553 17.9554C12.32 20.6625 14.159 23.2099 16.8598 23.6448C18.3701 23.8933 19.8271 23.4229 20.9021 22.4998C19.9515 23.0501 18.7966 23.2898 17.6238 23.1034Z" fill="#A98698"/>
<path opacity="0.6" d="M18.4502 13.8552C17.1975 13.651 15.9803 13.9351 14.9853 14.5653C14.9675 14.583 14.9498 14.6008 14.9498 14.6008C15.3318 14.37 15.8915 14.1658 15.8915 14.1658C14.4523 15.0002 14.0081 15.9499 14.0081 15.9499C14.5678 14.867 16.2113 14.1037 17.4995 14.0504C18.7877 13.9972 19.6317 14.3789 20.6623 15.2043C21.6928 16.0387 22.3148 17.7428 22.2526 19.092C22.1993 20.4411 21.4885 21.5328 21.4885 21.5328C21.9771 20.9026 22.2703 20.4411 22.4569 19.9707C22.4924 19.8286 22.528 19.6866 22.5457 19.5357C22.99 16.8375 21.1598 14.2901 18.4502 13.8552Z" fill="url(#paint3_linear_5684_19300)"/>
<path d="M22.3761 18.7007C22.3761 21.3013 20.2617 23.4138 17.6586 23.4138C15.0556 23.4138 12.9323 21.3013 12.9323 18.7007H22.3761Z" fill="url(#paint4_linear_5684_19300)"/>
<g opacity="0.6">
<path opacity="0.6" d="M22.0034 18.7012C22.0034 21.2397 19.9956 23.3166 17.4725 23.4143C17.5347 23.4143 17.5969 23.4143 17.6591 23.4143C20.2622 23.4143 22.3766 21.3018 22.3766 18.7012H22.0034Z" fill="url(#paint5_linear_5684_19300)"/>
</g>
<g opacity="0.7">
<path opacity="0.7" d="M13.6004 18.7012H12.9341C12.9341 21.3018 15.0485 23.4143 17.6516 23.4143C17.7671 23.4143 17.8737 23.4143 17.9803 23.4053C15.5371 23.2279 13.6004 21.1864 13.6004 18.7012Z" fill="url(#paint6_linear_5684_19300)"/>
</g>
<path d="M22.3673 18.7457C22.3673 18.2043 21.4255 17.8936 20.1728 17.7871C19.2666 17.7161 18.3516 17.8048 17.3033 18.1244C16.3971 18.3907 15.5797 18.3463 14.9845 18.2752C13.6607 18.1244 12.9323 18.1066 12.9323 18.7457C12.9323 19.6688 14.8157 20.8226 17.6409 20.4232C19.0712 20.2191 19.8086 19.8019 20.6526 19.5179C21.5677 19.2161 22.3673 19.225 22.3673 18.7457Z" fill="url(#paint7_linear_5684_19300)"/>
<path d="M19.2058 16.5095C19.6473 16.5095 20.0051 16.1519 20.0051 15.7107C20.0051 15.2695 19.6473 14.9119 19.2058 14.9119C18.7644 14.9119 18.4065 15.2695 18.4065 15.7107C18.4065 16.1519 18.7644 16.5095 19.2058 16.5095Z" fill="white"/>
<path d="M20.5108 17.1038C20.6972 17.1038 20.8483 16.9528 20.8483 16.7665C20.8483 16.5802 20.6972 16.4292 20.5108 16.4292C20.3245 16.4292 20.1733 16.5802 20.1733 16.7665C20.1733 16.9528 20.3245 17.1038 20.5108 17.1038Z" fill="white"/>
<g opacity="0.6">
<path opacity="0.6" d="M21.7178 15.0713C21.7089 15.0713 21.7001 15.0713 21.7001 15.0713C21.6468 15.0624 21.6113 15.0091 21.6201 14.947C21.7001 14.5387 22.0376 14.1482 22.0554 14.1304C22.0908 14.0861 22.1619 14.0861 22.1975 14.1216C22.2418 14.1571 22.2418 14.2281 22.2063 14.2636C22.1975 14.2724 21.8866 14.6364 21.8156 14.9914C21.8067 15.0446 21.7623 15.0713 21.7178 15.0713Z" fill="url(#paint8_linear_5684_19300)"/>
</g>
<path opacity="0.2" d="M17.3323 22.4467C17.4696 22.4467 17.581 22.3355 17.581 22.1982C17.581 22.061 17.4696 21.9497 17.3323 21.9497C17.195 21.9497 17.0836 22.061 17.0836 22.1982C17.0836 22.3355 17.195 22.4467 17.3323 22.4467Z" fill="white"/>
<g opacity="0.4">
<path opacity="0.6" d="M17.1905 22.3601C17.0928 22.2625 17.0928 22.1028 17.1905 22.0051C17.2082 21.9873 17.226 21.9785 17.2438 21.9607C17.2082 21.9696 17.1816 21.9873 17.1549 22.014C17.0572 22.1116 17.0572 22.2714 17.1549 22.369C17.2349 22.4489 17.3592 22.4666 17.4569 22.4134C17.3681 22.4489 17.2615 22.4312 17.1905 22.3601Z" fill="url(#paint9_linear_5684_19300)"/>
</g>
<path opacity="0.3" d="M17.4196 22.1266C17.4491 22.1266 17.4729 22.1029 17.4729 22.0737C17.4729 22.0444 17.4491 22.0208 17.4196 22.0208C17.3902 22.0208 17.3663 22.0444 17.3663 22.0737C17.3663 22.1029 17.3902 22.1266 17.4196 22.1266Z" fill="white"/>
<path opacity="0.2" d="M18.6293 22.323C18.7667 22.323 18.878 22.2117 18.878 22.0744C18.878 21.9372 18.7667 21.8259 18.6293 21.8259C18.4919 21.8259 18.3806 21.9372 18.3806 22.0744C18.3806 22.2117 18.4919 22.323 18.6293 22.323Z" fill="white"/>
<g opacity="0.4">
<path opacity="0.6" d="M18.4855 22.2351C18.3878 22.1375 18.3878 21.9777 18.4855 21.88C18.5032 21.8623 18.521 21.8534 18.5388 21.8357C18.5032 21.8446 18.4766 21.8623 18.45 21.889C18.3523 21.9866 18.3523 22.1463 18.45 22.244C18.5299 22.3239 18.6542 22.3416 18.7519 22.2883C18.6631 22.3239 18.5566 22.3061 18.4855 22.2351Z" fill="url(#paint10_linear_5684_19300)"/>
</g>
<path opacity="0.3" d="M18.7171 22.002C18.7465 22.002 18.7704 21.9783 18.7704 21.9491C18.7704 21.9199 18.7465 21.8962 18.7171 21.8962C18.6877 21.8962 18.6638 21.9199 18.6638 21.9491C18.6638 21.9783 18.6877 22.002 18.7171 22.002Z" fill="white"/>
<path opacity="0.2" d="M17.9885 22.8996C18.0915 22.8996 18.175 22.8162 18.175 22.7133C18.175 22.6103 18.0915 22.5269 17.9885 22.5269C17.8855 22.5269 17.802 22.6103 17.802 22.7133C17.802 22.8162 17.8855 22.8996 17.9885 22.8996Z" fill="white"/>
<g opacity="0.4">
<path opacity="0.6" d="M17.881 22.83C17.8099 22.759 17.8099 22.6348 17.881 22.5637C17.8898 22.5549 17.9076 22.546 17.9165 22.5371C17.8898 22.546 17.8721 22.5637 17.8543 22.5815C17.7833 22.6525 17.7833 22.7768 17.8543 22.8478C17.9165 22.9099 18.0053 22.9188 18.0853 22.8744C18.0142 22.9011 17.9342 22.8833 17.881 22.83Z" fill="url(#paint11_linear_5684_19300)"/>
</g>
<path opacity="0.3" d="M18.0501 22.6504C18.0697 22.6504 18.0856 22.6346 18.0856 22.6151C18.0856 22.5957 18.0697 22.5798 18.0501 22.5798C18.0304 22.5798 18.0145 22.5957 18.0145 22.6151C18.0145 22.6346 18.0304 22.6504 18.0501 22.6504Z" fill="white"/>
<path opacity="0.2" d="M19.1335 22.7663C19.2365 22.7663 19.32 22.6829 19.32 22.58C19.32 22.477 19.2365 22.3936 19.1335 22.3936C19.0305 22.3936 18.947 22.477 18.947 22.58C18.947 22.6829 19.0305 22.7663 19.1335 22.7663Z" fill="white"/>
<g opacity="0.4">
<path opacity="0.6" d="M19.0288 22.6972C18.9578 22.6262 18.9578 22.502 19.0288 22.4309C19.0377 22.4221 19.0554 22.4132 19.0643 22.4043C19.0377 22.4132 19.0199 22.4309 19.0022 22.4487C18.9311 22.5197 18.9311 22.644 19.0022 22.715C19.0643 22.7771 19.1532 22.786 19.2331 22.7416C19.1621 22.7682 19.0821 22.7505 19.0288 22.6972Z" fill="url(#paint12_linear_5684_19300)"/>
</g>
<path opacity="0.3" d="M19.1956 22.5176C19.2152 22.5176 19.2311 22.5018 19.2311 22.4823C19.2311 22.4628 19.2152 22.447 19.1956 22.447C19.176 22.447 19.16 22.4628 19.16 22.4823C19.16 22.5018 19.176 22.5176 19.1956 22.5176Z" fill="white"/>
<path opacity="0.2" d="M16.2732 22.3583C16.4988 22.3583 16.6817 22.1755 16.6817 21.95C16.6817 21.7246 16.4988 21.5417 16.2732 21.5417C16.0475 21.5417 15.8646 21.7246 15.8646 21.95C15.8646 22.1755 16.0475 22.3583 16.2732 22.3583Z" fill="white"/>
<g opacity="0.4">
<path opacity="0.6" d="M16.0427 22.207C15.8828 22.0472 15.8828 21.7898 16.0427 21.63C16.0693 21.6034 16.096 21.5856 16.1315 21.5679C16.0782 21.5856 16.0338 21.6211 15.9894 21.6567C15.8295 21.8164 15.8295 22.0738 15.9894 22.2336C16.1226 22.3667 16.3269 22.3934 16.4868 22.2957C16.3358 22.3578 16.1582 22.3312 16.0427 22.207Z" fill="url(#paint13_linear_5684_19300)"/>
</g>
<path opacity="0.3" d="M16.4145 21.8254C16.4636 21.8254 16.5033 21.7857 16.5033 21.7367C16.5033 21.6877 16.4636 21.6479 16.4145 21.6479C16.3654 21.6479 16.3257 21.6877 16.3257 21.7367C16.3257 21.7857 16.3654 21.8254 16.4145 21.8254Z" fill="white"/>
<path opacity="0.2" d="M19.9258 21.3552C20.1514 21.3552 20.3343 21.1724 20.3343 20.9469C20.3343 20.7214 20.1514 20.5386 19.9258 20.5386C19.7001 20.5386 19.5172 20.7214 19.5172 20.9469C19.5172 21.1724 19.7001 21.3552 19.9258 21.3552Z" fill="white"/>
<g opacity="0.4">
<path opacity="0.6" d="M19.6847 21.2045C19.5248 21.0447 19.5248 20.7874 19.6847 20.6276C19.7113 20.601 19.738 20.5832 19.7735 20.5654C19.7202 20.5832 19.6758 20.6187 19.6314 20.6542C19.4715 20.814 19.4715 21.0714 19.6314 21.2312C19.7646 21.3643 19.9689 21.3909 20.1288 21.2933C19.9778 21.3554 19.809 21.3288 19.6847 21.2045Z" fill="url(#paint14_linear_5684_19300)"/>
</g>
<path opacity="0.3" d="M20.0682 20.8228C20.1173 20.8228 20.157 20.783 20.157 20.734C20.157 20.685 20.1173 20.6453 20.0682 20.6453C20.0192 20.6453 19.9794 20.685 19.9794 20.734C19.9794 20.783 20.0192 20.8228 20.0682 20.8228Z" fill="white"/>
<defs>
<radialGradient id="paint0_radial_5684_19300" cx="0" cy="0" r="1" gradientUnits="userSpaceOnUse" gradientTransform="translate(23.1567 13.6331) scale(3.97072 3.96702)">
<stop stop-color="#FFEAFF" stop-opacity="0.6"/>
<stop offset="0.6807" stop-color="#A087C9"/>
<stop offset="1" stop-color="#10002F"/>
</radialGradient>
<radialGradient id="paint1_radial_5684_19300" cx="0" cy="0" r="1" gradientUnits="userSpaceOnUse" gradientTransform="translate(22.117 17.8642) scale(11.1205 11.8162)">
<stop stop-color="#FFEAFF" stop-opacity="0.6"/>
<stop offset="0.6807" stop-color="#A087C9"/>
<stop offset="1" stop-color="#10002F"/>
</radialGradient>
<linearGradient id="paint2_linear_5684_19300" x1="16.8626" y1="23.6366" x2="18.4482" y2="13.8454" gradientUnits="userSpaceOnUse">
<stop stop-color="#81FFFF"/>
<stop offset="0.6202" stop-color="white" stop-opacity="0"/>
</linearGradient>
<linearGradient id="paint3_linear_5684_19300" x1="21.1594" y1="15.3762" x2="17.0562" y2="19.1445" gradientUnits="userSpaceOnUse">
<stop offset="0.2888" stop-color="white"/>
<stop offset="0.7796" stop-color="white" stop-opacity="0"/>
</linearGradient>
<linearGradient id="paint4_linear_5684_19300" x1="12.9362" y1="21.0544" x2="22.3738" y2="21.0544" gradientUnits="userSpaceOnUse">
<stop stop-color="#0002E9"/>
<stop offset="0.9952" stop-color="#FF00C7"/>
</linearGradient>
<linearGradient id="paint5_linear_5684_19300" x1="22.8211" y1="19.1147" x2="17.6887" y2="23.9696" gradientUnits="userSpaceOnUse">
<stop offset="0.2888" stop-color="white"/>
<stop offset="0.7796" stop-color="white" stop-opacity="0"/>
</linearGradient>
<linearGradient id="paint6_linear_5684_19300" x1="12.9381" y1="21.0549" x2="17.9871" y2="21.0549" gradientUnits="userSpaceOnUse">
<stop stop-color="#000292"/>
<stop offset="0.9952" stop-color="#7D00C7"/>
</linearGradient>
<linearGradient id="paint7_linear_5684_19300" x1="12.9426" y1="19.1372" x2="22.3675" y2="19.1372" gradientUnits="userSpaceOnUse">
<stop stop-color="#000292"/>
<stop offset="0.9952" stop-color="#BE00C7"/>
</linearGradient>
<linearGradient id="paint8_linear_5684_19300" x1="22.2119" y1="14.0872" x2="21.5353" y2="15.1873" gradientUnits="userSpaceOnUse">
<stop offset="0.2888" stop-color="white"/>
<stop offset="0.7796" stop-color="white" stop-opacity="0"/>
</linearGradient>
<linearGradient id="paint9_linear_5684_19300" x1="17.0814" y1="22.208" x2="17.4572" y2="22.208" gradientUnits="userSpaceOnUse">
<stop offset="0.2888" stop-color="white"/>
<stop offset="0.7796" stop-color="white" stop-opacity="0"/>
</linearGradient>
<linearGradient id="paint10_linear_5684_19300" x1="18.3756" y1="22.0812" x2="18.7513" y2="22.0812" gradientUnits="userSpaceOnUse">
<stop offset="0.2888" stop-color="white"/>
<stop offset="0.7796" stop-color="white" stop-opacity="0"/>
</linearGradient>
<linearGradient id="paint11_linear_5684_19300" x1="17.796" y1="22.7164" x2="18.0782" y2="22.7164" gradientUnits="userSpaceOnUse">
<stop offset="0.2888" stop-color="white"/>
<stop offset="0.7796" stop-color="white" stop-opacity="0"/>
</linearGradient>
<linearGradient id="paint12_linear_5684_19300" x1="18.9439" y1="22.5836" x2="19.226" y2="22.5836" gradientUnits="userSpaceOnUse">
<stop offset="0.2888" stop-color="white"/>
<stop offset="0.7796" stop-color="white" stop-opacity="0"/>
</linearGradient>
<linearGradient id="paint13_linear_5684_19300" x1="15.8654" y1="21.96" x2="16.4791" y2="21.96" gradientUnits="userSpaceOnUse">
<stop offset="0.2888" stop-color="white"/>
<stop offset="0.7796" stop-color="white" stop-opacity="0"/>
</linearGradient>
<linearGradient id="paint14_linear_5684_19300" x1="19.5108" y1="20.9572" x2="20.1245" y2="20.9572" gradientUnits="userSpaceOnUse">
<stop offset="0.2888" stop-color="white"/>
<stop offset="0.7796" stop-color="white" stop-opacity="0"/>
</linearGradient>
</defs>
</svg>
