<svg width="26" height="26" viewBox="0 0 26 26" fill="none" xmlns="http://www.w3.org/2000/svg">
<g filter="url(#filter0_d_8744_22295)">
<path d="M13 25C19.6274 25 25 19.6274 25 13C25 6.37258 19.6274 1 13 1C6.37258 1 1 6.37258 1 13C1 19.6274 6.37258 25 13 25Z" fill="white"/>
<path d="M13.8911 11.7955L18.5742 7.13825L16.7976 5.37109L13.0024 9.14541L9.20728 5.37109L7.43065 7.13825L12.1138 11.7955C12.3589 12.0393 12.681 12.1612 13.0018 12.1612C13.3227 12.1612 13.6448 12.0393 13.8898 11.7955H13.8911Z" fill="black"/>
<path d="M20.6704 16.7705L16.8753 12.9961L20.6704 9.22183L18.8938 7.45467L14.2107 12.1119C13.7199 12.6001 13.7199 13.3909 14.2107 13.8791L18.8938 18.5364L20.6704 16.7692V16.7705Z" fill="black"/>
<path d="M12.9961 16.8551L16.7913 20.6294L18.5679 18.8623L13.8848 14.205C13.394 13.7174 12.5989 13.7174 12.1081 14.205L7.42497 18.8623L9.2016 20.6294L12.9961 16.8551Z" fill="black"/>
<path d="M11.7879 13.8867C12.0235 13.6524 12.1561 13.3347 12.1561 13.0031C12.1561 12.6715 12.0241 12.3538 11.7879 12.1195L7.10476 7.46225L5.32812 9.22941L9.12328 13.0037L5.32812 16.778L7.10476 18.5452L11.7879 13.8879V13.8867Z" fill="black"/>
</g>
<path d="M24.3672 14.6918C24.2414 14.201 23.8373 13.7101 23.1099 13.1636C22.5261 12.7283 21.9065 12.4783 21.4125 12.4783C21.3137 12.4783 21.2239 12.4875 21.1341 12.5061C20.9096 12.5524 20.712 12.7191 20.5863 12.9691C20.4336 13.2655 20.3977 13.6638 20.4965 13.9046C20.5324 13.9787 20.5773 14.0713 20.6312 14.1547C20.1552 14.451 19.8858 14.5344 19.8499 14.5436C21.0892 14.9697 22.122 15.8588 22.7686 17.0166L22.7776 16.9054C22.8045 16.5998 22.8944 16.2478 23.0201 15.8866C23.1458 15.9237 23.2715 15.9422 23.3973 15.9422C23.7296 15.9422 24.0169 15.8033 24.1966 15.5532C24.3762 15.3031 24.448 14.9697 24.3672 14.6918Z" fill="#5E12A0"/>
<path d="M23.0739 15.618C23.8911 15.8496 24.2234 15.2012 24.1156 14.7659C23.9988 14.3306 23.6217 13.8861 22.9571 13.3859C22.2925 12.8858 21.619 12.682 21.1879 12.7746C20.7568 12.8673 20.6311 13.5434 20.7389 13.8027C20.7838 13.9046 20.8825 14.0528 21.0173 14.2195C20.8467 14.3399 20.685 14.4325 20.5503 14.5159C21.3765 14.8956 22.095 15.4883 22.6338 16.2293C22.6966 15.9792 22.7865 15.7569 22.8673 15.5624C22.9301 15.5717 23.002 15.5902 23.0739 15.618Z" fill="url(#paint0_radial_8744_22295)"/>
<path d="M18.3947 24.6942C21.1673 24.6942 23.4149 22.3762 23.4149 19.5168C23.4149 16.6575 21.1673 14.3395 18.3947 14.3395C15.6221 14.3395 13.3745 16.6575 13.3745 19.5168C13.3745 22.3762 15.6221 24.6942 18.3947 24.6942Z" fill="url(#paint1_radial_8744_22295)"/>
<path opacity="0.6" d="M23.7031 14.3396C23.0206 13.5987 22.4458 13.4042 21.7543 13.2467C21.2155 13.117 21.3592 12.8021 22.0148 12.867C21.7005 12.7558 21.4041 12.7281 21.1885 12.7744C20.7574 12.867 20.6317 13.5431 20.7395 13.8024C20.7844 13.9043 20.8832 14.0525 21.0179 14.2192C20.7754 14.3859 20.5689 14.5063 20.3982 14.5989C20.4791 14.636 20.5778 14.6823 20.6946 14.7471C20.9999 14.9138 21.3322 15.1917 21.3322 15.1917C20.8293 14.7471 20.937 14.5434 21.6286 14.0432C21.8441 13.8858 22.2392 13.9043 22.6075 14.0988C22.9757 14.2933 23.4068 14.7842 23.4068 14.7842L22.9937 15.5992C23.0206 15.6085 23.0475 15.6177 23.0745 15.627C23.3349 15.7011 23.5414 15.6826 23.7031 15.6177C23.8917 15.4973 24.3857 15.0898 23.7031 14.3396Z" fill="#A98698"/>
<path d="M21.7444 13.6913C21.924 13.7654 22.1575 13.895 22.445 14.0895C22.7862 14.3211 23.0826 14.5804 23.2712 14.7842C22.9568 15.2102 22.7503 15.7937 22.6246 16.2012C22.6874 16.2938 22.7593 16.3865 22.8221 16.4791C22.885 16.2475 22.9927 15.9048 23.1364 15.5622C23.1724 15.5714 23.2173 15.5714 23.2622 15.5714C23.3699 15.5714 23.4957 15.5529 23.5945 15.4695C23.6663 15.414 23.7472 15.3121 23.7382 15.1269C23.7382 14.9509 23.6035 14.7286 23.325 14.46C23.1275 14.2655 22.8581 14.0525 22.5886 13.858C21.8163 13.3301 21.2774 13.1819 21.0349 13.4319C20.8733 13.5987 20.8913 13.8024 20.9451 13.9506C20.6578 14.1451 20.4153 14.284 20.2537 14.3766C20.3614 14.4137 20.4602 14.46 20.568 14.5063C20.8553 14.3489 21.2684 14.0803 21.7444 13.6913ZM23.4418 15.0157C23.4687 15.062 23.4777 15.1083 23.4777 15.1361C23.4777 15.2195 23.4508 15.2473 23.4328 15.2658C23.3969 15.2936 23.325 15.3121 23.2622 15.3121C23.316 15.2009 23.3789 15.1083 23.4418 15.0157ZM21.2236 13.6357C21.2505 13.6079 21.3224 13.5894 21.4391 13.6079C21.3493 13.682 21.2595 13.7468 21.1697 13.8117C21.1607 13.7468 21.1697 13.682 21.2236 13.6357Z" fill="#5E12A0"/>
<path d="M18.395 14.0341C15.4583 14.0341 13.0784 16.4884 13.0784 19.5171C13.0784 22.5456 15.4583 25 18.395 25C21.3317 25 23.7115 22.5456 23.7115 19.5171C23.7115 16.4884 21.3227 14.0341 18.395 14.0341ZM18.395 24.6944C15.6199 24.6944 13.3747 22.379 13.3747 19.5171C13.3747 16.6551 15.6199 14.3397 18.395 14.3397C21.17 14.3397 23.4152 16.6551 23.4152 19.5171C23.4152 22.379 21.161 24.6944 18.395 24.6944Z" fill="#5E12A0"/>
<path opacity="0.6" d="M18.3947 24.6942C21.1673 24.6942 23.4149 22.3762 23.4149 19.5168C23.4149 16.6575 21.1673 14.3395 18.3947 14.3395C15.6221 14.3395 13.3745 16.6575 13.3745 19.5168C13.3745 22.3762 15.6221 24.6942 18.3947 24.6942Z" fill="url(#paint2_linear_8744_22295)"/>
<path opacity="0.6" d="M18.359 24.0644C15.6198 23.6106 13.7608 20.9525 14.2099 18.1276C14.4074 16.8773 15.0181 15.8122 15.8803 15.0435C14.623 15.7937 13.689 17.0996 13.4375 18.6926C12.9975 21.5174 14.8565 24.1756 17.5866 24.6294C19.1133 24.8887 20.5862 24.3979 21.6729 23.4347C20.7119 24.0089 19.5444 24.259 18.359 24.0644Z" fill="#A98698"/>
<path opacity="0.6" d="M19.1942 14.4141C17.9279 14.201 16.6976 14.4974 15.6917 15.155C15.6738 15.1735 15.6558 15.192 15.6558 15.192C16.042 14.9512 16.6078 14.7382 16.6078 14.7382C15.1529 15.6088 14.7039 16.5998 14.7039 16.5998C15.2696 15.4699 16.9311 14.6734 18.2333 14.6178C19.5355 14.5622 20.3886 14.9605 21.4304 15.8218C22.4722 16.6925 23.1008 18.4707 23.038 19.8785C22.9841 21.2863 22.2656 22.4255 22.2656 22.4255C22.7595 21.7679 23.0559 21.2863 23.2445 20.7954C23.2804 20.6472 23.3164 20.4991 23.3343 20.3416C23.7834 17.526 21.9333 14.8679 19.1942 14.4141Z" fill="url(#paint3_linear_8744_22295)"/>
<path d="M23.1629 19.4703C23.1629 22.184 21.0255 24.3883 18.3942 24.3883C15.7628 24.3883 13.6165 22.184 13.6165 19.4703H23.1629Z" fill="url(#paint4_linear_8744_22295)"/>
<g opacity="0.6">
<path opacity="0.6" d="M22.7862 19.4708C22.7862 22.1197 20.7566 24.2869 18.2061 24.3888C18.2689 24.3888 18.3318 24.3888 18.3947 24.3888C21.026 24.3888 23.1634 22.1845 23.1634 19.4708H22.7862Z" fill="url(#paint5_linear_8744_22295)"/>
</g>
<g opacity="0.7">
<path opacity="0.7" d="M14.2917 19.4708H13.6182C13.6182 22.1845 15.7556 24.3888 18.3869 24.3888C18.5037 24.3888 18.6114 24.3888 18.7192 24.3795C16.2495 24.1943 14.2917 22.0641 14.2917 19.4708Z" fill="url(#paint6_linear_8744_22295)"/>
</g>
<path d="M23.154 19.5173C23.154 18.9523 22.202 18.6281 20.9357 18.517C20.0197 18.4429 19.0947 18.5355 18.035 18.8689C17.1189 19.1468 16.2927 19.1005 15.691 19.0263C14.3529 18.8689 13.6165 18.8504 13.6165 19.5173C13.6165 20.4805 15.5204 21.6845 18.3762 21.2677C19.8221 21.0547 20.5675 20.6194 21.4207 20.323C22.3457 20.0081 23.154 20.0174 23.154 19.5173Z" fill="url(#paint7_linear_8744_22295)"/>
<path d="M19.9582 17.1838C20.4044 17.1838 20.7662 16.8106 20.7662 16.3503C20.7662 15.8899 20.4044 15.5167 19.9582 15.5167C19.5119 15.5167 19.1501 15.8899 19.1501 16.3503C19.1501 16.8106 19.5119 17.1838 19.9582 17.1838Z" fill="white"/>
<path d="M21.2772 17.804C21.4656 17.804 21.6184 17.6464 21.6184 17.452C21.6184 17.2577 21.4656 17.1001 21.2772 17.1001C21.0888 17.1001 20.936 17.2577 20.936 17.452C20.936 17.6464 21.0888 17.804 21.2772 17.804Z" fill="white"/>
<g opacity="0.6">
<path opacity="0.6" d="M22.4976 15.6831C22.4886 15.6831 22.4797 15.6831 22.4797 15.6831C22.4258 15.6739 22.3899 15.6183 22.3988 15.5535C22.4797 15.1274 22.8208 14.7199 22.8388 14.7014C22.8747 14.6551 22.9465 14.6551 22.9824 14.6921C23.0273 14.7292 23.0273 14.8033 22.9914 14.8403C22.9824 14.8496 22.6682 15.2293 22.5964 15.5998C22.5874 15.6554 22.5425 15.6831 22.4976 15.6831Z" fill="url(#paint8_linear_8744_22295)"/>
</g>
<path opacity="0.2" d="M18.0641 23.3792C18.203 23.3792 18.3155 23.2631 18.3155 23.1199C18.3155 22.9767 18.203 22.8606 18.0641 22.8606C17.9253 22.8606 17.8127 22.9767 17.8127 23.1199C17.8127 23.2631 17.9253 23.3792 18.0641 23.3792Z" fill="white"/>
<g opacity="0.4">
<path opacity="0.6" d="M17.9208 23.2889C17.822 23.187 17.822 23.0203 17.9208 22.9184C17.9387 22.8999 17.9567 22.8906 17.9746 22.8721C17.9387 22.8814 17.9118 22.8999 17.8849 22.9276C17.7861 23.0295 17.7861 23.1963 17.8849 23.2981C17.9657 23.3815 18.0913 23.4 18.1901 23.3444C18.1003 23.3815 17.9926 23.363 17.9208 23.2889Z" fill="url(#paint9_linear_8744_22295)"/>
</g>
<path opacity="0.3" d="M18.1525 23.0451C18.1823 23.0451 18.2064 23.0204 18.2064 22.9899C18.2064 22.9594 18.1823 22.9347 18.1525 22.9347C18.1228 22.9347 18.0986 22.9594 18.0986 22.9899C18.0986 23.0204 18.1228 23.0451 18.1525 23.0451Z" fill="white"/>
<path opacity="0.2" d="M19.3754 23.2501C19.5143 23.2501 19.6268 23.134 19.6268 22.9908C19.6268 22.8475 19.5143 22.7314 19.3754 22.7314C19.2366 22.7314 19.124 22.8475 19.124 22.9908C19.124 23.134 19.2366 23.2501 19.3754 23.2501Z" fill="white"/>
<g opacity="0.4">
<path opacity="0.6" d="M19.2298 23.1584C19.1311 23.0565 19.1311 22.8898 19.2298 22.7878C19.2478 22.7694 19.2658 22.7601 19.2837 22.7416C19.2478 22.7508 19.2208 22.7694 19.1939 22.7972C19.0952 22.899 19.0952 23.0657 19.1939 23.1676C19.2748 23.251 19.4004 23.2695 19.4992 23.2139C19.4094 23.251 19.3017 23.2324 19.2298 23.1584Z" fill="url(#paint10_linear_8744_22295)"/>
</g>
<path opacity="0.3" d="M19.464 22.9152C19.4938 22.9152 19.5179 22.8905 19.5179 22.86C19.5179 22.8295 19.4938 22.8048 19.464 22.8048C19.4343 22.8048 19.4102 22.8295 19.4102 22.86C19.4102 22.8905 19.4343 22.9152 19.464 22.9152Z" fill="white"/>
<path opacity="0.2" d="M18.7276 23.8517C18.8317 23.8517 18.9162 23.7647 18.9162 23.6573C18.9162 23.5498 18.8317 23.4628 18.7276 23.4628C18.6235 23.4628 18.5391 23.5498 18.5391 23.6573C18.5391 23.7647 18.6235 23.8517 18.7276 23.8517Z" fill="white"/>
<g opacity="0.4">
<path opacity="0.6" d="M18.6189 23.7792C18.5471 23.705 18.5471 23.5754 18.6189 23.5013C18.6279 23.4921 18.6458 23.4828 18.6548 23.4735C18.6279 23.4828 18.6099 23.5013 18.592 23.5198C18.5201 23.5939 18.5201 23.7236 18.592 23.7977C18.6548 23.8625 18.7446 23.8718 18.8254 23.8255C18.7536 23.8533 18.6728 23.8347 18.6189 23.7792Z" fill="url(#paint11_linear_8744_22295)"/>
</g>
<path opacity="0.3" d="M18.7898 23.5917C18.8097 23.5917 18.8257 23.5752 18.8257 23.5549C18.8257 23.5346 18.8097 23.5181 18.7898 23.5181C18.77 23.5181 18.7539 23.5346 18.7539 23.5549C18.7539 23.5752 18.77 23.5917 18.7898 23.5917Z" fill="white"/>
<path opacity="0.2" d="M19.885 23.7127C19.9892 23.7127 20.0736 23.6256 20.0736 23.5182C20.0736 23.4108 19.9892 23.3237 19.885 23.3237C19.781 23.3237 19.6965 23.4108 19.6965 23.5182C19.6965 23.6256 19.781 23.7127 19.885 23.7127Z" fill="white"/>
<g opacity="0.4">
<path opacity="0.6" d="M19.7793 23.6406C19.7075 23.5665 19.7075 23.4369 19.7793 23.3627C19.7883 23.3535 19.8062 23.3443 19.8152 23.335C19.7883 23.3443 19.7703 23.3627 19.7524 23.3813C19.6805 23.4553 19.6805 23.585 19.7524 23.6592C19.8152 23.724 19.905 23.7332 19.9858 23.6869C19.914 23.7147 19.8332 23.6962 19.7793 23.6406Z" fill="url(#paint12_linear_8744_22295)"/>
</g>
<path opacity="0.3" d="M19.9478 23.4532C19.9677 23.4532 19.9837 23.4367 19.9837 23.4163C19.9837 23.396 19.9677 23.3795 19.9478 23.3795C19.928 23.3795 19.9119 23.396 19.9119 23.4163C19.9119 23.4367 19.928 23.4532 19.9478 23.4532Z" fill="white"/>
<path opacity="0.2" d="M16.9936 23.287C17.2216 23.287 17.4065 23.0963 17.4065 22.861C17.4065 22.6257 17.2216 22.4349 16.9936 22.4349C16.7655 22.4349 16.5806 22.6257 16.5806 22.861C16.5806 23.0963 16.7655 23.287 16.9936 23.287Z" fill="white"/>
<g opacity="0.4">
<path opacity="0.6" d="M16.7608 23.129C16.5992 22.9623 16.5992 22.6937 16.7608 22.527C16.7877 22.4992 16.8146 22.4807 16.8505 22.4622C16.7967 22.4807 16.7518 22.5177 16.7069 22.5548C16.5453 22.7215 16.5453 22.9901 16.7069 23.1568C16.8416 23.2958 17.0481 23.3235 17.2097 23.2216C17.057 23.2865 16.8775 23.2587 16.7608 23.129Z" fill="url(#paint13_linear_8744_22295)"/>
</g>
<path opacity="0.3" d="M17.1364 22.7309C17.186 22.7309 17.2262 22.6894 17.2262 22.6383C17.2262 22.5871 17.186 22.5457 17.1364 22.5457C17.0868 22.5457 17.0466 22.5871 17.0466 22.6383C17.0466 22.6894 17.0868 22.7309 17.1364 22.7309Z" fill="white"/>
<path opacity="0.2" d="M20.6859 22.2401C20.9141 22.2401 21.0989 22.0494 21.0989 21.8141C21.0989 21.5788 20.9141 21.3881 20.6859 21.3881C20.4579 21.3881 20.2729 21.5788 20.2729 21.8141C20.2729 22.0494 20.4579 22.2401 20.6859 22.2401Z" fill="white"/>
<g opacity="0.4">
<path opacity="0.6" d="M20.4422 22.083C20.2805 21.9163 20.2805 21.6477 20.4422 21.481C20.4691 21.4532 20.496 21.4347 20.532 21.4161C20.478 21.4347 20.4332 21.4717 20.3883 21.5088C20.2267 21.6755 20.2267 21.9441 20.3883 22.1108C20.523 22.2497 20.7294 22.2775 20.8911 22.1756C20.7384 22.2405 20.5678 22.2127 20.4422 22.083Z" fill="url(#paint14_linear_8744_22295)"/>
</g>
<path opacity="0.3" d="M20.83 21.6847C20.8796 21.6847 20.9198 21.6432 20.9198 21.592C20.9198 21.5408 20.8796 21.4994 20.83 21.4994C20.7805 21.4994 20.7402 21.5408 20.7402 21.592C20.7402 21.6432 20.7805 21.6847 20.83 21.6847Z" fill="white"/>
<defs>
<filter id="filter0_d_8744_22295" x="0.488" y="0.488" width="25.024" height="25.024" filterUnits="userSpaceOnUse" color-interpolation-filters="sRGB">
<feFlood flood-opacity="0" result="BackgroundImageFix"/>
<feColorMatrix in="SourceAlpha" type="matrix" values="0 0 0 0 0 0 0 0 0 0 0 0 0 0 0 0 0 0 127 0" result="hardAlpha"/>
<feOffset/>
<feGaussianBlur stdDeviation="0.256"/>
<feColorMatrix type="matrix" values="0 0 0 0 0 0 0 0 0 0 0 0 0 0 0 0 0 0 0.13 0"/>
<feBlend mode="normal" in2="BackgroundImageFix" result="effect1_dropShadow_8744_22295"/>
<feBlend mode="normal" in="SourceGraphic" in2="effect1_dropShadow_8744_22295" result="shape"/>
</filter>
<radialGradient id="paint0_radial_8744_22295" cx="0" cy="0" r="1" gradientUnits="userSpaceOnUse" gradientTransform="translate(23.9518 14.1824) scale(4.01388 4.13951)">
<stop stop-color="#FFEAFF" stop-opacity="0.6"/>
<stop offset="0.6807" stop-color="#A087C9"/>
<stop offset="1" stop-color="#10002F"/>
</radialGradient>
<radialGradient id="paint1_radial_8744_22295" cx="0" cy="0" r="1" gradientUnits="userSpaceOnUse" gradientTransform="translate(22.901 18.5974) scale(11.2414 12.33)">
<stop stop-color="#FFEAFF" stop-opacity="0.6"/>
<stop offset="0.6807" stop-color="#A087C9"/>
<stop offset="1" stop-color="#10002F"/>
</radialGradient>
<linearGradient id="paint2_linear_8744_22295" x1="17.5894" y1="24.6208" x2="19.2945" y2="14.4209" gradientUnits="userSpaceOnUse">
<stop stop-color="#81FFFF"/>
<stop offset="0.6202" stop-color="white" stop-opacity="0"/>
</linearGradient>
<linearGradient id="paint3_linear_8744_22295" x1="21.9329" y1="16.0012" x2="17.665" y2="19.7983" gradientUnits="userSpaceOnUse">
<stop offset="0.2888" stop-color="white"/>
<stop offset="0.7796" stop-color="white" stop-opacity="0"/>
</linearGradient>
<linearGradient id="paint4_linear_8744_22295" x1="13.6205" y1="21.9264" x2="23.1606" y2="21.9264" gradientUnits="userSpaceOnUse">
<stop stop-color="#0002E9"/>
<stop offset="0.9952" stop-color="#FF00C7"/>
</linearGradient>
<linearGradient id="paint5_linear_8744_22295" x1="23.6127" y1="19.9024" x2="18.2694" y2="24.7989" gradientUnits="userSpaceOnUse">
<stop offset="0.2888" stop-color="white"/>
<stop offset="0.7796" stop-color="white" stop-opacity="0"/>
</linearGradient>
<linearGradient id="paint6_linear_8744_22295" x1="13.6222" y1="21.9269" x2="18.7261" y2="21.9269" gradientUnits="userSpaceOnUse">
<stop stop-color="#000292"/>
<stop offset="0.9952" stop-color="#7D00C7"/>
</linearGradient>
<linearGradient id="paint7_linear_8744_22295" x1="13.6269" y1="19.9258" x2="23.1542" y2="19.9258" gradientUnits="userSpaceOnUse">
<stop stop-color="#000292"/>
<stop offset="0.9952" stop-color="#BE00C7"/>
</linearGradient>
<linearGradient id="paint8_linear_8744_22295" x1="22.997" y1="14.6563" x2="22.2811" y2="15.7839" gradientUnits="userSpaceOnUse">
<stop offset="0.2888" stop-color="white"/>
<stop offset="0.7796" stop-color="white" stop-opacity="0"/>
</linearGradient>
<linearGradient id="paint9_linear_8744_22295" x1="17.8105" y1="23.1301" x2="18.1904" y2="23.1301" gradientUnits="userSpaceOnUse">
<stop offset="0.2888" stop-color="white"/>
<stop offset="0.7796" stop-color="white" stop-opacity="0"/>
</linearGradient>
<linearGradient id="paint10_linear_8744_22295" x1="19.1187" y1="22.9978" x2="19.4985" y2="22.9978" gradientUnits="userSpaceOnUse">
<stop offset="0.2888" stop-color="white"/>
<stop offset="0.7796" stop-color="white" stop-opacity="0"/>
</linearGradient>
<linearGradient id="paint11_linear_8744_22295" x1="18.533" y1="23.6606" x2="18.8182" y2="23.6606" gradientUnits="userSpaceOnUse">
<stop offset="0.2888" stop-color="white"/>
<stop offset="0.7796" stop-color="white" stop-opacity="0"/>
</linearGradient>
<linearGradient id="paint12_linear_8744_22295" x1="19.6935" y1="23.5221" x2="19.9786" y2="23.5221" gradientUnits="userSpaceOnUse">
<stop offset="0.2888" stop-color="white"/>
<stop offset="0.7796" stop-color="white" stop-opacity="0"/>
</linearGradient>
<linearGradient id="paint13_linear_8744_22295" x1="16.5816" y1="22.8713" x2="17.2019" y2="22.8713" gradientUnits="userSpaceOnUse">
<stop offset="0.2888" stop-color="white"/>
<stop offset="0.7796" stop-color="white" stop-opacity="0"/>
</linearGradient>
<linearGradient id="paint14_linear_8744_22295" x1="20.2664" y1="21.8249" x2="20.8867" y2="21.8249" gradientUnits="userSpaceOnUse">
<stop offset="0.2888" stop-color="white"/>
<stop offset="0.7796" stop-color="white" stop-opacity="0"/>
</linearGradient>
</defs>
</svg>
