<svg width="24" height="24" viewBox="0 0 24 24" fill="none" xmlns="http://www.w3.org/2000/svg">
<path d="M12 0C18.624 0 24 5.3712 24 12C24 18.6288 18.624 24 12 24C5.376 24 0 18.624 0 12C0 5.376 5.3712 0 12 0Z" fill="black"/>
<path fill-rule="evenodd" clip-rule="evenodd" d="M5.5488 10.8528H16.656C16.7952 10.8528 16.9248 10.9056 17.0208 11.0064L18.7776 12.7728C19.104 13.0992 18.8736 13.656 18.4128 13.656H7.3056C7.1664 13.656 7.0368 13.6032 6.9408 13.5024L5.184 11.736C4.8576 11.4144 5.088 10.8528 5.5488 10.8528ZM5.1792 8.5104L6.936 6.744C7.0368 6.6432 7.1664 6.5904 7.3008 6.5904H18.4032C18.864 6.5904 19.0992 7.1472 18.768 7.4736L17.016 9.24C16.92 9.3408 16.7856 9.3936 16.6512 9.3936H5.5488C5.088 9.3936 4.8576 8.8368 5.1792 8.5104ZM18.7728 16.008L17.016 17.7792C16.92 17.8752 16.7856 17.9328 16.6512 17.9328H5.5488C5.088 17.9328 4.8576 17.376 5.1792 17.0496L6.936 15.2784C7.0368 15.1824 7.1664 15.1248 7.3008 15.1248H18.4032C18.8688 15.12 19.104 15.6768 18.7728 16.008Z" fill="url(#paint0_linear_9106_13265)"/>
<defs>
<linearGradient id="paint0_linear_9106_13265" x1="5.82048" y1="18.4159" x2="18.1363" y2="6.10007" gradientUnits="userSpaceOnUse">
<stop stop-color="#CB4EE8"/>
<stop offset="1" stop-color="#10F4B1"/>
</linearGradient>
</defs>
</svg>
