<svg width="24" height="24" viewBox="0 0 24 24" fill="none" xmlns="http://www.w3.org/2000/svg">
<path d="M2.90982 4.14811C3.05886 3.96079 3.21678 3.78055 3.3747 3.60031C3.38178 3.59137 3.3978 3.58957 3.40488 3.58063C3.4191 3.56281 3.4422 3.55207 3.45636 3.53419L3.47058 3.51637C3.58068 3.41461 3.6978 3.30385 3.83286 3.20737C4.3107 2.84461 4.8066 2.56903 5.3295 2.38771C7.00668 1.79887 8.87364 2.16175 10.3377 3.54391C12.382 5.46013 12.1989 8.54707 10.567 10.5988C8.50488 13.6575 4.96104 17.9249 9.86777 21.7476C10.75 22.435 11.4045 23.0017 14.1835 23.8048C12.366 24.1396 10.6807 24.0354 8.80487 23.5563C7.47804 22.8074 5.39196 21.2038 4.68222 19.038C3.60954 15.7537 6.57078 10.8439 8.0019 8.95297C9.96677 6.33595 6.78744 3.50293 4.44672 6.66571C3.2232 8.31397 1.08264 12.9782 1.82652 16.4379C2.26146 18.3999 2.84118 19.83 5.13978 21.7945C4.71354 21.543 4.2996 21.2577 3.89808 20.9385C-1.44258 15.9636 -0.82297 8.27155 2.90982 4.14811Z" fill="url(#paint0_linear_2334_6267)"/>
<path d="M21.0902 19.8519C20.9411 20.0392 20.7832 20.2195 20.6253 20.3997C20.6182 20.4086 20.6022 20.4104 20.5951 20.4194C20.5809 20.4372 20.5578 20.4479 20.5436 20.4658L20.5294 20.4837C20.4193 20.5854 20.3022 20.6962 20.1671 20.7926C19.6893 21.1554 19.1934 21.431 18.6705 21.6123C16.9933 22.2011 15.1264 21.8383 13.6623 20.4561C11.6181 18.5399 11.8011 15.4529 13.433 13.4012C15.4951 10.3425 19.039 6.07512 14.1322 2.2524C13.25 1.56504 12.5955 0.998344 9.8165 0.195243C11.634 -0.139581 13.3193 -0.0354267 15.1951 0.443703C16.522 1.19262 18.608 2.79618 19.3178 4.962C20.3905 8.24629 17.4292 13.1561 15.9981 15.047C14.0332 17.6641 17.2126 20.4971 19.5533 17.3343C20.7768 15.686 22.9174 11.0218 22.1735 7.56211C21.7385 5.60016 21.1588 4.17006 18.8602 2.20554C19.2865 2.45706 19.7004 2.74236 20.1019 3.06156C25.4426 8.03641 24.823 15.7285 21.0902 19.8519Z" fill="url(#paint1_linear_2334_6267)"/>
<defs>
<linearGradient id="paint0_linear_2334_6267" x1="2.8894e-06" y1="10.8395" x2="40.6105" y2="10.8395" gradientUnits="userSpaceOnUse">
<stop stop-color="#0082FA"/>
<stop offset="1" stop-color="#00F2FE"/>
</linearGradient>
<linearGradient id="paint1_linear_2334_6267" x1="0.00012721" y1="12" x2="24.0001" y2="12" gradientUnits="userSpaceOnUse">
<stop stop-color="#0082FA"/>
<stop offset="1" stop-color="#00F2FE"/>
</linearGradient>
</defs>
</svg>
