<svg width="24" height="24" viewBox="0 0 24 24" fill="none" xmlns="http://www.w3.org/2000/svg">
<mask id="mask0_8744_21073" style="mask-type:alpha" maskUnits="userSpaceOnUse" x="0" y="0" width="24" height="24">
<path d="M12 24C18.6274 24 24 18.6274 24 12C24 5.37258 18.6274 0 12 0C5.37258 0 0 5.37258 0 12C0 18.6274 5.37258 24 12 24Z" fill="#D9D9D9"/>
</mask>
<g mask="url(#mask0_8744_21073)">
<path d="M24 0H0V24H24V0Z" fill="url(#paint0_radial_8744_21073)"/>
<path fill-rule="evenodd" clip-rule="evenodd" d="M2.04 12C2.04 6.49925 6.49925 2.04 12 2.04C17.5008 2.04 21.96 6.49925 21.96 12C21.96 17.5008 17.5008 21.96 12 21.96C6.49925 21.96 2.04 17.5008 2.04 12ZM4.31921 8.4155C4.29126 8.28626 4.11475 8.26141 4.05985 8.3817C3.55675 9.48395 3.27641 10.7092 3.27641 12C3.27641 13.2907 3.55674 14.516 4.05985 15.6182C4.11475 15.7386 4.29175 15.7135 4.32136 15.5846C4.4111 15.1939 4.53746 14.7918 4.69555 14.3838C5.53441 12.2191 7.01812 10.2799 8.64902 8.64902C9.32636 7.97168 10.0257 7.35994 10.7278 6.82172C10.8055 6.76213 10.7988 6.6426 10.7138 6.59398C10.1807 6.28909 9.66211 6.03936 9.16942 5.84843C8.35634 5.53334 7.64191 5.38928 7.06514 5.4016C6.49265 5.41382 6.09518 5.57708 5.83614 5.83613C5.5476 6.12467 5.37641 6.5884 5.40368 7.27194C5.42929 7.91408 5.63071 8.69765 6.01534 9.57271C6.06203 9.67894 6.03953 9.80333 5.95672 9.88459L5.40126 10.4788C5.27642 10.6013 5.07127 10.5769 4.99366 10.4201C4.70832 9.84388 4.45148 9.0271 4.31921 8.4155ZM8.38171 4.05984C8.26142 4.11475 8.28647 4.29175 8.41535 4.32136C8.80604 4.41109 9.20822 4.53746 9.61618 4.69555C11.4354 5.40055 13.482 6.78004 15.351 8.64902C15.9072 9.20518 16.5085 10.2097 16.6889 11.3916C16.7086 11.5203 16.8806 11.5648 16.9518 11.4558C17.4692 10.6623 17.873 9.88824 18.1516 9.1694C18.4667 8.35634 18.6107 7.64191 18.5984 7.06513C18.5862 6.49265 18.4229 6.09518 18.1639 5.83613C17.8688 5.54111 17.3588 5.36158 16.65 5.39888C15.9871 5.43378 15.3593 5.59219 14.4842 5.99213C14.368 6.04528 14.2316 6.03208 14.1294 5.95531L13.4756 5.44807C13.3602 5.36137 13.3676 5.18574 13.4914 5.11134C14.2229 4.67152 14.8396 4.39913 15.4276 4.29239C15.5693 4.26665 15.6113 4.05534 15.4792 3.99784C14.4133 3.53376 13.2367 3.27641 12 3.27641C10.7092 3.27641 9.48396 3.55674 8.38171 4.05984ZM14.474 14.4793C15.7967 13.119 15.8438 10.8905 14.4767 9.5233C13.9691 9.01572 13.451 8.54959 12.9318 8.128C12.3875 7.6859 11.6125 7.68592 11.0682 8.128C10.5483 8.55025 10.0301 9.01651 9.5233 9.5233C8.22997 10.8166 8.1998 12.8755 9.33947 14.2723C10.5968 15.8134 13.0759 15.8725 14.474 14.4793ZM12.5999 16.6814C12.47 16.6994 12.4237 16.873 12.5334 16.9447C13.3308 17.4656 14.1085 17.8717 14.8306 18.1516C15.6437 18.4667 16.3582 18.6107 16.9349 18.5984C17.5074 18.5862 17.9048 18.4229 18.1639 18.1639C18.4524 17.8753 18.6236 17.4116 18.5963 16.7281C18.571 16.0906 18.374 15.3275 17.9951 14.462C17.9425 14.342 17.9597 14.2024 18.0422 14.1007L18.6271 13.3807C18.7138 13.2742 18.8783 13.2808 18.9484 13.3987C19.353 14.079 19.5852 14.8988 19.6955 15.5273C19.7191 15.6624 19.9063 15.6941 19.9625 15.569C20.4515 14.4796 20.7236 13.2715 20.7236 12C20.7236 10.7092 20.4432 9.48397 19.9402 8.38172C19.8852 8.26144 19.7082 8.28648 19.6787 8.41536C19.5889 8.80606 19.4626 9.20822 19.3045 9.61616C18.5994 11.4354 17.22 13.482 15.351 15.351C14.628 16.074 13.6186 16.5404 12.5999 16.6814ZM15.6182 19.9402C15.7386 19.8852 15.7135 19.7082 15.5846 19.6787C15.1939 19.5889 14.7918 19.4626 14.3838 19.3044C12.5646 18.5994 10.518 17.22 8.64902 15.351C8.06606 14.768 7.48267 13.7765 7.30908 12.6124C7.28984 12.4834 7.11731 12.4382 7.04609 12.5476C6.5296 13.3399 6.1266 14.1127 5.84843 14.8306C5.53336 15.6437 5.38928 16.358 5.40161 16.9349C5.41384 17.5074 5.57708 17.9048 5.83614 18.1639C6.12142 18.4492 6.57761 18.6196 7.24854 18.5972C7.87494 18.5762 8.63866 18.3863 9.49289 18.0193C9.61081 17.9687 9.74737 17.9849 9.84817 18.0643L10.4677 18.5525C10.5789 18.6402 10.5704 18.8111 10.4475 18.8815C9.77081 19.2696 9.0127 19.5335 8.41466 19.6763C8.28606 19.707 8.26142 19.8852 8.38172 19.9402C9.48396 20.4432 10.7092 20.7236 12 20.7236C13.2907 20.7236 14.516 20.4432 15.6182 19.9402Z" fill="white"/>
<path d="M11.6257 9.65218C11.6313 9.64721 11.6366 9.64235 11.6421 9.6373C11.8611 9.4372 12.1981 9.44081 12.4128 9.64585C12.4174 9.65023 12.4217 9.65437 12.4264 9.65869C12.4998 9.72696 13.1632 10.3453 13.5506 10.7693C13.9471 11.2546 14.0333 11.9716 13.7659 12.5606C13.0303 14.1816 11.0007 14.1971 10.2438 12.5887C9.96068 11.9871 10.0506 11.2454 10.4667 10.7542C10.7807 10.4017 11.5389 9.72898 11.6257 9.65218Z" fill="white"/>
</g>
<path d="M23.3672 13.6918C23.2414 13.201 22.8373 12.7101 22.1099 12.1636C21.5261 11.7283 20.9065 11.4783 20.4125 11.4783C20.3137 11.4783 20.2239 11.4875 20.1341 11.5061C19.9096 11.5524 19.712 11.7191 19.5863 11.9691C19.4336 12.2655 19.3977 12.6638 19.4965 12.9046C19.5324 12.9787 19.5773 13.0713 19.6312 13.1547C19.1552 13.451 18.8858 13.5344 18.8499 13.5436C20.0892 13.9697 21.122 14.8588 21.7686 16.0166L21.7776 15.9054C21.8045 15.5998 21.8944 15.2478 22.0201 14.8866C22.1458 14.9237 22.2715 14.9422 22.3973 14.9422C22.7296 14.9422 23.0169 14.8033 23.1966 14.5532C23.3762 14.3031 23.448 13.9697 23.3672 13.6918Z" fill="#5E12A0"/>
<path d="M22.0739 14.618C22.8911 14.8496 23.2234 14.2012 23.1156 13.7659C22.9988 13.3306 22.6217 12.8861 21.9571 12.3859C21.2925 11.8858 20.619 11.682 20.1879 11.7746C19.7568 11.8673 19.6311 12.5434 19.7389 12.8027C19.7838 12.9046 19.8825 13.0528 20.0173 13.2195C19.8467 13.3399 19.685 13.4325 19.5503 13.5159C20.3765 13.8956 21.095 14.4883 21.6338 15.2293C21.6966 14.9792 21.7865 14.7569 21.8673 14.5624C21.9301 14.5717 22.002 14.5902 22.0739 14.618Z" fill="url(#paint1_radial_8744_21073)"/>
<path d="M17.3947 23.694C20.1673 23.694 22.4149 21.376 22.4149 18.5167C22.4149 15.6573 20.1673 13.3394 17.3947 13.3394C14.6221 13.3394 12.3745 15.6573 12.3745 18.5167C12.3745 21.376 14.6221 23.694 17.3947 23.694Z" fill="url(#paint2_radial_8744_21073)"/>
<path opacity="0.6" d="M22.7031 13.3396C22.0206 12.5987 21.4458 12.4042 20.7543 12.2467C20.2155 12.117 20.3592 11.8021 21.0148 11.867C20.7005 11.7558 20.4041 11.7281 20.1885 11.7744C19.7574 11.867 19.6317 12.5431 19.7395 12.8024C19.7844 12.9043 19.8832 13.0525 20.0179 13.2192C19.7754 13.3859 19.5689 13.5063 19.3982 13.5989C19.4791 13.636 19.5778 13.6823 19.6946 13.7471C19.9999 13.9138 20.3322 14.1917 20.3322 14.1917C19.8293 13.7471 19.937 13.5434 20.6286 13.0432C20.8441 12.8858 21.2392 12.9043 21.6075 13.0988C21.9757 13.2933 22.4068 13.7842 22.4068 13.7842L21.9937 14.5992C22.0206 14.6085 22.0475 14.6177 22.0745 14.627C22.3349 14.7011 22.5414 14.6826 22.7031 14.6177C22.8917 14.4973 23.3857 14.0898 22.7031 13.3396Z" fill="#A98698"/>
<path d="M20.7444 12.6911C20.924 12.7652 21.1575 12.8949 21.445 13.0894C21.7862 13.321 22.0826 13.5803 22.2712 13.784C21.9568 14.2101 21.7503 14.7936 21.6246 15.2011C21.6874 15.2937 21.7593 15.3863 21.8221 15.479C21.885 15.2474 21.9927 14.9047 22.1364 14.562C22.1724 14.5713 22.2173 14.5713 22.2622 14.5713C22.3699 14.5713 22.4957 14.5528 22.5945 14.4694C22.6663 14.4138 22.7472 14.312 22.7382 14.1267C22.7382 13.9508 22.6035 13.7285 22.325 13.4599C22.1275 13.2654 21.8581 13.0524 21.5886 12.8579C20.8163 12.3299 20.2774 12.1818 20.0349 12.4318C19.8733 12.5985 19.8913 12.8023 19.9451 12.9505C19.6578 13.145 19.4153 13.2839 19.2537 13.3765C19.3614 13.4136 19.4602 13.4599 19.568 13.5062C19.8553 13.3487 20.2684 13.0801 20.7444 12.6911ZM22.4418 14.0156C22.4687 14.0619 22.4777 14.1082 22.4777 14.136C22.4777 14.2194 22.4508 14.2471 22.4328 14.2657C22.3969 14.2934 22.325 14.312 22.2622 14.312C22.316 14.2008 22.3789 14.1082 22.4418 14.0156ZM20.2236 12.6356C20.2505 12.6078 20.3224 12.5893 20.4391 12.6078C20.3493 12.6819 20.2595 12.7467 20.1697 12.8116C20.1607 12.7467 20.1697 12.6819 20.2236 12.6356Z" fill="#5E12A0"/>
<path d="M17.395 13.0342C14.4583 13.0342 12.0784 15.4886 12.0784 18.5172C12.0784 21.5457 14.4583 24.0002 17.395 24.0002C20.3317 24.0002 22.7115 21.5457 22.7115 18.5172C22.7115 15.4886 20.3227 13.0342 17.395 13.0342ZM17.395 23.6945C14.6199 23.6945 12.3747 21.3791 12.3747 18.5172C12.3747 15.6553 14.6199 13.3398 17.395 13.3398C20.17 13.3398 22.4152 15.6553 22.4152 18.5172C22.4152 21.3791 20.161 23.6945 17.395 23.6945Z" fill="#5E12A0"/>
<path opacity="0.6" d="M17.3947 23.694C20.1673 23.694 22.4149 21.376 22.4149 18.5167C22.4149 15.6573 20.1673 13.3394 17.3947 13.3394C14.6221 13.3394 12.3745 15.6573 12.3745 18.5167C12.3745 21.376 14.6221 23.694 17.3947 23.694Z" fill="url(#paint3_linear_8744_21073)"/>
<path opacity="0.6" d="M17.359 23.0644C14.6198 22.6106 12.7608 19.9525 13.2099 17.1276C13.4074 15.8773 14.0181 14.8122 14.8803 14.0435C13.623 14.7937 12.689 16.0996 12.4375 17.6926C11.9975 20.5174 13.8565 23.1756 16.5866 23.6294C18.1133 23.8887 19.5862 23.3979 20.6729 22.4347C19.7119 23.0089 18.5444 23.259 17.359 23.0644Z" fill="#A98698"/>
<path opacity="0.6" d="M18.1942 13.4139C16.9279 13.2009 15.6976 13.4973 14.6917 14.1549C14.6738 14.1734 14.6558 14.1919 14.6558 14.1919C15.042 13.9511 15.6078 13.7381 15.6078 13.7381C14.1529 14.6087 13.7039 15.5997 13.7039 15.5997C14.2696 14.4698 15.9311 13.6733 17.2333 13.6177C18.5355 13.5621 19.3886 13.9604 20.4304 14.8217C21.4722 15.6923 22.1008 17.4706 22.038 18.8784C21.9841 20.2862 21.2656 21.4254 21.2656 21.4254C21.7595 20.7678 22.0559 20.2862 22.2445 19.7953C22.2804 19.6471 22.3164 19.4989 22.3343 19.3415C22.7834 16.5259 20.9333 13.8678 18.1942 13.4139Z" fill="url(#paint4_linear_8744_21073)"/>
<path d="M22.1629 18.4702C22.1629 21.1839 20.0255 23.3882 17.3942 23.3882C14.7628 23.3882 12.6165 21.1839 12.6165 18.4702H22.1629Z" fill="url(#paint5_linear_8744_21073)"/>
<g opacity="0.6">
<path opacity="0.6" d="M21.7862 18.4707C21.7862 21.1196 19.7566 23.2868 17.2061 23.3887C17.2689 23.3887 17.3318 23.3887 17.3947 23.3887C20.026 23.3887 22.1634 21.1844 22.1634 18.4707H21.7862Z" fill="url(#paint6_linear_8744_21073)"/>
</g>
<g opacity="0.7">
<path opacity="0.7" d="M13.2917 18.4707H12.6182C12.6182 21.1844 14.7556 23.3887 17.3869 23.3887C17.5037 23.3887 17.6114 23.3887 17.7192 23.3794C15.2495 23.1942 13.2917 21.064 13.2917 18.4707Z" fill="url(#paint7_linear_8744_21073)"/>
</g>
<path d="M22.154 18.5174C22.154 17.9524 21.202 17.6282 19.9357 17.5171C19.0197 17.443 18.0947 17.5356 17.035 17.869C16.1189 18.1469 15.2927 18.1006 14.691 18.0265C13.3529 17.869 12.6165 17.8505 12.6165 18.5174C12.6165 19.4806 14.5204 20.6846 17.3762 20.2678C18.8221 20.0548 19.5675 19.6195 20.4207 19.3231C21.3457 19.0082 22.154 19.0175 22.154 18.5174Z" fill="url(#paint8_linear_8744_21073)"/>
<path d="M18.9582 16.1837C19.4044 16.1837 19.7662 15.8105 19.7662 15.3502C19.7662 14.8898 19.4044 14.5166 18.9582 14.5166C18.5119 14.5166 18.1501 14.8898 18.1501 15.3502C18.1501 15.8105 18.5119 16.1837 18.9582 16.1837Z" fill="white"/>
<path d="M20.2772 16.804C20.4656 16.804 20.6184 16.6464 20.6184 16.452C20.6184 16.2577 20.4656 16.1001 20.2772 16.1001C20.0888 16.1001 19.936 16.2577 19.936 16.452C19.936 16.6464 20.0888 16.804 20.2772 16.804Z" fill="white"/>
<g opacity="0.6">
<path opacity="0.6" d="M21.4976 14.6833C21.4886 14.6833 21.4797 14.6833 21.4797 14.6833C21.4258 14.674 21.3899 14.6184 21.3988 14.5536C21.4797 14.1276 21.8208 13.72 21.8388 13.7015C21.8747 13.6552 21.9465 13.6552 21.9824 13.6923C22.0273 13.7293 22.0273 13.8034 21.9914 13.8404C21.9824 13.8497 21.6682 14.2294 21.5964 14.5999C21.5874 14.6555 21.5425 14.6833 21.4976 14.6833Z" fill="url(#paint9_linear_8744_21073)"/>
</g>
<path opacity="0.2" d="M17.0641 22.3792C17.203 22.3792 17.3155 22.2631 17.3155 22.1199C17.3155 21.9767 17.203 21.8606 17.0641 21.8606C16.9253 21.8606 16.8127 21.9767 16.8127 22.1199C16.8127 22.2631 16.9253 22.3792 17.0641 22.3792Z" fill="white"/>
<g opacity="0.4">
<path opacity="0.6" d="M16.9208 22.2889C16.822 22.187 16.822 22.0203 16.9208 21.9184C16.9387 21.8999 16.9567 21.8906 16.9746 21.8721C16.9387 21.8814 16.9118 21.8999 16.8849 21.9276C16.7861 22.0295 16.7861 22.1963 16.8849 22.2981C16.9657 22.3815 17.0913 22.4 17.1901 22.3444C17.1003 22.3815 16.9926 22.363 16.9208 22.2889Z" fill="url(#paint10_linear_8744_21073)"/>
</g>
<path opacity="0.3" d="M17.1525 22.045C17.1823 22.045 17.2064 22.0203 17.2064 21.9898C17.2064 21.9593 17.1823 21.9346 17.1525 21.9346C17.1228 21.9346 17.0986 21.9593 17.0986 21.9898C17.0986 22.0203 17.1228 22.045 17.1525 22.045Z" fill="white"/>
<path opacity="0.2" d="M18.3754 22.2501C18.5143 22.2501 18.6268 22.134 18.6268 21.9908C18.6268 21.8475 18.5143 21.7314 18.3754 21.7314C18.2366 21.7314 18.124 21.8475 18.124 21.9908C18.124 22.134 18.2366 22.2501 18.3754 22.2501Z" fill="white"/>
<g opacity="0.4">
<path opacity="0.6" d="M18.2298 22.1585C18.1311 22.0566 18.1311 21.8899 18.2298 21.788C18.2478 21.7695 18.2658 21.7602 18.2837 21.7417C18.2478 21.7509 18.2208 21.7695 18.1939 21.7973C18.0952 21.8991 18.0952 22.0658 18.1939 22.1677C18.2748 22.2511 18.4004 22.2696 18.4992 22.214C18.4094 22.2511 18.3017 22.2326 18.2298 22.1585Z" fill="url(#paint11_linear_8744_21073)"/>
</g>
<path opacity="0.3" d="M18.464 21.9151C18.4938 21.9151 18.5179 21.8904 18.5179 21.8598C18.5179 21.8294 18.4938 21.8047 18.464 21.8047C18.4343 21.8047 18.4102 21.8294 18.4102 21.8598C18.4102 21.8904 18.4343 21.9151 18.464 21.9151Z" fill="white"/>
<path opacity="0.2" d="M17.7276 22.8518C17.8317 22.8518 17.9162 22.7648 17.9162 22.6574C17.9162 22.5499 17.8317 22.4629 17.7276 22.4629C17.6235 22.4629 17.5391 22.5499 17.5391 22.6574C17.5391 22.7648 17.6235 22.8518 17.7276 22.8518Z" fill="white"/>
<g opacity="0.4">
<path opacity="0.6" d="M17.6189 22.7793C17.5471 22.7052 17.5471 22.5755 17.6189 22.5014C17.6279 22.4922 17.6458 22.4829 17.6548 22.4736C17.6279 22.4829 17.6099 22.5014 17.592 22.52C17.5201 22.594 17.5201 22.7237 17.592 22.7978C17.6548 22.8626 17.7446 22.8719 17.8254 22.8256C17.7536 22.8534 17.6728 22.8349 17.6189 22.7793Z" fill="url(#paint12_linear_8744_21073)"/>
</g>
<path opacity="0.3" d="M17.7898 22.5917C17.8097 22.5917 17.8257 22.5752 17.8257 22.5549C17.8257 22.5346 17.8097 22.5181 17.7898 22.5181C17.77 22.5181 17.7539 22.5346 17.7539 22.5549C17.7539 22.5752 17.77 22.5917 17.7898 22.5917Z" fill="white"/>
<path opacity="0.2" d="M18.885 22.7127C18.9892 22.7127 19.0736 22.6256 19.0736 22.5182C19.0736 22.4108 18.9892 22.3237 18.885 22.3237C18.781 22.3237 18.6965 22.4108 18.6965 22.5182C18.6965 22.6256 18.781 22.7127 18.885 22.7127Z" fill="white"/>
<g opacity="0.4">
<path opacity="0.6" d="M18.7793 22.6406C18.7075 22.5665 18.7075 22.4369 18.7793 22.3627C18.7883 22.3535 18.8062 22.3443 18.8152 22.335C18.7883 22.3443 18.7703 22.3627 18.7524 22.3813C18.6805 22.4553 18.6805 22.585 18.7524 22.6592C18.8152 22.724 18.905 22.7332 18.9858 22.6869C18.914 22.7147 18.8332 22.6962 18.7793 22.6406Z" fill="url(#paint13_linear_8744_21073)"/>
</g>
<path opacity="0.3" d="M18.9478 22.453C18.9677 22.453 18.9837 22.4366 18.9837 22.4162C18.9837 22.3959 18.9677 22.3794 18.9478 22.3794C18.928 22.3794 18.9119 22.3959 18.9119 22.4162C18.9119 22.4366 18.928 22.453 18.9478 22.453Z" fill="white"/>
<path opacity="0.2" d="M15.9936 22.2871C16.2216 22.2871 16.4065 22.0964 16.4065 21.8611C16.4065 21.6258 16.2216 21.4351 15.9936 21.4351C15.7655 21.4351 15.5806 21.6258 15.5806 21.8611C15.5806 22.0964 15.7655 22.2871 15.9936 22.2871Z" fill="white"/>
<g opacity="0.4">
<path opacity="0.6" d="M15.7608 22.129C15.5992 21.9623 15.5992 21.6937 15.7608 21.527C15.7877 21.4992 15.8146 21.4807 15.8505 21.4622C15.7967 21.4807 15.7518 21.5177 15.7069 21.5548C15.5453 21.7215 15.5453 21.9901 15.7069 22.1568C15.8416 22.2958 16.0481 22.3235 16.2097 22.2216C16.057 22.2865 15.8775 22.2587 15.7608 22.129Z" fill="url(#paint14_linear_8744_21073)"/>
</g>
<path opacity="0.3" d="M16.1364 21.7309C16.186 21.7309 16.2262 21.6894 16.2262 21.6383C16.2262 21.5871 16.186 21.5457 16.1364 21.5457C16.0868 21.5457 16.0466 21.5871 16.0466 21.6383C16.0466 21.6894 16.0868 21.7309 16.1364 21.7309Z" fill="white"/>
<path opacity="0.2" d="M19.6859 21.2403C19.9141 21.2403 20.0989 21.0495 20.0989 20.8142C20.0989 20.5789 19.9141 20.3882 19.6859 20.3882C19.4579 20.3882 19.2729 20.5789 19.2729 20.8142C19.2729 21.0495 19.4579 21.2403 19.6859 21.2403Z" fill="white"/>
<g opacity="0.4">
<path opacity="0.6" d="M19.4422 21.0829C19.2805 20.9162 19.2805 20.6476 19.4422 20.4809C19.4691 20.4531 19.496 20.4346 19.532 20.416C19.478 20.4346 19.4332 20.4716 19.3883 20.5087C19.2267 20.6754 19.2267 20.944 19.3883 21.1107C19.523 21.2496 19.7294 21.2774 19.8911 21.1755C19.7384 21.2404 19.5678 21.2126 19.4422 21.0829Z" fill="url(#paint15_linear_8744_21073)"/>
</g>
<path opacity="0.3" d="M19.83 20.6848C19.8796 20.6848 19.9198 20.6433 19.9198 20.5921C19.9198 20.541 19.8796 20.4995 19.83 20.4995C19.7805 20.4995 19.7402 20.541 19.7402 20.5921C19.7402 20.6433 19.7805 20.6848 19.83 20.6848Z" fill="white"/>
<defs>
<radialGradient id="paint0_radial_8744_21073" cx="0" cy="0" r="1" gradientUnits="userSpaceOnUse" gradientTransform="translate(24 -0.539999) rotate(134.363) scale(34.325 22.9646)">
<stop stop-color="#5278FF"/>
<stop offset="0.361196" stop-color="#BE7CFF"/>
<stop offset="0.756992" stop-color="#E69EFE"/>
<stop offset="1" stop-color="#F7D4F5"/>
</radialGradient>
<radialGradient id="paint1_radial_8744_21073" cx="0" cy="0" r="1" gradientUnits="userSpaceOnUse" gradientTransform="translate(22.9518 13.1824) scale(4.01388 4.13951)">
<stop stop-color="#FFEAFF" stop-opacity="0.6"/>
<stop offset="0.6807" stop-color="#A087C9"/>
<stop offset="1" stop-color="#10002F"/>
</radialGradient>
<radialGradient id="paint2_radial_8744_21073" cx="0" cy="0" r="1" gradientUnits="userSpaceOnUse" gradientTransform="translate(21.901 17.5972) scale(11.2414 12.33)">
<stop stop-color="#FFEAFF" stop-opacity="0.6"/>
<stop offset="0.6807" stop-color="#A087C9"/>
<stop offset="1" stop-color="#10002F"/>
</radialGradient>
<linearGradient id="paint3_linear_8744_21073" x1="16.5894" y1="23.6206" x2="18.2945" y2="13.4208" gradientUnits="userSpaceOnUse">
<stop stop-color="#81FFFF"/>
<stop offset="0.6202" stop-color="white" stop-opacity="0"/>
</linearGradient>
<linearGradient id="paint4_linear_8744_21073" x1="20.9329" y1="15.0011" x2="16.665" y2="18.7981" gradientUnits="userSpaceOnUse">
<stop offset="0.2888" stop-color="white"/>
<stop offset="0.7796" stop-color="white" stop-opacity="0"/>
</linearGradient>
<linearGradient id="paint5_linear_8744_21073" x1="12.6205" y1="20.9263" x2="22.1606" y2="20.9263" gradientUnits="userSpaceOnUse">
<stop stop-color="#0002E9"/>
<stop offset="0.9952" stop-color="#FF00C7"/>
</linearGradient>
<linearGradient id="paint6_linear_8744_21073" x1="22.6127" y1="18.9022" x2="17.2694" y2="23.7987" gradientUnits="userSpaceOnUse">
<stop offset="0.2888" stop-color="white"/>
<stop offset="0.7796" stop-color="white" stop-opacity="0"/>
</linearGradient>
<linearGradient id="paint7_linear_8744_21073" x1="12.6222" y1="20.9268" x2="17.7261" y2="20.9268" gradientUnits="userSpaceOnUse">
<stop stop-color="#000292"/>
<stop offset="0.9952" stop-color="#7D00C7"/>
</linearGradient>
<linearGradient id="paint8_linear_8744_21073" x1="12.6269" y1="18.926" x2="22.1542" y2="18.926" gradientUnits="userSpaceOnUse">
<stop stop-color="#000292"/>
<stop offset="0.9952" stop-color="#BE00C7"/>
</linearGradient>
<linearGradient id="paint9_linear_8744_21073" x1="21.997" y1="13.6564" x2="21.2811" y2="14.7841" gradientUnits="userSpaceOnUse">
<stop offset="0.2888" stop-color="white"/>
<stop offset="0.7796" stop-color="white" stop-opacity="0"/>
</linearGradient>
<linearGradient id="paint10_linear_8744_21073" x1="16.8105" y1="22.1301" x2="17.1904" y2="22.1301" gradientUnits="userSpaceOnUse">
<stop offset="0.2888" stop-color="white"/>
<stop offset="0.7796" stop-color="white" stop-opacity="0"/>
</linearGradient>
<linearGradient id="paint11_linear_8744_21073" x1="18.1187" y1="21.9979" x2="18.4985" y2="21.9979" gradientUnits="userSpaceOnUse">
<stop offset="0.2888" stop-color="white"/>
<stop offset="0.7796" stop-color="white" stop-opacity="0"/>
</linearGradient>
<linearGradient id="paint12_linear_8744_21073" x1="17.533" y1="22.6607" x2="17.8182" y2="22.6607" gradientUnits="userSpaceOnUse">
<stop offset="0.2888" stop-color="white"/>
<stop offset="0.7796" stop-color="white" stop-opacity="0"/>
</linearGradient>
<linearGradient id="paint13_linear_8744_21073" x1="18.6935" y1="22.5221" x2="18.9786" y2="22.5221" gradientUnits="userSpaceOnUse">
<stop offset="0.2888" stop-color="white"/>
<stop offset="0.7796" stop-color="white" stop-opacity="0"/>
</linearGradient>
<linearGradient id="paint14_linear_8744_21073" x1="15.5816" y1="21.8713" x2="16.2019" y2="21.8713" gradientUnits="userSpaceOnUse">
<stop offset="0.2888" stop-color="white"/>
<stop offset="0.7796" stop-color="white" stop-opacity="0"/>
</linearGradient>
<linearGradient id="paint15_linear_8744_21073" x1="19.2664" y1="20.8248" x2="19.8867" y2="20.8248" gradientUnits="userSpaceOnUse">
<stop offset="0.2888" stop-color="white"/>
<stop offset="0.7796" stop-color="white" stop-opacity="0"/>
</linearGradient>
</defs>
</svg>
