<svg width="24" height="24" viewBox="0 0 24 24" fill="none" xmlns="http://www.w3.org/2000/svg">
<mask id="mask0_8283_5805" style="mask-type:luminance" maskUnits="userSpaceOnUse" x="0" y="0" width="24" height="24">
<path d="M0 0H24V24H0V0Z" fill="white"/>
</mask>
<g mask="url(#mask0_8283_5805)">
<path d="M12.0002 24C18.6275 24 24 18.6275 24 12.0001C24 5.37258 18.6275 0 12.0002 0C5.37262 0 0 5.37258 0 12.0001C0 18.6275 5.37255 24 12.0002 24Z" fill="#FF914D"/>
</g>
<path d="M11.9998 18.963C15.8452 18.963 18.9626 15.8453 18.9626 12C18.9626 8.1545 15.8452 5.0372 11.9998 5.0372C8.15418 5.0372 5.03666 8.1545 5.03666 12C5.03666 15.8454 8.15418 18.963 11.9998 18.963Z" fill="#FF914D"/>
<path d="M12.0245 1.53076C10.7293 1.53076 9.67877 6.22908 9.67877 12.0246C9.67877 17.8202 10.7293 22.5185 12.0245 22.5185C13.3198 22.5185 14.3703 17.8202 14.3703 12.0246C14.3703 6.22908 13.3199 1.53076 12.0245 1.53076ZM12.1865 21.9262C12.0384 22.1238 11.8902 21.9757 11.8902 21.9757C11.2939 21.2844 10.9956 20.0003 10.9956 20.0003C9.95193 16.6424 10.2003 9.43243 10.2003 9.43243C10.6907 3.70861 11.5828 2.35641 11.8863 2.05617C11.9173 2.02546 11.9582 2.00677 12.0017 2.00346C12.0451 1.99989 12.0884 2.01184 12.1239 2.03717C12.5643 2.34928 12.9338 3.65428 12.9338 3.65428C14.0246 7.70378 13.9258 11.5061 13.9258 11.5061C14.0246 14.8149 13.3791 18.5184 13.3791 18.5184C12.8822 21.3332 12.1865 21.9262 12.1865 21.9262Z" fill="white"/>
<path d="M21.1265 6.80253C20.4816 5.67853 15.8842 7.10553 10.8546 9.98964C5.82494 12.8737 2.27721 16.123 2.9218 17.2464C3.56613 18.3699 8.16408 16.9432 13.1937 14.0593C18.2234 11.1752 21.7711 7.92602 21.1265 6.80253ZM3.51674 17.0922C3.26978 17.061 3.32552 16.8582 3.32552 16.8582C3.62849 15.9968 4.59232 15.0991 4.59232 15.0991C6.98697 12.523 13.3648 9.15071 13.3648 9.15071C18.5732 6.72751 20.1908 6.82958 20.6014 6.94269C20.6434 6.95452 20.6799 6.98079 20.7045 7.01688C20.7291 7.05297 20.7401 7.09657 20.7357 7.14002C20.6864 7.67785 19.7358 8.64734 19.7358 8.64734C16.768 11.6099 13.4206 13.4166 13.4206 13.4166C10.5998 15.1494 7.06589 16.4321 7.06589 16.4321C4.37715 17.4009 3.51674 17.0922 3.51674 17.0922Z" fill="white"/>
<path d="M21.1042 17.284C21.7543 16.163 18.2153 12.8989 13.2034 9.99295C8.19178 7.08731 3.59444 5.64264 2.94525 6.7655C2.29599 7.88845 5.83412 11.1506 10.8491 14.0563C15.8637 16.9622 20.4548 18.4069 21.1042 17.284ZM3.37602 7.1985C3.27995 6.97087 3.48248 6.91619 3.48248 6.91619C4.3799 6.74678 5.64008 7.13287 5.64008 7.13287C9.0687 7.91353 15.1824 11.7431 15.1824 11.7431C19.8897 15.037 20.6116 16.4878 20.7198 16.8998C20.7307 16.9421 20.7265 16.9868 20.7077 17.0262C20.6889 17.0655 20.6568 17.097 20.6171 17.115C20.1261 17.3397 18.8116 17.005 18.8116 17.005C14.7597 15.9185 11.5193 13.9279 11.5193 13.9279C8.60758 12.3577 5.72865 9.94131 5.72865 9.94131C3.54105 8.09926 3.37652 7.20097 3.37652 7.20097L3.37602 7.1985Z" fill="white"/>
<path d="M11.9998 13.2348C12.6816 13.2348 13.2343 12.6819 13.2343 12C13.2343 11.3182 12.6816 10.7654 11.9998 10.7654C11.3178 10.7654 10.7651 11.3182 10.7651 12C10.7651 12.682 11.3178 13.2348 11.9998 13.2348ZM17.0616 8C17.4571 8 17.7777 7.66823 17.7777 7.25925C17.7777 6.84999 17.457 6.51853 17.0616 6.51853C16.6662 6.51853 16.3455 6.84999 16.3455 7.25925C16.3455 7.66823 16.6662 8 17.0616 8ZM5.30869 10.5184C5.70415 10.5184 6.02479 10.1867 6.02479 9.77768C6.02479 9.36873 5.70408 9.03703 5.30869 9.03703C4.91324 9.03703 4.5926 9.36873 4.5926 9.77769C4.5926 10.1867 4.91332 10.5184 5.30869 10.5184ZM10.5434 19.6048C10.9387 19.6048 11.2591 19.2731 11.2591 18.8641C11.2591 18.4552 10.9387 18.1234 10.5434 18.1234C10.1476 18.1234 9.82723 18.4552 9.82723 18.8641C9.82723 19.2732 10.1476 19.6048 10.5434 19.6048Z" fill="white"/>
</svg>
