<svg width="24" height="24" viewBox="0 0 24 24" fill="none" xmlns="http://www.w3.org/2000/svg">
<path d="M12 24C18.6274 24 24 18.6274 24 12C24 5.37258 18.6274 0 12 0C5.37258 0 0 5.37258 0 12C0 18.6274 5.37258 24 12 24Z" fill="#7B2BF9"/>
<path d="M20.6256 10.1664C20.28 8.5104 19.4592 6.9936 18.2352 5.7696C16.5696 4.104 14.3568 3.1872 12 3.1872C9.6432 3.1872 7.4304 4.0992 5.7648 5.7648C5.3568 6.1728 5.0016 6.6096 4.6896 7.0704C4.5984 7.1952 4.512 7.3248 4.44 7.464C3.624 8.8224 3.1872 10.3728 3.1872 12C3.1872 14.3568 4.104 16.5696 5.7696 18.2352C7.4352 19.9008 9.648 20.8176 12.0048 20.8176C14.3616 20.8176 16.5744 19.9008 18.24 18.2352C19.0224 17.4528 19.6464 16.5408 20.0832 15.5568C20.136 15.4512 20.1792 15.336 20.2224 15.2208C20.6208 14.2128 20.8272 13.1232 20.8272 12.0048C20.8272 11.4144 20.7696 10.8528 20.6544 10.2864C20.6496 10.2576 20.6304 10.1856 20.6256 10.1664ZM17.568 6.1392C17.616 6.1872 17.6688 6.2352 17.7216 6.288C18.4992 7.0656 19.104 7.9776 19.5024 8.9664C19.5408 9.0624 19.4592 9.1728 19.3488 9.1536C19.1184 9.1104 18.8544 9.096 18.5664 9.1008C18.3648 9.1056 18.1872 8.9616 18.1536 8.7696C17.9952 7.8864 17.7648 7.0752 17.4768 6.3648C17.4624 6.3264 17.4432 6.288 17.4288 6.24C17.3904 6.1488 17.5008 6.0672 17.568 6.1392ZM18.408 11.3088C18.408 11.2176 18.5232 11.1744 18.5808 11.2512C18.6432 11.3424 18.7104 11.4384 18.7728 11.5296C18.8544 11.6544 18.9312 11.7792 18.9984 11.904C19.0416 11.9808 19.032 12.0768 18.9744 12.144C18.8832 12.2448 18.7776 12.3552 18.6672 12.4656C18.6288 12.504 18.5856 12.5472 18.5424 12.5904C18.4896 12.6384 18.3984 12.6 18.4032 12.5328C18.408 12.3984 18.4128 12.2688 18.4128 12.1296C18.4176 11.8464 18.4176 11.5776 18.408 11.3088ZM7.3056 5.4144C8.6688 4.44 10.2912 3.9168 12 3.9168C12.4512 3.9168 12.8976 3.9552 13.3344 4.0224C13.4496 4.0416 13.4928 4.1904 13.3968 4.2624C12.9744 4.5936 12.5856 5.0832 12.2352 5.7168C12.1536 5.8752 11.9712 5.9472 11.7984 5.8992C10.6464 5.5776 9.5136 5.424 8.4672 5.4576C8.0784 5.472 7.7184 5.5104 7.3728 5.5728C7.2768 5.5968 7.2288 5.472 7.3056 5.4144ZM6.1536 17.496C5.9808 17.1792 6.2016 16.4352 7.32 15.3024C7.4352 15.1872 7.4256 14.9952 7.296 14.8896C7.2528 14.856 7.2096 14.8224 7.1616 14.784C7.0512 14.6976 6.888 14.7024 6.7872 14.8032C6.7632 14.8272 6.7488 14.8416 6.744 14.8464C6.1872 15.4176 5.7936 15.9504 5.5776 16.4304C5.5152 16.5696 5.328 16.584 5.2464 16.4544C4.3776 15.1488 3.912 13.6128 3.912 12.0048C3.912 11.4336 3.9696 10.8624 4.0896 10.3152C4.1088 10.2336 4.224 10.2288 4.2528 10.3104C4.4208 10.8624 4.6944 11.4384 5.0688 12.0144C5.5776 12.792 6.2448 13.5408 7.0416 14.232C7.3104 14.4672 7.5984 14.6928 7.9008 14.9136C8.5104 15.36 9.1632 15.768 9.864 16.128C10.1712 16.2912 10.4784 16.44 10.7856 16.584C10.9584 16.6608 11.1552 16.6656 11.328 16.5984C11.4768 16.5408 11.6208 16.4832 11.7696 16.4208C11.9328 16.3536 12.0192 16.1808 11.976 16.008C11.9712 15.9888 11.9664 15.9696 11.9664 15.96C11.7216 14.9376 11.5872 13.7808 11.568 12.576C11.568 12.5616 11.568 12.288 11.568 12.0048C11.568 11.7216 11.5776 11.592 11.5872 11.3856C11.6592 9.9264 11.9088 8.5584 12.3024 7.4016C12.336 7.296 12.2832 7.1808 12.1728 7.1424C12.072 7.1088 11.9664 7.0752 11.8608 7.0416C11.76 7.008 11.6448 7.0656 11.6064 7.1712C11.1792 8.424 10.9152 9.9072 10.848 11.4768C10.8384 11.6784 10.7328 11.8608 10.56 11.9616C9.6288 12.5136 8.7792 13.0992 8.0352 13.6848C7.8816 13.8096 7.6608 13.8 7.512 13.6752C6.7728 13.032 6.1488 12.336 5.6784 11.6112C4.752 10.1904 4.5312 8.856 5.0592 7.8432L5.064 7.8384C5.1312 7.728 5.2032 7.6176 5.2752 7.512C5.88 6.7152 7.0032 6.2496 8.496 6.1968C8.5872 6.192 8.688 6.192 8.7792 6.192C9.696 6.192 10.6752 6.3456 11.6736 6.6336C11.6928 6.6384 11.8368 6.6816 11.8656 6.6912C12.12 6.7728 12.552 6.9216 12.6096 6.9408C12.6336 6.9504 12.768 7.0032 12.7872 7.008C13.2768 7.2 13.7616 7.416 14.2416 7.6656C15.1728 8.1504 16.0224 8.7168 16.7712 9.3408C15.3552 9.6624 13.7088 10.2912 12.0528 11.1312C11.976 11.1696 11.9232 11.2464 11.9184 11.3328C11.9136 11.4336 11.904 11.64 11.8992 11.808C11.8944 11.9088 12.0048 11.9808 12.096 11.9328C13.7376 11.0688 15.3744 10.4304 16.7808 10.0848C17.0448 10.0224 17.2128 9.7728 17.1792 9.504C17.1552 9.3168 17.1264 9.1296 17.0928 8.952C17.0544 8.7264 16.9248 8.52 16.7472 8.3856C16.0896 7.8864 15.3648 7.4256 14.5872 7.0176C14.064 6.744 13.536 6.5088 12.9984 6.3024C12.888 6.2592 12.8352 6.1248 12.8976 6.0192C13.4448 5.04 14.0976 4.4928 14.736 4.4928C14.7408 4.4928 14.7504 4.4928 14.7552 4.4928C15.504 4.5072 16.248 5.2848 16.8048 6.6336C17.0832 7.3152 17.2992 8.1024 17.4528 8.9568C17.496 9.1968 17.5296 9.4416 17.5584 9.6912C17.5728 9.8208 17.5968 10.0176 17.6112 10.104C17.6736 10.752 17.6976 11.4288 17.688 12.1152C17.6784 12.552 17.6592 12.984 17.6208 13.4016C16.6176 14.208 15.3792 15.0192 14.016 15.7392C13.6464 15.9312 13.2768 16.1184 12.912 16.2912C12.8352 16.3296 12.5184 16.4688 12.4992 16.4784C12.1536 16.6368 11.8128 16.776 11.472 16.9104C11.4528 16.92 11.0688 17.064 11.0448 17.0736C11.016 17.0832 10.8192 17.1552 10.7952 17.1648C10.0608 17.424 9.3552 17.6208 8.712 17.7456C7.0848 18.0576 6.3216 17.8176 6.1536 17.496ZM8.3664 14.3568C9.0768 13.7808 9.912 13.1952 10.8288 12.648C10.848 13.8192 10.9776 14.9472 11.208 15.96C10.872 15.8112 10.5312 15.6576 10.1952 15.48C9.5424 15.144 8.928 14.7648 8.3664 14.3568ZM13.0416 20.0208C12.7008 20.064 12.3504 20.088 12 20.088C10.4256 20.088 8.9232 19.6416 7.6368 18.8112C7.5504 18.7536 7.5888 18.6144 7.6896 18.6096C7.7088 18.6096 7.7328 18.6096 7.7472 18.6048C8.0736 18.5856 8.4336 18.5376 8.8224 18.4608C9.648 18.2976 10.5696 18.0288 11.5344 17.6592C11.6208 17.6256 11.7168 17.6688 11.7552 17.7552C12.1296 18.6672 12.5856 19.3536 13.1088 19.7904C13.2 19.8672 13.1568 20.0064 13.0416 20.0208ZM16.464 17.8608C15.888 18.9984 15.1776 19.632 14.4864 19.6176C13.7376 19.6032 12.9936 18.8256 12.4368 17.4768C12.4032 17.3952 12.4416 17.2944 12.5232 17.256C12.528 17.2512 12.5328 17.2512 12.5424 17.2464C12.576 17.232 12.6192 17.2272 12.6576 17.2368C13.6896 17.5248 14.712 17.6784 15.6672 17.6784C15.768 17.6784 15.8736 17.6784 15.9744 17.6736C16.0896 17.6688 16.2096 17.664 16.3248 17.6544C16.4352 17.6544 16.512 17.7648 16.464 17.8608ZM16.7136 16.8816C16.4736 16.9152 16.2192 16.9392 15.9552 16.9488C15.3072 16.9728 14.6208 16.9152 13.92 16.7856C13.8336 16.7712 13.8192 16.6512 13.896 16.6128C14.0496 16.536 14.2032 16.4544 14.3568 16.3728C15.432 15.8016 16.44 15.1776 17.3184 14.5392C17.3808 14.4912 17.4768 14.5488 17.4624 14.6256C17.3376 15.36 17.1744 16.0512 16.9584 16.6752C16.9152 16.7904 16.824 16.8672 16.7136 16.8816ZM17.9088 17.5248C17.8512 17.5872 17.784 17.6544 17.7216 17.7168C17.616 17.8224 17.496 17.9328 17.3856 18.0336C17.3136 18.096 17.2032 18.0192 17.2416 17.9328C17.2512 17.9088 17.2656 17.8848 17.2752 17.856C17.3232 17.7504 17.3664 17.64 17.4192 17.5296C17.4288 17.5056 17.4528 17.4864 17.4768 17.4768C17.5872 17.448 17.7024 17.4144 17.808 17.3808C17.904 17.352 17.9712 17.4624 17.9088 17.5248ZM19.5312 14.9616C19.4976 15.0432 19.4688 15.1248 19.4304 15.2064C19.4208 15.2208 19.3728 15.3216 19.368 15.336C19.0992 15.8304 18.6576 16.2192 18.0816 16.4928C17.9472 16.5552 17.8032 16.4352 17.8416 16.2912C18.0432 15.5808 18.1872 14.8128 18.288 14.0016C18.3072 13.848 18.3792 13.7136 18.4944 13.6128C18.7392 13.4016 18.9696 13.1856 19.1808 12.9744C19.2816 12.8736 19.4592 12.9168 19.5024 13.056C19.7088 13.752 19.7232 14.4 19.5312 14.9616ZM19.6944 11.1744C19.6368 11.28 19.4784 11.2848 19.4112 11.184C19.4016 11.1696 19.392 11.1504 19.3824 11.136C19.1424 10.7616 18.864 10.4016 18.5568 10.0464C18.48 9.96 18.5424 9.8256 18.6576 9.8208H18.6624C19.3872 9.8208 19.7664 10.0032 19.8816 10.2192C19.9728 10.4016 19.944 10.7232 19.6944 11.1744ZM20.088 12.24C20.088 12.2928 20.0112 12.3072 19.992 12.2592C19.9824 12.24 19.9728 12.216 19.9632 12.1968C19.944 12.1584 19.9488 12.1104 19.9776 12.072C19.9824 12.0672 19.992 12.0528 20.0064 12.0336C20.04 11.9904 20.0928 11.9952 20.0928 12.0432C20.088 12.1104 20.088 12.1728 20.088 12.24Z" fill="white"/>
</svg>
