<svg width="24" height="24" viewBox="0 0 24 24" fill="none" xmlns="http://www.w3.org/2000/svg">
<path d="M12 24C18.6274 24 24 18.6274 24 12C24 5.37258 18.6274 0 12 0C5.37258 0 0 5.37258 0 12C0 18.6274 5.37258 24 12 24Z" fill="#ED4E33"/>
<path d="M9.89644 6.42548C6.6228 7.68422 6.32292 10.9078 5.38424 12.4133C4.43443 13.9367 2.25847 14.7772 2.55603 15.5536C2.85357 16.3299 5.03213 15.496 6.75568 15.9914C8.45881 16.4808 10.8351 18.6757 14.1088 17.4169C15.7764 16.7757 16.984 15.4559 17.5393 13.8927C17.5991 13.7249 17.4874 13.5454 17.3102 13.5288C17.2001 13.5185 17.0944 13.5762 17.0448 13.6751C16.5425 14.6773 15.6808 15.5025 14.5532 15.936C12.6916 16.6518 10.6547 16.0898 9.4037 14.6804C9.11958 14.3603 8.87657 13.996 8.68475 13.5933C8.63201 13.4825 8.58186 13.3699 8.5374 13.2533C8.49267 13.1368 8.45467 13.0195 8.41977 12.9017C9.4037 12.4423 10.5391 11.9558 11.8263 11.4609C13.0884 10.9756 14.237 10.5821 15.2597 10.2672C15.9515 10.0543 16.5856 9.87721 17.1582 9.73246C17.1996 9.7221 17.2405 9.71175 17.281 9.70164C17.3676 9.68016 17.4566 9.7265 17.4886 9.80989L17.4892 9.81143C17.5081 9.86089 17.5243 9.91061 17.5418 9.96033C17.6551 10.2812 17.74 10.6054 17.796 10.9303C17.8206 11.0725 17.9757 11.1499 18.1029 11.0816C18.5729 10.8288 19.0028 10.5823 19.3869 10.3451C20.8184 9.46213 21.612 8.71326 21.4491 8.28885C21.2866 7.86418 20.1966 7.83984 18.5429 8.1428C18.0174 8.23913 17.4346 8.3686 16.8067 8.52889C16.6981 8.5566 16.5883 8.58534 16.4771 8.61486C15.9486 8.75521 15.3913 8.916 14.8109 9.09598C13.7316 9.43079 12.5737 9.8319 11.3783 10.2915C10.2599 10.7216 9.19998 11.1675 8.22794 11.6119C8.21606 9.72599 9.35432 7.94315 11.2159 7.22743C12.3433 6.79396 13.5351 6.82944 14.578 7.2378C14.6809 7.27819 14.798 7.25022 14.8732 7.16866C14.9937 7.03788 14.9567 6.82969 14.8003 6.74476C13.3433 5.95576 11.5641 5.78435 9.89644 6.42548Z" fill="white"/>
</svg>
