<svg width="24" height="24" viewBox="0 0 24 24" fill="none" xmlns="http://www.w3.org/2000/svg">
<path d="M24 12C24 18.6274 18.6274 24 12 24C5.37258 24 3.26963e-09 18.6274 3.26963e-09 12C3.26963e-09 5.37258 5.37258 3.26963e-09 12 3.26963e-09C18.6274 3.26963e-09 24 5.37258 24 12Z" fill="white"/>
<path d="M19.5695 5.03679L18.9105 5.69577C20.4829 7.41533 21.3549 9.6611 21.3549 11.9912C21.3549 14.3213 20.4829 16.5671 18.9105 18.2867L19.5695 18.9456C21.3182 17.0488 22.289 14.5634 22.289 11.9835C22.289 9.40363 21.3182 6.91822 19.5695 5.02142V5.03679Z" fill="#5A5564"/>
<path d="M5.71115 5.0939C7.43071 3.52147 9.67647 2.64948 12.0066 2.64948C14.3367 2.64948 16.5825 3.52147 18.302 5.0939L18.961 4.43493C17.0642 2.68622 14.5788 1.71535 11.9989 1.71535C9.41901 1.71535 6.93359 2.68622 5.03679 4.43493L5.71115 5.0939Z" fill="#5A5564"/>
<path d="M5.0939 18.2932C3.52334 16.5741 2.65249 14.3297 2.65249 12.0011C2.65249 9.67252 3.52334 7.42813 5.0939 5.70895L4.43493 5.04997C2.68622 6.94677 1.71535 9.43219 1.71535 12.0121C1.71535 14.592 2.68622 17.0774 4.43493 18.9742L5.0939 18.2932Z" fill="#5A5564"/>
<path d="M18.2932 18.9017C16.5737 20.4741 14.3279 21.3461 11.9978 21.3461C9.66769 21.3461 7.42192 20.4741 5.70236 18.9017L5.04338 19.5607C6.94018 21.3094 9.4256 22.2803 12.0055 22.2803C14.5854 22.2803 17.0708 21.3094 18.9676 19.5607L18.2932 18.9017Z" fill="#5A5564"/>
<path d="M16.1603 9.80121C16.0286 8.42614 14.8424 7.96485 13.3421 7.82427V5.93081H12.1823V7.78912C11.877 7.78912 11.5651 7.78912 11.2554 7.78912V5.93081H10.1043V7.83745H7.75178V9.07853C7.75178 9.07853 8.60846 9.06315 8.59528 9.07853C8.74974 9.06153 8.90477 9.10517 9.0277 9.20023C9.15062 9.29529 9.23185 9.43436 9.25425 9.58814V14.8072C9.25095 14.8615 9.23681 14.9145 9.21266 14.9632C9.18852 15.0118 9.15486 15.0552 9.11367 15.0906C9.07326 15.1267 9.02596 15.1543 8.97463 15.1716C8.92329 15.189 8.86897 15.1958 8.81493 15.1917C8.83031 15.2048 7.97144 15.1917 7.97144 15.1917L7.75178 16.5777H10.0824V18.5151H11.2422V16.6063H12.1691V18.5063H13.3311V16.5909C15.2905 16.4723 16.6568 15.989 16.8281 14.1549C16.9665 12.6787 16.2724 12.0198 15.1631 11.754C15.8374 11.4223 16.2548 10.8072 16.1603 9.80121ZM14.5349 13.9264C14.5349 15.3674 12.0659 15.2026 11.2795 15.2026V12.6458C12.0659 12.648 14.5349 12.4217 14.5349 13.9264ZM13.9967 10.324C13.9967 11.642 11.9363 11.4816 11.2817 11.4816V9.1576C11.9363 9.1576 13.9967 8.95112 13.9967 10.324Z" fill="#F09242"/>
<path d="M11.9978 24C9.62462 23.9996 7.30484 23.2955 5.33179 21.9767C3.35874 20.658 1.82101 18.7838 0.913031 16.5912C0.00505137 14.3986 -0.232403 11.9859 0.230689 9.65838C0.693782 7.33081 1.83663 5.19282 3.51472 3.51472C5.19282 1.83663 7.33081 0.693782 9.65838 0.230689C11.9859 -0.232403 14.3986 0.00505137 16.5912 0.913031C18.7838 1.82101 20.658 3.35874 21.9767 5.33179C23.2955 7.30484 23.9996 9.62462 24 11.9978C24.0003 13.574 23.69 15.1349 23.087 16.5912C22.4839 18.0475 21.5998 19.3707 20.4853 20.4853C19.3707 21.5998 18.0475 22.4839 16.5912 23.087C15.1349 23.69 13.574 24.0003 11.9978 24ZM11.9978 0.935755C9.81137 0.937492 7.67452 1.58738 5.85735 2.80327C4.04018 4.01916 2.62426 5.74648 1.78855 7.7669C0.952839 9.78732 0.734857 12.0101 1.16216 14.1544C1.58945 16.2987 2.64285 18.2682 4.1892 19.8139C5.73555 21.3596 7.70544 22.4123 9.84989 22.8387C11.9943 23.2651 14.2171 23.0463 16.2372 22.2098C18.2572 21.3733 19.984 19.9567 21.1992 18.139C22.4143 16.3213 23.0634 14.1842 23.0643 11.9978C23.0648 10.5446 22.7789 9.1055 22.223 7.76284C21.667 6.42019 20.8518 5.20029 19.824 4.17291C18.7962 3.14553 17.576 2.33082 16.2331 1.77537C14.8902 1.21991 13.451 0.9346 11.9978 0.935755Z" fill="#282138"/>
<path d="M23.5674 14.1213C23.443 13.6509 23.0432 13.1805 22.3236 12.6568C21.7461 12.2396 21.1331 12 20.6445 12C20.5468 12 20.4579 12.0089 20.3691 12.0266C20.147 12.071 19.9515 12.2308 19.8272 12.4704C19.6761 12.7544 19.6406 13.1361 19.7383 13.3669C19.7738 13.4379 19.8183 13.5267 19.8716 13.6065C19.4007 13.8906 19.1342 13.9704 19.0986 13.9793C20.3247 14.3876 21.3464 15.2397 21.986 16.3492L21.9949 16.2427C22.0216 15.9498 22.1104 15.6125 22.2348 15.2663C22.3591 15.3018 22.4835 15.3196 22.6079 15.3196C22.9366 15.3196 23.2209 15.1864 23.3986 14.9468C23.5763 14.7071 23.6473 14.3876 23.5674 14.1213Z" fill="#5E12A0"/>
<path d="M22.2882 15.0089C23.0966 15.2308 23.4254 14.6095 23.3187 14.1923C23.2032 13.7751 22.8301 13.3491 22.1727 12.8698C21.5153 12.3905 20.849 12.1952 20.4225 12.284C19.9961 12.3727 19.8717 13.0207 19.9783 13.2692C20.0227 13.3668 20.1204 13.5089 20.2537 13.6686C20.0849 13.784 19.925 13.8728 19.7917 13.9527C20.6091 14.3166 21.3198 14.8846 21.8528 15.5947C21.915 15.355 22.0039 15.142 22.0839 14.9556C22.146 14.9645 22.2171 14.9823 22.2882 15.0089Z" fill="url(#paint0_radial_8742_11817)"/>
<path d="M17.6591 23.7069C20.4019 23.7069 22.6253 21.4855 22.6253 18.7453C22.6253 16.0051 20.4019 13.7837 17.6591 13.7837C14.9163 13.7837 12.6929 16.0051 12.6929 18.7453C12.6929 21.4855 14.9163 23.7069 17.6591 23.7069Z" fill="url(#paint1_radial_8742_11817)"/>
<path opacity="0.6" d="M22.91 13.7837C22.2348 13.0737 21.6662 12.8873 20.9822 12.7364C20.4491 12.6121 20.5913 12.3104 21.2398 12.3725C20.9289 12.266 20.6357 12.2393 20.4225 12.2837C19.996 12.3725 19.8717 13.0204 19.9783 13.2689C20.0226 13.3666 20.1204 13.5086 20.2537 13.6684C20.0138 13.8281 19.8095 13.9435 19.6406 14.0323C19.7206 14.0678 19.8183 14.1122 19.9338 14.1743C20.2359 14.3341 20.5646 14.6003 20.5646 14.6003C20.0671 14.1743 20.1737 13.979 20.8578 13.4997C21.071 13.3488 21.4619 13.3666 21.8262 13.553C22.1904 13.7394 22.6168 14.2098 22.6168 14.2098L22.2082 14.9909C22.2348 14.9997 22.2615 15.0086 22.2881 15.0175C22.5458 15.0885 22.7501 15.0707 22.91 15.0086C23.0966 14.8932 23.5852 14.5027 22.91 13.7837Z" fill="#A98698"/>
<path d="M20.973 13.1625C21.1507 13.2335 21.3817 13.3577 21.666 13.5441C22.0036 13.766 22.2968 14.0146 22.4834 14.2098C22.1724 14.6181 21.968 15.1773 21.8437 15.5678C21.9059 15.6566 21.9769 15.7454 22.0391 15.8341C22.1013 15.6122 22.2079 15.2838 22.3501 14.9554C22.3856 14.9643 22.4301 14.9643 22.4745 14.9643C22.581 14.9643 22.7054 14.9465 22.8032 14.8666C22.8742 14.8134 22.9542 14.7158 22.9453 14.5382C22.9453 14.3696 22.8121 14.1566 22.5367 13.8992C22.3412 13.7128 22.0747 13.5086 21.8082 13.3222C21.0441 12.8163 20.5111 12.6743 20.2712 12.914C20.1113 13.0737 20.129 13.269 20.1823 13.411C19.8981 13.5974 19.6582 13.7305 19.4983 13.8193C19.6049 13.8548 19.7026 13.8992 19.8092 13.9436C20.0935 13.7927 20.5022 13.5353 20.973 13.1625ZM22.6521 14.4317C22.6788 14.4761 22.6877 14.5205 22.6877 14.5471C22.6877 14.627 22.661 14.6536 22.6432 14.6714C22.6078 14.698 22.5367 14.7158 22.4745 14.7158C22.5278 14.6092 22.5899 14.5205 22.6521 14.4317ZM20.4578 13.1092C20.4844 13.0826 20.5555 13.0648 20.671 13.0826C20.5822 13.1536 20.4933 13.2157 20.4045 13.2779C20.3956 13.2157 20.4045 13.1536 20.4578 13.1092Z" fill="#5E12A0"/>
<path d="M17.6593 13.491C14.7542 13.491 12.3999 15.8431 12.3999 18.7455C12.3999 21.6479 14.7542 24 17.6593 24C20.5645 24 22.9187 21.6479 22.9187 18.7455C22.9187 15.8431 20.5556 13.491 17.6593 13.491ZM17.6593 23.7071C14.9141 23.7071 12.6931 21.4882 12.6931 18.7455C12.6931 16.0028 14.9141 13.7839 17.6593 13.7839C20.4045 13.7839 22.6256 16.0028 22.6256 18.7455C22.6256 21.4882 20.3957 23.7071 17.6593 23.7071Z" fill="#5E12A0"/>
<path opacity="0.6" d="M17.6591 23.7069C20.4019 23.7069 22.6253 21.4855 22.6253 18.7453C22.6253 16.0051 20.4019 13.7837 17.6591 13.7837C14.9163 13.7837 12.6929 16.0051 12.6929 18.7453C12.6929 21.4855 14.9163 23.7069 17.6591 23.7069Z" fill="url(#paint2_linear_8742_11817)"/>
<path opacity="0.6" d="M17.6235 23.1034C14.9138 22.6684 13.0748 20.121 13.519 17.4139C13.7144 16.2157 14.3186 15.1949 15.1714 14.4583C13.9277 15.1772 13.0037 16.4287 12.755 17.9554C12.3196 20.6625 14.1586 23.2099 16.8594 23.6448C18.3697 23.8933 19.8267 23.4229 20.9017 22.4998C19.9511 23.0501 18.7962 23.2898 17.6235 23.1034Z" fill="#A98698"/>
<path opacity="0.6" d="M18.4499 13.8552C17.1972 13.651 15.9801 13.9351 14.9851 14.5653C14.9673 14.583 14.9495 14.6008 14.9495 14.6008C15.3315 14.37 15.8913 14.1658 15.8913 14.1658C14.452 15.0002 14.0078 15.9499 14.0078 15.9499C14.5675 14.867 16.2111 14.1037 17.4993 14.0504C18.7875 13.9972 19.6315 14.3789 20.662 15.2043C21.6926 16.0387 22.3145 17.7428 22.2523 19.092C22.199 20.4411 21.4883 21.5328 21.4883 21.5328C21.9769 20.9026 22.2701 20.4411 22.4566 19.9707C22.4922 19.8286 22.5277 19.6866 22.5455 19.5357C22.9897 16.8375 21.1595 14.2901 18.4499 13.8552Z" fill="url(#paint3_linear_8742_11817)"/>
<path d="M22.376 18.7007C22.376 21.3013 20.2615 23.4138 17.6585 23.4138C15.0554 23.4138 12.9321 21.3013 12.9321 18.7007H22.376Z" fill="url(#paint4_linear_8742_11817)"/>
<g opacity="0.6">
<path opacity="0.6" d="M22.0031 18.7012C22.0031 21.2397 19.9953 23.3166 17.4722 23.4143C17.5344 23.4143 17.5965 23.4143 17.6587 23.4143C20.2618 23.4143 22.3762 21.3018 22.3762 18.7012H22.0031Z" fill="url(#paint5_linear_8742_11817)"/>
</g>
<g opacity="0.7">
<path opacity="0.7" d="M13.5999 18.7012H12.9336C12.9336 21.3018 15.048 23.4143 17.6511 23.4143C17.7666 23.4143 17.8732 23.4143 17.9798 23.4053C15.5367 23.2279 13.5999 21.1864 13.5999 18.7012Z" fill="url(#paint6_linear_8742_11817)"/>
</g>
<path d="M22.3671 18.7457C22.3671 18.2043 21.4254 17.8936 20.1727 17.7871C19.2665 17.7161 18.3515 17.8048 17.3031 18.1244C16.397 18.3907 15.5796 18.3463 14.9844 18.2752C13.6606 18.1244 12.9321 18.1066 12.9321 18.7457C12.9321 19.6688 14.8156 20.8226 17.6407 20.4232C19.0711 20.2191 19.8085 19.8019 20.6525 19.5179C21.5675 19.2161 22.3671 19.225 22.3671 18.7457Z" fill="url(#paint7_linear_8742_11817)"/>
<path d="M19.2054 16.5095C19.6468 16.5095 20.0046 16.1519 20.0046 15.7107C20.0046 15.2695 19.6468 14.9119 19.2054 14.9119C18.7639 14.9119 18.406 15.2695 18.406 15.7107C18.406 16.1519 18.7639 16.5095 19.2054 16.5095Z" fill="white"/>
<path d="M20.5103 17.1038C20.6967 17.1038 20.8478 16.9528 20.8478 16.7665C20.8478 16.5802 20.6967 16.4292 20.5103 16.4292C20.324 16.4292 20.1729 16.5802 20.1729 16.7665C20.1729 16.9528 20.324 17.1038 20.5103 17.1038Z" fill="white"/>
<g opacity="0.6">
<path opacity="0.6" d="M21.7175 15.0713C21.7086 15.0713 21.6997 15.0713 21.6997 15.0713C21.6464 15.0624 21.6109 15.0091 21.6198 14.947C21.6997 14.5387 22.0372 14.1482 22.055 14.1304C22.0905 14.0861 22.1616 14.0861 22.1971 14.1216C22.2415 14.1571 22.2415 14.2281 22.2059 14.2636C22.1971 14.2724 21.8862 14.6364 21.8152 14.9914C21.8063 15.0446 21.7619 15.0713 21.7175 15.0713Z" fill="url(#paint8_linear_8742_11817)"/>
</g>
<path opacity="0.2" d="M17.3322 22.4467C17.4695 22.4467 17.5809 22.3355 17.5809 22.1982C17.5809 22.061 17.4695 21.9497 17.3322 21.9497C17.1948 21.9497 17.0835 22.061 17.0835 22.1982C17.0835 22.3355 17.1948 22.4467 17.3322 22.4467Z" fill="white"/>
<g opacity="0.4">
<path opacity="0.6" d="M17.1903 22.3601C17.0926 22.2625 17.0926 22.1028 17.1903 22.0051C17.2081 21.9873 17.2259 21.9785 17.2436 21.9607C17.2081 21.9696 17.1815 21.9873 17.1548 22.014C17.0571 22.1116 17.0571 22.2714 17.1548 22.369C17.2347 22.4489 17.3591 22.4666 17.4568 22.4134C17.368 22.4489 17.2614 22.4312 17.1903 22.3601Z" fill="url(#paint9_linear_8742_11817)"/>
</g>
<path opacity="0.3" d="M17.4193 22.1266C17.4487 22.1266 17.4725 22.1029 17.4725 22.0737C17.4725 22.0444 17.4487 22.0208 17.4193 22.0208C17.3898 22.0208 17.366 22.0444 17.366 22.0737C17.366 22.1029 17.3898 22.1266 17.4193 22.1266Z" fill="white"/>
<path opacity="0.2" d="M18.6295 22.323C18.7669 22.323 18.8782 22.2117 18.8782 22.0744C18.8782 21.9372 18.7669 21.8259 18.6295 21.8259C18.4922 21.8259 18.3809 21.9372 18.3809 22.0744C18.3809 22.2117 18.4922 22.323 18.6295 22.323Z" fill="white"/>
<g opacity="0.4">
<path opacity="0.6" d="M18.4855 22.2351C18.3878 22.1375 18.3878 21.9777 18.4855 21.88C18.5032 21.8623 18.521 21.8534 18.5388 21.8357C18.5032 21.8446 18.4766 21.8623 18.45 21.889C18.3523 21.9866 18.3523 22.1463 18.45 22.244C18.5299 22.3239 18.6542 22.3416 18.7519 22.2883C18.6631 22.3239 18.5566 22.3061 18.4855 22.2351Z" fill="url(#paint10_linear_8742_11817)"/>
</g>
<path opacity="0.3" d="M18.7171 22.002C18.7465 22.002 18.7704 21.9783 18.7704 21.9491C18.7704 21.9199 18.7465 21.8962 18.7171 21.8962C18.6877 21.8962 18.6638 21.9199 18.6638 21.9491C18.6638 21.9783 18.6877 22.002 18.7171 22.002Z" fill="white"/>
<path opacity="0.2" d="M17.9883 22.8996C18.0913 22.8996 18.1748 22.8162 18.1748 22.7133C18.1748 22.6103 18.0913 22.5269 17.9883 22.5269C17.8853 22.5269 17.8018 22.6103 17.8018 22.7133C17.8018 22.8162 17.8853 22.8996 17.9883 22.8996Z" fill="white"/>
<g opacity="0.4">
<path opacity="0.6" d="M17.8807 22.83C17.8097 22.759 17.8097 22.6348 17.8807 22.5637C17.8896 22.5549 17.9074 22.546 17.9162 22.5371C17.8896 22.546 17.8718 22.5637 17.8541 22.5815C17.783 22.6525 17.783 22.7768 17.8541 22.8478C17.9162 22.9099 18.0051 22.9188 18.085 22.8744C18.0139 22.9011 17.934 22.8833 17.8807 22.83Z" fill="url(#paint11_linear_8742_11817)"/>
</g>
<path opacity="0.3" d="M18.0499 22.6504C18.0695 22.6504 18.0854 22.6346 18.0854 22.6151C18.0854 22.5957 18.0695 22.5798 18.0499 22.5798C18.0303 22.5798 18.0144 22.5957 18.0144 22.6151C18.0144 22.6346 18.0303 22.6504 18.0499 22.6504Z" fill="white"/>
<path opacity="0.2" d="M19.1337 22.7663C19.2367 22.7663 19.3203 22.6829 19.3203 22.58C19.3203 22.477 19.2367 22.3936 19.1337 22.3936C19.0308 22.3936 18.9473 22.477 18.9473 22.58C18.9473 22.6829 19.0308 22.7663 19.1337 22.7663Z" fill="white"/>
<g opacity="0.4">
<path opacity="0.6" d="M19.0287 22.6972C18.9577 22.6262 18.9577 22.502 19.0287 22.4309C19.0376 22.4221 19.0553 22.4132 19.0642 22.4043C19.0376 22.4132 19.0198 22.4309 19.002 22.4487C18.931 22.5197 18.931 22.644 19.002 22.715C19.0642 22.7771 19.153 22.786 19.2329 22.7416C19.1619 22.7682 19.082 22.7505 19.0287 22.6972Z" fill="url(#paint12_linear_8742_11817)"/>
</g>
<path opacity="0.3" d="M19.1957 22.5176C19.2154 22.5176 19.2312 22.5018 19.2312 22.4823C19.2312 22.4628 19.2154 22.447 19.1957 22.447C19.1761 22.447 19.1602 22.4628 19.1602 22.4823C19.1602 22.5018 19.1761 22.5176 19.1957 22.5176Z" fill="white"/>
<path opacity="0.2" d="M16.2733 22.3583C16.4989 22.3583 16.6818 22.1755 16.6818 21.95C16.6818 21.7246 16.4989 21.5417 16.2733 21.5417C16.0477 21.5417 15.8647 21.7246 15.8647 21.95C15.8647 22.1755 16.0477 22.3583 16.2733 22.3583Z" fill="white"/>
<g opacity="0.4">
<path opacity="0.6" d="M16.0426 22.207C15.8827 22.0472 15.8827 21.7898 16.0426 21.63C16.0692 21.6034 16.0959 21.5856 16.1314 21.5679C16.0781 21.5856 16.0337 21.6211 15.9893 21.6567C15.8294 21.8164 15.8294 22.0738 15.9893 22.2336C16.1225 22.3667 16.3268 22.3934 16.4866 22.2957C16.3357 22.3578 16.158 22.3312 16.0426 22.207Z" fill="url(#paint13_linear_8742_11817)"/>
</g>
<path opacity="0.3" d="M16.414 21.8254C16.4631 21.8254 16.5028 21.7857 16.5028 21.7367C16.5028 21.6877 16.4631 21.6479 16.414 21.6479C16.365 21.6479 16.3252 21.6877 16.3252 21.7367C16.3252 21.7857 16.365 21.8254 16.414 21.8254Z" fill="white"/>
<path opacity="0.2" d="M19.9256 21.3552C20.1513 21.3552 20.3342 21.1724 20.3342 20.9469C20.3342 20.7214 20.1513 20.5386 19.9256 20.5386C19.7 20.5386 19.5171 20.7214 19.5171 20.9469C19.5171 21.1724 19.7 21.3552 19.9256 21.3552Z" fill="white"/>
<g opacity="0.4">
<path opacity="0.6" d="M19.6847 21.2045C19.5248 21.0447 19.5248 20.7874 19.6847 20.6276C19.7113 20.601 19.738 20.5832 19.7735 20.5654C19.7202 20.5832 19.6758 20.6187 19.6314 20.6542C19.4715 20.814 19.4715 21.0714 19.6314 21.2312C19.7646 21.3643 19.9689 21.3909 20.1288 21.2933C19.9778 21.3554 19.809 21.3288 19.6847 21.2045Z" fill="url(#paint14_linear_8742_11817)"/>
</g>
<path opacity="0.3" d="M20.0683 20.8228C20.1174 20.8228 20.1571 20.783 20.1571 20.734C20.1571 20.685 20.1174 20.6453 20.0683 20.6453C20.0193 20.6453 19.9795 20.685 19.9795 20.734C19.9795 20.783 20.0193 20.8228 20.0683 20.8228Z" fill="white"/>
<defs>
<radialGradient id="paint0_radial_8742_11817" cx="0" cy="0" r="1" gradientUnits="userSpaceOnUse" gradientTransform="translate(23.1567 13.6331) scale(3.97072 3.96702)">
<stop stop-color="#FFEAFF" stop-opacity="0.6"/>
<stop offset="0.6807" stop-color="#A087C9"/>
<stop offset="1" stop-color="#10002F"/>
</radialGradient>
<radialGradient id="paint1_radial_8742_11817" cx="0" cy="0" r="1" gradientUnits="userSpaceOnUse" gradientTransform="translate(22.1169 17.8642) scale(11.1205 11.8162)">
<stop stop-color="#FFEAFF" stop-opacity="0.6"/>
<stop offset="0.6807" stop-color="#A087C9"/>
<stop offset="1" stop-color="#10002F"/>
</radialGradient>
<linearGradient id="paint2_linear_8742_11817" x1="16.8625" y1="23.6366" x2="18.4481" y2="13.8454" gradientUnits="userSpaceOnUse">
<stop stop-color="#81FFFF"/>
<stop offset="0.6202" stop-color="white" stop-opacity="0"/>
</linearGradient>
<linearGradient id="paint3_linear_8742_11817" x1="21.1591" y1="15.3762" x2="17.056" y2="19.1445" gradientUnits="userSpaceOnUse">
<stop offset="0.2888" stop-color="white"/>
<stop offset="0.7796" stop-color="white" stop-opacity="0"/>
</linearGradient>
<linearGradient id="paint4_linear_8742_11817" x1="12.9361" y1="21.0544" x2="22.3737" y2="21.0544" gradientUnits="userSpaceOnUse">
<stop stop-color="#0002E9"/>
<stop offset="0.9952" stop-color="#FF00C7"/>
</linearGradient>
<linearGradient id="paint5_linear_8742_11817" x1="22.8207" y1="19.1147" x2="17.6884" y2="23.9696" gradientUnits="userSpaceOnUse">
<stop offset="0.2888" stop-color="white"/>
<stop offset="0.7796" stop-color="white" stop-opacity="0"/>
</linearGradient>
<linearGradient id="paint6_linear_8742_11817" x1="12.9376" y1="21.0549" x2="17.9866" y2="21.0549" gradientUnits="userSpaceOnUse">
<stop stop-color="#000292"/>
<stop offset="0.9952" stop-color="#7D00C7"/>
</linearGradient>
<linearGradient id="paint7_linear_8742_11817" x1="12.9425" y1="19.1372" x2="22.3674" y2="19.1372" gradientUnits="userSpaceOnUse">
<stop stop-color="#000292"/>
<stop offset="0.9952" stop-color="#BE00C7"/>
</linearGradient>
<linearGradient id="paint8_linear_8742_11817" x1="22.2115" y1="14.0872" x2="21.5349" y2="15.1873" gradientUnits="userSpaceOnUse">
<stop offset="0.2888" stop-color="white"/>
<stop offset="0.7796" stop-color="white" stop-opacity="0"/>
</linearGradient>
<linearGradient id="paint9_linear_8742_11817" x1="17.0813" y1="22.208" x2="17.4571" y2="22.208" gradientUnits="userSpaceOnUse">
<stop offset="0.2888" stop-color="white"/>
<stop offset="0.7796" stop-color="white" stop-opacity="0"/>
</linearGradient>
<linearGradient id="paint10_linear_8742_11817" x1="18.3756" y1="22.0812" x2="18.7513" y2="22.0812" gradientUnits="userSpaceOnUse">
<stop offset="0.2888" stop-color="white"/>
<stop offset="0.7796" stop-color="white" stop-opacity="0"/>
</linearGradient>
<linearGradient id="paint11_linear_8742_11817" x1="17.7958" y1="22.7164" x2="18.0779" y2="22.7164" gradientUnits="userSpaceOnUse">
<stop offset="0.2888" stop-color="white"/>
<stop offset="0.7796" stop-color="white" stop-opacity="0"/>
</linearGradient>
<linearGradient id="paint12_linear_8742_11817" x1="18.9438" y1="22.5836" x2="19.2259" y2="22.5836" gradientUnits="userSpaceOnUse">
<stop offset="0.2888" stop-color="white"/>
<stop offset="0.7796" stop-color="white" stop-opacity="0"/>
</linearGradient>
<linearGradient id="paint13_linear_8742_11817" x1="15.8653" y1="21.96" x2="16.479" y2="21.96" gradientUnits="userSpaceOnUse">
<stop offset="0.2888" stop-color="white"/>
<stop offset="0.7796" stop-color="white" stop-opacity="0"/>
</linearGradient>
<linearGradient id="paint14_linear_8742_11817" x1="19.5108" y1="20.9572" x2="20.1245" y2="20.9572" gradientUnits="userSpaceOnUse">
<stop offset="0.2888" stop-color="white"/>
<stop offset="0.7796" stop-color="white" stop-opacity="0"/>
</linearGradient>
</defs>
</svg>
