<svg width="24" height="24" viewBox="0 0 24 24" fill="none" xmlns="http://www.w3.org/2000/svg">
<path d="M12 24C18.6274 24 24 18.6274 24 12C24 5.37258 18.6274 0 12 0C5.37258 0 0 5.37258 0 12C0 18.6274 5.37258 24 12 24Z" fill="black"/>
<path d="M4.81251 13.9563C4.45329 13.597 4.21239 13.1821 4.0898 12.7116C3.97007 12.2383 3.97007 11.7649 4.0898 11.2916C4.21239 10.8154 4.45187 10.3991 4.80823 10.0427C5.17029 9.68051 5.58795 9.43956 6.06121 9.31982C6.53446 9.20004 7.00771 9.20004 7.48096 9.31982C7.95422 9.43956 8.37046 9.67909 8.72965 10.0384L9.61914 10.928L10.9363 9.61066L10.0468 8.72098C9.68754 8.36171 9.44666 7.94682 9.32407 7.47632C9.20433 7.00297 9.2029 6.53106 9.3198 6.06056C9.43954 5.58722 9.68046 5.16947 10.0425 4.80734C10.4017 4.44805 10.8179 4.20853 11.2912 4.08877C11.7644 3.969 12.2363 3.97043 12.7067 4.09304C13.1799 4.2128 13.5962 4.45233 13.9554 4.81162C14.3146 5.1709 14.5541 5.58722 14.6738 6.06056C14.7964 6.53106 14.7978 7.00297 14.6781 7.47632C14.5612 7.95252 14.3231 8.37025 13.9639 8.72956L13.0787 9.61493L14.3916 10.928L15.2768 10.0427C15.636 9.68336 16.0508 9.44241 16.5212 9.31982C16.9944 9.20004 17.4663 9.20146 17.9367 9.32409C18.4099 9.44383 18.8276 9.68478 19.1897 10.0469C19.5489 10.4062 19.7883 10.8225 19.9081 11.2959C20.0306 11.7664 20.0306 12.2369 19.9081 12.7074C19.7883 13.1807 19.5489 13.597 19.1897 13.9563C18.8276 14.3184 18.4099 14.5594 17.9367 14.6792C17.4663 14.7961 16.9944 14.7946 16.5212 14.6749C16.0536 14.5551 15.6402 14.3156 15.281 13.9563L14.3958 13.0709L13.0787 14.3883L13.9639 15.2737C14.3231 15.633 14.5612 16.0479 14.6781 16.5184C14.7978 16.9917 14.7978 17.465 14.6781 17.9384C14.5583 18.4118 14.3174 18.8295 13.9554 19.1916C13.599 19.548 13.1828 19.7876 12.7067 19.9102C12.2334 20.0299 11.7602 20.0299 11.2869 19.9102C10.8194 19.7904 10.406 19.5509 10.0468 19.1916C9.68469 18.8295 9.44239 18.4131 9.3198 17.9427C9.20006 17.4693 9.20006 16.996 9.3198 16.5226C9.44524 16.0493 9.68615 15.6344 10.0425 15.278L10.9363 14.384L9.62341 13.0709L8.72965 13.9649C8.3733 14.3213 7.95564 14.5594 7.47668 14.6792C7.00343 14.7989 6.53019 14.7989 6.05694 14.6792C5.58654 14.5565 5.17172 14.3156 4.81251 13.9563ZM5.8816 12.887C6.0441 13.0495 6.23226 13.1579 6.44608 13.2121C6.66275 13.2691 6.87799 13.2705 7.09181 13.2164C7.30563 13.1622 7.49379 13.0538 7.6563 12.8913L8.55006 11.9973L7.66057 11.1077C7.49807 10.9451 7.30848 10.8382 7.09181 10.7869C6.87799 10.7327 6.66418 10.7327 6.45036 10.7869C6.23654 10.8411 6.04695 10.9508 5.8816 11.1162C5.71909 11.2788 5.60934 11.4655 5.55232 11.6765C5.49816 11.8904 5.49816 12.1043 5.55232 12.3181C5.60934 12.5349 5.71909 12.7245 5.8816 12.887ZM11.1159 7.65168L12.0054 8.54135L12.8906 7.65595C13.0559 7.49058 13.1643 7.30238 13.2156 7.09137C13.2697 6.87751 13.2683 6.66222 13.2113 6.44551C13.1571 6.23165 13.0488 6.04345 12.8863 5.88092C12.7238 5.71838 12.5356 5.61003 12.3218 5.55585C12.108 5.50167 11.8942 5.50167 11.6804 5.55585C11.4694 5.60718 11.2812 5.71553 11.1159 5.88092C10.9534 6.04345 10.8422 6.23165 10.7823 6.44551C10.7282 6.65937 10.7282 6.87323 10.7823 7.08709C10.8422 7.30095 10.9534 7.48915 11.1159 7.65168ZM15.2145 12.0016L16.0997 12.887C16.2622 13.0495 16.4489 13.1593 16.6599 13.2164C16.8737 13.2705 17.3366 13.2691 17.5475 13.2121C17.7613 13.1579 17.9509 13.0481 18.1163 12.8827C18.2816 12.7173 18.39 12.5291 18.4413 12.3181C18.4983 12.1071 18.4997 11.8947 18.4456 11.6808C18.3914 11.467 18.2831 11.2788 18.1206 11.1162C17.9552 10.9508 17.7656 10.8411 17.5518 10.7869C17.338 10.7327 16.8737 10.7327 16.6599 10.7869C16.4518 10.8411 16.265 10.9508 16.0997 11.1162L15.2145 12.0016ZM11.1159 18.1223C11.2784 18.2849 11.4666 18.3932 11.6804 18.4474C11.8942 18.5016 12.1066 18.5001 12.3175 18.4431C12.5313 18.3889 12.7195 18.2806 12.882 18.118C13.0474 17.9526 13.1571 17.763 13.2113 17.5492C13.2683 17.3381 13.2697 17.1257 13.2156 16.9119C13.1643 16.6952 13.0574 16.5055 12.8948 16.343L12.0096 15.4576L11.1159 16.3515C10.9534 16.5141 10.8436 16.7008 10.7866 16.9119C10.7324 17.1257 10.7324 17.3396 10.7866 17.5534C10.8408 17.7673 10.9505 17.9569 11.1159 18.1223ZM10.6925 12.0016L12.0054 13.3147L13.3225 11.9973L12.0096 10.6842L10.6925 12.0016Z" fill="white"/>
</svg>
