<svg width="24" height="24" viewBox="0 0 24 24" fill="none" xmlns="http://www.w3.org/2000/svg">
<path d="M12.1057 20.3902C17.3843 20.3902 21.6637 16.1115 21.6637 10.8329C21.6637 5.55439 17.3843 1.2749 12.1057 1.2749C6.82727 1.2749 2.54854 5.55439 2.54854 10.8329C2.54854 16.1115 6.82727 20.3902 12.1057 20.3902Z" fill="#2E3148"/>
<path d="M12.0833 16.2419C15.1327 16.2419 17.6054 13.7692 17.6054 10.7196C17.6054 7.67015 15.1327 5.1974 12.0833 5.1974C9.03299 5.1974 6.56098 7.67015 6.56098 10.7196C6.56098 13.7692 9.03299 16.2419 12.0833 16.2419Z" fill="#1B1E36"/>
<path d="M24 10.7249C24 12.3006 23.6894 13.8606 23.0864 15.3172C22.4834 16.7729 21.5993 18.0959 20.4854 19.2096C19.371 20.3242 18.048 21.2083 16.5923 21.8113C15.1364 22.4143 13.5757 22.7249 12 22.7249C10.4242 22.7249 8.8635 22.4143 7.40776 21.8113C5.95201 21.2083 4.62898 20.3242 3.51448 19.2096C2.40073 18.0959 1.51651 16.7729 0.913514 15.3172C0.310513 13.8606 0 12.3006 0 10.7249H2.87627C2.87627 11.9226 3.11174 13.1092 3.57074 14.2162C4.02899 15.3232 4.70101 16.3289 5.54851 17.1763C6.39601 18.0232 7.40173 18.6959 8.50876 19.1542C9.61576 19.6125 10.8015 19.8486 12 19.8486C13.1986 19.8486 14.3843 19.6125 15.4913 19.1542C16.5983 18.6959 17.604 18.0232 18.4514 17.1763C19.299 16.3289 19.971 15.3232 20.4293 14.2162C20.8883 13.1092 21.1237 11.9226 21.1237 10.7249H24Z" fill="#C73238"/>
<path d="M21.474 10.7249C21.474 11.9692 21.2287 13.2006 20.7524 14.3503C20.2763 15.4993 19.5787 16.5442 18.699 17.4239C17.8193 18.3036 16.7753 19.0012 15.6254 19.4775C14.4764 19.9536 13.2443 20.1982 12 20.1982C10.7557 20.1982 9.52422 19.9536 8.37448 19.4775C7.22549 19.0012 6.18072 18.3036 5.30096 17.4239C4.42122 16.5442 3.72374 15.4993 3.24749 14.3503C2.77124 13.2006 2.52674 11.9692 2.52674 10.7249H21.474Z" fill="#070B09"/>
<path d="M11.913 2.46811C10.9042 2.46811 10.086 6.12661 10.086 10.6401C10.086 15.1536 10.9042 18.8121 11.913 18.8121C12.9217 18.8121 13.74 15.1536 13.74 10.6401C13.74 6.12661 12.9217 2.46811 11.913 2.46811ZM12.039 18.3509C11.9235 18.5046 11.808 18.3891 11.808 18.3891C11.3437 17.8513 11.1112 16.8509 11.1112 16.8509C10.299 14.2363 10.4925 8.62111 10.4925 8.62111C10.8742 4.16387 11.5687 3.11084 11.805 2.87684C11.8297 2.85284 11.8612 2.8386 11.895 2.8356C11.9287 2.83334 11.9625 2.84235 11.9902 2.86185C12.333 3.10485 12.621 4.12184 12.621 4.12184C13.4707 7.27485 13.3934 10.2366 13.3934 10.2366C13.4707 12.8129 12.9683 15.6973 12.9683 15.6973C12.5813 17.8889 12.039 18.3509 12.039 18.3509Z" fill="white"/>
<path d="M19.0006 6.5729C18.4987 5.69766 14.9183 6.80915 11.0018 9.05465C7.08451 11.3009 4.32151 13.8313 4.82401 14.7059C5.32577 15.5812 8.90627 14.4705 12.8227 12.2242C16.74 9.9779 19.503 7.4474 19.0006 6.5729ZM5.28677 14.5859C5.09477 14.5619 5.13827 14.4036 5.13827 14.4036C5.37377 13.7332 6.12452 13.0342 6.12452 13.0342C7.98977 11.0279 12.9563 8.4014 12.9563 8.4014C17.0123 6.51441 18.2723 6.5939 18.5917 6.68165C18.6247 6.6914 18.6533 6.71165 18.672 6.7394C18.6916 6.7679 18.6997 6.80165 18.6967 6.8354C18.6577 7.25465 17.9176 8.00915 17.9176 8.00915C15.6067 10.3169 12.9997 11.7239 12.9997 11.7239C10.803 13.0732 8.05127 14.0722 8.05127 14.0722C5.95724 14.8266 5.28677 14.5859 5.28677 14.5859Z" fill="white"/>
<path d="M18.9833 14.7352C19.4894 13.8622 16.734 11.3197 12.831 9.05699C8.92798 6.79424 5.34748 5.66924 4.84198 6.54374C4.33648 7.41824 7.092 9.95849 10.9972 12.2212C14.9024 14.4847 18.4777 15.6097 18.9833 14.7352ZM5.17724 6.88124C5.10299 6.70349 5.26048 6.66149 5.26048 6.66149C5.95948 6.52949 6.94051 6.82949 6.94051 6.82949C9.61048 7.43774 14.3723 10.4205 14.3723 10.4205C18.0374 12.9855 18.6 14.115 18.684 14.436C18.693 14.469 18.6893 14.5035 18.675 14.5342C18.66 14.565 18.6353 14.5897 18.6044 14.6032C18.222 14.7787 17.1983 14.5177 17.1983 14.5177C14.043 13.6717 11.5192 12.1215 11.5192 12.1215C9.25198 10.899 7.00949 9.01724 7.00949 9.01724C5.30624 7.58249 5.17798 6.88274 5.17798 6.88274L5.17724 6.88124Z" fill="white"/>
<path d="M11.8935 11.5805C12.4246 11.5805 12.855 11.1501 12.855 10.6191C12.855 10.0881 12.4246 9.65756 11.8935 9.65756C11.3625 9.65756 10.932 10.0881 10.932 10.6191C10.932 11.1501 11.3625 11.5805 11.8935 11.5805Z" fill="white"/>
<path d="M15.8363 7.50519C16.1437 7.50519 16.3936 7.24719 16.3936 6.92844C16.3936 6.60969 16.1437 6.35169 15.8363 6.35169C15.528 6.35169 15.2783 6.60969 15.2783 6.92844C15.2783 7.24719 15.528 7.50519 15.8363 7.50519Z" fill="white"/>
<path d="M6.68248 9.4665C6.98998 9.4665 7.23976 9.20774 7.23976 8.88974C7.23976 8.571 6.98998 8.31224 6.68248 8.31224C6.37422 8.31224 6.12451 8.571 6.12451 8.88974C6.12451 9.20774 6.37422 9.4665 6.68248 9.4665Z" fill="white"/>
</svg>
