<svg width="24" height="24" viewBox="0 0 24 24" fill="none" xmlns="http://www.w3.org/2000/svg">
<path d="M24 12C24 5.37258 18.6274 0 12 0C5.37258 0 0 5.37258 0 12C0 18.6274 5.37258 24 12 24C18.6274 24 24 18.6274 24 12Z" fill="#120901"/>
<path d="M19.0475 11.6137C18.8454 11.6137 18.6433 11.6389 18.4664 11.74C18.2391 11.8916 18.0623 12.2452 18.0623 12.5736C18.0623 12.8515 18.3149 13.2052 18.5928 13.3568C19.3759 13.7609 20.2096 12.8515 19.8053 12.0936C19.679 11.8157 19.3506 11.6389 19.0475 11.6137Z" fill="#FF8500"/>
<path d="M12.7195 6.20766C12.9974 6.25819 13.4016 7.21815 13.4774 8.02658C13.5026 8.20335 13.4774 8.58233 13.4774 8.8602C13.4521 9.28965 13.4016 9.41595 13.25 9.61808C12.9216 10.0981 12.3153 10.4012 11.5322 10.4517C11.3048 10.477 10.9259 10.5023 10.7238 10.5023C10.3954 10.477 10.3701 10.477 10.4207 10.3507C10.4459 10.3001 10.5217 10.1233 10.5722 9.9717C10.9006 8.96122 11.6332 7.34447 12.0122 6.83922C12.2648 6.46028 12.5679 6.1824 12.7195 6.20766ZM12.4669 4.00985C12.3406 4.00985 12.189 4.03511 11.9616 4.1109C11.6332 4.21195 11.3301 4.38878 11.0522 4.61615C10.648 4.91929 10.5974 4.94456 10.5722 4.81824C10.547 4.61615 10.2185 4.33826 9.91538 4.313C9.61223 4.26248 9.23333 4.41404 9.08175 4.64141C9.00593 4.74245 8.80388 5.07086 8.60175 5.39927C8.24805 6.00557 8.12175 6.43502 8.24805 6.68765C8.32388 6.83922 8.2986 7.01606 8.0712 8.10233C7.66703 10.0728 7.01022 14.14 7.01022 14.9231C6.98496 16.6915 7.01022 18.3588 7.03548 18.6872C7.11127 19.1924 7.2881 19.5461 7.61655 19.7735C7.9449 20.0009 8.12175 20.0513 8.47545 19.9503C8.82908 19.8746 9.00593 19.7483 9.20805 19.4703C9.43538 19.142 9.48593 18.7883 9.48593 17.2472C9.46065 15.3779 9.71325 12.4222 9.86483 12.2453C9.91538 12.2201 10.2438 12.1948 10.6227 12.2453C12.0374 12.3716 13.1995 12.119 14.0837 11.4622C15.0437 10.7549 15.4478 9.9465 15.5236 8.58232C15.5994 6.78869 15.0184 5.19718 13.9826 4.38878C13.6542 4.16142 13.5532 4.13616 13.0479 4.06037C12.7953 4.00985 12.6185 3.98459 12.4669 4.00985Z" fill="white"/>
</svg>
