<svg width="24" height="24" viewBox="0 0 24 24" fill="none" xmlns="http://www.w3.org/2000/svg">
<path d="M24 12C24 18.6274 18.6274 24 12 24C5.37258 24 0 18.6274 0 12C0 5.37258 5.37258 0 12 0C18.6274 0 24 5.37258 24 12Z" fill="#082D63"/>
<path d="M11.9813 13.4219C12.5012 13.4219 12.9228 13.0005 12.9228 12.4807C12.9228 11.9609 12.5012 11.5395 11.9813 11.5395C11.4612 11.5395 11.0397 11.9609 11.0397 12.4807C11.0397 13.0005 11.4612 13.4219 11.9813 13.4219Z" fill="white"/>
<path fill-rule="evenodd" clip-rule="evenodd" d="M6.33168 10.7865C6.33168 10.7384 6.3375 10.6917 6.34845 10.6471C5.33807 9.6919 4.83684 8.90231 5.07517 8.49039C5.45593 7.8322 7.61643 8.33114 10.3321 9.60374C10.5916 6.61706 11.2407 4.5 12.0002 4.5C12.761 4.5 13.4109 6.62365 13.6696 9.61768C14.2411 9.35253 14.7879 9.12127 15.2988 8.92741C15.2967 8.90747 15.2957 8.88722 15.2957 8.86671C15.2957 8.55485 15.5401 8.30205 15.8417 8.30205C16.0412 8.30205 16.2157 8.41261 16.311 8.5777C17.7117 8.14698 18.6982 8.09325 18.9424 8.51846C19.3204 9.17719 17.807 10.7946 15.3429 12.5066C17.7981 14.2288 19.306 15.852 18.9248 16.5091C18.5439 17.1676 16.385 16.6682 13.6686 15.3949C13.4091 18.3823 12.7599 20.5 12.0002 20.5C11.5189 20.5 11.082 19.6498 10.7604 18.267C10.5114 18.2144 10.3241 17.9867 10.3241 17.7137C10.3241 17.5208 10.4177 17.3505 10.5604 17.2486C10.4663 16.6792 10.3887 16.0519 10.3308 15.381C7.60276 16.6468 5.43615 17.1401 5.05765 16.4805C4.67962 15.8217 6.19286 14.2044 8.65695 12.4924C8.07941 12.0875 7.55433 11.688 7.09393 11.3053C7.02765 11.3349 6.95459 11.3513 6.87782 11.3513C6.5762 11.3513 6.33168 11.0984 6.33168 10.7865ZM10.3 10.0047C10.2655 10.4756 10.2404 10.9657 10.2259 11.4706C9.78929 11.7377 9.37119 12.0068 8.97517 12.2744C8.22394 11.7361 7.63482 11.2678 7.36263 11.0468C7.40181 10.9689 7.42395 10.8804 7.42395 10.7865C7.42395 10.4747 7.17944 10.2218 6.87782 10.2218C6.7557 10.2218 6.64296 10.2633 6.552 10.3333C5.49502 9.31898 5.40413 8.82251 5.40413 8.82251L5.40362 8.82058C5.33038 8.64704 5.48495 8.60527 5.48495 8.60527C6.16928 8.4761 7.13049 8.77046 7.13049 8.77046C8.03464 8.97625 9.18361 9.45991 10.3 10.0047ZM11.1142 18.2191C11.2934 18.1265 11.4165 17.935 11.4165 17.7137C11.4165 17.4131 11.1892 17.1673 10.9026 17.15C10.8081 16.5396 10.7411 15.8748 10.6939 15.2095C11.1171 15.0062 11.5522 14.7853 11.9947 14.5482C12.4462 14.7929 12.8901 15.0204 13.3216 15.2295C13.1974 16.5099 13.0334 17.4506 13.0334 17.4506C12.6545 19.5964 12.1238 20.0485 12.1238 20.0485C12.0109 20.1992 11.8979 20.0861 11.8979 20.0861C11.4429 19.5592 11.2154 18.5803 11.2154 18.5803C11.1798 18.4656 11.1461 18.3449 11.1142 18.2191ZM15.4633 9.27386C14.9573 9.46241 14.3734 9.70045 13.7002 9.99998C13.735 10.4737 13.7602 10.967 13.7747 11.4752C14.2178 11.7491 14.6418 12.0248 15.0429 12.2989C15.8941 11.6943 16.9143 10.8901 17.8814 9.92496C17.8814 9.92496 18.6065 9.18579 18.6442 8.77594C18.6476 8.74277 18.6393 8.70944 18.6205 8.68187C18.6017 8.65434 18.5738 8.6343 18.5417 8.62529C18.3436 8.57079 17.7768 8.51957 16.3809 8.9573C16.339 9.22614 16.1135 9.43143 15.8417 9.43143C15.6948 9.43143 15.5614 9.37145 15.4633 9.27386ZM10.6403 10.173C10.6296 10.2875 10.6192 10.4045 10.6089 10.5239C10.6089 10.5239 10.5995 10.7965 10.5937 11.2486C10.7627 11.1481 10.9342 11.0479 11.1079 10.9483C11.2729 10.8537 11.4372 10.7612 11.6007 10.6709C11.2907 10.5053 10.9682 10.3374 10.6403 10.173ZM12.0059 10.4503C11.5547 10.2059 11.1112 9.97842 10.6799 9.76946C11.0634 6.03867 11.6773 5.1156 11.8949 4.90055C11.9185 4.87719 11.9497 4.86292 11.9828 4.86024C12.0159 4.85757 12.0489 4.86666 12.076 4.88592C12.4119 5.12382 12.6937 6.11889 12.6937 6.11889C13.0504 7.44266 13.2403 8.73183 13.3409 9.77266C12.9069 9.98046 12.4604 10.2068 12.0059 10.4503ZM11.9876 10.8798C11.592 11.1044 11.1098 11.3844 10.5898 11.7003C10.5877 12.1661 10.5909 12.7403 10.6073 13.3665C10.9373 13.5704 11.2755 13.7681 11.6144 13.9508C11.6144 13.9508 11.7491 14.0334 11.9949 14.1708C12.3567 13.9782 12.7179 13.774 13.065 13.5609C13.065 13.5609 13.2043 13.4858 13.4467 13.3418C13.4598 12.9304 13.4625 12.5136 13.4503 12.1048C13.4503 12.1048 13.4539 11.963 13.4507 11.7087C13.0493 11.4732 12.5458 11.1846 11.9876 10.8798ZM13.4401 11.2709C13.2624 11.1638 13.082 11.0571 12.8989 10.951C12.7262 10.8509 12.5541 10.7531 12.383 10.6576C12.7799 10.4367 13.0224 10.3086 13.0224 10.3086C13.1421 10.2529 13.2594 10.1989 13.3742 10.1467C13.4098 10.5825 13.4295 10.9636 13.4401 11.2709ZM13.7844 11.9061C13.7877 12.1022 13.7893 12.3003 13.7893 12.5C13.7893 12.7144 13.7874 12.9268 13.7837 13.1369C14.0469 12.9736 14.3704 12.7651 14.734 12.5149C14.6283 12.4397 14.5198 12.3631 14.4084 12.2851C14.4084 12.2851 14.1754 12.1393 13.7844 11.9061ZM15.0252 12.7242C14.6293 12.9918 14.2112 13.2608 13.7747 13.5279C13.7598 14.0455 13.7339 14.5476 13.698 15.0293C14.648 15.4628 15.8556 15.9426 17.1762 16.2965C17.1762 16.2965 18.1788 16.5517 18.5533 16.3804C18.5836 16.3667 18.608 16.3427 18.6224 16.3126C18.6367 16.2826 18.64 16.2484 18.6316 16.2163C18.554 15.9212 18.0632 14.9268 15.0252 12.7242ZM13.3545 14.8695C13.3856 14.5083 13.4125 14.1264 13.431 13.7355C13.2541 13.8411 13.0743 13.9462 12.892 14.0507C12.7077 14.1563 12.524 14.2594 12.3415 14.3599C12.6144 14.5055 12.9565 14.6806 13.3545 14.8695ZM11.6424 14.3548C11.4636 14.2553 11.2838 14.1532 11.1032 14.0486C10.9398 13.954 10.7784 13.8588 10.6193 13.7634C10.6312 14.1102 10.6474 14.4687 10.6691 14.8301C10.9833 14.6836 11.3112 14.5244 11.6424 14.3548ZM10.2166 13.1199C10.2131 12.9154 10.2113 12.7086 10.2113 12.5C10.2113 12.3083 10.2128 12.1182 10.2157 11.9298C9.91812 12.1143 9.61237 12.3085 9.30689 12.509C9.59424 12.7096 9.8999 12.9161 10.2166 13.1199ZM8.98767 12.721C9.37986 12.9882 9.79372 13.2568 10.2258 13.5238C10.2403 14.0321 10.2655 14.5255 10.3003 14.9994C9.12194 15.5318 8.21841 15.8596 8.21841 15.8596C6.16763 16.5982 5.51155 16.3629 5.51155 16.3629C5.32323 16.3393 5.36568 16.1846 5.36568 16.1846C5.59666 15.5279 6.33178 14.8435 6.33178 14.8435C6.96295 14.1648 7.95698 13.4135 8.98767 12.721Z" fill="white"/>
<path d="M23.3672 13.6918C23.2414 13.201 22.8373 12.7101 22.1099 12.1636C21.5261 11.7283 20.9065 11.4783 20.4125 11.4783C20.3137 11.4783 20.2239 11.4875 20.1341 11.5061C19.9096 11.5524 19.712 11.7191 19.5863 11.9691C19.4336 12.2655 19.3977 12.6638 19.4965 12.9046C19.5324 12.9787 19.5773 13.0713 19.6312 13.1547C19.1552 13.451 18.8858 13.5344 18.8499 13.5436C20.0892 13.9697 21.122 14.8588 21.7686 16.0166L21.7776 15.9054C21.8045 15.5998 21.8944 15.2478 22.0201 14.8866C22.1458 14.9237 22.2715 14.9422 22.3973 14.9422C22.7296 14.9422 23.0169 14.8033 23.1966 14.5532C23.3762 14.3031 23.448 13.9697 23.3672 13.6918Z" fill="#5E12A0"/>
<path d="M22.0739 14.618C22.8911 14.8496 23.2234 14.2012 23.1156 13.7659C22.9988 13.3306 22.6217 12.8861 21.9571 12.3859C21.2925 11.8858 20.619 11.682 20.1879 11.7746C19.7568 11.8673 19.6311 12.5434 19.7389 12.8027C19.7838 12.9046 19.8825 13.0528 20.0173 13.2195C19.8467 13.3399 19.685 13.4325 19.5503 13.5159C20.3765 13.8956 21.095 14.4883 21.6338 15.2293C21.6966 14.9792 21.7865 14.7569 21.8673 14.5624C21.9301 14.5717 22.002 14.5902 22.0739 14.618Z" fill="url(#paint0_radial_8283_5805)"/>
<path d="M17.3947 23.6942C20.1673 23.6942 22.4149 21.3762 22.4149 18.5168C22.4149 15.6575 20.1673 13.3395 17.3947 13.3395C14.6221 13.3395 12.3745 15.6575 12.3745 18.5168C12.3745 21.3762 14.6221 23.6942 17.3947 23.6942Z" fill="url(#paint1_radial_8283_5805)"/>
<path opacity="0.6" d="M22.7031 13.3396C22.0206 12.5987 21.4458 12.4042 20.7543 12.2467C20.2155 12.117 20.3592 11.8021 21.0148 11.867C20.7005 11.7558 20.4041 11.7281 20.1885 11.7744C19.7574 11.867 19.6317 12.5431 19.7395 12.8024C19.7844 12.9043 19.8832 13.0525 20.0179 13.2192C19.7754 13.3859 19.5689 13.5063 19.3982 13.5989C19.4791 13.636 19.5778 13.6823 19.6946 13.7471C19.9999 13.9138 20.3322 14.1917 20.3322 14.1917C19.8293 13.7471 19.937 13.5434 20.6286 13.0432C20.8441 12.8858 21.2392 12.9043 21.6075 13.0988C21.9757 13.2933 22.4068 13.7842 22.4068 13.7842L21.9937 14.5992C22.0206 14.6085 22.0475 14.6177 22.0745 14.627C22.3349 14.7011 22.5414 14.6826 22.7031 14.6177C22.8917 14.4973 23.3857 14.0898 22.7031 13.3396Z" fill="#A98698"/>
<path d="M20.7444 12.6913C20.924 12.7654 21.1575 12.895 21.445 13.0895C21.7862 13.3211 22.0826 13.5804 22.2712 13.7842C21.9568 14.2102 21.7503 14.7937 21.6246 15.2012C21.6874 15.2938 21.7593 15.3865 21.8221 15.4791C21.885 15.2475 21.9927 14.9048 22.1364 14.5622C22.1724 14.5714 22.2173 14.5714 22.2622 14.5714C22.3699 14.5714 22.4957 14.5529 22.5945 14.4695C22.6663 14.414 22.7472 14.3121 22.7382 14.1269C22.7382 13.9509 22.6035 13.7286 22.325 13.46C22.1275 13.2655 21.8581 13.0525 21.5886 12.858C20.8163 12.3301 20.2774 12.1819 20.0349 12.4319C19.8733 12.5987 19.8913 12.8024 19.9451 12.9506C19.6578 13.1451 19.4153 13.284 19.2537 13.3766C19.3614 13.4137 19.4602 13.46 19.568 13.5063C19.8553 13.3489 20.2684 13.0803 20.7444 12.6913ZM22.4418 14.0157C22.4687 14.062 22.4777 14.1083 22.4777 14.1361C22.4777 14.2195 22.4508 14.2473 22.4328 14.2658C22.3969 14.2936 22.325 14.3121 22.2622 14.3121C22.316 14.2009 22.3789 14.1083 22.4418 14.0157ZM20.2236 12.6357C20.2505 12.6079 20.3224 12.5894 20.4391 12.6079C20.3493 12.682 20.2595 12.7468 20.1697 12.8117C20.1607 12.7468 20.1697 12.682 20.2236 12.6357Z" fill="#5E12A0"/>
<path d="M17.395 13.0341C14.4583 13.0341 12.0784 15.4884 12.0784 18.5171C12.0784 21.5456 14.4583 24 17.395 24C20.3317 24 22.7115 21.5456 22.7115 18.5171C22.7115 15.4884 20.3227 13.0341 17.395 13.0341ZM17.395 23.6944C14.6199 23.6944 12.3747 21.379 12.3747 18.5171C12.3747 15.6551 14.6199 13.3397 17.395 13.3397C20.17 13.3397 22.4152 15.6551 22.4152 18.5171C22.4152 21.379 20.161 23.6944 17.395 23.6944Z" fill="#5E12A0"/>
<path opacity="0.6" d="M17.3947 23.6942C20.1673 23.6942 22.4149 21.3762 22.4149 18.5168C22.4149 15.6575 20.1673 13.3395 17.3947 13.3395C14.6221 13.3395 12.3745 15.6575 12.3745 18.5168C12.3745 21.3762 14.6221 23.6942 17.3947 23.6942Z" fill="url(#paint2_linear_8283_5805)"/>
<path opacity="0.6" d="M17.359 23.0644C14.6198 22.6106 12.7608 19.9525 13.2099 17.1276C13.4074 15.8773 14.0181 14.8122 14.8803 14.0435C13.623 14.7937 12.689 16.0996 12.4375 17.6926C11.9975 20.5174 13.8565 23.1756 16.5866 23.6294C18.1133 23.8887 19.5862 23.3979 20.6729 22.4347C19.7119 23.0089 18.5444 23.259 17.359 23.0644Z" fill="#A98698"/>
<path opacity="0.6" d="M18.1942 13.4141C16.9279 13.201 15.6976 13.4974 14.6917 14.155C14.6738 14.1735 14.6558 14.192 14.6558 14.192C15.042 13.9512 15.6078 13.7382 15.6078 13.7382C14.1529 14.6088 13.7039 15.5998 13.7039 15.5998C14.2696 14.4699 15.9311 13.6734 17.2333 13.6178C18.5355 13.5622 19.3886 13.9605 20.4304 14.8218C21.4722 15.6925 22.1008 17.4707 22.038 18.8785C21.9841 20.2863 21.2656 21.4255 21.2656 21.4255C21.7595 20.7679 22.0559 20.2863 22.2445 19.7954C22.2804 19.6472 22.3164 19.4991 22.3343 19.3416C22.7834 16.526 20.9333 13.8679 18.1942 13.4141Z" fill="url(#paint3_linear_8283_5805)"/>
<path d="M22.1629 18.4703C22.1629 21.184 20.0255 23.3883 17.3942 23.3883C14.7628 23.3883 12.6165 21.184 12.6165 18.4703H22.1629Z" fill="url(#paint4_linear_8283_5805)"/>
<g opacity="0.6">
<path opacity="0.6" d="M21.7862 18.4708C21.7862 21.1197 19.7566 23.2869 17.2061 23.3888C17.2689 23.3888 17.3318 23.3888 17.3947 23.3888C20.026 23.3888 22.1634 21.1845 22.1634 18.4708H21.7862Z" fill="url(#paint5_linear_8283_5805)"/>
</g>
<g opacity="0.7">
<path opacity="0.7" d="M13.2917 18.4708H12.6182C12.6182 21.1845 14.7556 23.3888 17.3869 23.3888C17.5037 23.3888 17.6114 23.3888 17.7192 23.3795C15.2495 23.1943 13.2917 21.0641 13.2917 18.4708Z" fill="url(#paint6_linear_8283_5805)"/>
</g>
<path d="M22.154 18.5173C22.154 17.9523 21.202 17.6281 19.9357 17.517C19.0197 17.4429 18.0947 17.5355 17.035 17.8689C16.1189 18.1468 15.2927 18.1005 14.691 18.0263C13.3529 17.8689 12.6165 17.8504 12.6165 18.5173C12.6165 19.4805 14.5204 20.6845 17.3762 20.2677C18.8221 20.0547 19.5675 19.6194 20.4207 19.323C21.3457 19.0081 22.154 19.0174 22.154 18.5173Z" fill="url(#paint7_linear_8283_5805)"/>
<path d="M18.9582 16.1838C19.4044 16.1838 19.7662 15.8106 19.7662 15.3503C19.7662 14.8899 19.4044 14.5167 18.9582 14.5167C18.5119 14.5167 18.1501 14.8899 18.1501 15.3503C18.1501 15.8106 18.5119 16.1838 18.9582 16.1838Z" fill="white"/>
<path d="M20.2772 16.804C20.4656 16.804 20.6184 16.6464 20.6184 16.452C20.6184 16.2577 20.4656 16.1001 20.2772 16.1001C20.0888 16.1001 19.936 16.2577 19.936 16.452C19.936 16.6464 20.0888 16.804 20.2772 16.804Z" fill="white"/>
<g opacity="0.6">
<path opacity="0.6" d="M21.4976 14.6831C21.4886 14.6831 21.4797 14.6831 21.4797 14.6831C21.4258 14.6739 21.3899 14.6183 21.3988 14.5535C21.4797 14.1274 21.8208 13.7199 21.8388 13.7014C21.8747 13.6551 21.9465 13.6551 21.9824 13.6921C22.0273 13.7292 22.0273 13.8033 21.9914 13.8403C21.9824 13.8496 21.6682 14.2293 21.5964 14.5998C21.5874 14.6554 21.5425 14.6831 21.4976 14.6831Z" fill="url(#paint8_linear_8283_5805)"/>
</g>
<path opacity="0.2" d="M17.0641 22.3792C17.203 22.3792 17.3155 22.2631 17.3155 22.1199C17.3155 21.9767 17.203 21.8606 17.0641 21.8606C16.9253 21.8606 16.8127 21.9767 16.8127 22.1199C16.8127 22.2631 16.9253 22.3792 17.0641 22.3792Z" fill="white"/>
<g opacity="0.4">
<path opacity="0.6" d="M16.9208 22.2889C16.822 22.187 16.822 22.0203 16.9208 21.9184C16.9387 21.8999 16.9567 21.8906 16.9746 21.8721C16.9387 21.8814 16.9118 21.8999 16.8849 21.9276C16.7861 22.0295 16.7861 22.1963 16.8849 22.2981C16.9657 22.3815 17.0913 22.4 17.1901 22.3444C17.1003 22.3815 16.9926 22.363 16.9208 22.2889Z" fill="url(#paint9_linear_8283_5805)"/>
</g>
<path opacity="0.3" d="M17.1525 22.0451C17.1823 22.0451 17.2064 22.0204 17.2064 21.9899C17.2064 21.9594 17.1823 21.9347 17.1525 21.9347C17.1228 21.9347 17.0986 21.9594 17.0986 21.9899C17.0986 22.0204 17.1228 22.0451 17.1525 22.0451Z" fill="white"/>
<path opacity="0.2" d="M18.3754 22.2501C18.5143 22.2501 18.6268 22.134 18.6268 21.9908C18.6268 21.8475 18.5143 21.7314 18.3754 21.7314C18.2366 21.7314 18.124 21.8475 18.124 21.9908C18.124 22.134 18.2366 22.2501 18.3754 22.2501Z" fill="white"/>
<g opacity="0.4">
<path opacity="0.6" d="M18.2298 22.1584C18.1311 22.0565 18.1311 21.8898 18.2298 21.7878C18.2478 21.7694 18.2658 21.7601 18.2837 21.7416C18.2478 21.7508 18.2208 21.7694 18.1939 21.7972C18.0952 21.899 18.0952 22.0657 18.1939 22.1676C18.2748 22.251 18.4004 22.2695 18.4992 22.2139C18.4094 22.251 18.3017 22.2324 18.2298 22.1584Z" fill="url(#paint10_linear_8283_5805)"/>
</g>
<path opacity="0.3" d="M18.464 21.9152C18.4938 21.9152 18.5179 21.8905 18.5179 21.86C18.5179 21.8295 18.4938 21.8048 18.464 21.8048C18.4343 21.8048 18.4102 21.8295 18.4102 21.86C18.4102 21.8905 18.4343 21.9152 18.464 21.9152Z" fill="white"/>
<path opacity="0.2" d="M17.7276 22.8517C17.8317 22.8517 17.9162 22.7647 17.9162 22.6573C17.9162 22.5498 17.8317 22.4628 17.7276 22.4628C17.6235 22.4628 17.5391 22.5498 17.5391 22.6573C17.5391 22.7647 17.6235 22.8517 17.7276 22.8517Z" fill="white"/>
<g opacity="0.4">
<path opacity="0.6" d="M17.6189 22.7792C17.5471 22.705 17.5471 22.5754 17.6189 22.5013C17.6279 22.4921 17.6458 22.4828 17.6548 22.4735C17.6279 22.4828 17.6099 22.5013 17.592 22.5198C17.5201 22.5939 17.5201 22.7236 17.592 22.7977C17.6548 22.8625 17.7446 22.8718 17.8254 22.8255C17.7536 22.8533 17.6728 22.8347 17.6189 22.7792Z" fill="url(#paint11_linear_8283_5805)"/>
</g>
<path opacity="0.3" d="M17.7898 22.5917C17.8097 22.5917 17.8257 22.5752 17.8257 22.5549C17.8257 22.5346 17.8097 22.5181 17.7898 22.5181C17.77 22.5181 17.7539 22.5346 17.7539 22.5549C17.7539 22.5752 17.77 22.5917 17.7898 22.5917Z" fill="white"/>
<path opacity="0.2" d="M18.885 22.7127C18.9892 22.7127 19.0736 22.6256 19.0736 22.5182C19.0736 22.4108 18.9892 22.3237 18.885 22.3237C18.781 22.3237 18.6965 22.4108 18.6965 22.5182C18.6965 22.6256 18.781 22.7127 18.885 22.7127Z" fill="white"/>
<g opacity="0.4">
<path opacity="0.6" d="M18.7793 22.6406C18.7075 22.5665 18.7075 22.4369 18.7793 22.3627C18.7883 22.3535 18.8062 22.3443 18.8152 22.335C18.7883 22.3443 18.7703 22.3627 18.7524 22.3813C18.6805 22.4553 18.6805 22.585 18.7524 22.6592C18.8152 22.724 18.905 22.7332 18.9858 22.6869C18.914 22.7147 18.8332 22.6962 18.7793 22.6406Z" fill="url(#paint12_linear_8283_5805)"/>
</g>
<path opacity="0.3" d="M18.9478 22.4532C18.9677 22.4532 18.9837 22.4367 18.9837 22.4163C18.9837 22.396 18.9677 22.3795 18.9478 22.3795C18.928 22.3795 18.9119 22.396 18.9119 22.4163C18.9119 22.4367 18.928 22.4532 18.9478 22.4532Z" fill="white"/>
<path opacity="0.2" d="M15.9936 22.287C16.2216 22.287 16.4065 22.0963 16.4065 21.861C16.4065 21.6257 16.2216 21.4349 15.9936 21.4349C15.7655 21.4349 15.5806 21.6257 15.5806 21.861C15.5806 22.0963 15.7655 22.287 15.9936 22.287Z" fill="white"/>
<g opacity="0.4">
<path opacity="0.6" d="M15.7608 22.129C15.5992 21.9623 15.5992 21.6937 15.7608 21.527C15.7877 21.4992 15.8146 21.4807 15.8505 21.4622C15.7967 21.4807 15.7518 21.5177 15.7069 21.5548C15.5453 21.7215 15.5453 21.9901 15.7069 22.1568C15.8416 22.2958 16.0481 22.3235 16.2097 22.2216C16.057 22.2865 15.8775 22.2587 15.7608 22.129Z" fill="url(#paint13_linear_8283_5805)"/>
</g>
<path opacity="0.3" d="M16.1364 21.7309C16.186 21.7309 16.2262 21.6894 16.2262 21.6383C16.2262 21.5871 16.186 21.5457 16.1364 21.5457C16.0868 21.5457 16.0466 21.5871 16.0466 21.6383C16.0466 21.6894 16.0868 21.7309 16.1364 21.7309Z" fill="white"/>
<path opacity="0.2" d="M19.6859 21.2401C19.9141 21.2401 20.0989 21.0494 20.0989 20.8141C20.0989 20.5788 19.9141 20.3881 19.6859 20.3881C19.4579 20.3881 19.2729 20.5788 19.2729 20.8141C19.2729 21.0494 19.4579 21.2401 19.6859 21.2401Z" fill="white"/>
<g opacity="0.4">
<path opacity="0.6" d="M19.4422 21.083C19.2805 20.9163 19.2805 20.6477 19.4422 20.481C19.4691 20.4532 19.496 20.4347 19.532 20.4161C19.478 20.4347 19.4332 20.4717 19.3883 20.5088C19.2267 20.6755 19.2267 20.9441 19.3883 21.1108C19.523 21.2497 19.7294 21.2775 19.8911 21.1756C19.7384 21.2405 19.5678 21.2127 19.4422 21.083Z" fill="url(#paint14_linear_8283_5805)"/>
</g>
<path opacity="0.3" d="M19.83 20.6847C19.8796 20.6847 19.9198 20.6432 19.9198 20.592C19.9198 20.5408 19.8796 20.4994 19.83 20.4994C19.7805 20.4994 19.7402 20.5408 19.7402 20.592C19.7402 20.6432 19.7805 20.6847 19.83 20.6847Z" fill="white"/>
<defs>
<radialGradient id="paint0_radial_8283_5805" cx="0" cy="0" r="1" gradientUnits="userSpaceOnUse" gradientTransform="translate(22.9518 13.1824) scale(4.01388 4.13951)">
<stop stop-color="#FFEAFF" stop-opacity="0.6"/>
<stop offset="0.6807" stop-color="#A087C9"/>
<stop offset="1" stop-color="#10002F"/>
</radialGradient>
<radialGradient id="paint1_radial_8283_5805" cx="0" cy="0" r="1" gradientUnits="userSpaceOnUse" gradientTransform="translate(21.901 17.5974) scale(11.2414 12.33)">
<stop stop-color="#FFEAFF" stop-opacity="0.6"/>
<stop offset="0.6807" stop-color="#A087C9"/>
<stop offset="1" stop-color="#10002F"/>
</radialGradient>
<linearGradient id="paint2_linear_8283_5805" x1="16.5894" y1="23.6208" x2="18.2945" y2="13.4209" gradientUnits="userSpaceOnUse">
<stop stop-color="#81FFFF"/>
<stop offset="0.6202" stop-color="white" stop-opacity="0"/>
</linearGradient>
<linearGradient id="paint3_linear_8283_5805" x1="20.9329" y1="15.0012" x2="16.665" y2="18.7983" gradientUnits="userSpaceOnUse">
<stop offset="0.2888" stop-color="white"/>
<stop offset="0.7796" stop-color="white" stop-opacity="0"/>
</linearGradient>
<linearGradient id="paint4_linear_8283_5805" x1="12.6205" y1="20.9264" x2="22.1606" y2="20.9264" gradientUnits="userSpaceOnUse">
<stop stop-color="#0002E9"/>
<stop offset="0.9952" stop-color="#FF00C7"/>
</linearGradient>
<linearGradient id="paint5_linear_8283_5805" x1="22.6127" y1="18.9024" x2="17.2694" y2="23.7989" gradientUnits="userSpaceOnUse">
<stop offset="0.2888" stop-color="white"/>
<stop offset="0.7796" stop-color="white" stop-opacity="0"/>
</linearGradient>
<linearGradient id="paint6_linear_8283_5805" x1="12.6222" y1="20.9269" x2="17.7261" y2="20.9269" gradientUnits="userSpaceOnUse">
<stop stop-color="#000292"/>
<stop offset="0.9952" stop-color="#7D00C7"/>
</linearGradient>
<linearGradient id="paint7_linear_8283_5805" x1="12.6269" y1="18.9258" x2="22.1542" y2="18.9258" gradientUnits="userSpaceOnUse">
<stop stop-color="#000292"/>
<stop offset="0.9952" stop-color="#BE00C7"/>
</linearGradient>
<linearGradient id="paint8_linear_8283_5805" x1="21.997" y1="13.6563" x2="21.2811" y2="14.7839" gradientUnits="userSpaceOnUse">
<stop offset="0.2888" stop-color="white"/>
<stop offset="0.7796" stop-color="white" stop-opacity="0"/>
</linearGradient>
<linearGradient id="paint9_linear_8283_5805" x1="16.8105" y1="22.1301" x2="17.1904" y2="22.1301" gradientUnits="userSpaceOnUse">
<stop offset="0.2888" stop-color="white"/>
<stop offset="0.7796" stop-color="white" stop-opacity="0"/>
</linearGradient>
<linearGradient id="paint10_linear_8283_5805" x1="18.1187" y1="21.9978" x2="18.4985" y2="21.9978" gradientUnits="userSpaceOnUse">
<stop offset="0.2888" stop-color="white"/>
<stop offset="0.7796" stop-color="white" stop-opacity="0"/>
</linearGradient>
<linearGradient id="paint11_linear_8283_5805" x1="17.533" y1="22.6606" x2="17.8182" y2="22.6606" gradientUnits="userSpaceOnUse">
<stop offset="0.2888" stop-color="white"/>
<stop offset="0.7796" stop-color="white" stop-opacity="0"/>
</linearGradient>
<linearGradient id="paint12_linear_8283_5805" x1="18.6935" y1="22.5221" x2="18.9786" y2="22.5221" gradientUnits="userSpaceOnUse">
<stop offset="0.2888" stop-color="white"/>
<stop offset="0.7796" stop-color="white" stop-opacity="0"/>
</linearGradient>
<linearGradient id="paint13_linear_8283_5805" x1="15.5816" y1="21.8713" x2="16.2019" y2="21.8713" gradientUnits="userSpaceOnUse">
<stop offset="0.2888" stop-color="white"/>
<stop offset="0.7796" stop-color="white" stop-opacity="0"/>
</linearGradient>
<linearGradient id="paint14_linear_8283_5805" x1="19.2664" y1="20.8249" x2="19.8867" y2="20.8249" gradientUnits="userSpaceOnUse">
<stop offset="0.2888" stop-color="white"/>
<stop offset="0.7796" stop-color="white" stop-opacity="0"/>
</linearGradient>
</defs>
</svg>
