<svg width="24" height="24" viewBox="0 0 24 24" fill="none" xmlns="http://www.w3.org/2000/svg">
<circle cx="12" cy="12" r="12" fill="#DDDCCE"/>
<mask id="mask0_8744_20850" style="mask-type:alpha" maskUnits="userSpaceOnUse" x="0" y="0" width="24" height="24">
<path d="M0 12C0 18.6274 5.37258 24 12 24C18.6274 24 24 18.6274 24 12C24 5.37258 18.6274 0 12 0C5.37258 0 0 5.37258 0 12Z" fill="#DDDCCE"/>
</mask>
<g mask="url(#mask0_8744_20850)">
<path d="M19.7242 14.8009L20.4008 14.1925L17.4003 11.4038L17.1474 10.1144L15.4676 8.72037L15.3857 2.28003H15.2994L12.9748 7.58218L12.7286 7.57563L10.9639 2.28003H10.8697L9.88525 8.37368L-5.49973 9.3418L-18.96 16.2364V16.4035C-18.96 16.4035 -17.0613 18.222 -13.5457 17.4887C-11.0668 16.972 -6.77541 13.3473 -5.48597 12.3501C-5.75111 17.5003 -7.03403 26.7593 -7.03403 26.7593H-5.47511L-3.66336 16.4021L-2.18701 16.3091L-3.5192 26.7571H-1.84219L-0.0608732 16.1819L6.6783 15.7306L5.52648 26.7505H7.06079L8.85297 15.6143L10.4858 15.5118L9.40353 26.7484H11.1211L12.533 14.5189L13.934 13.5886L18.6897 16.0431L19.0461 15.5052L15.8769 13.3059L16.0043 13.1133L19.7242 14.7995V14.8009ZM-4.40443 11.2185L-4.00527 10.0265L-1.56185 11.5426L-4.4037 11.2185H-4.40443ZM-0.700527 12.1655L-0.301377 10.9735L2.14205 12.4896L-0.699801 12.1655H-0.700527ZM1.88778 10.8616L2.28694 9.66961L4.73037 11.1857L1.8885 10.8616H1.88778ZM5.87421 11.7032L6.27335 10.5113L8.71678 12.0274L5.87493 11.7032H5.87421ZM8.27923 10.4546L8.84137 9.33091L11.0472 11.1778L8.27923 10.4546ZM14.6374 9.88838C14.6012 9.91235 14.5678 9.94071 14.5374 9.97123C14.4614 10.0475 14.4034 10.1428 14.37 10.2481C14.3571 10.2903 14.3476 10.3346 14.3433 10.3804C14.3411 10.403 14.3397 10.4262 14.3397 10.4495C14.3397 10.496 14.3447 10.5418 14.3534 10.5861C14.273 10.4851 14.202 10.379 14.1405 10.2743C14.0788 10.1697 14.0246 10.065 13.9796 9.96687C13.8282 9.63908 13.766 9.37815 13.766 9.37815L13.8035 9.33162C13.8035 9.33162 13.8884 9.34617 14.021 9.37596C14.047 9.38178 14.0759 9.38833 14.1057 9.39559C14.1353 9.40286 14.1672 9.41085 14.1999 9.41885C14.2324 9.42756 14.2665 9.43629 14.302 9.44575C14.4773 9.49371 14.6765 9.55695 14.8626 9.63544C14.8996 9.65142 14.9366 9.66742 14.9728 9.68414C15.009 9.70085 15.0437 9.71902 15.0778 9.73719C15.1119 9.75537 15.1444 9.77426 15.1756 9.79389C15.1496 9.78735 15.1234 9.78226 15.0966 9.77935C15.0699 9.77572 15.0423 9.77426 15.0148 9.77426C14.9213 9.77426 14.833 9.79316 14.7526 9.82732C14.712 9.84477 14.6736 9.86511 14.6381 9.88983L14.6374 9.88838ZM15.5234 11.3202C15.469 11.3086 15.4132 11.2955 15.3581 11.2802C15.3032 11.265 15.2474 11.2483 15.193 11.2301C15.1024 11.1988 15.0148 11.1632 14.9337 11.1203C14.9604 11.1232 14.9873 11.1254 15.0148 11.1254C15.1083 11.1254 15.1966 11.1065 15.277 11.0724C15.3176 11.0549 15.356 11.0346 15.3915 11.0099C15.5711 10.8885 15.6885 10.6821 15.6885 10.4488C15.6885 10.4022 15.6842 10.3564 15.6747 10.3128C15.666 10.2692 15.6522 10.2263 15.6356 10.1864C16.155 10.685 16.2832 11.3609 16.2832 11.3609L16.2484 11.4111C16.2484 11.4111 15.9051 11.4031 15.5226 11.3209L15.5234 11.3202Z" fill="#1B1C16"/>
</g>
</svg>
