<svg width="24" height="24" viewBox="0 0 24 24" fill="none" xmlns="http://www.w3.org/2000/svg">
<path d="M12 24C5.38322 24 0 18.6162 0 12C0 5.38376 5.38322 0 12 0C18.6168 0 24 5.38376 24 12C24 18.6162 18.6168 24 12 24Z" fill="#151A20"/>
<path d="M16.224 12.3017C15.3992 11.5645 14.3192 11.0722 13.2727 10.5953L13.265 10.5927C11.4194 9.74983 9.82392 9.02036 9.93734 7.29589C9.98632 6.63857 10.4632 6.24162 10.855 6.02766C11.2957 5.78537 11.8808 5.64103 12.4221 5.64103C12.4865 5.64103 12.551 5.6436 12.6129 5.64618C14.1878 5.75185 15.4301 6.41948 16.6442 7.80626L16.7164 7.89132L16.8014 7.81915L17.2757 7.40673L17.3607 7.33198L17.286 7.24692C15.9328 5.69515 14.4636 4.91412 12.667 4.79296C12.5897 4.78522 12.5072 4.78264 12.417 4.78264C12.3628 4.78264 12.3035 4.78264 12.2417 4.78522H12.1644C10.9864 4.78522 9.69505 5.17188 8.71299 5.82147C7.54019 6.59734 6.88293 7.6645 6.86488 8.82703C6.81847 11.6547 9.13055 12.6059 11.1694 13.4488L11.1746 13.4514L11.1952 13.4591C12.9995 14.2066 14.5563 14.8511 14.5228 16.5781C14.5074 17.7174 12.8784 18.3464 11.7597 18.3464H11.6024V18.349C9.93476 18.3 8.44493 17.5808 7.17417 16.2172L7.09685 16.1347L7.01437 16.2095L6.55298 16.6374L6.4705 16.7147L6.54782 16.7972C7.99127 18.3515 9.77238 19.1867 11.7004 19.2099H11.788C13.033 19.2099 14.3862 18.8748 15.4069 18.3103C16.6854 17.6117 17.4304 16.5936 17.5077 15.4439C17.5953 14.1809 17.1752 13.1524 16.224 12.3017ZM10.2389 9.84262C10.9735 10.4716 11.9685 10.9227 12.9299 11.3583L12.9479 11.366C13.9661 11.8352 14.9301 12.2785 15.6286 12.8946C16.4019 13.5751 16.7292 14.3639 16.6596 15.3769C16.5952 16.3796 15.8503 17.0498 15.1724 17.4545C15.3039 17.1864 15.376 16.8952 15.3838 16.5858C15.3992 15.5445 14.9997 14.7119 14.1594 14.0365C13.4248 13.4462 12.4505 13.0467 11.5071 12.6574C9.54556 11.8507 7.69229 11.0876 7.72578 8.83477C7.73609 7.96865 8.25676 7.14897 9.19243 6.52775C9.22335 6.50712 9.25429 6.48649 9.28781 6.46587C9.17696 6.70819 9.11508 6.96079 9.09964 7.22629C9.02489 8.27025 9.39862 9.12603 10.2389 9.84262Z" fill="white"/>
</svg>
