<svg width="24" height="24" viewBox="0 0 24 24" fill="none" xmlns="http://www.w3.org/2000/svg">
<path d="M24 12C24 5.37258 18.6274 0 12 0C5.37258 0 0 5.37258 0 12C0 18.6274 5.37258 24 12 24C18.6274 24 24 18.6274 24 12Z" fill="#E50571"/>
<path d="M19.8309 10.3357C19.5172 8.83238 18.7721 7.45543 17.6609 6.34429C16.1489 4.83227 14.1402 4 12.0007 4C9.86117 4 7.8524 4.82791 6.34037 6.33993C5.96999 6.71031 5.64754 7.10684 5.36431 7.52515C5.28152 7.63845 5.20309 7.7561 5.13773 7.88246C4.39696 9.11561 4.00044 10.5231 4.00044 12.0002C4.00044 14.1397 4.83271 16.1485 6.34473 17.6605C7.85676 19.1725 9.86553 20.0048 12.005 20.0048C14.1445 20.0048 16.1533 19.1725 17.6653 17.6605C18.3756 16.9503 18.942 16.1223 19.3386 15.2291C19.3865 15.1332 19.4257 15.0286 19.4649 14.9241C19.8266 14.009 20.014 13.0199 20.014 12.0046C20.014 11.4686 19.9617 10.9588 19.8571 10.4446C19.8527 10.4185 19.8353 10.3531 19.8309 10.3357ZM17.0553 6.67981C17.0988 6.72339 17.1468 6.76696 17.1947 6.81489C17.9006 7.5208 18.4496 8.3487 18.8113 9.24633C18.8462 9.33348 18.7721 9.4337 18.6719 9.41627C18.4627 9.37706 18.2231 9.36398 17.9616 9.36834C17.7786 9.3727 17.6174 9.24198 17.5869 9.06768C17.4431 8.26591 17.2339 7.52951 16.9725 6.88461C16.9594 6.84975 16.942 6.81489 16.9289 6.77132C16.894 6.68853 16.9943 6.61445 17.0553 6.67981ZM17.8178 11.3728C17.8178 11.29 17.9224 11.2507 17.9747 11.3205C18.0313 11.4033 18.0923 11.4904 18.149 11.5732C18.2231 11.6865 18.2928 11.7998 18.3538 11.9131C18.393 11.9828 18.3843 12.0699 18.332 12.1309C18.2492 12.2225 18.1533 12.3227 18.0531 12.4229C18.0183 12.4578 17.979 12.497 17.9398 12.5362C17.8919 12.5798 17.8091 12.5449 17.8135 12.4839C17.8178 12.3619 17.8222 12.2442 17.8222 12.1179C17.8265 11.8608 17.8265 11.6168 17.8178 11.3728ZM7.7391 6.02184C8.97661 5.13729 10.4494 4.66233 12.0007 4.66233C12.4103 4.66233 12.8155 4.69719 13.212 4.75819C13.3166 4.77562 13.3558 4.9107 13.2687 4.97606C12.8852 5.27672 12.5323 5.72118 12.2142 6.29636C12.1401 6.44015 11.9745 6.50552 11.8176 6.46194C10.7719 6.16999 9.74352 6.03056 8.7936 6.06106C8.44065 6.07413 8.11384 6.10899 7.80011 6.16564C7.71296 6.18742 7.66939 6.07413 7.7391 6.02184ZM6.69332 16.9895C6.53646 16.7019 6.7369 16.0265 7.75218 14.9981C7.85676 14.8935 7.84804 14.7193 7.73039 14.6234C7.69117 14.5929 7.65196 14.5624 7.60838 14.5275C7.50816 14.4491 7.36001 14.4535 7.2685 14.545C7.24672 14.5667 7.23364 14.5798 7.22929 14.5842C6.72383 15.1027 6.36652 15.5864 6.17043 16.0221C6.11379 16.1485 5.94385 16.1616 5.86977 16.0439C5.08108 14.8587 4.65841 13.4643 4.65841 12.0046C4.65841 11.486 4.7107 10.9675 4.81963 10.4708C4.83706 10.3967 4.94164 10.3923 4.96779 10.4664C5.1203 10.9675 5.36867 11.4904 5.70855 12.0133C6.17043 12.7192 6.77612 13.399 7.49945 14.0264C7.74346 14.2399 8.00491 14.4447 8.27943 14.6452C8.83282 15.0504 9.42543 15.4208 10.0616 15.7476C10.3405 15.8958 10.6194 16.0308 10.8982 16.1616C11.0551 16.2313 11.2338 16.2356 11.3906 16.1746C11.5257 16.1223 11.6564 16.0701 11.7915 16.0134C11.9397 15.9524 12.0181 15.7955 11.9789 15.6387C11.9745 15.6212 11.9702 15.6038 11.9702 15.5951C11.7479 14.667 11.6259 13.6168 11.6085 12.5231C11.6085 12.51 11.6085 12.2617 11.6085 12.0046C11.6085 11.7475 11.6172 11.6298 11.6259 11.4425C11.6913 10.1178 11.9179 8.87595 12.2752 7.82581C12.3057 7.72995 12.2577 7.62537 12.1575 7.59051C12.066 7.56001 11.9702 7.52951 11.8743 7.49901C11.7828 7.46851 11.6782 7.52079 11.6434 7.61666C11.2555 8.75394 11.0159 10.1004 10.9549 11.5253C10.9462 11.7083 10.8503 11.8739 10.6934 11.9654C9.8481 12.4665 9.07683 12.9981 8.40143 13.5297C8.262 13.643 8.06155 13.6343 7.92647 13.521C7.25543 12.9371 6.68897 12.3052 6.26194 11.6473C5.42096 10.3575 5.22052 9.14611 5.69983 8.2267L5.70419 8.22234C5.76519 8.12212 5.83056 8.0219 5.89592 7.92603C6.44495 7.2027 7.46459 6.78003 8.81975 6.7321C8.90254 6.72774 8.99404 6.72774 9.07683 6.72774C9.9091 6.72774 10.798 6.86718 11.7044 7.12863C11.7218 7.13298 11.8525 7.1722 11.8787 7.18092C12.1096 7.25499 12.5018 7.39007 12.5541 7.4075C12.5758 7.41622 12.6978 7.46415 12.7153 7.46851C13.1597 7.6428 13.5998 7.83889 14.0356 8.06547C14.8809 8.50557 15.6522 9.01975 16.3319 9.58621C15.0465 9.87816 13.5519 10.449 12.0486 11.2115C11.9789 11.2464 11.9309 11.3161 11.9266 11.3945C11.9222 11.486 11.9135 11.6734 11.9092 11.8259C11.9048 11.9174 12.005 11.9828 12.0878 11.9392C13.578 11.1549 15.0639 10.5753 16.3407 10.2616C16.5803 10.205 16.7328 9.97838 16.7023 9.73436C16.6805 9.56443 16.6544 9.39449 16.6239 9.23326C16.589 9.02846 16.4714 8.84109 16.3101 8.71909C15.7132 8.26591 15.0552 7.8476 14.3493 7.47722C13.8744 7.22885 13.395 7.01533 12.907 6.82797C12.8068 6.78875 12.7589 6.66674 12.8155 6.57088C13.3122 5.68196 13.9049 5.18522 14.4844 5.18522C14.4887 5.18522 14.4975 5.18522 14.5018 5.18522C15.1816 5.19829 15.857 5.90419 16.3624 7.12863C16.6152 7.74738 16.8113 8.462 16.9507 9.23762C16.9899 9.45549 17.0204 9.67772 17.0466 9.9043C17.0596 10.022 17.0814 10.2006 17.0945 10.279C17.1511 10.8673 17.1729 11.4817 17.1642 12.1048C17.1555 12.5013 17.1381 12.8935 17.1032 13.2726C16.1925 14.0046 15.0683 14.741 13.8308 15.3947C13.4953 15.5689 13.1597 15.7389 12.8286 15.8958C12.7589 15.9306 12.4713 16.057 12.4538 16.0657C12.1401 16.2095 11.8307 16.3359 11.5213 16.4579C11.5039 16.4666 11.1553 16.5973 11.1335 16.606C11.1074 16.6147 10.9287 16.6801 10.9069 16.6888C10.2403 16.9241 9.59972 17.1028 9.01583 17.2161C7.53866 17.4993 6.84583 17.2814 6.69332 16.9895ZM8.7021 14.1397C9.34699 13.6168 10.1052 13.0852 10.9375 12.5885C10.9549 13.6517 11.0725 14.6757 11.2817 15.5951C10.9767 15.46 10.6673 15.3206 10.3623 15.1594C9.76966 14.8543 9.21191 14.5101 8.7021 14.1397ZM12.9462 19.2815C12.6368 19.3207 12.3188 19.3425 12.0007 19.3425C10.5714 19.3425 9.20756 18.9372 8.03977 18.1834C7.96133 18.1311 7.99619 18.0047 8.0877 18.0004C8.10513 18.0004 8.12692 18.0004 8.13999 17.996C8.43629 17.9786 8.7631 17.935 9.11605 17.8653C9.86553 17.7172 10.7021 17.4731 11.578 17.1376C11.6564 17.1071 11.7436 17.1463 11.7784 17.2248C12.1183 18.0527 12.5323 18.6758 13.0072 19.0723C13.09 19.142 13.0508 19.2684 12.9462 19.2815ZM16.0531 17.3206C15.5302 18.3533 14.8853 18.9285 14.2578 18.9154C13.578 18.9024 12.9026 18.1965 12.3972 16.972C12.3667 16.898 12.4015 16.8065 12.4756 16.7716C12.48 16.7672 12.4843 16.7672 12.493 16.7629C12.5236 16.7498 12.5628 16.7455 12.5976 16.7542C13.5345 17.0156 14.4626 17.155 15.3297 17.155C15.4212 17.155 15.5171 17.1551 15.6086 17.1507C15.7132 17.1463 15.8221 17.142 15.9267 17.1333C16.0269 17.1333 16.0966 17.2335 16.0531 17.3206ZM16.2796 16.4317C16.0618 16.4622 15.8308 16.484 15.5912 16.4927C15.0029 16.5145 14.3798 16.4622 13.7436 16.3446C13.6652 16.3315 13.6521 16.2226 13.7218 16.1877C13.8613 16.118 14.0007 16.0439 14.1402 15.9698C15.1162 15.4513 16.0313 14.8848 16.8287 14.3053C16.8853 14.2617 16.9725 14.314 16.9594 14.3837C16.8461 15.0504 16.698 15.6779 16.5019 16.2443C16.4627 16.3489 16.3799 16.4186 16.2796 16.4317ZM17.3646 17.0156C17.3124 17.0723 17.2514 17.1333 17.1947 17.1899C17.0988 17.2858 16.9899 17.386 16.8897 17.4775C16.8243 17.5341 16.7241 17.4644 16.759 17.386C16.7677 17.3642 16.7808 17.3424 16.7895 17.3163C16.833 17.2204 16.8723 17.1202 16.9202 17.02C16.9289 16.9982 16.9507 16.9808 16.9725 16.972C17.0727 16.9459 17.1773 16.9154 17.2731 16.8849C17.3603 16.8587 17.4213 16.959 17.3646 17.0156ZM18.8375 14.6888C18.807 14.7628 18.7808 14.8369 18.7459 14.911C18.7372 14.9241 18.6937 15.0156 18.6893 15.0286C18.4453 15.4774 18.0444 15.8304 17.5215 16.0788C17.3995 16.1354 17.2688 16.0265 17.3036 15.8958C17.4867 15.2509 17.6174 14.5537 17.7089 13.8173C17.7263 13.6778 17.7917 13.5558 17.8962 13.4643C18.1185 13.2726 18.3276 13.0765 18.5194 12.8848C18.6109 12.7933 18.7721 12.8325 18.8113 12.9589C18.9987 13.5907 19.0117 14.1789 18.8375 14.6888ZM18.9856 11.2507C18.9333 11.3466 18.7895 11.351 18.7285 11.2595C18.7198 11.2464 18.7111 11.229 18.7024 11.2159C18.4845 10.876 18.2318 10.5492 17.9529 10.2268C17.8832 10.1483 17.9398 10.0263 18.0444 10.022H18.0488C18.7067 10.022 19.051 10.1875 19.1555 10.3836C19.2383 10.5492 19.2122 10.8411 18.9856 11.2507ZM19.3429 12.2181C19.3429 12.266 19.2732 12.2791 19.2558 12.2355C19.2471 12.2181 19.2383 12.1963 19.2296 12.1789C19.2122 12.144 19.2165 12.1004 19.2427 12.0656C19.2471 12.0612 19.2558 12.0482 19.2688 12.0307C19.2993 11.9915 19.3473 11.9959 19.3473 12.0394C19.3429 12.1004 19.3429 12.1571 19.3429 12.2181Z" fill="white"/>
</svg>
