<svg width="24" height="24" viewBox="0 0 24 24" fill="none" xmlns="http://www.w3.org/2000/svg">
<path d="M24 12C24 5.37258 18.6274 0 12 0C5.37258 0 0 5.37258 0 12C0 18.6274 5.37258 24 12 24C18.6274 24 24 18.6274 24 12Z" fill="#4A126B"/>
<path d="M18.9284 11.1983C18.9312 10.553 18.7709 9.91673 18.4613 9.34453C18.4613 9.57494 18.407 9.82106 18.3744 10.0672C18.3092 10.5542 18.2332 11.0622 18.1136 11.6068C17.9616 12.2771 17.7878 12.8897 17.6032 13.4396L17.7878 13.361L18.1626 13.1987C18.1626 13.2982 18.1192 13.4396 18.0757 13.6019C18.0425 13.6986 18.0025 13.7932 17.9562 13.8847C17.9128 13.9842 17.8638 14.0784 17.815 14.1727C17.7661 14.2669 17.7226 14.3402 17.6737 14.4241C17.5524 14.6236 17.4163 14.8144 17.2663 14.9948C16.5264 15.8803 15.4748 16.4729 14.3116 16.6601H14.1812C14.0806 16.6763 13.9789 16.6868 13.877 16.6915H13.7521C12.9506 16.6945 12.1597 16.515 11.4436 16.1678C10.7753 15.8473 10.198 15.3746 9.76174 14.7907C9.32544 14.2068 9.04327 13.5292 8.93964 12.8165C8.93964 12.6698 8.91248 12.5284 8.90705 12.387C8.90705 12.3556 8.90705 12.3241 8.90705 12.2928C8.91079 11.7539 9.02142 11.2206 9.23296 10.7218C9.46988 10.117 9.8685 9.58334 10.3884 9.17501C10.9083 8.76667 11.5309 8.49816 12.1932 8.3967C11.9982 8.55725 11.8166 8.73234 11.65 8.92037C11.5868 8.97074 11.5351 9.03314 11.4979 9.10364L13.7792 8.85228H13.8607C14.729 8.88458 15.5728 9.13946 16.305 9.59065L16.8862 9.03032L17.0111 9.40736L17.0708 9.59065C17.1841 9.37386 17.2822 9.14992 17.3641 8.92037C17.4022 8.82086 17.4402 8.7109 17.4727 8.5957C17.549 8.3492 17.6035 8.09695 17.6357 7.84162C17.6438 7.70557 17.6438 7.5692 17.6357 7.43316C17.5379 7.50424 17.4275 7.55747 17.3099 7.59025C17.2372 7.60955 17.1624 7.6201 17.0872 7.62167C17.0011 7.62566 16.9151 7.61683 16.8318 7.5955C16.6056 7.5298 16.4038 7.4025 16.2506 7.22892C16.1371 7.10272 16.0372 6.96589 15.952 6.82046C15.7781 6.29681 13.8336 5.73126 12.3398 4.89863C11.9175 4.67578 11.5268 4.40118 11.1775 4.0817C10.8912 3.8206 10.7006 3.47696 10.6343 3.10246C10.6356 3.11464 10.6356 3.12692 10.6343 3.13912C10.6343 3.13912 10.6343 3.13912 10.6343 3.17053C10.6312 3.19136 10.6312 3.21253 10.6343 3.23336C10.6311 3.24539 10.6311 3.258 10.6343 3.27002C10.6343 3.29621 10.6343 3.32239 10.6072 3.34858C10.6097 3.36769 10.6097 3.38706 10.6072 3.40619C10.6072 3.4376 10.6072 3.46378 10.6072 3.4952C10.6098 3.51782 10.6098 3.54066 10.6072 3.56328V3.66277C10.6098 3.6889 10.6098 3.7152 10.6072 3.74132C10.6072 3.77798 10.6072 3.80941 10.6072 3.8513C10.6045 3.87917 10.6045 3.90721 10.6072 3.93508V4.05028C10.6045 4.08164 10.6045 4.11318 10.6072 4.14455C10.6072 4.18121 10.6072 4.22309 10.6072 4.26498C10.6072 4.30688 10.6072 4.32784 10.6072 4.35925L10.6398 4.48493L10.6723 4.58443L10.7212 4.71011C10.7372 4.74432 10.7553 4.77755 10.7755 4.8096C10.7755 4.85149 10.8136 4.89338 10.8407 4.93528L10.9168 5.03477C10.9426 5.07695 10.9716 5.11721 11.0037 5.15522C11.0308 5.19187 11.0689 5.22329 11.1014 5.25995L11.2101 5.36993L11.3133 5.44847C11.3569 5.48748 11.4042 5.52254 11.4545 5.5532L11.6011 5.64746L11.7315 5.72602L11.8076 5.7679L10.5311 5.20235L9.89562 4.91957C9.95309 5.16895 10.0521 5.40772 10.1889 5.62651C10.2531 5.73634 10.3257 5.84137 10.4062 5.94072C10.4062 5.94072 7.69037 5.85692 6.19123 7.92017H6.28356C6.438 7.91147 6.58984 7.96139 6.70657 8.05926C6.82332 8.15713 6.89569 8.29517 6.90821 8.44382C6.91398 8.4978 6.91398 8.5522 6.90821 8.60616C6.91319 8.64792 6.91319 8.69008 6.90821 8.73184C6.82673 8.86799 6.75067 9.00938 6.67464 9.15078C6.5986 9.29216 6.32158 9.58018 6.09888 9.83153C5.95223 9.99386 5.80558 10.1614 5.65891 10.3552C5.16534 10.9197 4.84882 11.6082 4.74641 12.3398C4.741 12.4183 4.741 12.497 4.74641 12.5755C4.81903 12.5311 4.89534 12.4926 4.97454 12.4603H5.0723C5.16254 12.4346 5.25852 12.4343 5.34896 12.4592C5.43941 12.4843 5.52056 12.5338 5.58288 12.6017C5.67971 12.7183 5.74836 12.8543 5.78386 12.9997C5.88152 13.4975 5.93964 14.0016 5.95766 14.5079C5.98358 14.8033 6.02711 15.097 6.08802 15.3876C6.22138 16.147 6.60182 16.8457 7.17436 17.3827C7.17383 17.3741 7.17383 17.3653 7.17436 17.3566C7.15168 17.271 7.14072 17.183 7.14176 17.0947C7.13755 17.0202 7.14991 16.9457 7.17802 16.8762C7.20612 16.8066 7.24931 16.7437 7.30471 16.6915C7.3527 16.6535 7.4081 16.6249 7.46767 16.6078H7.49482C7.5795 16.5962 7.66543 16.5962 7.7501 16.6078C8.29327 16.6392 8.61373 17.4613 9.27096 18.1525C9.67276 18.5976 10.2112 18.9076 10.8081 19.0375H10.8407C10.8101 18.9206 10.8101 18.7984 10.8407 18.6815C10.8541 18.6314 10.8799 18.5852 10.9158 18.547C10.9518 18.5087 10.9968 18.4794 11.0471 18.4615C11.2295 18.4255 11.4189 18.4438 11.5903 18.5138C12.0062 18.6544 12.4356 18.7543 12.8722 18.8124H12.959C13.1057 18.8124 13.2742 18.849 13.4208 18.8543C13.6295 18.8594 13.8384 18.849 14.0454 18.8228C14.5418 18.7613 15.0245 18.6216 15.4739 18.4092C15.3966 18.3336 15.352 18.2324 15.349 18.1264C15.3499 18.063 15.3648 18.0006 15.3924 17.9431C15.456 17.8532 15.5395 17.7781 15.6368 17.7232C15.79 17.6222 15.9562 17.5414 16.1311 17.4823C16.2959 17.4304 16.4573 17.3692 16.6146 17.299L16.7015 17.2518C17.021 17.0735 17.312 16.8512 17.5651 16.592C18.1769 15.9373 18.6083 15.1451 18.8198 14.2879C18.909 14.0124 18.9637 13.7276 18.9828 13.4396C18.9828 13.361 18.9828 13.2824 18.9828 13.204C19.0432 12.5356 19.0249 11.8627 18.9284 11.1983Z" fill="white"/>
</svg>
