<svg width="24" height="24" viewBox="0 0 24 24" fill="none" xmlns="http://www.w3.org/2000/svg">
<path d="M18.9591 7.23674C18.8036 6.65903 18.3039 6.08132 17.4044 5.43821C16.6825 4.9259 15.9163 4.63159 15.3055 4.63159C15.1833 4.63159 15.0723 4.64249 14.9612 4.66429C14.6836 4.71879 14.4392 4.915 14.2838 5.2093C14.095 5.55811 14.0506 6.02682 14.1728 6.31022C14.2171 6.39742 14.2727 6.50643 14.3393 6.60453C13.7507 6.95334 13.4176 7.05144 13.3731 7.06233C14.9057 7.56374 16.1828 8.61016 16.9824 9.97269L16.9935 9.84189C17.0268 9.48218 17.1379 9.06797 17.2933 8.64286C17.4488 8.68646 17.6043 8.70827 17.7597 8.70827C18.1706 8.70827 18.526 8.54477 18.7481 8.25046C18.9702 7.95615 19.059 7.56374 18.9591 7.23674Z" fill="#5E12A0"/>
<path d="M17.3605 8.32675C18.3711 8.59925 18.782 7.83624 18.6487 7.32393C18.5043 6.81161 18.0379 6.28841 17.2161 5.6998C16.3944 5.11119 15.5615 4.87138 15.0284 4.98038C14.4954 5.08938 14.3399 5.8851 14.4731 6.1903C14.5287 6.31021 14.6508 6.48461 14.8174 6.68081C14.6064 6.82252 14.4065 6.93152 14.24 7.02962C15.2616 7.47653 16.1501 8.17414 16.8163 9.04616C16.8941 8.75185 17.0051 8.49024 17.1051 8.26134C17.1828 8.27224 17.2717 8.29405 17.3605 8.32675Z" fill="url(#paint0_radial_17199_459)"/>
<path d="M11.5744 19.0084C15.0029 19.0084 17.7822 16.2804 17.7822 12.9152C17.7822 9.55004 15.0029 6.82202 11.5744 6.82202C8.14594 6.82202 5.36661 9.55004 5.36661 12.9152C5.36661 16.2804 8.14594 19.0084 11.5744 19.0084Z" fill="url(#paint1_radial_17199_459)"/>
<path opacity="0.6" d="M18.1383 6.82219C17.2943 5.95018 16.5836 5.72127 15.7285 5.53597C15.0622 5.38337 15.2399 5.01276 16.0506 5.08906C15.6619 4.95826 15.2954 4.92556 15.0289 4.98006C14.4958 5.08906 14.3404 5.88478 14.4736 6.18998C14.5291 6.30988 14.6513 6.48428 14.8179 6.68049C14.518 6.8767 14.2626 7.0184 14.0516 7.1274C14.1516 7.171 14.2737 7.2255 14.418 7.3018C14.7956 7.49801 15.2066 7.82501 15.2066 7.82501C14.5847 7.3018 14.7179 7.062 15.573 6.47339C15.8396 6.28809 16.3281 6.30988 16.7835 6.53879C17.2388 6.76769 17.7719 7.3454 17.7719 7.3454L17.261 8.30462C17.2943 8.31552 17.3276 8.32642 17.3609 8.33732C17.683 8.42452 17.9384 8.40272 18.1383 8.32642C18.3716 8.18472 18.9823 7.70511 18.1383 6.82219Z" fill="#A98698"/>
<path d="M15.7164 6.05923C15.9385 6.14643 16.2272 6.29904 16.5826 6.52794C17.0046 6.80044 17.3711 7.10565 17.6043 7.34545C17.2156 7.84686 16.9602 8.53358 16.8048 9.01319C16.8825 9.12219 16.9713 9.23119 17.049 9.34019C17.1268 9.06769 17.26 8.66438 17.4377 8.26107C17.4821 8.27197 17.5377 8.27197 17.5932 8.27197C17.7264 8.27197 17.8819 8.25017 18.0041 8.15207C18.0929 8.08667 18.1929 7.96677 18.1818 7.74876C18.1818 7.54166 18.0152 7.28006 17.6709 6.96395C17.4266 6.73505 17.0935 6.48434 16.7603 6.25543C15.8053 5.63412 15.1389 5.45972 14.8391 5.75403C14.6392 5.95023 14.6614 6.19004 14.728 6.36444C14.3727 6.59334 14.0728 6.75684 13.873 6.86585C14.0062 6.90945 14.1284 6.96395 14.2616 7.01845C14.617 6.83315 15.1278 6.51704 15.7164 6.05923ZM17.8153 7.61796C17.8486 7.67246 17.8597 7.72696 17.8597 7.75966C17.8597 7.85777 17.8264 7.89046 17.8042 7.91227C17.7598 7.94497 17.6709 7.96677 17.5932 7.96677C17.6598 7.83597 17.7376 7.72696 17.8153 7.61796ZM15.0723 5.99383C15.1056 5.96113 15.1945 5.93933 15.3389 5.96113C15.2278 6.04833 15.1168 6.12463 15.0057 6.20094C14.9946 6.12463 15.0057 6.04833 15.0723 5.99383Z" fill="#5E12A0"/>
<path d="M11.5744 6.46255C7.94301 6.46255 5.00014 9.35111 5.00014 12.9155C5.00014 16.4798 7.94301 19.3684 11.5744 19.3684C15.2058 19.3684 18.1487 16.4798 18.1487 12.9155C18.1487 9.35111 15.1947 6.46255 11.5744 6.46255ZM11.5744 19.0087C8.14291 19.0087 5.36661 16.2837 5.36661 12.9155C5.36661 9.54731 8.14291 6.82226 11.5744 6.82226C15.0059 6.82226 17.7823 9.54731 17.7823 12.9155C17.7823 16.2837 14.9949 19.0087 11.5744 19.0087Z" fill="#5E12A0"/>
<path opacity="0.6" d="M11.5744 19.0084C15.0029 19.0084 17.7822 16.2804 17.7822 12.9152C17.7822 9.55004 15.0029 6.82202 11.5744 6.82202C8.14594 6.82202 5.36661 9.55004 5.36661 12.9152C5.36661 16.2804 8.14594 19.0084 11.5744 19.0084Z" fill="url(#paint2_linear_17199_459)"/>
<path opacity="0.6" d="M11.5297 18.2673C8.14259 17.7332 5.84381 14.6048 6.39907 11.2803C6.64339 9.80875 7.39854 8.55522 8.46464 7.65051C6.90991 8.53343 5.75497 10.0704 5.44403 11.9452C4.89987 15.2697 7.19865 18.3981 10.5746 18.9322C12.4625 19.2374 14.2837 18.6597 15.6275 17.5261C14.4392 18.2019 12.9956 18.4962 11.5297 18.2673Z" fill="#A98698"/>
<path opacity="0.6" d="M12.5627 6.91001C10.9968 6.65931 9.47541 7.00811 8.23162 7.78203C8.20941 7.80383 8.1872 7.82563 8.1872 7.82563C8.66473 7.54222 9.36435 7.29152 9.36435 7.29152C7.56531 8.31614 7.01006 9.48246 7.01006 9.48246C7.70968 8.15263 9.76414 7.21522 11.3744 7.14981C12.9846 7.08442 14.0396 7.55312 15.3278 8.56684C16.616 9.59146 17.3934 11.6843 17.3157 13.3411C17.2491 14.998 16.3606 16.3387 16.3606 16.3387C16.9714 15.5647 17.3379 14.998 17.5711 14.4202C17.6155 14.2458 17.66 14.0715 17.6822 13.8861C18.2374 10.5725 15.9497 7.44412 12.5627 6.91001Z" fill="url(#paint3_linear_17199_459)"/>
<path d="M17.4705 12.8606C17.4705 16.0543 14.8275 18.6486 11.5737 18.6486C8.31989 18.6486 5.66574 16.0543 5.66574 12.8606H17.4705Z" fill="url(#paint4_linear_17199_459)"/>
<g opacity="0.6">
<path opacity="0.6" d="M17.0045 12.8611C17.0045 15.9785 14.4947 18.5291 11.3409 18.6491C11.4186 18.6491 11.4963 18.6491 11.5741 18.6491C14.8279 18.6491 17.4709 16.0548 17.4709 12.8611H17.0045Z" fill="url(#paint5_linear_17199_459)"/>
</g>
<g opacity="0.7">
<path opacity="0.7" d="M6.50043 12.8611H5.66754C5.66754 16.0548 8.31058 18.6491 11.5644 18.6491C11.7088 18.6491 11.842 18.6491 11.9753 18.6381C8.92136 18.4202 6.50043 15.9131 6.50043 12.8611Z" fill="url(#paint6_linear_17199_459)"/>
</g>
<path d="M17.4595 12.9158C17.4595 12.2509 16.2823 11.8694 14.7164 11.7386C13.5837 11.6514 12.4399 11.7604 11.1295 12.1528C9.99677 12.4798 8.97509 12.4253 8.23104 12.3381C6.57636 12.1528 5.66574 12.131 5.66574 12.9158C5.66574 14.0495 8.02004 15.4665 11.5515 14.9759C13.3394 14.7253 14.2612 14.213 15.3162 13.8641C16.46 13.4935 17.4595 13.5044 17.4595 12.9158Z" fill="url(#paint7_linear_17199_459)"/>
<path d="M13.5073 10.1696C14.0591 10.1696 14.5064 9.73034 14.5064 9.18853C14.5064 8.64674 14.0591 8.20752 13.5073 8.20752C12.9555 8.20752 12.5081 8.64674 12.5081 9.18853C12.5081 9.73034 12.9555 10.1696 13.5073 10.1696Z" fill="white"/>
<path d="M15.1385 10.8993C15.3715 10.8993 15.5604 10.7139 15.5604 10.4851C15.5604 10.2564 15.3715 10.0709 15.1385 10.0709C14.9056 10.0709 14.7167 10.2564 14.7167 10.4851C14.7167 10.7139 14.9056 10.8993 15.1385 10.8993Z" fill="white"/>
<g opacity="0.6">
<path opacity="0.6" d="M16.6474 8.40346C16.6363 8.40346 16.6252 8.40346 16.6252 8.40346C16.5586 8.39256 16.5142 8.32716 16.5253 8.25086C16.6252 7.74945 17.0471 7.26984 17.0693 7.24804C17.1137 7.19354 17.2025 7.19354 17.2469 7.23714C17.3024 7.28074 17.3024 7.36794 17.258 7.41154C17.2469 7.42244 16.8583 7.86935 16.7696 8.30536C16.7584 8.37076 16.703 8.40346 16.6474 8.40346Z" fill="url(#paint8_linear_17199_459)"/>
</g>
<path opacity="0.2" d="M11.1652 17.4609C11.3369 17.4609 11.4761 17.3242 11.4761 17.1557C11.4761 16.9871 11.3369 16.8505 11.1652 16.8505C10.9935 16.8505 10.8544 16.9871 10.8544 17.1557C10.8544 17.3242 10.9935 17.4609 11.1652 17.4609Z" fill="white"/>
<g opacity="0.4">
<path opacity="0.6" d="M10.9883 17.3545C10.8662 17.2346 10.8662 17.0385 10.9883 16.9185C11.0105 16.8967 11.0327 16.8858 11.0549 16.864C11.0105 16.875 10.9772 16.8967 10.9439 16.9294C10.8218 17.0493 10.8218 17.2456 10.9439 17.3654C11.0438 17.4635 11.1993 17.4854 11.3214 17.4199C11.2104 17.4635 11.0771 17.4418 10.9883 17.3545Z" fill="url(#paint9_linear_17199_459)"/>
</g>
<path opacity="0.3" d="M11.2749 17.0677C11.3117 17.0677 11.3415 17.0386 11.3415 17.0027C11.3415 16.9668 11.3117 16.9377 11.2749 16.9377C11.2381 16.9377 11.2083 16.9668 11.2083 17.0027C11.2083 17.0386 11.2381 17.0677 11.2749 17.0677Z" fill="white"/>
<path opacity="0.2" d="M12.7868 17.3089C12.9585 17.3089 13.0977 17.1722 13.0977 17.0037C13.0977 16.8351 12.9585 16.6985 12.7868 16.6985C12.6151 16.6985 12.476 16.8351 12.476 17.0037C12.476 17.1722 12.6151 17.3089 12.7868 17.3089Z" fill="white"/>
<g opacity="0.4">
<path opacity="0.6" d="M12.6068 17.201C12.4847 17.081 12.4847 16.8848 12.6068 16.7649C12.629 16.7432 12.6513 16.7322 12.6734 16.7104C12.629 16.7213 12.5957 16.7432 12.5624 16.7759C12.4403 16.8957 12.4403 17.0919 12.5624 17.2119C12.6624 17.31 12.8178 17.3317 12.9399 17.2663C12.8289 17.31 12.6957 17.2881 12.6068 17.201Z" fill="url(#paint10_linear_17199_459)"/>
</g>
<path opacity="0.3" d="M12.8962 16.9147C12.933 16.9147 12.9628 16.8856 12.9628 16.8497C12.9628 16.8139 12.933 16.7848 12.8962 16.7848C12.8594 16.7848 12.8296 16.8139 12.8296 16.8497C12.8296 16.8856 12.8594 16.9147 12.8962 16.9147Z" fill="white"/>
<path opacity="0.2" d="M11.9859 18.0171C12.1147 18.0171 12.2191 17.9146 12.2191 17.7882C12.2191 17.6618 12.1147 17.5593 11.9859 17.5593C11.8572 17.5593 11.7528 17.6618 11.7528 17.7882C11.7528 17.9146 11.8572 18.0171 11.9859 18.0171Z" fill="white"/>
<g opacity="0.4">
<path opacity="0.6" d="M11.8514 17.9316C11.7626 17.8444 11.7626 17.6918 11.8514 17.6046C11.8625 17.5937 11.8847 17.5828 11.8958 17.5719C11.8625 17.5828 11.8403 17.6046 11.8181 17.6264C11.7293 17.7136 11.7293 17.8662 11.8181 17.9534C11.8958 18.0297 12.0069 18.0406 12.1068 17.9861C12.018 18.0189 11.9181 17.997 11.8514 17.9316Z" fill="url(#paint11_linear_17199_459)"/>
</g>
<path opacity="0.3" d="M12.0627 17.7111C12.0872 17.7111 12.1071 17.6917 12.1071 17.6678C12.1071 17.6438 12.0872 17.6244 12.0627 17.6244C12.0382 17.6244 12.0183 17.6438 12.0183 17.6678C12.0183 17.6917 12.0382 17.7111 12.0627 17.7111Z" fill="white"/>
<path opacity="0.2" d="M13.4168 17.8533C13.5456 17.8533 13.65 17.7508 13.65 17.6244C13.65 17.498 13.5456 17.3955 13.4168 17.3955C13.2881 17.3955 13.1837 17.498 13.1837 17.6244C13.1837 17.7508 13.2881 17.8533 13.4168 17.8533Z" fill="white"/>
<g opacity="0.4">
<path opacity="0.6" d="M13.286 17.7685C13.1972 17.6813 13.1972 17.5287 13.286 17.4415C13.2971 17.4306 13.3193 17.4198 13.3304 17.4088C13.2971 17.4198 13.2748 17.4415 13.2527 17.4633C13.1638 17.5505 13.1638 17.7031 13.2527 17.7904C13.3304 17.8666 13.4414 17.8775 13.5413 17.8231C13.4525 17.8558 13.3526 17.8339 13.286 17.7685Z" fill="url(#paint12_linear_17199_459)"/>
</g>
<path opacity="0.3" d="M13.4946 17.548C13.5192 17.548 13.5391 17.5286 13.5391 17.5046C13.5391 17.4807 13.5192 17.4613 13.4946 17.4613C13.4701 17.4613 13.4502 17.4807 13.4502 17.5046C13.4502 17.5286 13.4701 17.548 13.4946 17.548Z" fill="white"/>
<path opacity="0.2" d="M9.84136 17.3524C10.1234 17.3524 10.352 17.1279 10.352 16.851C10.352 16.5741 10.1234 16.3496 9.84136 16.3496C9.55932 16.3496 9.33067 16.5741 9.33067 16.851C9.33067 17.1279 9.55932 17.3524 9.84136 17.3524Z" fill="white"/>
<g opacity="0.4">
<path opacity="0.6" d="M9.55334 17.1664C9.35351 16.9702 9.35351 16.6541 9.55334 16.4579C9.58665 16.4252 9.61996 16.4034 9.66436 16.3816C9.59775 16.4034 9.54224 16.447 9.48673 16.4906C9.28689 16.6868 9.28689 17.0029 9.48673 17.1991C9.65326 17.3627 9.9086 17.3954 10.1084 17.2754C9.9197 17.3517 9.69766 17.319 9.55334 17.1664Z" fill="url(#paint13_linear_17199_459)"/>
</g>
<path opacity="0.3" d="M10.0184 16.6979C10.0797 16.6979 10.1294 16.6492 10.1294 16.589C10.1294 16.5288 10.0797 16.48 10.0184 16.48C9.95707 16.48 9.90736 16.5288 9.90736 16.589C9.90736 16.6492 9.95707 16.6979 10.0184 16.6979Z" fill="white"/>
<path opacity="0.2" d="M14.4073 16.1203C14.6894 16.1203 14.918 15.8958 14.918 15.6188C14.918 15.3419 14.6894 15.1174 14.4073 15.1174C14.1253 15.1174 13.8966 15.3419 13.8966 15.6188C13.8966 15.8958 14.1253 16.1203 14.4073 16.1203Z" fill="white"/>
<g opacity="0.4">
<path opacity="0.6" d="M14.1059 15.9355C13.9061 15.7393 13.9061 15.4232 14.1059 15.227C14.1392 15.1943 14.1725 15.1725 14.217 15.1506C14.1503 15.1725 14.0948 15.216 14.0393 15.2597C13.8395 15.4559 13.8395 15.772 14.0393 15.9682C14.2058 16.1317 14.4612 16.1644 14.661 16.0445C14.4723 16.1208 14.2613 16.0881 14.1059 15.9355Z" fill="url(#paint14_linear_17199_459)"/>
</g>
<path opacity="0.3" d="M14.5854 15.4666C14.6467 15.4666 14.6964 15.4177 14.6964 15.3575C14.6964 15.2973 14.6467 15.2485 14.5854 15.2485C14.5241 15.2485 14.4743 15.2973 14.4743 15.3575C14.4743 15.4177 14.5241 15.4666 14.5854 15.4666Z" fill="white"/>
<defs>
<radialGradient id="paint0_radial_17199_459" cx="0" cy="0" r="1" gradientUnits="userSpaceOnUse" gradientTransform="translate(18.4461 6.63721) scale(4.9634 4.87178)">
<stop stop-color="#FFEAFF" stop-opacity="0.6"/>
<stop offset="0.6807" stop-color="#A087C9"/>
<stop offset="1" stop-color="#10002F"/>
</radialGradient>
<radialGradient id="paint1_radial_17199_459" cx="0" cy="0" r="1" gradientUnits="userSpaceOnUse" gradientTransform="translate(17.1466 11.8331) scale(13.9007 14.5111)">
<stop stop-color="#FFEAFF" stop-opacity="0.6"/>
<stop offset="0.6807" stop-color="#A087C9"/>
<stop offset="1" stop-color="#10002F"/>
</radialGradient>
<linearGradient id="paint2_linear_17199_459" x1="10.5786" y1="18.922" x2="12.4934" y2="6.88709" gradientUnits="userSpaceOnUse">
<stop stop-color="#81FFFF"/>
<stop offset="0.6202" stop-color="white" stop-opacity="0"/>
</linearGradient>
<linearGradient id="paint3_linear_17199_459" x1="15.9492" y1="8.77794" x2="10.9035" y2="13.4946" gradientUnits="userSpaceOnUse">
<stop offset="0.2888" stop-color="white"/>
<stop offset="0.7796" stop-color="white" stop-opacity="0"/>
</linearGradient>
<linearGradient id="paint4_linear_17199_459" x1="5.67074" y1="15.7512" x2="17.4677" y2="15.7512" gradientUnits="userSpaceOnUse">
<stop stop-color="#0002E9"/>
<stop offset="0.9952" stop-color="#FF00C7"/>
</linearGradient>
<linearGradient id="paint5_linear_17199_459" x1="18.0265" y1="13.3689" x2="11.7184" y2="19.4425" gradientUnits="userSpaceOnUse">
<stop offset="0.2888" stop-color="white"/>
<stop offset="0.7796" stop-color="white" stop-opacity="0"/>
</linearGradient>
<linearGradient id="paint6_linear_17199_459" x1="5.67254" y1="15.7516" x2="11.9839" y2="15.7516" gradientUnits="userSpaceOnUse">
<stop stop-color="#000292"/>
<stop offset="0.9952" stop-color="#7D00C7"/>
</linearGradient>
<linearGradient id="paint7_linear_17199_459" x1="5.67866" y1="13.3967" x2="17.4598" y2="13.3967" gradientUnits="userSpaceOnUse">
<stop stop-color="#000292"/>
<stop offset="0.9952" stop-color="#BE00C7"/>
</linearGradient>
<linearGradient id="paint8_linear_17199_459" x1="17.265" y1="7.19496" x2="16.4408" y2="8.55898" gradientUnits="userSpaceOnUse">
<stop offset="0.2888" stop-color="white"/>
<stop offset="0.7796" stop-color="white" stop-opacity="0"/>
</linearGradient>
<linearGradient id="paint9_linear_17199_459" x1="10.852" y1="17.1677" x2="11.3217" y2="17.1677" gradientUnits="userSpaceOnUse">
<stop offset="0.2888" stop-color="white"/>
<stop offset="0.7796" stop-color="white" stop-opacity="0"/>
</linearGradient>
<linearGradient id="paint10_linear_17199_459" x1="12.4694" y1="17.012" x2="12.9391" y2="17.012" gradientUnits="userSpaceOnUse">
<stop offset="0.2888" stop-color="white"/>
<stop offset="0.7796" stop-color="white" stop-opacity="0"/>
</linearGradient>
<linearGradient id="paint11_linear_17199_459" x1="11.7453" y1="17.7921" x2="12.0979" y2="17.7921" gradientUnits="userSpaceOnUse">
<stop offset="0.2888" stop-color="white"/>
<stop offset="0.7796" stop-color="white" stop-opacity="0"/>
</linearGradient>
<linearGradient id="paint12_linear_17199_459" x1="13.1798" y1="17.629" x2="13.5324" y2="17.629" gradientUnits="userSpaceOnUse">
<stop offset="0.2888" stop-color="white"/>
<stop offset="0.7796" stop-color="white" stop-opacity="0"/>
</linearGradient>
<linearGradient id="paint13_linear_17199_459" x1="9.33176" y1="16.8631" x2="10.0988" y2="16.8631" gradientUnits="userSpaceOnUse">
<stop offset="0.2888" stop-color="white"/>
<stop offset="0.7796" stop-color="white" stop-opacity="0"/>
</linearGradient>
<linearGradient id="paint14_linear_17199_459" x1="13.8886" y1="15.6318" x2="14.6557" y2="15.6318" gradientUnits="userSpaceOnUse">
<stop offset="0.2888" stop-color="white"/>
<stop offset="0.7796" stop-color="white" stop-opacity="0"/>
</linearGradient>
</defs>
</svg>
