<svg width="24" height="24" viewBox="0 0 24 24" fill="none" xmlns="http://www.w3.org/2000/svg">
<circle cx="12" cy="12" r="12" fill="#F7F9FC"/>
<path d="M18.959 6.60515C18.8035 6.02744 18.3038 5.44973 17.4043 4.80662C16.6824 4.2943 15.9162 4 15.3054 4C15.1832 4 15.0722 4.0109 14.9611 4.0327C14.6835 4.0872 14.4392 4.28341 14.2837 4.57771C14.0949 4.92651 14.0505 5.39523 14.1727 5.67863C14.217 5.76583 14.2726 5.87483 14.3392 5.97293C13.7506 6.32174 13.4175 6.41984 13.373 6.43074C14.9056 6.93215 16.1827 7.97857 16.9823 9.3411L16.9934 9.2103C17.0267 8.85059 17.1378 8.43638 17.2933 8.01127C17.4487 8.05487 17.6042 8.07668 17.7596 8.07668C18.1706 8.07668 18.5259 7.91317 18.748 7.61887C18.9701 7.32456 19.0589 6.93215 18.959 6.60515Z" fill="#5E12A0"/>
<path d="M17.3603 7.69516C18.3709 7.96766 18.7818 7.20464 18.6485 6.69234C18.5041 6.18002 18.0377 5.65682 17.2159 5.06821C16.3941 4.4796 15.5613 4.23979 15.0282 4.34879C14.4952 4.45779 14.3397 5.25351 14.4729 5.55871C14.5285 5.67861 14.6506 5.85302 14.8172 6.04922C14.6062 6.19093 14.4063 6.29993 14.2397 6.39803C15.2614 6.84494 16.1498 7.54255 16.8161 8.41457C16.8938 8.12026 17.0049 7.85865 17.1049 7.62975C17.1826 7.64065 17.2714 7.66245 17.3603 7.69516Z" fill="url(#paint0_radial_5685_19370)"/>
<path d="M11.5743 18.3768C15.0027 18.3768 17.782 15.6488 17.782 12.2836C17.782 8.91845 15.0027 6.19043 11.5743 6.19043C8.14579 6.19043 5.36646 8.91845 5.36646 12.2836C5.36646 15.6488 8.14579 18.3768 11.5743 18.3768Z" fill="url(#paint1_radial_5685_19370)"/>
<path opacity="0.6" d="M18.1383 6.1906C17.2943 5.31859 16.5835 5.08968 15.7285 4.90438C15.0621 4.75177 15.2398 4.38117 16.0505 4.45747C15.6618 4.32667 15.2954 4.29397 15.0288 4.34846C14.4957 4.45747 14.3403 5.25318 14.4735 5.55839C14.529 5.67829 14.6512 5.85269 14.8178 6.0489C14.518 6.2451 14.2626 6.3868 14.0515 6.49581C14.1515 6.53941 14.2736 6.59391 14.418 6.67021C14.7956 6.86642 15.2065 7.19342 15.2065 7.19342C14.5846 6.67021 14.7178 6.4304 15.573 5.84179C15.8395 5.65649 16.3281 5.67829 16.7834 5.9072C17.2388 6.1361 17.7718 6.71381 17.7718 6.71381L17.261 7.67303C17.2943 7.68393 17.3276 7.69482 17.3609 7.70573C17.6829 7.79293 17.9383 7.77113 18.1383 7.69483C18.3715 7.55313 18.9823 7.07352 18.1383 6.1906Z" fill="#A98698"/>
<path d="M15.7162 5.42764C15.9383 5.51484 16.227 5.66744 16.5825 5.89635C17.0044 6.16885 17.3709 6.47406 17.6041 6.71386C17.2154 7.21527 16.96 7.90199 16.8046 8.38159C16.8823 8.4906 16.9711 8.5996 17.0489 8.7086C17.1266 8.4361 17.2598 8.03279 17.4375 7.62948C17.482 7.64038 17.5375 7.64038 17.593 7.64038C17.7262 7.64038 17.8817 7.61858 18.0039 7.52048C18.0927 7.45508 18.1927 7.33518 18.1816 7.11717C18.1816 6.91007 18.015 6.64847 17.6708 6.33236C17.4265 6.10346 17.0933 5.85275 16.7601 5.62384C15.8051 5.00253 15.1388 4.82813 14.8389 5.12243C14.6391 5.31864 14.6612 5.55845 14.7279 5.73285C14.3725 5.96175 14.0727 6.12525 13.8728 6.23426C14.006 6.27786 14.1282 6.33236 14.2615 6.38686C14.6168 6.20156 15.1276 5.88545 15.7162 5.42764ZM17.8151 6.98637C17.8484 7.04087 17.8596 7.09537 17.8596 7.12807C17.8596 7.22618 17.8262 7.25887 17.804 7.28068C17.7596 7.31338 17.6708 7.33517 17.593 7.33517C17.6596 7.20437 17.7374 7.09537 17.8151 6.98637ZM15.0721 5.36224C15.1055 5.32954 15.1943 5.30773 15.3387 5.32954C15.2276 5.41674 15.1166 5.49304 15.0055 5.56934C14.9944 5.49304 15.0055 5.41674 15.0721 5.36224Z" fill="#5E12A0"/>
<path d="M11.5743 5.83093C7.94288 5.83093 5 8.71949 5 12.2839C5 15.8482 7.94288 18.7368 11.5743 18.7368C15.2057 18.7368 18.1485 15.8482 18.1485 12.2839C18.1485 8.71949 15.1946 5.83093 11.5743 5.83093ZM11.5743 18.3771C8.14277 18.3771 5.36647 15.652 5.36647 12.2839C5.36647 8.91569 8.14277 6.19063 11.5743 6.19063C15.0058 6.19063 17.7821 8.91569 17.7821 12.2839C17.7821 15.652 14.9947 18.3771 11.5743 18.3771Z" fill="#5E12A0"/>
<path opacity="0.6" d="M11.5743 18.3768C15.0027 18.3768 17.782 15.6488 17.782 12.2836C17.782 8.91845 15.0027 6.19043 11.5743 6.19043C8.14579 6.19043 5.36646 8.91845 5.36646 12.2836C5.36646 15.6488 8.14579 18.3768 11.5743 18.3768Z" fill="url(#paint2_linear_5685_19370)"/>
<path opacity="0.6" d="M11.5296 17.6357C8.14256 17.1016 5.84378 13.9732 6.39904 10.6487C6.64336 9.17716 7.39851 7.92363 8.46461 7.01892C6.90988 7.90184 5.75494 9.43877 5.444 11.3136C4.89984 14.6381 7.19861 17.7665 10.5746 18.3006C12.4625 18.6058 14.2837 18.0281 15.6275 16.8945C14.4392 17.5703 12.9956 17.8646 11.5296 17.6357Z" fill="#A98698"/>
<path opacity="0.6" d="M12.5626 6.27842C10.9968 6.02772 9.47536 6.37652 8.23158 7.15044C8.20937 7.17224 8.18716 7.19404 8.18716 7.19404C8.66468 6.91063 9.36431 6.65993 9.36431 6.65993C7.56527 7.68454 7.01001 8.85087 7.01001 8.85087C7.70964 7.52104 9.7641 6.58363 11.3744 6.51822C12.9846 6.45282 14.0396 6.92153 15.3278 7.93525C16.616 8.95987 17.3934 11.0527 17.3156 12.7095C17.249 14.3664 16.3606 15.7071 16.3606 15.7071C16.9713 14.9331 17.3378 14.3664 17.5711 13.7886C17.6155 13.6143 17.6599 13.4399 17.6821 13.2545C18.2374 9.94089 15.9497 6.81253 12.5626 6.27842Z" fill="url(#paint3_linear_5685_19370)"/>
<path d="M17.4703 12.229C17.4703 15.4227 14.8273 18.017 11.5735 18.017C8.31967 18.017 5.66553 15.4227 5.66553 12.229H17.4703Z" fill="url(#paint4_linear_5685_19370)"/>
<g opacity="0.6">
<path opacity="0.6" d="M17.0044 12.2295C17.0044 15.3469 14.4947 17.8976 11.3408 18.0175C11.4186 18.0175 11.4963 18.0175 11.574 18.0175C14.8279 18.0175 17.4709 15.4232 17.4709 12.2295H17.0044Z" fill="url(#paint5_linear_5685_19370)"/>
</g>
<g opacity="0.7">
<path opacity="0.7" d="M6.50037 12.2295H5.66748C5.66748 15.4232 8.31052 18.0175 11.5643 18.0175C11.7087 18.0175 11.842 18.0175 11.9752 18.0065C8.9213 17.7886 6.50037 15.2815 6.50037 12.2295Z" fill="url(#paint6_linear_5685_19370)"/>
</g>
<path d="M17.4593 12.2843C17.4593 11.6193 16.2821 11.2378 14.7162 11.107C13.5835 11.0198 12.4397 11.1288 11.1293 11.5212C9.99655 11.8483 8.97488 11.7937 8.23083 11.7065C6.57615 11.5212 5.66553 11.4994 5.66553 12.2843C5.66553 13.4179 8.01983 14.8349 11.5513 14.3443C13.3392 14.0937 14.261 13.5814 15.3159 13.2325C16.4598 12.8619 17.4593 12.8728 17.4593 12.2843Z" fill="url(#paint7_linear_5685_19370)"/>
<path d="M13.5072 9.53796C14.0591 9.53796 14.5064 9.09874 14.5064 8.55694C14.5064 8.01515 14.0591 7.57593 13.5072 7.57593C12.9554 7.57593 12.5081 8.01515 12.5081 8.55694C12.5081 9.09874 12.9554 9.53796 13.5072 9.53796Z" fill="white"/>
<path d="M15.1384 10.2677C15.3714 10.2677 15.5603 10.0823 15.5603 9.85354C15.5603 9.62478 15.3714 9.43933 15.1384 9.43933C14.9054 9.43933 14.7166 9.62478 14.7166 9.85354C14.7166 10.0823 14.9054 10.2677 15.1384 10.2677Z" fill="white"/>
<g opacity="0.6">
<path opacity="0.6" d="M16.6473 7.77187C16.6361 7.77187 16.6251 7.77187 16.6251 7.77187C16.5584 7.76097 16.5141 7.69557 16.5251 7.61927C16.6251 7.11786 17.0469 6.63825 17.0692 6.61645C17.1135 6.56195 17.2024 6.56195 17.2468 6.60555C17.3023 6.64915 17.3023 6.73635 17.2578 6.77995C17.2468 6.79085 16.8582 7.23776 16.7694 7.67377C16.7583 7.73917 16.7028 7.77187 16.6473 7.77187Z" fill="url(#paint8_linear_5685_19370)"/>
</g>
<path opacity="0.2" d="M11.1651 16.8293C11.3368 16.8293 11.476 16.6926 11.476 16.5241C11.476 16.3555 11.3368 16.2189 11.1651 16.2189C10.9934 16.2189 10.8542 16.3555 10.8542 16.5241C10.8542 16.6926 10.9934 16.8293 11.1651 16.8293Z" fill="white"/>
<g opacity="0.4">
<path opacity="0.6" d="M10.9883 16.723C10.8662 16.603 10.8662 16.4069 10.9883 16.2869C11.0105 16.2651 11.0327 16.2542 11.0549 16.2324C11.0105 16.2434 10.9772 16.2651 10.9439 16.2978C10.8218 16.4178 10.8218 16.614 10.9439 16.7338C11.0438 16.8319 11.1992 16.8538 11.3213 16.7884C11.2103 16.8319 11.0771 16.8102 10.9883 16.723Z" fill="url(#paint9_linear_5685_19370)"/>
</g>
<path opacity="0.3" d="M11.2746 16.4361C11.3114 16.4361 11.3412 16.407 11.3412 16.3711C11.3412 16.3352 11.3114 16.3062 11.2746 16.3062C11.2378 16.3062 11.208 16.3352 11.208 16.3711C11.208 16.407 11.2378 16.4361 11.2746 16.4361Z" fill="white"/>
<path opacity="0.2" d="M12.7866 16.6774C12.9584 16.6774 13.0975 16.5407 13.0975 16.3721C13.0975 16.2035 12.9584 16.0669 12.7866 16.0669C12.615 16.0669 12.4758 16.2035 12.4758 16.3721C12.4758 16.5407 12.615 16.6774 12.7866 16.6774Z" fill="white"/>
<g opacity="0.4">
<path opacity="0.6" d="M12.6067 16.5694C12.4845 16.4495 12.4845 16.2532 12.6067 16.1333C12.6289 16.1116 12.6511 16.1006 12.6733 16.0789C12.6289 16.0897 12.5956 16.1116 12.5623 16.1443C12.4402 16.2641 12.4402 16.4603 12.5623 16.5803C12.6622 16.6784 12.8176 16.7001 12.9397 16.6347C12.8287 16.6784 12.6955 16.6565 12.6067 16.5694Z" fill="url(#paint10_linear_5685_19370)"/>
</g>
<path opacity="0.3" d="M12.8959 16.2831C12.9327 16.2831 12.9625 16.254 12.9625 16.2181C12.9625 16.1823 12.9327 16.1532 12.8959 16.1532C12.8592 16.1532 12.8293 16.1823 12.8293 16.2181C12.8293 16.254 12.8592 16.2831 12.8959 16.2831Z" fill="white"/>
<path opacity="0.2" d="M11.9858 17.3855C12.1146 17.3855 12.219 17.283 12.219 17.1566C12.219 17.0302 12.1146 16.9277 11.9858 16.9277C11.8571 16.9277 11.7527 17.0302 11.7527 17.1566C11.7527 17.283 11.8571 17.3855 11.9858 17.3855Z" fill="white"/>
<g opacity="0.4">
<path opacity="0.6" d="M11.8514 17.3C11.7626 17.2128 11.7626 17.0602 11.8514 16.973C11.8625 16.9621 11.8847 16.9513 11.8958 16.9403C11.8625 16.9513 11.8403 16.973 11.8181 16.9948C11.7293 17.082 11.7293 17.2346 11.8181 17.3219C11.8958 17.3981 12.0068 17.409 12.1067 17.3546C12.0179 17.3873 11.918 17.3654 11.8514 17.3Z" fill="url(#paint11_linear_5685_19370)"/>
</g>
<path opacity="0.3" d="M12.0625 17.0795C12.087 17.0795 12.1068 17.0601 12.1068 17.0362C12.1068 17.0123 12.087 16.9928 12.0625 16.9928C12.038 16.9928 12.0181 17.0123 12.0181 17.0362C12.0181 17.0601 12.038 17.0795 12.0625 17.0795Z" fill="white"/>
<path opacity="0.2" d="M13.4167 17.2217C13.5454 17.2217 13.6499 17.1192 13.6499 16.9928C13.6499 16.8664 13.5454 16.7639 13.4167 16.7639C13.288 16.7639 13.1836 16.8664 13.1836 16.9928C13.1836 17.1192 13.288 17.2217 13.4167 17.2217Z" fill="white"/>
<g opacity="0.4">
<path opacity="0.6" d="M13.2857 17.1369C13.197 17.0497 13.197 16.8972 13.2857 16.8099C13.2968 16.799 13.319 16.7882 13.3301 16.7772C13.2968 16.7882 13.2746 16.8099 13.2524 16.8317C13.1636 16.9189 13.1636 17.0715 13.2524 17.1588C13.3301 17.2351 13.4412 17.2459 13.5411 17.1915C13.4523 17.2242 13.3523 17.2023 13.2857 17.1369Z" fill="url(#paint12_linear_5685_19370)"/>
</g>
<path opacity="0.3" d="M13.4946 16.9164C13.5192 16.9164 13.539 16.897 13.539 16.873C13.539 16.8491 13.5192 16.8297 13.4946 16.8297C13.4701 16.8297 13.4502 16.8491 13.4502 16.873C13.4502 16.897 13.4701 16.9164 13.4946 16.9164Z" fill="white"/>
<path opacity="0.2" d="M9.84125 16.7208C10.1233 16.7208 10.3519 16.4963 10.3519 16.2194C10.3519 15.9425 10.1233 15.718 9.84125 15.718C9.55921 15.718 9.33057 15.9425 9.33057 16.2194C9.33057 16.4963 9.55921 16.7208 9.84125 16.7208Z" fill="white"/>
<g opacity="0.4">
<path opacity="0.6" d="M9.55316 16.5349C9.35332 16.3386 9.35332 16.0225 9.55316 15.8264C9.58647 15.7936 9.61977 15.7718 9.66417 15.75C9.59757 15.7718 9.54206 15.8154 9.48655 15.8591C9.28671 16.0552 9.28671 16.3713 9.48655 16.5676C9.65307 16.7311 9.90842 16.7638 10.1083 16.6438C9.91952 16.7201 9.69748 16.6874 9.55316 16.5349Z" fill="url(#paint13_linear_5685_19370)"/>
</g>
<path opacity="0.3" d="M10.0182 16.0664C10.0796 16.0664 10.1293 16.0176 10.1293 15.9574C10.1293 15.8972 10.0796 15.8484 10.0182 15.8484C9.95693 15.8484 9.90723 15.8972 9.90723 15.9574C9.90723 16.0176 9.95693 16.0664 10.0182 16.0664Z" fill="white"/>
<path opacity="0.2" d="M14.4072 15.4887C14.6893 15.4887 14.9178 15.2642 14.9178 14.9872C14.9178 14.7103 14.6893 14.4858 14.4072 14.4858C14.1251 14.4858 13.8965 14.7103 13.8965 14.9872C13.8965 15.2642 14.1251 15.4887 14.4072 15.4887Z" fill="white"/>
<g opacity="0.4">
<path opacity="0.6" d="M14.1059 15.3039C13.906 15.1077 13.906 14.7916 14.1059 14.5954C14.1392 14.5627 14.1725 14.5409 14.2169 14.519C14.1503 14.5409 14.0948 14.5844 14.0393 14.6281C13.8394 14.8243 13.8394 15.1404 14.0393 15.3366C14.2058 15.5001 14.4611 15.5328 14.661 15.4129C14.4723 15.4892 14.2613 15.4565 14.1059 15.3039Z" fill="url(#paint14_linear_5685_19370)"/>
</g>
<path opacity="0.3" d="M14.5851 14.835C14.6465 14.835 14.6962 14.7861 14.6962 14.7259C14.6962 14.6657 14.6465 14.6169 14.5851 14.6169C14.5239 14.6169 14.4741 14.6657 14.4741 14.7259C14.4741 14.7861 14.5239 14.835 14.5851 14.835Z" fill="white"/>
<defs>
<radialGradient id="paint0_radial_5685_19370" cx="0" cy="0" r="1" gradientUnits="userSpaceOnUse" gradientTransform="translate(18.4459 6.00561) scale(4.9634 4.87178)">
<stop stop-color="#FFEAFF" stop-opacity="0.6"/>
<stop offset="0.6807" stop-color="#A087C9"/>
<stop offset="1" stop-color="#10002F"/>
</radialGradient>
<radialGradient id="paint1_radial_5685_19370" cx="0" cy="0" r="1" gradientUnits="userSpaceOnUse" gradientTransform="translate(17.1465 11.2015) scale(13.9007 14.5111)">
<stop stop-color="#FFEAFF" stop-opacity="0.6"/>
<stop offset="0.6807" stop-color="#A087C9"/>
<stop offset="1" stop-color="#10002F"/>
</radialGradient>
<linearGradient id="paint2_linear_5685_19370" x1="10.5785" y1="18.2905" x2="12.4932" y2="6.2555" gradientUnits="userSpaceOnUse">
<stop stop-color="#81FFFF"/>
<stop offset="0.6202" stop-color="white" stop-opacity="0"/>
</linearGradient>
<linearGradient id="paint3_linear_5685_19370" x1="15.9492" y1="8.14635" x2="10.9034" y2="12.863" gradientUnits="userSpaceOnUse">
<stop offset="0.2888" stop-color="white"/>
<stop offset="0.7796" stop-color="white" stop-opacity="0"/>
</linearGradient>
<linearGradient id="paint4_linear_5685_19370" x1="5.67052" y1="15.1196" x2="17.4675" y2="15.1196" gradientUnits="userSpaceOnUse">
<stop stop-color="#0002E9"/>
<stop offset="0.9952" stop-color="#FF00C7"/>
</linearGradient>
<linearGradient id="paint5_linear_5685_19370" x1="18.0265" y1="12.7374" x2="11.7184" y2="18.8109" gradientUnits="userSpaceOnUse">
<stop offset="0.2888" stop-color="white"/>
<stop offset="0.7796" stop-color="white" stop-opacity="0"/>
</linearGradient>
<linearGradient id="paint6_linear_5685_19370" x1="5.67248" y1="15.1201" x2="11.9838" y2="15.1201" gradientUnits="userSpaceOnUse">
<stop stop-color="#000292"/>
<stop offset="0.9952" stop-color="#7D00C7"/>
</linearGradient>
<linearGradient id="paint7_linear_5685_19370" x1="5.67844" y1="12.7651" x2="17.4596" y2="12.7651" gradientUnits="userSpaceOnUse">
<stop stop-color="#000292"/>
<stop offset="0.9952" stop-color="#BE00C7"/>
</linearGradient>
<linearGradient id="paint8_linear_5685_19370" x1="17.2648" y1="6.56337" x2="16.4406" y2="7.92739" gradientUnits="userSpaceOnUse">
<stop offset="0.2888" stop-color="white"/>
<stop offset="0.7796" stop-color="white" stop-opacity="0"/>
</linearGradient>
<linearGradient id="paint9_linear_5685_19370" x1="10.852" y1="16.5361" x2="11.3217" y2="16.5361" gradientUnits="userSpaceOnUse">
<stop offset="0.2888" stop-color="white"/>
<stop offset="0.7796" stop-color="white" stop-opacity="0"/>
</linearGradient>
<linearGradient id="paint10_linear_5685_19370" x1="12.4693" y1="16.3804" x2="12.9389" y2="16.3804" gradientUnits="userSpaceOnUse">
<stop offset="0.2888" stop-color="white"/>
<stop offset="0.7796" stop-color="white" stop-opacity="0"/>
</linearGradient>
<linearGradient id="paint11_linear_5685_19370" x1="11.7452" y1="17.1605" x2="12.0979" y2="17.1605" gradientUnits="userSpaceOnUse">
<stop offset="0.2888" stop-color="white"/>
<stop offset="0.7796" stop-color="white" stop-opacity="0"/>
</linearGradient>
<linearGradient id="paint12_linear_5685_19370" x1="13.1796" y1="16.9974" x2="13.5322" y2="16.9974" gradientUnits="userSpaceOnUse">
<stop offset="0.2888" stop-color="white"/>
<stop offset="0.7796" stop-color="white" stop-opacity="0"/>
</linearGradient>
<linearGradient id="paint13_linear_5685_19370" x1="9.33158" y1="16.2315" x2="10.0986" y2="16.2315" gradientUnits="userSpaceOnUse">
<stop offset="0.2888" stop-color="white"/>
<stop offset="0.7796" stop-color="white" stop-opacity="0"/>
</linearGradient>
<linearGradient id="paint14_linear_5685_19370" x1="13.8886" y1="15.0002" x2="14.6556" y2="15.0002" gradientUnits="userSpaceOnUse">
<stop offset="0.2888" stop-color="white"/>
<stop offset="0.7796" stop-color="white" stop-opacity="0"/>
</linearGradient>
</defs>
</svg>
