<svg width="24" height="24" viewBox="0 0 24 24" fill="none" xmlns="http://www.w3.org/2000/svg">
<path d="M23.6408 14.9029C22.0379 21.3315 15.5261 25.2438 9.09602 23.6407C2.66858 22.038 -1.24421 15.5266 0.359461 9.09838C1.96163 2.66907 8.47345 -1.24364 14.9016 0.359095C21.3313 1.96183 25.2437 8.47401 23.6408 14.9029Z" fill="#F7931A"/>
<path d="M17.2914 10.2905C17.5303 8.69376 16.3144 7.83539 14.6519 7.26277L15.1912 5.0998L13.8744 4.77168L13.3493 6.87765C13.0032 6.7914 12.6476 6.71003 12.2944 6.62941L12.8232 4.50955L11.5071 4.18143L10.9675 6.34366C10.6809 6.27841 10.3997 6.21391 10.1266 6.14604L10.1281 6.13929L8.31218 5.68592L7.96189 7.09215C7.96189 7.09215 8.93887 7.31602 8.91825 7.3299C9.45155 7.46302 9.54794 7.81589 9.53181 8.09564L8.9175 10.5597C8.95425 10.5691 9.00188 10.5826 9.05439 10.6036C9.01051 10.5927 8.96363 10.5807 8.91525 10.5691L8.05416 14.021C7.9889 14.183 7.82351 14.426 7.45072 14.3337C7.46384 14.3528 6.49361 14.0948 6.49361 14.0948L5.83992 15.6019L7.55348 16.0291C7.87226 16.1089 8.18467 16.1926 8.4922 16.2713L7.94727 18.459L9.26253 18.7872L9.80222 16.6227C10.1615 16.7202 10.5103 16.8102 10.8516 16.8949L10.3138 19.0493L11.6305 19.3774L12.1755 17.1938C14.4208 17.6187 16.1093 17.4473 16.82 15.4167C17.3927 13.7817 16.7915 12.8386 15.6101 12.2236C16.4704 12.0252 17.1185 11.4594 17.2914 10.2905ZM14.2828 14.5088C13.8759 16.1438 11.1227 15.2599 10.2301 15.0383L10.9532 12.14C11.8458 12.3627 14.7081 12.8037 14.2828 14.5088ZM14.6901 10.2669C14.3188 11.7541 12.0273 10.9985 11.284 10.8132L11.9396 8.18451C12.6829 8.36976 15.0768 8.71551 14.6901 10.2669Z" fill="white"/>
</svg>
