<svg width="24" height="24" viewBox="0 0 24 24" fill="none" xmlns="http://www.w3.org/2000/svg">
<path d="M3.77658 20.7392C8.60315 25.2809 16.1976 25.05 20.7393 20.2234C25.281 15.3969 25.0501 7.80239 20.2235 3.2607C15.3969 -1.28098 7.80245 -1.05004 3.26076 3.77652C-1.28092 8.60309 -1.04998 16.1976 3.77658 20.7392Z" fill="url(#paint0_linear_7202_2339)"/>
<path fill-rule="evenodd" clip-rule="evenodd" d="M5.37528 3.55556C5.37528 3.55556 9.27062 5.81738 10.5421 8.39259C11.0043 8.2656 11.49 8.19647 11.9853 8.19647C12.4898 8.19647 12.9844 8.2682 13.4543 8.39978C14.7221 5.82159 18.6247 3.55556 18.6247 3.55556C18.7628 5.02525 18.6337 8.55291 17.0938 11.5037C17.0047 11.3508 16.9188 11.2079 16.833 11.071C17.345 10.0132 17.4944 9.33137 17.5069 8.03078C17.2117 9.21133 17.0393 9.87588 16.4994 10.5699C16.1674 10.1015 15.7813 9.64406 15.1847 9.00055L15.1853 8.98354C15.3836 7.78002 15.6879 7.05524 16.323 5.73865C15.0815 7.19452 14.4885 8.37574 14.5063 9.42837L14.4962 9.41854C14.5041 10.0149 14.7078 10.5699 15.1005 11.11L15.1753 10.5439L15.5141 10.751C15.4721 10.6233 15.4299 10.5169 15.3903 10.4169C15.3476 10.3087 15.3078 10.2081 15.2741 10.0961C15.2785 10.0998 15.283 10.1035 15.2874 10.1072C15.2863 10.1035 15.2852 10.0998 15.284 10.0961C15.7709 10.5004 16.2086 10.9623 16.9441 11.7806L16.9344 11.7979L16.9248 11.7886C16.9599 11.9784 16.9781 12.1714 16.9781 12.3665C16.9781 12.6812 16.9306 13.0755 16.8417 13.5203C16.9812 13.6011 17.1187 13.7117 17.2081 13.8854C17.0195 13.8886 16.8894 13.9043 16.7456 13.9539C16.7406 13.975 16.7354 13.9961 16.7302 14.0174C17.2408 14.5105 17.4724 14.8603 17.8056 15.5147C17.2815 15.0788 16.9502 14.8093 16.5763 14.5862C16.5595 14.6438 16.5422 14.7018 16.5244 14.76C16.8116 15.2679 16.8672 15.6423 16.7357 16.288C16.4887 16.0743 16.311 15.9241 16.1531 15.8407C16.0371 16.1448 15.9106 16.4509 15.7747 16.7534C15.6834 16.8416 15.6101 16.9374 15.5377 17.0319C15.3438 17.2853 15.1559 17.5307 14.6449 17.6031C14.6724 18.303 14.5176 18.6097 14.3531 18.9358C14.2706 19.0992 14.1856 19.2675 14.12 19.4926C13.9903 19.644 13.858 19.785 13.7234 19.9139C12.8905 20.3307 12.8471 20.3101 12.0694 19.9414L11.9721 19.8953C11.1 20.3078 11.0372 20.3298 10.2977 19.9614C10.1209 19.797 9.94799 19.6114 9.77994 19.4086C9.71865 19.2244 9.64493 19.0782 9.57306 18.9358C9.40846 18.6097 9.25375 18.303 9.2812 17.6031C8.77016 17.5307 8.58227 17.2853 8.38837 17.0319C8.33983 16.9685 8.2909 16.9047 8.23644 16.8428C8.0868 16.515 7.94816 16.1825 7.82191 15.8522C7.66285 15.9352 7.48411 16.0861 7.23489 16.3019C7.10299 15.654 7.15932 15.2794 7.44894 14.7689C7.4314 14.7116 7.41432 14.6547 7.39771 14.598C7.02245 14.8214 6.69065 15.0912 6.16502 15.5286C6.49877 14.8729 6.73064 14.523 7.24323 14.0285C7.2383 14.0086 7.23343 13.9888 7.22864 13.969C7.08342 13.9184 6.95268 13.9025 6.76251 13.8992C6.85245 13.7245 6.99107 13.6136 7.13144 13.5328C7.04083 13.0828 6.99246 12.6841 6.99246 12.3665C6.99246 12.1728 7.01045 11.9812 7.04504 11.7927C7.78711 10.9668 8.22677 10.5024 8.71591 10.0961C8.68224 10.2081 8.64243 10.3087 8.59965 10.4168C8.56009 10.5168 8.51799 10.6232 8.47587 10.751L8.81468 10.5438L8.88957 11.11C9.97375 9.61872 9.61729 8.01414 7.67705 5.73865C8.31205 7.05524 8.61642 7.78005 8.81471 8.98354L8.81533 9.00055C8.21874 9.64406 7.83263 10.1015 7.50057 10.5699C6.96067 9.87588 6.78833 9.21133 6.49308 8.03078C6.5056 9.33137 6.65504 10.0132 7.16707 11.071C7.08123 11.2078 6.99537 11.3507 6.90626 11.5036C5.36633 8.55284 5.23724 5.02524 5.37528 3.55556ZM10.6158 14.5481L10.1736 13.7197L8.93253 13.4987C8.98668 14.3759 9.57447 14.7138 10.6158 14.5481ZM13.9682 13.7197L13.526 14.5481C14.5674 14.7138 15.1551 14.3759 15.2093 13.4987L13.9682 13.7197ZM11.1909 18.0376C10.998 18.1698 10.8789 18.3512 10.8789 18.5514C10.8789 18.9556 11.3643 19.2831 11.9631 19.2831C12.5619 19.2831 13.0473 18.9556 13.0473 18.5514C13.0473 18.3408 12.9155 18.1509 12.7045 18.0175C12.4908 18.1009 12.2178 18.1509 11.9203 18.1509C11.6477 18.1509 11.3957 18.1089 11.1909 18.0376Z" fill="white"/>
<defs>
<linearGradient id="paint0_linear_7202_2339" x1="-1.42223e-06" y1="12" x2="24.0001" y2="12" gradientUnits="userSpaceOnUse">
<stop stop-color="#032963"/>
<stop offset="0.604502" stop-color="#040D21"/>
</linearGradient>
</defs>
</svg>
