<svg width="24" height="24" viewBox="0 0 24 24" fill="none" xmlns="http://www.w3.org/2000/svg">
<path d="M24 12C24 5.37258 18.6274 0 12 0C5.37258 0 0 5.37258 0 12C0 18.6274 5.37258 24 12 24C18.6274 24 24 18.6274 24 12Z" fill="#4A126B"/>
<path d="M18.9284 11.1983C18.9312 10.553 18.7709 9.91673 18.4613 9.34453C18.4613 9.57494 18.407 9.82106 18.3744 10.0672C18.3092 10.5542 18.2332 11.0622 18.1136 11.6068C17.9616 12.2771 17.7878 12.8897 17.6032 13.4396L17.7878 13.361L18.1626 13.1987C18.1626 13.2982 18.1192 13.4396 18.0757 13.6019C18.0425 13.6986 18.0025 13.7932 17.9562 13.8847C17.9128 13.9842 17.8638 14.0784 17.815 14.1727C17.7661 14.2669 17.7226 14.3402 17.6737 14.4241C17.5524 14.6236 17.4163 14.8144 17.2663 14.9948C16.5264 15.8803 15.4748 16.4729 14.3116 16.6601H14.1812C14.0806 16.6763 13.9789 16.6868 13.877 16.6915H13.7521C12.9506 16.6945 12.1597 16.515 11.4436 16.1678C10.7753 15.8473 10.198 15.3746 9.76174 14.7907C9.32544 14.2068 9.04327 13.5292 8.93964 12.8165C8.93964 12.6698 8.91248 12.5284 8.90705 12.387C8.90705 12.3556 8.90705 12.3241 8.90705 12.2928C8.91079 11.7539 9.02142 11.2206 9.23296 10.7218C9.46988 10.117 9.8685 9.58334 10.3884 9.17501C10.9083 8.76667 11.5309 8.49816 12.1932 8.3967C11.9982 8.55725 11.8166 8.73234 11.65 8.92037C11.5868 8.97074 11.5351 9.03314 11.4979 9.10364L13.7792 8.85228H13.8607C14.729 8.88458 15.5728 9.13946 16.305 9.59065L16.8862 9.03032L17.0111 9.40736L17.0708 9.59065C17.1841 9.37386 17.2822 9.14992 17.3641 8.92037C17.4022 8.82086 17.4402 8.7109 17.4727 8.5957C17.549 8.3492 17.6035 8.09695 17.6357 7.84162C17.6438 7.70557 17.6438 7.5692 17.6357 7.43316C17.5379 7.50424 17.4275 7.55747 17.3099 7.59025C17.2372 7.60955 17.1624 7.6201 17.0872 7.62167C17.0011 7.62566 16.9151 7.61683 16.8318 7.5955C16.6056 7.5298 16.4038 7.4025 16.2506 7.22892C16.1371 7.10272 16.0372 6.96589 15.952 6.82046C15.7781 6.29681 13.8336 5.73126 12.3398 4.89863C11.9175 4.67578 11.5268 4.40118 11.1775 4.0817C10.8912 3.8206 10.7006 3.47696 10.6343 3.10246C10.6356 3.11464 10.6356 3.12692 10.6343 3.13912C10.6343 3.13912 10.6343 3.13912 10.6343 3.17053C10.6312 3.19136 10.6312 3.21253 10.6343 3.23336C10.6311 3.24539 10.6311 3.258 10.6343 3.27002C10.6343 3.29621 10.6343 3.32239 10.6072 3.34858C10.6097 3.36769 10.6097 3.38706 10.6072 3.40619C10.6072 3.4376 10.6072 3.46378 10.6072 3.4952C10.6098 3.51782 10.6098 3.54066 10.6072 3.56328V3.66277C10.6098 3.6889 10.6098 3.7152 10.6072 3.74132C10.6072 3.77798 10.6072 3.80941 10.6072 3.8513C10.6045 3.87917 10.6045 3.90721 10.6072 3.93508V4.05028C10.6045 4.08164 10.6045 4.11318 10.6072 4.14455C10.6072 4.18121 10.6072 4.22309 10.6072 4.26498C10.6072 4.30688 10.6072 4.32784 10.6072 4.35925L10.6398 4.48493L10.6723 4.58443L10.7212 4.71011C10.7372 4.74432 10.7553 4.77755 10.7755 4.8096C10.7755 4.85149 10.8136 4.89338 10.8407 4.93528L10.9168 5.03477C10.9426 5.07695 10.9716 5.11721 11.0037 5.15522C11.0308 5.19187 11.0689 5.22329 11.1014 5.25995L11.2101 5.36993L11.3133 5.44847C11.3569 5.48748 11.4042 5.52254 11.4545 5.5532L11.6011 5.64746L11.7315 5.72602L11.8076 5.7679L10.5311 5.20235L9.89562 4.91957C9.95309 5.16895 10.0521 5.40772 10.1889 5.62651C10.2531 5.73634 10.3257 5.84137 10.4062 5.94072C10.4062 5.94072 7.69037 5.85692 6.19123 7.92017H6.28356C6.438 7.91147 6.58984 7.96139 6.70657 8.05926C6.82332 8.15713 6.89569 8.29517 6.90821 8.44382C6.91398 8.4978 6.91398 8.5522 6.90821 8.60616C6.91319 8.64792 6.91319 8.69008 6.90821 8.73184C6.82673 8.86799 6.75067 9.00938 6.67464 9.15078C6.5986 9.29216 6.32158 9.58018 6.09888 9.83153C5.95223 9.99386 5.80558 10.1614 5.65891 10.3552C5.16534 10.9197 4.84882 11.6082 4.74641 12.3398C4.741 12.4183 4.741 12.497 4.74641 12.5755C4.81903 12.5311 4.89534 12.4926 4.97454 12.4603H5.0723C5.16254 12.4346 5.25852 12.4343 5.34896 12.4592C5.43941 12.4843 5.52056 12.5338 5.58288 12.6017C5.67971 12.7183 5.74836 12.8543 5.78386 12.9997C5.88152 13.4975 5.93964 14.0016 5.95766 14.5079C5.98358 14.8033 6.02711 15.097 6.08802 15.3876C6.22138 16.147 6.60182 16.8457 7.17436 17.3827C7.17383 17.3741 7.17383 17.3653 7.17436 17.3566C7.15168 17.271 7.14072 17.183 7.14176 17.0947C7.13755 17.0202 7.14991 16.9457 7.17802 16.8762C7.20612 16.8066 7.24931 16.7437 7.30471 16.6915C7.3527 16.6535 7.4081 16.6249 7.46767 16.6078H7.49482C7.5795 16.5962 7.66543 16.5962 7.7501 16.6078C8.29327 16.6392 8.61373 17.4613 9.27096 18.1525C9.67276 18.5976 10.2112 18.9076 10.8081 19.0375H10.8407C10.8101 18.9206 10.8101 18.7984 10.8407 18.6815C10.8541 18.6314 10.8799 18.5852 10.9158 18.547C10.9518 18.5087 10.9968 18.4794 11.0471 18.4615C11.2295 18.4255 11.4189 18.4438 11.5903 18.5138C12.0062 18.6544 12.4356 18.7543 12.8722 18.8124H12.959C13.1057 18.8124 13.2742 18.849 13.4208 18.8543C13.6295 18.8594 13.8384 18.849 14.0454 18.8228C14.5418 18.7613 15.0245 18.6216 15.4739 18.4092C15.3966 18.3336 15.352 18.2324 15.349 18.1264C15.3499 18.063 15.3648 18.0006 15.3924 17.9431C15.456 17.8532 15.5395 17.7781 15.6368 17.7232C15.79 17.6222 15.9562 17.5414 16.1311 17.4823C16.2959 17.4304 16.4573 17.3692 16.6146 17.299L16.7015 17.2518C17.021 17.0735 17.312 16.8512 17.5651 16.592C18.1769 15.9373 18.6083 15.1451 18.8198 14.2879C18.909 14.0124 18.9637 13.7276 18.9828 13.4396C18.9828 13.361 18.9828 13.2824 18.9828 13.204C19.0432 12.5356 19.0249 11.8627 18.9284 11.1983Z" fill="white"/>
<path d="M23.3672 13.6918C23.2414 13.201 22.8373 12.7101 22.1099 12.1636C21.5261 11.7283 20.9065 11.4783 20.4125 11.4783C20.3137 11.4783 20.2239 11.4875 20.1341 11.5061C19.9096 11.5524 19.712 11.7191 19.5863 11.9691C19.4336 12.2655 19.3977 12.6638 19.4965 12.9046C19.5324 12.9787 19.5773 13.0713 19.6312 13.1547C19.1552 13.451 18.8858 13.5344 18.8499 13.5436C20.0892 13.9697 21.122 14.8588 21.7686 16.0166L21.7776 15.9054C21.8045 15.5998 21.8944 15.2478 22.0201 14.8866C22.1458 14.9237 22.2715 14.9422 22.3973 14.9422C22.7296 14.9422 23.0169 14.8033 23.1966 14.5532C23.3762 14.3031 23.448 13.9697 23.3672 13.6918Z" fill="#5E12A0"/>
<path d="M22.0739 14.618C22.8911 14.8496 23.2234 14.2012 23.1156 13.7659C22.9988 13.3306 22.6217 12.8861 21.9571 12.3859C21.2925 11.8858 20.619 11.682 20.1879 11.7746C19.7568 11.8673 19.6311 12.5434 19.7389 12.8027C19.7838 12.9046 19.8825 13.0528 20.0173 13.2195C19.8467 13.3399 19.685 13.4325 19.5503 13.5159C20.3765 13.8956 21.095 14.4883 21.6338 15.2293C21.6966 14.9792 21.7865 14.7569 21.8673 14.5624C21.9301 14.5717 22.002 14.5902 22.0739 14.618Z" fill="url(#paint0_radial_8744_20900)"/>
<path d="M17.3947 23.6942C20.1673 23.6942 22.4149 21.3762 22.4149 18.5168C22.4149 15.6575 20.1673 13.3395 17.3947 13.3395C14.6221 13.3395 12.3745 15.6575 12.3745 18.5168C12.3745 21.3762 14.6221 23.6942 17.3947 23.6942Z" fill="url(#paint1_radial_8744_20900)"/>
<path opacity="0.6" d="M22.7031 13.3396C22.0206 12.5987 21.4458 12.4042 20.7543 12.2467C20.2155 12.117 20.3592 11.8021 21.0148 11.867C20.7005 11.7558 20.4041 11.7281 20.1885 11.7744C19.7574 11.867 19.6317 12.5431 19.7395 12.8024C19.7844 12.9043 19.8832 13.0525 20.0179 13.2192C19.7754 13.3859 19.5689 13.5063 19.3982 13.5989C19.4791 13.636 19.5778 13.6823 19.6946 13.7471C19.9999 13.9138 20.3322 14.1917 20.3322 14.1917C19.8293 13.7471 19.937 13.5434 20.6286 13.0432C20.8441 12.8858 21.2392 12.9043 21.6075 13.0988C21.9757 13.2933 22.4068 13.7842 22.4068 13.7842L21.9937 14.5992C22.0206 14.6085 22.0475 14.6177 22.0745 14.627C22.3349 14.7011 22.5414 14.6826 22.7031 14.6177C22.8917 14.4973 23.3857 14.0898 22.7031 13.3396Z" fill="#A98698"/>
<path d="M20.7444 12.6913C20.924 12.7654 21.1575 12.895 21.445 13.0895C21.7862 13.3211 22.0826 13.5804 22.2712 13.7842C21.9568 14.2102 21.7503 14.7937 21.6246 15.2012C21.6874 15.2938 21.7593 15.3865 21.8221 15.4791C21.885 15.2475 21.9927 14.9048 22.1364 14.5622C22.1724 14.5714 22.2173 14.5714 22.2622 14.5714C22.3699 14.5714 22.4957 14.5529 22.5945 14.4695C22.6663 14.414 22.7472 14.3121 22.7382 14.1269C22.7382 13.9509 22.6035 13.7286 22.325 13.46C22.1275 13.2655 21.8581 13.0525 21.5886 12.858C20.8163 12.3301 20.2774 12.1819 20.0349 12.4319C19.8733 12.5987 19.8913 12.8024 19.9451 12.9506C19.6578 13.1451 19.4153 13.284 19.2537 13.3766C19.3614 13.4137 19.4602 13.46 19.568 13.5063C19.8553 13.3489 20.2684 13.0803 20.7444 12.6913ZM22.4418 14.0157C22.4687 14.062 22.4777 14.1083 22.4777 14.1361C22.4777 14.2195 22.4508 14.2473 22.4328 14.2658C22.3969 14.2936 22.325 14.3121 22.2622 14.3121C22.316 14.2009 22.3789 14.1083 22.4418 14.0157ZM20.2236 12.6357C20.2505 12.6079 20.3224 12.5894 20.4391 12.6079C20.3493 12.682 20.2595 12.7468 20.1697 12.8117C20.1607 12.7468 20.1697 12.682 20.2236 12.6357Z" fill="#5E12A0"/>
<path d="M17.395 13.0341C14.4583 13.0341 12.0784 15.4884 12.0784 18.5171C12.0784 21.5456 14.4583 24 17.395 24C20.3317 24 22.7115 21.5456 22.7115 18.5171C22.7115 15.4884 20.3227 13.0341 17.395 13.0341ZM17.395 23.6944C14.6199 23.6944 12.3747 21.379 12.3747 18.5171C12.3747 15.6551 14.6199 13.3397 17.395 13.3397C20.17 13.3397 22.4152 15.6551 22.4152 18.5171C22.4152 21.379 20.161 23.6944 17.395 23.6944Z" fill="#5E12A0"/>
<path opacity="0.6" d="M17.3947 23.6942C20.1673 23.6942 22.4149 21.3762 22.4149 18.5168C22.4149 15.6575 20.1673 13.3395 17.3947 13.3395C14.6221 13.3395 12.3745 15.6575 12.3745 18.5168C12.3745 21.3762 14.6221 23.6942 17.3947 23.6942Z" fill="url(#paint2_linear_8744_20900)"/>
<path opacity="0.6" d="M17.359 23.0644C14.6198 22.6106 12.7608 19.9525 13.2099 17.1276C13.4074 15.8773 14.0181 14.8122 14.8803 14.0435C13.623 14.7937 12.689 16.0996 12.4375 17.6926C11.9975 20.5174 13.8565 23.1756 16.5866 23.6294C18.1133 23.8887 19.5862 23.3979 20.6729 22.4347C19.7119 23.0089 18.5444 23.259 17.359 23.0644Z" fill="#A98698"/>
<path opacity="0.6" d="M18.1942 13.4141C16.9279 13.201 15.6976 13.4974 14.6917 14.155C14.6738 14.1735 14.6558 14.192 14.6558 14.192C15.042 13.9512 15.6078 13.7382 15.6078 13.7382C14.1529 14.6088 13.7039 15.5998 13.7039 15.5998C14.2696 14.4699 15.9311 13.6734 17.2333 13.6178C18.5355 13.5622 19.3886 13.9605 20.4304 14.8218C21.4722 15.6925 22.1008 17.4707 22.038 18.8785C21.9841 20.2863 21.2656 21.4255 21.2656 21.4255C21.7595 20.7679 22.0559 20.2863 22.2445 19.7954C22.2804 19.6472 22.3164 19.4991 22.3343 19.3416C22.7834 16.526 20.9333 13.8679 18.1942 13.4141Z" fill="url(#paint3_linear_8744_20900)"/>
<path d="M22.1629 18.4703C22.1629 21.184 20.0255 23.3883 17.3942 23.3883C14.7628 23.3883 12.6165 21.184 12.6165 18.4703H22.1629Z" fill="url(#paint4_linear_8744_20900)"/>
<g opacity="0.6">
<path opacity="0.6" d="M21.7862 18.4708C21.7862 21.1197 19.7566 23.2869 17.2061 23.3888C17.2689 23.3888 17.3318 23.3888 17.3947 23.3888C20.026 23.3888 22.1634 21.1845 22.1634 18.4708H21.7862Z" fill="url(#paint5_linear_8744_20900)"/>
</g>
<g opacity="0.7">
<path opacity="0.7" d="M13.2917 18.4708H12.6182C12.6182 21.1845 14.7556 23.3888 17.3869 23.3888C17.5037 23.3888 17.6114 23.3888 17.7192 23.3795C15.2495 23.1943 13.2917 21.0641 13.2917 18.4708Z" fill="url(#paint6_linear_8744_20900)"/>
</g>
<path d="M22.154 18.5173C22.154 17.9523 21.202 17.6281 19.9357 17.517C19.0197 17.4429 18.0947 17.5355 17.035 17.8689C16.1189 18.1468 15.2927 18.1005 14.691 18.0263C13.3529 17.8689 12.6165 17.8504 12.6165 18.5173C12.6165 19.4805 14.5204 20.6845 17.3762 20.2677C18.8221 20.0547 19.5675 19.6194 20.4207 19.323C21.3457 19.0081 22.154 19.0174 22.154 18.5173Z" fill="url(#paint7_linear_8744_20900)"/>
<path d="M18.9582 16.1838C19.4044 16.1838 19.7662 15.8106 19.7662 15.3503C19.7662 14.8899 19.4044 14.5167 18.9582 14.5167C18.5119 14.5167 18.1501 14.8899 18.1501 15.3503C18.1501 15.8106 18.5119 16.1838 18.9582 16.1838Z" fill="white"/>
<path d="M20.2772 16.804C20.4656 16.804 20.6184 16.6464 20.6184 16.452C20.6184 16.2577 20.4656 16.1001 20.2772 16.1001C20.0888 16.1001 19.936 16.2577 19.936 16.452C19.936 16.6464 20.0888 16.804 20.2772 16.804Z" fill="white"/>
<g opacity="0.6">
<path opacity="0.6" d="M21.4976 14.6831C21.4886 14.6831 21.4797 14.6831 21.4797 14.6831C21.4258 14.6739 21.3899 14.6183 21.3988 14.5535C21.4797 14.1274 21.8208 13.7199 21.8388 13.7014C21.8747 13.6551 21.9465 13.6551 21.9824 13.6921C22.0273 13.7292 22.0273 13.8033 21.9914 13.8403C21.9824 13.8496 21.6682 14.2293 21.5964 14.5998C21.5874 14.6554 21.5425 14.6831 21.4976 14.6831Z" fill="url(#paint8_linear_8744_20900)"/>
</g>
<path opacity="0.2" d="M17.0641 22.3792C17.203 22.3792 17.3155 22.2631 17.3155 22.1199C17.3155 21.9767 17.203 21.8606 17.0641 21.8606C16.9253 21.8606 16.8127 21.9767 16.8127 22.1199C16.8127 22.2631 16.9253 22.3792 17.0641 22.3792Z" fill="white"/>
<g opacity="0.4">
<path opacity="0.6" d="M16.9208 22.2889C16.822 22.187 16.822 22.0203 16.9208 21.9184C16.9387 21.8999 16.9567 21.8906 16.9746 21.8721C16.9387 21.8814 16.9118 21.8999 16.8849 21.9276C16.7861 22.0295 16.7861 22.1963 16.8849 22.2981C16.9657 22.3815 17.0913 22.4 17.1901 22.3444C17.1003 22.3815 16.9926 22.363 16.9208 22.2889Z" fill="url(#paint9_linear_8744_20900)"/>
</g>
<path opacity="0.3" d="M17.1525 22.0451C17.1823 22.0451 17.2064 22.0204 17.2064 21.9899C17.2064 21.9594 17.1823 21.9347 17.1525 21.9347C17.1228 21.9347 17.0986 21.9594 17.0986 21.9899C17.0986 22.0204 17.1228 22.0451 17.1525 22.0451Z" fill="white"/>
<path opacity="0.2" d="M18.3754 22.2501C18.5143 22.2501 18.6268 22.134 18.6268 21.9908C18.6268 21.8475 18.5143 21.7314 18.3754 21.7314C18.2366 21.7314 18.124 21.8475 18.124 21.9908C18.124 22.134 18.2366 22.2501 18.3754 22.2501Z" fill="white"/>
<g opacity="0.4">
<path opacity="0.6" d="M18.2298 22.1584C18.1311 22.0565 18.1311 21.8898 18.2298 21.7878C18.2478 21.7694 18.2658 21.7601 18.2837 21.7416C18.2478 21.7508 18.2208 21.7694 18.1939 21.7972C18.0952 21.899 18.0952 22.0657 18.1939 22.1676C18.2748 22.251 18.4004 22.2695 18.4992 22.2139C18.4094 22.251 18.3017 22.2324 18.2298 22.1584Z" fill="url(#paint10_linear_8744_20900)"/>
</g>
<path opacity="0.3" d="M18.464 21.9152C18.4938 21.9152 18.5179 21.8905 18.5179 21.86C18.5179 21.8295 18.4938 21.8048 18.464 21.8048C18.4343 21.8048 18.4102 21.8295 18.4102 21.86C18.4102 21.8905 18.4343 21.9152 18.464 21.9152Z" fill="white"/>
<path opacity="0.2" d="M17.7276 22.8517C17.8317 22.8517 17.9162 22.7647 17.9162 22.6573C17.9162 22.5498 17.8317 22.4628 17.7276 22.4628C17.6235 22.4628 17.5391 22.5498 17.5391 22.6573C17.5391 22.7647 17.6235 22.8517 17.7276 22.8517Z" fill="white"/>
<g opacity="0.4">
<path opacity="0.6" d="M17.6189 22.7792C17.5471 22.705 17.5471 22.5754 17.6189 22.5013C17.6279 22.4921 17.6458 22.4828 17.6548 22.4735C17.6279 22.4828 17.6099 22.5013 17.592 22.5198C17.5201 22.5939 17.5201 22.7236 17.592 22.7977C17.6548 22.8625 17.7446 22.8718 17.8254 22.8255C17.7536 22.8533 17.6728 22.8347 17.6189 22.7792Z" fill="url(#paint11_linear_8744_20900)"/>
</g>
<path opacity="0.3" d="M17.7898 22.5917C17.8097 22.5917 17.8257 22.5752 17.8257 22.5549C17.8257 22.5346 17.8097 22.5181 17.7898 22.5181C17.77 22.5181 17.7539 22.5346 17.7539 22.5549C17.7539 22.5752 17.77 22.5917 17.7898 22.5917Z" fill="white"/>
<path opacity="0.2" d="M18.885 22.7127C18.9892 22.7127 19.0736 22.6256 19.0736 22.5182C19.0736 22.4108 18.9892 22.3237 18.885 22.3237C18.781 22.3237 18.6965 22.4108 18.6965 22.5182C18.6965 22.6256 18.781 22.7127 18.885 22.7127Z" fill="white"/>
<g opacity="0.4">
<path opacity="0.6" d="M18.7793 22.6406C18.7075 22.5665 18.7075 22.4369 18.7793 22.3627C18.7883 22.3535 18.8062 22.3443 18.8152 22.335C18.7883 22.3443 18.7703 22.3627 18.7524 22.3813C18.6805 22.4553 18.6805 22.585 18.7524 22.6592C18.8152 22.724 18.905 22.7332 18.9858 22.6869C18.914 22.7147 18.8332 22.6962 18.7793 22.6406Z" fill="url(#paint12_linear_8744_20900)"/>
</g>
<path opacity="0.3" d="M18.9478 22.4532C18.9677 22.4532 18.9837 22.4367 18.9837 22.4163C18.9837 22.396 18.9677 22.3795 18.9478 22.3795C18.928 22.3795 18.9119 22.396 18.9119 22.4163C18.9119 22.4367 18.928 22.4532 18.9478 22.4532Z" fill="white"/>
<path opacity="0.2" d="M15.9936 22.287C16.2216 22.287 16.4065 22.0963 16.4065 21.861C16.4065 21.6257 16.2216 21.4349 15.9936 21.4349C15.7655 21.4349 15.5806 21.6257 15.5806 21.861C15.5806 22.0963 15.7655 22.287 15.9936 22.287Z" fill="white"/>
<g opacity="0.4">
<path opacity="0.6" d="M15.7608 22.129C15.5992 21.9623 15.5992 21.6937 15.7608 21.527C15.7877 21.4992 15.8146 21.4807 15.8505 21.4622C15.7967 21.4807 15.7518 21.5177 15.7069 21.5548C15.5453 21.7215 15.5453 21.9901 15.7069 22.1568C15.8416 22.2958 16.0481 22.3235 16.2097 22.2216C16.057 22.2865 15.8775 22.2587 15.7608 22.129Z" fill="url(#paint13_linear_8744_20900)"/>
</g>
<path opacity="0.3" d="M16.1364 21.7309C16.186 21.7309 16.2262 21.6894 16.2262 21.6383C16.2262 21.5871 16.186 21.5457 16.1364 21.5457C16.0868 21.5457 16.0466 21.5871 16.0466 21.6383C16.0466 21.6894 16.0868 21.7309 16.1364 21.7309Z" fill="white"/>
<path opacity="0.2" d="M19.6859 21.2401C19.9141 21.2401 20.0989 21.0494 20.0989 20.8141C20.0989 20.5788 19.9141 20.3881 19.6859 20.3881C19.4579 20.3881 19.2729 20.5788 19.2729 20.8141C19.2729 21.0494 19.4579 21.2401 19.6859 21.2401Z" fill="white"/>
<g opacity="0.4">
<path opacity="0.6" d="M19.4422 21.083C19.2805 20.9163 19.2805 20.6477 19.4422 20.481C19.4691 20.4532 19.496 20.4347 19.532 20.4161C19.478 20.4347 19.4332 20.4717 19.3883 20.5088C19.2267 20.6755 19.2267 20.9441 19.3883 21.1108C19.523 21.2497 19.7294 21.2775 19.8911 21.1756C19.7384 21.2405 19.5678 21.2127 19.4422 21.083Z" fill="url(#paint14_linear_8744_20900)"/>
</g>
<path opacity="0.3" d="M19.83 20.6847C19.8796 20.6847 19.9198 20.6432 19.9198 20.592C19.9198 20.5408 19.8796 20.4994 19.83 20.4994C19.7805 20.4994 19.7402 20.5408 19.7402 20.592C19.7402 20.6432 19.7805 20.6847 19.83 20.6847Z" fill="white"/>
<defs>
<radialGradient id="paint0_radial_8744_20900" cx="0" cy="0" r="1" gradientUnits="userSpaceOnUse" gradientTransform="translate(22.9518 13.1824) scale(4.01388 4.13951)">
<stop stop-color="#FFEAFF" stop-opacity="0.6"/>
<stop offset="0.6807" stop-color="#A087C9"/>
<stop offset="1" stop-color="#10002F"/>
</radialGradient>
<radialGradient id="paint1_radial_8744_20900" cx="0" cy="0" r="1" gradientUnits="userSpaceOnUse" gradientTransform="translate(21.901 17.5974) scale(11.2414 12.33)">
<stop stop-color="#FFEAFF" stop-opacity="0.6"/>
<stop offset="0.6807" stop-color="#A087C9"/>
<stop offset="1" stop-color="#10002F"/>
</radialGradient>
<linearGradient id="paint2_linear_8744_20900" x1="16.5894" y1="23.6208" x2="18.2945" y2="13.4209" gradientUnits="userSpaceOnUse">
<stop stop-color="#81FFFF"/>
<stop offset="0.6202" stop-color="white" stop-opacity="0"/>
</linearGradient>
<linearGradient id="paint3_linear_8744_20900" x1="20.9329" y1="15.0012" x2="16.665" y2="18.7983" gradientUnits="userSpaceOnUse">
<stop offset="0.2888" stop-color="white"/>
<stop offset="0.7796" stop-color="white" stop-opacity="0"/>
</linearGradient>
<linearGradient id="paint4_linear_8744_20900" x1="12.6205" y1="20.9264" x2="22.1606" y2="20.9264" gradientUnits="userSpaceOnUse">
<stop stop-color="#0002E9"/>
<stop offset="0.9952" stop-color="#FF00C7"/>
</linearGradient>
<linearGradient id="paint5_linear_8744_20900" x1="22.6127" y1="18.9024" x2="17.2694" y2="23.7989" gradientUnits="userSpaceOnUse">
<stop offset="0.2888" stop-color="white"/>
<stop offset="0.7796" stop-color="white" stop-opacity="0"/>
</linearGradient>
<linearGradient id="paint6_linear_8744_20900" x1="12.6222" y1="20.9269" x2="17.7261" y2="20.9269" gradientUnits="userSpaceOnUse">
<stop stop-color="#000292"/>
<stop offset="0.9952" stop-color="#7D00C7"/>
</linearGradient>
<linearGradient id="paint7_linear_8744_20900" x1="12.6269" y1="18.9258" x2="22.1542" y2="18.9258" gradientUnits="userSpaceOnUse">
<stop stop-color="#000292"/>
<stop offset="0.9952" stop-color="#BE00C7"/>
</linearGradient>
<linearGradient id="paint8_linear_8744_20900" x1="21.997" y1="13.6563" x2="21.2811" y2="14.7839" gradientUnits="userSpaceOnUse">
<stop offset="0.2888" stop-color="white"/>
<stop offset="0.7796" stop-color="white" stop-opacity="0"/>
</linearGradient>
<linearGradient id="paint9_linear_8744_20900" x1="16.8105" y1="22.1301" x2="17.1904" y2="22.1301" gradientUnits="userSpaceOnUse">
<stop offset="0.2888" stop-color="white"/>
<stop offset="0.7796" stop-color="white" stop-opacity="0"/>
</linearGradient>
<linearGradient id="paint10_linear_8744_20900" x1="18.1187" y1="21.9978" x2="18.4985" y2="21.9978" gradientUnits="userSpaceOnUse">
<stop offset="0.2888" stop-color="white"/>
<stop offset="0.7796" stop-color="white" stop-opacity="0"/>
</linearGradient>
<linearGradient id="paint11_linear_8744_20900" x1="17.533" y1="22.6606" x2="17.8182" y2="22.6606" gradientUnits="userSpaceOnUse">
<stop offset="0.2888" stop-color="white"/>
<stop offset="0.7796" stop-color="white" stop-opacity="0"/>
</linearGradient>
<linearGradient id="paint12_linear_8744_20900" x1="18.6935" y1="22.5221" x2="18.9786" y2="22.5221" gradientUnits="userSpaceOnUse">
<stop offset="0.2888" stop-color="white"/>
<stop offset="0.7796" stop-color="white" stop-opacity="0"/>
</linearGradient>
<linearGradient id="paint13_linear_8744_20900" x1="15.5816" y1="21.8713" x2="16.2019" y2="21.8713" gradientUnits="userSpaceOnUse">
<stop offset="0.2888" stop-color="white"/>
<stop offset="0.7796" stop-color="white" stop-opacity="0"/>
</linearGradient>
<linearGradient id="paint14_linear_8744_20900" x1="19.2664" y1="20.8249" x2="19.8867" y2="20.8249" gradientUnits="userSpaceOnUse">
<stop offset="0.2888" stop-color="white"/>
<stop offset="0.7796" stop-color="white" stop-opacity="0"/>
</linearGradient>
</defs>
</svg>
