<svg width="24" height="24" viewBox="0 0 24 24" fill="none" xmlns="http://www.w3.org/2000/svg">
<path d="M24 12C24 18.6274 18.6274 24 12 24C5.37258 24 0 18.6274 0 12C0 5.37258 5.37258 0 12 0C18.6274 0 24 5.37258 24 12Z" fill="white"/>
<path d="M12 4C7.58183 4 4 7.58183 4 12C4 16.4182 7.58183 20 12 20C16.4182 20 20 16.4182 20 12C20 7.58183 16.4184 4 12 4ZM12 15.6099C10.0096 15.6099 8.39009 13.9904 8.39009 12C8.39009 10.0096 10.0096 8.39009 12 8.39009C13.9904 8.39009 15.6099 10.0096 15.6099 12C15.6099 13.9904 13.9904 15.6099 12 15.6099ZM4.88519 12C4.88519 8.22552 7.83999 5.12965 11.5579 4.90025V7.52659C9.28281 7.74891 7.50491 9.66651 7.50491 11.9998C7.50491 14.333 9.28281 16.2509 11.5579 16.4729V19.0993C7.84022 18.8699 4.88519 15.7745 4.88519 12ZM12.4421 19.0997V16.4734C14.7172 16.2511 16.4951 14.3335 16.4951 12.0002C16.4951 9.66697 14.7172 7.74915 12.4421 7.52705V4.90025C16.1598 5.12965 19.1146 8.22552 19.1146 12C19.1146 15.7745 16.1598 18.8703 12.4421 19.0997Z" fill="url(#paint0_linear_8744_21007)"/>
<defs>
<linearGradient id="paint0_linear_8744_21007" x1="6.34307" y1="17.6569" x2="17.6569" y2="6.34307" gradientUnits="userSpaceOnUse">
<stop stop-color="#4C80E9"/>
<stop offset="1" stop-color="#91D2F5"/>
</linearGradient>
</defs>
</svg>
