<svg width="24" height="24" viewBox="0 0 24 24" fill="none" xmlns="http://www.w3.org/2000/svg">
<rect width="24" height="24" rx="12" fill="#FEEBDA"/>
<path d="M20 8.84362C20 8.59778 19.8719 8.37586 19.6579 8.24999L12.7989 4.21763C12.3061 3.92746 11.6939 3.92746 11.201 4.21763L4.3421 8.25004C4.13057 8.37448 4.00352 8.5927 4.00009 8.83522C4.00019 9.1317 4.00035 9.61673 4.0004 9.91326C3.99183 10.1686 4.12117 10.4009 4.34204 10.5308L6.75329 11.9488C6.79275 11.972 6.79275 12.0285 6.75329 12.0516L4.34204 13.4691C4.12849 13.5949 4.00045 13.8162 4.00004 14.0616C4.00004 14.3625 4.00004 14.8549 4.00004 15.1558C4.00004 15.4023 4.12813 15.6241 4.3421 15.7495L11.201 19.7824C11.4475 19.9275 11.7236 20 12.0003 20C12.277 20 12.5525 19.9275 12.7989 19.7824L19.6579 15.7495C19.8719 15.6241 19.9999 15.4023 19.9999 15.1558C19.9999 14.8549 19.9999 14.3625 19.9999 14.0616C19.9995 13.8162 19.8715 13.5949 19.6579 13.4692L17.2466 12.0517C17.2072 12.0285 17.2072 11.972 17.2466 11.9489L19.6579 10.5308C19.8719 10.405 19.9999 10.1831 19.9999 9.9372V8.84367L20 8.84362ZM11.5253 11.0669C11.6717 10.981 11.836 10.9378 12.0003 10.9378C12.1646 10.9378 12.3283 10.981 12.4747 11.0669L14.0618 12.0003L12.4747 12.9332C12.1818 13.1055 11.8182 13.1055 11.5253 12.9332L9.93821 12.0003L11.5253 11.0669ZM18.4124 14.5582C18.4519 14.5814 18.4519 14.6378 18.4124 14.661L12.4747 18.1518C12.1818 18.3241 11.8182 18.3241 11.5253 18.1518L5.58754 14.661C5.54808 14.6378 5.54808 14.5813 5.58754 14.5582L6.70027 13.9037C6.91772 13.7758 7.05095 13.5444 7.05095 13.2945V12.2655C7.05095 12.205 7.11778 12.1674 7.17053 12.1984L11.201 14.5636C11.4475 14.7082 11.7236 14.7807 12.0003 14.7807C12.277 14.7807 12.5525 14.7082 12.7989 14.5636L13.975 13.872C14.1938 13.7433 14.3273 13.5099 14.3257 13.2586L14.3199 12.29C14.3195 12.2293 14.3865 12.1913 14.4395 12.2225L18.4124 14.5582ZM16.9361 11.7259C16.9361 11.7865 16.8692 11.824 16.8165 11.7931L12.7989 9.43628C12.3061 9.14666 11.6939 9.14666 11.201 9.43628L10.0174 10.1322C9.79859 10.2608 9.66515 10.4942 9.66666 10.7457L9.67274 11.7369C9.673 11.7835 9.62164 11.8125 9.58109 11.7887L5.58759 9.44181C5.54813 9.4186 5.54808 9.36217 5.58759 9.33895L11.5253 5.84816C11.6717 5.76175 11.836 5.71854 12.0003 5.71854C12.1646 5.71854 12.3283 5.76175 12.4747 5.84816L18.4124 9.33895C18.4519 9.36217 18.4519 9.4186 18.4124 9.44181L17.2868 10.1037C17.0693 10.2316 16.9361 10.463 16.9361 10.7129V11.7259Z" fill="#FF3912"/>
</svg>
