<svg width="18" height="17" viewBox="0 0 18 17" fill="none" xmlns="http://www.w3.org/2000/svg">
<path fill-rule="evenodd" clip-rule="evenodd" d="M1.39054 0.575109C1.64052 0.325168 1.97954 0.184756 2.33304 0.184756C2.68654 0.184756 3.02556 0.325168 3.27554 0.575109L8.99954 6.29911L14.7235 0.575109C14.8467 0.448793 14.9938 0.348194 15.1562 0.279147C15.3186 0.210099 15.493 0.173978 15.6695 0.172877C15.8459 0.171777 16.0208 0.205719 16.1841 0.272736C16.3473 0.339752 16.4956 0.438508 16.6204 0.563278C16.7451 0.688048 16.8439 0.836348 16.9109 0.999578C16.9779 1.16281 17.0119 1.33772 17.0108 1.51417C17.0097 1.69061 16.9735 1.86509 16.9045 2.02747C16.8355 2.18985 16.7349 2.33691 16.6085 2.46011L10.8845 8.18411L16.6085 13.9081C16.7349 14.0313 16.8355 14.1784 16.9045 14.3408C16.9735 14.5031 17.0097 14.6776 17.0108 14.8541C17.0119 15.0305 16.9779 15.2054 16.9109 15.3686C16.8439 15.5319 16.7451 15.6802 16.6204 15.8049C16.4956 15.9297 16.3473 16.0285 16.1841 16.0955C16.0208 16.1625 15.8459 16.1964 15.6695 16.1953C15.493 16.1942 15.3186 16.1581 15.1562 16.0891C14.9938 16.02 14.8467 15.9194 14.7235 15.7931L8.99954 10.0691L3.27554 15.7931C3.15234 15.9194 3.00528 16.02 2.8429 16.0891C2.68052 16.1581 2.50604 16.1942 2.3296 16.1953C2.15315 16.1964 1.97824 16.1625 1.81501 16.0955C1.65178 16.0285 1.50348 15.9297 1.37871 15.8049C1.25394 15.6802 1.15518 15.5319 1.08817 15.3686C1.02115 15.2054 0.987207 15.0305 0.988307 14.8541C0.989408 14.6776 1.02553 14.5031 1.09458 14.3408C1.16362 14.1784 1.26422 14.0313 1.39054 13.9081L7.11454 8.18411L1.39054 2.46011C1.1406 2.21013 1.00019 1.87111 1.00019 1.51761C1.00019 1.16411 1.1406 0.825089 1.39054 0.575109Z" fill="#082D63"/>
</svg>
