<svg xmlns="http://www.w3.org/2000/svg" width="21" height="24" viewBox="0 0 21 24">
  <path id="discord" d="M3.432-9.6a1.278,1.278,0,0,0-1.224-1.332A1.278,1.278,0,0,0,.984-9.6,1.286,1.286,0,0,0,2.208-8.268,1.278,1.278,0,0,0,3.432-9.6Zm-5.6-1.332A1.279,1.279,0,0,0-3.4-9.6,1.286,1.286,0,0,0-2.172-8.268,1.278,1.278,0,0,0-.948-9.6,1.271,1.271,0,0,0-2.172-10.932Zm12.672-7.6A2.466,2.466,0,0,0,8.04-21H-8.04a2.466,2.466,0,0,0-2.46,2.472V-2.3A2.466,2.466,0,0,0-8.04.168H5.568l-.636-2.22C8.444,1.213,7.477.328,10.5,3ZM7.08-7.152A4.386,4.386,0,0,1,3.408-5.328s-.432-.516-.792-.972A3.786,3.786,0,0,0,4.788-7.728a6.866,6.866,0,0,1-1.38.708A8.747,8.747,0,0,1-4.08-7.44c-.024-.016-.315-.176-.492-.3a3.732,3.732,0,0,0,2.1,1.416c-.36.456-.8,1-.8,1a4.351,4.351,0,0,1-3.66-1.824,16.07,16.07,0,0,1,1.728-7,5.934,5.934,0,0,1,3.372-1.26l.12.144a8.1,8.1,0,0,0-3.156,1.572s.264-.144.708-.348a10.2,10.2,0,0,1,8.964.348,7.987,7.987,0,0,0-2.988-1.524l.168-.192a5.934,5.934,0,0,1,3.372,1.26A16.07,16.07,0,0,1,7.08-7.152Z" transform="translate(10.5 21)" fill="#7e92ae"/>
</svg>
