<svg width="37" height="38" viewBox="0 0 37 38" fill="none" xmlns="http://www.w3.org/2000/svg">
<path d="M18.4757 37.5653C16.0404 37.5714 13.628 37.0983 11.3779 36.1731C9.12777 35.2479 7.08457 33.8892 5.36632 32.1753C2.23997 29.0739 0.33613 24.9627 0 20.5871H22.6708L18.0582 25.1762C17.7942 25.4432 17.6463 25.8025 17.6463 26.1767C17.6463 26.5509 17.7942 26.9102 18.0582 27.1772C18.1906 27.3094 18.348 27.4144 18.5214 27.486C18.6948 27.5577 18.8807 27.5946 19.0685 27.5946C19.2558 27.5942 19.4412 27.5571 19.6141 27.4855C19.7869 27.4139 19.9439 27.3091 20.0759 27.1772L27.1223 20.1711C27.255 20.0419 27.3605 19.8878 27.4327 19.7177C27.5048 19.5477 27.5422 19.3651 27.5426 19.1805C27.5429 18.9935 27.506 18.8084 27.4338 18.6357C27.3617 18.463 27.2558 18.3062 27.1223 18.1744L20.0674 11.1754C19.934 11.0408 19.7749 10.934 19.5995 10.8612C19.4241 10.7883 19.2359 10.7508 19.0457 10.7508C18.8609 10.7496 18.6777 10.7846 18.5065 10.8538C18.3354 10.923 18.1796 11.0251 18.0483 11.1541C17.9145 11.2857 17.8083 11.4423 17.7358 11.6149C17.6634 11.7875 17.626 11.9726 17.626 12.1596C17.626 12.3465 17.6634 12.5317 17.7358 12.7042C17.8083 12.8768 17.9145 13.0334 18.0483 13.165L22.6622 17.7456H0.00713164C0.345845 13.3741 2.24654 9.26679 5.36632 6.16454C7.08457 4.45063 9.12777 3.09185 11.3779 2.16669C13.628 1.24154 16.0404 0.768352 18.4757 0.774473C20.9091 0.768554 23.3196 1.24189 25.5676 2.16708C27.8156 3.09227 29.8565 4.45095 31.5723 6.16454C33.2977 7.86833 34.6657 9.89495 35.5973 12.1272C36.529 14.3594 37.0057 16.7529 36.9999 19.1692C37.0072 21.586 36.5312 23.9801 35.5995 26.2128C34.6678 28.4454 33.2989 30.4721 31.5723 32.1753C29.8565 33.8888 27.8156 35.2475 25.5676 36.1727C23.3196 37.0979 20.9091 37.5712 18.4757 37.5653Z" fill="#8396B1"/>
</svg>
