<svg width="44" height="39" viewBox="0 0 44 39" fill="none" xmlns="http://www.w3.org/2000/svg">
<path d="M43.6562 23.4609L38.4141 2.14844C38.0703 0.859375 36.9531 0 35.75 0H8.25C6.96094 0 5.84375 0.859375 5.5 2.0625L0.257812 23.4609C0.0859375 24.3203 0 25.2656 0 26.125V33C0 36.0938 2.40625 38.5 5.5 38.5H38.5C41.5078 38.5 44 36.0938 44 33V26.125C44 25.2656 43.8281 24.3203 43.6562 23.4609ZM9.28125 4.125H34.6328L39.0156 22H31.625C30.7656 22 30.0781 22.5156 29.7344 23.2031L27.5859 27.5H16.3281L14.1797 23.2031C13.8359 22.5156 13.1484 22 12.375 22H4.89844L9.28125 4.125ZM39.875 33C39.875 33.7734 39.1875 34.375 38.5 34.375H5.5C4.72656 34.375 4.125 33.7734 4.125 33V26.125H11.0859L13.2344 30.5078C13.5781 31.1953 14.2656 31.625 15.125 31.625H28.875C29.6484 31.625 30.3359 31.1953 30.6797 30.5078L32.8281 26.125H39.875V33Z" fill="#8396B1"/>
</svg>
