<svg width="20" height="20" viewBox="0 0 20 20" fill="none" xmlns="http://www.w3.org/2000/svg">
<path fill-rule="evenodd" clip-rule="evenodd" d="M0.507774 0.507774C0.819681 0.195961 1.24266 0.0207938 1.6837 0.0207938C2.12474 0.0207938 2.54772 0.195961 2.85962 0.507774L10 7.64815L17.1404 0.507774C17.2938 0.348916 17.4773 0.222205 17.6803 0.135035C17.8832 0.0478651 18.1014 0.0019819 18.3223 6.27998e-05C18.5431 -0.0018563 18.7622 0.0402267 18.9666 0.123857C19.171 0.207487 19.3567 0.330989 19.5128 0.487157C19.669 0.643325 19.7925 0.829032 19.8761 1.03344C19.9598 1.23785 20.0019 1.45687 19.9999 1.67771C19.998 1.89856 19.9521 2.11681 19.865 2.31974C19.7778 2.52266 19.6511 2.70619 19.4922 2.85962L12.3518 10L19.4922 17.1404C19.6511 17.2938 19.7778 17.4773 19.865 17.6803C19.9521 17.8832 19.998 18.1014 19.9999 18.3223C20.0019 18.5431 19.9598 18.7622 19.8761 18.9666C19.7925 19.171 19.669 19.3567 19.5128 19.5128C19.3567 19.669 19.171 19.7925 18.9666 19.8761C18.7622 19.9598 18.5431 20.0019 18.3223 19.9999C18.1014 19.998 17.8832 19.9521 17.6803 19.865C17.4773 19.7778 17.2938 19.6511 17.1404 19.4922L10 12.3518L2.85962 19.4922C2.70619 19.6511 2.52266 19.7778 2.31974 19.865C2.11681 19.9521 1.89856 19.998 1.67771 19.9999C1.45687 20.0019 1.23785 19.9598 1.03344 19.8761C0.829032 19.7925 0.643325 19.669 0.487157 19.5128C0.330989 19.3567 0.207487 19.171 0.123857 18.9666C0.0402267 18.7622 -0.0018563 18.5431 6.27998e-05 18.3223C0.0019819 18.1014 0.0478651 17.8832 0.135035 17.6803C0.222205 17.4773 0.348916 17.2938 0.507774 17.1404L7.64815 10L0.507774 2.85962C0.195961 2.54772 0.0207938 2.12474 0.0207938 1.6837C0.0207938 1.24266 0.195961 0.819681 0.507774 0.507774Z" fill="#E42929"/>
</svg>
