<svg data-name="icon / 24x24 / ic24-google" xmlns="http://www.w3.org/2000/svg" width="33.111" height="33.999" viewBox="0 0 33.111 33.999">
    <path d="M1.8 24.636a17.11 17.11 0 0 1 0-15.265A16.874 16.874 0 0 1 16.889 0a16.171 16.171 0 0 1 11.3 4.422l-4.822 4.854a9.14 9.14 0 0 0-6.478-2.547 10.106 10.106 0 0 0-9.482 7.021 10.233 10.233 0 0 0 0 6.509h.006a10.213 10.213 0 0 0 15.221 5.394 7.874 7.874 0 0 0 3.376-5.165h-9.121v-6.552h15.93a20.214 20.214 0 0 1 .292 3.455 16.661 16.661 0 0 1-5.03 12.5A16.111 16.111 0 0 1 16.889 34 16.879 16.879 0 0 1 1.8 24.636z" style="fill:#072d63"/>
</svg>
