<svg width="35" height="35" viewBox="0 0 35 35" fill="none" xmlns="http://www.w3.org/2000/svg">
<mask id="mask0_4949_5428" style="mask-type:luminance" maskUnits="userSpaceOnUse" x="2" y="2" width="31" height="31">
<path d="M27.1 2.50354H7.9C4.91766 2.50354 2.5 4.9212 2.5 7.90354V27.1035C2.5 30.0859 4.91766 32.5035 7.9 32.5035H27.1C30.0823 32.5035 32.5 30.0859 32.5 27.1035V7.90354C32.5 4.9212 30.0823 2.50354 27.1 2.50354Z" fill="white"/>
</mask>
<g mask="url(#mask0_4949_5428)">
<path d="M32.5 24.3419H2.5V35.8947H32.5V24.3419Z"/>
<path d="M11.0721 7.46554C11.3214 7.46554 11.5235 7.25931 11.5235 7.00491C11.5235 6.7505 11.3214 6.54427 11.0721 6.54427C10.8229 6.54427 10.6208 6.7505 10.6208 7.00491C10.6208 7.25931 10.8229 7.46554 11.0721 7.46554Z"/>
<path d="M24.7821 7.00491C24.7821 7.25931 24.58 7.46554 24.3306 7.46554C24.0813 7.46554 23.8793 7.25931 23.8793 7.00491C23.8793 6.7505 24.0813 6.54427 24.3306 6.54427C24.58 6.54427 24.7821 6.7505 24.7821 7.00491Z"/>
<path fill-rule="evenodd" clip-rule="evenodd" d="M24.1268 3.1073C26.3688 3.1073 28.1893 4.9652 28.1893 7.25301C28.1893 8.00538 27.9937 8.70401 27.6552 9.31051C27.9786 10.0168 28.1517 10.7692 28.1517 11.5523C28.1517 11.8715 28.1225 12.186 28.0659 12.4944C28.4842 12.9771 28.8344 13.4937 29.1053 14.038C29.3931 13.7861 29.7035 13.5455 30.0384 13.3193C30.6304 12.9202 31.0281 12.7879 31.2765 12.7843C31.3918 12.7826 31.4699 12.8086 31.5275 12.8447C31.5872 12.882 31.648 12.9445 31.7046 13.0487C31.8233 13.268 31.896 13.622 31.9075 14.1057C31.9189 14.5801 31.8712 15.1374 31.7837 15.7325C31.6091 16.9222 31.2831 18.2208 30.9983 19.2279C30.8561 19.7301 30.725 20.1571 30.6297 20.4582C30.582 20.6087 30.5433 20.7278 30.5166 20.8089C30.5062 20.8404 30.4975 20.8662 30.491 20.8859L30.478 20.9246L30.476 20.9302L30.4756 20.9316L30.4754 20.9319L30.3777 21.2187L31.6457 22.043L31.6461 22.0434C31.652 22.0472 31.6547 22.0508 31.6573 22.0587C31.6612 22.0701 31.6629 22.0887 31.6579 22.1093C31.6561 22.1168 31.6539 22.1225 31.6518 22.1269H25.9239C25.8258 22.1269 25.7162 22.0738 25.6335 21.9779C23.5203 22.841 20.7624 23.2202 17.7719 23.2202C14.857 23.2202 12.1483 22.86 10.0406 22.0428C9.96061 22.0959 9.86573 22.1269 9.7649 22.1269H3.40792C3.39844 22.1269 3.39407 22.1255 3.39302 22.1251C3.39183 22.1246 3.39096 22.1241 3.38983 22.1232C3.38693 22.1208 3.38042 22.1133 3.37676 22.0996C3.3731 22.0861 3.3748 22.0757 3.37655 22.071C3.37732 22.0689 3.37829 22.0672 3.37995 22.0651C3.38153 22.0632 3.38575 22.0587 3.3954 22.0529C3.39545 22.0529 3.39533 22.0531 3.3954 22.0529L4.79815 21.2267L4.68244 20.9201L4.68234 20.9198L4.68183 20.9186L4.67102 20.8896C4.66331 20.8687 4.65186 20.8377 4.63709 20.7972C4.60751 20.7163 4.56467 20.5974 4.51192 20.4469C4.40639 20.146 4.26149 19.7193 4.10435 19.2175C3.78914 18.2107 3.42861 16.9139 3.23548 15.7266C3.13885 15.1326 3.0861 14.5776 3.09846 14.1065C3.11104 13.6264 3.19051 13.2784 3.31927 13.0632C3.42949 12.8791 3.57864 12.7809 3.83793 12.7843C4.13531 12.7882 4.58855 12.9294 5.24407 13.3289C5.63744 13.5686 6.00038 13.8242 6.33524 14.0922C6.62209 13.5012 7.00231 12.9425 7.46139 12.424C7.41297 12.1382 7.38807 11.8473 7.38807 11.5523C7.38807 10.7692 7.56109 10.0168 7.88458 9.31051C7.54604 8.70401 7.35045 8.00538 7.35045 7.25301C7.35045 4.9652 9.17103 3.1073 11.4129 3.1073C12.6692 3.1073 13.7977 3.69845 14.55 4.61972C15.5656 4.38172 16.6489 4.25889 17.7699 4.25889C18.8909 4.25889 19.9742 4.38941 20.9897 4.61972C21.7345 3.69845 22.863 3.1073 24.1268 3.1073ZM8.08047 14.1774C7.85538 14.5222 7.67695 14.8769 7.54636 15.2379C9.07762 16.9495 9.76684 18.9042 10.079 20.3639C11.9684 21.2301 14.6683 21.6577 17.7719 21.6577C20.9032 21.6577 23.6023 21.2223 25.473 20.3428C25.5518 20.3057 25.6289 20.268 25.7042 20.2298C25.9938 18.7949 26.6139 16.9198 27.9319 15.2675C27.8077 14.9177 27.6385 14.5735 27.4253 14.2384C25.9028 16.9382 22.153 18.8457 17.7699 18.8457C13.3538 18.8457 9.5806 16.9094 8.08047 14.1774ZM11.0828 9.56947C12.4539 9.56947 13.5654 8.4352 13.5654 7.03599C13.5654 5.63679 12.4539 4.50252 11.0828 4.50252C9.7117 4.50252 8.6002 5.63679 8.6002 7.03599C8.6002 8.4352 9.7117 9.56947 11.0828 9.56947ZM26.8293 7.03599C26.8293 8.4352 25.7177 9.56947 24.3467 9.56947C22.9756 9.56947 21.864 8.4352 21.864 7.03599C21.864 5.63679 22.9756 4.50252 24.3467 4.50252C25.7177 4.50252 26.8293 5.63679 26.8293 7.03599Z" fill="black"/>
</g>
</svg>
