<svg data-name="Component 387 – 3" xmlns="http://www.w3.org/2000/svg" width="32" height="32" viewBox="0 0 32 32">
    <g data-name="Group 2556" style="opacity:.8">
        <path data-name="Union 6" d="M78.5-67.415a12.936 12.936 0 0 1-9.2-3.809 12.969 12.969 0 0 1-3.766-8.189h15.91l-3.237 3.243a1.009 1.009 0 0 0 0 1.414 1 1 0 0 0 .709.295 1 1 0 0 0 .707-.295l4.945-4.951a.983.983 0 0 0 .295-.7 1 1 0 0 0-.295-.711l-4.951-4.946a1.006 1.006 0 0 0-.717-.3.986.986 0 0 0-.7.285 1 1 0 0 0 0 1.421l3.238 3.237H65.539a12.992 12.992 0 0 1 3.761-8.184 12.936 12.936 0 0 1 9.2-3.809 12.917 12.917 0 0 1 9.191 3.809 12.917 12.917 0 0 1 3.809 9.19 12.9 12.9 0 0 1-3.809 9.191 12.917 12.917 0 0 1-9.191 3.809z" transform="translate(-62.5 96.414)" style="fill:#7587a2"/>
    </g>
</svg>
