<svg id="lease_active" xmlns="http://www.w3.org/2000/svg" width="32" height="32" viewBox="0 0 32 32">
    <g id="Component_385_2" data-name="Component 385 – 2">
        <rect id="Rectangle_882" data-name="Rectangle 882" width="32" height="32" fill="#fff" opacity="0"/>
    </g>
    <g id="Group_2556" data-name="Group 2556" transform="translate(22395 14278)">
        <path id="Subtraction_10" data-name="Subtraction 10"
              d="M22537,14114.585a13,13,0,0,1-12.961-12h15.91l-3.242,3.243a1,1,0,0,0,1.42,1.414l4.945-4.951a.983.983,0,0,0,.295-.7,1,1,0,0,0-.295-.711l-4.951-4.946a1.006,1.006,0,0,0-.717-.3.986.986,0,0,0-.7.285,1,1,0,0,0,0,1.421l3.238,3.237h-15.91a13,13,0,1,1,12.961,14Z"
              transform="translate(-44916 -28363.586)" fill="#ff562e"/>
    </g>
</svg>
