<svg width="22" height="22" viewBox="0 0 22 22" fill="none" xmlns="http://www.w3.org/2000/svg">
<g id="Union">
<mask id="path-1-outside-1_7782_2092" maskUnits="userSpaceOnUse" x="0" y="0" width="22" height="22" fill="black">
<rect fill="white" width="22" height="22"/>
<path d="M11.2949 21C7.21672 21 3.5284 18.64 1.90913 14.98C1.71922 14.55 1.91913 14.04 2.35893 13.86C2.79873 13.67 3.31849 13.87 3.50841 14.3C4.85779 17.33 7.90641 19.29 11.2949 19.29C14.8932 19.29 18.1118 17.06 19.3012 13.74C19.4612 13.29 19.9609 13.06 20.4107 13.22C20.8705 13.38 21.1104 13.86 20.9505 14.31C19.5211 18.32 15.6329 21 11.2949 21Z"/>
<path d="M1.87915 18.98C1.39937 18.98 1.00954 18.6 1.00954 18.13V14.06C1.00954 13.59 1.39937 13.21 1.87915 13.21L6.00727 13.2C6.48705 13.2 6.87687 13.58 6.87687 14.05C6.87687 14.52 6.48705 14.9 6.00727 14.91L2.74875 14.92V18.14C2.75875 18.6 2.36892 18.98 1.87915 18.98Z"/>
<path d="M1.87915 8.83C1.77919 8.83 1.68923 8.81 1.58928 8.78C1.12949 8.62 0.889597 8.14 1.04952 7.69C2.48887 3.69 6.36711 1 10.7051 1C14.7833 1 18.4716 3.36 20.0909 7.02001C20.2808 7.45001 20.0809 7.96 19.6411 8.14C19.1913 8.33 18.6815 8.13 18.4916 7.7C17.1422 4.67 14.0936 2.71001 10.7051 2.71001C7.10677 2.71001 3.88823 4.94 2.69877 8.26C2.57883 8.61 2.24898 8.83 1.87915 8.83Z"/>
<path d="M15.9927 8.81C15.5129 8.81 15.1231 8.43001 15.1231 7.96001C15.1231 7.49001 15.5129 7.11001 15.9927 7.10001L19.2512 7.09V3.87C19.2512 3.4 19.6411 3.02 20.1209 3.02C20.6006 3.02 20.9905 3.4 20.9905 3.87V7.94C20.9905 8.41 20.6006 8.79 20.1209 8.79L15.9927 8.81Z"/>
</mask>
<path d="M11.2949 21C7.21672 21 3.5284 18.64 1.90913 14.98C1.71922 14.55 1.91913 14.04 2.35893 13.86C2.79873 13.67 3.31849 13.87 3.50841 14.3C4.85779 17.33 7.90641 19.29 11.2949 19.29C14.8932 19.29 18.1118 17.06 19.3012 13.74C19.4612 13.29 19.9609 13.06 20.4107 13.22C20.8705 13.38 21.1104 13.86 20.9505 14.31C19.5211 18.32 15.6329 21 11.2949 21Z" fill="#2868E1"/>
<path d="M1.87915 18.98C1.39937 18.98 1.00954 18.6 1.00954 18.13V14.06C1.00954 13.59 1.39937 13.21 1.87915 13.21L6.00727 13.2C6.48705 13.2 6.87687 13.58 6.87687 14.05C6.87687 14.52 6.48705 14.9 6.00727 14.91L2.74875 14.92V18.14C2.75875 18.6 2.36892 18.98 1.87915 18.98Z" fill="#2868E1"/>
<path d="M1.87915 8.83C1.77919 8.83 1.68923 8.81 1.58928 8.78C1.12949 8.62 0.889597 8.14 1.04952 7.69C2.48887 3.69 6.36711 1 10.7051 1C14.7833 1 18.4716 3.36 20.0909 7.02001C20.2808 7.45001 20.0809 7.96 19.6411 8.14C19.1913 8.33 18.6815 8.13 18.4916 7.7C17.1422 4.67 14.0936 2.71001 10.7051 2.71001C7.10677 2.71001 3.88823 4.94 2.69877 8.26C2.57883 8.61 2.24898 8.83 1.87915 8.83Z" fill="#2868E1"/>
<path d="M15.9927 8.81C15.5129 8.81 15.1231 8.43001 15.1231 7.96001C15.1231 7.49001 15.5129 7.11001 15.9927 7.10001L19.2512 7.09V3.87C19.2512 3.4 19.6411 3.02 20.1209 3.02C20.6006 3.02 20.9905 3.4 20.9905 3.87V7.94C20.9905 8.41 20.6006 8.79 20.1209 8.79L15.9927 8.81Z" fill="#2868E1"/>
<path d="M1.90913 14.98L1.54323 15.1416L1.54333 15.1418L1.90913 14.98ZM2.35893 13.86L2.51047 14.2303L2.51756 14.2272L2.35893 13.86ZM3.50841 14.3L3.1425 14.4616L3.143 14.4627L3.50841 14.3ZM19.3012 13.74L19.6778 13.8749L19.6781 13.874L19.3012 13.74ZM20.4107 13.22L20.2767 13.5969L20.2793 13.5978L20.4107 13.22ZM20.9505 14.31L21.3273 14.4443L21.3274 14.4439L20.9505 14.31ZM1.87915 13.21V13.61L1.88012 13.61L1.87915 13.21ZM6.00727 13.2V12.8L6.0063 12.8L6.00727 13.2ZM6.00727 14.91L6.0085 15.3101L6.0156 15.3099L6.00727 14.91ZM2.74875 14.92L2.74752 14.52C2.52709 14.5207 2.34875 14.6996 2.34875 14.92H2.74875ZM2.74875 18.14H2.34866L2.34885 18.1487L2.74875 18.14ZM1.58928 8.78L1.45782 9.15778C1.46327 9.15968 1.46876 9.16146 1.47429 9.16312L1.58928 8.78ZM1.04952 7.69L0.673147 7.55457L0.672619 7.55605L1.04952 7.69ZM20.0909 7.02001L20.4568 6.8584L20.4567 6.85817L20.0909 7.02001ZM19.6411 8.14L19.4895 7.76978L19.4854 7.77153L19.6411 8.14ZM18.4916 7.7L18.8575 7.53839L18.857 7.53727L18.4916 7.7ZM2.69877 8.26L2.32218 8.12507L2.32038 8.13032L2.69877 8.26ZM15.9927 8.81V9.21L15.9947 9.20999L15.9927 8.81ZM15.9927 7.10001L15.9915 6.69995L15.9844 6.70009L15.9927 7.10001ZM19.2512 7.09L19.2525 7.49C19.4729 7.48932 19.6512 7.31043 19.6512 7.09H19.2512ZM20.1209 8.79V8.38999L20.1189 8.39L20.1209 8.79ZM11.2949 20.6C7.37048 20.6 3.82831 18.3292 2.27493 14.8182L1.54333 15.1418C3.22848 18.9507 7.06296 21.4 11.2949 21.4V20.6ZM2.27504 14.8184C2.1749 14.5917 2.28184 14.3238 2.51044 14.2302L2.20742 13.4898C1.55642 13.7562 1.26354 14.5083 1.54323 15.1416L2.27504 14.8184ZM2.51756 14.2272C2.76087 14.1221 3.04358 14.2376 3.1425 14.4616L3.87431 14.1384C3.59341 13.5024 2.83659 13.2179 2.20029 13.4928L2.51756 14.2272ZM3.143 14.4627C4.55809 17.6403 7.752 19.69 11.2949 19.69V18.89C8.06081 18.89 5.15749 17.0197 3.87381 14.1373L3.143 14.4627ZM11.2949 19.69C15.0573 19.69 18.4298 17.3584 19.6778 13.8749L18.9247 13.6051C17.7938 16.7616 14.7291 18.89 11.2949 18.89V19.69ZM19.6781 13.874C19.7621 13.6376 20.0296 13.509 20.2767 13.5969L20.5448 12.8431C19.8923 12.611 19.1602 12.9424 18.9243 13.6061L19.6781 13.874ZM20.2793 13.5978C20.5393 13.6883 20.6557 13.9449 20.5736 14.176L21.3274 14.4439C21.5651 13.7751 21.2017 13.0717 20.5422 12.8422L20.2793 13.5978ZM20.5737 14.1757C19.2031 18.0209 15.4697 20.6 11.2949 20.6V21.4C15.7961 21.4 19.8392 18.6191 21.3273 14.4443L20.5737 14.1757ZM1.87915 18.58C1.61131 18.58 1.40954 18.3702 1.40954 18.13H0.609543C0.609543 18.8298 1.18742 19.38 1.87915 19.38V18.58ZM1.40954 18.13V14.06H0.609543V18.13H1.40954ZM1.40954 14.06C1.40954 13.8198 1.61131 13.61 1.87915 13.61V12.81C1.18743 12.81 0.609543 13.3602 0.609543 14.06H1.40954ZM1.88012 13.61L6.00824 13.6L6.0063 12.8L1.87818 12.81L1.88012 13.61ZM6.00727 13.6C6.2751 13.6 6.47687 13.8098 6.47687 14.05H7.27687C7.27687 13.3502 6.699 12.8 6.00727 12.8V13.6ZM6.47687 14.05C6.47687 14.2889 6.2748 14.5043 5.99894 14.5101L6.0156 15.3099C6.6993 15.2957 7.27687 14.7511 7.27687 14.05H6.47687ZM6.00604 14.51L2.74752 14.52L2.74998 15.32L6.0085 15.31L6.00604 14.51ZM2.34875 14.92V18.14H3.14875V14.92H2.34875ZM2.34885 18.1487C2.35353 18.3643 2.16529 18.58 1.87915 18.58V19.38C2.57256 19.38 3.16396 18.8357 3.14866 18.1313L2.34885 18.1487ZM1.87915 8.43C1.83535 8.43 1.78808 8.42204 1.70427 8.39688L1.47429 9.16312C1.59038 9.19796 1.72303 9.23 1.87915 9.23V8.43ZM1.72074 8.40222C1.46071 8.31173 1.34427 8.05513 1.42643 7.82395L0.672619 7.55605C0.434922 8.22488 0.798264 8.92827 1.45782 9.15778L1.72074 8.40222ZM1.4259 7.82544C2.80667 3.98821 6.53146 1.4 10.7051 1.4V0.6C6.20275 0.6 2.17107 3.39179 0.67315 7.55457L1.4259 7.82544ZM10.7051 1.4C14.6295 1.4 18.1717 3.67075 19.7251 7.18184L20.4567 6.85817C18.7715 3.04925 14.937 0.6 10.7051 0.6V1.4ZM19.725 7.18161C19.8251 7.40834 19.7182 7.67624 19.4896 7.76981L19.7926 8.5102C20.4436 8.24376 20.7365 7.49167 20.4568 6.8584L19.725 7.18161ZM19.4854 7.77153C19.2302 7.87932 18.9563 7.76217 18.8575 7.53839L18.1257 7.8616C18.4067 8.49782 19.1523 8.78068 19.7967 8.50848L19.4854 7.77153ZM18.857 7.53727C17.4419 4.35974 14.248 2.31001 10.7051 2.31001V3.11001C13.9392 3.11001 16.8425 4.98026 18.1262 7.86273L18.857 7.53727ZM10.7051 2.31001C6.94266 2.31001 3.57024 4.64162 2.32221 8.12509L3.07534 8.39491C4.20623 5.23837 7.27088 3.11001 10.7051 3.11001V2.31001ZM2.32038 8.13032C2.25966 8.30749 2.09011 8.43 1.87915 8.43V9.23C2.40785 9.23 2.898 8.91251 3.07717 8.38967L2.32038 8.13032ZM15.9927 8.41C15.7249 8.41 15.5231 8.20023 15.5231 7.96001H14.7231C14.7231 8.65979 15.301 9.21 15.9927 9.21V8.41ZM15.5231 7.96001C15.5231 7.72113 15.7252 7.50567 16.0011 7.49992L15.9844 6.70009C15.3007 6.71434 14.7231 7.25889 14.7231 7.96001H15.5231ZM15.994 7.50001L19.2525 7.49L19.25 6.69L15.9915 6.70001L15.994 7.50001ZM19.6512 7.09V3.87H18.8512V7.09H19.6512ZM19.6512 3.87C19.6512 3.62978 19.853 3.42 20.1209 3.42V2.62C19.4291 2.62 18.8512 3.17021 18.8512 3.87H19.6512ZM20.1209 3.42C20.3887 3.42 20.5905 3.62978 20.5905 3.87H21.3905C21.3905 3.17022 20.8126 2.62 20.1209 2.62V3.42ZM20.5905 3.87V7.94H21.3905V3.87H20.5905ZM20.5905 7.94C20.5905 8.18022 20.3887 8.39 20.1209 8.39V9.18999C20.8126 9.18999 21.3905 8.63978 21.3905 7.94H20.5905ZM20.1189 8.39L15.9908 8.41L15.9947 9.20999L20.1228 9.18999L20.1189 8.39Z" fill="#2868E1" mask="url(#path-1-outside-1_7782_2092)"/>
</g>
</svg>
