<svg width="127" height="32" viewBox="0 0 127 32" fill="none" xmlns="http://www.w3.org/2000/svg">
<path d="M16.96 0.0771484C13.803 0.0771484 10.7169 1.01328 8.09199 2.76721C5.46705 4.52114 3.42121 7.01405 2.21309 9.93073C1.00496 12.8474 0.688863 16.0568 1.30476 19.1531C1.92066 22.2495 3.44084 25.0937 5.67317 27.326C7.90549 29.5583 10.7497 31.0785 13.846 31.6944C16.9423 32.3103 20.1518 31.9942 23.0684 30.7861C25.9851 29.5779 28.4781 27.532 30.232 24.9071C31.9859 22.2822 32.9221 19.1961 32.9221 16.0391C32.9221 11.8057 31.2404 7.74571 28.2469 4.75226C25.2534 1.7588 21.1934 0.0771484 16.96 0.0771484ZM22.5411 24.0191H11.3801C10.7436 24.0191 10.1331 23.7662 9.68306 23.3162C9.23297 22.8661 8.98005 22.2557 8.98005 21.6191V10.4581C8.98005 9.82161 9.23297 9.21113 9.68306 8.76105C10.1331 8.31096 10.7436 8.05811 11.3801 8.05811H22.5411C23.1776 8.05811 23.788 8.31096 24.2381 8.76105C24.6882 9.21113 24.9411 9.82161 24.9411 10.4581V21.6191C24.9411 22.2557 24.6882 22.8661 24.2381 23.3162C23.788 23.7662 23.1776 24.0191 22.5411 24.0191Z" fill="#FF562E"/>
<path d="M42.7578 26.2162H46.4768V17.5722C46.4768 14.2772 48.4018 12.1572 51.1768 12.1572C53.7538 12.1572 55.3198 14.0162 55.3198 16.9852V26.2162H59.0388V16.6262C59.0388 11.8312 56.3318 8.76517 51.8628 8.76517C50.773 8.73152 49.689 8.93588 48.6863 9.36402C47.6835 9.79216 46.7862 10.4338 46.0568 11.2442L45.6658 9.18917H42.7578V26.2162ZM71.3648 26.6402C76.7468 26.6402 80.5648 22.9542 80.5648 17.7022C80.5648 12.4832 76.7488 8.76417 71.3648 8.76417C65.9498 8.76417 62.1338 12.4832 62.1338 17.7022C62.1338 22.9522 65.9498 26.6382 71.3648 26.6382V26.6402ZM65.8198 17.7022C65.7862 16.9651 65.9067 16.2291 66.1735 15.5411C66.4403 14.8532 66.8475 14.2284 67.3693 13.7066C67.891 13.1849 68.5158 12.7776 69.2038 12.5108C69.8917 12.2441 70.6277 12.1236 71.3648 12.1572C72.0996 12.1268 72.8327 12.2497 73.5175 12.518C74.2022 12.7864 74.8237 13.1943 75.3422 13.7158C75.8607 14.2374 76.265 14.8611 76.5294 15.5474C76.7938 16.2337 76.9124 16.9675 76.8778 17.7022C76.9124 18.4368 76.7938 19.1706 76.5294 19.8569C76.265 20.5432 75.8607 21.167 75.3422 21.6885C74.8237 22.21 74.2022 22.618 73.5175 22.8863C72.8327 23.1546 72.0996 23.2775 71.3648 23.2472C70.6275 23.2808 69.8914 23.1602 69.2033 22.8933C68.5152 22.6264 67.8903 22.219 67.3685 21.697C66.8467 21.1751 66.4395 20.55 66.1729 19.8618C65.9062 19.1737 65.786 18.4374 65.8198 17.7002V17.7022ZM84.0198 26.2162H87.7388V2.07617H84.0208L84.0198 26.2162ZM99.2198 26.6402C100.296 26.6767 101.366 26.4731 102.353 26.0443C103.341 25.6156 104.22 24.9723 104.928 24.1612L105.352 26.2162H108.252V9.18717H104.538V17.8312C104.538 21.1262 102.646 23.2462 99.9058 23.2462C97.3618 23.2462 95.8288 21.3872 95.8288 18.4182V9.18717H92.1098V18.7772C92.1098 23.5722 94.7518 26.6382 99.2208 26.6382L99.2198 26.6402ZM119.346 26.6402C123.684 26.6402 126.457 24.6832 126.457 21.6172C126.457 18.8772 124.272 17.0502 119.998 16.2352C116.736 15.5832 115.725 14.9952 115.725 13.7892C115.725 12.5172 116.899 11.7672 118.889 11.7672C121.074 11.7672 122.379 12.6482 122.51 14.2132H126.163C125.935 10.7552 123.263 8.76617 118.889 8.76617C114.583 8.76617 112.072 10.5932 112.072 13.7572C112.072 16.5302 114.094 18.1932 118.465 18.9112C121.465 19.4332 122.803 20.2482 122.803 21.5532C122.803 22.8252 121.531 23.5752 119.378 23.5752C116.932 23.5752 115.464 22.5312 115.399 20.8022H111.747C111.747 24.3222 114.78 26.6382 119.347 26.6382L119.346 26.6402Z" fill="white"/>
</svg>
