<svg width="126" height="32" viewBox="0 0 126 32" fill="none" xmlns="http://www.w3.org/2000/svg">
<path d="M15.962 0C12.805 0 9.71888 0.938366 7.09395 2.69647C4.46901 4.45458 2.42316 6.95342 1.21504 9.87705C0.00691295 12.8007 -0.309184 16.0177 0.306714 19.1214C0.922611 22.2251 2.4428 25.0761 4.67512 27.3137C6.90745 29.5514 9.75165 31.0752 12.848 31.6926C15.9443 32.3099 19.1537 31.9931 22.0704 30.7821C24.9871 29.5711 27.48 27.5203 29.234 24.8891C30.9879 22.2579 31.924 19.1645 31.924 16C31.924 11.7565 30.2423 7.68683 27.2489 4.68625C24.2554 1.68566 20.1954 0 15.962 0V0ZM21.543 23.999H10.382C9.74551 23.999 9.1351 23.7455 8.68501 23.2944C8.23492 22.8432 7.98201 22.2313 7.98201 21.5933V10.4057C7.98201 9.76767 8.23492 9.15574 8.68501 8.70458C9.1351 8.25342 9.74551 7.99997 10.382 7.99997H21.543C22.1796 7.99997 22.79 8.25342 23.2401 8.70458C23.6902 9.15574 23.9431 9.76767 23.9431 10.4057V21.5933C23.9431 22.2313 23.6902 22.8432 23.2401 23.2944C22.79 23.7455 22.1796 23.999 21.543 23.999V23.999Z" fill="#FF562E"/>
<path d="M41.7607 26.2013H45.4797V17.5367C45.4797 14.2338 47.4047 12.1088 50.1797 12.1088C52.7567 12.1088 54.3227 13.9722 54.3227 16.9483V26.2013H58.0417V16.5884C58.0417 11.782 55.3347 8.70872 50.8657 8.70872C49.776 8.67499 48.6919 8.87984 47.6892 9.30899C46.6865 9.73815 45.7891 10.3813 45.0597 11.1936L44.6687 9.13373H41.7607V26.2013ZM70.3677 26.6263C75.7497 26.6263 79.5677 22.9315 79.5677 17.667C79.5677 12.4356 75.7517 8.70771 70.3677 8.70771C64.9527 8.70771 61.1367 12.4356 61.1367 17.667C61.1367 22.9295 64.9527 26.6243 70.3677 26.6243V26.6263ZM64.8227 17.667C64.7892 16.9281 64.9096 16.1904 65.1764 15.5008C65.4432 14.8112 65.8505 14.185 66.3722 13.662C66.894 13.139 67.5187 12.7307 68.2067 12.4633C68.8946 12.1959 69.6306 12.0752 70.3677 12.1088C71.1026 12.0784 71.8357 12.2015 72.5204 12.4705C73.2052 12.7395 73.8266 13.1484 74.3451 13.6712C74.8637 14.194 75.268 14.8192 75.5323 15.5071C75.7967 16.1951 75.9154 16.9306 75.8807 17.667C75.9154 18.4034 75.7967 19.1389 75.5323 19.8269C75.268 20.5148 74.8637 21.14 74.3451 21.6628C73.8266 22.1856 73.2052 22.5945 72.5204 22.8635C71.8357 23.1325 71.1026 23.2557 70.3677 23.2252C69.6305 23.2589 68.8943 23.1381 68.2062 22.8705C67.5181 22.603 66.8932 22.1946 66.3714 21.6714C65.8497 21.1482 65.4425 20.5216 65.1758 19.8318C64.9091 19.142 64.7889 18.404 64.8227 17.665V17.667ZM83.0227 26.2013H86.7417V2.00378H83.0237L83.0227 26.2013ZM98.2227 26.6263C99.2985 26.6629 100.369 26.4589 101.356 26.0291C102.344 25.5992 103.223 24.9544 103.931 24.1414L104.355 26.2013H107.255V9.13172H103.541V17.7963C103.541 21.0992 101.649 23.2242 98.9087 23.2242C96.3647 23.2242 94.8317 21.3608 94.8317 18.3847V9.13172H91.1127V18.7446C91.1127 23.551 93.7547 26.6243 98.2237 26.6243L98.2227 26.6263ZM118.349 26.6263C122.687 26.6263 125.46 24.6646 125.46 21.5913C125.46 18.8448 123.275 17.0134 119.001 16.1965C115.739 15.543 114.728 14.9536 114.728 13.7447C114.728 12.4697 115.902 11.7179 117.892 11.7179C120.077 11.7179 121.382 12.601 121.513 14.1697H125.166C124.938 10.7035 122.266 8.70972 117.892 8.70972C113.586 8.70972 111.075 10.5411 111.075 13.7126C111.075 16.4922 113.097 18.1592 117.468 18.8789C120.468 19.4021 121.806 20.2191 121.806 21.5272C121.806 22.8022 120.534 23.554 118.381 23.554C115.935 23.554 114.467 22.5075 114.402 20.7744H110.75C110.75 24.3028 113.783 26.6243 118.35 26.6243L118.349 26.6263Z" fill="#072D63"/>
</svg>
