<svg xmlns="http://www.w3.org/2000/svg" width="21" height="21" viewBox="0 0 21 21">
  <path id="medium" d="M-10.5-19.5v21h21v-21ZM6.947-14.527,5.822-13.448a.33.33,0,0,0-.127.314V-5.2a.323.323,0,0,0,.127.314l1.1,1.078v.239H1.392V-3.8L2.531-4.9c.113-.113.113-.145.113-.314v-6.417L-.525-3.591H-.952l-3.689-8.044v5.391a.741.741,0,0,0,.206.619l1.481,1.8v.239H-7.162V-3.83l1.481-1.8a.718.718,0,0,0,.192-.619v-6.234a.535.535,0,0,0-.178-.459l-1.317-1.589v-.239h4.092L.267-7.828l2.78-6.933h3.9Z" transform="translate(10.5 19.5)" fill="#7e92ae"/>
</svg>
