<svg xmlns="http://www.w3.org/2000/svg" width="20" height="19" fill="none"><path fill="#e27625" d="M19.145.077 11.33 5.965l1.457-3.485zM1.118.077l7.753 5.936L7.477 2.48zM16.326 13.724 14.26 16.95l4.448 1.258 1.268-4.42zM.288 13.788l1.269 4.42 4.448-1.258-2.068-3.226z" style="stroke-width:1.01466"/><path fill="#e27625" d="m5.77 8.255-1.238 1.903 4.401.21-.14-4.84zM14.494 8.255l-3.07-2.775-.094 4.888 4.401-.21zM6.005 16.95l2.662-1.307-2.286-1.823zM11.597 15.643l2.662 1.307-.376-3.13z" style="stroke-width:1.01466"/><path fill="#d7c1b3" d="m14.26 16.95-2.663-1.307.219 1.758-.031.741zM6.005 16.95l2.475 1.192-.016-.741.203-1.758z" style="stroke-width:1.01466"/><path fill="#2f343b" d="m8.527 12.658-2.209-.66 1.55-.726zM11.737 12.658l.658-1.386 1.566.725z" style="stroke-width:1.01466"/><path fill="#cc6228" d="m6.005 16.95.392-3.226-2.46.064zM13.867 13.724l.392 3.226 2.067-3.162zM15.731 10.159l-4.4.21.406 2.289.658-1.387 1.566.726zM6.318 11.997l1.55-.726.658 1.387.407-2.29-4.4-.21z" style="stroke-width:1.01466"/><path fill="#e27625" d="M4.532 10.159 6.38 13.82l-.062-1.823zM13.961 11.998l-.078 1.822 1.848-3.661zM8.934 10.368l-.408 2.29.517 2.727.11-3.581zM11.33 10.368l-.22 1.42.11 3.597.517-2.726z" style="stroke-width:1.01466"/><path fill="#f5841f" d="m11.738 12.659-.517 2.726.376.258 2.286-1.823.079-1.822zM6.318 11.998l.063 1.822 2.287 1.823.376-.258-.517-2.726z" style="stroke-width:1.01466"/><path fill="#c0ad9e" d="m11.784 18.143.031-.742-.203-.161h-2.96l-.188.161.016.742-2.475-1.193.861.725 1.755 1.242h3.007l1.77-1.242.86-.725z" style="stroke-width:1.01466"/><path fill="#2f343b" d="m11.596 15.643-.376-.258H9.043l-.375.258-.204 1.757.188-.161h2.96l.204.161z" style="stroke-width:1.01466"/><path fill="#763e1a" d="m19.475 6.336.657-3.243-.986-3.016-7.55 5.678 2.898 2.5 4.104 1.226.908-1.08-.392-.291.627-.58-.486-.372.627-.5zM.132 3.093.79 6.336l-.423.322.642.5-.486.371.627.581-.392.29.909 1.081L5.77 8.255l2.898-2.5L1.118.077z" style="stroke-width:1.01466"/><path fill="#f5841f" d="m18.598 9.481-4.104-1.226 1.237 1.904-1.848 3.661 2.444-.032h3.649zM5.77 8.255 1.666 9.48.288 13.788h3.65l2.443.032-1.848-3.662zM11.33 10.368l.267-4.613 1.19-3.275h-5.31l1.19 3.275.267 4.613.094 1.436.016 3.58h2.177l.015-3.58z" style="stroke-width:1.01466"/></svg>