<svg xmlns="http://www.w3.org/2000/svg" width="15.951" height="16.131" viewBox="0 0 15.951 16.131">
    <g style="opacity:.55">
        <path data-name="Path 376"
              d="M13.779 13.117a2.694 2.694 0 0 1-2.63-3.253 2.738 2.738 0 0 1 2.708-2.124h1.716a.358.358 0 0 0 .358-.358V5.766a1.792 1.792 0 0 0-1.792-1.792c-3.209 0 6.353-.007-10.037-.007a.538.538 0 1 1 0-1.075h9.5a.179.179 0 0 0 .179-.179v-.17c0-.989-1.126-1.792-2.509-1.792H3.384A2.509 2.509 0 0 0 .875 3.259v11.113a2.509 2.509 0 0 0 2.509 2.509h10.754a1.792 1.792 0 0 0 1.792-1.792V13.3a.179.179 0 0 0-.179-.179z"
              transform="translate(-.875 -.75)" style="fill:#072d63"/>
        <path data-name="Path 377"
              d="M20.388 12h-2.151a1.613 1.613 0 0 0 0 3.226h2.151a1.08 1.08 0 0 0 .9-1.075v-1.076a1.08 1.08 0 0 0-.9-1.075z"
              transform="translate(-5.333 -3.934)" style="fill:#072d63"/>
    </g>
</svg>
