<svg xmlns="http://www.w3.org/2000/svg" width="31.333" height="30.204" viewBox="0 0 31.333 30.204">
  <defs>
    <style>
      .cls-1 {
        fill: #072d63;
      }
    </style>
  </defs>
  <g id="move-down-1" transform="translate(-0.333 -0.853)">
    <g id="Group_1363" data-name="Group 1363">
      <path id="Path_387" data-name="Path 387" class="cls-1" d="M16.609.94h0a1.65,1.65,0,0,0-1.667,1.667V16.153h0a.348.348,0,0,1-.333.333H11.733A1.329,1.329,0,0,0,10.4,17.819a1.259,1.259,0,0,0,.387.92l4.867,4.867h0a1.328,1.328,0,0,0,1.88,0l4.867-4.88h0a1.332,1.332,0,0,0-.013-1.893,1.356,1.356,0,0,0-.947-.4H18.56a.339.339,0,0,1-.333-.333c-.013-.013-.013-.013,0-.013V2.52h0A1.659,1.659,0,0,0,16.56.853Z"/>
      <path id="Path_388" data-name="Path 388" class="cls-1" d="M31.667,29.391h0A1.659,1.659,0,0,0,30,27.724H2a1.667,1.667,0,1,0,0,3.333H30A1.667,1.667,0,0,0,31.667,29.391Z"/>
    </g>
  </g>
</svg>
