<svg width="24" height="25" viewBox="0 0 24 25" fill="none" xmlns="http://www.w3.org/2000/svg">
<path d="M11 22.7988C17.0751 22.7988 22 17.874 22 11.7988C22 5.7237 17.0751 0.798828 11 0.798828C4.92487 0.798828 0 5.7237 0 11.7988C0 17.874 4.92487 22.7988 11 22.7988Z" fill="#3E73C4"/>
<path d="M13.7653 13.2591C13.7653 11.7988 12.8853 11.2983 11.1253 11.0893C9.8686 10.9222 9.61766 10.5888 9.61766 10.0044C9.61766 9.42005 10.037 9.04193 10.8744 9.04193C11.1721 8.99461 11.4768 9.05755 11.7313 9.21894C11.9859 9.38033 12.1728 9.62908 12.257 9.91849C12.2791 9.97867 12.319 10.0307 12.3715 10.0675C12.424 10.1044 12.4864 10.1243 12.5505 10.1247H13.2208C13.2596 10.1258 13.2981 10.1189 13.3341 10.1046C13.3701 10.0903 13.4028 10.0689 13.4302 10.0415C13.4577 10.0142 13.4793 9.98162 13.4938 9.94569C13.5082 9.90976 13.5153 9.87127 13.5144 9.83255V9.7913C13.4313 9.33931 13.2015 8.92732 12.8606 8.6191C12.5197 8.31088 12.0867 8.12362 11.6286 8.0863V7.08393C11.6286 6.91687 11.5028 6.79174 11.2938 6.7498H10.6647C10.4977 6.7498 10.3718 6.87493 10.3299 7.08393V8.04643C9.79302 8.06575 9.28324 8.28713 8.9026 8.66625C8.52195 9.04536 8.29852 9.55425 8.27703 10.0911C8.27703 11.4661 9.11441 12.0099 10.8744 12.2223C12.048 12.4286 12.4247 12.6816 12.4247 13.3491C12.4247 14.0167 11.8383 14.4752 11.0422 14.4752C9.95247 14.4752 9.57572 14.0167 9.44991 13.3904C9.43714 13.3213 9.401 13.2587 9.34754 13.2131C9.29408 13.1676 9.22657 13.1418 9.15635 13.1401H8.4441C8.40544 13.1392 8.36699 13.1461 8.33108 13.1604C8.29517 13.1748 8.26254 13.1962 8.23516 13.2236C8.20778 13.2509 8.18623 13.2835 8.1718 13.3193C8.15738 13.3552 8.15037 13.3936 8.15122 13.4323V13.4736C8.22889 14.0144 8.49354 14.5109 8.8992 14.8769C9.30487 15.2428 9.82592 15.4552 10.3718 15.4769V16.4738C10.3718 16.6402 10.4977 16.766 10.7067 16.8072H11.3357C11.5028 16.8072 11.6286 16.6821 11.6705 16.4738V15.4701C12.2303 15.4227 12.7531 15.1712 13.1393 14.7634C13.5256 14.3555 13.7484 13.8198 13.7653 13.2584V13.2591Z" fill="white"/>
<path d="M8.86347 17.6426C7.65889 17.2061 6.61799 16.4092 5.88235 15.3602C5.14672 14.3112 4.75206 13.0611 4.75206 11.7799C4.75206 10.4987 5.14672 9.24856 5.88235 8.19959C6.61799 7.15061 7.65889 6.3537 8.86347 5.91724C8.94365 5.88262 9.01098 5.82375 9.05598 5.7489C9.10099 5.67405 9.12142 5.58698 9.11441 5.49993V4.91555C9.12004 4.83901 9.09771 4.76303 9.05156 4.70171C9.00541 4.64038 8.93858 4.59789 8.86347 4.58212C8.80446 4.57599 8.74516 4.59058 8.69572 4.62337C7.17208 5.10149 5.8408 6.05342 4.89566 7.3406C3.95052 8.62777 3.44086 10.183 3.44086 11.7799C3.44086 13.3768 3.95052 14.932 4.89566 16.2192C5.8408 17.5064 7.17208 18.4583 8.69572 18.9364C8.73049 18.9567 8.76955 18.9683 8.80972 18.9706C8.84988 18.9728 8.88999 18.9654 8.92675 18.9491C8.96352 18.9328 8.9959 18.908 9.02123 18.8768C9.04656 18.8455 9.06412 18.8087 9.07247 18.7694C9.11441 18.7281 9.11441 18.6855 9.11441 18.6023V18.0179C9.10123 17.9413 9.07209 17.8682 9.02885 17.8036C8.98562 17.7389 8.92928 17.684 8.86347 17.6426ZM13.3047 4.62405C13.2702 4.60325 13.2312 4.59095 13.191 4.58817C13.1508 4.58538 13.1105 4.59219 13.0734 4.60804C13.0364 4.62388 13.0036 4.64831 12.9778 4.6793C12.9521 4.7103 12.934 4.74697 12.9252 4.7863C12.8833 4.82824 12.8833 4.87018 12.8833 4.95337V5.54255C12.8903 5.62671 12.9165 5.70813 12.9601 5.78049C13.0036 5.85286 13.0632 5.91424 13.1342 5.95987C14.3388 6.39632 15.3797 7.19324 16.1153 8.24221C16.851 9.29119 17.2456 10.5413 17.2456 11.8225C17.2456 13.1037 16.851 14.3539 16.1153 15.4028C15.3797 16.4518 14.3388 17.2487 13.1342 17.6852C13.054 17.7198 12.9867 17.7787 12.9417 17.8535C12.8967 17.9284 12.8763 18.0154 12.8833 18.1025V18.6869C12.8777 18.7634 12.9 18.8394 12.9461 18.9007C12.9923 18.962 13.0591 19.0045 13.1342 19.0203C13.1932 19.0264 13.2525 19.0118 13.302 18.9791C14.2449 18.6846 15.1203 18.2065 15.8777 17.5723C16.6352 16.9381 17.2597 16.1604 17.7153 15.2839C18.1709 14.4073 18.4486 13.4493 18.5325 12.465C18.6163 11.4807 18.5046 10.4896 18.2038 9.54862C17.8385 8.39652 17.203 7.34849 16.3503 6.49195C15.4976 5.63541 14.4524 4.9952 13.302 4.62474L13.3047 4.62405Z" fill="white"/>
<circle cx="18" cy="18.7988" r="6" fill="white"/>
<mask id="mask0_6275_3249" style="mask-type:luminance" maskUnits="userSpaceOnUse" x="14" y="15" width="8" height="8">
<path d="M21.5 15.2988H14.5V22.2988H21.5V15.2988Z" fill="white"/>
</mask>
<g mask="url(#mask0_6275_3249)">
<path d="M21.5003 15.2988H14.9961L16.8478 17.4819C17.1556 17.2122 17.5589 17.0488 18.0003 17.0488C18.9668 17.0488 19.7503 17.8323 19.7503 18.7988C19.7503 19.2348 19.5909 19.6335 19.3271 19.9399L21.5003 21.8097V15.2988Z" fill="black"/>
<path d="M20.6433 22.2984L18.9223 20.2859C18.6545 20.4523 18.3385 20.5484 18 20.5484C17.0335 20.5484 16.25 19.7649 16.25 18.7984C16.25 18.463 16.3444 18.1496 16.508 17.8834L14.5 16.1348V22.2984H20.6433Z" fill="black"/>
</g>
</svg>
