<svg width="32" height="32" viewBox="0 0 32 32" fill="none" xmlns="http://www.w3.org/2000/svg">
<g id="Group 198">
<path id="Path 19" d="M15.962 0C12.805 0 9.71888 0.938366 7.09395 2.69647C4.46901 4.45458 2.42316 6.95342 1.21504 9.87705C0.00691295 12.8007 -0.309184 16.0177 0.306714 19.1214C0.922611 22.2251 2.4428 25.0761 4.67512 27.3137C6.90745 29.5514 9.75165 31.0752 12.848 31.6926C15.9443 32.3099 19.1537 31.9931 22.0704 30.7821C24.9871 29.5711 27.48 27.5203 29.234 24.8891C30.9879 22.2579 31.924 19.1645 31.924 16C31.924 11.7565 30.2423 7.68683 27.2489 4.68625C24.2554 1.68566 20.1954 0 15.962 0V0ZM21.543 23.999H10.382C9.74551 23.999 9.1351 23.7455 8.68501 23.2944C8.23492 22.8432 7.98201 22.2313 7.98201 21.5933V10.4057C7.98201 9.76767 8.23492 9.15574 8.68501 8.70458C9.1351 8.25342 9.74551 7.99997 10.382 7.99997H21.543C22.1796 7.99997 22.79 8.25342 23.2401 8.70458C23.6902 9.15574 23.9431 9.76767 23.9431 10.4057V21.5933C23.9431 22.2313 23.6902 22.8432 23.2401 23.2944C22.79 23.7455 22.1796 23.999 21.543 23.999V23.999Z" fill="#FF562E"/>
</g>
</svg>
