<svg width="24" height="24" viewBox="0 0 24 24" fill="none" xmlns="http://www.w3.org/2000/svg">
<circle cx="12" cy="12" r="12" fill="#273141"/>
<path d="M11.9813 13.4219C12.5012 13.4219 12.9228 13.0005 12.9228 12.4807C12.9228 11.9609 12.5012 11.5395 11.9813 11.5395C11.4612 11.5395 11.0397 11.9609 11.0397 12.4807C11.0397 13.0005 11.4612 13.4219 11.9813 13.4219Z" fill="white"/>
<path fill-rule="evenodd" clip-rule="evenodd" d="M6.33168 10.7865C6.33168 10.7384 6.3375 10.6917 6.34845 10.6471C5.33807 9.6919 4.83684 8.90231 5.07518 8.49039C5.45593 7.8322 7.61643 8.33114 10.3321 9.60374C10.5916 6.61706 11.2407 4.5 12.0002 4.5C12.761 4.5 13.4109 6.62365 13.6696 9.61768C14.2411 9.35253 14.7879 9.12127 15.2988 8.92741C15.2967 8.90747 15.2957 8.88722 15.2957 8.86671C15.2957 8.55485 15.5401 8.30205 15.8417 8.30205C16.0412 8.30205 16.2157 8.41261 16.311 8.5777C17.7117 8.14698 18.6982 8.09325 18.9424 8.51846C19.3204 9.17719 17.807 10.7946 15.3429 12.5066C17.7981 14.2288 19.306 15.852 18.9248 16.5091C18.5439 17.1676 16.385 16.6682 13.6686 15.3949C13.4091 18.3823 12.7599 20.5 12.0002 20.5C11.5189 20.5 11.082 19.6498 10.7604 18.267C10.5114 18.2144 10.3241 17.9867 10.3241 17.7137C10.3241 17.5208 10.4177 17.3505 10.5604 17.2486C10.4663 16.6792 10.3887 16.0519 10.3308 15.381C7.60276 16.6468 5.43615 17.1401 5.05765 16.4805C4.67962 15.8217 6.19287 14.2044 8.65695 12.4924C8.07941 12.0875 7.55433 11.688 7.09393 11.3053C7.02765 11.3349 6.95459 11.3513 6.87782 11.3513C6.5762 11.3513 6.33168 11.0984 6.33168 10.7865ZM10.3 10.0047C10.2655 10.4756 10.2404 10.9657 10.2259 11.4706C9.78929 11.7377 9.37119 12.0068 8.97517 12.2744C8.22394 11.7361 7.63482 11.2678 7.36263 11.0468C7.40181 10.9689 7.42395 10.8804 7.42395 10.7865C7.42395 10.4747 7.17944 10.2218 6.87782 10.2218C6.75571 10.2218 6.64296 10.2633 6.552 10.3333C5.49502 9.31898 5.40413 8.82251 5.40413 8.82251L5.40362 8.82058C5.33038 8.64704 5.48495 8.60527 5.48495 8.60527C6.16928 8.4761 7.13049 8.77046 7.13049 8.77046C8.03464 8.97625 9.18361 9.45991 10.3 10.0047ZM11.1142 18.2191C11.2934 18.1265 11.4165 17.935 11.4165 17.7137C11.4165 17.4131 11.1892 17.1673 10.9026 17.15C10.8081 16.5396 10.7411 15.8748 10.6939 15.2095C11.1171 15.0062 11.5522 14.7853 11.9947 14.5482C12.4462 14.7929 12.8901 15.0204 13.3216 15.2295C13.1974 16.5099 13.0334 17.4506 13.0334 17.4506C12.6545 19.5964 12.1238 20.0485 12.1238 20.0485C12.0109 20.1992 11.8979 20.0861 11.8979 20.0861C11.4429 19.5592 11.2154 18.5803 11.2154 18.5803C11.1798 18.4656 11.1461 18.3449 11.1142 18.2191ZM15.4633 9.27386C14.9573 9.46241 14.3734 9.70045 13.7002 9.99998C13.735 10.4737 13.7602 10.967 13.7747 11.4752C14.2178 11.7491 14.6418 12.0248 15.0429 12.2989C15.8941 11.6943 16.9143 10.8901 17.8814 9.92496C17.8814 9.92496 18.6065 9.18579 18.6442 8.77594C18.6476 8.74277 18.6393 8.70944 18.6205 8.68187C18.6017 8.65434 18.5738 8.6343 18.5417 8.62529C18.3436 8.57079 17.7768 8.51957 16.3809 8.9573C16.339 9.22615 16.1135 9.43143 15.8417 9.43143C15.6948 9.43143 15.5614 9.37145 15.4633 9.27386ZM10.6403 10.173C10.6296 10.2875 10.6192 10.4045 10.6089 10.5239C10.6089 10.5239 10.5995 10.7965 10.5937 11.2486C10.7627 11.1481 10.9342 11.0479 11.1079 10.9483C11.2729 10.8537 11.4372 10.7612 11.6007 10.6709C11.2907 10.5053 10.9682 10.3374 10.6403 10.173ZM12.0059 10.4503C11.5547 10.2059 11.1112 9.97842 10.6799 9.76946C11.0634 6.03867 11.6773 5.1156 11.8949 4.90055C11.9185 4.87719 11.9497 4.86292 11.9828 4.86024C12.0159 4.85757 12.0489 4.86666 12.076 4.88592C12.4119 5.12382 12.6937 6.11889 12.6937 6.11889C13.0504 7.44266 13.2403 8.73183 13.3409 9.77266C12.9069 9.98046 12.4604 10.2068 12.0059 10.4503ZM11.9876 10.8798C11.592 11.1044 11.1098 11.3844 10.5898 11.7003C10.5877 12.1661 10.5909 12.7403 10.6073 13.3665C10.9373 13.5704 11.2756 13.7681 11.6144 13.9508C11.6144 13.9508 11.7491 14.0334 11.9949 14.1708C12.3567 13.9782 12.7179 13.774 13.065 13.5609C13.065 13.5609 13.2043 13.4858 13.4467 13.3418C13.4598 12.9304 13.4625 12.5136 13.4503 12.1048C13.4503 12.1048 13.4539 11.963 13.4507 11.7087C13.0493 11.4732 12.5458 11.1846 11.9876 10.8798ZM13.4401 11.2709C13.2624 11.1638 13.082 11.0571 12.8989 10.951C12.7262 10.8509 12.5541 10.7531 12.383 10.6576C12.7799 10.4367 13.0224 10.3086 13.0224 10.3086C13.1421 10.2529 13.2594 10.1989 13.3742 10.1467C13.4098 10.5825 13.4295 10.9636 13.4401 11.2709ZM13.7844 11.9061C13.7877 12.1022 13.7893 12.3003 13.7893 12.5C13.7893 12.7144 13.7874 12.9268 13.7837 13.1369C14.0469 12.9736 14.3704 12.7651 14.734 12.5149C14.6283 12.4397 14.5198 12.3631 14.4084 12.2851C14.4084 12.2851 14.1754 12.1393 13.7844 11.9061ZM15.0252 12.7242C14.6293 12.9918 14.2112 13.2608 13.7747 13.5279C13.7598 14.0455 13.7339 14.5476 13.698 15.0293C14.648 15.4628 15.8556 15.9426 17.1762 16.2965C17.1762 16.2965 18.1788 16.5517 18.5533 16.3804C18.5836 16.3667 18.608 16.3427 18.6224 16.3126C18.6367 16.2826 18.64 16.2484 18.6316 16.2163C18.554 15.9212 18.0632 14.9268 15.0252 12.7242ZM13.3545 14.8695C13.3856 14.5083 13.4125 14.1264 13.431 13.7355C13.2541 13.8411 13.0743 13.9462 12.892 14.0507C12.7077 14.1563 12.524 14.2594 12.3415 14.3599C12.6144 14.5055 12.9565 14.6806 13.3545 14.8695ZM11.6424 14.3548C11.4636 14.2553 11.2838 14.1532 11.1032 14.0486C10.9398 13.954 10.7784 13.8588 10.6193 13.7634C10.6312 14.1102 10.6474 14.4687 10.6691 14.8301C10.9833 14.6836 11.3112 14.5244 11.6424 14.3548ZM10.2166 13.1199C10.2131 12.9154 10.2113 12.7086 10.2113 12.5C10.2113 12.3083 10.2128 12.1182 10.2157 11.9298C9.91812 12.1143 9.61237 12.3085 9.30689 12.509C9.59424 12.7096 9.8999 12.9161 10.2166 13.1199ZM8.98767 12.721C9.37986 12.9882 9.79372 13.2568 10.2258 13.5238C10.2403 14.0321 10.2655 14.5255 10.3003 14.9994C9.12194 15.5318 8.21841 15.8596 8.21841 15.8596C6.16763 16.5982 5.51155 16.3629 5.51155 16.3629C5.32323 16.3393 5.36568 16.1846 5.36568 16.1846C5.59666 15.5279 6.33178 14.8435 6.33178 14.8435C6.96295 14.1648 7.95698 13.4135 8.98767 12.721Z" fill="white"/>
<path d="M12 18C12 14.6863 14.6863 12 18 12V12C21.3137 12 24 14.6863 24 18V18C24 21.3137 21.3137 24 18 24V24C14.6863 24 12 21.3137 12 18V18Z" fill="#241560"/>
<path d="M21.5281 15.6273C21.4494 15.3357 21.1964 15.0442 20.7412 14.7196C20.3758 14.461 19.9879 14.3125 19.6788 14.3125C19.6169 14.3125 19.5607 14.318 19.5045 14.329C19.364 14.3565 19.2403 14.4555 19.1616 14.6041C19.0661 14.7801 19.0436 15.0167 19.1054 15.1597C19.1279 15.2037 19.156 15.2587 19.1897 15.3082C18.8918 15.4843 18.7232 15.5338 18.7007 15.5393C19.4764 15.7923 20.1228 16.3204 20.5275 17.0081L20.5332 16.9421C20.55 16.7605 20.6062 16.5515 20.6849 16.3369C20.7636 16.3589 20.8423 16.3699 20.921 16.3699C21.129 16.3699 21.3089 16.2874 21.4213 16.1389C21.5337 15.9904 21.5787 15.7923 21.5281 15.6273Z" fill="#5E12A0"/>
<path d="M20.7187 16.1774C21.2302 16.3149 21.4382 15.9298 21.3707 15.6713C21.2977 15.4127 21.0616 15.1487 20.6456 14.8516C20.2297 14.5545 19.8081 14.4335 19.5383 14.4885C19.2685 14.5435 19.1898 14.9451 19.2572 15.0991C19.2854 15.1597 19.3472 15.2477 19.4315 15.3467C19.3247 15.4182 19.2235 15.4732 19.1392 15.5227C19.6564 15.7483 20.106 16.1004 20.4433 16.5405C20.4826 16.3919 20.5388 16.2599 20.5895 16.1444C20.6288 16.1499 20.6738 16.1609 20.7187 16.1774Z" fill="url(#paint0_radial_10800_20860)"/>
<path d="M17.79 21.5683C19.5253 21.5683 20.9321 20.1915 20.9321 18.4932C20.9321 16.7948 19.5253 15.418 17.79 15.418C16.0546 15.418 14.6478 16.7948 14.6478 18.4932C14.6478 20.1915 16.0546 21.5683 17.79 21.5683Z" fill="url(#paint1_radial_10800_20860)"/>
<path opacity="0.6" d="M21.1124 15.418C20.6852 14.978 20.3255 14.8624 19.8927 14.7689C19.5554 14.6919 19.6454 14.5049 20.0557 14.5434C19.859 14.4773 19.6735 14.4608 19.5386 14.4883C19.2687 14.5434 19.1901 14.9449 19.2575 15.099C19.2856 15.1595 19.3474 15.2475 19.4318 15.3465C19.28 15.4456 19.1507 15.5171 19.0439 15.5721C19.0945 15.5941 19.1563 15.6216 19.2294 15.6601C19.4205 15.7591 19.6285 15.9242 19.6285 15.9242C19.3137 15.6601 19.3812 15.5391 19.814 15.242C19.9489 15.1485 20.1962 15.1595 20.4267 15.275C20.6572 15.3905 20.927 15.6821 20.927 15.6821L20.6684 16.1662C20.6852 16.1717 20.7021 16.1772 20.719 16.1827C20.882 16.2267 21.0113 16.2157 21.1124 16.1772C21.2305 16.1057 21.5396 15.8636 21.1124 15.418Z" fill="#A98698"/>
<path d="M19.8866 15.033C19.999 15.0771 20.1452 15.1541 20.3251 15.2696C20.5387 15.4071 20.7242 15.5612 20.8422 15.6822C20.6455 15.9352 20.5162 16.2818 20.4375 16.5239C20.4769 16.5789 20.5218 16.6339 20.5612 16.6889C20.6005 16.5514 20.6679 16.3478 20.7579 16.1443C20.7804 16.1498 20.8085 16.1498 20.8366 16.1498C20.904 16.1498 20.9827 16.1388 21.0446 16.0893C21.0895 16.0563 21.1401 15.9958 21.1345 15.8857C21.1345 15.7812 21.0502 15.6492 20.8759 15.4896C20.7523 15.3741 20.5837 15.2476 20.415 15.1321C19.9316 14.8185 19.5943 14.7305 19.4426 14.879C19.3414 14.978 19.3526 15.0991 19.3863 15.1871C19.2065 15.3026 19.0547 15.3851 18.9536 15.4401C19.021 15.4621 19.0828 15.4896 19.1503 15.5171C19.3301 15.4236 19.5887 15.2641 19.8866 15.033ZM20.949 15.8197C20.9659 15.8472 20.9715 15.8747 20.9715 15.8912C20.9715 15.9407 20.9546 15.9572 20.9434 15.9682C20.9209 15.9848 20.8759 15.9958 20.8366 15.9958C20.8703 15.9297 20.9097 15.8747 20.949 15.8197ZM19.5606 15C19.5775 14.9835 19.6225 14.9725 19.6955 14.9835C19.6393 15.0275 19.5831 15.066 19.5269 15.1046C19.5213 15.066 19.5269 15.0275 19.5606 15Z" fill="#5E12A0"/>
<path d="M17.7901 15.2365C15.952 15.2365 14.4625 16.6943 14.4625 18.4932C14.4625 20.2921 15.952 21.75 17.7901 21.75C19.6282 21.75 21.1178 20.2921 21.1178 18.4932C21.1178 16.6943 19.6226 15.2365 17.7901 15.2365ZM17.7901 21.5684C16.0532 21.5684 14.648 20.1931 14.648 18.4932C14.648 16.7934 16.0532 15.4181 17.7901 15.4181C19.527 15.4181 20.9323 16.7934 20.9323 18.4932C20.9323 20.1931 19.5214 21.5684 17.7901 21.5684Z" fill="#5E12A0"/>
<path opacity="0.6" d="M17.79 21.5683C19.5253 21.5683 20.9321 20.1915 20.9321 18.4932C20.9321 16.7948 19.5253 15.418 17.79 15.418C16.0546 15.418 14.6478 16.7948 14.6478 18.4932C14.6478 20.1915 16.0546 21.5683 17.79 21.5683Z" fill="url(#paint2_linear_10800_20860)"/>
<path opacity="0.6" d="M17.7676 21.1943C16.0532 20.9247 14.8896 19.3458 15.1707 17.668C15.2943 16.9253 15.6766 16.2927 16.2162 15.8361C15.4292 16.2817 14.8447 17.0574 14.6873 18.0036C14.4118 19.6814 15.5754 21.2603 17.2842 21.5298C18.2398 21.6839 19.1616 21.3923 19.8418 20.8202C19.2403 21.1612 18.5096 21.3098 17.7676 21.1943Z" fill="#A98698"/>
<path opacity="0.6" d="M18.2904 15.4623C17.4978 15.3357 16.7277 15.5118 16.0982 15.9024C16.0869 15.9134 16.0757 15.9244 16.0757 15.9244C16.3174 15.7813 16.6715 15.6548 16.6715 15.6548C15.7609 16.1719 15.4799 16.7605 15.4799 16.7605C15.834 16.0894 16.8739 15.6163 17.6889 15.5833C18.504 15.5503 19.038 15.7868 19.69 16.2984C20.3421 16.8156 20.7355 17.8718 20.6962 18.708C20.6625 19.5442 20.2128 20.2208 20.2128 20.2208C20.5219 19.8302 20.7074 19.5442 20.8255 19.2526C20.848 19.1646 20.8705 19.0766 20.8817 18.983C21.1627 17.3107 20.0048 15.7318 18.2904 15.4623Z" fill="url(#paint3_linear_10800_20860)"/>
<path d="M20.7744 18.4655C20.7744 20.0773 19.4365 21.3866 17.7896 21.3866C16.1426 21.3866 14.7992 20.0773 14.7992 18.4655H20.7744Z" fill="url(#paint4_linear_10800_20860)"/>
<g opacity="0.6">
<path opacity="0.6" d="M20.5386 18.4658C20.5386 20.0391 19.2683 21.3264 17.6719 21.3869C17.7112 21.3869 17.7506 21.3869 17.7899 21.3869C19.4369 21.3869 20.7747 20.0776 20.7747 18.4658H20.5386Z" fill="url(#paint5_linear_10800_20860)"/>
</g>
<g opacity="0.7">
<path opacity="0.7" d="M15.2219 18.4658H14.8004C14.8004 20.0776 16.1382 21.3869 17.7851 21.3869C17.8582 21.3869 17.9257 21.3869 17.9931 21.3814C16.4473 21.2714 15.2219 20.0061 15.2219 18.4658Z" fill="url(#paint6_linear_10800_20860)"/>
</g>
<path d="M20.7688 18.4934C20.7688 18.1578 20.1729 17.9653 19.3803 17.8993C18.807 17.8553 18.228 17.9103 17.5647 18.1083C16.9914 18.2734 16.4743 18.2458 16.0977 18.2018C15.2601 18.1083 14.7992 18.0973 14.7992 18.4934C14.7992 19.0655 15.9909 19.7807 17.7783 19.5331C18.6833 19.4066 19.1499 19.1481 19.6839 18.972C20.2629 18.785 20.7688 18.7904 20.7688 18.4934Z" fill="url(#paint7_linear_10800_20860)"/>
<path d="M18.7685 17.1074C19.0478 17.1074 19.2742 16.8857 19.2742 16.6123C19.2742 16.3389 19.0478 16.1172 18.7685 16.1172C18.4892 16.1172 18.2628 16.3389 18.2628 16.6123C18.2628 16.8857 18.4892 17.1074 18.7685 17.1074Z" fill="white"/>
<path d="M19.5942 17.4758C19.7121 17.4758 19.8077 17.3822 19.8077 17.2667C19.8077 17.1513 19.7121 17.0577 19.5942 17.0577C19.4763 17.0577 19.3807 17.1513 19.3807 17.2667C19.3807 17.3822 19.4763 17.4758 19.5942 17.4758Z" fill="white"/>
<g opacity="0.6">
<path opacity="0.6" d="M20.3579 16.216C20.3523 16.216 20.3467 16.216 20.3467 16.216C20.3129 16.2105 20.2905 16.1775 20.2961 16.139C20.3467 15.886 20.5602 15.6439 20.5715 15.6329C20.5939 15.6054 20.6389 15.6054 20.6614 15.6274C20.6894 15.6494 20.6894 15.6934 20.667 15.7154C20.6614 15.7209 20.4647 15.9465 20.4197 16.1665C20.4141 16.1995 20.386 16.216 20.3579 16.216Z" fill="url(#paint8_linear_10800_20860)"/>
</g>
<path opacity="0.2" d="M17.5831 20.7873C17.67 20.7873 17.7405 20.7183 17.7405 20.6333C17.7405 20.5482 17.67 20.4792 17.5831 20.4792C17.4962 20.4792 17.4258 20.5482 17.4258 20.6333C17.4258 20.7183 17.4962 20.7873 17.5831 20.7873Z" fill="white"/>
<g opacity="0.4">
<path opacity="0.6" d="M17.4934 20.7336C17.4316 20.673 17.4316 20.5741 17.4934 20.5135C17.5046 20.5025 17.5159 20.497 17.5271 20.486C17.5046 20.4915 17.4878 20.5025 17.4709 20.519C17.4091 20.5795 17.4091 20.6786 17.4709 20.7391C17.5215 20.7886 17.6002 20.7996 17.662 20.7666C17.6058 20.7886 17.5384 20.7776 17.4934 20.7336Z" fill="url(#paint9_linear_10800_20860)"/>
</g>
<path opacity="0.3" d="M17.6384 20.5888C17.657 20.5888 17.6721 20.5742 17.6721 20.556C17.6721 20.5379 17.657 20.5232 17.6384 20.5232C17.6198 20.5232 17.6047 20.5379 17.6047 20.556C17.6047 20.5742 17.6198 20.5888 17.6384 20.5888Z" fill="white"/>
<path opacity="0.2" d="M18.4037 20.7106C18.4906 20.7106 18.5611 20.6416 18.5611 20.5565C18.5611 20.4714 18.4906 20.4025 18.4037 20.4025C18.3168 20.4025 18.2464 20.4714 18.2464 20.5565C18.2464 20.6416 18.3168 20.7106 18.4037 20.7106Z" fill="white"/>
<g opacity="0.4">
<path opacity="0.6" d="M18.3128 20.6561C18.251 20.5956 18.251 20.4966 18.3128 20.436C18.324 20.425 18.3353 20.4195 18.3465 20.4085C18.324 20.414 18.3072 20.425 18.2903 20.4415C18.2285 20.502 18.2285 20.6011 18.2903 20.6616C18.3409 20.7111 18.4195 20.7221 18.4814 20.6891C18.4252 20.7111 18.3578 20.7001 18.3128 20.6561Z" fill="url(#paint10_linear_10800_20860)"/>
</g>
<path opacity="0.3" d="M18.4593 20.5116C18.4779 20.5116 18.493 20.4969 18.493 20.4788C18.493 20.4607 18.4779 20.4461 18.4593 20.4461C18.4407 20.4461 18.4256 20.4607 18.4256 20.4788C18.4256 20.4969 18.4407 20.5116 18.4593 20.5116Z" fill="white"/>
<path opacity="0.2" d="M17.9984 21.068C18.0636 21.068 18.1164 21.0163 18.1164 20.9525C18.1164 20.8887 18.0636 20.837 17.9984 20.837C17.9332 20.837 17.8804 20.8887 17.8804 20.9525C17.8804 21.0163 17.9332 21.068 17.9984 21.068Z" fill="white"/>
<g opacity="0.4">
<path opacity="0.6" d="M17.9303 21.0248C17.8854 20.9808 17.8854 20.9038 17.9303 20.8598C17.936 20.8543 17.9472 20.8488 17.9528 20.8433C17.936 20.8488 17.9247 20.8598 17.9135 20.8708C17.8685 20.9148 17.8685 20.9918 17.9135 21.0358C17.9528 21.0743 18.009 21.0798 18.0596 21.0523C18.0146 21.0688 17.964 21.0578 17.9303 21.0248Z" fill="url(#paint11_linear_10800_20860)"/>
</g>
<path opacity="0.3" d="M18.0373 20.9135C18.0497 20.9135 18.0598 20.9037 18.0598 20.8916C18.0598 20.8796 18.0497 20.8698 18.0373 20.8698C18.0249 20.8698 18.0148 20.8796 18.0148 20.8916C18.0148 20.9037 18.0249 20.9135 18.0373 20.9135Z" fill="white"/>
<path opacity="0.2" d="M18.7227 20.9854C18.7879 20.9854 18.8407 20.9337 18.8407 20.8699C18.8407 20.806 18.7879 20.7543 18.7227 20.7543C18.6576 20.7543 18.6047 20.806 18.6047 20.8699C18.6047 20.9337 18.6576 20.9854 18.7227 20.9854Z" fill="white"/>
<g opacity="0.4">
<path opacity="0.6" d="M18.6565 20.9425C18.6115 20.8985 18.6115 20.8215 18.6565 20.7775C18.6621 20.772 18.6733 20.7665 18.679 20.761C18.6621 20.7665 18.6508 20.7775 18.6396 20.7885C18.5947 20.8325 18.5947 20.9095 18.6396 20.9536C18.679 20.9921 18.7352 20.9976 18.7857 20.9701C18.7408 20.9866 18.6902 20.9756 18.6565 20.9425Z" fill="url(#paint12_linear_10800_20860)"/>
</g>
<path opacity="0.3" d="M18.762 20.8312C18.7744 20.8312 18.7845 20.8214 18.7845 20.8093C18.7845 20.7972 18.7744 20.7874 18.762 20.7874C18.7496 20.7874 18.7395 20.7972 18.7395 20.8093C18.7395 20.8214 18.7496 20.8312 18.762 20.8312Z" fill="white"/>
<path opacity="0.2" d="M16.913 20.7325C17.0557 20.7325 17.1715 20.6192 17.1715 20.4794C17.1715 20.3396 17.0557 20.2263 16.913 20.2263C16.7702 20.2263 16.6545 20.3396 16.6545 20.4794C16.6545 20.6192 16.7702 20.7325 16.913 20.7325Z" fill="white"/>
<g opacity="0.4">
<path opacity="0.6" d="M16.7672 20.6386C16.6661 20.5396 16.6661 20.3801 16.7672 20.2811C16.7841 20.2646 16.801 20.2536 16.8234 20.2425C16.7897 20.2536 16.7616 20.2755 16.7335 20.2976C16.6324 20.3966 16.6324 20.5561 16.7335 20.6551C16.8178 20.7377 16.9471 20.7542 17.0482 20.6936C16.9527 20.7321 16.8403 20.7156 16.7672 20.6386Z" fill="url(#paint13_linear_10800_20860)"/>
</g>
<path opacity="0.3" d="M17.0024 20.4022C17.0335 20.4022 17.0586 20.3776 17.0586 20.3472C17.0586 20.3168 17.0335 20.2922 17.0024 20.2922C16.9714 20.2922 16.9462 20.3168 16.9462 20.3472C16.9462 20.3776 16.9714 20.4022 17.0024 20.4022Z" fill="white"/>
<path opacity="0.2" d="M19.2241 20.1107C19.3669 20.1107 19.4826 19.9974 19.4826 19.8577C19.4826 19.7179 19.3669 19.6046 19.2241 19.6046C19.0813 19.6046 18.9656 19.7179 18.9656 19.8577C18.9656 19.9974 19.0813 20.1107 19.2241 20.1107Z" fill="white"/>
<g opacity="0.4">
<path opacity="0.6" d="M19.0714 20.0174C18.9703 19.9183 18.9703 19.7588 19.0714 19.6598C19.0883 19.6433 19.1051 19.6323 19.1276 19.6212C19.0939 19.6323 19.0658 19.6543 19.0377 19.6763C18.9366 19.7753 18.9366 19.9348 19.0377 20.0339C19.122 20.1164 19.2512 20.1329 19.3524 20.0724C19.2569 20.1109 19.1501 20.0944 19.0714 20.0174Z" fill="url(#paint14_linear_10800_20860)"/>
</g>
<path opacity="0.3" d="M19.3141 19.7808C19.3452 19.7808 19.3703 19.7561 19.3703 19.7257C19.3703 19.6953 19.3452 19.6707 19.3141 19.6707C19.2831 19.6707 19.2579 19.6953 19.2579 19.7257C19.2579 19.7561 19.2831 19.7808 19.3141 19.7808Z" fill="white"/>
<defs>
<radialGradient id="paint0_radial_10800_20860" cx="0" cy="0" r="1" gradientUnits="userSpaceOnUse" gradientTransform="translate(21.2682 15.3247) scale(2.51229 2.45873)">
<stop stop-color="#FFEAFF" stop-opacity="0.6"/>
<stop offset="0.6807" stop-color="#A087C9"/>
<stop offset="1" stop-color="#10002F"/>
</radialGradient>
<radialGradient id="paint1_radial_10800_20860" cx="0" cy="0" r="1" gradientUnits="userSpaceOnUse" gradientTransform="translate(20.6104 17.9471) scale(7.03602 7.32358)">
<stop stop-color="#FFEAFF" stop-opacity="0.6"/>
<stop offset="0.6807" stop-color="#A087C9"/>
<stop offset="1" stop-color="#10002F"/>
</radialGradient>
<linearGradient id="paint2_linear_10800_20860" x1="17.286" y1="21.5247" x2="18.2496" y2="15.45" gradientUnits="userSpaceOnUse">
<stop stop-color="#81FFFF"/>
<stop offset="0.6202" stop-color="white" stop-opacity="0"/>
</linearGradient>
<linearGradient id="paint3_linear_10800_20860" x1="20.0045" y1="16.405" x2="17.4575" y2="18.7928" gradientUnits="userSpaceOnUse">
<stop offset="0.2888" stop-color="white"/>
<stop offset="0.7796" stop-color="white" stop-opacity="0"/>
</linearGradient>
<linearGradient id="paint4_linear_10800_20860" x1="14.8017" y1="19.9243" x2="20.7729" y2="19.9243" gradientUnits="userSpaceOnUse">
<stop stop-color="#0002E9"/>
<stop offset="0.9952" stop-color="#FF00C7"/>
</linearGradient>
<linearGradient id="paint5_linear_10800_20860" x1="21.0559" y1="18.7221" x2="17.872" y2="21.7967" gradientUnits="userSpaceOnUse">
<stop offset="0.2888" stop-color="white"/>
<stop offset="0.7796" stop-color="white" stop-opacity="0"/>
</linearGradient>
<linearGradient id="paint6_linear_10800_20860" x1="14.8029" y1="19.9246" x2="17.9974" y2="19.9246" gradientUnits="userSpaceOnUse">
<stop stop-color="#000292"/>
<stop offset="0.9952" stop-color="#7D00C7"/>
</linearGradient>
<linearGradient id="paint7_linear_10800_20860" x1="14.8057" y1="18.7361" x2="20.7689" y2="18.7361" gradientUnits="userSpaceOnUse">
<stop stop-color="#000292"/>
<stop offset="0.9952" stop-color="#BE00C7"/>
</linearGradient>
<linearGradient id="paint8_linear_10800_20860" x1="20.6705" y1="15.6061" x2="20.2551" y2="16.2956" gradientUnits="userSpaceOnUse">
<stop offset="0.2888" stop-color="white"/>
<stop offset="0.7796" stop-color="white" stop-opacity="0"/>
</linearGradient>
<linearGradient id="paint9_linear_10800_20860" x1="17.4244" y1="20.6393" x2="17.6621" y2="20.6393" gradientUnits="userSpaceOnUse">
<stop offset="0.2888" stop-color="white"/>
<stop offset="0.7796" stop-color="white" stop-opacity="0"/>
</linearGradient>
<linearGradient id="paint10_linear_10800_20860" x1="18.2432" y1="20.5607" x2="18.481" y2="20.5607" gradientUnits="userSpaceOnUse">
<stop offset="0.2888" stop-color="white"/>
<stop offset="0.7796" stop-color="white" stop-opacity="0"/>
</linearGradient>
<linearGradient id="paint11_linear_10800_20860" x1="17.8766" y1="20.9544" x2="18.0551" y2="20.9544" gradientUnits="userSpaceOnUse">
<stop offset="0.2888" stop-color="white"/>
<stop offset="0.7796" stop-color="white" stop-opacity="0"/>
</linearGradient>
<linearGradient id="paint12_linear_10800_20860" x1="18.6027" y1="20.8721" x2="18.7812" y2="20.8721" gradientUnits="userSpaceOnUse">
<stop offset="0.2888" stop-color="white"/>
<stop offset="0.7796" stop-color="white" stop-opacity="0"/>
</linearGradient>
<linearGradient id="paint13_linear_10800_20860" x1="16.6551" y1="20.4856" x2="17.0433" y2="20.4856" gradientUnits="userSpaceOnUse">
<stop offset="0.2888" stop-color="white"/>
<stop offset="0.7796" stop-color="white" stop-opacity="0"/>
</linearGradient>
<linearGradient id="paint14_linear_10800_20860" x1="18.9614" y1="19.8641" x2="19.3497" y2="19.8641" gradientUnits="userSpaceOnUse">
<stop offset="0.2888" stop-color="white"/>
<stop offset="0.7796" stop-color="white" stop-opacity="0"/>
</linearGradient>
</defs>
</svg>
