<svg width="24" height="25" viewBox="0 0 24 25" fill="none" xmlns="http://www.w3.org/2000/svg">
<path d="M11 22.7988C17.0751 22.7988 22 17.874 22 11.7988C22 5.7237 17.0751 0.798828 11 0.798828C4.92487 0.798828 0 5.7237 0 11.7988C0 17.874 4.92487 22.7988 11 22.7988Z" fill="#3E73C4"/>
<path d="M13.7653 13.2591C13.7653 11.7988 12.8853 11.2983 11.1253 11.0893C9.8686 10.9222 9.61766 10.5888 9.61766 10.0044C9.61766 9.42005 10.037 9.04193 10.8744 9.04193C11.1721 8.99461 11.4768 9.05755 11.7313 9.21894C11.9859 9.38033 12.1728 9.62908 12.257 9.91849C12.2791 9.97867 12.319 10.0307 12.3715 10.0675C12.424 10.1044 12.4864 10.1243 12.5505 10.1247H13.2208C13.2596 10.1258 13.2981 10.1189 13.3341 10.1046C13.3701 10.0903 13.4028 10.0689 13.4302 10.0415C13.4577 10.0142 13.4793 9.98162 13.4938 9.94569C13.5082 9.90976 13.5153 9.87127 13.5144 9.83255V9.7913C13.4313 9.33931 13.2015 8.92732 12.8606 8.6191C12.5197 8.31088 12.0867 8.12362 11.6286 8.0863V7.08393C11.6286 6.91687 11.5028 6.79174 11.2938 6.7498H10.6647C10.4977 6.7498 10.3718 6.87493 10.3299 7.08393V8.04643C9.79302 8.06575 9.28324 8.28713 8.9026 8.66625C8.52195 9.04536 8.29852 9.55425 8.27703 10.0911C8.27703 11.4661 9.11441 12.0099 10.8744 12.2223C12.048 12.4286 12.4247 12.6816 12.4247 13.3491C12.4247 14.0167 11.8383 14.4752 11.0422 14.4752C9.95247 14.4752 9.57572 14.0167 9.44991 13.3904C9.43714 13.3213 9.401 13.2587 9.34754 13.2131C9.29408 13.1676 9.22657 13.1418 9.15635 13.1401H8.4441C8.40544 13.1392 8.36699 13.1461 8.33108 13.1604C8.29517 13.1748 8.26254 13.1962 8.23516 13.2236C8.20778 13.2509 8.18623 13.2835 8.1718 13.3193C8.15738 13.3552 8.15037 13.3936 8.15122 13.4323V13.4736C8.22889 14.0144 8.49354 14.5109 8.8992 14.8769C9.30487 15.2428 9.82592 15.4552 10.3718 15.4769V16.4738C10.3718 16.6402 10.4977 16.766 10.7067 16.8072H11.3357C11.5028 16.8072 11.6286 16.6821 11.6705 16.4738V15.4701C12.2303 15.4227 12.7531 15.1712 13.1393 14.7634C13.5256 14.3555 13.7484 13.8198 13.7653 13.2584V13.2591Z" fill="white"/>
<path d="M8.86347 17.6426C7.65889 17.2061 6.61799 16.4092 5.88235 15.3602C5.14672 14.3112 4.75206 13.0611 4.75206 11.7799C4.75206 10.4987 5.14672 9.24856 5.88235 8.19959C6.61799 7.15061 7.65889 6.3537 8.86347 5.91724C8.94365 5.88262 9.01098 5.82375 9.05598 5.7489C9.10099 5.67405 9.12142 5.58698 9.11441 5.49993V4.91555C9.12004 4.83901 9.09771 4.76303 9.05156 4.70171C9.00541 4.64038 8.93858 4.59789 8.86347 4.58212C8.80446 4.57599 8.74516 4.59058 8.69572 4.62337C7.17208 5.10149 5.8408 6.05342 4.89566 7.3406C3.95052 8.62777 3.44086 10.183 3.44086 11.7799C3.44086 13.3768 3.95052 14.932 4.89566 16.2192C5.8408 17.5064 7.17208 18.4583 8.69572 18.9364C8.73049 18.9567 8.76955 18.9683 8.80972 18.9706C8.84988 18.9728 8.88999 18.9654 8.92675 18.9491C8.96352 18.9328 8.9959 18.908 9.02123 18.8768C9.04656 18.8455 9.06412 18.8087 9.07247 18.7694C9.11441 18.7281 9.11441 18.6855 9.11441 18.6023V18.0179C9.10123 17.9413 9.07209 17.8682 9.02885 17.8036C8.98562 17.7389 8.92928 17.684 8.86347 17.6426ZM13.3047 4.62405C13.2702 4.60325 13.2312 4.59095 13.191 4.58817C13.1508 4.58538 13.1105 4.59219 13.0734 4.60804C13.0364 4.62388 13.0036 4.64831 12.9778 4.6793C12.9521 4.7103 12.934 4.74697 12.9252 4.7863C12.8833 4.82824 12.8833 4.87018 12.8833 4.95337V5.54255C12.8903 5.62671 12.9165 5.70813 12.9601 5.78049C13.0036 5.85286 13.0632 5.91424 13.1342 5.95987C14.3388 6.39632 15.3797 7.19324 16.1153 8.24221C16.851 9.29119 17.2456 10.5413 17.2456 11.8225C17.2456 13.1037 16.851 14.3539 16.1153 15.4028C15.3797 16.4518 14.3388 17.2487 13.1342 17.6852C13.054 17.7198 12.9867 17.7787 12.9417 17.8535C12.8967 17.9284 12.8763 18.0154 12.8833 18.1025V18.6869C12.8777 18.7634 12.9 18.8394 12.9461 18.9007C12.9923 18.962 13.0591 19.0045 13.1342 19.0203C13.1932 19.0264 13.2525 19.0118 13.302 18.9791C14.2449 18.6846 15.1203 18.2065 15.8777 17.5723C16.6352 16.9381 17.2597 16.1604 17.7153 15.2839C18.1709 14.4073 18.4486 13.4493 18.5325 12.465C18.6163 11.4807 18.5046 10.4896 18.2038 9.54862C17.8385 8.39652 17.203 7.34849 16.3503 6.49195C15.4976 5.63541 14.4524 4.9952 13.302 4.62474L13.3047 4.62405Z" fill="white"/>
<path d="M23.5674 14.9202C23.443 14.4497 23.0432 13.9793 22.3236 13.4556C21.7461 13.0385 21.1331 12.7988 20.6445 12.7988C20.5468 12.7988 20.4579 12.8077 20.3691 12.8255C20.147 12.8698 19.9515 13.0296 19.8272 13.2692C19.6761 13.5533 19.6406 13.9349 19.7383 14.1657C19.7738 14.2367 19.8183 14.3255 19.8716 14.4054C19.4007 14.6894 19.1342 14.7693 19.0986 14.7781C20.3247 15.1864 21.3464 16.0385 21.986 17.148L21.9949 17.0415C22.0216 16.7486 22.1104 16.4113 22.2348 16.0652C22.3591 16.1007 22.4835 16.1184 22.6079 16.1184C22.9366 16.1184 23.2209 15.9853 23.3986 15.7456C23.5763 15.506 23.6473 15.1864 23.5674 14.9202Z" fill="#5E12A0"/>
<path d="M22.2884 15.8082C23.0969 16.0301 23.4256 15.4088 23.319 14.9916C23.2035 14.5745 22.8304 14.1484 22.1729 13.6691C21.5155 13.1898 20.8492 12.9945 20.4227 13.0833C19.9963 13.1721 19.8719 13.82 19.9785 14.0685C20.023 14.1662 20.1207 14.3082 20.254 14.4679C20.0852 14.5833 19.9252 14.6721 19.792 14.752C20.6093 15.1159 21.3201 15.6839 21.8531 16.394C21.9153 16.1544 22.0041 15.9413 22.0841 15.7549C22.1463 15.7638 22.2174 15.7816 22.2884 15.8082Z" fill="url(#paint0_radial_6275_3177)"/>
<path d="M17.6596 24.5062C20.4024 24.5062 22.6258 22.2848 22.6258 19.5446C22.6258 16.8044 20.4024 14.583 17.6596 14.583C14.9168 14.583 12.6934 16.8044 12.6934 19.5446C12.6934 22.2848 14.9168 24.5062 17.6596 24.5062Z" fill="url(#paint1_radial_6275_3177)"/>
<path opacity="0.6" d="M22.911 14.5831C22.2358 13.873 21.6672 13.6866 20.9832 13.5357C20.4501 13.4114 20.5922 13.1097 21.2408 13.1718C20.9299 13.0653 20.6367 13.0387 20.4234 13.083C19.997 13.1718 19.8726 13.8197 19.9792 14.0683C20.0236 14.1659 20.1214 14.3079 20.2547 14.4677C20.0148 14.6274 19.8104 14.7428 19.6416 14.8316C19.7216 14.8671 19.8193 14.9115 19.9348 14.9736C20.2369 15.1334 20.5656 15.3996 20.5656 15.3996C20.0681 14.9736 20.1747 14.7783 20.8588 14.299C21.072 14.1481 21.4629 14.1659 21.8271 14.3523C22.1914 14.5387 22.6178 15.0091 22.6178 15.0091L22.2092 15.7902C22.2358 15.7991 22.2625 15.8079 22.2891 15.8168C22.5467 15.8878 22.7511 15.8701 22.911 15.8079C23.0976 15.6925 23.5862 15.302 22.911 14.5831Z" fill="#A98698"/>
<path d="M20.9738 13.9615C21.1514 14.0326 21.3824 14.1568 21.6668 14.3432C22.0043 14.5651 22.2975 14.8136 22.4841 15.0089C22.1731 15.4172 21.9688 15.9764 21.8444 16.3669C21.9066 16.4557 21.9777 16.5444 22.0399 16.6332C22.1021 16.4113 22.2087 16.0829 22.3508 15.7545C22.3863 15.7634 22.4308 15.7634 22.4752 15.7634C22.5818 15.7634 22.7062 15.7456 22.8039 15.6657C22.875 15.6125 22.955 15.5148 22.9461 15.3373C22.9461 15.1687 22.8128 14.9556 22.5374 14.6982C22.342 14.5119 22.0754 14.3077 21.8089 14.1213C21.0449 13.6154 20.5118 13.4734 20.2719 13.713C20.112 13.8728 20.1298 14.0681 20.1831 14.2101C19.8988 14.3965 19.6589 14.5296 19.499 14.6184C19.6056 14.6539 19.7034 14.6982 19.8099 14.7426C20.0942 14.5917 20.5029 14.3343 20.9738 13.9615ZM22.6529 15.2308C22.6795 15.2752 22.6884 15.3196 22.6884 15.3462C22.6884 15.4261 22.6618 15.4527 22.644 15.4704C22.6085 15.4971 22.5374 15.5148 22.4752 15.5148C22.5285 15.4083 22.5907 15.3196 22.6529 15.2308ZM20.4585 13.9083C20.4851 13.8817 20.5562 13.8639 20.6717 13.8817C20.5829 13.9527 20.494 14.0148 20.4052 14.0769C20.3963 14.0148 20.4052 13.9527 20.4585 13.9083Z" fill="#5E12A0"/>
<path d="M17.6598 14.29C14.7547 14.29 12.4004 16.6421 12.4004 19.5446C12.4004 22.447 14.7547 24.7991 17.6598 24.7991C20.5649 24.7991 22.9192 22.447 22.9192 19.5446C22.9192 16.6421 20.556 14.29 17.6598 14.29ZM17.6598 24.5062C14.9146 24.5062 12.6936 22.2872 12.6936 19.5446C12.6936 16.8019 14.9146 14.5829 17.6598 14.5829C20.405 14.5829 22.6261 16.8019 22.6261 19.5446C22.6261 22.2872 20.3962 24.5062 17.6598 24.5062Z" fill="#5E12A0"/>
<path opacity="0.6" d="M17.6596 24.5062C20.4024 24.5062 22.6258 22.2848 22.6258 19.5446C22.6258 16.8044 20.4024 14.583 17.6596 14.583C14.9168 14.583 12.6934 16.8044 12.6934 19.5446C12.6934 22.2848 14.9168 24.5062 17.6596 24.5062Z" fill="url(#paint2_linear_6275_3177)"/>
<path opacity="0.6" d="M17.6237 23.9019C14.914 23.467 13.075 20.9196 13.5192 18.2125C13.7147 17.0143 14.3188 15.9935 15.1717 15.2568C13.9279 15.9758 13.004 17.2273 12.7552 18.7539C12.3199 21.4611 14.1589 24.0085 16.8597 24.4434C18.37 24.6919 19.827 24.2215 20.902 23.2984C19.9514 23.8487 18.7965 24.0884 17.6237 23.9019Z" fill="#A98698"/>
<path opacity="0.6" d="M18.4509 14.6543C17.1982 14.4501 15.9811 14.7341 14.986 15.3643C14.9683 15.3821 14.9505 15.3998 14.9505 15.3998C15.3325 15.1691 15.8922 14.9649 15.8922 14.9649C14.453 15.7992 14.0088 16.749 14.0088 16.749C14.5685 15.6661 16.2121 14.9028 17.5003 14.8495C18.7885 14.7963 19.6324 15.1779 20.663 16.0034C21.6936 16.8377 22.3155 18.5419 22.2533 19.891C22.2 21.2402 21.4892 22.3319 21.4892 22.3319C21.9779 21.7017 22.271 21.2402 22.4576 20.7697C22.4932 20.6277 22.5287 20.4857 22.5465 20.3348C22.9907 17.6365 21.1605 15.0892 18.4509 14.6543Z" fill="url(#paint3_linear_6275_3177)"/>
<path d="M22.3765 19.5C22.3765 22.1006 20.262 24.2131 17.659 24.2131C15.0559 24.2131 12.9326 22.1006 12.9326 19.5H22.3765Z" fill="url(#paint4_linear_6275_3177)"/>
<g opacity="0.6">
<path opacity="0.6" d="M22.0036 19.5C22.0036 22.0385 19.9958 24.1154 17.4727 24.2131C17.5348 24.2131 17.597 24.2131 17.6592 24.2131C20.2623 24.2131 22.3767 22.1006 22.3767 19.5H22.0036Z" fill="url(#paint5_linear_6275_3177)"/>
</g>
<g opacity="0.7">
<path opacity="0.7" d="M13.6009 19.5H12.9346C12.9346 22.1006 15.049 24.2131 17.6521 24.2131C17.7675 24.2131 17.8742 24.2131 17.9808 24.2042C15.5376 24.0267 13.6009 21.9852 13.6009 19.5Z" fill="url(#paint6_linear_6275_3177)"/>
</g>
<path d="M22.3676 19.545C22.3676 19.0036 21.4259 18.6929 20.1732 18.5864C19.267 18.5154 18.352 18.6041 17.3036 18.9237C16.3974 19.19 15.5801 19.1456 14.9849 19.0746C13.6611 18.9237 12.9326 18.9059 12.9326 19.545C12.9326 20.4681 14.8161 21.622 17.6412 21.2225C19.0716 21.0184 19.809 20.6013 20.6529 20.3172C21.568 20.0154 22.3676 20.0243 22.3676 19.545Z" fill="url(#paint7_linear_6275_3177)"/>
<path d="M19.2066 17.3086C19.648 17.3086 20.0059 16.9509 20.0059 16.5098C20.0059 16.0686 19.648 15.7109 19.2066 15.7109C18.7651 15.7109 18.4072 16.0686 18.4072 16.5098C18.4072 16.9509 18.7651 17.3086 19.2066 17.3086Z" fill="white"/>
<path d="M20.5113 17.9031C20.6977 17.9031 20.8488 17.7521 20.8488 17.5658C20.8488 17.3795 20.6977 17.2285 20.5113 17.2285C20.3249 17.2285 20.1738 17.3795 20.1738 17.5658C20.1738 17.7521 20.3249 17.9031 20.5113 17.9031Z" fill="white"/>
<g opacity="0.6">
<path opacity="0.6" d="M21.7182 15.8699C21.7093 15.8699 21.7005 15.8699 21.7005 15.8699C21.6471 15.861 21.6116 15.8077 21.6205 15.7456C21.7005 15.3373 22.0379 14.9468 22.0557 14.929C22.0912 14.8846 22.1623 14.8846 22.1978 14.9201C22.2422 14.9556 22.2422 15.0267 22.2067 15.0622C22.1978 15.071 21.8869 15.4349 21.8159 15.79C21.807 15.8432 21.7626 15.8699 21.7182 15.8699Z" fill="url(#paint8_linear_6275_3177)"/>
</g>
<path opacity="0.2" d="M17.3327 23.2461C17.47 23.2461 17.5814 23.1348 17.5814 22.9975C17.5814 22.8603 17.47 22.749 17.3327 22.749C17.1953 22.749 17.084 22.8603 17.084 22.9975C17.084 23.1348 17.1953 23.2461 17.3327 23.2461Z" fill="white"/>
<g opacity="0.4">
<path opacity="0.6" d="M17.1908 23.1592C17.0931 23.0615 17.0931 22.9018 17.1908 22.8042C17.2086 22.7864 17.2264 22.7775 17.2441 22.7598C17.2086 22.7687 17.1819 22.7864 17.1553 22.813C17.0576 22.9107 17.0576 23.0705 17.1553 23.1681C17.2352 23.2479 17.3596 23.2657 17.4573 23.2125C17.3685 23.2479 17.2619 23.2302 17.1908 23.1592Z" fill="url(#paint9_linear_6275_3177)"/>
</g>
<path opacity="0.3" d="M17.4205 22.9252C17.4499 22.9252 17.4738 22.9015 17.4738 22.8723C17.4738 22.843 17.4499 22.8193 17.4205 22.8193C17.391 22.8193 17.3672 22.843 17.3672 22.8723C17.3672 22.9015 17.391 22.9252 17.4205 22.9252Z" fill="white"/>
<path opacity="0.2" d="M18.6295 23.1221C18.7669 23.1221 18.8782 23.0108 18.8782 22.8735C18.8782 22.7363 18.7669 22.625 18.6295 22.625C18.4922 22.625 18.3809 22.7363 18.3809 22.8735C18.3809 23.0108 18.4922 23.1221 18.6295 23.1221Z" fill="white"/>
<g opacity="0.4">
<path opacity="0.6" d="M18.4857 23.0342C18.388 22.9365 18.388 22.7768 18.4857 22.6791C18.5035 22.6614 18.5213 22.6525 18.539 22.6348C18.5035 22.6436 18.4768 22.6614 18.4502 22.688C18.3525 22.7856 18.3525 22.9454 18.4502 23.0431C18.5302 23.1229 18.6545 23.1407 18.7522 23.0874C18.6634 23.1229 18.5568 23.1052 18.4857 23.0342Z" fill="url(#paint10_linear_6275_3177)"/>
</g>
<path opacity="0.3" d="M18.7173 22.8011C18.7468 22.8011 18.7706 22.7774 18.7706 22.7482C18.7706 22.719 18.7468 22.6953 18.7173 22.6953C18.6879 22.6953 18.6641 22.719 18.6641 22.7482C18.6641 22.7774 18.6879 22.8011 18.7173 22.8011Z" fill="white"/>
<path opacity="0.2" d="M17.9892 23.6989C18.0923 23.6989 18.1758 23.6155 18.1758 23.5126C18.1758 23.4096 18.0923 23.3262 17.9892 23.3262C17.8862 23.3262 17.8027 23.4096 17.8027 23.5126C17.8027 23.6155 17.8862 23.6989 17.9892 23.6989Z" fill="white"/>
<g opacity="0.4">
<path opacity="0.6" d="M17.8817 23.6289C17.8106 23.5578 17.8106 23.4336 17.8817 23.3626C17.8906 23.3537 17.9083 23.3449 17.9172 23.3359C17.8906 23.3449 17.8728 23.3626 17.855 23.3803C17.784 23.4513 17.784 23.5756 17.855 23.6466C17.9172 23.7087 18.006 23.7176 18.086 23.6733C18.0149 23.6999 17.935 23.6821 17.8817 23.6289Z" fill="url(#paint11_linear_6275_3177)"/>
</g>
<path opacity="0.3" d="M18.0502 23.4495C18.0698 23.4495 18.0857 23.4337 18.0857 23.4142C18.0857 23.3947 18.0698 23.3789 18.0502 23.3789C18.0306 23.3789 18.0146 23.3947 18.0146 23.4142C18.0146 23.4337 18.0306 23.4495 18.0502 23.4495Z" fill="white"/>
<path opacity="0.2" d="M19.1337 23.5651C19.2367 23.5651 19.3203 23.4817 19.3203 23.3788C19.3203 23.2758 19.2367 23.1924 19.1337 23.1924C19.0308 23.1924 18.9473 23.2758 18.9473 23.3788C18.9473 23.4817 19.0308 23.5651 19.1337 23.5651Z" fill="white"/>
<g opacity="0.4">
<path opacity="0.6" d="M19.0292 23.496C18.9581 23.425 18.9581 23.3008 19.0292 23.2298C19.0381 23.2209 19.0558 23.212 19.0647 23.2031C19.0381 23.212 19.0203 23.2298 19.0025 23.2475C18.9314 23.3185 18.9314 23.4428 19.0025 23.5138C19.0647 23.5759 19.1535 23.5848 19.2334 23.5404C19.1624 23.5671 19.0824 23.5493 19.0292 23.496Z" fill="url(#paint12_linear_6275_3177)"/>
</g>
<path opacity="0.3" d="M19.1957 23.3167C19.2154 23.3167 19.2312 23.3009 19.2312 23.2814C19.2312 23.2619 19.2154 23.2461 19.1957 23.2461C19.1761 23.2461 19.1602 23.2619 19.1602 23.2814C19.1602 23.3009 19.1761 23.3167 19.1957 23.3167Z" fill="white"/>
<path opacity="0.2" d="M16.2738 23.1574C16.4994 23.1574 16.6823 22.9746 16.6823 22.7491C16.6823 22.5236 16.4994 22.3408 16.2738 22.3408C16.0481 22.3408 15.8652 22.5236 15.8652 22.7491C15.8652 22.9746 16.0481 23.1574 16.2738 23.1574Z" fill="white"/>
<g opacity="0.4">
<path opacity="0.6" d="M16.0433 23.0063C15.8834 22.8465 15.8834 22.5891 16.0433 22.4294C16.07 22.4027 16.0966 22.385 16.1321 22.3672C16.0788 22.385 16.0344 22.4204 15.99 22.456C15.8301 22.6157 15.8301 22.8731 15.99 23.0329C16.1232 23.1661 16.3275 23.1927 16.4874 23.095C16.3364 23.1571 16.1588 23.1305 16.0433 23.0063Z" fill="url(#paint13_linear_6275_3177)"/>
</g>
<path opacity="0.3" d="M16.415 22.6248C16.464 22.6248 16.5038 22.585 16.5038 22.536C16.5038 22.487 16.464 22.4473 16.415 22.4473C16.3659 22.4473 16.3262 22.487 16.3262 22.536C16.3262 22.585 16.3659 22.6248 16.415 22.6248Z" fill="white"/>
<path opacity="0.2" d="M19.9261 22.1545C20.1518 22.1545 20.3347 21.9717 20.3347 21.7462C20.3347 21.5207 20.1518 21.3379 19.9261 21.3379C19.7005 21.3379 19.5176 21.5207 19.5176 21.7462C19.5176 21.9717 19.7005 22.1545 19.9261 22.1545Z" fill="white"/>
<g opacity="0.4">
<path opacity="0.6" d="M19.6849 22.0034C19.525 21.8436 19.525 21.5862 19.6849 21.4264C19.7116 21.3998 19.7382 21.382 19.7737 21.3643C19.7204 21.382 19.676 21.4175 19.6316 21.4531C19.4717 21.6128 19.4717 21.8702 19.6316 22.03C19.7648 22.1631 19.9691 22.1898 20.129 22.0921C19.978 22.1543 19.8092 22.1276 19.6849 22.0034Z" fill="url(#paint14_linear_6275_3177)"/>
</g>
<path opacity="0.3" d="M20.0683 21.6219C20.1174 21.6219 20.1571 21.5821 20.1571 21.5331C20.1571 21.4841 20.1174 21.4443 20.0683 21.4443C20.0193 21.4443 19.9795 21.4841 19.9795 21.5331C19.9795 21.5821 20.0193 21.6219 20.0683 21.6219Z" fill="white"/>
<defs>
<radialGradient id="paint0_radial_6275_3177" cx="0" cy="0" r="1" gradientUnits="userSpaceOnUse" gradientTransform="translate(23.1569 14.4324) scale(3.97072 3.96702)">
<stop stop-color="#FFEAFF" stop-opacity="0.6"/>
<stop offset="0.6807" stop-color="#A087C9"/>
<stop offset="1" stop-color="#10002F"/>
</radialGradient>
<radialGradient id="paint1_radial_6275_3177" cx="0" cy="0" r="1" gradientUnits="userSpaceOnUse" gradientTransform="translate(22.1174 18.6635) scale(11.1205 11.8162)">
<stop stop-color="#FFEAFF" stop-opacity="0.6"/>
<stop offset="0.6807" stop-color="#A087C9"/>
<stop offset="1" stop-color="#10002F"/>
</radialGradient>
<linearGradient id="paint2_linear_6275_3177" x1="16.863" y1="24.4359" x2="18.4486" y2="14.6447" gradientUnits="userSpaceOnUse">
<stop stop-color="#81FFFF"/>
<stop offset="0.6202" stop-color="white" stop-opacity="0"/>
</linearGradient>
<linearGradient id="paint3_linear_6275_3177" x1="21.1601" y1="16.1753" x2="17.057" y2="19.9435" gradientUnits="userSpaceOnUse">
<stop offset="0.2888" stop-color="white"/>
<stop offset="0.7796" stop-color="white" stop-opacity="0"/>
</linearGradient>
<linearGradient id="paint4_linear_6275_3177" x1="12.9366" y1="21.8537" x2="22.3742" y2="21.8537" gradientUnits="userSpaceOnUse">
<stop stop-color="#0002E9"/>
<stop offset="0.9952" stop-color="#FF00C7"/>
</linearGradient>
<linearGradient id="paint5_linear_6275_3177" x1="22.8212" y1="19.9135" x2="17.6889" y2="24.7684" gradientUnits="userSpaceOnUse">
<stop offset="0.2888" stop-color="white"/>
<stop offset="0.7796" stop-color="white" stop-opacity="0"/>
</linearGradient>
<linearGradient id="paint6_linear_6275_3177" x1="12.9386" y1="21.8537" x2="17.9876" y2="21.8537" gradientUnits="userSpaceOnUse">
<stop stop-color="#000292"/>
<stop offset="0.9952" stop-color="#7D00C7"/>
</linearGradient>
<linearGradient id="paint7_linear_6275_3177" x1="12.943" y1="19.9366" x2="22.3679" y2="19.9366" gradientUnits="userSpaceOnUse">
<stop stop-color="#000292"/>
<stop offset="0.9952" stop-color="#BE00C7"/>
</linearGradient>
<linearGradient id="paint8_linear_6275_3177" x1="22.2123" y1="14.8858" x2="21.5356" y2="15.9859" gradientUnits="userSpaceOnUse">
<stop offset="0.2888" stop-color="white"/>
<stop offset="0.7796" stop-color="white" stop-opacity="0"/>
</linearGradient>
<linearGradient id="paint9_linear_6275_3177" x1="17.0818" y1="23.007" x2="17.4575" y2="23.007" gradientUnits="userSpaceOnUse">
<stop offset="0.2888" stop-color="white"/>
<stop offset="0.7796" stop-color="white" stop-opacity="0"/>
</linearGradient>
<linearGradient id="paint10_linear_6275_3177" x1="18.3758" y1="22.8803" x2="18.7515" y2="22.8803" gradientUnits="userSpaceOnUse">
<stop offset="0.2888" stop-color="white"/>
<stop offset="0.7796" stop-color="white" stop-opacity="0"/>
</linearGradient>
<linearGradient id="paint11_linear_6275_3177" x1="17.7968" y1="23.5153" x2="18.0789" y2="23.5153" gradientUnits="userSpaceOnUse">
<stop offset="0.2888" stop-color="white"/>
<stop offset="0.7796" stop-color="white" stop-opacity="0"/>
</linearGradient>
<linearGradient id="paint12_linear_6275_3177" x1="18.9442" y1="23.3824" x2="19.2263" y2="23.3824" gradientUnits="userSpaceOnUse">
<stop offset="0.2888" stop-color="white"/>
<stop offset="0.7796" stop-color="white" stop-opacity="0"/>
</linearGradient>
<linearGradient id="paint13_linear_6275_3177" x1="15.866" y1="22.7593" x2="16.4797" y2="22.7593" gradientUnits="userSpaceOnUse">
<stop offset="0.2888" stop-color="white"/>
<stop offset="0.7796" stop-color="white" stop-opacity="0"/>
</linearGradient>
<linearGradient id="paint14_linear_6275_3177" x1="19.5111" y1="21.756" x2="20.1247" y2="21.756" gradientUnits="userSpaceOnUse">
<stop offset="0.2888" stop-color="white"/>
<stop offset="0.7796" stop-color="white" stop-opacity="0"/>
</linearGradient>
</defs>
</svg>
