<svg xmlns="http://www.w3.org/2000/svg" width="23.25" height="23.25" viewBox="0 0 23.25 23.25">
    <path id="reddit"
          d="M-2.555-6.68A1.155,1.155,0,0,0-1.4-7.833,1.158,1.158,0,0,0-2.555-9,1.164,1.164,0,0,0-3.722-7.833,1.161,1.161,0,0,0-2.555-6.68ZM11.625-9A11.623,11.623,0,0,0,0-20.625,11.623,11.623,0,0,0-11.625-9,11.623,11.623,0,0,0,0,2.625,11.623,11.623,0,0,0,11.625-9Zm-6.2-1.931A1.547,1.547,0,0,1,6.122-8a2.993,2.993,0,0,1,.089.741C6.211-4.8,3.436-2.8.009-2.8s-6.187-2-6.187-4.462a3.381,3.381,0,0,1,.08-.727,1.548,1.548,0,0,1,.675-2.944,1.553,1.553,0,0,1,1.13.478A7.646,7.646,0,0,1-.286-11.709l.9-4.05a.277.277,0,0,1,.323-.206l2.869.637a1.173,1.173,0,0,1,1.036-.647A1.17,1.17,0,0,1,6-14.808a1.17,1.17,0,0,1-1.167,1.167,1.155,1.155,0,0,1-1.153-1.153l-2.6-.586-.816,3.67a7.578,7.578,0,0,1,4.036,1.247A1.569,1.569,0,0,1,5.423-10.931ZM2.194-5.484c-.853.853-3.567.839-4.387,0a.283.283,0,0,0-.389,0,.275.275,0,0,0,0,.4c1.069,1.069,4.092,1.069,5.166,0a.275.275,0,0,0,0-.4A.283.283,0,0,0,2.194-5.484ZM2.555-9A1.158,1.158,0,0,0,1.4-7.833,1.155,1.155,0,0,0,2.555-6.68,1.161,1.161,0,0,0,3.722-7.833,1.161,1.161,0,0,0,2.555-9Z"
          transform="translate(11.625 20.625)" fill="#7e92ae"/>
</svg>
