<svg xmlns="http://www.w3.org/2000/svg" width="1600" height="900" fill="none"><path fill="url(#a)" d="M.5.5h1599v899H.5z"/><path fill="#FF562E" d="M86.916 56a30.857 30.857 0 0 0-17.176 5.224 30.982 30.982 0 0 0-11.387 13.913 31.078 31.078 0 0 0-1.759 17.91 31.023 31.023 0 0 0 8.461 15.873 30.886 30.886 0 0 0 15.83 8.484 30.834 30.834 0 0 0 17.862-1.764 30.928 30.928 0 0 0 13.875-11.417A31.055 31.055 0 0 0 117.833 87a31.047 31.047 0 0 0-9.055-21.92A30.876 30.876 0 0 0 86.916 56Zm10.81 46.498H76.11a4.642 4.642 0 0 1-3.287-1.365 4.668 4.668 0 0 1-1.362-3.296V76.161c0-1.236.49-2.422 1.362-3.296a4.642 4.642 0 0 1 3.287-1.365h21.617c1.233 0 2.415.491 3.287 1.365a4.667 4.667 0 0 1 1.362 3.296v21.676c0 1.236-.49 2.422-1.362 3.296a4.643 4.643 0 0 1-3.287 1.365Z"/><path fill="#072D63" d="M136.885 106.765h7.203V89.977c0-6.399 3.728-10.516 9.103-10.516 4.992 0 8.025 3.61 8.025 9.376v17.928h7.203V88.14c0-9.312-5.243-15.267-13.899-15.267a14.497 14.497 0 0 0-11.245 4.815l-.758-3.991h-5.632v33.068Zm55.408.823c10.424 0 17.819-7.158 17.819-17.358 0-10.136-7.391-17.359-17.819-17.359-10.488 0-17.879 7.223-17.879 17.359 0 10.196 7.391 17.355 17.879 17.355v.003Zm-10.74-17.358a10.332 10.332 0 0 1 3.001-7.76 10.259 10.259 0 0 1 7.739-3.01 10.239 10.239 0 0 1 7.704 3.028 10.299 10.299 0 0 1 2.974 7.742 10.32 10.32 0 0 1-2.974 7.742 10.266 10.266 0 0 1-7.704 3.027 10.27 10.27 0 0 1-7.74-3.01 10.32 10.32 0 0 1-3-7.762v.003Zm35.251 16.535h7.203V59.882h-7.201l-.002 46.883Zm29.44.823a14.007 14.007 0 0 0 6.07-1.157 14.039 14.039 0 0 0 4.986-3.657l.821 3.991h5.617V73.693h-7.193V90.48c0 6.4-3.665 10.517-8.972 10.517-4.927 0-7.897-3.61-7.897-9.377V73.693h-7.203v18.625c0 9.312 5.117 15.267 13.773 15.267l-.002.003Zm38.982 0c8.402 0 13.773-3.8 13.773-9.755 0-5.321-4.232-8.87-12.51-10.452-6.318-1.266-8.277-2.409-8.277-4.75 0-2.471 2.274-3.928 6.129-3.928 4.232 0 6.759 1.711 7.013 4.75h7.076c-.442-6.715-5.617-10.578-14.089-10.578-8.34 0-13.204 3.548-13.204 9.693 0 5.386 3.916 8.615 12.382 10.01 5.811 1.014 8.403 2.596 8.403 5.13 0 2.471-2.464 3.928-6.634 3.928-4.738 0-7.581-2.028-7.707-5.386h-7.073c0 6.837 5.874 11.335 14.72 11.335l-.002.003Z"/><g opacity=".44"><path fill="#5E7699" d="m455.078 620.263-17.199 23.421 46.805 65.162 23.393-18.272-52.999-70.311ZM530.195 842.354l27.117-10.256-20.933-88.967-87.684-6.159L419 758.319l89.916.305 21.279 83.73ZM577.208 783.204l61.683 22.762L665 791.181l-76.965-34.61-10.827 26.633ZM551.147 599.662l-22.622 25.306-7.982 27.93 13.791 6.877 16.813-60.113ZM614.678 727.266l18.553-23.519 23.017-28.352-52.12 38.461 10.55 13.41Z"/><path fill="#C1CAD7" d="m665 791.181-76.965-34.61-30.723 75.527-20.933-88.966-87.684-6.16 59.381-46.399-52.999-70.31 79.257 39.512 16.813-60.113 25.557 69.917 79.543 5.816-52.12 38.461L665 791.181Z"/></g><g opacity=".44"><path fill="#8396B1" d="m1292 708.684 11.93 29.76 88.79-5.283-3.46-32.489-97.26 8.012ZM1548.48 769.229l2.83-31.255-95.99-32.762-57.28 77.95 2.65 40.167 53.08-83.473 94.71 29.373Z"/><path fill="#6989AF" d="m1516.99 690.756 57.64-44.016 1.43-32.971-77.75 51.265 18.68 25.722Z"/><path fill="#8396B1" d="m1329.04 607.221 10.51 35.899 21.59 23.829 14.57-8.797-46.67-50.931ZM1486.38 623.048l-11.23-31.067-13.15-38.064 5.56 71.076 18.82-1.945Z"/><path fill="#C1CAD7" d="m1576.06 613.77-77.75 51.265 53 72.939-95.99-32.762-57.28 77.95-8.78-82.489-97.26 8.012 83.71-50.533-46.67-50.93 80.78 17.28 52.18-70.585 5.56 71.076 108.5-11.223Z"/></g><g opacity=".14"><path fill="#6989AF" d="m527.45 37.79-8.95 4.654 4.52 27.367 10.07-2.118-5.64-29.903ZM516.61 118.212l10 .935 7.19-30.819-26.29-15.255L495 75.182l27.88 13.783-6.27 29.247ZM540.32 106.984l15.66 16.459 10.38-.617-18.58-22.465-7.46 6.623ZM560.46 46.003l-10.92 4.426-6.78 7.458 3.23 4.237 14.47-16.12ZM560.57 95.32l9.38-4.486 11.51-5.31-22.11 4.017 1.22 5.778Z"/><path fill="#C1CAD7" d="m566.36 122.826-18.58-22.465-21.17 18.786 7.19-30.819-26.29-15.255 25.58-5.38-5.64-29.903 18.54 24.334 14.47-16.12-2.82 25.607 23.82 13.913-22.11 4.017 7.01 33.285Z"/></g><g opacity=".14"><path fill="#5E7699" d="m1018.45 812.477-8.95 4.654 4.52 27.368 10.07-2.118-5.64-29.904ZM1007.61 892.899l10 .935 7.19-30.819-26.29-15.255-12.51 2.109 27.88 13.783-6.27 29.247Z"/><path fill="#6989AF" d="m1031.32 881.672 15.66 16.458 10.38-.617-18.58-22.465-7.46 6.624Z"/><path fill="#5E7699" d="m1051.46 820.691-10.92 4.425-6.78 7.459 3.23 4.236 14.47-16.12ZM1051.57 870.006l9.38-4.485 11.51-5.31-22.11 4.018 1.22 5.777Z"/><path fill="#C1CAD7" d="m1057.36 897.514-18.58-22.465-21.17 18.785 7.19-30.818-26.29-15.255 25.58-5.38-5.64-29.904 18.54 24.335 14.47-16.121-2.82 25.608 23.82 13.912-22.11 4.018 7.01 33.285Z"/></g><path fill="#FFB922" d="m999.091 281.357 4.699 1.854-19.186 15.257 11.934 3.94 18.762-14.651 25.81 10.195-62.129-45.972 47.729-7.536-58.251-13.309 8-52.206-38.983 29.229-31.684-63.2 9.064 64.945-68.247-39.454 47.282 51.796-80.864 10.059 58.093 10.34-17.418 22.031 16.848 3.472 17.733-22.449 8.061 1.435-17.643 22.693 11.274 2.325 15.211-19.523-2.737 58.573-12.659 25.898 37.922-39.439 17.388-22.842 54.312 68.551-19.097-46.776 18.776-15.236Zm-7.791-3.078-13.959 11.027-8.051-19.718 22.01 8.691Z"/><path fill="#fff" d="m908.624 165.257 2.94 21.075 56.18 117.064 18.034 22.763-77.154-160.902ZM914.283 209.574l-29.213-16.89 43.961 95.844 15.45-13.176-30.198-65.778Z"/><path fill="#FFB922" d="M1048.01 246.65c-.6.031-1.17-.343-1.36-.943a1.35 1.35 0 0 1 .89-1.685c2.99-.929 6.32-2.129 9.26-3.19l1.53-.548c.7-.25 1.47.108 1.73.808.25.699-.11 1.468-.81 1.721l-1.52.546c-2.97 1.07-6.33 2.282-9.38 3.225-.11.039-.22.06-.34.066ZM1071.36 236.853c-.54.028-1.08-.28-1.31-.807-.29-.682.02-1.475.71-1.77 22.17-9.556 35.38-19.634 42.56-26.404 9.38-8.854 11.58-14.974 10.77-16.924-1.91-4.579-21.06-7.359-57.65.793a347.894 347.894 0 0 0-18.16 4.582 1.352 1.352 0 0 1-1.67-.932c-.2-.714.22-1.456.94-1.658 6.28-1.757 12.43-3.31 18.3-4.615 16.7-3.72 31.39-5.532 42.48-5.239 7.26.193 16.33 1.395 18.26 6.038 1.69 4.048-2.68 11.675-11.4 19.905-7.34 6.921-20.82 17.21-43.36 26.92-.15.069-.31.102-.47.111ZM760.466 353.13c-6.117.308-9.021-.392-9.83-.639-4.108-1.254-5.138-3.919-5.281-5.936-.645-9.251 15.99-23.887 23.172-29.747 15.829-12.921 36.342-25.506 57.759-35.445a1.354 1.354 0 0 1 1.797.651 1.34 1.34 0 0 1-.654 1.787c-21.217 9.846-41.527 22.305-57.187 35.087-14.068 11.482-22.571 22.015-22.189 27.484.079 1.106.512 2.677 3.374 3.551 1.352.413 9.194 2.203 30.814-3.09 23.705-5.806 54.266-17.705 90.83-35.37a1.356 1.356 0 0 1 1.807.621 1.34 1.34 0 0 1-.624 1.797c-66.323 32.038-99.195 38.514-113.788 39.249Z"/><path fill="#FF562E" d="m1006.73 217.367 6.58-.103 5.43-17.231-6.48-1.706-5.53 19.04ZM1036.74 173.755l-5.55-3.461-13.26 15.829 10.8 16.535 7.89 2.418-12.15-16.14 12.27-15.181ZM1019.64 173.372l-4.25-14.135-6.22-2.668 4.18 18.48 6.29-1.677ZM989.953 202.963l7.654.615 6.143-2.363-.63-3.406-13.167 5.154ZM1004.42 174.259l-6.771-.127-8.26-.271 14.041 4.109.99-3.711Z"/><path fill="#FFB922" d="m1031.19 170.295-11.55 3.077-6.29 1.677-4.18-18.48-4.75 17.69-.99 3.711-14.041-4.109 9.748 15.03-9.185 14.072 13.168-5.155.63 3.407 2.98 16.152 5.53-19.04 6.48 1.706 9.99 2.626-10.8-16.535 13.26-15.829Z"/><path fill="#FFB922" d="m1009.17 156.569 4.18 18.48 17.84-4.754-13.26 15.829 10.8 16.535-16.47-4.332-5.53 19.04-3.61-19.559-13.168 5.155 9.185-14.072-9.748-15.03 14.041 4.109 5.74-21.401Z"/><path fill="#fff" d="m1003.52 177.638 9.34 20.849 8.02 2.11-14.72-32.823-2.64 9.864Z"/><path fill="#8396B1" d="M1144.86 627.497c-31.74 66.48-140.58 82.325-243.103 33.917-102.522-48.408-159.903-142.739-128.161-209.219 31.741-66.48 146.246-87.154 248.774-38.746 102.52 48.407 154.23 147.568 122.49 214.048Z"/><path fill="#082D63" d="M1064.93 597.306c11.65 0 21.1-9.396 21.1-20.987 0-11.591-9.45-20.987-21.1-20.987-11.66 0-21.11 9.396-21.11 20.987 0 11.591 9.45 20.987 21.11 20.987Z"/><path fill="#fff" d="M1081.96 587.983c-5.75 0-12.76-.947-19.97-2.704-7.92-1.93-15.17-4.619-20.41-7.567-5.79-3.259-8.48-6.496-7.78-9.36.68-2.765 4.35-4.386 10.6-4.694.75-.039 1.38.534 1.42 1.275a1.35 1.35 0 0 1-1.29 1.411c-5.56.274-7.84 1.598-8.1 2.647-.27 1.106 1.27 3.439 6.49 6.379 5.03 2.83 12.03 5.42 19.71 7.295 7.69 1.872 15.1 2.797 20.88 2.601 6-.202 8.44-1.567 8.71-2.673.23-.929-.82-2.771-4.46-5.152a1.343 1.343 0 0 1-.38-1.863 1.352 1.352 0 0 1 1.87-.383c4.33 2.837 6.21 5.541 5.6 8.037-.71 2.863-4.6 4.494-11.25 4.72-.53.022-1.08.031-1.64.031ZM1036.22 549.429c1.17 0 2.13-.948 2.13-2.119 0-1.17-.96-2.119-2.13-2.119-1.18 0-2.14.949-2.14 2.119a2.13 2.13 0 0 0 2.14 2.119ZM798.177 480.245a2.125 2.125 0 0 0 2.131-2.119c0-1.17-.954-2.119-2.131-2.119a2.125 2.125 0 0 0-2.131 2.119c0 1.17.954 2.119 2.131 2.119ZM830.552 495.816a3.498 3.498 0 0 0 3.507-3.488 3.497 3.497 0 0 0-3.507-3.488 3.497 3.497 0 0 0-3.507 3.488 3.498 3.498 0 0 0 3.507 3.488ZM783.803 285.858a2.327 2.327 0 0 0 2.334-2.321 2.327 2.327 0 0 0-2.334-2.321 2.327 2.327 0 0 0-2.334 2.321 2.327 2.327 0 0 0 2.334 2.321Z"/><path fill="#fff" d="M946.47 672.948c-38.889-6.153-85.144-29.492-126.901-64.03-19.485-16.115-37.243-34.148-51.357-52.151-14.826-18.911-25.296-37.125-31.12-54.133-9.178-26.805-5.129-48.866 11.404-62.118 12.832-10.285 32.705-14.584 55.965-12.103 24.52 2.617 51.493 12.393 78.002 28.273l-1.394 2.304c-26.173-15.679-52.764-25.329-76.896-27.903-22.538-2.406-41.708 1.685-53.976 11.521-7.518 6.027-12.316 13.979-14.26 23.635-2.073 10.306-.824 22.259 3.72 35.523 5.647 16.49 16.26 34.936 30.692 53.346 13.996 17.852 31.614 35.74 50.954 51.735 41.396 34.24 87.172 57.364 125.597 63.442l-.43 2.659ZM1069.39 372.623a1.4 1.4 0 0 1-.35-.045 395.77 395.77 0 0 0-8.13-2.038 1.353 1.353 0 0 1-1-1.622c.18-.723.91-1.167 1.63-.992 2.72.648 5.47 1.339 8.19 2.05.73.19 1.16.926.97 1.643a1.365 1.365 0 0 1-1.31 1.004ZM1089.12 378.365c-.14 0-.28-.021-.42-.066a360.225 360.225 0 0 0-12.06-3.648 1.347 1.347 0 0 1-.93-1.661c.21-.711.96-1.127 1.67-.922 4.13 1.17 8.22 2.409 12.15 3.675a1.343 1.343 0 0 1-.41 2.622ZM1055.75 522.386c-23.76 0-49.88-3.138-74.72-9.038a1.344 1.344 0 0 1-1.001-1.621 1.353 1.353 0 0 1 1.631-.995c28.46 6.761 58.59 9.863 84.85 8.739 29.51-1.263 53.95-7.759 70.69-18.784 14.89-9.812 23.85-23.173 26.64-39.713 1.19-7.103.04-14.91-3.44-23.213-3.27-7.801-8.42-15.675-15.3-23.405-13.41-15.06-32.04-27.721-49.83-33.868a1.342 1.342 0 0 1-.83-1.712 1.352 1.352 0 0 1 1.72-.829c18.21 6.291 37.26 19.236 50.96 34.625 14.98 16.815 21.86 34.161 19.39 48.845-2.92 17.303-12.28 31.27-27.82 41.51-17.15 11.296-42.07 17.946-72.07 19.23-3.56.154-7.18.229-10.87.229Z"/><path fill="#fff" d="M850.91 486.965a2.125 2.125 0 0 0 2.131-2.12c0-1.17-.954-2.119-2.131-2.119a2.125 2.125 0 0 0-2.131 2.119c0 1.171.954 2.12 2.131 2.12ZM1039.4 262.953c1.18 0 2.13-.949 2.13-2.119 0-1.171-.95-2.12-2.13-2.12s-2.13.949-2.13 2.12c0 1.17.95 2.119 2.13 2.119ZM1070.61 266.558c3.35 0 6.07-2.704 6.07-6.041 0-3.336-2.72-6.041-6.07-6.041-3.36 0-6.08 2.705-6.08 6.041 0 3.337 2.72 6.041 6.08 6.041ZM1116.15 242.785c1.18 0 2.13-.948 2.13-2.119 0-1.17-.95-2.119-2.13-2.119s-2.13.949-2.13 2.119c0 1.171.95 2.119 2.13 2.119Z"/><path fill="#FFB922" d="M959.045 178.856a1.311 1.311 0 0 1-.66-.136 1.343 1.343 0 0 1-.622-1.799l21.595-43.974a1.359 1.359 0 0 1 1.81-.618c.67.326.949 1.131.622 1.8l-21.599 43.973c-.224.455-.673.73-1.146.754ZM934.07 137.23a1.35 1.35 0 0 1-1.422-1.389l1.437-42.735a1.347 1.347 0 0 1 1.397-1.299 1.348 1.348 0 0 1 1.307 1.39l-1.437 42.734a1.347 1.347 0 0 1-1.282 1.299ZM933.001 169.013a1.351 1.351 0 0 1-1.422-1.39l.797-23.743a1.347 1.347 0 0 1 1.398-1.299c.745.024 1.33.645 1.306 1.39l-.797 23.742a1.351 1.351 0 0 1-1.282 1.3ZM943.08 190.79a1.269 1.269 0 0 1-.367-.033 1.342 1.342 0 0 1-1.019-1.609l12.226-53.644a1.35 1.35 0 0 1 1.619-1.013 1.341 1.341 0 0 1 1.018 1.609l-12.225 53.644a1.354 1.354 0 0 1-1.252 1.046ZM958.189 124.494a1.272 1.272 0 0 1-.367-.033 1.342 1.342 0 0 1-1.018-1.61l5.393-23.664a1.35 1.35 0 0 1 1.618-1.013 1.342 1.342 0 0 1 1.019 1.61l-5.393 23.664a1.356 1.356 0 0 1-1.252 1.046Z"/><path fill="#FF562E" d="m893.891 222.245-47.283-51.796-3.837 24.059 29.334 30.447 21.786-2.71ZM914.852 209.903l-9.06-64.945-8.027 24.435 3.856 32.859 13.231 7.651ZM969.289 269.588l8.051 19.719 13.96-11.028-22.011-8.691ZM995.935 264.524l18.705-3.172 12.07-16.908-47.73 7.536 16.955 12.544ZM1003.79 283.211l-4.7-1.854-18.773 15.239.216.53 4.071 1.345 19.186-15.26ZM905.188 252.632l-15.211 19.522-.185 64.946 12.659-25.898 2.737-58.57ZM1015.3 287.757l-18.762 14.651 26.352 8.697 18.22-13.152-25.81-10.196ZM928.881 296.448l55.664 60.125 14.869-13.2-54.312-68.551-16.221 21.626ZM870.55 268.148l8.154 1.679 17.642-22.694-8.06-1.435-17.736 22.45ZM871.119 242.644l-58.092-10.34-4.432 23.071 45.106 9.299 17.418-22.03Z"/><path fill="#082D63" d="M1032.37 337.835c-3.31-9.617-5.06-39.955-5.06-39.955-8.32-.416-19.3 6.894-22.27 12.727-5.646 11.118-1.99 26.902.4 40.914 1.57 9.194 4.16 26.302 11.04 31.815l36.14 21.862s-14.73-51.284-20.25-67.363Z"/><path fill="#fff" d="M940.604 410.344c12.467 8.429 30.61 4.847 62.586-14.983 7.46-4.63 29.2 14.196 41.8 18.091 10.22 3.159 14.68-6.846 7.24-16.255-2.74-2.963-5.9-5.881-9.4-9.161-.05-.045-.1-.087-.15-.123-1.82-1.282-33.61-23.535-46.036-18.055-7.336 3.235-51.027 28.678-57.599 32.509a1.417 1.417 0 0 0-.688 1.468c.231 1.333.822 3.85 2.247 6.509ZM870.816 346.499c0 .036.003.072.019.103-.006-.034-.009-.067-.019-.103ZM1025.32 425.339c-.03-.323-.07-.57-.09-.73-.09-.555-.34-1.151-.71-1.776.28.826.54 1.662.8 2.506ZM940.665 410.504l.028.063c-.013-.021-.019-.042-.028-.063ZM939.11 476.378l-.191.136s4.044 3.906 9.152 4.904c0 0 4.001 1.716 8.305.13 6.848-2.523 4.505-6.539 4.505-6.539-2.401 5.873-11.258 8.477-21.771 1.369Z"/><path fill="#fff" d="M890.914 343.855a27.447 27.447 0 0 0-2.622-.705 28.996 28.996 0 0 0-3.771-.29c-7.336.869-1.582 12.613 2.116 20.59 3.389 7.31 11.271 15.772 16.245 25.801 7.348 14.817-1 36.341-2.58 40.151-10.509 25.322-11.758 47.277-7.378 67.894 3.574 16.83 22.247 72.545 34.657 72.976 17.233-20.963 44.1-32.605 45.222-33.087-.749-9.611-2.271-23.433-4.969-26.408-8.645-9.532-25.52-19.809-32.274-29.096-10.222-14.051.646-22.332.646-22.332s46.567 19.941 59.38 32.527c1.95 1.914 3.993 6.005 5.854 10.635 1.58-5.842 1.96-12.329.39-19.399-1.74-7.825-8.053-25.268-13.583-26.223-19.47-3.367-33.541-6.153-45.56-14.747-8.003-5.722-9.567-16.617-9.104-17.816 2.471 14.075 18.252 23.721 55.986 23.29 7.342-.084 7.342-.084 13.551 5.438 8.93 7.947 19.15 9.119 22.45 6.723 2.79-2.029 2.4-4.971 1.92-7.323-.56-2.11-1.24-3.406-1.68-4.093-8.33-11.371-16.89-21.898-20.75-22.914-8.564-2.252-34.964-4.121-37.183-4.446l-.612-.076-32.017-1.959a1.432 1.432 0 0 0-1.522 1.326c-.003.021-.003.045-.006.067-.094 1.374-1.267.81-2.647.672 0 0-10.924-12.592-13.362-38.134-.882-9.234-5.132-23.794-16.833-34.083-3.383-2.975-7.214-4.609-10.982-5.384.339.136.676.277 1.018.425Z"/><path fill="#082D63" d="M954.491 408.439s7.281-2.273 11.758-7.678c4.469-5.39 3.174-9.147 1.274-11.311-.661-.754-1.871 1.143-1.871 1.143s5.347 8.552-11.47 17.273l.309.573ZM950.308 433.435s.166.431.194.489c1.867.072 8.002.09 11.579-1.432 5.611-2.388 5.248-8.972 3.086-10.129-.609-.326-1.964-.196-1.94-.094.803 1.474 1.179 4.935-.355 7.353-1.676 2.632-6.39 3.904-12.564 3.813Z"/><path fill="#FFB922" d="M938.561 355.241c-.7 0-1.295-.537-1.346-1.245l-1.61-21.416a1.348 1.348 0 0 1 1.249-1.441 1.35 1.35 0 0 1 1.449 1.242l1.61 21.416a1.348 1.348 0 0 1-1.249 1.441c-.033 0-.067.003-.103.003ZM942.417 406.542c-.7 0-1.294-.54-1.346-1.245l-3.292-43.832a1.347 1.347 0 0 1 1.249-1.441c.746-.057 1.394.5 1.449 1.242l3.292 43.832a1.347 1.347 0 0 1-1.249 1.441c-.036 0-.07.003-.103.003ZM948.271 513.137a1.346 1.346 0 0 1-1.349-1.288l-2.698-62.419a1.348 1.348 0 0 1 1.291-1.402 1.34 1.34 0 0 1 1.41 1.287l2.698 62.42a1.35 1.35 0 0 1-1.295 1.402h-.057ZM955.861 374.814a1.352 1.352 0 0 1-1.322-1.067l-11.394-53.825a1.342 1.342 0 0 1 1.045-1.591 1.35 1.35 0 0 1 1.601 1.04l11.395 53.824a1.341 1.341 0 0 1-1.325 1.619ZM976.698 473.237a1.35 1.35 0 0 1-1.321-1.067l-7.873-37.182a1.34 1.34 0 0 1 1.046-1.591 1.348 1.348 0 0 1 1.601 1.04l7.872 37.181a1.34 1.34 0 0 1-1.325 1.619ZM924.661 361.794c-.025 0-.049 0-.073-.003a1.347 1.347 0 0 1-1.279-1.413l1.782-33.17a1.346 1.346 0 0 1 1.422-1.272 1.349 1.349 0 0 1 1.279 1.414l-1.783 33.172a1.344 1.344 0 0 1-1.348 1.272ZM919.088 465.422c-.024 0-.048 0-.072-.003a1.348 1.348 0 0 1-1.28-1.414l2.134-39.668a1.347 1.347 0 0 1 1.422-1.272 1.347 1.347 0 0 1 1.279 1.413l-2.134 39.669a1.347 1.347 0 0 1-1.349 1.275Z"/><path fill="#fff" d="M871.914 282.925a2.624 2.624 0 0 0 2.632-2.617 2.624 2.624 0 0 0-2.632-2.617 2.624 2.624 0 0 0-2.631 2.617 2.624 2.624 0 0 0 2.631 2.617ZM852.656 300.467c4.188 0 7.584-3.377 7.584-7.543 0-4.165-3.396-7.542-7.584-7.542-4.189 0-7.585 3.377-7.585 7.542 0 4.166 3.396 7.543 7.585 7.543ZM1001.91 254.132c2.9 0 5.26-2.341 5.26-5.23 0-2.888-2.36-5.23-5.26-5.23-2.908 0-5.263 2.342-5.263 5.23 0 2.889 2.355 5.23 5.263 5.23Z"/><path fill="#C1CAD7" d="m939.109 476.378-.191.136s4.044 3.906 9.152 4.904c0 0 4.001 1.716 8.305.13 6.848-2.523 4.505-6.539 4.505-6.539-2.401 5.873-11.258 8.477-21.771 1.369Z"/><path fill="#082D63" d="M1042.25 511.166c14.45-19.905 20.17-21.575 21.27-37.29 1.2-17.126-.59-31.99-.9-54.85l-.01.003c0-1.302-.06-2.58-.17-3.828-.68-7.549-4.64-12.544-11.94-19.957 9.76 9.903 5.42 21.585-5.51 18.208-12.6-3.892-34.34-22.72-41.8-18.09-31.973 19.833-50.118 23.414-62.586 14.982.761 2.349 8.821 11.504 28.321 7.295 17.758-3.831 28.046-9.013 33.685-12.425 4.26 3.674 21.67 13.619 22.62 19.392.33 1.996 1.61 17.807.13 23.134 0 0 1.22 1.293 2.13 4.715.49 2.351.88 5.293-1.91 7.322-3.3 2.397-13.52 1.224-22.45-6.723-6.213-5.522-6.213-5.522-13.555-5.438-37.737.434-53.518-9.212-55.986-23.29-.464 1.2 1.101 12.094 9.103 17.816 12.02 8.594 26.091 11.38 45.561 14.747 5.526.956 11.847 18.395 13.587 26.224 1.57 7.069 1.49 12.061-.09 17.903-1.865-4.63-4.209-7.226-6.158-9.14-12.813-12.586-59.381-32.527-59.381-32.527s-10.867 8.281-.645 22.332c6.756 9.288 23.629 19.564 32.274 29.096 2.698 2.973 4.22 16.797 4.969 26.408-1.122.479-27.989 12.124-45.222 33.087-12.413-.431-31.083-56.146-34.657-72.976-4.38-20.616-3.132-42.571 7.378-67.894 1.582-3.81 9.928-25.337 2.58-40.151-4.975-10.029-12.853-18.491-16.245-25.801-4.465-9.632-11.931-24.759 4.277-19.595-5.969-2.592-10.291-2.861-14.441-2.625-2.907.162-6.272 2.55-5.635 5.375 2.804 12.48 10.058 23.839 15.702 42.312 5.65 18.485-10.47 47.741-12.698 59.718-4.053 21.759 1.027 48.106-2.95 98.091-3.31 26.676-3.246 72.343-2.868 96.134a310.313 310.313 0 0 0 33.733 18.551c21.674 10.235 43.633 17.596 65.083 22.215l-2.04-67.098c-.006.003 63.744-86.488 77.444-105.362Z"/><path fill="#fff" d="M1019.68 323.878c-1.83-3.476-2.87-13.358-2.87-13.358l.7-.024c.75 5.52 1.67 10.961 4.16 13.659 2.76 2.978 6.96 2.379 6.96 2.379s.3 1.238-.85 1.636c-1.73.6-6.01-.31-8.1-4.292ZM939.11 476.377c10.513 7.106 19.37 4.504 21.768-1.371 0 0 1.219.175 1.416.877-.088 1.384-1.965 4.549-5.918 5.661-10.033 2.831-17.457-5.031-17.457-5.031l.191-.136Z"/><g opacity=".14"><path fill="#6989AF" d="m1139.29 75.938 8.52 5.39 21.61-17.533-6.87-7.637-23.26 19.78ZM1214.8 45.188l-4.17-9.09-30.45 9.17-.19 30.271 8.08 9.736-1.89-30.908 28.62-9.179ZM1193.2 30.351l6.54-21.71L1194.03 0l-10.32 27.218 9.49 3.133ZM1130 43.378l9.29 7.21 9.89 2.128 2.08-4.892-21.26-4.446ZM1172.93 18.706l-8.58-5.848-10.37-7.28 14.52 17.056 4.43-3.928Z"/><path fill="#EBEFF5" d="m1194.03 0-10.32 27.218 26.92 8.881-30.45 9.169-.19 30.272-17.44-19.383-23.26 19.78 11.97-28.113-21.26-4.445 23.73-10.333.25-27.467 14.52 17.055L1194.03 0Z"/></g><g opacity=".14"><path fill="#5E7699" d="m1332.27 296.934 18.58 11.759 47.15-38.249-14.99-16.662-50.74 43.152ZM1497 229.851l-9.1-19.829-66.43 20.003-.41 66.04 17.63 21.24-4.13-67.429 62.44-20.025ZM1449.88 197.483l14.26-47.361-12.45-18.853-22.52 59.38 20.71 6.834ZM1312 225.904l20.27 15.729 21.57 4.643 4.54-10.674-46.38-9.698ZM1405.66 172.078l-18.72-12.757-22.62-15.881 31.67 37.208 9.67-8.57Z"/><path fill="#C1CAD7" d="m1451.69 131.269-22.52 59.38 58.73 19.374-66.43 20.003-.41 66.04-38.05-42.284-50.74 43.152 26.11-61.333-46.38-9.697 51.77-22.542.54-59.922 31.68 37.207 55.7-49.378Z"/></g><g opacity=".32"><path fill="#6989AF" d="m77.41 718.997-11.8 2.516L62 754.47l12.29.775 3.12-36.248ZM39.04 808.171l11.22 4.266 18.2-33.205-25.37-25.946L28 751.735l27.68 24.752-16.64 31.684ZM69.96 802.791l12.73 23.946 12.16 2.596-14.17-31.793-10.72 5.251ZM112.79 738.976l-14 1.611-10.21 6.434 2.36 5.907 21.85-13.952ZM97.04 795.8l12.24-2.178 14.97-2.447-26.76-2.416-.45 7.041Z"/><path fill="#C1CAD7" d="M94.85 829.333 80.68 797.54l-30.42 14.897 18.2-33.205-25.37-25.946 31.2 1.959 3.12-36.248 13.53 33.931 21.85-13.952-11.49 28.591 22.95 23.608-26.76-2.416-2.64 40.574Z"/></g><g filter="url(#b)"><rect width="572" height="498" x="56" y="198" fill="#fff" rx="12"/><rect width="571" height="497" x="56.5" y="198.5" stroke="#EBEFF5" rx="11.5"/></g><path stroke="#EBEFF5" d="M56 423h572M56 598h572M.5.5h1599v899H.5z"/><defs><linearGradient id="a" x1="1579.2" x2="812.735" y1="872.1" y2="-465.655" gradientUnits="userSpaceOnUse"><stop stop-color="#EBEFF5"/><stop offset="1" stop-color="#F0F4F7"/></linearGradient><filter id="b" width="636" height="562" x="24" y="178" color-interpolation-filters="sRGB" filterUnits="userSpaceOnUse"><feFlood flood-opacity="0" result="BackgroundImageFix"/><feColorMatrix in="SourceAlpha" result="hardAlpha" values="0 0 0 0 0 0 0 0 0 0 0 0 0 0 0 0 0 0 127 0"/><feOffset dy="12"/><feGaussianBlur stdDeviation="16"/><feComposite in2="hardAlpha" operator="out"/><feColorMatrix values="0 0 0 0 0.027451 0 0 0 0 0.176471 0 0 0 0 0.388235 0 0 0 0.06 0"/><feBlend in2="BackgroundImageFix" result="effect1_dropShadow_5110_7618"/><feBlend in="SourceGraphic" in2="effect1_dropShadow_5110_7618" result="shape"/></filter></defs></svg>