<svg width="20" height="20" viewBox="0 0 20 20" fill="none" xmlns="http://www.w3.org/2000/svg">
<path d="M10.7143 0C11.875 0 12.8571 0.982143 12.8571 2.14286V17.8571C12.8571 19.0625 11.875 20 10.7143 20H9.28571C8.08036 20 7.14286 19.0625 7.14286 17.8571V2.14286C7.14286 0.982143 8.08036 0 9.28571 0H10.7143ZM10.7143 2.14286H9.28571V17.8571H10.7143V2.14286ZM3.57143 8.57143C4.73214 8.57143 5.71429 9.55357 5.71429 10.7143V17.8571C5.71429 19.0625 4.73214 20 3.57143 20H2.14286C0.9375 20 0 19.0625 0 17.8571V10.7143C0 9.55357 0.9375 8.57143 2.14286 8.57143H3.57143ZM3.57143 10.7143H2.14286V17.8571H3.57143V10.7143ZM14.2857 5C14.2857 3.83929 15.2232 2.85714 16.4286 2.85714H17.8571C19.0179 2.85714 20 3.83929 20 5V17.8571C20 19.0625 19.0179 20 17.8571 20H16.4286C15.2232 20 14.2857 19.0625 14.2857 17.8571V5ZM16.4286 17.8571H17.8571V5H16.4286V17.8571Z" fill="#FF562E"/>
</svg>
