<svg width="20" height="16" viewBox="0 0 20 16" fill="none" xmlns="http://www.w3.org/2000/svg">
<path d="M6.24901 15.5C6.08485 15.5002 5.92226 15.468 5.77059 15.4052C5.61892 15.3424 5.48116 15.2502 5.36523 15.134L0.366074 10.134C0.131681 9.8996 0 9.58169 0 9.25021C0 8.91873 0.131681 8.60082 0.366074 8.36643C0.600467 8.13204 0.918371 8.00036 1.24985 8.00036C1.58133 8.00036 1.89924 8.13204 2.13363 8.36643L6.24901 12.4826L17.8664 0.866074C18.1008 0.631681 18.4187 0.5 18.7501 0.5C19.0816 0.5 19.3995 0.631681 19.6339 0.866074C19.8683 1.10047 20 1.41837 20 1.74985C20 2.08133 19.8683 2.39924 19.6339 2.63363L7.13604 15.1315C7.01992 15.2486 6.88173 15.3414 6.72946 15.4047C6.57719 15.4679 6.41389 15.5003 6.24901 15.5Z" fill="#1AB171"/>
</svg>
