<svg xmlns="http://www.w3.org/2000/svg" width="23.25" height="23.25" viewBox="0 0 23.25 23.25">
  <path id="telegram" d="M0-20.625A11.623,11.623,0,0,0-11.625-9,11.623,11.623,0,0,0,0,2.625,11.623,11.623,0,0,0,11.625-9,11.623,11.623,0,0,0,0-20.625Zm5.709,7.964L3.8-3.67c-.141.637-.52.792-1.05.492L-.155-5.32l-1.4,1.35a.734.734,0,0,1-.586.286l.206-2.958L3.45-11.508c.234-.206-.052-.323-.361-.117L-3.567-7.434l-2.869-.9c-.623-.2-.638-.623.131-.923L4.9-13.575C5.423-13.762,5.878-13.448,5.709-12.661Z" transform="translate(11.625 20.625)" fill="#7e92ae"/>
</svg>
