<svg id="trade" xmlns="http://www.w3.org/2000/svg" width="32" height="32" viewBox="0 0 32 32">
    <g id="Component_385_3" data-name="Component 385 – 3">
        <rect id="Rectangle_882" data-name="Rectangle 882" width="32" height="32" fill="#fff" opacity="0"/>
    </g>
    <g id="Group_2551" data-name="Group 2551" transform="translate(-130.998 -6.959)" opacity="0.8">
        <path id="Union_8" data-name="Union 8"
              d="M22569.143,14196.387a1,1,0,0,1,0-1.423l3.238-3.235h-17.449a1,1,0,1,1,0-2h17.457l-3.246-3.246a1,1,0,1,1,1.41-1.411l4.951,4.952a1,1,0,0,1,0,1.411l-4.951,4.946a.987.987,0,0,1-.705.3A1,1,0,0,1,22569.143,14196.387Z"
              transform="translate(-22416.932 -14162.092)" fill="#7587a2"/>
        <path id="Union_7" data-name="Union 7"
              d="M22569.555,14208.114a1,1,0,0,1,0-1.416l3.242-3.241h-17.451a1,1,0,0,1,0-2h17.455l-3.246-3.241a1,1,0,1,1,1.412-1.411l4.951,4.946a1,1,0,0,1,0,1.411l-4.951,4.952a.993.993,0,0,1-.7.291A1.011,1.011,0,0,1,22569.555,14208.114Z"
              transform="translate(22711.209 14219.364) rotate(180)" fill="#7587a2"/>
    </g>
</svg>
