<svg data-name="Component 388 – 3" xmlns="http://www.w3.org/2000/svg" width="32" height="32" viewBox="0 0 32 32">
    <g data-name="Group 2551" style="opacity:.8">
        <g data-name="Group 2539">
            <path data-name="Union 8" d="M22569.143 14196.387a1 1 0 0 1 0-1.423l3.238-3.235h-17.449a1 1 0 1 1 0-2h17.457l-3.246-3.246a1 1 0 1 1 1.41-1.411l4.951 4.952a1 1 0 0 1 0 1.411l-4.951 4.946a.987.987 0 0 1-.705.3 1 1 0 0 1-.705-.294z" transform="translate(-22547.93 -14169.052)" style="fill:#7587a2"/>
        </g>
        <g data-name="Group 2540">
            <path data-name="Union 7" d="M22569.555 14208.114a1 1 0 0 1 0-1.416l3.242-3.241h-17.451a1 1 0 0 1 0-2h17.455l-3.246-3.241a1 1 0 1 1 1.412-1.411l4.951 4.946a1 1 0 0 1 0 1.411l-4.951 4.952a.993.993 0 0 1-.7.291 1.011 1.011 0 0 1-.712-.291z" transform="rotate(180 11290.106 7106.202)" style="fill:#7587a2"/>
        </g>
    </g>
</svg>
