<svg xmlns="http://www.w3.org/2000/svg" width="24" height="19.492" viewBox="0 0 24 19.492">
  <path id="twitter" d="M9.533-13.888A10.573,10.573,0,0,0,12-16.431a9.861,9.861,0,0,1-2.832.761,4.906,4.906,0,0,0,2.162-2.711,9.684,9.684,0,0,1-3.122,1.188,4.907,4.907,0,0,0-3.594-1.553A4.917,4.917,0,0,0-.3-13.827,5.553,5.553,0,0,0-.183-12.7a13.981,13.981,0,0,1-10.142-5.147,4.881,4.881,0,0,0-.67,2.482,4.915,4.915,0,0,0,2.193,4.1,4.953,4.953,0,0,1-2.223-.624v.061A4.919,4.919,0,0,0-7.081-7.005a5.2,5.2,0,0,1-1.294.167A6.2,6.2,0,0,1-9.3-6.914,4.928,4.928,0,0,0-4.706-3.5a9.851,9.851,0,0,1-6.107,2.1A10.18,10.18,0,0,1-12-1.462,13.9,13.9,0,0,0-4.447.746,13.9,13.9,0,0,0,9.548-13.249C9.548-13.462,9.548-13.675,9.533-13.888Z" transform="translate(12 18.746)" fill="#7e92ae"/>
</svg>
