<svg width="37" height="35" viewBox="0 0 37 35" fill="none" xmlns="http://www.w3.org/2000/svg">
<g id="Union">
<path d="M34.8392 14.6032C33.7422 14.6032 32.8585 13.7746 32.8585 12.746V4.48876H24.052C22.9549 4.48876 22.0712 3.66017 22.0712 2.63158C22.0712 1.60299 22.9549 0.774414 24.052 0.774414H34.8392C35.9362 0.774414 36.8199 1.60299 36.8199 2.63158V12.746C36.8199 13.7746 35.9362 14.6032 34.8392 14.6032Z" fill="#8396B1"/>
<path fill-rule="evenodd" clip-rule="evenodd" d="M11.1023 34.7744C5.28203 34.7744 0.52832 30.3172 0.52832 24.86C0.52832 20.1913 4.03007 16.2211 8.74668 15.199C9.82141 10.7949 14.0432 7.48847 19.0561 7.48847C24.8763 7.48847 29.63 11.9457 29.63 17.4029C29.63 22.1033 26.1034 26.0618 21.4062 27.0694C20.3223 31.482 16.0708 34.7744 11.1023 34.7744ZM19.2792 23.6281C19.2051 23.6304 19.1308 23.6316 19.0561 23.6316C15.3994 23.6316 12.4436 20.8601 12.4436 17.4315C12.4436 14.0029 15.3994 11.2314 19.0561 11.2314C22.7128 11.2314 25.6686 14.0029 25.6686 17.4315C25.6686 20.6419 23.077 23.2762 19.7451 23.5985C19.5839 23.5914 19.4281 23.6019 19.2792 23.6281ZM17.259 27.1734C16.2777 29.4599 13.8798 31.0601 11.1328 31.0601C7.47605 31.0601 4.52022 28.2886 4.52022 24.86C4.52022 22.2873 6.22286 20.0412 8.64144 19.119C9.41072 23.2171 12.8838 26.465 17.259 27.1734Z" fill="#8396B1"/>
</g>
</svg>
