<svg width="8" height="9" viewBox="0 0 8 9" fill="none" xmlns="http://www.w3.org/2000/svg">
<path d="M7.625 0.5H5.5C5.29688 0.5 5.10938 0.625 5.03125 0.828125C4.95312 1.01562 5 1.23438 5.14062 1.375L5.78125 2.01562L2.76562 5.03125C2.5625 5.21875 2.5625 5.54688 2.76562 5.73438C2.85938 5.82812 2.98438 5.875 3.125 5.875C3.25 5.875 3.375 5.82812 3.46875 5.73438L6.48438 2.71875L7.125 3.35938C7.21875 3.45312 7.34375 3.5 7.48438 3.5C7.54688 3.5 7.60938 3.5 7.67188 3.46875C7.875 3.39062 8 3.20312 8 3V0.875C8 0.671875 7.82812 0.5 7.625 0.5ZM6.125 5.5C5.90625 5.5 5.75 5.67188 5.75 5.875V7.625C5.75 7.70312 5.6875 7.75 5.625 7.75H0.875C0.796875 7.75 0.75 7.70312 0.75 7.625V2.875C0.75 2.8125 0.796875 2.75 0.875 2.75H2.625C2.82812 2.75 3 2.59375 3 2.375C3 2.17188 2.82812 2 2.625 2H0.875C0.390625 2 0 2.40625 0 2.875V7.625C0 8.10938 0.390625 8.5 0.875 8.5H5.625C6.09375 8.5 6.5 8.10938 6.5 7.625V5.875C6.5 5.67188 6.32812 5.5 6.125 5.5Z" fill="#2868E1"/>
</svg>
