<svg width="10" height="10" viewBox="0 0 10 10" fill="none" xmlns="http://www.w3.org/2000/svg">
<path d="M1.25195 5C1.25195 2.92969 2.93164 1.25 5.00195 1.25C5.33398 1.25 5.62695 0.976562 5.62695 0.625C5.62695 0.292969 5.33398 0 5.00195 0C2.22852 0 0.00195312 2.24609 0.00195312 5C0.00195312 7.77344 2.22852 10 5.00195 10C5.33398 10 5.62695 9.72656 5.62695 9.375C5.62695 9.04297 5.33398 8.75 5.00195 8.75C2.93164 8.75 1.25195 7.07031 1.25195 5ZM7.61914 2.38281C7.38477 2.12891 6.97461 2.12891 6.74023 2.38281C6.48633 2.61719 6.48633 3.02734 6.74023 3.26172L7.85352 4.375H3.75195C3.40039 4.375 3.12695 4.66797 3.12695 5C3.12695 5.35156 3.40039 5.625 3.75195 5.625H7.85352L6.74023 6.75781C6.48633 6.99219 6.48633 7.40234 6.74023 7.63672C6.97461 7.89062 7.38477 7.89062 7.61914 7.63672L9.80664 5.44922C10.0605 5.21484 10.0605 4.80469 9.80664 4.57031L7.61914 2.38281Z" fill="#8396B1"/>
</svg>
