<svg width="32" height="32" viewBox="0 0 32 32" fill="none" xmlns="http://www.w3.org/2000/svg">
<path d="M26.4197 19.2127C26.4197 22.9324 21.88 24.4439 16.2435 24.4439C10.607 24.4439 6.00122 22.9324 6.00122 19.2127C6.00122 15.493 10.5739 12.4831 16.2104 12.4831C21.847 12.4831 26.4197 15.4996 26.4197 19.2127Z" fill="#24A95A"/>
<path d="M25.383 11.1049C25.383 9.14649 23.7839 7.55608 21.8147 7.55608C20.7907 7.55608 19.8679 7.98664 19.2174 8.67243C19.1167 8.77865 18.9695 8.83041 18.826 8.80142C17.9717 8.62899 17.1025 8.54204 16.2311 8.54184C15.3319 8.54184 14.4603 8.62954 13.6364 8.79993C13.4927 8.82969 13.3449 8.77876 13.2435 8.6727C12.5879 7.98676 11.6654 7.55608 10.6474 7.55608C8.67822 7.55608 7.0791 9.14649 7.0791 11.1049C7.07838 11.6542 7.20618 12.196 7.45229 12.687C7.50923 12.801 7.51496 12.9344 7.46568 13.0519C7.23477 13.6021 7.11212 14.183 7.11212 14.7852C7.11212 18.2354 11.1958 21.0284 16.2311 21.0284C21.2663 21.0284 25.35 18.2354 25.35 14.7852C25.35 14.183 25.2273 13.6021 24.9964 13.0519C24.9471 12.9344 24.9529 12.801 25.0099 12.687C25.2559 12.196 25.3837 11.6542 25.383 11.1049Z" fill="#32DA6D"/>
<path d="M10.3561 13.0736C11.5604 13.0736 12.5367 12.1026 12.5367 10.9048C12.5367 9.70708 11.5604 8.73615 10.3561 8.73615C9.15181 8.73615 8.17548 9.70708 8.17548 10.9048C8.17548 12.1026 9.15181 13.0736 10.3561 13.0736ZM21.9895 13.0736C23.1938 13.0736 24.1701 12.1026 24.1701 10.9048C24.1701 9.70708 23.1938 8.73615 21.9895 8.73615C20.7852 8.73615 19.8089 9.70708 19.8089 10.9048C19.8089 12.1026 20.7852 13.0736 21.9895 13.0736Z" fill="white"/>
<path d="M9.19897 24.1763C9.66812 24.1763 10.0382 23.7688 9.98529 23.3088C9.79369 21.679 8.9809 18.1499 5.40607 16.0272C1.48722 13.6995 3.35164 19.888 4.13097 22.1426C4.28862 22.5986 4.10578 23.105 3.68728 23.3453L3.4303 23.4928C3.09989 23.6834 3.23864 24.1763 3.61529 24.1763H9.19897ZM23.4008 24.1763C22.9779 24.1763 22.6475 23.7688 22.6937 23.3088C22.8589 21.6855 23.599 18.1499 26.8237 16.0272C30.3944 13.6814 28.6564 19.9845 27.9626 22.1944C27.8265 22.6279 27.9941 23.0998 28.3779 23.343L28.6144 23.4928C28.9118 23.6834 28.7862 24.1763 28.4492 24.1763H23.4008Z" fill="#32DA6D"/>
<path d="M10.3591 12.202C11.0776 12.202 11.66 11.6196 11.66 10.9011C11.66 10.1827 11.0776 9.60026 10.3591 9.60026C9.64066 9.60026 9.05829 10.1827 9.05829 10.9012C9.05829 11.6196 9.64066 12.202 10.3591 12.202ZM21.9925 12.202C22.7109 12.202 23.2933 11.6196 23.2933 10.9011C23.2933 10.1827 22.7109 9.60026 21.9925 9.60026C21.274 9.60026 20.6916 10.1827 20.6916 10.9012C20.6916 11.6196 21.274 12.202 21.9925 12.202ZM19.1177 15.9342C19.4402 15.9619 19.684 16.2481 19.6028 16.5614C19.4545 17.134 19.1632 17.6595 18.7563 18.0887C18.3493 18.518 17.8401 18.8368 17.2762 19.0155C16.8389 19.1541 16.3785 19.2052 15.9214 19.1658C14.9982 19.0863 14.1444 18.6434 13.5477 17.9346C13.0378 17.3287 12.7489 16.5675 12.7283 15.7758C12.7226 15.5602 12.9142 15.4005 13.1292 15.419L16.2208 15.6849L19.1177 15.9342Z" fill="#092511"/>
</svg>
