<svg width="32" height="32" viewBox="0 0 32 32" fill="none" xmlns="http://www.w3.org/2000/svg">
<path d="M25.9144 5.93526L17.3177 12.2259L18.9199 8.50322L25.9144 5.93526Z" fill="#E27625"/>
<path d="M6.08469 5.93526L14.6125 12.2776L13.0792 8.50322L6.08469 5.93526Z" fill="#E27625"/>
<path d="M22.8132 20.5167L20.5391 23.9637L25.4318 25.308L26.8273 20.5857L22.8132 20.5167Z" fill="#E27625"/>
<path d="M5.1716 20.5856L6.56706 25.3079L11.4598 23.9636L9.18571 20.5167L5.1716 20.5856Z" fill="#E27625"/>
<path d="M11.2012 14.673L9.84018 16.7067L14.6812 16.9307L14.5262 11.7603L11.2012 14.673Z" fill="#E27625"/>
<path d="M20.7976 14.673L17.4209 11.7087L17.3175 16.9308L22.1586 16.7067L20.7976 14.673Z" fill="#E27625"/>
<path d="M11.4601 23.9633L14.3888 22.5673L11.8736 20.6198L11.4601 23.9633Z" fill="#E27625"/>
<path d="M17.6108 22.5674L20.5395 23.9634L20.1261 20.6199L17.6108 22.5674Z" fill="#E27625"/>
<path d="M20.5395 23.9629L17.6108 22.5674L17.852 24.4453L17.8175 25.2378L20.5395 23.9629Z" fill="#D7C1B3"/>
<path d="M11.4601 23.9629L14.1821 25.2377L14.1649 24.4453L14.3888 22.5674L11.4601 23.9629Z" fill="#D7C1B3"/>
<path d="M14.2341 19.3782L11.8049 18.6718L13.5105 17.8966L14.2341 19.3782Z" fill="#2F343B"/>
<path d="M17.7655 19.3783L18.489 17.8967L20.2118 18.672L17.7655 19.3783Z" fill="#2F343B"/>
<path d="M11.4601 23.9636L11.8908 20.5167L9.18597 20.5856L11.4601 23.9636Z" fill="#CC6228"/>
<path d="M20.1083 20.5167L20.539 23.9637L22.8131 20.5857L20.1083 20.5167Z" fill="#CC6228"/>
<path d="M22.1586 16.7076L17.3175 16.9315L17.7655 19.3779L18.489 17.8963L20.2118 18.6715L22.1586 16.7076Z" fill="#CC6228"/>
<path d="M11.8042 18.6713L13.5097 17.8961L14.2333 19.3777L14.6812 16.9313L9.84018 16.7074L11.8042 18.6713Z" fill="#CC6228"/>
<path d="M9.84018 16.7074L11.8731 20.6196L11.8042 18.6721L9.84018 16.7074Z" fill="#E27625"/>
<path d="M20.2116 18.6723L20.1255 20.6198L22.1584 16.7076L20.2116 18.6723Z" fill="#E27625"/>
<path d="M14.6817 16.9313L14.2337 19.3786L14.8023 22.2913L14.9229 18.4652L14.6817 16.9313Z" fill="#E27625"/>
<path d="M17.3171 16.9315L17.0759 18.4482L17.1965 22.2915L17.765 19.3788L17.3171 16.9315Z" fill="#E27625"/>
<path d="M17.7657 19.3789L17.1972 22.2916L17.6107 22.5673L20.126 20.6198L20.2121 18.6723L17.7657 19.3789Z" fill="#F5841F"/>
<path d="M11.8049 18.6722L11.8738 20.6197L14.3891 22.5672L14.8026 22.2914L14.2341 19.3788L11.8049 18.6722Z" fill="#F5841F"/>
<path d="M17.8172 25.2383L17.8516 24.4458L17.6277 24.2735H14.3716L14.1649 24.4458L14.1821 25.2383L11.4601 23.9634L12.4076 24.7387L14.3371 26.0652H17.6449L19.5917 24.7387L20.5392 23.9634L17.8172 25.2383Z" fill="#C0AD9E"/>
<path d="M17.6106 22.567L17.1971 22.2913H14.8024L14.3889 22.567L14.165 24.4448L14.3717 24.2725H17.6278L17.8518 24.4448L17.6106 22.567Z" fill="#2F343B"/>
<path d="M26.2764 12.6223L27 9.15814L25.9146 5.93526L17.6108 12.0019L20.7979 14.6732L25.3117 15.9831L26.3109 14.8283L25.8802 14.5181L26.5693 13.8977L26.0352 13.5013L26.7244 12.967L26.2764 12.6223Z" fill="#763E1A"/>
<path d="M4.99973 9.15814L5.7233 12.6223L5.25814 12.967L5.96449 13.5013L5.43042 13.8977L6.11954 14.5181L5.68884 14.8283L6.68806 15.9831L11.2018 14.6732L14.3889 12.0019L6.08509 5.93526L4.99973 9.15814Z" fill="#763E1A"/>
<path d="M25.3111 15.9833L20.7974 14.6735L22.1584 16.7072L20.1255 20.6195L22.813 20.585H26.8272L25.3111 15.9833Z" fill="#F5841F"/>
<path d="M11.2014 14.6732L6.68766 15.983L5.1716 20.5846H9.18571L11.8733 20.6191L9.84037 16.7069L11.2014 14.6732Z" fill="#F5841F"/>
<path d="M17.3181 16.9309L17.611 12.0017L18.9203 8.50312H13.08L14.3893 12.0017L14.6822 16.9309L14.7856 18.4647L14.8028 22.2908H17.1975L17.2147 18.4647L17.3181 16.9309Z" fill="#F5841F"/>
</svg>
