<svg version="1.1" id="Layer_1" xmlns:x="ns_extend;" xmlns:i="ns_ai;" xmlns:graph="ns_graphs;" xmlns="http://www.w3.org/2000/svg" xmlns:xlink="http://www.w3.org/1999/xlink" x="0px" y="0px" viewBox="0 0 43 43" style="enable-background:new 0 0 43 43;" xml:space="preserve" width="32" height="32">
 <style type="text/css">
  .st0{fill:url(#SVGID_1_);}
	.st1{fill:url(#SVGID_2_);}
 </style>
 <metadata>
  <sfw xmlns="ns_sfw;">
   <slices>
   </slices>
   <sliceSourceBounds bottomLeftOrigin="true" height="43" width="43" x="-19.4" y="-4.5">
   </sliceSourceBounds>
  </sfw>
 </metadata>
 <g>
  <linearGradient id="SVGID_1_" gradientUnits="userSpaceOnUse" x1="21.5" y1="45" x2="21.5" y2="2" gradientTransform="matrix(1 0 0 -1 0 45)">
   <stop offset="0" style="stop-color:#534BB1">
   </stop>
   <stop offset="1" style="stop-color:#551BF9">
   </stop>
  </linearGradient>
  <circle class="st0" cx="21.5" cy="21.5" r="21.5">
  </circle>
  <linearGradient id="SVGID_2_" gradientUnits="userSpaceOnUse" x1="21.9575" y1="37.2234" x2="21.9575" y2="8.8617" gradientTransform="matrix(1 0 0 -1 0 45)">
   <stop offset="0" style="stop-color:#FFFFFF">
   </stop>
   <stop offset="1" style="stop-color:#FFFFFF;stop-opacity:0.82">
   </stop>
  </linearGradient>
  <path class="st1" d="M36.9,21.8h-3.8c0-7.7-6.3-14-14-14c-7.7,0-13.9,6.1-14,13.7c-0.2,7.8,7.2,14.7,15.1,14.7h1
		c6.9,0,16.3-5.4,17.7-12C39.1,22.9,38.1,21.8,36.9,21.8z M13.4,22.1c0,1-0.8,1.9-1.9,1.9c-1,0-1.9-0.8-1.9-1.9v-3
		c0-1,0.8-1.9,1.9-1.9c1,0,1.9,0.8,1.9,1.9V22.1z M20,22.1c0,1-0.8,1.9-1.9,1.9c-1,0-1.9-0.8-1.9-1.9v-3c0-1,0.8-1.9,1.9-1.9
		c1,0,1.9,0.8,1.9,1.9V22.1z">
  </path>
 </g>
</svg>