<svg width="25" height="25" viewBox="0 0 25 25" fill="none" xmlns="http://www.w3.org/2000/svg">
<path d="M0 12C0 5.37258 5.37258 0 12 0C18.6274 0 24 5.37258 24 12C24 18.6274 18.6274 24 12 24C5.37258 24 0 18.6274 0 12Z" fill="#241560"/>
<path d="M19.0562 7.25458C18.8987 6.67145 18.3929 6.08832 17.4823 5.43918C16.7515 4.92206 15.9758 4.625 15.3575 4.625C15.2338 4.625 15.1214 4.636 15.009 4.65801C14.728 4.71302 14.4806 4.91106 14.3233 5.20813C14.1321 5.5602 14.0872 6.03331 14.2108 6.31937C14.2558 6.40738 14.312 6.51741 14.3794 6.61643C13.7836 6.96851 13.4463 7.06753 13.4014 7.07853C14.9528 7.58464 16.2456 8.64087 17.0551 10.0162L17.0663 9.88414C17.1001 9.52106 17.2125 9.10297 17.3699 8.67388C17.5272 8.71789 17.6846 8.7399 17.842 8.7399C18.258 8.7399 18.6177 8.57486 18.8426 8.2778C19.0674 7.98073 19.1573 7.58464 19.0562 7.25458Z" fill="#5E12A0"/>
<path d="M17.4375 8.35476C18.4605 8.62981 18.8764 7.85965 18.7415 7.34254C18.5953 6.82542 18.1232 6.29731 17.2912 5.70318C16.4594 5.10905 15.6162 4.867 15.0766 4.97702C14.537 5.08704 14.3796 5.89022 14.5145 6.19828C14.5707 6.31931 14.6943 6.49535 14.863 6.69339C14.6494 6.83643 14.447 6.94645 14.2784 7.04547C15.3127 7.49657 16.2121 8.20072 16.8865 9.08092C16.9652 8.78385 17.0777 8.51979 17.1789 8.28874C17.2575 8.29974 17.3475 8.32175 17.4375 8.35476Z" fill="url(#paint0_radial_17978_432)"/>
<path d="M11.5799 19.1367C15.0507 19.1367 17.8642 16.3831 17.8642 12.9864C17.8642 9.58963 15.0507 6.83603 11.5799 6.83603C8.10921 6.83603 5.29562 9.58963 5.29562 12.9864C5.29562 16.3831 8.10921 19.1367 11.5799 19.1367Z" fill="url(#paint1_radial_17978_432)"/>
<path opacity="0.6" d="M18.225 6.8361C17.3706 5.95591 16.651 5.72486 15.7854 5.53782C15.1109 5.38378 15.2908 5.0097 16.1114 5.08672C15.718 4.95469 15.347 4.92168 15.0772 4.97669C14.5375 5.08672 14.3802 5.88989 14.5151 6.19796C14.5712 6.31898 14.6949 6.49502 14.8636 6.69307C14.56 6.89111 14.3015 7.03414 14.0878 7.14417C14.1891 7.18818 14.3127 7.24319 14.4588 7.3202C14.8411 7.51825 15.257 7.84832 15.257 7.84832C14.6275 7.3202 14.7624 7.07815 15.628 6.48402C15.8979 6.29698 16.3925 6.31898 16.8534 6.55004C17.3144 6.78109 17.854 7.36421 17.854 7.36421L17.3368 8.33242C17.3706 8.34342 17.4043 8.35443 17.438 8.36543C17.764 8.45345 18.0226 8.43144 18.225 8.35443C18.4611 8.2114 19.0794 7.7273 18.225 6.8361Z" fill="#A98698"/>
<path d="M15.7733 6.06608C15.9981 6.1541 16.2904 6.30814 16.6502 6.53919C17.0773 6.81425 17.4483 7.12232 17.6844 7.36437C17.2909 7.87048 17.0324 8.56363 16.875 9.04773C16.9537 9.15776 17.0436 9.26778 17.1223 9.3778C17.201 9.10275 17.3359 8.69566 17.5158 8.28857C17.5608 8.29957 17.617 8.29957 17.6732 8.29957C17.8081 8.29957 17.9655 8.27757 18.0892 8.17854C18.1791 8.11253 18.2803 7.9915 18.269 7.77146C18.269 7.56241 18.1004 7.29836 17.7519 6.97928C17.5046 6.74824 17.1673 6.49518 16.83 6.26413C15.8632 5.63699 15.1887 5.46095 14.8851 5.75802C14.6828 5.95606 14.7053 6.19812 14.7727 6.37415C14.413 6.6052 14.1094 6.77024 13.9071 6.88026C14.042 6.92427 14.1657 6.97928 14.3006 7.03429C14.6603 6.84726 15.1774 6.52818 15.7733 6.06608ZM17.898 7.63943C17.9317 7.69444 17.943 7.74945 17.943 7.78246C17.943 7.88148 17.9093 7.91448 17.8868 7.93649C17.8419 7.9695 17.7519 7.9915 17.6732 7.9915C17.7406 7.85948 17.8193 7.74945 17.898 7.63943ZM15.1212 6.00007C15.155 5.96706 15.2449 5.94505 15.3911 5.96706C15.2787 6.05508 15.1662 6.1321 15.0538 6.20912C15.0425 6.1321 15.0538 6.05508 15.1212 6.00007Z" fill="#5E12A0"/>
<path d="M11.5803 6.47305C7.90409 6.47305 4.92493 9.38869 4.92493 12.9865C4.92493 16.5842 7.90409 19.4999 11.5803 19.4999C15.2564 19.4999 18.2355 16.5842 18.2355 12.9865C18.2355 9.38869 15.2452 6.47305 11.5803 6.47305ZM11.5803 19.1368C8.10645 19.1368 5.29592 16.3862 5.29592 12.9865C5.29592 9.58673 8.10645 6.83613 11.5803 6.83613C15.054 6.83613 17.8646 9.58673 17.8646 12.9865C17.8646 16.3862 15.0429 19.1368 11.5803 19.1368Z" fill="#5E12A0"/>
<path opacity="0.6" d="M11.5799 19.1367C15.0507 19.1367 17.8642 16.3831 17.8642 12.9864C17.8642 9.58963 15.0507 6.83603 11.5799 6.83603C8.10921 6.83603 5.29562 9.58963 5.29562 12.9864C5.29562 16.3831 8.10921 19.1367 11.5799 19.1367Z" fill="url(#paint2_linear_17978_432)"/>
<path opacity="0.6" d="M11.5352 18.3885C8.10632 17.8494 5.77921 14.6917 6.34131 11.336C6.58864 9.85065 7.3531 8.58537 8.43234 7.67218C6.85845 8.56337 5.68927 10.1147 5.37449 12.0071C4.82363 15.3628 7.15074 18.5205 10.5683 19.0597C12.4795 19.3677 14.3232 18.7846 15.6835 17.6404C14.4806 18.3225 13.0191 18.6196 11.5352 18.3885Z" fill="#A98698"/>
<path opacity="0.6" d="M12.5808 6.92453C10.9956 6.67148 9.45544 7.02355 8.19632 7.80472C8.17383 7.82672 8.15135 7.84873 8.15135 7.84873C8.63476 7.56267 9.34301 7.30961 9.34301 7.30961C7.52179 8.34383 6.95969 9.52109 6.95969 9.52109C7.66794 8.1788 9.74773 7.2326 11.3778 7.16658C13.0079 7.10057 14.0759 7.57367 15.38 8.59689C16.6841 9.63112 17.4711 11.7435 17.3924 13.4159C17.3249 15.0883 16.4255 16.4416 16.4255 16.4416C17.0438 15.6604 17.4148 15.0883 17.6509 14.5052C17.6959 14.3291 17.7409 14.1531 17.7633 13.966C18.3255 10.6213 16.0096 7.46364 12.5808 6.92453Z" fill="url(#paint3_linear_17978_432)"/>
<path d="M17.5488 12.931C17.5488 16.1547 14.8732 18.7733 11.5793 18.7733C8.28532 18.7733 5.59846 16.1547 5.59846 12.931H17.5488Z" fill="url(#paint4_linear_17978_432)"/>
<g opacity="0.6">
<path opacity="0.6" d="M17.0772 12.9316C17.0772 16.0783 14.5365 18.6528 11.3438 18.7739C11.4225 18.7739 11.5012 18.7739 11.5799 18.7739C14.8738 18.7739 17.5494 16.1553 17.5494 12.9316H17.0772Z" fill="url(#paint5_linear_17978_432)"/>
</g>
<g opacity="0.7">
<path opacity="0.7" d="M6.44384 12.9316H5.60068C5.60068 16.1553 8.2763 18.7739 11.5702 18.7739C11.7164 18.7739 11.8513 18.7739 11.9862 18.7628C8.89461 18.5428 6.44384 16.0123 6.44384 12.9316Z" fill="url(#paint6_linear_17978_432)"/>
</g>
<path d="M17.5376 12.9868C17.5376 12.3157 16.3459 11.9305 14.7607 11.7986C13.614 11.7105 12.4562 11.8205 11.1296 12.2166C9.98287 12.5467 8.9486 12.4917 8.19538 12.4036C6.5203 12.2166 5.59846 12.1946 5.59846 12.9868C5.59846 14.1311 7.98178 15.5613 11.5568 15.0662C13.3667 14.8132 14.2998 14.2961 15.3678 13.944C16.5258 13.5699 17.5376 13.5809 17.5376 12.9868Z" fill="url(#paint7_linear_17978_432)"/>
<path d="M13.537 10.2148C14.0957 10.2148 14.5485 9.77147 14.5485 9.22459C14.5485 8.67771 14.0957 8.23438 13.537 8.23438C12.9784 8.23438 12.5255 8.67771 12.5255 9.22459C12.5255 9.77147 12.9784 10.2148 13.537 10.2148Z" fill="white"/>
<path d="M15.1884 10.9515C15.4243 10.9515 15.6155 10.7643 15.6155 10.5334C15.6155 10.3025 15.4243 10.1153 15.1884 10.1153C14.9526 10.1153 14.7613 10.3025 14.7613 10.5334C14.7613 10.7643 14.9526 10.9515 15.1884 10.9515Z" fill="white"/>
<g opacity="0.6">
<path opacity="0.6" d="M16.7159 8.43209C16.7046 8.43209 16.6934 8.43209 16.6934 8.43209C16.6259 8.42109 16.581 8.35507 16.5922 8.27805C16.6934 7.77194 17.1205 7.28784 17.143 7.26583C17.1879 7.21082 17.2778 7.21082 17.3228 7.25483C17.3789 7.29884 17.3789 7.38686 17.334 7.43087C17.3228 7.44187 16.9294 7.89297 16.8395 8.33307C16.8283 8.39908 16.7721 8.43209 16.7159 8.43209Z" fill="url(#paint8_linear_17978_432)"/>
</g>
<path opacity="0.2" d="M11.1663 17.5746C11.3401 17.5746 11.481 17.4367 11.481 17.2666C11.481 17.0964 11.3401 16.9585 11.1663 16.9585C10.9925 16.9585 10.8516 17.0964 10.8516 17.2666C10.8516 17.4367 10.9925 17.5746 11.1663 17.5746Z" fill="white"/>
<g opacity="0.4">
<path opacity="0.6" d="M10.9868 17.4671C10.8632 17.3461 10.8632 17.1481 10.9868 17.0271C11.0093 17.005 11.0317 16.994 11.0542 16.972C11.0093 16.9831 10.9755 17.005 10.9418 17.038C10.8182 17.1591 10.8182 17.3571 10.9418 17.4781C11.043 17.5772 11.2003 17.5992 11.3239 17.5332C11.2116 17.5772 11.0767 17.5552 10.9868 17.4671Z" fill="url(#paint9_linear_17978_432)"/>
</g>
<path opacity="0.3" d="M11.2767 17.1777C11.314 17.1777 11.3442 17.1483 11.3442 17.1121C11.3442 17.0758 11.314 17.0465 11.2767 17.0465C11.2395 17.0465 11.2093 17.0758 11.2093 17.1121C11.2093 17.1483 11.2395 17.1777 11.2767 17.1777Z" fill="white"/>
<path opacity="0.2" d="M12.8075 17.4211C12.9813 17.4211 13.1222 17.2832 13.1222 17.113C13.1222 16.9429 12.9813 16.805 12.8075 16.805C12.6337 16.805 12.4928 16.9429 12.4928 17.113C12.4928 17.2832 12.6337 17.4211 12.8075 17.4211Z" fill="white"/>
<g opacity="0.4">
<path opacity="0.6" d="M12.6256 17.3122C12.5019 17.1912 12.5019 16.9931 12.6256 16.872C12.648 16.8501 12.6705 16.839 12.693 16.8171C12.648 16.8281 12.6143 16.8501 12.5806 16.8831C12.457 17.0041 12.457 17.2021 12.5806 17.3232C12.6818 17.4222 12.8391 17.4442 12.9627 17.3782C12.8503 17.4222 12.7155 17.4002 12.6256 17.3122Z" fill="url(#paint10_linear_17978_432)"/>
</g>
<path opacity="0.3" d="M12.9186 17.0232C12.9558 17.0232 12.986 16.9939 12.986 16.9576C12.986 16.9215 12.9558 16.8921 12.9186 16.8921C12.8814 16.8921 12.8512 16.9215 12.8512 16.9576C12.8512 16.9939 12.8814 17.0232 12.9186 17.0232Z" fill="white"/>
<path opacity="0.2" d="M11.9967 18.136C12.1271 18.136 12.2328 18.0326 12.2328 17.905C12.2328 17.7773 12.1271 17.6739 11.9967 17.6739C11.8664 17.6739 11.7607 17.7773 11.7607 17.905C11.7607 18.0326 11.8664 18.136 11.9967 18.136Z" fill="white"/>
<g opacity="0.4">
<path opacity="0.6" d="M11.8606 18.0496C11.7707 17.9616 11.7707 17.8076 11.8606 17.7195C11.8719 17.7086 11.8943 17.6976 11.9056 17.6865C11.8719 17.6976 11.8494 17.7195 11.8269 17.7416C11.737 17.8295 11.737 17.9836 11.8269 18.0716C11.9056 18.1486 12.018 18.1596 12.1191 18.1047C12.0292 18.1377 11.9281 18.1156 11.8606 18.0496Z" fill="url(#paint11_linear_17978_432)"/>
</g>
<path opacity="0.3" d="M12.0746 17.827C12.0994 17.827 12.1195 17.8074 12.1195 17.7833C12.1195 17.7591 12.0994 17.7395 12.0746 17.7395C12.0498 17.7395 12.0296 17.7591 12.0296 17.7833C12.0296 17.8074 12.0498 17.827 12.0746 17.827Z" fill="white"/>
<path opacity="0.2" d="M13.4455 17.9707C13.5758 17.9707 13.6815 17.8673 13.6815 17.7398C13.6815 17.6121 13.5758 17.5087 13.4455 17.5087C13.3152 17.5087 13.2095 17.6121 13.2095 17.7398C13.2095 17.8673 13.3152 17.9707 13.4455 17.9707Z" fill="white"/>
<g opacity="0.4">
<path opacity="0.6" d="M13.313 17.8851C13.2231 17.7971 13.2231 17.6431 13.313 17.555C13.3242 17.544 13.3467 17.5331 13.358 17.522C13.3242 17.5331 13.3017 17.555 13.2793 17.577C13.1893 17.665 13.1893 17.8191 13.2793 17.9071C13.358 17.9841 13.4703 17.9951 13.5715 17.9401C13.4816 17.9731 13.3804 17.9511 13.313 17.8851Z" fill="url(#paint12_linear_17978_432)"/>
</g>
<path opacity="0.3" d="M13.524 17.6623C13.5489 17.6623 13.569 17.6428 13.569 17.6186C13.569 17.5944 13.5489 17.5749 13.524 17.5749C13.4992 17.5749 13.4791 17.5944 13.4791 17.6186C13.4791 17.6428 13.4992 17.6623 13.524 17.6623Z" fill="white"/>
<path opacity="0.2" d="M9.826 17.4649C10.1115 17.4649 10.343 17.2383 10.343 16.9588C10.343 16.6793 10.1115 16.4527 9.826 16.4527C9.54048 16.4527 9.30902 16.6793 9.30902 16.9588C9.30902 17.2383 9.54048 17.4649 9.826 17.4649Z" fill="white"/>
<g opacity="0.4">
<path opacity="0.6" d="M9.5345 17.2773C9.3322 17.0792 9.3322 16.7601 9.5345 16.5621C9.56822 16.5291 9.60194 16.5071 9.64689 16.4851C9.57946 16.5071 9.52327 16.5511 9.46707 16.5952C9.26477 16.7931 9.26477 17.1122 9.46707 17.3103C9.63565 17.4753 9.89414 17.5083 10.0964 17.3873C9.90538 17.4643 9.6806 17.4313 9.5345 17.2773Z" fill="url(#paint13_linear_17978_432)"/>
</g>
<path opacity="0.3" d="M10.0049 16.8044C10.0669 16.8044 10.1173 16.7551 10.1173 16.6944C10.1173 16.6336 10.0669 16.5844 10.0049 16.5844C9.9428 16.5844 9.89249 16.6336 9.89249 16.6944C9.89249 16.7551 9.9428 16.8044 10.0049 16.8044Z" fill="white"/>
<path opacity="0.2" d="M14.4481 16.2214C14.7337 16.2214 14.9651 15.9948 14.9651 15.7153C14.9651 15.4358 14.7337 15.2092 14.4481 15.2092C14.1626 15.2092 13.9312 15.4358 13.9312 15.7153C13.9312 15.9948 14.1626 16.2214 14.4481 16.2214Z" fill="white"/>
<g opacity="0.4">
<path opacity="0.6" d="M14.1429 16.0347C13.9406 15.8366 13.9406 15.5176 14.1429 15.3196C14.1766 15.2866 14.2104 15.2645 14.2553 15.2425C14.1878 15.2645 14.1317 15.3085 14.0755 15.3526C13.8732 15.5506 13.8732 15.8697 14.0755 16.0677C14.2441 16.2328 14.5025 16.2658 14.7049 16.1447C14.5138 16.2218 14.3002 16.1888 14.1429 16.0347Z" fill="url(#paint14_linear_17978_432)"/>
</g>
<path opacity="0.3" d="M14.6283 15.5615C14.6904 15.5615 14.7407 15.5122 14.7407 15.4515C14.7407 15.3907 14.6904 15.3415 14.6283 15.3415C14.5662 15.3415 14.5159 15.3907 14.5159 15.4515C14.5159 15.5122 14.5662 15.5615 14.6283 15.5615Z" fill="white"/>
<path d="M11.4783 17.9783C11.4783 14.3884 14.3884 11.4783 17.9783 11.4783C21.5681 11.4783 24.4783 14.3884 24.4783 17.9783C24.4783 21.5681 21.5681 24.4783 17.9783 24.4783C14.3884 24.4783 11.4783 21.5681 11.4783 17.9783Z" fill="#241560"/>
<path d="M21.8003 15.4078C21.7151 15.092 21.4411 14.7761 20.9478 14.4245C20.552 14.1444 20.1318 13.9835 19.7969 13.9835C19.7299 13.9835 19.669 13.9894 19.6081 14.0014C19.4559 14.0312 19.3219 14.1384 19.2367 14.2994C19.1332 14.4901 19.1088 14.7463 19.1758 14.9013C19.2001 14.9489 19.2306 15.0085 19.2671 15.0622C18.9444 15.2529 18.7617 15.3065 18.7373 15.3125C19.5777 15.5866 20.278 16.1588 20.7164 16.9037L20.7225 16.8322C20.7408 16.6355 20.8017 16.4091 20.8869 16.1766C20.9722 16.2005 21.0574 16.2124 21.1427 16.2124C21.368 16.2124 21.5629 16.123 21.6847 15.9621C21.8064 15.8012 21.8551 15.5866 21.8003 15.4078Z" fill="#5E12A0"/>
<path d="M20.9235 16.0038C21.4777 16.1528 21.703 15.7356 21.6299 15.4555C21.5507 15.1754 21.295 14.8893 20.8443 14.5675C20.3937 14.2457 19.9371 14.1146 19.6447 14.1742C19.3525 14.2338 19.2672 14.6688 19.3403 14.8357C19.3707 14.9013 19.4377 14.9966 19.529 15.1039C19.4134 15.1814 19.3037 15.241 19.2124 15.2946C19.7726 15.5389 20.2598 15.9204 20.6251 16.3971C20.6678 16.2362 20.7287 16.0932 20.7835 15.968C20.8261 15.974 20.8748 15.9859 20.9235 16.0038Z" fill="url(#paint15_radial_17978_432)"/>
<path d="M17.7507 21.844C19.6307 21.844 21.1547 20.3524 21.1547 18.5126C21.1547 16.6727 19.6307 15.1811 17.7507 15.1811C15.8707 15.1811 14.3467 16.6727 14.3467 18.5126C14.3467 20.3524 15.8707 21.844 17.7507 21.844Z" fill="url(#paint16_radial_17978_432)"/>
<path opacity="0.6" d="M21.3501 15.1812C20.8873 14.7044 20.4976 14.5793 20.0287 14.478C19.6633 14.3945 19.7608 14.1919 20.2053 14.2336C19.9922 14.1621 19.7912 14.1442 19.6451 14.174C19.3527 14.2336 19.2675 14.6687 19.3406 14.8355C19.371 14.9011 19.438 14.9964 19.5294 15.1037C19.365 15.211 19.2249 15.2885 19.1092 15.3481C19.164 15.3719 19.231 15.4017 19.3101 15.4434C19.5172 15.5507 19.7425 15.7295 19.7425 15.7295C19.4015 15.4434 19.4745 15.3123 19.9434 14.9905C20.0896 14.8892 20.3575 14.9011 20.6072 15.0262C20.8569 15.1514 21.1492 15.4672 21.1492 15.4672L20.869 15.9917C20.8873 15.9977 20.9056 16.0036 20.9238 16.0096C21.1004 16.0573 21.2405 16.0453 21.3501 16.0036C21.478 15.9261 21.8129 15.6639 21.3501 15.1812Z" fill="#A98698"/>
<path d="M20.0221 14.7641C20.1439 14.8118 20.3022 14.8952 20.4971 15.0203C20.7285 15.1693 20.9294 15.3362 21.0573 15.4673C20.8442 15.7415 20.7041 16.1169 20.6189 16.3791C20.6615 16.4387 20.7102 16.4983 20.7529 16.5579C20.7955 16.4089 20.8685 16.1884 20.966 15.9679C20.9903 15.9739 21.0208 15.9739 21.0512 15.9739C21.1243 15.9739 21.2096 15.962 21.2766 15.9083C21.3252 15.8726 21.3801 15.807 21.374 15.6878C21.374 15.5746 21.2827 15.4316 21.0939 15.2587C20.9599 15.1336 20.7772 14.9965 20.5945 14.8714C20.0708 14.5317 19.7055 14.4363 19.541 14.5972C19.4315 14.7045 19.4436 14.8356 19.4801 14.9309C19.2853 15.0561 19.1209 15.1455 19.0113 15.2051C19.0843 15.2289 19.1513 15.2587 19.2244 15.2885C19.4193 15.1872 19.6994 15.0144 20.0221 14.7641ZM21.173 15.6163C21.1913 15.6461 21.1974 15.6759 21.1974 15.6938C21.1974 15.7474 21.1791 15.7653 21.1669 15.7772C21.1426 15.7951 21.0939 15.807 21.0512 15.807C21.0878 15.7355 21.1304 15.6759 21.173 15.6163ZM19.6689 14.7283C19.6872 14.7104 19.7359 14.6985 19.8151 14.7104C19.7542 14.7581 19.6933 14.7998 19.6324 14.8416C19.6263 14.7998 19.6324 14.7581 19.6689 14.7283Z" fill="#5E12A0"/>
<path d="M17.7509 14.9845C15.7596 14.9845 14.1459 16.5638 14.1459 18.5126C14.1459 20.4614 15.7596 22.0407 17.7509 22.0407C19.7422 22.0407 21.3558 20.4614 21.3558 18.5126C21.3558 16.5638 19.7361 14.9845 17.7509 14.9845ZM17.7509 21.8441C15.8693 21.8441 14.3469 20.3542 14.3469 18.5126C14.3469 16.6711 15.8693 15.1812 17.7509 15.1812C19.6325 15.1812 21.1549 16.6711 21.1549 18.5126C21.1549 20.3542 19.6265 21.8441 17.7509 21.8441Z" fill="#5E12A0"/>
<path opacity="0.6" d="M17.7507 21.844C19.6307 21.844 21.1547 20.3524 21.1547 18.5126C21.1547 16.6727 19.6307 15.1811 17.7507 15.1811C15.8707 15.1811 14.3467 16.6727 14.3467 18.5126C14.3467 20.3524 15.8707 21.844 17.7507 21.844Z" fill="url(#paint17_linear_17978_432)"/>
<path opacity="0.6" d="M17.7265 21.4387C15.8692 21.1467 14.6087 19.4363 14.9131 17.6186C15.0471 16.814 15.4612 16.1287 16.0458 15.634C15.1933 16.1168 14.5599 16.9571 14.3894 17.9821C14.0911 19.7998 15.3516 21.5102 17.2028 21.8023C18.238 21.9691 19.2366 21.6533 19.9735 21.0335C19.3219 21.403 18.5303 21.5639 17.7265 21.4387Z" fill="#A98698"/>
<path opacity="0.6" d="M18.2928 15.2291C17.4342 15.092 16.6 15.2827 15.9179 15.7059C15.9058 15.7178 15.8936 15.7297 15.8936 15.7297C16.1554 15.5747 16.5391 15.4377 16.5391 15.4377C15.5526 15.9979 15.2481 16.6356 15.2481 16.6356C15.6317 15.9085 16.7583 15.396 17.6413 15.3602C18.5242 15.3244 19.1027 15.5807 19.8091 16.1349C20.5155 16.6952 20.9417 17.8394 20.8991 18.7453C20.8626 19.6511 20.3754 20.3842 20.3754 20.3842C20.7103 19.961 20.9113 19.6511 21.0392 19.3353C21.0635 19.2399 21.0879 19.1446 21.1001 19.0432C21.4045 17.2315 20.1501 15.5211 18.2928 15.2291Z" fill="url(#paint18_linear_17978_432)"/>
<path d="M20.9838 18.4826C20.9838 20.2287 19.5346 21.6471 17.7504 21.6471C15.9661 21.6471 14.5108 20.2287 14.5108 18.4826H20.9838Z" fill="url(#paint19_linear_17978_432)"/>
<g opacity="0.6">
<path opacity="0.6" d="M20.7284 18.4829C20.7284 20.1874 19.3522 21.5819 17.6228 21.6475C17.6654 21.6475 17.7081 21.6475 17.7507 21.6475C19.5349 21.6475 20.9842 20.2291 20.9842 18.4829H20.7284Z" fill="url(#paint20_linear_17978_432)"/>
</g>
<g opacity="0.7">
<path opacity="0.7" d="M14.9687 18.4829H14.512C14.512 20.2291 15.9613 21.6475 17.7455 21.6475C17.8246 21.6475 17.8977 21.6475 17.9708 21.6415C16.2962 21.5223 14.9687 20.1516 14.9687 18.4829Z" fill="url(#paint21_linear_17978_432)"/>
</g>
<path d="M20.9778 18.5128C20.9778 18.1493 20.3323 17.9407 19.4737 17.8692C18.8525 17.8215 18.2253 17.8811 17.5068 18.0956C16.8856 18.2744 16.3254 18.2446 15.9174 18.1969C15.0101 18.0956 14.5108 18.0837 14.5108 18.5128C14.5108 19.1326 15.8017 19.9073 17.7382 19.6392C18.7186 19.5021 19.224 19.222 19.8025 19.0313C20.4297 18.8287 20.9778 18.8346 20.9778 18.5128Z" fill="url(#paint22_linear_17978_432)"/>
<path d="M18.8108 17.0113C19.1134 17.0113 19.3587 16.7712 19.3587 16.4749C19.3587 16.1787 19.1134 15.9386 18.8108 15.9386C18.5082 15.9386 18.2629 16.1787 18.2629 16.4749C18.2629 16.7712 18.5082 17.0113 18.8108 17.0113Z" fill="white"/>
<path d="M19.7053 17.4103C19.8331 17.4103 19.9367 17.3089 19.9367 17.1839C19.9367 17.0588 19.8331 16.9574 19.7053 16.9574C19.5776 16.9574 19.474 17.0588 19.474 17.1839C19.474 17.3089 19.5776 17.4103 19.7053 17.4103Z" fill="white"/>
<g opacity="0.6">
<path opacity="0.6" d="M20.5327 16.0457C20.5266 16.0457 20.5205 16.0457 20.5205 16.0457C20.484 16.0397 20.4597 16.0039 20.4657 15.9622C20.5205 15.6881 20.7518 15.4259 20.764 15.4139C20.7884 15.3841 20.8371 15.3841 20.8614 15.408C20.8919 15.4318 20.8919 15.4795 20.8675 15.5033C20.8614 15.5093 20.6483 15.7536 20.5997 15.992C20.5936 16.0278 20.5631 16.0457 20.5327 16.0457Z" fill="url(#paint23_linear_17978_432)"/>
</g>
<path opacity="0.2" d="M17.5267 20.9979C17.6208 20.9979 17.6971 20.9231 17.6971 20.831C17.6971 20.7388 17.6208 20.6641 17.5267 20.6641C17.4325 20.6641 17.3562 20.7388 17.3562 20.831C17.3562 20.9231 17.4325 20.9979 17.5267 20.9979Z" fill="white"/>
<g opacity="0.4">
<path opacity="0.6" d="M17.4294 20.9396C17.3625 20.8741 17.3625 20.7668 17.4294 20.7013C17.4416 20.6893 17.4538 20.6834 17.466 20.6714C17.4416 20.6774 17.4233 20.6893 17.4051 20.7072C17.3381 20.7728 17.3381 20.8801 17.4051 20.9456C17.4599 20.9992 17.5451 21.0112 17.6121 20.9754C17.5512 20.9992 17.4781 20.9873 17.4294 20.9396Z" fill="url(#paint24_linear_17978_432)"/>
</g>
<path opacity="0.3" d="M17.5865 20.7829C17.6067 20.7829 17.623 20.767 17.623 20.7473C17.623 20.7277 17.6067 20.7118 17.5865 20.7118C17.5663 20.7118 17.55 20.7277 17.55 20.7473C17.55 20.767 17.5663 20.7829 17.5865 20.7829Z" fill="white"/>
<path opacity="0.2" d="M18.4156 20.9147C18.5098 20.9147 18.5861 20.84 18.5861 20.7478C18.5861 20.6557 18.5098 20.581 18.4156 20.581C18.3215 20.581 18.2452 20.6557 18.2452 20.7478C18.2452 20.84 18.3215 20.9147 18.4156 20.9147Z" fill="white"/>
<g opacity="0.4">
<path opacity="0.6" d="M18.3171 20.8557C18.2501 20.7901 18.2501 20.6829 18.3171 20.6173C18.3293 20.6054 18.3415 20.5994 18.3536 20.5875C18.3293 20.5935 18.311 20.6054 18.2927 20.6233C18.2258 20.6888 18.2258 20.7961 18.2927 20.8617C18.3476 20.9153 18.4328 20.9272 18.4997 20.8914C18.4389 20.9153 18.3658 20.9034 18.3171 20.8557Z" fill="url(#paint25_linear_17978_432)"/>
</g>
<path opacity="0.3" d="M18.4758 20.6992C18.496 20.6992 18.5123 20.6833 18.5123 20.6637C18.5123 20.6441 18.496 20.6282 18.4758 20.6282C18.4557 20.6282 18.4393 20.6441 18.4393 20.6637C18.4393 20.6833 18.4557 20.6992 18.4758 20.6992Z" fill="white"/>
<path opacity="0.2" d="M17.9765 21.3019C18.0471 21.3019 18.1043 21.2459 18.1043 21.1768C18.1043 21.1077 18.0471 21.0517 17.9765 21.0517C17.9059 21.0517 17.8486 21.1077 17.8486 21.1768C17.8486 21.2459 17.9059 21.3019 17.9765 21.3019Z" fill="white"/>
<g opacity="0.4">
<path opacity="0.6" d="M17.9028 21.2552C17.8541 21.2075 17.8541 21.1241 17.9028 21.0764C17.9089 21.0704 17.921 21.0645 17.9271 21.0585C17.9089 21.0645 17.8967 21.0764 17.8845 21.0883C17.8358 21.136 17.8358 21.2194 17.8845 21.2671C17.9271 21.3088 17.988 21.3148 18.0428 21.285C17.9941 21.3029 17.9393 21.2909 17.9028 21.2552Z" fill="url(#paint26_linear_17978_432)"/>
</g>
<path opacity="0.3" d="M18.0187 21.1346C18.0321 21.1346 18.043 21.124 18.043 21.1109C18.043 21.0978 18.0321 21.0872 18.0187 21.0872C18.0052 21.0872 17.9943 21.0978 17.9943 21.1109C17.9943 21.124 18.0052 21.1346 18.0187 21.1346Z" fill="white"/>
<path opacity="0.2" d="M18.7612 21.2124C18.8318 21.2124 18.8891 21.1564 18.8891 21.0873C18.8891 21.0182 18.8318 20.9622 18.7612 20.9622C18.6907 20.9622 18.6334 21.0182 18.6334 21.0873C18.6334 21.1564 18.6907 21.2124 18.7612 21.2124Z" fill="white"/>
<g opacity="0.4">
<path opacity="0.6" d="M18.6895 21.166C18.6408 21.1183 18.6408 21.0349 18.6895 20.9872C18.6956 20.9813 18.7077 20.9753 18.7138 20.9694C18.6956 20.9753 18.6834 20.9872 18.6712 20.9992C18.6225 21.0468 18.6225 21.1303 18.6712 21.178C18.7138 21.2197 18.7747 21.2256 18.8295 21.1958C18.7808 21.2137 18.726 21.2018 18.6895 21.166Z" fill="url(#paint27_linear_17978_432)"/>
</g>
<path opacity="0.3" d="M18.8038 21.0454C18.8172 21.0454 18.8281 21.0348 18.8281 21.0217C18.8281 21.0086 18.8172 20.998 18.8038 20.998C18.7903 20.998 18.7794 21.0086 18.7794 21.0217C18.7794 21.0348 18.7903 21.0454 18.8038 21.0454Z" fill="white"/>
<path opacity="0.2" d="M16.8007 20.9385C16.9553 20.9385 17.0807 20.8157 17.0807 20.6643C17.0807 20.5129 16.9553 20.3902 16.8007 20.3902C16.646 20.3902 16.5206 20.5129 16.5206 20.6643C16.5206 20.8157 16.646 20.9385 16.8007 20.9385Z" fill="white"/>
<g opacity="0.4">
<path opacity="0.6" d="M16.6428 20.8368C16.5332 20.7295 16.5332 20.5567 16.6428 20.4495C16.661 20.4316 16.6793 20.4196 16.7037 20.4077C16.6671 20.4196 16.6367 20.4435 16.6063 20.4673C16.4967 20.5746 16.4967 20.7474 16.6063 20.8547C16.6976 20.9441 16.8376 20.962 16.9472 20.8964C16.8437 20.9381 16.7219 20.9202 16.6428 20.8368Z" fill="url(#paint28_linear_17978_432)"/>
</g>
<path opacity="0.3" d="M16.8976 20.5806C16.9312 20.5806 16.9584 20.554 16.9584 20.521C16.9584 20.4881 16.9312 20.4615 16.8976 20.4615C16.8639 20.4615 16.8367 20.4881 16.8367 20.521C16.8367 20.554 16.8639 20.5806 16.8976 20.5806Z" fill="white"/>
<path opacity="0.2" d="M19.3043 20.2649C19.459 20.2649 19.5844 20.1421 19.5844 19.9907C19.5844 19.8393 19.459 19.7166 19.3043 19.7166C19.1497 19.7166 19.0243 19.8393 19.0243 19.9907C19.0243 20.1421 19.1497 20.2649 19.3043 20.2649Z" fill="white"/>
<g opacity="0.4">
<path opacity="0.6" d="M19.139 20.1637C19.0294 20.0565 19.0294 19.8836 19.139 19.7764C19.1573 19.7585 19.1755 19.7466 19.1999 19.7346C19.1633 19.7466 19.1329 19.7704 19.1025 19.7942C18.9929 19.9015 18.9929 20.0743 19.1025 20.1816C19.1938 20.271 19.3338 20.2889 19.4434 20.2233C19.3399 20.2651 19.2242 20.2472 19.139 20.1637Z" fill="url(#paint29_linear_17978_432)"/>
</g>
<path opacity="0.3" d="M19.4019 19.9074C19.4355 19.9074 19.4628 19.8807 19.4628 19.8478C19.4628 19.8149 19.4355 19.7882 19.4019 19.7882C19.3683 19.7882 19.341 19.8149 19.341 19.8478C19.341 19.8807 19.3683 19.9074 19.4019 19.9074Z" fill="white"/>
<defs>
<radialGradient id="paint0_radial_17978_432" cx="0" cy="0" r="1" gradientUnits="userSpaceOnUse" gradientTransform="translate(18.5364 6.64938) scale(5.02458 4.91746)">
<stop stop-color="#FFEAFF" stop-opacity="0.6"/>
<stop offset="0.6807" stop-color="#A087C9"/>
<stop offset="1" stop-color="#10002F"/>
</radialGradient>
<radialGradient id="paint1_radial_17978_432" cx="0" cy="0" r="1" gradientUnits="userSpaceOnUse" gradientTransform="translate(17.2209 11.8941) scale(14.072 14.6472)">
<stop stop-color="#FFEAFF" stop-opacity="0.6"/>
<stop offset="0.6807" stop-color="#A087C9"/>
<stop offset="1" stop-color="#10002F"/>
</radialGradient>
<linearGradient id="paint2_linear_17978_432" x1="10.5719" y1="19.0495" x2="12.4993" y2="6.89996" gradientUnits="userSpaceOnUse">
<stop stop-color="#81FFFF"/>
<stop offset="0.6202" stop-color="white" stop-opacity="0"/>
</linearGradient>
<linearGradient id="paint3_linear_17978_432" x1="16.009" y1="8.80997" x2="10.915" y2="13.5857" gradientUnits="userSpaceOnUse">
<stop offset="0.2888" stop-color="white"/>
<stop offset="0.7796" stop-color="white" stop-opacity="0"/>
</linearGradient>
<linearGradient id="paint4_linear_17978_432" x1="5.60352" y1="15.8487" x2="17.5459" y2="15.8487" gradientUnits="userSpaceOnUse">
<stop stop-color="#0002E9"/>
<stop offset="0.9952" stop-color="#FF00C7"/>
</linearGradient>
<linearGradient id="paint5_linear_17978_432" x1="18.1118" y1="13.4442" x2="11.744" y2="19.5933" gradientUnits="userSpaceOnUse">
<stop offset="0.2888" stop-color="white"/>
<stop offset="0.7796" stop-color="white" stop-opacity="0"/>
</linearGradient>
<linearGradient id="paint6_linear_17978_432" x1="5.60574" y1="15.8493" x2="11.9949" y2="15.8493" gradientUnits="userSpaceOnUse">
<stop stop-color="#000292"/>
<stop offset="0.9952" stop-color="#7D00C7"/>
</linearGradient>
<linearGradient id="paint7_linear_17978_432" x1="5.61153" y1="13.4722" x2="17.5379" y2="13.4722" gradientUnits="userSpaceOnUse">
<stop stop-color="#000292"/>
<stop offset="0.9952" stop-color="#BE00C7"/>
</linearGradient>
<linearGradient id="paint8_linear_17978_432" x1="17.341" y1="7.21225" x2="16.5102" y2="8.59121" gradientUnits="userSpaceOnUse">
<stop offset="0.2888" stop-color="white"/>
<stop offset="0.7796" stop-color="white" stop-opacity="0"/>
</linearGradient>
<linearGradient id="paint9_linear_17978_432" x1="10.8488" y1="17.2785" x2="11.3243" y2="17.2785" gradientUnits="userSpaceOnUse">
<stop offset="0.2888" stop-color="white"/>
<stop offset="0.7796" stop-color="white" stop-opacity="0"/>
</linearGradient>
<linearGradient id="paint10_linear_17978_432" x1="12.4864" y1="17.1215" x2="12.9619" y2="17.1215" gradientUnits="userSpaceOnUse">
<stop offset="0.2888" stop-color="white"/>
<stop offset="0.7796" stop-color="white" stop-opacity="0"/>
</linearGradient>
<linearGradient id="paint11_linear_17978_432" x1="11.7532" y1="17.9088" x2="12.1102" y2="17.9088" gradientUnits="userSpaceOnUse">
<stop offset="0.2888" stop-color="white"/>
<stop offset="0.7796" stop-color="white" stop-opacity="0"/>
</linearGradient>
<linearGradient id="paint12_linear_17978_432" x1="13.2055" y1="17.7443" x2="13.5625" y2="17.7443" gradientUnits="userSpaceOnUse">
<stop offset="0.2888" stop-color="white"/>
<stop offset="0.7796" stop-color="white" stop-opacity="0"/>
</linearGradient>
<linearGradient id="paint13_linear_17978_432" x1="9.31019" y1="16.9711" x2="10.0867" y2="16.9711" gradientUnits="userSpaceOnUse">
<stop offset="0.2888" stop-color="white"/>
<stop offset="0.7796" stop-color="white" stop-opacity="0"/>
</linearGradient>
<linearGradient id="paint14_linear_17978_432" x1="13.9229" y1="15.7281" x2="14.6994" y2="15.7281" gradientUnits="userSpaceOnUse">
<stop offset="0.2888" stop-color="white"/>
<stop offset="0.7796" stop-color="white" stop-opacity="0"/>
</linearGradient>
<radialGradient id="paint15_radial_17978_432" cx="0" cy="0" r="1" gradientUnits="userSpaceOnUse" gradientTransform="translate(21.5188 15.08) scale(2.72165 2.66362)">
<stop stop-color="#FFEAFF" stop-opacity="0.6"/>
<stop offset="0.6807" stop-color="#A087C9"/>
<stop offset="1" stop-color="#10002F"/>
</radialGradient>
<radialGradient id="paint16_radial_17978_432" cx="0" cy="0" r="1" gradientUnits="userSpaceOnUse" gradientTransform="translate(20.8062 17.9209) scale(7.62235 7.93388)">
<stop stop-color="#FFEAFF" stop-opacity="0.6"/>
<stop offset="0.6807" stop-color="#A087C9"/>
<stop offset="1" stop-color="#10002F"/>
</radialGradient>
<linearGradient id="paint17_linear_17978_432" x1="17.2047" y1="21.7967" x2="18.2487" y2="15.2158" gradientUnits="userSpaceOnUse">
<stop stop-color="#81FFFF"/>
<stop offset="0.6202" stop-color="white" stop-opacity="0"/>
</linearGradient>
<linearGradient id="paint18_linear_17978_432" x1="20.1498" y1="16.2504" x2="17.3906" y2="18.8372" gradientUnits="userSpaceOnUse">
<stop offset="0.2888" stop-color="white"/>
<stop offset="0.7796" stop-color="white" stop-opacity="0"/>
</linearGradient>
<linearGradient id="paint19_linear_17978_432" x1="14.5135" y1="20.063" x2="20.9823" y2="20.063" gradientUnits="userSpaceOnUse">
<stop stop-color="#0002E9"/>
<stop offset="0.9952" stop-color="#FF00C7"/>
</linearGradient>
<linearGradient id="paint20_linear_17978_432" x1="21.2888" y1="18.7606" x2="17.8396" y2="22.0913" gradientUnits="userSpaceOnUse">
<stop offset="0.2888" stop-color="white"/>
<stop offset="0.7796" stop-color="white" stop-opacity="0"/>
</linearGradient>
<linearGradient id="paint21_linear_17978_432" x1="14.5147" y1="20.0633" x2="17.9755" y2="20.0633" gradientUnits="userSpaceOnUse">
<stop stop-color="#000292"/>
<stop offset="0.9952" stop-color="#7D00C7"/>
</linearGradient>
<linearGradient id="paint22_linear_17978_432" x1="14.5178" y1="18.7757" x2="20.9779" y2="18.7757" gradientUnits="userSpaceOnUse">
<stop stop-color="#000292"/>
<stop offset="0.9952" stop-color="#BE00C7"/>
</linearGradient>
<linearGradient id="paint23_linear_17978_432" x1="20.8713" y1="15.3849" x2="20.4213" y2="16.1318" gradientUnits="userSpaceOnUse">
<stop offset="0.2888" stop-color="white"/>
<stop offset="0.7796" stop-color="white" stop-opacity="0"/>
</linearGradient>
<linearGradient id="paint24_linear_17978_432" x1="17.3547" y1="20.8375" x2="17.6123" y2="20.8375" gradientUnits="userSpaceOnUse">
<stop offset="0.2888" stop-color="white"/>
<stop offset="0.7796" stop-color="white" stop-opacity="0"/>
</linearGradient>
<linearGradient id="paint25_linear_17978_432" x1="18.2418" y1="20.7524" x2="18.4993" y2="20.7524" gradientUnits="userSpaceOnUse">
<stop offset="0.2888" stop-color="white"/>
<stop offset="0.7796" stop-color="white" stop-opacity="0"/>
</linearGradient>
<linearGradient id="paint26_linear_17978_432" x1="17.8445" y1="21.1789" x2="18.0379" y2="21.1789" gradientUnits="userSpaceOnUse">
<stop offset="0.2888" stop-color="white"/>
<stop offset="0.7796" stop-color="white" stop-opacity="0"/>
</linearGradient>
<linearGradient id="paint27_linear_17978_432" x1="18.6313" y1="21.0898" x2="18.8246" y2="21.0898" gradientUnits="userSpaceOnUse">
<stop offset="0.2888" stop-color="white"/>
<stop offset="0.7796" stop-color="white" stop-opacity="0"/>
</linearGradient>
<linearGradient id="paint28_linear_17978_432" x1="16.5213" y1="20.671" x2="16.9419" y2="20.671" gradientUnits="userSpaceOnUse">
<stop offset="0.2888" stop-color="white"/>
<stop offset="0.7796" stop-color="white" stop-opacity="0"/>
</linearGradient>
<linearGradient id="paint29_linear_17978_432" x1="19.0198" y1="19.9977" x2="19.4405" y2="19.9977" gradientUnits="userSpaceOnUse">
<stop offset="0.2888" stop-color="white"/>
<stop offset="0.7796" stop-color="white" stop-opacity="0"/>
</linearGradient>
</defs>
</svg>
