<svg width="24" height="24" viewBox="0 0 24 24" fill="none" xmlns="http://www.w3.org/2000/svg">
<path d="M11 22C17.0751 22 22 17.0751 22 11C22 4.92487 17.0751 0 11 0C4.92487 0 0 4.92487 0 11C0 17.0751 4.92487 22 11 22Z" fill="#3E73C4"/>
<path d="M13.7653 12.4602C13.7653 11 12.8853 10.4995 11.1253 10.2905C9.8686 10.1234 9.61766 9.78998 9.61766 9.2056C9.61766 8.62123 10.037 8.2431 10.8744 8.2431C11.1721 8.19578 11.4768 8.25872 11.7313 8.42011C11.9859 8.5815 12.1728 8.83025 12.257 9.11966C12.2791 9.17984 12.319 9.23183 12.3715 9.26869C12.424 9.30554 12.4864 9.32551 12.5505 9.32591H13.2208C13.2596 9.32695 13.2981 9.32011 13.3341 9.30581C13.3701 9.2915 13.4028 9.27004 13.4302 9.24272C13.4577 9.2154 13.4793 9.18279 13.4938 9.14686C13.5082 9.11094 13.5153 9.07245 13.5144 9.03373V8.99248C13.4313 8.54048 13.2015 8.12849 12.8606 7.82027C12.5197 7.51205 12.0867 7.32479 11.6286 7.28748V6.2851C11.6286 6.11804 11.5028 5.99291 11.2938 5.95098H10.6647C10.4977 5.95098 10.3718 6.0761 10.3299 6.2851V7.2476C9.79302 7.26693 9.28324 7.4883 8.9026 7.86742C8.52195 8.24653 8.29852 8.75542 8.27703 9.29222C8.27703 10.6672 9.11441 11.211 10.8744 11.4235C12.048 11.6297 12.4247 11.8827 12.4247 12.5503C12.4247 13.2178 11.8383 13.6764 11.0422 13.6764C9.95247 13.6764 9.57572 13.2179 9.44991 12.5915C9.43714 12.5225 9.401 12.4599 9.34754 12.4143C9.29408 12.3687 9.22657 12.343 9.15635 12.3413H8.4441C8.40544 12.3403 8.36699 12.3473 8.33108 12.3616C8.29517 12.3759 8.26254 12.3974 8.23516 12.4247C8.20778 12.452 8.18623 12.4846 8.1718 12.5205C8.15738 12.5564 8.15037 12.5948 8.15122 12.6335V12.6747C8.22889 13.2155 8.49354 13.7121 8.8992 14.078C9.30487 14.444 9.82592 14.6563 10.3718 14.6781V15.675C10.3718 15.8413 10.4977 15.9672 10.7067 16.0084H11.3357C11.5028 16.0084 11.6286 15.8833 11.6705 15.675V14.6712C12.2303 14.6239 12.7531 14.3724 13.1393 13.9645C13.5256 13.5567 13.7484 13.021 13.7653 12.4595V12.4602Z" fill="white"/>
<path d="M8.86347 16.8437C7.65889 16.4073 6.61799 15.6104 5.88235 14.5614C5.14672 13.5124 4.75206 12.2623 4.75206 10.9811C4.75206 9.69985 5.14672 8.44974 5.88235 7.40076C6.61799 6.35178 7.65889 5.55487 8.86347 5.11841C8.94365 5.08379 9.01098 5.02492 9.05598 4.95007C9.10099 4.87522 9.12142 4.78816 9.11441 4.7011V4.11672C9.12004 4.04018 9.09771 3.9642 9.05156 3.90288C9.00541 3.84156 8.93858 3.79906 8.86347 3.78329C8.80446 3.77717 8.74516 3.79175 8.69572 3.82454C7.17208 4.30267 5.8408 5.2546 4.89566 6.54177C3.95052 7.82894 3.44086 9.38417 3.44086 10.9811C3.44086 12.578 3.95052 14.1332 4.89566 15.4204C5.8408 16.7075 7.17208 17.6595 8.69572 18.1376C8.73049 18.1578 8.76955 18.1695 8.80972 18.1717C8.84988 18.1739 8.88999 18.1666 8.92675 18.1503C8.96352 18.134 8.9959 18.1092 9.02123 18.0779C9.04656 18.0467 9.06412 18.0099 9.07247 17.9705C9.11441 17.9293 9.11441 17.8867 9.11441 17.8035V17.2191C9.10123 17.1424 9.07209 17.0694 9.02885 17.0047C8.98562 16.9401 8.92928 16.8852 8.86347 16.8437ZM13.3047 3.82523C13.2702 3.80442 13.2312 3.79212 13.191 3.78934C13.1508 3.78655 13.1105 3.79336 13.0734 3.80921C13.0364 3.82506 13.0036 3.84948 12.9778 3.88048C12.9521 3.91147 12.934 3.94814 12.9252 3.98748C12.8833 4.02941 12.8833 4.07135 12.8833 4.15454V4.74373C12.8903 4.82788 12.9165 4.9093 12.9601 4.98167C13.0036 5.05403 13.0632 5.11541 13.1342 5.16104C14.3388 5.59749 15.3797 6.39441 16.1153 7.44339C16.851 8.49236 17.2456 9.74248 17.2456 11.0237C17.2456 12.3049 16.851 13.555 16.1153 14.604C15.3797 15.653 14.3388 16.4499 13.1342 16.8864C13.054 16.921 12.9867 16.9798 12.9417 17.0547C12.8967 17.1295 12.8763 17.2166 12.8833 17.3037V17.888C12.8777 17.9646 12.9 18.0406 12.9461 18.1019C12.9923 18.1632 13.0591 18.2057 13.1342 18.2215C13.1932 18.2276 13.2525 18.213 13.302 18.1802C14.2449 17.8858 15.1203 17.4077 15.8777 16.7735C16.6352 16.1393 17.2597 15.3616 17.7153 14.485C18.1709 13.6085 18.4486 12.6505 18.5325 11.6662C18.6163 10.6819 18.5046 9.69075 18.2038 8.74979C17.8385 7.59769 17.203 6.54966 16.3503 5.69312C15.4976 4.83658 14.4524 4.19638 13.302 3.82591L13.3047 3.82523Z" fill="white"/>
<path d="M12 18C12 14.6863 14.6863 12 18 12C21.3137 12 24 14.6863 24 18C24 21.3137 21.3137 24 18 24C14.6863 24 12 21.3137 12 18Z" fill="#241560"/>
<path d="M21.5281 15.6273C21.4494 15.3357 21.1964 15.0442 20.7412 14.7196C20.3758 14.461 19.9879 14.3125 19.6788 14.3125C19.6169 14.3125 19.5607 14.318 19.5045 14.329C19.364 14.3565 19.2403 14.4555 19.1616 14.6041C19.0661 14.7801 19.0436 15.0167 19.1054 15.1597C19.1279 15.2037 19.156 15.2587 19.1897 15.3082C18.8918 15.4843 18.7232 15.5338 18.7007 15.5393C19.4764 15.7923 20.1228 16.3204 20.5275 17.0081L20.5332 16.9421C20.55 16.7605 20.6062 16.5515 20.6849 16.3369C20.7636 16.3589 20.8423 16.3699 20.921 16.3699C21.129 16.3699 21.3089 16.2874 21.4213 16.1389C21.5337 15.9904 21.5787 15.7923 21.5281 15.6273Z" fill="#5E12A0"/>
<path d="M20.7187 16.1774C21.2302 16.3149 21.4382 15.9298 21.3707 15.6713C21.2976 15.4127 21.0616 15.1487 20.6456 14.8516C20.2297 14.5545 19.8081 14.4335 19.5383 14.4885C19.2685 14.5435 19.1898 14.9451 19.2572 15.0991C19.2853 15.1597 19.3471 15.2477 19.4315 15.3467C19.3247 15.4182 19.2235 15.4732 19.1392 15.5227C19.6563 15.7483 20.106 16.1004 20.4432 16.5405C20.4826 16.3919 20.5388 16.2599 20.5894 16.1444C20.6287 16.1499 20.6737 16.1609 20.7187 16.1774Z" fill="url(#paint0_radial_10800_20840)"/>
<path d="M17.79 21.5683C19.5253 21.5683 20.9321 20.1915 20.9321 18.4932C20.9321 16.7948 19.5253 15.418 17.79 15.418C16.0546 15.418 14.6478 16.7948 14.6478 18.4932C14.6478 20.1915 16.0546 21.5683 17.79 21.5683Z" fill="url(#paint1_radial_10800_20840)"/>
<path opacity="0.6" d="M21.1125 15.418C20.6853 14.978 20.3255 14.8624 19.8927 14.7689C19.5555 14.6919 19.6454 14.5049 20.0557 14.5434C19.859 14.4773 19.6735 14.4608 19.5386 14.4883C19.2688 14.5434 19.1901 14.9449 19.2575 15.099C19.2856 15.1595 19.3475 15.2475 19.4318 15.3465C19.28 15.4456 19.1507 15.5171 19.0439 15.5721C19.0945 15.5941 19.1563 15.6216 19.2294 15.6601C19.4205 15.7591 19.6285 15.9242 19.6285 15.9242C19.3137 15.6601 19.3812 15.5391 19.814 15.242C19.9489 15.1485 20.1962 15.1595 20.4267 15.275C20.6572 15.3905 20.927 15.6821 20.927 15.6821L20.6684 16.1662C20.6853 16.1717 20.7021 16.1772 20.719 16.1827C20.882 16.2267 21.0113 16.2157 21.1125 16.1772C21.2305 16.1057 21.5397 15.8636 21.1125 15.418Z" fill="#A98698"/>
<path d="M19.8866 15.033C19.999 15.0771 20.1452 15.1541 20.3251 15.2696C20.5387 15.4071 20.7242 15.5612 20.8422 15.6822C20.6455 15.9352 20.5162 16.2818 20.4375 16.5239C20.4769 16.5789 20.5218 16.6339 20.5612 16.6889C20.6005 16.5514 20.6679 16.3478 20.7579 16.1443C20.7804 16.1498 20.8085 16.1498 20.8366 16.1498C20.904 16.1498 20.9827 16.1388 21.0446 16.0893C21.0895 16.0563 21.1401 15.9958 21.1345 15.8857C21.1345 15.7812 21.0502 15.6492 20.8759 15.4896C20.7523 15.3741 20.5837 15.2476 20.415 15.1321C19.9316 14.8185 19.5943 14.7305 19.4426 14.879C19.3414 14.978 19.3526 15.0991 19.3863 15.1871C19.2065 15.3026 19.0547 15.3851 18.9536 15.4401C19.021 15.4621 19.0828 15.4896 19.1503 15.5171C19.3301 15.4236 19.5887 15.2641 19.8866 15.033ZM20.949 15.8197C20.9659 15.8472 20.9715 15.8747 20.9715 15.8912C20.9715 15.9407 20.9546 15.9572 20.9434 15.9682C20.9209 15.9848 20.8759 15.9958 20.8366 15.9958C20.8703 15.9297 20.9097 15.8747 20.949 15.8197ZM19.5606 15C19.5775 14.9835 19.6225 14.9725 19.6955 14.9835C19.6393 15.0275 19.5831 15.066 19.5269 15.1046C19.5213 15.066 19.5269 15.0275 19.5606 15Z" fill="#5E12A0"/>
<path d="M17.7901 15.2365C15.952 15.2365 14.4625 16.6944 14.4625 18.4933C14.4625 20.2921 15.952 21.75 17.7901 21.75C19.6282 21.75 21.1178 20.2921 21.1178 18.4933C21.1178 16.6944 19.6226 15.2365 17.7901 15.2365ZM17.7901 21.5684C16.0532 21.5684 14.648 20.1931 14.648 18.4933C14.648 16.7934 16.0532 15.4181 17.7901 15.4181C19.527 15.4181 20.9323 16.7934 20.9323 18.4933C20.9323 20.1931 19.5214 21.5684 17.7901 21.5684Z" fill="#5E12A0"/>
<path opacity="0.6" d="M17.79 21.5683C19.5253 21.5683 20.9321 20.1915 20.9321 18.4932C20.9321 16.7948 19.5253 15.418 17.79 15.418C16.0546 15.418 14.6478 16.7948 14.6478 18.4932C14.6478 20.1915 16.0546 21.5683 17.79 21.5683Z" fill="url(#paint2_linear_10800_20840)"/>
<path opacity="0.6" d="M17.7676 21.1943C16.0532 20.9247 14.8896 19.3458 15.1706 17.668C15.2943 16.9253 15.6765 16.2927 16.2162 15.8361C15.4292 16.2817 14.8446 17.0574 14.6872 18.0036C14.4118 19.6814 15.5754 21.2603 17.2842 21.5298C18.2397 21.6839 19.1616 21.3923 19.8417 20.8202C19.2403 21.1612 18.5096 21.3098 17.7676 21.1943Z" fill="#A98698"/>
<path opacity="0.6" d="M18.2904 15.4623C17.4978 15.3358 16.7277 15.5118 16.0982 15.9024C16.0869 15.9134 16.0757 15.9244 16.0757 15.9244C16.3174 15.7813 16.6715 15.6548 16.6715 15.6548C15.7609 16.1719 15.4799 16.7606 15.4799 16.7606C15.834 16.0894 16.8739 15.6163 17.6889 15.5833C18.504 15.5503 19.038 15.7868 19.69 16.2985C20.3421 16.8156 20.7355 17.8718 20.6962 18.708C20.6625 19.5442 20.2128 20.2208 20.2128 20.2208C20.5219 19.8302 20.7074 19.5442 20.8255 19.2526C20.848 19.1646 20.8705 19.0766 20.8817 18.983C21.1627 17.3107 20.0048 15.7318 18.2904 15.4623Z" fill="url(#paint3_linear_10800_20840)"/>
<path d="M20.7744 18.4655C20.7744 20.0773 19.4366 21.3866 17.7896 21.3866C16.1427 21.3866 14.7992 20.0773 14.7992 18.4655H20.7744Z" fill="url(#paint4_linear_10800_20840)"/>
<g opacity="0.6">
<path opacity="0.6" d="M20.5386 18.4658C20.5386 20.0391 19.2683 21.3264 17.6719 21.3869C17.7112 21.3869 17.7506 21.3869 17.7899 21.3869C19.4369 21.3869 20.7747 20.0776 20.7747 18.4658H20.5386Z" fill="url(#paint5_linear_10800_20840)"/>
</g>
<g opacity="0.7">
<path opacity="0.7" d="M15.2219 18.4658H14.8003C14.8003 20.0776 16.1381 21.3869 17.7851 21.3869C17.8582 21.3869 17.9256 21.3869 17.9931 21.3814C16.4473 21.2714 15.2219 20.0061 15.2219 18.4658Z" fill="url(#paint6_linear_10800_20840)"/>
</g>
<path d="M20.7688 18.4934C20.7688 18.1578 20.173 17.9652 19.3804 17.8993C18.807 17.8552 18.2281 17.9102 17.5648 18.1083C16.9914 18.2733 16.4743 18.2458 16.0977 18.2018C15.2601 18.1083 14.7992 18.0973 14.7992 18.4934C14.7992 19.0655 15.9909 19.7807 17.7784 19.5331C18.6834 19.4066 19.1499 19.148 19.6839 18.972C20.2629 18.7849 20.7688 18.7904 20.7688 18.4934Z" fill="url(#paint7_linear_10800_20840)"/>
<path d="M18.7685 17.1074C19.0478 17.1074 19.2742 16.8857 19.2742 16.6123C19.2742 16.3389 19.0478 16.1172 18.7685 16.1172C18.4892 16.1172 18.2628 16.3389 18.2628 16.6123C18.2628 16.8857 18.4892 17.1074 18.7685 17.1074Z" fill="white"/>
<path d="M19.5942 17.4757C19.7121 17.4757 19.8077 17.3821 19.8077 17.2667C19.8077 17.1512 19.7121 17.0576 19.5942 17.0576C19.4763 17.0576 19.3807 17.1512 19.3807 17.2667C19.3807 17.3821 19.4763 17.4757 19.5942 17.4757Z" fill="white"/>
<g opacity="0.6">
<path opacity="0.6" d="M20.3579 16.216C20.3523 16.216 20.3467 16.216 20.3467 16.216C20.313 16.2105 20.2905 16.1775 20.2961 16.139C20.3467 15.886 20.5602 15.6439 20.5715 15.6329C20.5939 15.6054 20.6389 15.6054 20.6614 15.6274C20.6895 15.6494 20.6895 15.6934 20.667 15.7154C20.6614 15.7209 20.4647 15.9465 20.4198 16.1665C20.4141 16.1995 20.3861 16.216 20.3579 16.216Z" fill="url(#paint8_linear_10800_20840)"/>
</g>
<path opacity="0.2" d="M17.5831 20.7873C17.67 20.7873 17.7405 20.7183 17.7405 20.6333C17.7405 20.5482 17.67 20.4792 17.5831 20.4792C17.4962 20.4792 17.4258 20.5482 17.4258 20.6333C17.4258 20.7183 17.4962 20.7873 17.5831 20.7873Z" fill="white"/>
<g opacity="0.4">
<path opacity="0.6" d="M17.4934 20.7336C17.4316 20.6731 17.4316 20.5741 17.4934 20.5135C17.5046 20.5025 17.5159 20.497 17.5271 20.486C17.5046 20.4915 17.4878 20.5025 17.4709 20.519C17.4091 20.5796 17.4091 20.6786 17.4709 20.7391C17.5215 20.7886 17.6002 20.7996 17.662 20.7666C17.6058 20.7886 17.5384 20.7776 17.4934 20.7336Z" fill="url(#paint9_linear_10800_20840)"/>
</g>
<path opacity="0.3" d="M17.6384 20.5888C17.657 20.5888 17.6721 20.5741 17.6721 20.556C17.6721 20.5379 17.657 20.5232 17.6384 20.5232C17.6197 20.5232 17.6046 20.5379 17.6046 20.556C17.6046 20.5741 17.6197 20.5888 17.6384 20.5888Z" fill="white"/>
<path opacity="0.2" d="M18.4038 20.7106C18.4907 20.7106 18.5611 20.6416 18.5611 20.5565C18.5611 20.4715 18.4907 20.4025 18.4038 20.4025C18.3169 20.4025 18.2464 20.4715 18.2464 20.5565C18.2464 20.6416 18.3169 20.7106 18.4038 20.7106Z" fill="white"/>
<g opacity="0.4">
<path opacity="0.6" d="M18.3128 20.6561C18.251 20.5956 18.251 20.4966 18.3128 20.436C18.324 20.425 18.3353 20.4195 18.3465 20.4085C18.324 20.414 18.3072 20.425 18.2903 20.4415C18.2285 20.502 18.2285 20.6011 18.2903 20.6616C18.3409 20.7111 18.4195 20.7221 18.4814 20.6891C18.4252 20.7111 18.3578 20.7001 18.3128 20.6561Z" fill="url(#paint10_linear_10800_20840)"/>
</g>
<path opacity="0.3" d="M18.4593 20.5116C18.4779 20.5116 18.493 20.497 18.493 20.4788C18.493 20.4608 18.4779 20.4461 18.4593 20.4461C18.4407 20.4461 18.4256 20.4608 18.4256 20.4788C18.4256 20.497 18.4407 20.5116 18.4593 20.5116Z" fill="white"/>
<path opacity="0.2" d="M17.9983 21.068C18.0635 21.068 18.1164 21.0163 18.1164 20.9525C18.1164 20.8887 18.0635 20.837 17.9983 20.837C17.9332 20.837 17.8803 20.8887 17.8803 20.9525C17.8803 21.0163 17.9332 21.068 17.9983 21.068Z" fill="white"/>
<g opacity="0.4">
<path opacity="0.6" d="M17.9303 21.0248C17.8854 20.9808 17.8854 20.9038 17.9303 20.8598C17.9359 20.8543 17.9472 20.8488 17.9528 20.8433C17.9359 20.8488 17.9247 20.8598 17.9134 20.8708C17.8685 20.9148 17.8685 20.9918 17.9134 21.0358C17.9528 21.0743 18.009 21.0798 18.0596 21.0523C18.0146 21.0688 17.964 21.0578 17.9303 21.0248Z" fill="url(#paint11_linear_10800_20840)"/>
</g>
<path opacity="0.3" d="M18.0373 20.9135C18.0497 20.9135 18.0597 20.9037 18.0597 20.8916C18.0597 20.8796 18.0497 20.8698 18.0373 20.8698C18.0249 20.8698 18.0148 20.8796 18.0148 20.8916C18.0148 20.9037 18.0249 20.9135 18.0373 20.9135Z" fill="white"/>
<path opacity="0.2" d="M18.7227 20.9854C18.7879 20.9854 18.8408 20.9337 18.8408 20.8699C18.8408 20.806 18.7879 20.7543 18.7227 20.7543C18.6576 20.7543 18.6048 20.806 18.6048 20.8699C18.6048 20.9337 18.6576 20.9854 18.7227 20.9854Z" fill="white"/>
<g opacity="0.4">
<path opacity="0.6" d="M18.6565 20.9425C18.6115 20.8985 18.6115 20.8215 18.6565 20.7775C18.6621 20.772 18.6733 20.7665 18.679 20.761C18.6621 20.7665 18.6508 20.7775 18.6396 20.7885C18.5947 20.8325 18.5947 20.9095 18.6396 20.9535C18.679 20.992 18.7352 20.9975 18.7857 20.9701C18.7408 20.9866 18.6902 20.9755 18.6565 20.9425Z" fill="url(#paint12_linear_10800_20840)"/>
</g>
<path opacity="0.3" d="M18.762 20.8312C18.7745 20.8312 18.7845 20.8214 18.7845 20.8093C18.7845 20.7972 18.7745 20.7874 18.762 20.7874C18.7496 20.7874 18.7395 20.7972 18.7395 20.8093C18.7395 20.8214 18.7496 20.8312 18.762 20.8312Z" fill="white"/>
<path opacity="0.2" d="M16.913 20.7325C17.0558 20.7325 17.1715 20.6192 17.1715 20.4794C17.1715 20.3396 17.0558 20.2263 16.913 20.2263C16.7702 20.2263 16.6545 20.3396 16.6545 20.4794C16.6545 20.6192 16.7702 20.7325 16.913 20.7325Z" fill="white"/>
<g opacity="0.4">
<path opacity="0.6" d="M16.7673 20.6387C16.6661 20.5396 16.6661 20.3801 16.7673 20.2811C16.7841 20.2646 16.801 20.2536 16.8235 20.2426C16.7897 20.2536 16.7616 20.2756 16.7335 20.2976C16.6324 20.3966 16.6324 20.5561 16.7335 20.6552C16.8178 20.7377 16.9471 20.7542 17.0482 20.6937C16.9527 20.7322 16.8403 20.7157 16.7673 20.6387Z" fill="url(#paint13_linear_10800_20840)"/>
</g>
<path opacity="0.3" d="M17.0024 20.4022C17.0335 20.4022 17.0586 20.3776 17.0586 20.3472C17.0586 20.3168 17.0335 20.2922 17.0024 20.2922C16.9714 20.2922 16.9462 20.3168 16.9462 20.3472C16.9462 20.3776 16.9714 20.4022 17.0024 20.4022Z" fill="white"/>
<path opacity="0.2" d="M19.2241 20.1107C19.3669 20.1107 19.4826 19.9974 19.4826 19.8577C19.4826 19.7179 19.3669 19.6046 19.2241 19.6046C19.0813 19.6046 18.9656 19.7179 18.9656 19.8577C18.9656 19.9974 19.0813 20.1107 19.2241 20.1107Z" fill="white"/>
<g opacity="0.4">
<path opacity="0.6" d="M19.0715 20.0174C18.9703 19.9183 18.9703 19.7588 19.0715 19.6598C19.0883 19.6433 19.1052 19.6323 19.1277 19.6212C19.0939 19.6323 19.0658 19.6543 19.0378 19.6763C18.9366 19.7753 18.9366 19.9348 19.0378 20.0339C19.122 20.1164 19.2513 20.1329 19.3524 20.0724C19.2569 20.1109 19.1501 20.0944 19.0715 20.0174Z" fill="url(#paint14_linear_10800_20840)"/>
</g>
<path opacity="0.3" d="M19.3141 19.7808C19.3452 19.7808 19.3703 19.7561 19.3703 19.7257C19.3703 19.6953 19.3452 19.6707 19.3141 19.6707C19.2831 19.6707 19.2579 19.6953 19.2579 19.7257C19.2579 19.7561 19.2831 19.7808 19.3141 19.7808Z" fill="white"/>
<defs>
<radialGradient id="paint0_radial_10800_20840" cx="0" cy="0" r="1" gradientUnits="userSpaceOnUse" gradientTransform="translate(21.2682 15.3247) scale(2.51229 2.45873)">
<stop stop-color="#FFEAFF" stop-opacity="0.6"/>
<stop offset="0.6807" stop-color="#A087C9"/>
<stop offset="1" stop-color="#10002F"/>
</radialGradient>
<radialGradient id="paint1_radial_10800_20840" cx="0" cy="0" r="1" gradientUnits="userSpaceOnUse" gradientTransform="translate(20.6104 17.947) scale(7.03602 7.32358)">
<stop stop-color="#FFEAFF" stop-opacity="0.6"/>
<stop offset="0.6807" stop-color="#A087C9"/>
<stop offset="1" stop-color="#10002F"/>
</radialGradient>
<linearGradient id="paint2_linear_10800_20840" x1="17.2859" y1="21.5247" x2="18.2496" y2="15.45" gradientUnits="userSpaceOnUse">
<stop stop-color="#81FFFF"/>
<stop offset="0.6202" stop-color="white" stop-opacity="0"/>
</linearGradient>
<linearGradient id="paint3_linear_10800_20840" x1="20.0045" y1="16.405" x2="17.4575" y2="18.7929" gradientUnits="userSpaceOnUse">
<stop offset="0.2888" stop-color="white"/>
<stop offset="0.7796" stop-color="white" stop-opacity="0"/>
</linearGradient>
<linearGradient id="paint4_linear_10800_20840" x1="14.8018" y1="19.9243" x2="20.7729" y2="19.9243" gradientUnits="userSpaceOnUse">
<stop stop-color="#0002E9"/>
<stop offset="0.9952" stop-color="#FF00C7"/>
</linearGradient>
<linearGradient id="paint5_linear_10800_20840" x1="21.0559" y1="18.7221" x2="17.872" y2="21.7966" gradientUnits="userSpaceOnUse">
<stop offset="0.2888" stop-color="white"/>
<stop offset="0.7796" stop-color="white" stop-opacity="0"/>
</linearGradient>
<linearGradient id="paint6_linear_10800_20840" x1="14.8029" y1="19.9246" x2="17.9974" y2="19.9246" gradientUnits="userSpaceOnUse">
<stop stop-color="#000292"/>
<stop offset="0.9952" stop-color="#7D00C7"/>
</linearGradient>
<linearGradient id="paint7_linear_10800_20840" x1="14.8058" y1="18.7361" x2="20.7689" y2="18.7361" gradientUnits="userSpaceOnUse">
<stop stop-color="#000292"/>
<stop offset="0.9952" stop-color="#BE00C7"/>
</linearGradient>
<linearGradient id="paint8_linear_10800_20840" x1="20.6705" y1="15.6061" x2="20.2551" y2="16.2956" gradientUnits="userSpaceOnUse">
<stop offset="0.2888" stop-color="white"/>
<stop offset="0.7796" stop-color="white" stop-opacity="0"/>
</linearGradient>
<linearGradient id="paint9_linear_10800_20840" x1="17.4244" y1="20.6393" x2="17.6621" y2="20.6393" gradientUnits="userSpaceOnUse">
<stop offset="0.2888" stop-color="white"/>
<stop offset="0.7796" stop-color="white" stop-opacity="0"/>
</linearGradient>
<linearGradient id="paint10_linear_10800_20840" x1="18.2432" y1="20.5607" x2="18.481" y2="20.5607" gradientUnits="userSpaceOnUse">
<stop offset="0.2888" stop-color="white"/>
<stop offset="0.7796" stop-color="white" stop-opacity="0"/>
</linearGradient>
<linearGradient id="paint11_linear_10800_20840" x1="17.8766" y1="20.9544" x2="18.0551" y2="20.9544" gradientUnits="userSpaceOnUse">
<stop offset="0.2888" stop-color="white"/>
<stop offset="0.7796" stop-color="white" stop-opacity="0"/>
</linearGradient>
<linearGradient id="paint12_linear_10800_20840" x1="18.6027" y1="20.8721" x2="18.7812" y2="20.8721" gradientUnits="userSpaceOnUse">
<stop offset="0.2888" stop-color="white"/>
<stop offset="0.7796" stop-color="white" stop-opacity="0"/>
</linearGradient>
<linearGradient id="paint13_linear_10800_20840" x1="16.6551" y1="20.4856" x2="17.0434" y2="20.4856" gradientUnits="userSpaceOnUse">
<stop offset="0.2888" stop-color="white"/>
<stop offset="0.7796" stop-color="white" stop-opacity="0"/>
</linearGradient>
<linearGradient id="paint14_linear_10800_20840" x1="18.9615" y1="19.8641" x2="19.3497" y2="19.8641" gradientUnits="userSpaceOnUse">
<stop offset="0.2888" stop-color="white"/>
<stop offset="0.7796" stop-color="white" stop-opacity="0"/>
</linearGradient>
</defs>
</svg>
