<svg width="25" height="25" viewBox="0 0 25 25" fill="none" xmlns="http://www.w3.org/2000/svg">
<circle cx="12.5487" cy="12.0371" r="12" fill="#121212"/>
<path d="M19.4766 15.5554L17.1655 17.97C17.1152 18.0224 17.0545 18.0643 16.9869 18.0928C16.9194 18.1214 16.8465 18.1362 16.7729 18.1361H5.81701C5.76473 18.1361 5.7136 18.1212 5.66988 18.0933C5.62617 18.0654 5.59178 18.0256 5.57094 17.9789C5.5501 17.9322 5.54373 17.8806 5.55259 17.8304C5.56146 17.7802 5.58518 17.7336 5.62084 17.6964L7.93371 15.2818C7.98382 15.2295 8.04441 15.1877 8.11173 15.1592C8.17907 15.1306 8.2517 15.1158 8.32515 15.1157H19.2804C19.3327 15.1157 19.3838 15.1305 19.4275 15.1585C19.4712 15.1864 19.5056 15.2262 19.5265 15.2729C19.5473 15.3196 19.5537 15.3712 19.5448 15.4214C19.5359 15.4716 19.5122 15.5181 19.4766 15.5554ZM17.1655 10.693C17.1152 10.6406 17.0545 10.5987 16.9869 10.5702C16.9194 10.5416 16.8465 10.5268 16.7729 10.5269H5.81701C5.76473 10.5269 5.7136 10.5418 5.66988 10.5697C5.62617 10.5976 5.59178 10.6374 5.57094 10.6841C5.5501 10.7308 5.54373 10.7824 5.55259 10.8326C5.56146 10.8828 5.58518 10.9294 5.62084 10.9666L7.93371 13.3812C7.98382 13.4335 8.04441 13.4753 8.11173 13.5038C8.17907 13.5324 8.2517 13.5472 8.32515 13.5473H19.2804C19.3327 13.5473 19.3838 13.5325 19.4275 13.5045C19.4712 13.4766 19.5056 13.4369 19.5265 13.3902C19.5473 13.3434 19.5537 13.2918 19.5448 13.2416C19.5359 13.1914 19.5122 13.1449 19.4766 13.1076L17.1655 10.693ZM5.81701 8.95857H16.7729C16.8465 8.9586 16.9194 8.94388 16.9869 8.9153C17.0545 8.88672 17.1152 8.8449 17.1655 8.79244L19.4766 6.37782C19.5122 6.34059 19.5359 6.29401 19.5448 6.24382C19.5537 6.19363 19.5473 6.14202 19.5265 6.09531C19.5056 6.0486 19.4712 6.00884 19.4275 5.98092C19.3838 5.95299 19.3327 5.93811 19.2804 5.93811H8.32515C8.2517 5.93823 8.17907 5.95304 8.11173 5.98161C8.04441 6.01019 7.98382 6.05192 7.93371 6.10424L5.62144 8.51886C5.58581 8.55605 5.5621 8.60259 5.55321 8.65271C5.54433 8.70285 5.55066 8.75442 5.57142 8.80111C5.59218 8.84779 5.62648 8.88755 5.6701 8.91552C5.71373 8.94349 5.76479 8.95845 5.81701 8.95857Z" fill="url(#paint0_linear_15007_8544)"/>
<path d="M13 18C13 14.6863 15.6863 12 19 12V12C22.3137 12 25 14.6863 25 18V18C25 21.3137 22.3137 24 19 24V24C15.6863 24 13 21.3137 13 18V18Z" fill="#241560"/>
<path d="M22.5281 15.6273C22.4494 15.3357 22.1964 15.0442 21.7412 14.7196C21.3758 14.461 20.9879 14.3125 20.6788 14.3125C20.6169 14.3125 20.5607 14.318 20.5045 14.329C20.364 14.3565 20.2403 14.4555 20.1616 14.6041C20.0661 14.7801 20.0436 15.0167 20.1054 15.1597C20.1279 15.2037 20.156 15.2587 20.1897 15.3082C19.8918 15.4843 19.7232 15.5338 19.7007 15.5393C20.4764 15.7923 21.1228 16.3204 21.5275 17.0081L21.5332 16.9421C21.55 16.7605 21.6062 16.5515 21.6849 16.3369C21.7636 16.3589 21.8423 16.3699 21.921 16.3699C22.129 16.3699 22.3089 16.2874 22.4213 16.1389C22.5337 15.9904 22.5787 15.7923 22.5281 15.6273Z" fill="#5E12A0"/>
<path d="M21.7187 16.1774C22.2302 16.3149 22.4382 15.9298 22.3707 15.6713C22.2976 15.4127 22.0616 15.1487 21.6456 14.8516C21.2297 14.5545 20.8081 14.4335 20.5383 14.4885C20.2685 14.5435 20.1898 14.9451 20.2572 15.0991C20.2853 15.1597 20.3471 15.2477 20.4315 15.3467C20.3247 15.4182 20.2235 15.4732 20.1392 15.5227C20.6563 15.7483 21.106 16.1004 21.4432 16.5405C21.4826 16.3919 21.5388 16.2599 21.5894 16.1444C21.6287 16.1499 21.6737 16.1609 21.7187 16.1774Z" fill="url(#paint1_radial_15007_8544)"/>
<path d="M18.79 21.5683C20.5253 21.5683 21.9321 20.1915 21.9321 18.4932C21.9321 16.7948 20.5253 15.418 18.79 15.418C17.0546 15.418 15.6478 16.7948 15.6478 18.4932C15.6478 20.1915 17.0546 21.5683 18.79 21.5683Z" fill="url(#paint2_radial_15007_8544)"/>
<path opacity="0.6" d="M22.1125 15.418C21.6853 14.978 21.3255 14.8624 20.8927 14.7689C20.5555 14.6919 20.6454 14.5049 21.0557 14.5434C20.859 14.4773 20.6735 14.4608 20.5386 14.4883C20.2688 14.5434 20.1901 14.9449 20.2575 15.099C20.2856 15.1595 20.3475 15.2475 20.4318 15.3465C20.28 15.4456 20.1507 15.5171 20.0439 15.5721C20.0945 15.5941 20.1563 15.6216 20.2294 15.6601C20.4205 15.7591 20.6285 15.9242 20.6285 15.9242C20.3137 15.6601 20.3812 15.5391 20.814 15.242C20.9489 15.1485 21.1962 15.1595 21.4267 15.275C21.6572 15.3905 21.927 15.6821 21.927 15.6821L21.6684 16.1662C21.6853 16.1717 21.7021 16.1772 21.719 16.1827C21.882 16.2267 22.0113 16.2157 22.1125 16.1772C22.2305 16.1057 22.5397 15.8636 22.1125 15.418Z" fill="#A98698"/>
<path d="M20.8866 15.033C20.999 15.0771 21.1452 15.1541 21.3251 15.2696C21.5387 15.4071 21.7242 15.5612 21.8422 15.6822C21.6455 15.9352 21.5162 16.2818 21.4375 16.5239C21.4769 16.5789 21.5218 16.6339 21.5612 16.6889C21.6005 16.5514 21.6679 16.3478 21.7579 16.1443C21.7804 16.1498 21.8085 16.1498 21.8366 16.1498C21.904 16.1498 21.9827 16.1388 22.0446 16.0893C22.0895 16.0563 22.1401 15.9958 22.1345 15.8857C22.1345 15.7812 22.0502 15.6492 21.8759 15.4896C21.7523 15.3741 21.5837 15.2476 21.415 15.1321C20.9316 14.8185 20.5943 14.7305 20.4426 14.879C20.3414 14.978 20.3526 15.0991 20.3863 15.1871C20.2065 15.3026 20.0547 15.3851 19.9536 15.4401C20.021 15.4621 20.0828 15.4896 20.1503 15.5171C20.3301 15.4236 20.5887 15.2641 20.8866 15.033ZM21.949 15.8197C21.9659 15.8472 21.9715 15.8747 21.9715 15.8912C21.9715 15.9407 21.9546 15.9572 21.9434 15.9682C21.9209 15.9848 21.8759 15.9958 21.8366 15.9958C21.8703 15.9297 21.9097 15.8747 21.949 15.8197ZM20.5606 15C20.5775 14.9835 20.6225 14.9725 20.6955 14.9835C20.6393 15.0275 20.5831 15.066 20.5269 15.1046C20.5213 15.066 20.5269 15.0275 20.5606 15Z" fill="#5E12A0"/>
<path d="M18.7901 15.2365C16.952 15.2365 15.4625 16.6944 15.4625 18.4933C15.4625 20.2921 16.952 21.75 18.7901 21.75C20.6282 21.75 22.1178 20.2921 22.1178 18.4933C22.1178 16.6944 20.6226 15.2365 18.7901 15.2365ZM18.7901 21.5684C17.0532 21.5684 15.648 20.1931 15.648 18.4933C15.648 16.7934 17.0532 15.4181 18.7901 15.4181C20.527 15.4181 21.9323 16.7934 21.9323 18.4933C21.9323 20.1931 20.5214 21.5684 18.7901 21.5684Z" fill="#5E12A0"/>
<path opacity="0.6" d="M18.79 21.5683C20.5253 21.5683 21.9321 20.1915 21.9321 18.4932C21.9321 16.7948 20.5253 15.418 18.79 15.418C17.0546 15.418 15.6478 16.7948 15.6478 18.4932C15.6478 20.1915 17.0546 21.5683 18.79 21.5683Z" fill="url(#paint3_linear_15007_8544)"/>
<path opacity="0.6" d="M18.7676 21.1943C17.0532 20.9247 15.8896 19.3458 16.1706 17.668C16.2943 16.9253 16.6765 16.2927 17.2162 15.8361C16.4292 16.2817 15.8446 17.0574 15.6872 18.0036C15.4118 19.6814 16.5754 21.2603 18.2842 21.5298C19.2397 21.6839 20.1616 21.3923 20.8417 20.8202C20.2403 21.1612 19.5096 21.3098 18.7676 21.1943Z" fill="#A98698"/>
<path opacity="0.6" d="M19.2904 15.4623C18.4978 15.3358 17.7277 15.5118 17.0982 15.9024C17.0869 15.9134 17.0757 15.9244 17.0757 15.9244C17.3174 15.7813 17.6715 15.6548 17.6715 15.6548C16.7609 16.1719 16.4799 16.7606 16.4799 16.7606C16.834 16.0894 17.8739 15.6163 18.6889 15.5833C19.504 15.5503 20.038 15.7868 20.69 16.2985C21.3421 16.8156 21.7355 17.8718 21.6962 18.708C21.6625 19.5442 21.2128 20.2208 21.2128 20.2208C21.5219 19.8302 21.7074 19.5442 21.8255 19.2526C21.848 19.1646 21.8705 19.0766 21.8817 18.983C22.1627 17.3107 21.0048 15.7318 19.2904 15.4623Z" fill="url(#paint4_linear_15007_8544)"/>
<path d="M21.7744 18.4655C21.7744 20.0773 20.4366 21.3866 18.7896 21.3866C17.1427 21.3866 15.7992 20.0773 15.7992 18.4655H21.7744Z" fill="url(#paint5_linear_15007_8544)"/>
<g opacity="0.6">
<path opacity="0.6" d="M21.5386 18.4658C21.5386 20.0391 20.2683 21.3264 18.6719 21.3869C18.7112 21.3869 18.7506 21.3869 18.7899 21.3869C20.4369 21.3869 21.7747 20.0776 21.7747 18.4658H21.5386Z" fill="url(#paint6_linear_15007_8544)"/>
</g>
<g opacity="0.7">
<path opacity="0.7" d="M16.2219 18.4658H15.8003C15.8003 20.0776 17.1381 21.3869 18.7851 21.3869C18.8582 21.3869 18.9256 21.3869 18.9931 21.3814C17.4473 21.2714 16.2219 20.0061 16.2219 18.4658Z" fill="url(#paint7_linear_15007_8544)"/>
</g>
<path d="M21.7688 18.4934C21.7688 18.1578 21.173 17.9652 20.3804 17.8993C19.807 17.8552 19.2281 17.9102 18.5648 18.1083C17.9914 18.2733 17.4743 18.2458 17.0977 18.2018C16.2601 18.1083 15.7992 18.0973 15.7992 18.4934C15.7992 19.0655 16.9909 19.7807 18.7784 19.5331C19.6834 19.4066 20.1499 19.148 20.6839 18.972C21.2629 18.7849 21.7688 18.7904 21.7688 18.4934Z" fill="url(#paint8_linear_15007_8544)"/>
<path d="M19.7685 17.1074C20.0478 17.1074 20.2742 16.8857 20.2742 16.6123C20.2742 16.3389 20.0478 16.1172 19.7685 16.1172C19.4892 16.1172 19.2628 16.3389 19.2628 16.6123C19.2628 16.8857 19.4892 17.1074 19.7685 17.1074Z" fill="white"/>
<path d="M20.5942 17.4757C20.7121 17.4757 20.8077 17.3821 20.8077 17.2667C20.8077 17.1512 20.7121 17.0576 20.5942 17.0576C20.4763 17.0576 20.3807 17.1512 20.3807 17.2667C20.3807 17.3821 20.4763 17.4757 20.5942 17.4757Z" fill="white"/>
<g opacity="0.6">
<path opacity="0.6" d="M21.3579 16.216C21.3523 16.216 21.3467 16.216 21.3467 16.216C21.313 16.2105 21.2905 16.1775 21.2961 16.139C21.3467 15.886 21.5602 15.6439 21.5715 15.6329C21.5939 15.6054 21.6389 15.6054 21.6614 15.6274C21.6895 15.6494 21.6895 15.6934 21.667 15.7154C21.6614 15.7209 21.4647 15.9465 21.4198 16.1665C21.4141 16.1995 21.3861 16.216 21.3579 16.216Z" fill="url(#paint9_linear_15007_8544)"/>
</g>
<path opacity="0.2" d="M18.5831 20.7873C18.67 20.7873 18.7405 20.7183 18.7405 20.6333C18.7405 20.5482 18.67 20.4792 18.5831 20.4792C18.4962 20.4792 18.4258 20.5482 18.4258 20.6333C18.4258 20.7183 18.4962 20.7873 18.5831 20.7873Z" fill="white"/>
<g opacity="0.4">
<path opacity="0.6" d="M18.4934 20.7336C18.4316 20.6731 18.4316 20.5741 18.4934 20.5135C18.5046 20.5025 18.5159 20.497 18.5271 20.486C18.5046 20.4915 18.4878 20.5025 18.4709 20.519C18.4091 20.5796 18.4091 20.6786 18.4709 20.7391C18.5215 20.7886 18.6002 20.7996 18.662 20.7666C18.6058 20.7886 18.5384 20.7776 18.4934 20.7336Z" fill="url(#paint10_linear_15007_8544)"/>
</g>
<path opacity="0.3" d="M18.6384 20.5888C18.657 20.5888 18.6721 20.5741 18.6721 20.556C18.6721 20.5379 18.657 20.5232 18.6384 20.5232C18.6197 20.5232 18.6046 20.5379 18.6046 20.556C18.6046 20.5741 18.6197 20.5888 18.6384 20.5888Z" fill="white"/>
<path opacity="0.2" d="M19.4038 20.7106C19.4907 20.7106 19.5611 20.6416 19.5611 20.5565C19.5611 20.4715 19.4907 20.4025 19.4038 20.4025C19.3169 20.4025 19.2464 20.4715 19.2464 20.5565C19.2464 20.6416 19.3169 20.7106 19.4038 20.7106Z" fill="white"/>
<g opacity="0.4">
<path opacity="0.6" d="M19.3128 20.6561C19.251 20.5956 19.251 20.4966 19.3128 20.436C19.324 20.425 19.3353 20.4195 19.3465 20.4085C19.324 20.414 19.3072 20.425 19.2903 20.4415C19.2285 20.502 19.2285 20.6011 19.2903 20.6616C19.3409 20.7111 19.4195 20.7221 19.4814 20.6891C19.4252 20.7111 19.3578 20.7001 19.3128 20.6561Z" fill="url(#paint11_linear_15007_8544)"/>
</g>
<path opacity="0.3" d="M19.4593 20.5116C19.4779 20.5116 19.493 20.497 19.493 20.4788C19.493 20.4608 19.4779 20.4461 19.4593 20.4461C19.4407 20.4461 19.4256 20.4608 19.4256 20.4788C19.4256 20.497 19.4407 20.5116 19.4593 20.5116Z" fill="white"/>
<path opacity="0.2" d="M18.9983 21.068C19.0635 21.068 19.1164 21.0163 19.1164 20.9525C19.1164 20.8887 19.0635 20.837 18.9983 20.837C18.9332 20.837 18.8803 20.8887 18.8803 20.9525C18.8803 21.0163 18.9332 21.068 18.9983 21.068Z" fill="white"/>
<g opacity="0.4">
<path opacity="0.6" d="M18.9303 21.0248C18.8854 20.9808 18.8854 20.9038 18.9303 20.8598C18.9359 20.8543 18.9472 20.8488 18.9528 20.8433C18.9359 20.8488 18.9247 20.8598 18.9134 20.8708C18.8685 20.9148 18.8685 20.9918 18.9134 21.0358C18.9528 21.0743 19.009 21.0798 19.0596 21.0523C19.0146 21.0688 18.964 21.0578 18.9303 21.0248Z" fill="url(#paint12_linear_15007_8544)"/>
</g>
<path opacity="0.3" d="M19.0373 20.9135C19.0497 20.9135 19.0597 20.9037 19.0597 20.8916C19.0597 20.8796 19.0497 20.8698 19.0373 20.8698C19.0249 20.8698 19.0148 20.8796 19.0148 20.8916C19.0148 20.9037 19.0249 20.9135 19.0373 20.9135Z" fill="white"/>
<path opacity="0.2" d="M19.7227 20.9854C19.7879 20.9854 19.8408 20.9337 19.8408 20.8699C19.8408 20.806 19.7879 20.7543 19.7227 20.7543C19.6576 20.7543 19.6048 20.806 19.6048 20.8699C19.6048 20.9337 19.6576 20.9854 19.7227 20.9854Z" fill="white"/>
<g opacity="0.4">
<path opacity="0.6" d="M19.6565 20.9425C19.6115 20.8985 19.6115 20.8215 19.6565 20.7775C19.6621 20.772 19.6733 20.7665 19.679 20.761C19.6621 20.7665 19.6508 20.7775 19.6396 20.7885C19.5947 20.8325 19.5947 20.9095 19.6396 20.9535C19.679 20.992 19.7352 20.9975 19.7857 20.9701C19.7408 20.9866 19.6902 20.9755 19.6565 20.9425Z" fill="url(#paint13_linear_15007_8544)"/>
</g>
<path opacity="0.3" d="M19.762 20.8312C19.7745 20.8312 19.7845 20.8214 19.7845 20.8093C19.7845 20.7972 19.7745 20.7874 19.762 20.7874C19.7496 20.7874 19.7395 20.7972 19.7395 20.8093C19.7395 20.8214 19.7496 20.8312 19.762 20.8312Z" fill="white"/>
<path opacity="0.2" d="M17.913 20.7325C18.0558 20.7325 18.1715 20.6192 18.1715 20.4794C18.1715 20.3396 18.0558 20.2263 17.913 20.2263C17.7702 20.2263 17.6545 20.3396 17.6545 20.4794C17.6545 20.6192 17.7702 20.7325 17.913 20.7325Z" fill="white"/>
<g opacity="0.4">
<path opacity="0.6" d="M17.7673 20.6387C17.6661 20.5396 17.6661 20.3801 17.7673 20.2811C17.7841 20.2646 17.801 20.2536 17.8235 20.2426C17.7897 20.2536 17.7616 20.2756 17.7335 20.2976C17.6324 20.3966 17.6324 20.5561 17.7335 20.6552C17.8178 20.7377 17.9471 20.7542 18.0482 20.6937C17.9527 20.7322 17.8403 20.7157 17.7673 20.6387Z" fill="url(#paint14_linear_15007_8544)"/>
</g>
<path opacity="0.3" d="M18.0024 20.4022C18.0335 20.4022 18.0586 20.3776 18.0586 20.3472C18.0586 20.3168 18.0335 20.2922 18.0024 20.2922C17.9714 20.2922 17.9462 20.3168 17.9462 20.3472C17.9462 20.3776 17.9714 20.4022 18.0024 20.4022Z" fill="white"/>
<path opacity="0.2" d="M20.2241 20.1107C20.3669 20.1107 20.4826 19.9974 20.4826 19.8577C20.4826 19.7179 20.3669 19.6046 20.2241 19.6046C20.0813 19.6046 19.9656 19.7179 19.9656 19.8577C19.9656 19.9974 20.0813 20.1107 20.2241 20.1107Z" fill="white"/>
<g opacity="0.4">
<path opacity="0.6" d="M20.0715 20.0174C19.9703 19.9183 19.9703 19.7588 20.0715 19.6598C20.0883 19.6433 20.1052 19.6323 20.1277 19.6212C20.0939 19.6323 20.0658 19.6543 20.0378 19.6763C19.9366 19.7753 19.9366 19.9348 20.0378 20.0339C20.122 20.1164 20.2513 20.1329 20.3524 20.0724C20.2569 20.1109 20.1501 20.0944 20.0715 20.0174Z" fill="url(#paint15_linear_15007_8544)"/>
</g>
<path opacity="0.3" d="M20.3141 19.7808C20.3452 19.7808 20.3703 19.7561 20.3703 19.7257C20.3703 19.6953 20.3452 19.6707 20.3141 19.6707C20.2831 19.6707 20.2579 19.6953 20.2579 19.7257C20.2579 19.7561 20.2831 19.7808 20.3141 19.7808Z" fill="white"/>
<defs>
<linearGradient id="paint0_linear_15007_8544" x1="6.73047" y1="18.4268" x2="17.8844" y2="5.52002" gradientUnits="userSpaceOnUse">
<stop offset="0.08" stop-color="#9945FF"/>
<stop offset="0.3" stop-color="#8752F3"/>
<stop offset="0.5" stop-color="#5497D5"/>
<stop offset="0.6" stop-color="#43B4CA"/>
<stop offset="0.72" stop-color="#28E0B9"/>
<stop offset="0.97" stop-color="#19FB9B"/>
</linearGradient>
<radialGradient id="paint1_radial_15007_8544" cx="0" cy="0" r="1" gradientUnits="userSpaceOnUse" gradientTransform="translate(22.2682 15.3247) scale(2.51229 2.45873)">
<stop stop-color="#FFEAFF" stop-opacity="0.6"/>
<stop offset="0.6807" stop-color="#A087C9"/>
<stop offset="1" stop-color="#10002F"/>
</radialGradient>
<radialGradient id="paint2_radial_15007_8544" cx="0" cy="0" r="1" gradientUnits="userSpaceOnUse" gradientTransform="translate(21.6104 17.947) scale(7.03602 7.32358)">
<stop stop-color="#FFEAFF" stop-opacity="0.6"/>
<stop offset="0.6807" stop-color="#A087C9"/>
<stop offset="1" stop-color="#10002F"/>
</radialGradient>
<linearGradient id="paint3_linear_15007_8544" x1="18.2859" y1="21.5247" x2="19.2496" y2="15.45" gradientUnits="userSpaceOnUse">
<stop stop-color="#81FFFF"/>
<stop offset="0.6202" stop-color="white" stop-opacity="0"/>
</linearGradient>
<linearGradient id="paint4_linear_15007_8544" x1="21.0045" y1="16.405" x2="18.4575" y2="18.7929" gradientUnits="userSpaceOnUse">
<stop offset="0.2888" stop-color="white"/>
<stop offset="0.7796" stop-color="white" stop-opacity="0"/>
</linearGradient>
<linearGradient id="paint5_linear_15007_8544" x1="15.8018" y1="19.9243" x2="21.7729" y2="19.9243" gradientUnits="userSpaceOnUse">
<stop stop-color="#0002E9"/>
<stop offset="0.9952" stop-color="#FF00C7"/>
</linearGradient>
<linearGradient id="paint6_linear_15007_8544" x1="22.0559" y1="18.7221" x2="18.872" y2="21.7966" gradientUnits="userSpaceOnUse">
<stop offset="0.2888" stop-color="white"/>
<stop offset="0.7796" stop-color="white" stop-opacity="0"/>
</linearGradient>
<linearGradient id="paint7_linear_15007_8544" x1="15.8029" y1="19.9246" x2="18.9974" y2="19.9246" gradientUnits="userSpaceOnUse">
<stop stop-color="#000292"/>
<stop offset="0.9952" stop-color="#7D00C7"/>
</linearGradient>
<linearGradient id="paint8_linear_15007_8544" x1="15.8058" y1="18.7361" x2="21.7689" y2="18.7361" gradientUnits="userSpaceOnUse">
<stop stop-color="#000292"/>
<stop offset="0.9952" stop-color="#BE00C7"/>
</linearGradient>
<linearGradient id="paint9_linear_15007_8544" x1="21.6705" y1="15.6061" x2="21.2551" y2="16.2956" gradientUnits="userSpaceOnUse">
<stop offset="0.2888" stop-color="white"/>
<stop offset="0.7796" stop-color="white" stop-opacity="0"/>
</linearGradient>
<linearGradient id="paint10_linear_15007_8544" x1="18.4244" y1="20.6393" x2="18.6621" y2="20.6393" gradientUnits="userSpaceOnUse">
<stop offset="0.2888" stop-color="white"/>
<stop offset="0.7796" stop-color="white" stop-opacity="0"/>
</linearGradient>
<linearGradient id="paint11_linear_15007_8544" x1="19.2432" y1="20.5607" x2="19.481" y2="20.5607" gradientUnits="userSpaceOnUse">
<stop offset="0.2888" stop-color="white"/>
<stop offset="0.7796" stop-color="white" stop-opacity="0"/>
</linearGradient>
<linearGradient id="paint12_linear_15007_8544" x1="18.8766" y1="20.9544" x2="19.0551" y2="20.9544" gradientUnits="userSpaceOnUse">
<stop offset="0.2888" stop-color="white"/>
<stop offset="0.7796" stop-color="white" stop-opacity="0"/>
</linearGradient>
<linearGradient id="paint13_linear_15007_8544" x1="19.6027" y1="20.8721" x2="19.7812" y2="20.8721" gradientUnits="userSpaceOnUse">
<stop offset="0.2888" stop-color="white"/>
<stop offset="0.7796" stop-color="white" stop-opacity="0"/>
</linearGradient>
<linearGradient id="paint14_linear_15007_8544" x1="17.6551" y1="20.4856" x2="18.0434" y2="20.4856" gradientUnits="userSpaceOnUse">
<stop offset="0.2888" stop-color="white"/>
<stop offset="0.7796" stop-color="white" stop-opacity="0"/>
</linearGradient>
<linearGradient id="paint15_linear_15007_8544" x1="19.9615" y1="19.8641" x2="20.3497" y2="19.8641" gradientUnits="userSpaceOnUse">
<stop offset="0.2888" stop-color="white"/>
<stop offset="0.7796" stop-color="white" stop-opacity="0"/>
</linearGradient>
</defs>
</svg>
