<svg width="200" height="201" viewBox="0 0 200 201" fill="none" xmlns="http://www.w3.org/2000/svg">
<rect y="0.916382" width="200" height="200" rx="16" fill="#082D63"/>
<path d="M100 20.9164C55.8138 20.9164 20 56.7302 20 100.916C20 145.103 55.8138 180.916 100 180.916C144.186 180.916 180 145.103 180 100.916C180 56.7302 144.174 20.9164 100 20.9164ZM127.965 140.916H72.0231C65.3788 140.916 59.9878 135.525 59.9878 128.881V72.9517C59.9878 66.3073 65.3788 60.9164 72.0231 60.9164H127.965C134.609 60.9164 140 66.3073 140 72.9517V128.893C140 135.538 134.609 140.929 127.965 140.929V140.916Z" fill="#FF562E"/>
</svg>
