<svg width="24" height="24" viewBox="0 0 24 24" fill="none" xmlns="http://www.w3.org/2000/svg">
<rect width="24" height="24" rx="12" fill="#F7F9FC"/>
<path fill-rule="evenodd" clip-rule="evenodd" d="M4.03575 7.03854C3.99753 6.93177 3.98976 6.81595 4.01338 6.70477C4.037 6.5936 4.091 6.49173 4.16901 6.41123L6.33786 4.17439C6.41588 4.09396 6.5146 4.03826 6.62234 4.01386C6.73009 3.98946 6.84235 3.99739 6.94587 4.03672L11.5704 5.78885C11.6259 5.80987 11.6738 5.84795 11.7076 5.89794C11.7414 5.94794 11.7595 6.00743 11.7595 6.06839V7.11267C11.7595 7.19173 11.7292 7.26734 11.675 7.32325L10.5492 8.48403C10.4697 8.56629 10.351 8.59314 10.2452 8.55275L9.00296 8.08036L7.63793 7.56093C7.52259 7.51684 7.40987 7.63284 7.45262 7.75205L8.4143 10.4411C8.45322 10.5502 8.42743 10.6726 8.34767 10.7546L7.34683 11.7863C7.23411 11.9026 7.23411 12.0912 7.34683 12.2075L8.35292 13.2451C8.43269 13.3274 8.45872 13.4498 8.41955 13.5587L7.45787 16.2474C7.41512 16.3666 7.5276 16.4827 7.64319 16.4386L10.2505 15.4465C10.3563 15.4064 10.475 15.4332 10.5545 15.5152L11.6747 16.6706C11.729 16.7265 11.7593 16.8021 11.7593 16.8812V17.9257C11.7593 18.0503 11.6841 18.1619 11.5706 18.205L6.9516 19.9625C6.84806 20.0019 6.73574 20.0099 6.62794 19.9855C6.52014 19.9611 6.42138 19.9053 6.34335 19.8249L4.17426 17.5878C4.09623 17.5073 4.04221 17.4054 4.01859 17.2942C3.99498 17.1831 4.00275 17.0672 4.04101 16.9605L5.73917 12.2127C5.78669 12.0797 5.78669 11.9334 5.73917 11.8004L4.03575 7.03854ZM19.9642 16.9612C20.0025 17.068 20.0102 17.1838 19.9866 17.295C19.963 17.4061 19.909 17.508 19.831 17.5885L17.6621 19.8256C17.5841 19.906 17.4854 19.9617 17.3777 19.9861C17.2699 20.0105 17.1576 20.0026 17.0541 19.9633L12.4296 18.2111C12.3741 18.1901 12.3263 18.152 12.2924 18.102C12.2586 18.052 12.2405 17.9926 12.2405 17.9316V16.8873C12.2405 16.8083 12.2708 16.7326 12.325 16.6767L13.4508 15.516C13.5303 15.4337 13.649 15.4068 13.7548 15.4472L14.997 15.9196L16.3621 16.4391C16.4774 16.4831 16.5899 16.3671 16.5474 16.2479L15.5857 13.5589C15.5468 13.4498 15.5726 13.3274 15.6523 13.2454L16.6532 12.2137C16.7659 12.0974 16.7659 11.9087 16.6532 11.7925L15.6471 10.7549C15.608 10.7147 15.581 10.6637 15.5692 10.6082C15.5574 10.5526 15.5613 10.4947 15.5804 10.4413L16.5421 7.75254C16.5849 7.63334 16.4724 7.51733 16.3568 7.56142L13.7495 8.55349C13.6437 8.59363 13.525 8.56679 13.4455 8.48477L12.3253 7.32941C12.2984 7.30176 12.2772 7.26893 12.2627 7.2328C12.2482 7.19667 12.2407 7.15794 12.2407 7.11883V6.0743C12.2407 5.94968 12.3159 5.8381 12.4294 5.795L17.0484 4.03745C17.2597 3.95692 17.4971 4.01086 17.6566 4.17513L19.8255 6.41221C19.9036 6.49265 19.9577 6.59451 19.9814 6.7057C20.005 6.81689 19.9973 6.93275 19.959 7.03952L18.2608 11.7873C18.2131 11.9203 18.2131 12.0666 18.2608 12.1996L19.9645 16.9622L19.9642 16.9612Z" fill="#CE6533"/>
</svg>
