<svg width="24" height="24" viewBox="0 0 24 24" fill="none" xmlns="http://www.w3.org/2000/svg">
<path d="M12 24C18.6274 24 24 18.6274 24 12C24 5.37258 18.6274 0 12 0C5.37258 0 0 5.37258 0 12C0 18.6274 5.37258 24 12 24Z" fill="#051221"/>
<path d="M12.1325 2.57997L4.01984 7.29155V16.7115L12.1325 21.42L20.2419 16.7115V7.29155L12.1325 2.57997ZM17.8388 15.3158L12.1325 18.6315L6.42616 15.3158V8.68418L12.1325 5.36839L17.8388 8.68418V15.3158Z" fill="white"/>
<path d="M15.9189 14.2011L12.1326 16.399L8.34313 14.2011V9.8022L12.1326 7.60115L15.9189 9.8022L14.34 10.718L12.1326 9.43273L9.92207 10.718V13.2822L12.1326 14.5675L14.34 13.2822L15.9189 14.2011Z" fill="white"/>
</svg>
