<svg width="24" height="24" viewBox="0 0 24 24" fill="none" xmlns="http://www.w3.org/2000/svg">
<path fill-rule="evenodd" clip-rule="evenodd" d="M11.9998 0C18.6274 0 24 5.37262 24 12C24 18.6274 18.6274 24 11.9998 24C5.37258 24 0 18.6274 0 12C0 5.37262 5.37258 0 11.9998 0Z" fill="#6039FF"/>
<path fill-rule="evenodd" clip-rule="evenodd" d="M12.0006 6.10987C15.2538 6.10987 17.8914 8.74762 17.8914 12.0011C17.8914 15.255 15.2538 17.8927 12.0006 17.8927C8.74694 17.8927 6.1094 15.255 6.1094 12.0015C6.1094 8.74763 8.74732 6.10987 12.0006 6.10987Z" fill="white" fill-opacity="0.2"/>
<path fill-rule="evenodd" clip-rule="evenodd" d="M11.6841 3.36975C11.8018 3.25425 11.9436 3.168 12.1029 3.168C12.2619 3.168 12.404 3.25425 12.5218 3.36975C12.6418 3.48713 12.7584 3.65475 12.8694 3.86625C13.1075 4.31925 13.3216 4.97437 13.5008 5.78025C13.6996 6.675 13.8525 7.73775 13.9515 8.90063C15.009 8.40488 16.006 8.00625 16.8801 7.731C17.6682 7.4835 18.3428 7.341 18.8543 7.32037C19.0931 7.311 19.2967 7.32787 19.4587 7.37287C19.6173 7.41712 19.7632 7.497 19.8427 7.63462C19.9222 7.77262 19.9184 7.93837 19.8776 8.09812C19.836 8.26125 19.7486 8.44575 19.6211 8.6475C19.3474 9.08025 18.8869 9.5925 18.278 10.1512C17.6026 10.77 16.7582 11.4337 15.8001 12.1012C16.7582 12.7687 17.6026 13.4325 18.278 14.0513C18.8869 14.61 19.3477 15.1226 19.6211 15.555C19.7486 15.7567 19.836 15.9412 19.8776 16.1044C19.9188 16.2637 19.9226 16.4299 19.8427 16.5679C19.7632 16.7055 19.6177 16.7854 19.4587 16.8296C19.2964 16.8746 19.0928 16.8919 18.8543 16.8821C18.3428 16.8619 17.6682 16.7194 16.8801 16.4715C16.006 16.1962 15.009 15.7976 13.9515 15.3015C13.8525 16.4644 13.6996 17.5264 13.5008 18.4207C13.3216 19.227 13.1075 19.8817 12.8694 20.3347C12.7584 20.5459 12.6421 20.7135 12.5218 20.8316C12.404 20.9467 12.2619 21.033 12.1029 21.033C11.9436 21.033 11.8018 20.9467 11.6837 20.8316C11.5637 20.7139 11.4475 20.5459 11.3361 20.3347C11.098 19.8817 10.8843 19.227 10.705 18.4207C10.5063 17.5264 10.3533 16.4644 10.254 15.3015C9.19653 15.7973 8.19948 16.1962 7.32505 16.4715C6.53686 16.7194 5.86267 16.8615 5.35083 16.8821C5.11235 16.8919 4.90837 16.8746 4.74675 16.8296C4.58777 16.7854 4.4419 16.7055 4.36241 16.5679C4.28292 16.4299 4.28667 16.2641 4.32754 16.1044C4.36953 15.9412 4.45653 15.7567 4.58439 15.555C4.85775 15.1226 5.31821 14.61 5.92716 14.0513C6.60286 13.4325 7.44692 12.7687 8.40497 12.1012C7.44692 11.4337 6.60286 10.77 5.92716 10.1512C5.31821 9.5925 4.85775 9.08025 4.58439 8.6475C4.4569 8.44575 4.36953 8.26125 4.32754 8.0985C4.28667 7.93875 4.28292 7.77225 4.36241 7.635C4.4419 7.497 4.58777 7.4175 4.74675 7.37287C4.90874 7.32787 5.11235 7.311 5.35083 7.32037C5.86229 7.34062 6.53686 7.48312 7.32505 7.731C8.19948 8.00625 9.19653 8.40525 10.254 8.901C10.3529 7.73775 10.5059 6.675 10.705 5.78025C10.8843 4.974 11.098 4.31925 11.3361 3.86625C11.4471 3.65513 11.5641 3.4875 11.6841 3.36975ZM10.2217 9.30975C9.12904 8.7915 8.10162 8.3775 7.20994 8.097C6.43562 7.85325 5.79817 7.722 5.33583 7.70362C5.11948 7.695 4.95936 7.71187 4.84987 7.74262C4.73701 7.77412 4.70288 7.81275 4.69463 7.82662C4.68676 7.84087 4.67026 7.88962 4.69913 8.00287C4.72763 8.11312 4.79288 8.25975 4.90874 8.44275C5.15547 8.8335 5.58819 9.3195 6.18664 9.86812C6.87546 10.4996 7.74765 11.1821 8.74319 11.8687C9.20166 11.5582 9.66699 11.2578 10.1388 10.968C10.1546 10.4002 10.1827 9.84562 10.2217 9.30975ZM10.5299 10.7303C10.5449 10.3073 10.5659 9.89288 10.5937 9.489C10.9574 9.66713 11.3271 9.85575 11.701 10.0545C11.3069 10.2732 10.9165 10.4985 10.5299 10.7303ZM10.1287 11.4255C9.76949 11.6497 9.42076 11.8755 9.08479 12.1012C9.42893 12.3324 9.77696 12.5576 10.1287 12.777C10.1212 12.3265 10.1212 11.876 10.1287 11.4255ZM10.5172 13.0162C10.5033 12.4063 10.5033 11.7962 10.5172 11.1862C11.0386 10.8692 11.5672 10.5642 12.1026 10.2712C12.6382 10.5641 13.167 10.8692 13.6887 11.1862C13.7027 11.7962 13.7027 12.4063 13.6887 13.0162C13.167 13.3333 12.6382 13.6384 12.1026 13.9313C11.5671 13.6384 11.0387 13.3333 10.5172 13.0162ZM10.1385 13.2349C9.66688 12.9449 9.2018 12.6444 8.74357 12.3337C7.74802 13.0204 6.87546 13.7025 6.18627 14.3344C5.58819 14.883 5.15585 15.369 4.90874 15.7598C4.79288 15.9428 4.72763 16.0897 4.69913 16.1996C4.67026 16.3129 4.68676 16.3616 4.69463 16.3759C4.70288 16.3897 4.73701 16.4284 4.84987 16.4602C4.95936 16.4906 5.11985 16.5075 5.33583 16.4989C5.79817 16.4801 6.43562 16.3489 7.20994 16.1051C8.10162 15.825 9.12904 15.411 10.2217 14.8927C10.1818 14.3408 10.1538 13.788 10.1385 13.2349ZM10.5937 14.7135C10.5654 14.3001 10.5442 13.8863 10.5299 13.4722C10.9165 13.704 11.3069 13.9293 11.701 14.148C11.3351 14.3427 10.9659 14.5312 10.5937 14.7135ZM10.6244 15.1252C10.7219 16.3297 10.8768 17.4255 11.0796 18.3375C11.2559 19.1295 11.4606 19.7467 11.6758 20.1562C11.7763 20.3475 11.8708 20.4776 11.9522 20.5571C12.0358 20.6389 12.0864 20.6494 12.1029 20.6494C12.1194 20.6494 12.1697 20.6389 12.2537 20.5571C12.335 20.4776 12.4292 20.3475 12.53 20.1559C12.7453 19.7468 12.95 19.1295 13.1262 18.3371C13.3287 17.4259 13.4839 16.3297 13.5811 15.1252C13.0827 14.8838 12.5897 14.6312 12.1026 14.3678C11.6155 14.6312 11.1227 14.8838 10.6244 15.1252ZM12.5045 14.148C12.878 14.3468 13.2481 14.5358 13.6118 14.7135C13.6396 14.3096 13.6609 13.8949 13.6756 13.4722C13.289 13.7039 12.8986 13.9292 12.5045 14.148ZM14.067 13.2345C14.0516 13.7878 14.0238 14.3407 13.9838 14.8927C15.0764 15.411 16.1039 15.825 16.9952 16.1055C17.7699 16.3492 18.4073 16.4805 18.8697 16.4989C19.0856 16.5075 19.2457 16.4906 19.3552 16.4602C19.4681 16.4287 19.5022 16.3897 19.5105 16.3759C19.5187 16.3616 19.5352 16.3129 19.506 16.1996C19.4779 16.0894 19.4122 15.9428 19.2967 15.7601C19.0493 15.369 18.6169 14.8826 18.0188 14.3344C17.33 13.7029 16.4575 13.0204 15.4619 12.3337C15.0037 12.6443 14.5386 12.9446 14.067 13.2345ZM15.4619 11.8687C16.4575 11.1821 17.33 10.5 18.0188 9.86812C18.6169 9.3195 19.0496 8.8335 19.2967 8.44275C19.4122 8.25975 19.4779 8.11312 19.506 8.00287C19.5352 7.88962 19.5187 7.84087 19.5105 7.82662C19.5022 7.81275 19.4681 7.77412 19.3552 7.74262C19.2457 7.71187 19.0856 7.695 18.8697 7.70362C18.4073 7.72237 17.7699 7.85362 16.9952 8.09737C16.1039 8.3775 15.0764 8.7915 13.9842 9.30975C14.0232 9.84562 14.0509 10.4006 14.0667 10.968C14.5384 11.2578 15.0036 11.5582 15.4619 11.8687ZM14.0772 11.4259C14.436 11.6497 14.7847 11.8755 15.1207 12.1012C14.7767 12.3322 14.4288 12.5574 14.0772 12.7766C14.0847 12.3264 14.0847 11.8761 14.0772 11.4259ZM13.6759 10.7306C13.6617 10.3164 13.6404 9.90249 13.6122 9.489C13.2398 9.67122 12.8705 9.85975 12.5045 10.0545C12.8986 10.2734 13.2893 10.4988 13.6759 10.7306ZM12.1026 9.83438C11.6155 9.57106 11.1227 9.31862 10.6244 9.07725C10.7219 7.87237 10.8768 6.77587 11.0796 5.8635C11.2559 5.0715 11.4606 4.45425 11.6758 4.04475C11.7763 3.8535 11.8708 3.72338 11.9522 3.64388C12.0358 3.56213 12.0864 3.55162 12.1029 3.55162C12.1194 3.55162 12.1697 3.56213 12.2537 3.64388C12.335 3.72338 12.4292 3.85388 12.53 4.04513C12.7453 4.45425 12.95 5.0715 13.1262 5.86387C13.3287 6.77587 13.4839 7.872 13.5814 9.07725C13.0974 9.31125 12.6028 9.56438 12.1026 9.83438Z" fill="white"/>
<path fill-rule="evenodd" clip-rule="evenodd" d="M6.07753 9.53738C6.42475 9.53738 6.70635 9.80363 6.70635 10.1318C6.70635 10.4599 6.42512 10.7257 6.07753 10.7257C5.73068 10.7257 5.44907 10.4595 5.44907 10.1318C5.44907 9.80363 5.7303 9.53738 6.07753 9.53738ZM16.0667 7.7055C16.414 7.7055 16.6956 7.97137 16.6956 8.2995C16.6956 8.62762 16.4143 8.8935 16.0667 8.8935C15.7195 8.8935 15.4379 8.62725 15.4379 8.2995C15.4379 7.97137 15.7191 7.7055 16.0667 7.7055ZM10.7463 16.8263C11.0935 16.8263 11.3751 17.0921 11.3751 17.4199C11.3751 17.748 11.0939 18.0139 10.7463 18.0139C10.3987 18.0139 10.1171 17.7476 10.1171 17.4199C10.1171 17.0921 10.3987 16.8263 10.7463 16.8263ZM12.1521 10.8619C12.2919 10.8619 12.4304 10.8894 12.5596 10.9429C12.6888 10.9965 12.8062 11.0749 12.9051 11.1738C13.0039 11.2727 13.0824 11.3901 13.1359 11.5193C13.1894 11.6485 13.217 11.787 13.217 11.9269C13.217 12.0667 13.1894 12.2052 13.1359 12.3344C13.0824 12.4636 13.0039 12.581 12.9051 12.6799C12.8062 12.7788 12.6888 12.8573 12.5596 12.9108C12.4304 12.9643 12.2919 12.9919 12.1521 12.9919C11.8696 12.9919 11.5988 12.8797 11.399 12.6799C11.1993 12.4802 11.0871 12.2093 11.0871 11.9269C11.0871 11.6444 11.1993 11.3735 11.399 11.1738C11.5988 10.9741 11.8696 10.8619 12.1521 10.8619Z" fill="#F3E7FF"/>
</svg>
