<svg width="24" height="24" viewBox="0 0 24 24" fill="none" xmlns="http://www.w3.org/2000/svg">
<path d="M24 12C24 18.6274 18.6274 24 12 24C5.37258 24 0 18.6274 0 12C0 5.37258 5.37258 0 12 0C18.6274 0 24 5.37258 24 12Z" fill="#6039FF"/>
<path d="M19.0002 5H5.99189L9.69524 9.36611C10.311 8.82684 11.1174 8.5 12.0002 8.5C13.9332 8.5 15.5002 10.067 15.5002 12C15.5002 12.8719 15.1814 13.6693 14.654 14.2821L19.0002 18.0218V5Z" fill="white"/>
<path d="M17.2864 19L13.8444 14.9751C13.3089 15.3079 12.6768 15.5 11.9999 15.5C10.0669 15.5 8.49986 13.933 8.49986 12C8.49986 11.3292 8.68858 10.7025 9.01583 10.17L4.99986 6.67283V19H17.2864Z" fill="white"/>
</svg>
