<svg width="24" height="24" viewBox="0 0 24 24" fill="none" xmlns="http://www.w3.org/2000/svg">
<path d="M24 12C24 18.6274 18.6274 24 12 24C5.37258 24 0 18.6274 0 12C0 5.37258 5.37258 0 12 0C18.6274 0 24 5.37258 24 12Z" fill="white"/>
<path d="M5.93988 6.76541C6.03924 6.64053 6.14452 6.52037 6.2498 6.40021C6.25452 6.39425 6.2652 6.39305 6.26992 6.38709C6.2794 6.37521 6.2948 6.36805 6.30424 6.35613L6.31372 6.34425C6.38712 6.27641 6.4652 6.20257 6.55524 6.13825C6.8738 5.89641 7.2044 5.71269 7.553 5.59181C8.67112 5.19925 9.91576 5.44117 10.8918 6.36261C12.2547 7.64008 12.1326 9.69804 11.0447 11.0659C9.66992 13.105 7.30736 15.9499 10.5785 18.4984C11.1667 18.9567 11.603 19.3345 13.4557 19.8699C12.244 20.0931 11.1205 20.0236 9.86991 19.7042C8.98536 19.2049 7.59464 18.1359 7.12148 16.692C6.40636 14.5025 8.38052 11.2293 9.3346 9.96864C10.6445 8.22396 8.52496 6.33529 6.96448 8.4438C6.1488 9.54264 4.72176 12.6521 5.21768 14.9586C5.50764 16.2666 5.89412 17.22 7.42652 18.5297C7.14236 18.362 6.8664 18.1718 6.59872 17.959C3.03828 14.6424 3.45135 9.51436 5.93988 6.76541Z" fill="url(#paint0_linear_17199_667)"/>
<path d="M18.0601 17.2346C17.9607 17.3595 17.8555 17.4797 17.7502 17.5998C17.7455 17.6057 17.7348 17.6069 17.7301 17.6129C17.7206 17.6248 17.7052 17.6319 17.6957 17.6439L17.6863 17.6558C17.6129 17.7236 17.5348 17.7975 17.4447 17.8617C17.1262 18.1036 16.7956 18.2873 16.447 18.4082C15.3289 18.8007 14.0843 18.5589 13.1082 17.6374C11.7454 16.3599 11.8674 14.3019 12.9553 12.9341C14.3301 10.895 16.6927 8.05008 13.4215 5.5016C12.8333 5.04336 12.397 4.66556 10.5443 4.13016C11.756 3.90695 12.8795 3.97638 14.1301 4.2958C15.0147 4.79508 16.4053 5.86412 16.8785 7.308C17.5937 9.49752 15.6195 12.7707 14.6654 14.0313C13.3555 15.7761 15.4751 17.6647 17.0355 15.5562C17.8512 14.4573 19.2783 11.3479 18.7823 9.0414C18.4923 7.73344 18.1059 6.78004 16.5735 5.47036C16.8577 5.63804 17.1336 5.82824 17.4013 6.04104C20.9617 9.3576 20.5487 14.4857 18.0601 17.2346Z" fill="url(#paint1_linear_17199_667)"/>
<defs>
<linearGradient id="paint0_linear_17199_667" x1="6.48417e-06" y1="9.5667" x2="68.7173" y2="9.5667" gradientUnits="userSpaceOnUse">
<stop stop-color="#0082FA"/>
<stop offset="1" stop-color="#00F2FE"/>
</linearGradient>
<linearGradient id="paint1_linear_17199_667" x1="4.00002" y1="12" x2="20" y2="12" gradientUnits="userSpaceOnUse">
<stop stop-color="#0082FA"/>
<stop offset="1" stop-color="#00F2FE"/>
</linearGradient>
</defs>
</svg>
