<svg width="24" height="24" viewBox="0 0 24 24" fill="none" xmlns="http://www.w3.org/2000/svg">
<mask id="mask0_17199_616" style="mask-type:alpha" maskUnits="userSpaceOnUse" x="0" y="0" width="24" height="24">
<path d="M12 24C18.6274 24 24 18.6274 24 12C24 5.37258 18.6274 0 12 0C5.37258 0 0 5.37258 0 12C0 18.6274 5.37258 24 12 24Z" fill="#D9D9D9"/>
</mask>
<g mask="url(#mask0_17199_616)">
<path d="M24 0H0V24H24V0Z" fill="url(#paint0_radial_17199_616)"/>
<path fill-rule="evenodd" clip-rule="evenodd" d="M2.04 12C2.04 6.49925 6.49925 2.04 12 2.04C17.5008 2.04 21.96 6.49925 21.96 12C21.96 17.5008 17.5008 21.96 12 21.96C6.49925 21.96 2.04 17.5008 2.04 12ZM4.31921 8.4155C4.29126 8.28626 4.11475 8.26141 4.05985 8.3817C3.55675 9.48395 3.27641 10.7092 3.27641 12C3.27641 13.2907 3.55674 14.516 4.05985 15.6182C4.11475 15.7386 4.29175 15.7135 4.32136 15.5846C4.4111 15.1939 4.53746 14.7918 4.69555 14.3838C5.53441 12.2191 7.01812 10.2799 8.64902 8.64902C9.32636 7.97168 10.0257 7.35994 10.7278 6.82172C10.8055 6.76213 10.7988 6.6426 10.7138 6.59398C10.1807 6.28909 9.66211 6.03936 9.16942 5.84843C8.35634 5.53334 7.64191 5.38928 7.06514 5.4016C6.49265 5.41382 6.09518 5.57708 5.83614 5.83613C5.5476 6.12467 5.37641 6.5884 5.40368 7.27194C5.42929 7.91408 5.63071 8.69765 6.01534 9.57271C6.06203 9.67894 6.03953 9.80333 5.95672 9.88459L5.40126 10.4788C5.27642 10.6013 5.07127 10.5769 4.99366 10.4201C4.70832 9.84388 4.45148 9.0271 4.31921 8.4155ZM8.38171 4.05984C8.26142 4.11475 8.28647 4.29175 8.41535 4.32136C8.80604 4.41109 9.20822 4.53746 9.61618 4.69555C11.4354 5.40055 13.482 6.78004 15.351 8.64902C15.9072 9.20518 16.5085 10.2097 16.6889 11.3916C16.7086 11.5203 16.8806 11.5648 16.9518 11.4558C17.4692 10.6623 17.873 9.88824 18.1516 9.1694C18.4667 8.35634 18.6107 7.64191 18.5984 7.06513C18.5862 6.49265 18.4229 6.09518 18.1639 5.83613C17.8688 5.54111 17.3588 5.36158 16.65 5.39888C15.9871 5.43378 15.3593 5.59219 14.4842 5.99213C14.368 6.04528 14.2316 6.03208 14.1294 5.95531L13.4756 5.44807C13.3602 5.36137 13.3676 5.18574 13.4914 5.11134C14.2229 4.67152 14.8396 4.39913 15.4276 4.29239C15.5693 4.26665 15.6113 4.05534 15.4792 3.99784C14.4133 3.53376 13.2367 3.27641 12 3.27641C10.7092 3.27641 9.48396 3.55674 8.38171 4.05984ZM14.474 14.4793C15.7967 13.119 15.8438 10.8905 14.4767 9.5233C13.9691 9.01572 13.451 8.54959 12.9318 8.128C12.3875 7.6859 11.6125 7.68592 11.0682 8.128C10.5483 8.55025 10.0301 9.01651 9.5233 9.5233C8.22997 10.8166 8.1998 12.8755 9.33947 14.2723C10.5968 15.8134 13.0759 15.8725 14.474 14.4793ZM12.5999 16.6814C12.47 16.6994 12.4237 16.873 12.5334 16.9447C13.3308 17.4656 14.1085 17.8717 14.8306 18.1516C15.6437 18.4667 16.3582 18.6107 16.9349 18.5984C17.5074 18.5862 17.9048 18.4229 18.1639 18.1639C18.4524 17.8753 18.6236 17.4116 18.5963 16.7281C18.571 16.0906 18.374 15.3275 17.9951 14.462C17.9425 14.342 17.9597 14.2024 18.0422 14.1007L18.6271 13.3807C18.7138 13.2742 18.8783 13.2808 18.9484 13.3987C19.353 14.079 19.5852 14.8988 19.6955 15.5273C19.7191 15.6624 19.9063 15.6941 19.9625 15.569C20.4515 14.4796 20.7236 13.2715 20.7236 12C20.7236 10.7092 20.4432 9.48397 19.9402 8.38172C19.8852 8.26144 19.7082 8.28648 19.6787 8.41536C19.5889 8.80606 19.4626 9.20822 19.3045 9.61616C18.5994 11.4354 17.22 13.482 15.351 15.351C14.628 16.074 13.6186 16.5404 12.5999 16.6814ZM15.6182 19.9402C15.7386 19.8852 15.7135 19.7082 15.5846 19.6787C15.1939 19.5889 14.7918 19.4626 14.3838 19.3044C12.5646 18.5994 10.518 17.22 8.64902 15.351C8.06606 14.768 7.48267 13.7765 7.30908 12.6124C7.28984 12.4834 7.11731 12.4382 7.04609 12.5476C6.5296 13.3399 6.1266 14.1127 5.84843 14.8306C5.53336 15.6437 5.38928 16.358 5.40161 16.9349C5.41384 17.5074 5.57708 17.9048 5.83614 18.1639C6.12142 18.4492 6.57761 18.6196 7.24854 18.5972C7.87494 18.5762 8.63866 18.3863 9.49289 18.0193C9.61081 17.9687 9.74737 17.9849 9.84817 18.0643L10.4677 18.5525C10.5789 18.6402 10.5704 18.8111 10.4475 18.8815C9.77081 19.2696 9.0127 19.5335 8.41466 19.6763C8.28606 19.707 8.26142 19.8852 8.38172 19.9402C9.48396 20.4432 10.7092 20.7236 12 20.7236C13.2907 20.7236 14.516 20.4432 15.6182 19.9402Z" fill="white"/>
<path d="M11.6257 9.65218C11.6313 9.64721 11.6366 9.64235 11.6421 9.6373C11.8611 9.4372 12.1981 9.44081 12.4128 9.64585C12.4174 9.65023 12.4217 9.65437 12.4264 9.65869C12.4998 9.72696 13.1632 10.3453 13.5506 10.7693C13.9471 11.2546 14.0333 11.9716 13.7659 12.5606C13.0303 14.1816 11.0007 14.1971 10.2438 12.5887C9.96068 11.9871 10.0506 11.2454 10.4667 10.7542C10.7807 10.4017 11.5389 9.72898 11.6257 9.65218Z" fill="white"/>
</g>
<defs>
<radialGradient id="paint0_radial_17199_616" cx="0" cy="0" r="1" gradientUnits="userSpaceOnUse" gradientTransform="translate(24 -0.539999) rotate(134.363) scale(34.325 22.9646)">
<stop stop-color="#5278FF"/>
<stop offset="0.361196" stop-color="#BE7CFF"/>
<stop offset="0.756992" stop-color="#E69EFE"/>
<stop offset="1" stop-color="#F7D4F5"/>
</radialGradient>
</defs>
</svg>
