<svg width="24" height="24" viewBox="0 0 24 24" fill="none" xmlns="http://www.w3.org/2000/svg">
<ellipse cx="12" cy="12" rx="11.9995" ry="12" fill="#F7F9FC"/>
<path d="M6.73663 5.02824C6.54599 4.92342 6.33646 5.13148 6.45445 5.30685L9.99553 10.6004C10.0984 10.7522 9.92709 10.9368 9.75367 10.861L5.22328 8.86377C5.06875 8.79681 4.92766 8.97776 5.0423 9.09694L7.9489 12.3733C8.01357 12.4474 8.01357 12.5542 7.9489 12.6263L5.0423 15.9031C4.92976 16.0226 5.06917 16.2032 5.22328 16.1362L9.75577 14.139C9.92919 14.0628 10.0988 14.2474 9.99763 14.3996L6.45655 19.6932C6.33855 19.8685 6.54977 20.0766 6.73873 19.9718L19.8575 12.7352C20.0481 12.6303 20.0481 12.3681 19.8575 12.2648L6.73663 5.02824Z" fill="#FF4B2F"/>
</svg>
