<svg width="24" height="24" viewBox="0 0 24 24" fill="none" xmlns="http://www.w3.org/2000/svg">
<path d="M12 0C18.6328 0 24 5.37854 24 12C24 18.6328 18.6215 24 12 24C5.36722 24 0 18.6215 0 12C0 5.37854 5.37854 0 12 0Z" fill="url(#paint0_linear_17199_946)"/>
<path d="M13.6497 9.23155L12.0113 7.58184L10.3729 9.22027L12.0113 10.87L13.6497 9.23155ZM17.9548 9.16377L13.4802 13.548C12.6667 14.3502 11.3447 14.3502 10.5311 13.548L6.0565 9.16377L4.47459 10.7909L8.94917 15.1751C9.79661 15.9999 10.904 16.418 12.0113 16.418C13.1186 16.418 14.226 15.9999 15.0734 15.1751L19.548 10.7909L17.9548 9.16377Z" fill="#373535"/>
<defs>
<linearGradient id="paint0_linear_17199_946" x1="23.2738" y1="7.7952" x2="-2.62358" y2="17.4557" gradientUnits="userSpaceOnUse">
<stop offset="0.3724" stop-color="#FF97D6"/>
<stop offset="0.8021" stop-color="#F8B994"/>
</linearGradient>
</defs>
</svg>
