<svg width="24" height="24" viewBox="0 0 24 24" fill="none" xmlns="http://www.w3.org/2000/svg">
<path d="M0 12C0 5.37258 5.37258 0 12 0C18.6274 0 24 5.37258 24 12C24 18.6274 18.6274 24 12 24C5.37258 24 0 18.6274 0 12Z" fill="#241560"/>
<path d="M19.0562 7.25458C18.8987 6.67145 18.3929 6.08832 17.4823 5.43918C16.7515 4.92206 15.9758 4.625 15.3575 4.625C15.2338 4.625 15.1214 4.636 15.009 4.65801C14.728 4.71302 14.4806 4.91106 14.3233 5.20813C14.1321 5.5602 14.0872 6.03331 14.2108 6.31937C14.2558 6.40738 14.312 6.51741 14.3794 6.61643C13.7836 6.96851 13.4463 7.06753 13.4014 7.07853C14.9528 7.58464 16.2456 8.64087 17.0551 10.0162L17.0663 9.88414C17.1001 9.52106 17.2125 9.10297 17.3699 8.67388C17.5272 8.71789 17.6846 8.7399 17.842 8.7399C18.258 8.7399 18.6177 8.57486 18.8426 8.2778C19.0674 7.98073 19.1573 7.58464 19.0562 7.25458Z" fill="#5E12A0"/>
<path d="M17.4375 8.35476C18.4605 8.62981 18.8764 7.85965 18.7415 7.34254C18.5953 6.82542 18.1232 6.29731 17.2912 5.70318C16.4594 5.10905 15.6162 4.867 15.0766 4.97702C14.537 5.08704 14.3796 5.89022 14.5145 6.19828C14.5707 6.31931 14.6943 6.49535 14.863 6.69339C14.6494 6.83643 14.447 6.94645 14.2784 7.04547C15.3127 7.49657 16.2121 8.20072 16.8865 9.08092C16.9652 8.78385 17.0777 8.51979 17.1789 8.28874C17.2575 8.29974 17.3475 8.32175 17.4375 8.35476Z" fill="url(#paint0_radial_10800_20882)"/>
<path d="M11.5799 19.1367C15.0507 19.1367 17.8642 16.3831 17.8642 12.9864C17.8642 9.58961 15.0507 6.83601 11.5799 6.83601C8.10921 6.83601 5.29562 9.58961 5.29562 12.9864C5.29562 16.3831 8.10921 19.1367 11.5799 19.1367Z" fill="url(#paint1_radial_10800_20882)"/>
<path opacity="0.6" d="M18.225 6.8361C17.3706 5.95591 16.651 5.72486 15.7854 5.53782C15.1109 5.38378 15.2908 5.0097 16.1114 5.08672C15.718 4.95469 15.347 4.92168 15.0772 4.97669C14.5375 5.08672 14.3802 5.88989 14.5151 6.19796C14.5712 6.31898 14.6949 6.49502 14.8636 6.69307C14.5601 6.89111 14.3015 7.03414 14.0878 7.14417C14.1891 7.18818 14.3127 7.24319 14.4588 7.3202C14.8411 7.51825 15.257 7.84832 15.257 7.84832C14.6275 7.3202 14.7624 7.07815 15.628 6.48402C15.8979 6.29698 16.3925 6.31898 16.8534 6.55004C17.3144 6.78109 17.854 7.36421 17.854 7.36421L17.3368 8.33242C17.3706 8.34342 17.4043 8.35443 17.438 8.36543C17.764 8.45345 18.0226 8.43144 18.225 8.35443C18.4611 8.2114 19.0794 7.7273 18.225 6.8361Z" fill="#A98698"/>
<path d="M15.7733 6.06608C15.9981 6.1541 16.2904 6.30814 16.6502 6.53919C17.0773 6.81425 17.4483 7.12232 17.6844 7.36437C17.2909 7.87048 17.0324 8.56363 16.875 9.04773C16.9537 9.15776 17.0436 9.26778 17.1223 9.3778C17.201 9.10275 17.3359 8.69566 17.5158 8.28857C17.5608 8.29957 17.617 8.29957 17.6732 8.29957C17.8081 8.29957 17.9655 8.27757 18.0892 8.17854C18.1791 8.11253 18.2803 7.9915 18.269 7.77146C18.269 7.56241 18.1004 7.29836 17.7519 6.97928C17.5046 6.74824 17.1673 6.49518 16.83 6.26413C15.8632 5.63699 15.1887 5.46095 14.8851 5.75802C14.6828 5.95606 14.7053 6.19812 14.7727 6.37415C14.413 6.6052 14.1094 6.77024 13.9071 6.88026C14.042 6.92427 14.1657 6.97928 14.3006 7.03429C14.6603 6.84726 15.1774 6.52818 15.7733 6.06608ZM17.898 7.63943C17.9317 7.69444 17.943 7.74945 17.943 7.78246C17.943 7.88148 17.9093 7.91448 17.8868 7.93649C17.8419 7.9695 17.7519 7.9915 17.6732 7.9915C17.7406 7.85948 17.8193 7.74945 17.898 7.63943ZM15.1212 6.00007C15.155 5.96706 15.2449 5.94505 15.3911 5.96706C15.2787 6.05508 15.1662 6.1321 15.0538 6.20912C15.0425 6.1321 15.0538 6.05508 15.1212 6.00007Z" fill="#5E12A0"/>
<path d="M11.5803 6.47307C7.90409 6.47307 4.92493 9.3887 4.92493 12.9865C4.92493 16.5842 7.90409 19.4999 11.5803 19.4999C15.2564 19.4999 18.2355 16.5842 18.2355 12.9865C18.2355 9.3887 15.2452 6.47307 11.5803 6.47307ZM11.5803 19.1368C8.10645 19.1368 5.29592 16.3863 5.29592 12.9865C5.29592 9.58675 8.10645 6.83614 11.5803 6.83614C15.054 6.83614 17.8646 9.58675 17.8646 12.9865C17.8646 16.3863 15.0429 19.1368 11.5803 19.1368Z" fill="#5E12A0"/>
<path opacity="0.6" d="M11.5799 19.1367C15.0507 19.1367 17.8642 16.3831 17.8642 12.9864C17.8642 9.58961 15.0507 6.83601 11.5799 6.83601C8.10921 6.83601 5.29562 9.58961 5.29562 12.9864C5.29562 16.3831 8.10921 19.1367 11.5799 19.1367Z" fill="url(#paint2_linear_10800_20882)"/>
<path opacity="0.6" d="M11.5352 18.3885C8.10632 17.8494 5.77921 14.6917 6.34131 11.336C6.58864 9.85065 7.3531 8.58537 8.43234 7.67218C6.85845 8.56337 5.68927 10.1147 5.37449 12.0071C4.82363 15.3628 7.15074 18.5205 10.5683 19.0597C12.4795 19.3677 14.3232 18.7846 15.6835 17.6404C14.4806 18.3225 13.0191 18.6196 11.5352 18.3885Z" fill="#A98698"/>
<path opacity="0.6" d="M12.5808 6.92455C10.9956 6.67149 9.45544 7.02356 8.19632 7.80474C8.17383 7.82674 8.15135 7.84875 8.15135 7.84875C8.63476 7.56268 9.34301 7.30963 9.34301 7.30963C7.52179 8.34385 6.95969 9.52111 6.95969 9.52111C7.66794 8.17881 9.74773 7.23261 11.3778 7.16659C13.0079 7.10058 14.0759 7.57368 15.38 8.5969C16.6841 9.63113 17.4711 11.7436 17.3924 13.416C17.3249 15.0884 16.4255 16.4416 16.4255 16.4416C17.0438 15.6604 17.4148 15.0884 17.6509 14.5052C17.6959 14.3292 17.7409 14.1531 17.7633 13.9661C18.3255 10.6213 16.0096 7.46366 12.5808 6.92455Z" fill="url(#paint3_linear_10800_20882)"/>
<path d="M17.5488 12.931C17.5488 16.1547 14.8732 18.7733 11.5793 18.7733C8.28532 18.7733 5.59846 16.1547 5.59846 12.931H17.5488Z" fill="url(#paint4_linear_10800_20882)"/>
<g opacity="0.6">
<path opacity="0.6" d="M17.0772 12.9316C17.0772 16.0783 14.5365 18.6528 11.3438 18.7739C11.4225 18.7739 11.5012 18.7739 11.5799 18.7739C14.8738 18.7739 17.5494 16.1553 17.5494 12.9316H17.0772Z" fill="url(#paint5_linear_10800_20882)"/>
</g>
<g opacity="0.7">
<path opacity="0.7" d="M6.44384 12.9316H5.60068C5.60068 16.1553 8.2763 18.7739 11.5702 18.7739C11.7164 18.7739 11.8513 18.7739 11.9862 18.7628C8.89461 18.5428 6.44384 16.0122 6.44384 12.9316Z" fill="url(#paint6_linear_10800_20882)"/>
</g>
<path d="M17.5376 12.9868C17.5376 12.3156 16.3459 11.9305 14.7607 11.7986C13.614 11.7105 12.4562 11.8205 11.1296 12.2166C9.98287 12.5467 8.9486 12.4917 8.19538 12.4036C6.5203 12.2166 5.59846 12.1946 5.59846 12.9868C5.59846 14.131 7.98178 15.5613 11.5568 15.0662C13.3667 14.8132 14.2998 14.2961 15.3678 13.944C16.5258 13.5699 17.5376 13.5809 17.5376 12.9868Z" fill="url(#paint7_linear_10800_20882)"/>
<path d="M13.537 10.2148C14.0957 10.2148 14.5485 9.77147 14.5485 9.22459C14.5485 8.67771 14.0957 8.23438 13.537 8.23438C12.9784 8.23438 12.5255 8.67771 12.5255 9.22459C12.5255 9.77147 12.9784 10.2148 13.537 10.2148Z" fill="white"/>
<path d="M15.1884 10.9515C15.4243 10.9515 15.6155 10.7643 15.6155 10.5334C15.6155 10.3025 15.4243 10.1153 15.1884 10.1153C14.9526 10.1153 14.7614 10.3025 14.7614 10.5334C14.7614 10.7643 14.9526 10.9515 15.1884 10.9515Z" fill="white"/>
<g opacity="0.6">
<path opacity="0.6" d="M16.7159 8.43209C16.7046 8.43209 16.6934 8.43209 16.6934 8.43209C16.6259 8.42109 16.581 8.35507 16.5922 8.27805C16.6934 7.77194 17.1205 7.28784 17.143 7.26583C17.1879 7.21082 17.2778 7.21082 17.3228 7.25483C17.3789 7.29884 17.3789 7.38686 17.334 7.43087C17.3228 7.44187 16.9294 7.89297 16.8395 8.33307C16.8283 8.39908 16.7721 8.43209 16.7159 8.43209Z" fill="url(#paint8_linear_10800_20882)"/>
</g>
<path opacity="0.2" d="M11.1663 17.5746C11.3401 17.5746 11.481 17.4367 11.481 17.2666C11.481 17.0964 11.3401 16.9585 11.1663 16.9585C10.9925 16.9585 10.8516 17.0964 10.8516 17.2666C10.8516 17.4367 10.9925 17.5746 11.1663 17.5746Z" fill="white"/>
<g opacity="0.4">
<path opacity="0.6" d="M10.9868 17.4671C10.8632 17.3461 10.8632 17.1481 10.9868 17.0271C11.0093 17.005 11.0317 16.994 11.0542 16.972C11.0093 16.9831 10.9755 17.005 10.9418 17.038C10.8182 17.1591 10.8182 17.3571 10.9418 17.4781C11.043 17.5772 11.2003 17.5992 11.3239 17.5332C11.2116 17.5772 11.0767 17.5552 10.9868 17.4671Z" fill="url(#paint9_linear_10800_20882)"/>
</g>
<path opacity="0.3" d="M11.2767 17.1777C11.314 17.1777 11.3442 17.1483 11.3442 17.1121C11.3442 17.0758 11.314 17.0465 11.2767 17.0465C11.2395 17.0465 11.2093 17.0758 11.2093 17.1121C11.2093 17.1483 11.2395 17.1777 11.2767 17.1777Z" fill="white"/>
<path opacity="0.2" d="M12.8075 17.4211C12.9813 17.4211 13.1222 17.2832 13.1222 17.113C13.1222 16.9429 12.9813 16.805 12.8075 16.805C12.6337 16.805 12.4928 16.9429 12.4928 17.113C12.4928 17.2832 12.6337 17.4211 12.8075 17.4211Z" fill="white"/>
<g opacity="0.4">
<path opacity="0.6" d="M12.6256 17.3122C12.5019 17.1912 12.5019 16.9931 12.6256 16.872C12.648 16.8501 12.6705 16.839 12.693 16.8171C12.648 16.8281 12.6143 16.8501 12.5806 16.8831C12.457 17.0041 12.457 17.2021 12.5806 17.3232C12.6818 17.4222 12.8391 17.4442 12.9627 17.3782C12.8503 17.4222 12.7155 17.4002 12.6256 17.3122Z" fill="url(#paint10_linear_10800_20882)"/>
</g>
<path opacity="0.3" d="M12.9186 17.0232C12.9558 17.0232 12.986 16.9939 12.986 16.9576C12.986 16.9215 12.9558 16.8921 12.9186 16.8921C12.8814 16.8921 12.8512 16.9215 12.8512 16.9576C12.8512 16.9939 12.8814 17.0232 12.9186 17.0232Z" fill="white"/>
<path opacity="0.2" d="M11.9967 18.136C12.1271 18.136 12.2328 18.0326 12.2328 17.905C12.2328 17.7773 12.1271 17.6739 11.9967 17.6739C11.8664 17.6739 11.7607 17.7773 11.7607 17.905C11.7607 18.0326 11.8664 18.136 11.9967 18.136Z" fill="white"/>
<g opacity="0.4">
<path opacity="0.6" d="M11.8606 18.0496C11.7707 17.9616 11.7707 17.8076 11.8606 17.7195C11.8719 17.7086 11.8943 17.6976 11.9056 17.6865C11.8719 17.6976 11.8494 17.7195 11.8269 17.7416C11.737 17.8296 11.737 17.9836 11.8269 18.0717C11.9056 18.1487 12.018 18.1596 12.1191 18.1047C12.0292 18.1377 11.9281 18.1157 11.8606 18.0496Z" fill="url(#paint11_linear_10800_20882)"/>
</g>
<path opacity="0.3" d="M12.0746 17.827C12.0994 17.827 12.1195 17.8074 12.1195 17.7833C12.1195 17.7591 12.0994 17.7395 12.0746 17.7395C12.0498 17.7395 12.0296 17.7591 12.0296 17.7833C12.0296 17.8074 12.0498 17.827 12.0746 17.827Z" fill="white"/>
<path opacity="0.2" d="M13.4455 17.9707C13.5758 17.9707 13.6815 17.8673 13.6815 17.7397C13.6815 17.6121 13.5758 17.5087 13.4455 17.5087C13.3152 17.5087 13.2095 17.6121 13.2095 17.7397C13.2095 17.8673 13.3152 17.9707 13.4455 17.9707Z" fill="white"/>
<g opacity="0.4">
<path opacity="0.6" d="M13.313 17.8851C13.2231 17.7971 13.2231 17.6431 13.313 17.555C13.3242 17.544 13.3467 17.5331 13.358 17.522C13.3242 17.5331 13.3017 17.555 13.2793 17.577C13.1893 17.665 13.1893 17.8191 13.2793 17.9071C13.358 17.9841 13.4703 17.9951 13.5715 17.9401C13.4816 17.9731 13.3804 17.9511 13.313 17.8851Z" fill="url(#paint12_linear_10800_20882)"/>
</g>
<path opacity="0.3" d="M13.524 17.6623C13.5489 17.6623 13.569 17.6428 13.569 17.6186C13.569 17.5944 13.5489 17.5749 13.524 17.5749C13.4992 17.5749 13.4791 17.5944 13.4791 17.6186C13.4791 17.6428 13.4992 17.6623 13.524 17.6623Z" fill="white"/>
<path opacity="0.2" d="M9.826 17.4649C10.1115 17.4649 10.343 17.2383 10.343 16.9588C10.343 16.6793 10.1115 16.4527 9.826 16.4527C9.54048 16.4527 9.30902 16.6793 9.30902 16.9588C9.30902 17.2383 9.54048 17.4649 9.826 17.4649Z" fill="white"/>
<g opacity="0.4">
<path opacity="0.6" d="M9.5345 17.2773C9.3322 17.0792 9.3322 16.7601 9.5345 16.5621C9.56822 16.5291 9.60194 16.5071 9.64689 16.4851C9.57946 16.5071 9.52327 16.5511 9.46707 16.5952C9.26477 16.7931 9.26477 17.1122 9.46707 17.3103C9.63565 17.4753 9.89414 17.5083 10.0964 17.3873C9.90538 17.4643 9.6806 17.4313 9.5345 17.2773Z" fill="url(#paint13_linear_10800_20882)"/>
</g>
<path opacity="0.3" d="M10.0049 16.8044C10.0669 16.8044 10.1173 16.7551 10.1173 16.6944C10.1173 16.6336 10.0669 16.5844 10.0049 16.5844C9.9428 16.5844 9.89249 16.6336 9.89249 16.6944C9.89249 16.7551 9.9428 16.8044 10.0049 16.8044Z" fill="white"/>
<path opacity="0.2" d="M14.4481 16.2214C14.7337 16.2214 14.9651 15.9948 14.9651 15.7153C14.9651 15.4358 14.7337 15.2092 14.4481 15.2092C14.1626 15.2092 13.9312 15.4358 13.9312 15.7153C13.9312 15.9948 14.1626 16.2214 14.4481 16.2214Z" fill="white"/>
<g opacity="0.4">
<path opacity="0.6" d="M14.1429 16.0347C13.9406 15.8366 13.9406 15.5176 14.1429 15.3196C14.1766 15.2866 14.2104 15.2645 14.2553 15.2425C14.1878 15.2645 14.1317 15.3085 14.0755 15.3526C13.8732 15.5506 13.8732 15.8697 14.0755 16.0677C14.2441 16.2328 14.5025 16.2658 14.7049 16.1447C14.5138 16.2218 14.3002 16.1888 14.1429 16.0347Z" fill="url(#paint14_linear_10800_20882)"/>
</g>
<path opacity="0.3" d="M14.6283 15.5615C14.6904 15.5615 14.7406 15.5122 14.7406 15.4515C14.7406 15.3907 14.6904 15.3414 14.6283 15.3414C14.5662 15.3414 14.5159 15.3907 14.5159 15.4515C14.5159 15.5122 14.5662 15.5615 14.6283 15.5615Z" fill="white"/>
<defs>
<radialGradient id="paint0_radial_10800_20882" cx="0" cy="0" r="1" gradientUnits="userSpaceOnUse" gradientTransform="translate(18.5364 6.64938) scale(5.02458 4.91746)">
<stop stop-color="#FFEAFF" stop-opacity="0.6"/>
<stop offset="0.6807" stop-color="#A087C9"/>
<stop offset="1" stop-color="#10002F"/>
</radialGradient>
<radialGradient id="paint1_radial_10800_20882" cx="0" cy="0" r="1" gradientUnits="userSpaceOnUse" gradientTransform="translate(17.2209 11.8941) scale(14.072 14.6472)">
<stop stop-color="#FFEAFF" stop-opacity="0.6"/>
<stop offset="0.6807" stop-color="#A087C9"/>
<stop offset="1" stop-color="#10002F"/>
</radialGradient>
<linearGradient id="paint2_linear_10800_20882" x1="10.5719" y1="19.0495" x2="12.4993" y2="6.89994" gradientUnits="userSpaceOnUse">
<stop stop-color="#81FFFF"/>
<stop offset="0.6202" stop-color="white" stop-opacity="0"/>
</linearGradient>
<linearGradient id="paint3_linear_10800_20882" x1="16.009" y1="8.80998" x2="10.915" y2="13.5857" gradientUnits="userSpaceOnUse">
<stop offset="0.2888" stop-color="white"/>
<stop offset="0.7796" stop-color="white" stop-opacity="0"/>
</linearGradient>
<linearGradient id="paint4_linear_10800_20882" x1="5.60352" y1="15.8487" x2="17.5459" y2="15.8487" gradientUnits="userSpaceOnUse">
<stop stop-color="#0002E9"/>
<stop offset="0.9952" stop-color="#FF00C7"/>
</linearGradient>
<linearGradient id="paint5_linear_10800_20882" x1="18.1118" y1="13.4442" x2="11.744" y2="19.5933" gradientUnits="userSpaceOnUse">
<stop offset="0.2888" stop-color="white"/>
<stop offset="0.7796" stop-color="white" stop-opacity="0"/>
</linearGradient>
<linearGradient id="paint6_linear_10800_20882" x1="5.60574" y1="15.8493" x2="11.9949" y2="15.8493" gradientUnits="userSpaceOnUse">
<stop stop-color="#000292"/>
<stop offset="0.9952" stop-color="#7D00C7"/>
</linearGradient>
<linearGradient id="paint7_linear_10800_20882" x1="5.61153" y1="13.4721" x2="17.5379" y2="13.4721" gradientUnits="userSpaceOnUse">
<stop stop-color="#000292"/>
<stop offset="0.9952" stop-color="#BE00C7"/>
</linearGradient>
<linearGradient id="paint8_linear_10800_20882" x1="17.341" y1="7.21225" x2="16.5102" y2="8.59121" gradientUnits="userSpaceOnUse">
<stop offset="0.2888" stop-color="white"/>
<stop offset="0.7796" stop-color="white" stop-opacity="0"/>
</linearGradient>
<linearGradient id="paint9_linear_10800_20882" x1="10.8488" y1="17.2785" x2="11.3243" y2="17.2785" gradientUnits="userSpaceOnUse">
<stop offset="0.2888" stop-color="white"/>
<stop offset="0.7796" stop-color="white" stop-opacity="0"/>
</linearGradient>
<linearGradient id="paint10_linear_10800_20882" x1="12.4864" y1="17.1215" x2="12.9619" y2="17.1215" gradientUnits="userSpaceOnUse">
<stop offset="0.2888" stop-color="white"/>
<stop offset="0.7796" stop-color="white" stop-opacity="0"/>
</linearGradient>
<linearGradient id="paint11_linear_10800_20882" x1="11.7532" y1="17.9088" x2="12.1102" y2="17.9088" gradientUnits="userSpaceOnUse">
<stop offset="0.2888" stop-color="white"/>
<stop offset="0.7796" stop-color="white" stop-opacity="0"/>
</linearGradient>
<linearGradient id="paint12_linear_10800_20882" x1="13.2055" y1="17.7443" x2="13.5625" y2="17.7443" gradientUnits="userSpaceOnUse">
<stop offset="0.2888" stop-color="white"/>
<stop offset="0.7796" stop-color="white" stop-opacity="0"/>
</linearGradient>
<linearGradient id="paint13_linear_10800_20882" x1="9.31019" y1="16.9711" x2="10.0867" y2="16.9711" gradientUnits="userSpaceOnUse">
<stop offset="0.2888" stop-color="white"/>
<stop offset="0.7796" stop-color="white" stop-opacity="0"/>
</linearGradient>
<linearGradient id="paint14_linear_10800_20882" x1="13.9229" y1="15.7281" x2="14.6994" y2="15.7281" gradientUnits="userSpaceOnUse">
<stop offset="0.2888" stop-color="white"/>
<stop offset="0.7796" stop-color="white" stop-opacity="0"/>
</linearGradient>
</defs>
</svg>
