<svg width="24" height="24" viewBox="0 0 24 24" fill="none" xmlns="http://www.w3.org/2000/svg">
<path d="M24 12C24 5.37258 18.6274 0 12 0C5.37258 0 0 5.37258 0 12C0 18.6274 5.37258 24 12 24C18.6274 24 24 18.6274 24 12Z" fill="#E6007A"/>
<path d="M17.3186 15.6694C16.0463 15.6694 15.0168 14.638 15.0168 13.3676V9.92072H17.9856V7.91581H15.0168V4.6L12.742 5.81451V7.91581H8.4276C5.42023 7.91581 4.62983 11.5401 6.94319 12.8895L9.29511 14.4703C9.81561 14.8559 9.60355 15.6656 8.87099 15.6656H5.67084V17.6897H8.87099C11.8976 17.6897 12.6688 14.0655 10.3554 12.716L8.02276 11.1352C7.50225 10.7497 7.69503 9.92072 8.4276 9.92072H12.742V13.3946C12.742 16.0164 14.5541 17.6917 17.2916 17.6917H17.9856V15.6694H17.3186Z" fill="white"/>
</svg>
