<svg width="24" height="24" viewBox="0 0 24 24" fill="none" xmlns="http://www.w3.org/2000/svg">
<path d="M12 24C18.6274 24 24 18.6274 24 12C24 5.37258 18.6274 0 12 0C5.37258 0 0 5.37258 0 12C0 18.6274 5.37258 24 12 24Z" fill="white"/>
<path d="M11.9985 3.264L11.881 3.66217V15.215L11.9985 15.332L17.3727 12.1621L11.9985 3.264Z" fill="#343434"/>
<path d="M11.9985 3.264L6.624 12.1621L11.9985 15.332V9.72451V3.264Z" fill="#8C8C8C"/>
<path d="M11.9985 16.3473L11.9322 16.4278V20.5431L11.9985 20.736L17.376 13.1791L11.9985 16.3473Z" fill="#3C3C3B"/>
<path d="M11.9985 20.736V16.3473L6.624 13.1791L11.9985 20.736Z" fill="#8C8C8C"/>
<path d="M11.9985 15.332L17.3727 12.1621L11.9985 9.72451V15.332Z" fill="#141414"/>
<path d="M6.624 12.1621L11.9985 15.332V9.72451L6.624 12.1621Z" fill="#393939"/>
<path d="M17 23C20.3137 23 23 20.3137 23 17C23 13.6863 20.3137 11 17 11C13.6863 11 11 13.6863 11 17C11 20.3137 13.6863 23 17 23Z" fill="white"/>
<path d="M17.4455 16.3978L19.7871 14.0691L18.8988 13.1855L17.0012 15.0727L15.1036 13.1855L14.2153 14.0691L16.5569 16.3978C16.6794 16.5197 16.8405 16.5806 17.0009 16.5806C17.1613 16.5806 17.323 16.5197 17.4455 16.3978Z" fill="black"/>
<path d="M20.8352 18.8852L18.9376 16.9981L20.8352 15.1109L19.9469 14.2273L17.6053 16.556C17.36 16.8001 17.36 17.1954 17.6053 17.4395L19.9469 19.7682L20.8352 18.8852Z" fill="black"/>
<path d="M16.9981 18.9275L18.8956 20.8147L19.784 19.9311L17.4424 17.6025C17.197 17.3587 16.7994 17.3587 16.5541 17.6025L14.2125 19.9311L15.1008 20.8147L16.9981 18.9275Z" fill="black"/>
<path d="M16.394 17.4433C16.5117 17.3262 16.5781 17.1673 16.5781 17.0015C16.5781 16.8358 16.5121 16.6769 16.394 16.5598L14.0524 14.2311L13.1641 15.1147L15.0616 17.0019L13.1641 18.889L14.0524 19.7726L16.394 17.4433Z" fill="black"/>
</svg>
