<svg width="24" height="24" viewBox="0 0 24 24" fill="none" xmlns="http://www.w3.org/2000/svg">
<path d="M12 24C18.6274 24 24 18.6274 24 12C24 5.37258 18.6274 0 12 0C5.37258 0 0 5.37258 0 12C0 18.6274 5.37258 24 12 24Z" fill="black"/>
<path d="M10.6146 12.9648C9.57388 11.7359 9.1293 10.6412 9.1293 9.55778C9.1293 8.91741 9.19617 8.51609 9.28418 8.1463C8.77498 9.23987 8.59893 10.0583 8.59893 10.8295C8.59893 14.9141 12.3004 15.4406 12.3004 18.3312C12.3004 19.0291 11.9349 19.9772 10.6993 21.754C14.4219 16.7269 15.369 14.9186 15.369 13.6638C15.369 10.1531 11.682 9.56342 11.682 5.61526C11.682 4.71449 12.1912 3.6299 13.1439 2.2139C13.1439 2.2139 12.238 3.50252 11.7489 4.19137C10.0073 6.6446 9.33321 9.82951 10.6123 12.9671L10.6146 12.9648Z" fill="white"/>
</svg>
