<svg width="16" height="17" viewBox="0 0 16 17" fill="none" xmlns="http://www.w3.org/2000/svg">
<g id="Union">
<path d="M15.1268 7.00766C14.6431 7.00766 14.2535 6.61774 14.2535 6.1337V2.24793H10.3709C9.8873 2.24793 9.49769 1.858 9.49769 1.37396C9.49769 0.889919 9.8873 0.5 10.3709 0.5H15.1268C15.6104 0.5 16 0.889919 16 1.37396V6.1337C16 6.61774 15.6104 7.00766 15.1268 7.00766Z" fill="#2868E1"/>
<path fill-rule="evenodd" clip-rule="evenodd" d="M4.66178 16.5C2.09578 16.5 0 14.4025 0 11.8344C0 9.63734 1.54383 7.76905 3.62325 7.28803C4.09707 5.21554 5.95833 3.65956 8.1684 3.65956C10.7344 3.65956 12.8302 5.75707 12.8302 8.32518C12.8302 10.5371 11.2754 12.4 9.2045 12.8741C8.72662 14.9506 6.85228 16.5 4.66178 16.5ZM8.26675 11.2547C8.2341 11.2558 8.20131 11.2563 8.1684 11.2563C6.55626 11.2563 5.25311 9.95209 5.25311 8.33862C5.25311 6.72515 6.55626 5.42093 8.1684 5.42093C9.78054 5.42093 11.0837 6.72515 11.0837 8.33862C11.0837 9.84942 9.94112 11.0891 8.47216 11.2407C8.4011 11.2374 8.33239 11.2423 8.26675 11.2547ZM7.37612 12.9231C6.94348 13.999 5.8863 14.7521 4.67521 14.7521C3.06307 14.7521 1.75992 13.4478 1.75992 11.8344C1.75992 10.6237 2.51057 9.56671 3.57686 9.13277C3.91601 11.0613 5.44718 12.5897 7.37612 12.9231Z" fill="#2868E1"/>
</g>
</svg>
