<svg width="32" height="32" viewBox="0 0 32 32" fill="none" xmlns="http://www.w3.org/2000/svg">
<path d="M24.9084 14.1346C24.3039 14.1346 23.8169 13.6472 23.8169 13.0421V8.18482H18.9637C18.3591 8.18482 17.8721 7.69741 17.8721 7.09235C17.8721 6.48728 18.3591 5.99988 18.9637 5.99988H24.9084C25.513 5.99988 26 6.48728 26 7.09235V13.0421C26 13.6472 25.513 14.1346 24.9084 14.1346Z" fill="#2868E1"/>
<path fill-rule="evenodd" clip-rule="evenodd" d="M11.8272 26.0002C8.61973 26.0002 6 23.3783 6 20.1681C6 17.4217 7.92978 15.0863 10.5291 14.485C11.1213 11.8944 13.4479 9.94938 16.2105 9.94938C19.418 9.94938 22.0377 12.5713 22.0377 15.7815C22.0377 18.5465 20.0942 20.8751 17.5056 21.4678C16.9083 24.0634 14.5653 26.0002 11.8272 26.0002ZM16.3334 19.4435C16.2926 19.4448 16.2516 19.4455 16.2105 19.4455C14.1953 19.4455 12.5664 17.8152 12.5664 15.7983C12.5664 13.7814 14.1953 12.1511 16.2105 12.1511C18.2257 12.1511 19.8546 13.7814 19.8546 15.7983C19.8546 17.6868 18.4264 19.2364 16.5902 19.426C16.5014 19.4218 16.4155 19.428 16.3334 19.4435ZM15.2201 21.5289C14.6794 22.8739 13.3579 23.8153 11.844 23.8153C9.82884 23.8153 8.1999 22.1849 8.1999 20.1681C8.1999 18.6547 9.13821 17.3334 10.4711 16.791C10.895 19.2017 12.809 21.1122 15.2201 21.5289Z" fill="#2868E1"/>
</svg>
