<svg width="32" height="32" viewBox="0 0 32 32" fill="none" xmlns="http://www.w3.org/2000/svg">
<path d="M16.7143 6C17.875 6 18.8571 6.98214 18.8571 8.14286V23.8571C18.8571 25.0625 17.875 26 16.7143 26H15.2857C14.0804 26 13.1429 25.0625 13.1429 23.8571V8.14286C13.1429 6.98214 14.0804 6 15.2857 6H16.7143ZM16.7143 8.14286H15.2857V23.8571H16.7143V8.14286ZM9.57143 14.5714C10.7321 14.5714 11.7143 15.5536 11.7143 16.7143V23.8571C11.7143 25.0625 10.7321 26 9.57143 26H8.14286C6.9375 26 6 25.0625 6 23.8571V16.7143C6 15.5536 6.9375 14.5714 8.14286 14.5714H9.57143ZM9.57143 16.7143H8.14286V23.8571H9.57143V16.7143ZM20.2857 11C20.2857 9.83929 21.2232 8.85714 22.4286 8.85714H23.8571C25.0179 8.85714 26 9.83929 26 11V23.8571C26 25.0625 25.0179 26 23.8571 26H22.4286C21.2232 26 20.2857 25.0625 20.2857 23.8571V11ZM22.4286 23.8571H23.8571V11H22.4286V23.8571Z" fill="#2868E1"/>
</svg>
