<svg width="107" height="90" viewBox="0 0 107 90" fill="none" xmlns="http://www.w3.org/2000/svg">
<g filter="url(#filter0_d_15307_66672)">
<g clip-path="url(#clip0_15307_66672)">
<path d="M13.6667 18C13.6667 13.5817 17.2485 10 21.6667 10H85.6667C90.085 10 93.6667 13.5817 93.6667 18V66C93.6667 70.4183 90.085 74 85.6667 74H21.6667C17.2485 74 13.6667 70.4183 13.6667 66V18Z" fill="#1E242F"/>
<path d="M13.6667 10H93.6667V22H13.6667V10Z" fill="#384354"/>
<path d="M32.6667 53.2105C32.6667 50.8851 34.3084 49 36.3334 49H62.0001C64.0251 49 65.6667 50.8851 65.6667 53.2105V64.7895C65.6667 67.1149 64.0251 69 62.0001 69H36.3334C34.3084 69 32.6667 67.1149 32.6667 64.7895V53.2105Z" fill="#384355"/>
<path d="M55.6667 30.2105C55.6667 27.8851 57.3084 26 59.3334 26H85.0001C87.0251 26 88.6667 27.8851 88.6667 30.2105V41.7895C88.6667 44.1149 87.0251 46 85.0001 46H59.3334C57.3084 46 55.6667 44.1149 55.6667 41.7895V30.2105Z" fill="#384355"/>
<path d="M68.6667 53.2105C68.6667 50.8851 70.6566 49 73.1112 49H84.2223C86.6769 49 88.6667 50.8851 88.6667 53.2105V64.7895C88.6667 67.1149 86.6769 69 84.2223 69H73.1112C70.6566 69 68.6667 67.1149 68.6667 64.7895V53.2105Z" fill="#384355"/>
<path d="M32.6667 30.2105C32.6667 27.8851 34.6566 26 37.1112 26H48.2223C50.6769 26 52.6667 27.8851 52.6667 30.2105V41.7895C52.6667 44.1149 50.6769 46 48.2223 46H37.1112C34.6566 46 32.6667 44.1149 32.6667 41.7895V30.2105Z" fill="#384355"/>
<path d="M17.6667 27.5C17.6667 26.6716 18.3383 26 19.1667 26H25.1667C25.9952 26 26.6667 26.6716 26.6667 27.5C26.6667 28.3284 25.9952 29 25.1667 29H19.1667C18.3383 29 17.6667 28.3284 17.6667 27.5Z" fill="#384355"/>
<path d="M17.6667 32.5C17.6667 31.6716 18.3383 31 19.1667 31H28.1667C28.9952 31 29.6667 31.6716 29.6667 32.5C29.6667 33.3284 28.9952 34 28.1667 34H19.1667C18.3383 34 17.6667 33.3284 17.6667 32.5Z" fill="#384355"/>
<path d="M17.6667 37.5C17.6667 36.6716 18.3383 36 19.1667 36H22.1667C22.9952 36 23.6667 36.6716 23.6667 37.5C23.6667 38.3284 22.9952 39 22.1667 39H19.1667C18.3383 39 17.6667 38.3284 17.6667 37.5Z" fill="#384355"/>
<path d="M42.1104 30C41.5584 30 41.1109 30.4477 41.1109 30.9999V41.0001C41.1109 41.5523 41.5584 42 42.1104 42H43.2231C43.7751 42 44.2226 41.5523 44.2226 41.0001V30.9999C44.2226 30.4477 43.7751 30 43.2231 30H42.1104Z" fill="#566479"/>
<path d="M37.6662 36.667C37.1142 36.667 36.6667 37.1146 36.6667 37.6669V41.0001C36.6667 41.5523 37.1142 42 37.6662 42H38.7789C39.3309 42 39.7784 41.5523 39.7784 41.0001V37.6669C39.7784 37.1146 39.3309 36.667 38.7789 36.667H37.6662Z" fill="#566479"/>
<path d="M45.5551 34.3331C45.5551 33.7808 46.0026 33.3331 46.5546 33.3331H47.6673C48.2193 33.3331 48.6667 33.7808 48.6667 34.3331V41.0001C48.6667 41.5523 48.2193 42 47.6673 42H46.5546C46.0026 42 45.5551 41.5523 45.5551 41.0001V34.3331Z" fill="#566479"/>
<path d="M79.2414 53.4276C79.1653 53.1738 78.9317 53 78.6667 53C78.4018 53 78.1682 53.1738 78.0921 53.4276C77.6604 54.8663 77.101 55.8923 76.33 56.6632C75.559 57.4342 74.533 57.9937 73.0943 58.4253C72.8406 58.5015 72.6667 58.735 72.6667 59C72.6667 59.265 72.8406 59.4985 73.0943 59.5747C74.533 60.0063 75.559 60.5658 76.33 61.3368C77.101 62.1078 77.6604 63.1337 78.0921 64.5724C78.1682 64.8262 78.4018 65 78.6667 65C78.9317 65 79.1653 64.8262 79.2414 64.5724C79.6731 63.1337 80.2325 62.1078 81.0035 61.3368C81.7745 60.5658 82.8004 60.0063 84.2391 59.5747C84.4929 59.4985 84.6667 59.265 84.6667 59C84.6667 58.735 84.4929 58.5015 84.2391 58.4253C82.8004 57.9937 81.7745 57.4342 81.0035 56.6632C80.2325 55.8923 79.6731 54.8663 79.2414 53.4276Z" fill="#566479"/>
<g filter="url(#filter1_d_15307_66672)">
<path fill-rule="evenodd" clip-rule="evenodd" d="M85.6667 11H21.6667C17.8008 11 14.6667 14.134 14.6667 18V66C14.6667 69.866 17.8008 73 21.6667 73H85.6667C89.5327 73 92.6667 69.866 92.6667 66V18C92.6667 14.134 89.5327 11 85.6667 11ZM21.6667 10C17.2485 10 13.6667 13.5817 13.6667 18V66C13.6667 70.4183 17.2485 74 21.6667 74H85.6667C90.085 74 93.6667 70.4183 93.6667 66V18C93.6667 13.5817 90.085 10 85.6667 10H21.6667Z" fill="#384355"/>
</g>
<path d="M17.6667 27.5C17.6667 26.6716 18.3383 26 19.1667 26H25.1667C25.9952 26 26.6667 26.6716 26.6667 27.5V27.5C26.6667 28.3284 25.9952 29 25.1667 29H19.1667C18.3383 29 17.6667 28.3284 17.6667 27.5V27.5Z" fill="#3470E2"/>
</g>
</g>
<defs>
<filter id="filter0_d_15307_66672" x="-6.33325" y="0" width="120" height="104" filterUnits="userSpaceOnUse" color-interpolation-filters="sRGB">
<feFlood flood-opacity="0" result="BackgroundImageFix"/>
<feColorMatrix in="SourceAlpha" type="matrix" values="0 0 0 0 0 0 0 0 0 0 0 0 0 0 0 0 0 0 127 0" result="hardAlpha"/>
<feOffset dy="10"/>
<feGaussianBlur stdDeviation="10"/>
<feComposite in2="hardAlpha" operator="out"/>
<feColorMatrix type="matrix" values="0 0 0 0 0.360784 0 0 0 0 0.45098 0 0 0 0 0.627451 0 0 0 0.07 0"/>
<feBlend mode="normal" in2="BackgroundImageFix" result="effect1_dropShadow_15307_66672"/>
<feBlend mode="normal" in="SourceGraphic" in2="effect1_dropShadow_15307_66672" result="shape"/>
</filter>
<filter id="filter1_d_15307_66672" x="-6.33325" y="0" width="120" height="104" filterUnits="userSpaceOnUse" color-interpolation-filters="sRGB">
<feFlood flood-opacity="0" result="BackgroundImageFix"/>
<feColorMatrix in="SourceAlpha" type="matrix" values="0 0 0 0 0 0 0 0 0 0 0 0 0 0 0 0 0 0 127 0" result="hardAlpha"/>
<feOffset dy="10"/>
<feGaussianBlur stdDeviation="10"/>
<feComposite in2="hardAlpha" operator="out"/>
<feColorMatrix type="matrix" values="0 0 0 0 0.360784 0 0 0 0 0.45098 0 0 0 0 0.627451 0 0 0 0.07 0"/>
<feBlend mode="normal" in2="BackgroundImageFix" result="effect1_dropShadow_15307_66672"/>
<feBlend mode="normal" in="SourceGraphic" in2="effect1_dropShadow_15307_66672" result="shape"/>
</filter>
<clipPath id="clip0_15307_66672">
<path d="M13.6667 18C13.6667 13.5817 17.2485 10 21.6667 10H85.6667C90.085 10 93.6667 13.5817 93.6667 18V66C93.6667 70.4183 90.085 74 85.6667 74H21.6667C17.2485 74 13.6667 70.4183 13.6667 66V18Z" fill="white"/>
</clipPath>
</defs>
</svg>
