<svg width="108" height="90" viewBox="0 0 108 90" fill="none" xmlns="http://www.w3.org/2000/svg">
<g filter="url(#filter0_d_15307_66660)">
<g clip-path="url(#clip0_15307_66660)">
<path d="M14 18C14 13.5817 17.5817 10 22 10H86C90.4183 10 94 13.5817 94 18V66C94 70.4183 90.4183 74 86 74H22C17.5817 74 14 70.4183 14 66V18Z" fill="white"/>
<path d="M14 10H94V22H14V10Z" fill="#EBEFF5"/>
<g filter="url(#filter1_d_15307_66660)">
<path fill-rule="evenodd" clip-rule="evenodd" d="M86 11H22C18.134 11 15 14.134 15 18V66C15 69.866 18.134 73 22 73H86C89.866 73 93 69.866 93 66V18C93 14.134 89.866 11 86 11ZM22 10C17.5817 10 14 13.5817 14 18V66C14 70.4183 17.5817 74 22 74H86C90.4183 74 94 70.4183 94 66V18C94 13.5817 90.4183 10 86 10H22Z" fill="#C1CAD7"/>
</g>
<path d="M33 53.2105C33 50.8851 34.6416 49 36.6667 49H62.3333C64.3584 49 66 50.8851 66 53.2105V64.7895C66 67.1149 64.3584 69 62.3333 69H36.6667C34.6416 69 33 67.1149 33 64.7895V53.2105Z" fill="#EBEFF5"/>
<path d="M56 30.2105C56 27.8851 57.6416 26 59.6667 26H85.3333C87.3584 26 89 27.8851 89 30.2105V41.7895C89 44.1149 87.3584 46 85.3333 46H59.6667C57.6416 46 56 44.1149 56 41.7895V30.2105Z" fill="#EBEFF5"/>
<path d="M69 53.2105C69 50.8851 70.9898 49 73.4444 49H84.5556C87.0102 49 89 50.8851 89 53.2105V64.7895C89 67.1149 87.0102 69 84.5556 69H73.4444C70.9898 69 69 67.1149 69 64.7895V53.2105Z" fill="#EBEFF5"/>
<path d="M33 30.2105C33 27.8851 34.9898 26 37.4444 26H48.5556C51.0102 26 53 27.8851 53 30.2105V41.7895C53 44.1149 51.0102 46 48.5556 46H37.4444C34.9898 46 33 44.1149 33 41.7895V30.2105Z" fill="#EBEFF5"/>
<path d="M18 27.5C18 26.6716 18.6716 26 19.5 26H25.5C26.3284 26 27 26.6716 27 27.5C27 28.3284 26.3284 29 25.5 29H19.5C18.6716 29 18 28.3284 18 27.5Z" fill="#EBEFF5"/>
<path d="M18 32.5C18 31.6716 18.6716 31 19.5 31H28.5C29.3284 31 30 31.6716 30 32.5C30 33.3284 29.3284 34 28.5 34H19.5C18.6716 34 18 33.3284 18 32.5Z" fill="#EBEFF5"/>
<path d="M18 37.5C18 36.6716 18.6716 36 19.5 36H22.5C23.3284 36 24 36.6716 24 37.5C24 38.3284 23.3284 39 22.5 39H19.5C18.6716 39 18 38.3284 18 37.5Z" fill="#EBEFF5"/>
<path d="M42.4436 30C41.8917 30 41.4442 30.4477 41.4442 30.9999V41.0001C41.4442 41.5523 41.8917 42 42.4436 42H43.5564C44.1083 42 44.5558 41.5523 44.5558 41.0001V30.9999C44.5558 30.4477 44.1083 30 43.5564 30H42.4436Z" fill="#C1CAD7"/>
<path d="M37.9995 36.667C37.4475 36.667 37 37.1146 37 37.6669V41.0001C37 41.5523 37.4475 42 37.9995 42H39.1122C39.6642 42 40.1116 41.5523 40.1116 41.0001V37.6669C40.1116 37.1146 39.6642 36.667 39.1122 36.667H37.9995Z" fill="#C1CAD7"/>
<path d="M45.8884 34.3331C45.8884 33.7808 46.3358 33.3331 46.8878 33.3331H48.0005C48.5526 33.3331 49 33.7808 49 34.3331V41.0001C49 41.5523 48.5526 42 48.0005 42H46.8878C46.3358 42 45.8884 41.5523 45.8884 41.0001V34.3331Z" fill="#C1CAD7"/>
<path d="M79.5747 53.4276C79.4985 53.1738 79.265 53 79 53C78.735 53 78.5015 53.1738 78.4253 53.4276C77.9937 54.8663 77.4342 55.8923 76.6632 56.6632C75.8923 57.4342 74.8663 57.9937 73.4276 58.4253C73.1738 58.5015 73 58.735 73 59C73 59.265 73.1738 59.4985 73.4276 59.5747C74.8663 60.0063 75.8923 60.5658 76.6632 61.3368C77.4342 62.1078 77.9937 63.1337 78.4253 64.5724C78.5015 64.8262 78.735 65 79 65C79.265 65 79.4985 64.8262 79.5747 64.5724C80.0063 63.1337 80.5658 62.1078 81.3368 61.3368C82.1078 60.5658 83.1337 60.0063 84.5724 59.5747C84.8262 59.4985 85 59.265 85 59C85 58.735 84.8262 58.5015 84.5724 58.4253C83.1337 57.9937 82.1078 57.4342 81.3368 56.6632C80.5658 55.8923 80.0063 54.8663 79.5747 53.4276Z" fill="#C1CAD7"/>
<path d="M18 27.5C18 26.6716 18.6716 26 19.5 26H25.5C26.3284 26 27 26.6716 27 27.5V27.5C27 28.3284 26.3284 29 25.5 29H19.5C18.6716 29 18 28.3284 18 27.5V27.5Z" fill="#3470E2"/>
</g>
</g>
<defs>
<filter id="filter0_d_15307_66660" x="-6" y="0" width="120" height="104" filterUnits="userSpaceOnUse" color-interpolation-filters="sRGB">
<feFlood flood-opacity="0" result="BackgroundImageFix"/>
<feColorMatrix in="SourceAlpha" type="matrix" values="0 0 0 0 0 0 0 0 0 0 0 0 0 0 0 0 0 0 127 0" result="hardAlpha"/>
<feOffset dy="10"/>
<feGaussianBlur stdDeviation="10"/>
<feComposite in2="hardAlpha" operator="out"/>
<feColorMatrix type="matrix" values="0 0 0 0 0.360784 0 0 0 0 0.45098 0 0 0 0 0.627451 0 0 0 0.07 0"/>
<feBlend mode="normal" in2="BackgroundImageFix" result="effect1_dropShadow_15307_66660"/>
<feBlend mode="normal" in="SourceGraphic" in2="effect1_dropShadow_15307_66660" result="shape"/>
</filter>
<filter id="filter1_d_15307_66660" x="-6" y="0" width="120" height="104" filterUnits="userSpaceOnUse" color-interpolation-filters="sRGB">
<feFlood flood-opacity="0" result="BackgroundImageFix"/>
<feColorMatrix in="SourceAlpha" type="matrix" values="0 0 0 0 0 0 0 0 0 0 0 0 0 0 0 0 0 0 127 0" result="hardAlpha"/>
<feOffset dy="10"/>
<feGaussianBlur stdDeviation="10"/>
<feComposite in2="hardAlpha" operator="out"/>
<feColorMatrix type="matrix" values="0 0 0 0 0.360784 0 0 0 0 0.45098 0 0 0 0 0.627451 0 0 0 0.07 0"/>
<feBlend mode="normal" in2="BackgroundImageFix" result="effect1_dropShadow_15307_66660"/>
<feBlend mode="normal" in="SourceGraphic" in2="effect1_dropShadow_15307_66660" result="shape"/>
</filter>
<clipPath id="clip0_15307_66660">
<path d="M14 18C14 13.5817 17.5817 10 22 10H86C90.4183 10 94 13.5817 94 18V66C94 70.4183 90.4183 74 86 74H22C17.5817 74 14 70.4183 14 66V18Z" fill="white"/>
</clipPath>
</defs>
</svg>
