<svg width="107" height="90" viewBox="0 0 107 90" fill="none" xmlns="http://www.w3.org/2000/svg">
<g filter="url(#filter0_d_15307_66640)">
<g clip-path="url(#clip0_15307_66640)">
<path d="M13.3334 18C13.3334 13.5817 16.9151 10 21.3334 10H85.3334C89.7516 10 93.3334 13.5817 93.3334 18V66C93.3334 70.4183 89.7517 74 85.3334 74H21.3334C16.9151 74 13.3334 70.4183 13.3334 66V18Z" fill="white"/>
<rect x="53.3334" y="10" width="40" height="63" fill="#1E242F"/>
<path d="M53.3334 10H93.3334V22H53.3334V10Z" fill="#384354"/>
<path d="M13.3334 10H53.3334V22H13.3334V10Z" fill="#EBEFF5"/>
<g filter="url(#filter1_d_15307_66640)">
<path fill-rule="evenodd" clip-rule="evenodd" d="M85.3334 11H21.3334C17.4674 11 14.3334 14.134 14.3334 18V66C14.3334 69.866 17.4674 73 21.3334 73H85.3334C89.1994 73 92.3334 69.866 92.3334 66V18C92.3334 14.134 89.1994 11 85.3334 11ZM21.3334 10C16.9151 10 13.3334 13.5817 13.3334 18V66C13.3334 70.4183 16.9151 74 21.3334 74H85.3334C89.7517 74 93.3334 70.4183 93.3334 66V18C93.3334 13.5817 89.7516 10 85.3334 10H21.3334Z" fill="#C1CAD7"/>
</g>
<g filter="url(#filter2_d_15307_66640)">
<path fill-rule="evenodd" clip-rule="evenodd" d="M53.3334 74H85.3334C89.7517 74 93.3334 70.4183 93.3334 66V18C93.3334 13.5817 89.7516 10 85.3334 10H53.3334V11H85.3334C89.1994 11 92.3334 14.134 92.3334 18V66C92.3334 69.866 89.1994 73 85.3334 73H53.3334V74Z" fill="#384355"/>
</g>
<g clip-path="url(#clip1_15307_66640)">
<path d="M32.3334 53.2105C32.3334 50.8851 33.975 49 36 49H61.6667C63.6918 49 65.3334 50.8851 65.3334 53.2105V64.7895C65.3334 67.1149 63.6918 69 61.6667 69H36C33.975 69 32.3334 67.1149 32.3334 64.7895V53.2105Z" fill="#384355"/>
<path d="M55.3334 30.2105C55.3334 27.8851 56.975 26 59 26H84.6667C86.6918 26 88.3334 27.8851 88.3334 30.2105V41.7895C88.3334 44.1149 86.6918 46 84.6667 46H59C56.975 46 55.3334 44.1149 55.3334 41.7895V30.2105Z" fill="#384355"/>
<path d="M68.3334 53.2105C68.3334 50.8851 70.3232 49 72.7778 49H83.8889C86.3435 49 88.3334 50.8851 88.3334 53.2105V64.7895C88.3334 67.1149 86.3435 69 83.8889 69H72.7778C70.3232 69 68.3334 67.1149 68.3334 64.7895V53.2105Z" fill="#384355"/>
<path d="M32.3334 30.2105C32.3334 27.8851 34.3232 26 36.7778 26H47.8889C50.3435 26 52.3334 27.8851 52.3334 30.2105V41.7895C52.3334 44.1149 50.3435 46 47.8889 46H36.7778C34.3232 46 32.3334 44.1149 32.3334 41.7895V30.2105Z" fill="#384355"/>
<path d="M17.3334 27.5C17.3334 26.6716 18.0049 26 18.8334 26H24.8334C25.6618 26 26.3334 26.6716 26.3334 27.5C26.3334 28.3284 25.6618 29 24.8334 29H18.8334C18.0049 29 17.3334 28.3284 17.3334 27.5Z" fill="#384355"/>
<path d="M17.3334 32.5C17.3334 31.6716 18.0049 31 18.8334 31H27.8334C28.6618 31 29.3334 31.6716 29.3334 32.5C29.3334 33.3284 28.6618 34 27.8334 34H18.8334C18.0049 34 17.3334 33.3284 17.3334 32.5Z" fill="#384355"/>
<path d="M17.3334 37.5C17.3334 36.6716 18.0049 36 18.8334 36H21.8334C22.6618 36 23.3334 36.6716 23.3334 37.5C23.3334 38.3284 22.6618 39 21.8334 39H18.8334C18.0049 39 17.3334 38.3284 17.3334 37.5Z" fill="#384355"/>
</g>
<g clip-path="url(#clip2_15307_66640)">
<path d="M32.3334 53.2105C32.3334 50.8851 33.975 49 36 49H61.6667C63.6918 49 65.3334 50.8851 65.3334 53.2105V64.7895C65.3334 67.1149 63.6918 69 61.6667 69H36C33.975 69 32.3334 67.1149 32.3334 64.7895V53.2105Z" fill="#EBEFF5"/>
<path d="M55.3334 30.2105C55.3334 27.8851 56.975 26 59 26H84.6667C86.6918 26 88.3334 27.8851 88.3334 30.2105V41.7895C88.3334 44.1149 86.6918 46 84.6667 46H59C56.975 46 55.3334 44.1149 55.3334 41.7895V30.2105Z" fill="#EBEFF5"/>
<path d="M68.3334 53.2105C68.3334 50.8851 70.3232 49 72.7778 49H83.8889C86.3435 49 88.3334 50.8851 88.3334 53.2105V64.7895C88.3334 67.1149 86.3435 69 83.8889 69H72.7778C70.3232 69 68.3334 67.1149 68.3334 64.7895V53.2105Z" fill="#EBEFF5"/>
<path d="M32.3334 30.2105C32.3334 27.8851 34.3232 26 36.7778 26H47.8889C50.3435 26 52.3334 27.8851 52.3334 30.2105V41.7895C52.3334 44.1149 50.3435 46 47.8889 46H36.7778C34.3232 46 32.3334 44.1149 32.3334 41.7895V30.2105Z" fill="#EBEFF5"/>
<path d="M17.3334 27.5C17.3334 26.6716 18.0049 26 18.8334 26H24.8334C25.6618 26 26.3334 26.6716 26.3334 27.5C26.3334 28.3284 25.6618 29 24.8334 29H18.8334C18.0049 29 17.3334 28.3284 17.3334 27.5Z" fill="#EBEFF5"/>
<path d="M17.3334 32.5C17.3334 31.6716 18.0049 31 18.8334 31H27.8334C28.6618 31 29.3334 31.6716 29.3334 32.5C29.3334 33.3284 28.6618 34 27.8334 34H18.8334C18.0049 34 17.3334 33.3284 17.3334 32.5Z" fill="#EBEFF5"/>
<path d="M17.3334 37.5C17.3334 36.6716 18.0049 36 18.8334 36H21.8334C22.6618 36 23.3334 36.6716 23.3334 37.5C23.3334 38.3284 22.6618 39 21.8334 39H18.8334C18.0049 39 17.3334 38.3284 17.3334 37.5Z" fill="#EBEFF5"/>
</g>
<path d="M17.3334 27.5C17.3334 26.6716 18.0049 26 18.8334 26H24.8334C25.6618 26 26.3334 26.6716 26.3334 27.5V27.5C26.3334 28.3284 25.6618 29 24.8334 29H18.8334C18.0049 29 17.3334 28.3284 17.3334 27.5V27.5Z" fill="#3470E2"/>
<path d="M41.777 30C41.225 30 40.7776 30.4477 40.7776 30.9999V41.0001C40.7776 41.5523 41.225 42 41.777 42H42.8897C43.4417 42 43.8892 41.5523 43.8892 41.0001V30.9999C43.8892 30.4477 43.4417 30 42.8897 30H41.777Z" fill="#C1CAD7"/>
<path d="M37.3328 36.667C36.7808 36.667 36.3334 37.1146 36.3334 37.6669V41.0001C36.3334 41.5523 36.7808 42 37.3328 42H38.4456C38.9975 42 39.445 41.5523 39.445 41.0001V37.6669C39.445 37.1146 38.9975 36.667 38.4456 36.667H37.3328Z" fill="#C1CAD7"/>
<path d="M45.2217 34.3331C45.2217 33.7808 45.6692 33.3331 46.2212 33.3331H47.3339C47.886 33.3331 48.3334 33.7808 48.3334 34.3331V41.0001C48.3334 41.5523 47.886 42 47.3339 42H46.2212C45.6692 42 45.2217 41.5523 45.2217 41.0001V34.3331Z" fill="#C1CAD7"/>
<path d="M78.9081 53.4276C78.8319 53.1738 78.5983 53 78.3334 53C78.0684 53 77.8348 53.1738 77.7587 53.4276C77.3271 54.8663 76.7676 55.8923 75.9966 56.6632C75.2256 57.4342 74.1996 57.9937 72.761 58.4253C72.5072 58.5015 72.3334 58.735 72.3334 59C72.3334 59.265 72.5072 59.4985 72.761 59.5747C74.1996 60.0063 75.2256 60.5658 75.9966 61.3368C76.7676 62.1078 77.3271 63.1337 77.7587 64.5724C77.8348 64.8262 78.0684 65 78.3334 65C78.5983 65 78.8319 64.8262 78.9081 64.5724C79.3397 63.1337 79.8991 62.1078 80.6701 61.3368C81.4411 60.5658 82.4671 60.0063 83.9058 59.5747C84.1596 59.4985 84.3334 59.265 84.3334 59C84.3334 58.735 84.1596 58.5015 83.9058 58.4253C82.4671 57.9937 81.4411 57.4342 80.6701 56.6632C79.8991 55.8923 79.3397 54.8663 78.9081 53.4276Z" fill="#566479"/>
</g>
</g>
<defs>
<filter id="filter0_d_15307_66640" x="-6.66663" y="0" width="120" height="104" filterUnits="userSpaceOnUse" color-interpolation-filters="sRGB">
<feFlood flood-opacity="0" result="BackgroundImageFix"/>
<feColorMatrix in="SourceAlpha" type="matrix" values="0 0 0 0 0 0 0 0 0 0 0 0 0 0 0 0 0 0 127 0" result="hardAlpha"/>
<feOffset dy="10"/>
<feGaussianBlur stdDeviation="10"/>
<feComposite in2="hardAlpha" operator="out"/>
<feColorMatrix type="matrix" values="0 0 0 0 0.360784 0 0 0 0 0.45098 0 0 0 0 0.627451 0 0 0 0.07 0"/>
<feBlend mode="normal" in2="BackgroundImageFix" result="effect1_dropShadow_15307_66640"/>
<feBlend mode="normal" in="SourceGraphic" in2="effect1_dropShadow_15307_66640" result="shape"/>
</filter>
<filter id="filter1_d_15307_66640" x="-6.66663" y="0" width="120" height="104" filterUnits="userSpaceOnUse" color-interpolation-filters="sRGB">
<feFlood flood-opacity="0" result="BackgroundImageFix"/>
<feColorMatrix in="SourceAlpha" type="matrix" values="0 0 0 0 0 0 0 0 0 0 0 0 0 0 0 0 0 0 127 0" result="hardAlpha"/>
<feOffset dy="10"/>
<feGaussianBlur stdDeviation="10"/>
<feComposite in2="hardAlpha" operator="out"/>
<feColorMatrix type="matrix" values="0 0 0 0 0.360784 0 0 0 0 0.45098 0 0 0 0 0.627451 0 0 0 0.07 0"/>
<feBlend mode="normal" in2="BackgroundImageFix" result="effect1_dropShadow_15307_66640"/>
<feBlend mode="normal" in="SourceGraphic" in2="effect1_dropShadow_15307_66640" result="shape"/>
</filter>
<filter id="filter2_d_15307_66640" x="33.3334" y="0" width="80" height="104" filterUnits="userSpaceOnUse" color-interpolation-filters="sRGB">
<feFlood flood-opacity="0" result="BackgroundImageFix"/>
<feColorMatrix in="SourceAlpha" type="matrix" values="0 0 0 0 0 0 0 0 0 0 0 0 0 0 0 0 0 0 127 0" result="hardAlpha"/>
<feOffset dy="10"/>
<feGaussianBlur stdDeviation="10"/>
<feComposite in2="hardAlpha" operator="out"/>
<feColorMatrix type="matrix" values="0 0 0 0 0.360784 0 0 0 0 0.45098 0 0 0 0 0.627451 0 0 0 0.07 0"/>
<feBlend mode="normal" in2="BackgroundImageFix" result="effect1_dropShadow_15307_66640"/>
<feBlend mode="normal" in="SourceGraphic" in2="effect1_dropShadow_15307_66640" result="shape"/>
</filter>
<clipPath id="clip0_15307_66640">
<path d="M13.3334 18C13.3334 13.5817 16.9151 10 21.3334 10H85.3334C89.7516 10 93.3334 13.5817 93.3334 18V66C93.3334 70.4183 89.7517 74 85.3334 74H21.3334C16.9151 74 13.3334 70.4183 13.3334 66V18Z" fill="white"/>
</clipPath>
<clipPath id="clip1_15307_66640">
<rect width="35" height="43" fill="white" transform="translate(53.3334 26)"/>
</clipPath>
<clipPath id="clip2_15307_66640">
<rect width="36" height="43" fill="white" transform="translate(17.3334 26)"/>
</clipPath>
</defs>
</svg>
