<svg style="position: absolute; width: 0; height: 0;" width="0" height="0" version="1.1" xmlns="http://www.w3.org/2000/svg" xmlns:xlink="http://www.w3.org/1999/xlink"><defs><symbol id="arrow-cut" viewBox="0 -150 1000 1000"><path d="M975 320 q0 -15 7 -25 q6 -12 18 -18 l0 244 q-43 54 -101.5 84 q-58.5 30 -126.5 30 l-417 0 l123 130 q14 16 14 35.5 q0 19.5 -14 34.5 q-14 15 -33 15 q-19 0 -33 -15 l-203 -215 q-13 -13 -13 -35 q0 -22 13 -35 l203 -215 q15 -15 33 -15 q18 0 32.5 14.5 q14.5 14.5 14.5 35.5 q0 21 -14 35 l-123 130 l417 0 q41 0 78 -16 q37 -16 65.5 -46.5 q28.5 -30.5 44 -70 q15.5 -39.5 15.5 -82.5 ZM661 -125 q-10 -10 -13 -25 l121 0 l161 170 q14 16 14 36 q0 20 -14 34 l-203 216 q-7 7 -14.5 10.5 q-7.5 3.5 -17.5 3.5 q-10 0 -19 -3 q-5 -3 -15 -11 q-13 -16 -13 -35.5 q0 -19.5 13 -34.5 l123 -131 l-417 0 q-40 0 -77 16.5 q-37 16.5 -65.5 47 q-28.5 30.5 -44 69.5 q-15.5 39 -16.5 82 q0 10 -3 18.5 q-3 8.5 -10 17.5 q-10 8 -15 10 q-8 4 -18 4 q-21 0 -34 -16 q-13 -13 -13 -35 q0 -63 22.5 -120 q22.5 -57 64.5 -101.5 q42 -44.5 96.5 -68 q54.5 -23.5 112.5 -23.5 l417 0 l-123 -131 Z"></path></symbol><symbol id="arrow-external" viewBox="0 -150 1000 1000"><path d="M783 38 q12 0 21 9 q9 9 9 21 l0 166 q0 12 -7 22 q-7 10 -19 14 q-5 3 -15 3 q-15 0 -28 -11 l-50 -50 l-235 235 q-11 11 -27 11 q-18 0 -28 -11 q-12 -11 -12 -27.5 q0 -16.5 12 -27.5 l235 -235 l-50 -50 q-8 -8 -10.5 -20 q-2.5 -12 2 -23.5 q4.5 -11.5 14.5 -18.5 q10 -7 22 -7 l166 0 ZM666 429 q12 0 20.5 9 q8.5 9 8.5 20 l0 137 q0 28 -20 48 q-20 20 -48 20 l-371 0 q-28 0 -48 -20 q-20 -20 -20 -48 l0 -371 q0 -28 20 -48 q20 -20 48 -20 l137 0 q11 0 20 8.5 q9 8.5 9 20.5 q0 12 -8.5 20.5 q-8.5 8.5 -20.5 8.5 l-137 0 q-4 0 -7 3 q-3 3 -3 7 l0 371 q0 4 3 7 q3 3 7 3 l371 0 q4 0 7 -3 q3 -3 3 -7 l0 -137 q0 -12 8.5 -20.5 q8.5 -8.5 20.5 -8.5 Z"></path></symbol><symbol id="arrow-long-down" viewBox="0 -150 1000 1000"><path d="M363 532 q-7 -7 -7 -18 q-1 -4 1 -10 l1 -2 q3 -5 5 -7 q3 -4 8.5 -6 q5.5 -2 9.5 -2 l79 0 q2 0 3 -1 l2 -1 l2 -4 l0 -405 q0 -17 11.5 -27.5 q11.5 -10.5 27.5 -10.5 q16 0 27.5 11.5 q11.5 11.5 11.5 26.5 l0 405 q0 2 2 4 q2 2 4 2 l79 0 q12 0 18 8 q4 3 6 7 q2 4 2 11 q0 7 -1.5 10.5 q-1.5 3.5 -6.5 8.5 l-124 124 q-7 7 -19 7 q-12 0 -19 -7 l-124 -125 l1 1 Z"></path></symbol><symbol id="arrow-long-up" viewBox="0 -150 1000 1000"><path d="M637 170 q6 6 8 18 q0 4 -2 10 l-1 2 q-3 5 -5 7 q-2 2 -8 5 q-6 3 -10 3 l-82 0 q0 1 -1 1 l-1 1 l-1 2 l0 407 q-1 15 -12 27 q-11 10 -28 10 q-17 0 -27 -11 q-10 -11 -12 -26 l0 -405 q0 -2 -2 -4 q-2 -2 -4 -2 l-79 0 q-10 0 -18 -8 q-4 -3 -6 -7 q-2 -4 -2 -11 q0 -7 2 -11 q2 -4 6 -8 l125 -124 q8 -8 18.5 -8 q10.5 0 18.5 8 l124 125 l-1 -1 Z"></path></symbol><symbol id="arrow-short-down" viewBox="0 -150 1000 1000"><path d="M710 359 q-9 -9 -22 -9 q-13 0 -22 9 l-134 134 l0 -362 q0 -11 -9 -21 q-9 -10 -22.5 -10 q-13.5 0 -22.5 9 q-9 9 -9 22 l0 362 l-134 -134 q-4 -4 -10 -7 q-4 -2 -12 -2 q-8 0 -12.5 1.5 q-4.5 1.5 -10.5 7.5 l-2 2 q-3 5 -4 8 q-3 6 -3 12 q0 6 3 12 q1 4 7 10 l187 188 q9 9 22.5 9 q13.5 0 22.5 -9 l187 -188 q9 -9 9 -22 q0 -13 -9 -22 Z"></path></symbol><symbol id="arrow-short-left" viewBox="0 -150 1000 1000"><path d="M491 560 q9 -9 9 -22 q0 -13 -9 -22 l-134 -134 l362 0 q12 0 22 -10 q9 -8 9 -21.5 q0 -13.5 -9 -22.5 q-9 -9 -22 -9 l-362 0 l134 -134 q4 -4 7 -10 q2 -4 2 -12.5 q0 -8.5 -2 -11.5 q-1 -5 -6.5 -10.5 q-5.5 -5.5 -11 -7.5 q-5.5 -2 -11.5 -2 q-6 0 -12 3 q-4 1 -10 7 l-188 187 q-9 9 -9 22.5 q0 13.5 9 21.5 l188 188 q9 9 22 9 q13 0 22 -9 Z"></path></symbol><symbol id="arrow-short-right" viewBox="0 -150 1000 1000"><path d="M509 140 q-9 9 -9 22 q0 13 9 22 l134 134 l-362 0 q-11 0 -21 9 q-10 9 -10 22.5 q0 13.5 9 22.5 q9 9 22 9 l362 0 l-134 134 q-4 4 -7 10 q-2 8 -2 12 q0 8 2 12 q4 8 7 11 l2 2 q5 3 8 4 q6 3 12 3 q6 0 12 -2.5 q6 -2.5 10 -7.5 l188 -187 q9 -9 9 -22.5 q0 -13.5 -9 -22.5 l-188 -187 q-7 -9 -21 -9 q-14 0 -23 9 Z"></path></symbol><symbol id="arrow-short-up" viewBox="0 -150 1000 1000"><path d="M290 341 q9 9 22 9 q13 0 22 -9 l134 -134 l0 362 q0 12 10 22 q8 9 21.5 9 q13.5 0 22.5 -9 q9 -9 9 -22 l0 -362 l134 134 q4 4 10 7 q8 2 12 2 q9 0 12 -2 q8 -4 11 -7 q5 -5 7 -10.5 q2 -5.5 2 -11.5 q0 -6 -2.5 -12 q-2.5 -6 -7.5 -10 l-187 -188 q-9 -9 -22.5 -9 q-13.5 0 -21.5 9 l-188 188 q-9 7 -9 21 q0 14 9 23 Z"></path></symbol><symbol id="assets" viewBox="0 -150 1000 1000"><path d="M914 216 l-818 0 l397 479 l24 30 l397 -509 ZM915 154 l-157 -172 l-506 0 l-158 172 l821 0 Z"></path></symbol><symbol id="bell" viewBox="0 -150 1000 1000"><path d="M523 38 q47 0 90 18 q43 18 76 51 q33 33 51 76.5 q18 43.5 18 89.5 l0 140 l27 28 q9 8 11 20 q3 10 -1.5 21 q-4.5 11 -14.5 19 q-10 6 -22 6 l-469 0 q-11 0 -22 -6 q-10 -8 -14.5 -19 q-4.5 -11 -2.5 -21.5 q2 -10.5 11 -19.5 l28 -28 l0 -140 q0 -46 18 -89.5 q18 -43.5 51 -76.5 q33 -33 76 -51 q43 -18 89 -18 ZM523 663 q49 0 83 -34 q17 -17 26 -38.5 q9 -21.5 9 -44.5 l-235 0 q0 23 9 44.5 q9 21.5 26 38.5 q34 34 82 34 Z"></path></symbol><symbol id="block-cut" viewBox="0 -150 1000 1000"><path d="M789 221 l0 498 l211 -85 l0 120 l-220 89 q-43 14 -88 0 l-440 -177 q-35 -15 -58 -49 q-21 -32 -21 -74 l0 -570 q-1 -40 22 -75 q23 -35 57 -48 l298 0 l-237 96 l423 177 l264 -111 l0 121 l-211 88 ZM683 221 l-405 -169 l0 491 q0 5 3 11 q3 4 9 7 l393 158 l0 -498 Z"></path></symbol><symbol id="book-cut" viewBox="0 -150 1000 1000"><path d="M641 721 q86 -38 177.5 -47 q91.5 -9 181.5 10 l0 102 q-97 -26 -196 -11.5 q-99 14.5 -185 67.5 q-13 8 -26 8 q-13 0 -24 -8 q-89 -55 -193 -69 q-104 -14 -205 17 q-25 8 -49.5 2.5 q-24.5 -5.5 -43.5 -21 q-19 -15.5 -29.5 -37.5 q-10.5 -22 -10.5 -49 l0 -579 l92 0 l0 579 l1 4 q1 2 3 4 l6 3 q5 0 7 -1 q81 -24 166 -24 q120 7 235 50 l0 -615 l93 0 l0 615 Z"></path></symbol><symbol id="calendar" viewBox="0 -150 1000 1000"><path d="M791 169 q22 29 22 56 l0 391 q0 34 -22 56 q-27 22 -57 22 l-468 0 q-30 0 -57 -22 q-21 -26 -21 -56 l0 -391 q0 -26 21 -59 q29 -22 57 -22 l40 0 l0 -37 q0 -16 10 -25 q12 -13 28 -13 q16 0 25 10 q12 12 12 28 l0 40 l235 0 l0 -37 q0 -7 3.5 -15 q3.5 -8 8.5 -13 q13 -13 28 -13 q15 0 28 11 q13 11 13 27 l0 40 l37 0 q34 0 57 22 ZM684 332 q13 -19 13 -27 q0 -8 -4 -16.5 q-4 -8.5 -9 -13.5 q-12 -12 -28 -12 l-312 0 q-7 0 -15 3.5 q-8 3.5 -13 8.5 q-13 13 -13 29 q0 7 4 15 q4 8 9 13 q12 12 28 12 l312 0 q7 0 15 -3.5 q8 -3.5 13 -8.5 Z"></path></symbol><symbol id="close" viewBox="0 -150 1000 1000"><path d="M203 54.8 q-15 17 -15 37 q0 20 15 37 l224 223 l-224 222 q-8 8 -11.5 16.5 q-3.5 8.5 -3.5 20.5 q-1 8 3 20 q4 9 12 17 q8 8 17 12 q12 4 20 3 q12 0 20.5 -3.5 q8.5 -3.5 16.5 -11.5 l223 -223 l223 223 q8 8 16.5 11.5 q8.5 3.5 20.5 3.5 q8 1 20 -3 q9 -4 17 -12 q8 -8 12 -17 q4 -12 4 -20 q-2 -14 -5 -20 q-3 -9 -11 -17 l-223 -222 l223 -223 q8 -8 11 -17 q3 -6 5 -20 q0 -8 -4 -20 q-4 -9 -12 -17 q-8 -8 -17 -12 q-12 -4 -20 -4 q-14 2 -20 5 q-9 3 -17 11 l-223 223 l-223 -223 q-17 -15 -37 -15 q-20 0 -37 15 Z"></path></symbol><symbol id="collapse" viewBox="0 -150 1000 1000"><path d="M180 387 q0 11 8 21 q11 9 21 9 l180 0 l-243 243 q-8 10 -8 21.5 q0 11.5 8 21.5 q10 8 22 8 q12 0 20 -8 l242 -244 l0 180 q0 4 2 12 q3 6 7 10 l3 2 q4 3 6 4 q6 3 12.5 3 q6.5 0 10.5 -3 q3 -1 8 -4 l2 -2 q5 -5 6 -10 q3 -7 2 -12 l0 -252 q0 -13 -8.5 -21.5 q-8.5 -8.5 -20.5 -8.5 l-251 0 q-12 0 -20.5 8.5 q-8.5 8.5 -8.5 21.5 ZM821 313 q0 -10 -9 -20 q-9 -10 -21 -10 l-179 0 l242 -243 q8 -10 8 -21.5 q0 -11.5 -8 -21.5 q-10 -8 -22 -8 q-12 0 -20 8 l-242 244 l0 -180 q0 -4 -2 -12 q-3 -6 -6.5 -10 q-3.5 -4 -9.5 -6.5 q-6 -2.5 -12 -2.5 q-6 0 -11 2 q-5 2 -10 7 q-5 5 -6.5 9.5 q-1.5 4.5 -1.5 12.5 l0 252 q0 11 8.5 20.5 q8.5 9.5 20.5 9.5 l251 0 q12 0 21 -10 q9 -10 9 -20 Z"></path></symbol><symbol id="copy" viewBox="0 -150 1000 1000"><path d="M366 574 q0 18 7 34.5 q7 16.5 19.5 29 q12.5 12.5 29 19 q16.5 6.5 33.5 6.5 l268 0 q18 0 34.5 -6.5 q16.5 -6.5 29 -19 q12.5 -12.5 19.5 -29 q7 -16.5 7 -34.5 l0 -268 q0 -17 -7 -33.5 q-7 -16.5 -19.5 -29.5 q-12.5 -13 -29 -19.5 q-16.5 -6.5 -34.5 -6.5 l-268 0 q-17 0 -33.5 6.5 q-16.5 6.5 -29 19.5 q-12.5 13 -19.5 29.5 q-7 16.5 -7 33.5 l0 268 ZM545 38 q17 0 33.5 7 q16.5 7 29.5 19.5 q13 12.5 19.5 29 q6.5 16.5 6.5 34.5 l-357 0 l0 357 q-18 0 -34.5 -7 q-16.5 -7 -29 -19.5 q-12.5 -12.5 -19 -29 q-6.5 -16.5 -6.5 -33.5 l0 -268 q0 -18 6.5 -34.5 q6.5 -16.5 19 -29 q12.5 -12.5 29 -19.5 q16.5 -7 34.5 -7 l268 0 Z"></path></symbol><symbol id="discord" viewBox="0 -150 1000 1000"><path d="M716 164 q113 163 94 356 q0 1 -1 1 q-72 53 -156 79 q-1 1 -1 0 l-2 0 q-22 -34 -31 -52 q0 -2 1 -4 q28 -10 49 -23 q1 0 1 -1 q0 -1 -1 -2 q-6 -3 -10 -8 l-2 0 q-76 35 -156.5 35 q-80.5 0 -157.5 -35 l-2 0 q-4 5 -10 8 q-1 1 -1 2 q0 1 1 1 q18 12 49 23 q1 2 1 4 q-9 18 -31 52 l-2 0 q-1 1 -1 0 q-84 -26 -156 -79 q-1 0 -1 -1 q-9 -92 12 -177 q23 -92 81 -179 q58 -27 127 -40 q1 -1 1 0 q9 12 17 33 q72 -11 144 0 q8 -21 16 -33 q1 -1 2 0 q69 13 126 40 ZM396 449 q23 0 40 -18.5 q17 -18.5 17 -44.5 q0 -26 -16.5 -44.5 q-16.5 -18.5 -40 -18.5 q-23.5 0 -40 18.5 q-16.5 18.5 -16.5 44.5 q0 26 16.5 44.5 q16.5 18.5 39.5 18.5 ZM604 449 q24 0 40 -18.5 q16 -18.5 16.5 -44.5 q0.5 -26 -16 -44.5 q-16.5 -18.5 -40 -18.5 q-23.5 0 -40 18.5 q-16.5 18.5 -16.5 44.5 q0 26 16.5 44.5 q16.5 18.5 39.5 18.5 Z"></path></symbol><symbol id="earn" viewBox="0 -150 1000 1000"><path d="M875 725 q13 -1 22 -10 q9 -9 9 -22.5 q0 -13.5 -9 -22.5 q-9 -9 -22 -9 l-70 0 q68 -89 82.5 -203 q14.5 -114 -31.5 -218.5 q-46 -104.5 -137.5 -170 q-91.5 -65.5 -202.5 -74.5 l0 411 l101 -103 q9 -9 22 -9 q13 0 22 9 q9 9 9 22.5 q0 13.5 -9 22.5 l-155 157 q-2 3 -10 7 q-3 2 -11.5 2 q-8.5 0 -12.5 -2 l-3 -2 q-5 -3 -7 -5 q0 -1 -1 -1 l-153 -156 q-5 -6 -7 -10 q-2 -4 -2 -13 q0 -13 9 -22 q9 -9 22 -9 q13 0 22 9 l101 103 l0 -411 q-76 6 -145 40 q-69 34 -121.5 91.5 q-52.5 57.5 -80.5 130 q-28 72.5 -28 150.5 q0 69 22 134 q22 65 64 120 l-70 0 q-13 0 -22 9 q-9 9 -9 22.5 q0 13.5 9.5 23 q9.5 9.5 21.5 9.5 l781 0 Z"></path></symbol><symbol id="google" viewBox="0 -150 1000 1000"><path d="M54 573.91 q32 62 79.5 113.5 q47.5 51.5 108 88 q60.5 36.5 129 55.5 q68.5 19 139.5 19 q93 2 180.5 -29 q87.5 -31 157.5 -92 q77 -74 116 -168 q39 -96 36 -200 q0 -52 -9 -101 l-481 0 l0 192 l275 0 q-7 46 -35 87 q-25 39 -67 65 q-60 38 -131.5 46 q-71.5 8 -138 -15.5 q-66.5 -23.5 -117.5 -72.5 q-48 -48 -72 -116 q-16 -47 -16 -96.5 q0 -49.5 16 -95.5 q14 -44 42 -82 q28 -38 66.5 -66 q38.5 -28 84 -42.5 q45.5 -14.5 93.5 -15.5 q55 -1 105.5 18.5 q50.5 19.5 90.5 56.5 l145 -143 q-69 -64 -157.5 -97.5 q-88.5 -33.5 -183.5 -32.5 q-71 0 -139.5 19 q-68.5 19 -129 55.5 q-60.5 36.5 -108 88 q-47.5 51.5 -79.5 113.5 q-54 106 -54 224 q0 118 54 224 Z"></path></symbol><symbol id="governance" viewBox="0 -150 1000 1000"><path d="M771 528 l-542 0 l0 -429 q0 -28 20 -48 q20 -20 48 -20 l406 0 q28 0 48 20 q20 20 20 48 l0 429 ZM627 222 q10 -10 8 -24 q-2 -14 -13.5 -23 q-11.5 -9 -25 -7.5 q-13.5 1.5 -21.5 13.5 l-103 130 l-52 -45 q-10 -9 -24.5 -8 q-14.5 1 -23.5 11.5 q-9 10.5 -8 24.5 q1 14 11 22 l79 68 q8 9 22 9 l4 0 q12 0 23 -13 l124 -158 ZM839 393 q27 0 47 20 q20 20 20 47 l0 136 q0 28 -20 47.5 q-20 19.5 -47 19.5 l-677 0 q-29 0 -48.5 -19 q-19.5 -19 -19.5 -48 l0 -136 q0 -27 19.5 -47 q19.5 -20 48.5 -20 l22 0 l0 158 q0 9 6.5 15.5 q6.5 6.5 16.5 6.5 l586 0 q9 0 16 -6.5 q7 -6.5 7 -15.5 l0 -158 l23 0 Z"></path></symbol><symbol id="history" viewBox="0 -150 1000 1000"><path d="M500 756.06 q81 0 155.5 -31 q74.5 -31 131.5 -88 q57 -57 88 -131 q31 -74 31 -155 q0 -60 -17.5 -118 q-17.5 -58 -51 -108 q-33.5 -50 -80 -88.5 q-46.5 -38.5 -102 -61 q-55.5 -22.5 -115.5 -28.5 q-60 -6 -119 5.5 q-59 11.5 -112 40 q-53 28.5 -96 71 q-43 42.5 -71.5 96 q-28.5 53.5 -40 112.5 q-11.5 59 -5.5 119 q6 60 28.5 114.5 q22.5 54.5 61 101.5 q38.5 47 88.5 80.5 q50 33.5 108 51 q58 17.5 118 17.5 ZM500 107.06 q4 0 12 2 q6 3 10 7 q2 2 5 7 l2 3 q2 8 2 12 l0 212 l90 0 q13 0 22 9 q9 9 9 22 q0 13 -9 22 q-9 9 -22 9 l-121 0 q-13 0 -22 -9 q-9 -9 -9 -22 l0 -243 q0 -13 9 -22 q9 -9 22 -9 Z"></path></symbol><symbol id="trade" viewBox="0 -150 1000 1000"><path d="M663 716 q9 9 22 9 q8 0 12 -2 q6 -3 10 -7 l155 -155 q9 -8 9 -21.5 q0 -13.5 -9 -22.5 l-155 -154 q-4 -5 -10 -8 q-6 -3 -13.5 -3 q-7.5 0 -11.5 2 q-8 4 -11 7 q-3 3 -6 11 q-3 8 -3 12 q0 7 3.5 13 q3.5 6 7.5 10 l101 101 l-545 0 q-13 0 -22 9 q-9 9 -9 22.5 q0 13.5 9 21.5 q10 10 22 10 l545 0 l-101 101 q-4 4 -7 10 q-2 8 -2 12 q0 4 2 12 q3 6 7 10 ZM333 -4 q-9 -9 -22 -9 q-13 0 -22 9 l-155 155 q-9 9 -9 22 q0 13 9 22 l155 154 q4 5 10 8 q6 3 11.5 3 q5.5 0 13.5 -2 q6 -3 10 -7 q6 -6 8 -11.5 q2 -5.5 2 -11.5 l-3 -13 q-4 -6 -8 -10 l-101 -101 l545 0 q13 0 22 -9 q9 -9 9 -22 q0 -13 -9 -22 q-9 -9 -22 -9 l-545 0 l101 -102 q4 -4 7 -10 q2 -8 2 -12 q0 -4 -2 -12 q-3 -6 -7 -10 Z"></path></symbol><symbol id="lease" viewBox="0 -150 1000 1000"><path d="M499 850 q98 0 190.5 -38 q92.5 -38 163.5 -109 q71 -71 108.5 -162 q37.5 -91 37.5 -191 q0 -100 -37.5 -191.5 q-37.5 -91.5 -108.5 -162.5 q-71 -71 -163.5 -108.5 q-92.5 -37.5 -191 -37.5 q-98.5 0 -190.5 37.5 q-92 37.5 -163 108.5 q-63 64 -100.5 145 q-37.5 81 -44.5 170 l612 0 l-125 -124 q-6 -8 -8.5 -13.5 q-2.5 -5.5 -2.5 -14 q0 -8.5 2.5 -14 q2.5 -5.5 8.5 -13.5 q8 -6 13.5 -8.5 q5.5 -2.5 13.5 -2.5 q8 0 15 3 q7 3 13 9 l190 190 q5 4 9 12 q2 10 2 15 q0 5 -2 15 q-4 8 -9 12 l-190 191 q-8 6 -13.5 8.5 q-5.5 2.5 -13 2.5 q-7.5 0 -15.5 -3 q-5 -2 -13 -8 q-11 -13 -11 -28.5 q0 -15.5 11 -26.5 l125 -125 l-612 0 q7 89 44.5 170.5 q37.5 81.5 100.5 145.5 q71 70 163 108 q92 38 191 38 Z"></path></symbol><symbol id="ledger" viewBox="0 -150 1000 1000"><path d="M81 441 l0 181 l302 0 l0 52 l-354 0 l0 -233 l52 0 ZM971 441 l0 233 l-354 0 l0 -52 l302 0 l0 -181 l52 0 ZM436 87 l0 308 l181 0 l0 46 l-233 0 l0 -354 l52 0 ZM383 -146 l0 52 l-302 0 l0 181 l-52 0 l0 -233 l354 0 ZM971 -146 l0 233 l-52 0 l0 -181 l-302 0 l0 -52 l354 0 Z"></path></symbol><symbol id="medium" viewBox="0 -150 1000 1000"><path d="M363 121 q48 0 88.5 24 q40.5 24 64.5 64.5 q24 40.5 24 88.5 q0 48 -24 88.5 q-24 40.5 -64.5 64.5 q-40.5 24 -88.5 24 q-48 0 -88 -24 q-40 -24 -63.5 -64.5 q-23.5 -40.5 -23.5 -88.5 q0 -48 23.5 -88.5 q23.5 -40.5 63.5 -64.5 q40 -24 88 -24 ZM645 131 q24 0 44 22.5 q20 22.5 32 61 q12 38.5 12 84 q0 45.5 -12 84 q-12 38.5 -32 61 q-20 22.5 -44 22.5 q-24 0 -44 -22.5 q-20 -22.5 -32 -61 q-12 -38.5 -12 -84 q0 -45.5 12 -84 q12 -38.5 32 -61 q20 -22.5 44 -22.5 ZM781 148 q13 0 22.5 44.5 q9.5 44.5 9.5 106 q0 61.5 -9.5 105.5 q-9.5 44 -22.5 44 q-13 0 -22 -44 q-9 -44 -9 -105.5 q0 -61.5 9 -106 q9 -44.5 22 -44.5 Z"></path></symbol><symbol id="more" viewBox="0 -150 1000 1000"><path d="M203 256.05 q-22 0 -42 8 q-20 8 -35.5 23.5 q-15.5 15.5 -23.5 35.5 q-8 20 -8 42 q0 34 18.5 61.5 q18.5 27.5 48 40 q29.5 12.5 64.5 6.5 q32 -8 56 -30 q23 -25 29 -56 q8 -34 -5 -64 q-13 -30 -40.5 -48.5 q-27.5 -18.5 -61.5 -18.5 ZM484 256.05 q-45 0 -77 32 q-15 15 -23.5 35 q-8.5 20 -8.5 42 q0 34 18 61 q18 27 50 40 q30 13 62.5 6 q32.5 -7 55.5 -30 q23 -23 31 -55 q6 -35 -6.5 -64.5 q-12.5 -29.5 -40 -48 q-27.5 -18.5 -61.5 -18.5 ZM766 256.05 q-22 0 -42 8 q-20 8 -35.5 23.5 q-15.5 15.5 -24 35.5 q-8.5 20 -8.5 42 q0 32 19 60.5 q19 28.5 49 41 q30 12.5 63.5 5.5 q33.5 -7 55.5 -29 q24 -26 30 -56 q6 -34 -7 -64.5 q-13 -30.5 -40 -48.5 q-27 -18 -60 -18 ZM766 256.05 q-22 0 -42 8 q-20 8 -35.5 23.5 q-15.5 15.5 -24 35.5 q-8.5 20 -8.5 42 q0 32 19 60.5 q19 28.5 49 41 q30 12.5 63.5 5.5 q33.5 -7 55.5 -29 q24 -26 30 -56 q6 -34 -7 -64.5 q-13 -30.5 -40 -48.5 q-27 -18 -60 -18 Z"></path></symbol><symbol id="person-1" viewBox="0 -150 1000 1000"><path d="M813 350.1 q0 -62 -24 -119.5 q-24 -57.5 -68 -101.5 q-44 -44 -101.5 -68 q-57.5 -24 -119.5 -24 q-93 0 -174 53 q-38 25 -67.5 61 q-29.5 36 -47.5 79 q-18 43 -22.5 89.5 q-4.5 46.5 5.5 91.5 q18 93 85 160 q67 67 160 85 q45 10 91.5 5.5 q46.5 -4.5 89.5 -22.5 q43 -18 79 -47.5 q36 -29.5 61 -67.5 q53 -81 53 -174 ZM578 233.1 q0 -34 -22 -56 q-22 -22 -56 -22 q-26 0 -44 12.5 q-18 12.5 -28 35 q-10 22.5 -5 45 q5 22.5 21.5 39.5 q16.5 17 40.5 22 q24 5 45 -4 q21 -9 34.5 -28.5 q13.5 -19.5 13.5 -43.5 ZM500 389.1 q56 0 106 31 q47 31 72 83 q-34 38 -80 59.5 q-46 21.5 -97.5 21.5 q-51.5 0 -98 -21.5 q-46.5 -21.5 -80.5 -59.5 q25 -53 73 -83.5 q48 -30.5 105 -30.5 Z"></path></symbol><symbol id="picker" viewBox="0 -150 1000 1000"><path d="M206 182 q-18 16 -18 43 q0 27 18 45 l250 249 q17 19 43 19 q26 0 45 -19 l249 -249 q10 -10 14 -20 q4 -8 6 -25 q0 -11 -5 -24 q-4 -11 -13.5 -20.5 q-9.5 -9.5 -20.5 -13.5 q-13 -5 -24 -5 q-17 2 -25 6 q-10 4 -20 14 l-205 205 l-206 -205 q-19 -19 -44 -19 q-25 0 -44 19 Z"></path></symbol><symbol id="recover" viewBox="0 -150 1000 1000"><path d="M508 -150 q11 0 19 4 q6 2 16 10 q8 10 10 16 q4 8 4 19 l0 397 q0 4 3 6.5 q3 2.5 7 2.5 l84 0 q18 2 28 12 q6 6 9 12.5 q3 6.5 3 14.5 q0 8 -3.5 16 q-3.5 8 -7.5 12 l-143 143 q-6 6 -13 9 q-10 2 -15 2 q-5 0 -15 -2 q-7 -3 -13 -9 l-143 -142 q-4 -4 -7.5 -12 q-3.5 -8 -3.5 -15.5 q0 -7.5 3 -14.5 q2 -5 8 -13 q8 -6 13 -8 q8 -3 15 -3 l85 0 q5 0 7 -3 q2 -3 2 -7 l0 -396 q0 -11 4 -19.5 q4 -8.5 10.5 -15.5 q6.5 -7 16.5 -10.5 q10 -3.5 18 -3.5 l-1 -2 ZM952 684 q0 21 -14 35 q-14 14 -35 14 l-823 0 q-10 0 -19.5 -4 q-9.5 -4 -16 -10 q-6.5 -6 -11.5 -16 q-4 -12 -4 -19 q0 -7 4 -19 q3 -6 11 -16 q10 -8 17 -10 q12 -4 19 -3 l823 0 q10 0 19 3 q10 5 16 11 q5 4 11 16 q3 9 3 18 Z"></path></symbol><symbol id="reddit" viewBox="0 -150 1000 1000"><path d="M431 414 q13 0 22 -9.5 q9 -9.5 9 -22 q0 -12.5 -9 -22 q-9 -9.5 -22 -9.5 q-13 0 -22.5 9.5 q-9.5 9.5 -9.5 22 q0 12.5 9.5 22 q9.5 9.5 22.5 9.5 ZM813 351 q0 -85 -43 -158 q-41 -71 -112 -112 q-73 -43 -158 -43 q-85 0 -158 43 q-70 41 -112 112 q-42 73 -42 158 q0 85 42 158 q42 70 112 112 q73 42 158 42 q85 0 158 -42 q71 -42 112 -112 q43 -73 43 -158 ZM645 299 q21 0 32.5 16 q11.5 16 8.5 35 q-3 19 -22 29 q2 12 2 20 q0 32 -22.5 59.5 q-22.5 27.5 -60.5 44 q-38 16.5 -83 16.5 q-45 0 -83 -16.5 q-38 -16.5 -60.5 -44 q-22.5 -27.5 -22.5 -59.5 q0 -14 1 -20 q-19 -10 -22 -29 q-3 -19 8.5 -35 q11.5 -16 32.5 -16 q8 0 16.5 3.5 q8.5 3.5 13.5 9.5 q22 -15 49.5 -23.5 q27.5 -8.5 57.5 -9.5 l25 -110 q0 -2 2.5 -4 q2.5 -2 5.5 -1 l78 17 q4 -8 11.5 -12.5 q7.5 -4.5 16.5 -4.5 q13 0 22 9.5 q9 9.5 9 22 q0 12.5 -9 21.5 q-9 9 -22 9 q-13 0 -22.5 -9 q-9.5 -9 -9.5 -21 l-69 -16 l-23 99 q31 1 59 9.5 q28 8.5 50 23.5 q15 -13 30 -13 ZM558 445 q6 -3 11 0 q2 3 2 6.5 q0 3.5 -2 5.5 q-14 14 -42 19 q-28 5 -56 0 q-28 -5 -42 -19 q-3 -5 0 -12 q7 -3 12 0 q10 11 34 15.5 q24 4.5 48 0.5 q24 -4 35 -16 ZM568 351 q13 0 22.5 9.5 q9.5 9.5 9.5 22 q0 12.5 -9 22 q-9 9.5 -22 9.5 q-13 0 -22.5 -9.5 q-9.5 -9.5 -9.5 -22 q0 -12.5 9 -22 q9 -9.5 22 -9.5 Z"></path></symbol><symbol id="scan-1" viewBox="0 -150 1000 1000"><path d="M188 217 q0 19 13 32 q13 13 31 13 l134 0 q17 0 32 -13 q13 -15 13 -32 l0 -134 q0 -18 -13.5 -31.5 q-13.5 -13.5 -31.5 -13.5 l-134 0 q-19 0 -31 14 q-13 12 -13 31 l0 134 ZM321 172 l0 -44 l-44 0 l0 44 l44 0 ZM188 619 q0 19 12.5 31.5 q12.5 12.5 31.5 12.5 l134 0 q19 0 32 -13 q13 -13 13 -31 l0 -134 q0 -17 -13 -32 q-15 -13 -32 -13 l-134 0 q-18 0 -31 13 q-13 13 -13 32 l0 134 ZM321 574 l0 -44 l-44 0 l0 44 l44 0 ZM768 38 q19 0 32 13 q13 13 13 32 l0 134 q0 18 -13.5 31.5 q-13.5 13.5 -31.5 13.5 l-134 0 q-17 0 -32 -13 q-13 -15 -13 -32 l0 -134 q0 -18 13.5 -31.5 q13.5 -13.5 31.5 -13.5 l134 0 ZM723 128 l0 44 l-44 0 l0 -44 l44 0 ZM545 128 q0 18 -13 31 q-13 13 -32 13 q-19 0 -32 -13 q-13 -13 -13 -31 l0 -45 q0 -18 13.5 -31.5 q13.5 -13.5 31.5 -13.5 q18 0 31.5 13.5 q13.5 13.5 13.5 31.5 l0 45 ZM500 217 q-17 0 -31 13 q-14 13 -14 32 l0 89 q0 17 13 32 q15 13 32 13 l134 0 q17 0 32 -13 q13 -15 13 -32 q0 -17 -13 -32 q-15 -13 -32 -13 l-89 0 l0 -44 q0 -19 -14 -32 q-14 -13 -31 -13 ZM768 306 q18 0 31.5 13.5 q13.5 13.5 13.5 31.5 q0 12 -8 24.5 q-8 12.5 -19 17 q-11 4.5 -27 2.5 q-13 -3 -22.5 -12.5 q-9.5 -9.5 -12.5 -23 q-3 -13.5 2 -25.5 q5 -12 16.5 -20 q11.5 -8 25.5 -8 ZM455 619 q0 18 13 31 q13 13 32 13 q19 0 32 -13 q13 -13 13 -31 l0 -89 q19 0 31 -14 q13 -12 13 -31 q0 -19 -13 -32 q-13 -13 -31 -13 l-45 0 q-17 0 -32 13 q-13 15 -13 32 l0 134 ZM232 396 q-18 0 -31 -13 q-13 -13 -13 -32 q0 -19 13 -32 q13 -13 31 -13 l134 0 q17 0 32 13 q13 15 13 32 q0 17 -13 32 q-15 13 -32 13 l-134 0 ZM813 485 q0 -18 -13.5 -31.5 q-13.5 -13.5 -31.5 -13.5 l-89 0 q-19 0 -32 14 q-13 14 -13 31.5 q0 17.5 12.5 31 q12.5 13.5 32.5 13.5 l89 0 q19 0 32 -13 q13 -13 13 -32 ZM634 663 q-19 0 -32 -13 q-13 -13 -13 -30.5 q0 -17.5 13 -32.5 q15 -13 32 -13 l134 0 q18 0 31.5 13.5 q13.5 13.5 13.5 32 q0 18.5 -14 30.5 q-12 13 -31 13 l-134 0 Z"></path></symbol><symbol id="shield-cut" viewBox="0 -150 1000 1000"><path d="M1030 -35 l-307 -115 l209 0 q41 0 70 26 q13 12 20.5 28.5 q7.5 16.5 7.5 33.5 l0 27 ZM406 332 q-9 -6 -14 -17 q-4 -8 -4 -21 q0 -20 18 -38 q17 -15 42 -15 q10 0 21.5 4.5 q11.5 4.5 18.5 12.5 l76 67 l197 -208 q8 -10 17.5 -14.5 q9.5 -4.5 23.5 -6.5 q16 0 24 3 q14 4 21 10 q10 9 14 17 q6 9 7 20 q1 11 -4 22 q-5 11 -13 18 l-238 250 q-10 10 -21 14 q-13 5 -25 5 q-7 1 -21 -3 l-2 0 q-13 -5 -19 -13 l-119 -107 ZM627 743 q121 -45 226 -146 q112 -107 177 -252 l0 224 q-68 88 -154 157 q-73 59 -146 93 q-65 31 -103 31 q-41 0 -110 -34 q-78 -38 -155 -102 q-89 -76 -158 -172 q-80 -111 -124 -240 q-50 -148 -50 -311 q2 -34 21.5 -59.5 q19.5 -25.5 52.5 -37.5 l117 -44 l310 0 l-381 143 q0 181 70 342 q64 148 176 257 q106 104 231 151 Z"></path></symbol><symbol id="star" viewBox="0 -150 1000 1000"><path d="M415 232 q-5 14 -15.5 21.5 q-10.5 7.5 -24.5 7.5 l-145 0 q-14 0 -25.5 8.5 q-11.5 8.5 -15.5 20.5 q-4 12 0 25.5 q4 13.5 16 21.5 l118 85 q11 9 15.5 22 q4.5 13 -0.5 25 l-45 139 q-5 12 0 26 q5 14 15.5 21.5 q10.5 7.5 23.5 7.5 q13 0 26 -8 l117 -86 q11 -8 24 -8 q13 0 26 8 l117 86 q13 8 26 8 q13 0 23.5 -7.5 q10.5 -7.5 15.5 -21.5 q5 -14 0 -26 l-45 -139 q-5 -12 0 -25 q5 -13 15 -22 l118 -85 q12 -8 16 -21.5 q4 -13.5 0 -25.5 q-4 -12 -15.5 -20.5 q-11.5 -8.5 -25.5 -8.5 l-145 0 q-14 0 -24.5 -7.5 q-10.5 -7.5 -15.5 -21.5 l-45 -139 q-4 -12 -15 -20.5 q-11 -8.5 -24 -8.5 q-13 0 -26 8 q-10 9 -15 21 l-45 139 Z"></path></symbol><symbol id="success" viewBox="0 -150 1000 1000"><path d="M383 569 q8 0 15 -3 q7 -3 13 -9 l390 -390 q12 -12 12 -27.5 q0 -15.5 -11 -27.5 q-11 -12 -28 -12 q-17 0 -28 12 l-363 363 l-129 -129 q-11 -11 -27.5 -11 q-16.5 0 -27.5 11 q-11 11 -11 27.5 q0 16.5 11 27.5 l156 157 q8 6 13 8 q8 3 15 3 Z"></path></symbol><symbol id="swap" viewBox="0 -150 1000 1000"><path d="M499 756 q81 0 156 -30 q76 -33 132 -88.5 q56 -55.5 88 -132.5 q30 -74 30 -155.5 q0 -81.5 -31 -156 q-31 -74.5 -88 -130.5 q-55 -56 -131 -89 q-75 -30 -156 -30 q-81 0 -156 30 q-75 32 -132 89 q-51 51 -81.5 117 q-30.5 66 -35.5 138 l497 0 l-101 -101 q-6 -6 -7 -10 q-3 -6 -3 -12 q0 -6 3 -12 q1 -4 7 -10 q2 -3 10 -7 q6 -2 11 -2 q5 0 13 2 l3 2 q5 3 7 5 l155 155 q5 5 7 10.5 q2 5.5 2 11.5 q0 6 -2 11.5 q-2 5.5 -7 10.5 l-155 155 q-4 4 -10 7 q-8 2 -12 2 q-4 0 -12 -2 q-6 -3 -10 -7 q-9 -9 -9 -23 q0 -14 9 -21 l101 -102 l-497 0 q5 73 35.5 139 q30.5 66 81.5 117 q57 57 132 89 q75 30 156 30 Z"></path></symbol><symbol id="telegram" viewBox="0 -150 1000 1000"><path d="M500 38 q84 0 157 43 q71 42 113 113 q43 73 43 157.5 q0 84.5 -43 157.5 q-42 70 -113 112 q-73 42 -157.5 42 q-84.5 0 -157.5 -42 q-70 -42 -112 -112 q-42 -73 -42 -157.5 q0 -84.5 42 -157.5 q42 -71 112 -113 q73 -43 158 -43 ZM644 251 q2 -5 0 -12 q0 -2 -3 -6 l-1 -2 q-4 -4 -12.5 -4 q-8.5 0 -30.5 8 q-22 8 -87 35 l-33 14 q-84 35 -148 64 q-12 6 -17.5 10 q-5.5 4 -6.5 9 q-1 5 7 10 q5 2 21 7 l8 3 q36 11 47 11 q15 0 34 -13 q126 -87 131 -87 l2 0 q3 -1 4 0 q4 4 2 6 q-2 6 -76 75 l-16 15 q-15 14 -17 21 q-2 11 17 23 l18 12 q30 21 51 35 l11 7 q12 9 18 12 q11 5 20 4 q17 -2 21 -32 q9 -42 21 -114 q12 -75 15 -111 Z"></path></symbol><symbol id="token" viewBox="0 -150 1000 1000"><path d="M975 493 q21 0 33 -5 l0 304 q-136 58 -283 58 q-89 0 -176 -22 q-87 -22 -165 -64 q-78 -42 -144 -102 q-66 -60 -115 -135 q-99 -152 -114 -331.5 q-15 -179.5 58 -345.5 l304 0 q-6 18 -6 37 l0 499 q0 45 31 76 q15 15 35 23 q20 8 41 8 l501 0 Z"></path></symbol><symbol id="thick-cut" viewBox="0 -150 1000 1000"><path d="M826 42.54 q21 -19 49.5 -18 q28.5 1 48.5 19 q20 18 20 46.5 q0 28.5 -20 46.5 l-318 304 q-21 19 -49 19 q-28 0 -49 -19 l-159 -152 q-21 -18 -21 -46 q0 -28 20 -48 q22 -19 50 -19 q28 0 49 19 l110 105 l269 -257 ZM636 735.54 q102 0 196.5 -37.5 q94.5 -37.5 167.5 -105.5 l0 147 q-95 64 -207.5 91 q-112.5 27 -227.5 14.5 q-115 -12.5 -218.5 -63 q-103.5 -50.5 -181 -132.5 q-77.5 -82 -120.5 -185 q-43 -103 -45 -213 q-2 -110 37 -214.5 q39 -104.5 114 -188.5 l173 0 q-65 46 -111.5 109.5 q-46.5 63.5 -70.5 138 q-24 74.5 -23 151.5 q1 77 27 150.5 q26 73.5 74.5 136 q48.5 62.5 114.5 108 q66 45.5 143 69 q77 23.5 159 23.5 l-1 1 Z"></path></symbol><symbol id="tooltip" viewBox="0 -150 1000 1000"><path d="M500 37.1 q62 0 119.5 24 q57.5 24 101.5 68 q44 44 68 101.5 q24 57.5 24 119.5 q0 93 -53 174 q-25 38 -61 67.5 q-36 29.5 -79 47.5 q-43 18 -89.5 22.5 q-46.5 4.5 -91.5 -5.5 q-93 -18 -160 -85 q-67 -67 -85 -160 q-10 -45 -5.5 -91.5 q4.5 -46.5 22.5 -89.5 q18 -43 47.5 -79 q29.5 -36 67.5 -61 q81 -53 174 -53 ZM507 168.1 q-17 0 -28.5 11.5 q-11.5 11.5 -11.5 27.5 q0 10 6.5 20.5 q6.5 10.5 18.5 15.5 q12 5 22 2 q12 -2 20 -11 q8 -6 10.5 -19.5 q2.5 -13.5 -1.5 -23.5 q-4 -10 -14 -16.5 q-10 -6.5 -22 -6.5 ZM565 519.1 q10 0 19 -7 q7 -9 7 -18.5 q0 -9.5 -7.5 -18 q-7.5 -8.5 -18.5 -8.5 l-19 0 q-3 0 -5 -2 q-2 -2 -2 -4 l0 -124 q0 -22 -15 -37 q-15 -15 -37 -15 l-26 0 q-11 0 -18.5 7.5 q-7.5 7.5 -7.5 18 q0 10.5 7 18.5 q7 8 19 8 l20 0 q2 0 4 2 q2 2 2 4 l0 118 q0 2 -2 4 q-2 2 -4 2 l-20 0 q-12 0 -19 8 q-7 8 -7 18.5 q0 10.5 7.5 18 q7.5 7.5 18.5 7.5 l104 0 Z"></path></symbol><symbol id="twitter" viewBox="0 -150 1000 1000"><path d="M749 218 q38 -29 64 -66 q-35 16 -74 19 q20 -11 34.5 -29.5 q14.5 -18.5 21.5 -40.5 q-38 22 -80 31 q-19 -19 -43 -29.5 q-24 -10.5 -51 -10.5 q-35 0 -64.5 17 q-29.5 17 -47 46.5 q-17.5 29.5 -17.5 64.5 q0 17 4 30 q-79 -4 -149 -41 q-68 -35 -117 -94 q-17 29 -17 65 q0 33 15.5 61 q15.5 28 42.5 45 q-34 -2 -59 -15 q0 47 29 82 q29 35 74 45 l-5 1 q-19 4 -28 4 q-6 0 -16 -2 l-9 -1 q12 39 45 63.5 q33 24.5 75 25.5 q-33 27 -74 41 q-41 14 -85 14 q-12 0 -30 -2 q88 58 196 58 q113 0 200 -57 q78 -51 123 -138 q42 -82 42 -170 l0 -17 Z"></path></symbol><symbol id="wallet" viewBox="0 -150 1000 1000"><path d="M739 547 q3 0 5 2 q2 2 2 5 l0 70 q0 29 -20.5 49.5 q-20.5 20.5 -49.5 20.5 l-421 0 q-21 0 -38 -7 q-17 -7 -32 -22 q-13 -13 -21 -32 q-8 -19 -8 -37 l0 -436 q0 -19 7.5 -37 q7.5 -18 21.5 -32 q14 -14 32.5 -21.5 q18.5 -7.5 37.5 -7.5 l309 0 q26 0 49 9.5 q23 9.5 36 25.5 q13 16 13 35 l0 7 q0 3 -2 5 l-1 1 q-3 1 -4 1 l-372 0 q-6 0 -9.5 1.5 q-3.5 1.5 -6.5 4.5 l-5 7 q-1 2 -1 8 q0 6 1 8 l5 7 q3 3 6.5 4.5 q3.5 1.5 9.5 1.5 l393 0 q27 0 50 21 q20 20 20 50 l0 63 q0 4 -1 5 q-2 4 -3 5 q-1 1 -5 3 q-1 1 -5 1 l-67 0 q-39 0 -69 23.5 q-30 23.5 -37 59.5 q-4 23 1 46.5 q5 23.5 19.5 41.5 q14.5 18 37.5 29 q23 11 45 11 l77 0 ZM746 378 q16 3 25.5 14 q9.5 11 9.5 28 l0 42 q0 17 -9.5 28.5 q-9.5 11.5 -25.5 14.5 l-84 0 q-26 0 -44.5 -18.5 q-18.5 -18.5 -18.5 -45.5 q0 -12 4.5 -24 q4.5 -12 13.5 -20 q19 -19 45 -19 l84 0 Z"></path></symbol><symbol id="warning" viewBox="0 -150 1000 1000"><path d="M198 508 q-11 20 -10.5 41 q0.5 21 11.5 41 q11 18 30 29.5 q19 11.5 41 11.5 l460 0 q22 0 41.5 -11.5 q19.5 -11.5 29.5 -29 q10 -17.5 12 -41.5 q0 -22 -11 -41 l-230 -409 q-11 -20 -30.5 -31 q-19.5 -11 -41.5 -11 q-22 0 -41.5 11 q-19.5 11 -30.5 31 l-230 409 ZM541 507 q0 -9 -3.5 -17 q-3.5 -8 -8.5 -12 q-6 -6 -13 -9 q-7 -3 -16 -3 q-13 0 -23 6.5 q-10 6.5 -15 18.5 q-5 12 -3 23.5 q2 11.5 12 21.5 q10 10 21 12 q11 2 23.5 -3 q12.5 -5 19 -15 q6.5 -10 6.5 -23 ZM500 177 q9 0 16 3 q7 3 13 9 q6 6 9 13 q3 7 3 16 l0 124 q0 17 -12 29 q-12 12 -29 12 q-17 0 -29 -12 q-12 -12 -12 -29 l0 -124 q0 -17 12 -29 q12 -12 29 -12 Z"></path></symbol><symbol id="print" viewBox="0 -150 1000 1000"><path d="M821 287 q23 23 23 56 l0 117 q0 32 -23 55 q-23 23 -55 23 l-39 0 l0 78 q0 15 -6 29.5 q-6 14.5 -17 25.5 q-23 23 -56 23 l-234 0 q-34 0 -56 -22 q-22 -22 -22 -56 l0 -78 l-39 0 q-34 0 -56 -23 q-22 -23 -22 -55 l0 -117 q0 -33 22.5 -55.5 q22.5 -22.5 55.5 -22.5 l39 0 l0 -118 q0 -32 22 -55 q22 -23 56 -23 l234 0 q33 0 56 23 q11 11 17 25.5 q6 14.5 6 29.5 l0 118 l39 0 q31 0 55 22 ZM648 460 l-234 0 l0 156 l234 0 l0 -156 ZM648 147 l-234 0 l0 118 l234 0 l0 -118 Z"></path></symbol><symbol id="person" viewBox="0 -150 1000 1000"><path d="M722 129.33 q43 45 67 101 q24 58 24 120 q0 46 -14 90 q-14 44 -40 82 q-47 74 -140 115 q-42 19 -89.5 24 q-47.5 5 -91.5 -5 q-44 -7 -85 -28.5 q-41 -21.5 -75 -55.5 q-65 -65 -84 -160 q-10 -45 -5 -93 q4 -45 20 -88 q19 -42 49 -78 q30 -36 67 -61 q82 -54 175 -54 q62 0 120 24 q57 24 102 67 ZM428 203.33 q-8 22 -3 44 q2 11 8.5 22 q6.5 11 13.5 18 q16 17 41 22 q22 5 43 -4 q21 -9 35 -27 q12 -16 12 -44 q0 -34 -22 -55 q-27 -22 -55 -22 q-28 0 -45 13 q-11 8 -16 14 q-8 8 -12 19 ZM597 562.33 q44 -17 81 -59 q-12 -27 -30.5 -49 q-18.5 -22 -41.5 -35 q-45 -32 -106 -32 q-27 0 -54.5 8.5 q-27.5 8.5 -51.5 23.5 q-49 35 -72 84 q30 34 81 59 q43 22 97 22 q45 0 97 -22 Z"></path></symbol><symbol id="warning-1" viewBox="0 -150 1000 1000"><path d="M803 509 q4 9 10 29 l3 8 q0 9 -3 19 q-2 6 -7 16 l-3 6 q-19 25 -31 31 q-19 13 -41 13 l-459 0 q-19 0 -41 -10 q-25 -19 -31 -31 q-12 -17 -12 -40 q0 -23 9 -41 l231 -407 l5 -6 q16 -20 26 -25 q17 -12 40 -12 q23 0 42 9 q25 19 31 31 l231 410 ZM541 509 q0 -6 -1 -9.5 q-1 -3.5 -6 -9.5 q-2 -2 -5 -8 l-4 -5 q-6 -6 -12.5 -9 q-6.5 -3 -16 -3 q-9.5 0 -21.5 6 l-4 4 q-9 8 -12 15 l-1 2 l-3 12 q-1 6 1 11 q5 13 13 21.5 q8 8.5 22 12.5 q18 0 25 -3 q14 -7 18 -15 q7 -12 7 -22 ZM541 218 q0 -9 -3 -16 q-2 -2 -6 -7 l-4 -5 q-6 -6 -12.5 -9.5 q-6.5 -3.5 -15.5 -3.5 q-6 0 -14.5 4 q-8.5 4 -14 8.5 q-5.5 4.5 -9 12.5 q-3.5 8 -3.5 16 l0 125 q0 6 4 14.5 q4 8.5 8.5 14.5 q4.5 6 12.5 9 q8 3 15 3 q7 0 15.5 -4 q8.5 -4 14.5 -8.5 q6 -4.5 9 -12.5 q3 -8 3 -16 l0 -125 Z"></path></symbol><symbol id="scan" viewBox="0 -150 1000 1000"><path d="M231 38 q-8 0 -16 4 q-5 2 -14 8 l-1 1 q-12 18 -12 31 l0 135 q0 7 3 15 q2 5 8 14 l1 2 q12 12 31 12 l135 0 q13 0 31 -12 q12 -13 12 -31 l0 -135 q0 -13 -12 -31 q-5 -5 -14 -9 q-9 -4 -17 -4 l-135 0 ZM278 129 l44 0 l0 44 l-44 0 l0 -44 ZM231 442 q-13 0 -31 12 q-12 12 -12 31 l0 135 q0 13 12 31 q18 12 31 12 l135 0 q13 0 31 -12 q12 -12 12 -31 l0 -135 q0 -13 -12 -31 q-8 -12 -31 -12 l-135 0 ZM278 529 l44 0 l0 44 l-44 0 l0 -44 ZM801 52 q6 9 8 14 q4 8 4 16 l0 135 q0 17 -13 31 q-18 12 -31 12 l-135 0 q-18 0 -31 -12 l-1 -2 q-6 -9 -8 -14 q-3 -8 -3 -15 l0 -135 q0 -19 12 -31 l5 -3 q16 -10 26 -10 l135 0 q8 0 16 4 q5 2 14 8 l2 2 ZM722 129 l-44 0 l0 44 l44 0 l0 -44 ZM531 160 q7 -7 10 -14 q3 -7 3 -17 l0 -47 q0 -14 -13 -31 l-3 -2 q-8 -5 -12 -7 q-8 -4 -16 -4 q-8 0 -16 4 q-5 2 -14 8 l-1 1 q-13 12 -13 31 l0 44 q0 8 4 16 q2 5 8 14 l1 1 q14 16 31 16 q9 0 17 -4 q6 -3 14 -9 ZM500 395 q-19 0 -31 -13 l-1 -1 q-6 -9 -8 -14 q-4 -8 -4 -16 l0 -88 q0 -18 13 -31 q18 -12 31 -12 q19 0 31 12 q7 9 9 15 q4 8 4 16 l0 44 l90 0 q10 0 17.5 3 q7.5 3 14 11 q6.5 8 8.5 13 q4 8 4 17 q0 19 -12 31 l-4 3 q-9 5 -13 7 q-8 3 -15 3 l-134 0 ZM738 320 q-8 8 -10.5 13 q-2.5 5 -2.5 24 q0 7 3.5 12 q3.5 5 9 10.5 q5.5 5.5 17.5 9.5 l4 3 q13 4 25 -4 q14 -4 19 -15 q4 -4 5 -11 q1 -5 1 -14 q0 -9 -4 -17 q-2 -5 -8 -14 q-9 -10 -28 -10 q-13 0 -25 6 l-6 7 ZM575 454 q6 4 9.5 12.5 q3.5 8.5 3.5 18.5 q0 18 -13 32 q-18 12 -31 12 l0 91 q0 19 -13 31 q-9 6 -14 8 q-8 4 -17 4 q-19 0 -31 -12 l-1 -1 q-6 -9 -8 -14 q-4 -8 -4 -16 l0 -135 q0 -19 13 -31 q18 -12 31 -12 l44 0 q19 0 31 12 ZM231 307 q-14 0 -31 13 q-6 9 -8 14 q-4 8 -4 17 q0 13 12 31 q12 13 31 13 l135 0 q8 0 16 -4 q5 -2 14 -8 l1 -1 q12 -12 12 -31 q0 -9 -4 -17 q-2 -5 -8 -14 q-8 -13 -31 -13 l-135 0 ZM769 442 q19 0 31 12 l1 1 q6 9 8 14 q4 8 4 16 q0 22 -13 32 q-18 12 -31 12 l-91 0 q-23 0 -31 -12 l-3 -4 q-5 -9 -7 -13 q-3 -8 -3 -15 q0 -18 13 -31 q18 -12 31 -12 l91 0 ZM634 573 q-7 0 -15 3 q-5 2 -14 8 l-2 1 q-12 13 -12 32 q0 7 3 15 q2 5 8 14 l1 2 q13 12 31 12 l135 0 q13 0 31 -12 q6 -4 9.5 -12.5 q3.5 -8.5 3.5 -18.5 q0 -7 -3 -15 q-2 -4 -7 -13 l-3 -4 q-18 -12 -31 -12 l-135 0 Z"></path></symbol><symbol id="keplr" viewBox="0 -150 1000 1000"><path d="M916 -94 q26 29 41 63 q15 36 15 72 l0 562 q0 37 -15 72.5 q-15 35.5 -41 62.5 q-28 28 -62.5 42 q-34.5 14 -72.5 14 l-562 0 q-38 0 -73.5 -14 q-35.5 -14 -61.5 -39 q-56 -58 -56 -135 l0 -565 q0 -36 15 -72 q15 -34 41 -63 q28 -28 62.5 -42 q34.5 -14 72.5 -14 l562 0 q37 0 72.5 15 q35.5 15 62.5 41 ZM800 616 l-331 -303 l303 -288 l0 -3 l-159 0 l-260 256 l0 -256 l-128 0 l0 603 l128 0 l0 -269 l288 269 l159 0 l0 -9 Z"></path></symbol><symbol id="leap" viewBox="0 -150 1000 1000"><path d="M305 2.02 q13 0 17 -17 q-1 -16 -17 -17 q-17 4 -17 17 q0 17 17 17 ZM748 2.02 q14 0 17 -17 q-1 -16 -17 -17 q-13 1 -17 17 q6 17 17 17 ZM956 448.02 q2 -4 3 -12 q4 -16 14 -41 q16 -54 27 -118 q4 -31 4 -53 q-1 -24 -7 -37 q-4 -6 -7 -7 q-3 -1 -10 -3 q-11 -2 -40 17 q-16 11 -31 23 q-14 -27 -33 -50 q4 -16 3 -31 q-1 -39 -17 -73 q16 -32 17 -67 q-11 -127 -138 -138 q-67 2 -103 50 q-53 -12 -109 -14 q-56 -1 -107 14 q-42 -48 -104 -50 q-59 -1 -98 38 q-38 40 -40 100 q1 40 17 70 q-16 32 -17 73 q-1 16 4 31 q-24 27 -37 57 q-16 -13 -37 -27 q-33 -18 -47 -16 q-14 0 -17 10 q-6 11 -7 33 q-1 25 3 54 q13 64 31 117 q9 26 14 41 q4 9 3 13 l0 3 l3 11 l-47 27 l215 0 q5 1 10 -4 q109 40 258 40 q154 0 266 -40 q5 5 10 4 l192 0 l0 -4 l-45 -27 l4 -10 l0 -4 ZM748 -98.98 q78 7 84 84 q-6 78 -84 85 q-77 -7 -84 -85 q12 -77 84 -84 ZM305 -98.98 q77 7 84 84 q-7 78 -84 85 q-78 -5 -85 -85 q7 -77 85 -84 ZM795 429.02 q-6 2 -7 3 q-99 45 -259 44 q-159 1 -258 -44 q-11 -81 -84 -172 q6 -17 17 -36 q39 69 127 113 q86 44 198 44 q235 -8 326 -154 q11 17 17 33 q-66 92 -77 169 ZM16 660.02 q2 78 53 129 q51 51 128 53 l645 0 q77 -2 128 -53 q51 -51 53 -129 l0 -94 l-1007 0 l0 94 Z"></path></symbol><symbol id="stats" viewBox="0 -150 1000 1000"><path d="M537 -1 q66 7 73 74 l0 535 q-7 67 -73 73 l-49 0 q-67 -6 -73 -73 l0 -535 q6 -67 73 -74 l49 0 ZM488 73 l0 535 l49 0 l0 -535 l-49 0 ZM293 292 q66 6 74 73 l0 243 q-8 67 -74 73 l-48 0 q-67 -6 -74 -73 l0 -243 q7 -67 74 -73 l48 0 ZM245 365 l0 243 l48 0 l0 -243 l-48 0 ZM658 170 q6 -66 74 -74 l48 0 q67 8 73 74 l0 438 q-6 67 -73 73 l-48 0 q-68 -6 -74 -73 l0 -438 ZM780 608 l0 -438 l-48 0 l0 438 l48 0 Z"></path></symbol><symbol id="hat" viewBox="0 -150 1000 1000"><path d="M535 -6 q-14 -6 -32 -7 q-18 1 -34 7 l-436 179 q-27 13 -28 44 q1 32 28 45 l89 37 q-28 40 -38 90 q-27 17 -29 54 q0 28 17 45 l-36 263 q-3 32 26 35 l91 0 q28 -3 27 -35 l-38 -263 q18 -17 19 -45 q-1 -28 -19 -43 q8 -45 35 -78 l292 119 q17 5 34 5 q17 0 35 -5 l436 -178 q27 -13 29 -46 q-2 -31 -29 -44 l-439 -179 ZM529 152 q-9 -28 -34 -22 l-293 104 l-40 -17 l333 -137 q4 0 8 0 q2 0 3 0 l2 0 l336 137 l-333 137 q-5 1 -10 1 l-2 0 q-1 -1 -3 -1 l-205 -84 l221 -78 q22 -13 17 -40 ZM704 425 l0 2 l18 199 q0 1 -2 6 q-3 4 -10 9 q-14 12 -42 24 q-56 26 -165 28 q-108 -2 -164 -28 q-28 -12 -41 -24 q-7 -5 -11 -9 q-2 -5 -2 -6 l16 -199 l0 -2 l-2 -1 l-71 -29 l-5 -1 l-1 5 l-19 222 q5 84 95 124 q88 41 205 41 q116 0 206 -41 q90 -40 93 -124 l-20 -222 l0 -5 l-4 1 l-71 29 l-3 1 Z"></path></symbol><symbol id="share" viewBox="0 -150 1000 1000"><path d="M1005 70 q-18 194 -212 212 q-99 -2 -161 -72 l-199 99 q5 24 4 45 q1 22 -4 45 l199 98 q62 -70 161 -73 q194 17 212 212 q-18 194 -212 212 q-196 -18 -212 -212 q-1 -21 5 -45 l-200 -99 q-63 72 -159 73 q-195 -18 -212 -211 q17 -195 212 -214 q96 3 159 74 l200 -98 q-6 -22 -5 -46 q16 -194 212 -212 q194 18 212 212 ZM225 459 q98 -9 106 -105 q-8 -97 -106 -108 q-95 11 -106 108 q11 96 106 105 ZM793 -36 q-98 9 -106 106 q8 98 106 106 q97 -8 106 -106 q-9 -97 -106 -106 ZM793 742 q97 -8 106 -106 q-9 -96 -106 -106 q-98 10 -106 106 q8 98 106 106 Z"></path></symbol><symbol id="asset" viewBox="0 -150 1000 1000"><path d="M104 644.98 q108 103 252 104 q67 0 131 -25 q9 -4 17 -12 q75 38 157 39 l0 -2 q141 0 249 -102 q101 -104 103 -250 q-2 -145 -104 -251 q-184 -163 -402 -69 q-223 -95 -404 68 q-100 104 -102 249 q2 146 103 251 ZM399 156.98 q-90 101 -93 238 q3 137 93 238 q-123 20 -216 -67 q-71 -72 -72 -173 q2 -100 71 -170 q93 -88 217 -66 ZM488 223.98 q73 -71 170 -71 q97 0 173 72 q70 72 71 172 q-2 101 -70 171 q-75 71 -172 70.5 q-97 -0.5 -171 -71.5 q-70 -72 -72 -172 q2 -101 71 -171 Z"></path></symbol><symbol id="swap" viewBox="0 -150 1000 1000"><path d="M718 327 q17 16 39 16 q22 0 39 -16 l202 -200 q31 -39 0 -78 l-202 -200 q-39 -34 -78 0 q-32 39 0 78 l105 104 l-414 0 q-51 6 -56 56 q5 50 56 55 l416 0 l-107 106 q-32 39 0 79 ZM299 425 q30 -39 0 -78 q-40 -32 -79 0 l-202 201 q-31 38 0 77 l202 201 q15 16 39 16 q22 0 40 -16 q30 -38 0 -78 l-107 -106 l414 0 q51 -6 57 -56 q-6 -50 -57 -55 l-414 0 l107 -106 Z"></path></symbol><symbol id="earn" viewBox="0 -150 1000 1000"><path d="M508 642 q-171 -5 -285 -118 q-116 -115 -120 -287 q4 -171 120 -286 q114 -114 285 -118 q173 4 287 118 q114 115 119 286 q-5 172 -119 286 q-114 114 -287 119 ZM508 -56 q-125 3 -207.5 86 q-82.5 83 -85.5 207 q3 125 86 208 q82 83 207 87 q126 -4 209 -87 q83 -83 86 -208 q-3 -124 -86 -207 q-83 -83 -209 -86 ZM1013 787 q-4 50 -55 55 l-898 0 q-51 -5 -56 -56 q5 -50 56 -55 l898 0 q51 5 55 56 ZM469 357 q17 17 39 17 q23 0 39 -17 l132 -131 q33 -39 0 -78 q-41 -32 -80 0 l-92 92 l-90 -92 q-39 -31 -79 0 q-33 39 0 78 l131 131 Z"></path></symbol><symbol id="vote" viewBox="0 -150 1000 1000"><path d="M856 779 q-51 -4 -55 -56 l0 -594 l-590 0 l0 594 q-5 52 -55 56 q-51 -4 -56 -56 l0 -648 q5 -51 56 -56 l700 0 q51 5 55 56 l0 648 q-4 52 -55 56 ZM478 569 q-25 -1 -41 -17 l-92 -101 q-31 -39 3 -78 q42 -30 78 4 l47 52 l107 -140 q34 -37 76 -11 q38 35 10 77 l-145 194 q-16 18 -41 21 l-3 0 l1 -1 ZM55 828 q-51 -5 -56 -54 q5 -51 56 -56 l900 0 q51 5 55 56 q-4 49 -55 54 l-900 0 Z"></path></symbol><symbol id="history" viewBox="0 -150 1000 1000"><path d="M140 637 q139 173 367 178 q198 -4 330 -135 q130 -133 135 -331 q-5 -198 -136 -329.5 q-131 -131.5 -329 -137.5 q-182 4 -309 119 q-129 114 -153 295 q-2 47 45 55 q46 2 57 -44 q19 -141 119 -231 q100 -88 241 -91 q154 4 257 106 q102 104 106 258 q-4 154 -106.5 257.5 q-102.5 103.5 -256.5 107.5 q-204 -7 -311 -176 l79 0 q46 -4 50 -51 q-4 -47 -50 -52 l-186 0 q-47 5 -51 52 l0 185 q4 46 51 51 q46 -5 51 -51 l0 -35 ZM638 479 q-12 0 -25 -7 l-136 -80 q-24 -16 -24 -43 l0 -219 q4 -46 50 -51 q47 5 51 51 l0 189 l110 65 q39 28 18 70 q-17 25 -44 25 Z"></path></symbol><symbol id="lease" viewBox="0 -150 1000 1000"><path d="M957 245 q-50 -5 -55 -55 l0 -244 l-245 0 q-50 -6 -54 -56 q4 -50 54 -55 l300 0 q50 5 54 55 l0 300 q-4 50 -54 55 ZM298 842 q-124 -3 -207.5 -85.5 q-83.5 -82.5 -86.5 -207.5 q16 -224 228 -287 q61 -212 287 -228 q124 3 208 87 q81 82 85 206 q-16 226 -229 287 q-61 213 -285 228 ZM525 512 q5 -1 12 -1 q152 -27 165 -183 q-16 -167 -183 -183 q-168 16 -185 183 q17 168 185 184 l6 0 ZM469 617 q-195 -44 -240 -239 q-106 49 -114 171 q16 168 184 183 q121 -6 170 -115 Z"></path></symbol></defs></svg>