<svg width="24" height="25" viewBox="0 0 24 25" fill="none" xmlns="http://www.w3.org/2000/svg">
<g id="NDS Nav Icon">
<g id="Union">
<path d="M12.029 10.3618C10.5824 10.3618 9.44275 11.5238 9.44275 12.9011C9.44275 14.2784 10.6263 15.4404 12.029 15.4404C13.4317 15.4404 14.6152 14.2784 14.6152 12.9011C14.6152 11.5238 13.4317 10.3618 12.029 10.3618Z" fill="#3470E2"/>
<path fill-rule="evenodd" clip-rule="evenodd" d="M13.1557 5.26834C12.4631 4.77774 11.5362 4.77774 10.8436 5.26834L1.72771 11.7255C0.883741 12.3233 0.883726 13.5757 1.72771 14.1735L10.8436 20.6306C11.5362 21.1212 12.4631 21.1212 13.1557 20.6306L22.2716 14.1735C23.1156 13.5757 23.1156 12.3232 22.2716 11.7254L13.1557 5.26834ZM8.39071 12.9011C8.39071 14.8809 10.0126 16.4734 12.029 16.4734C14.0453 16.4734 15.6672 14.8809 15.6672 12.9011C15.6672 10.9213 14.0453 9.3288 12.029 9.3288C10.0126 9.3288 8.39071 10.9213 8.39071 12.9011Z" fill="#3470E2"/>
</g>
</g>
</svg>
