<svg width="107" height="100" viewBox="0 0 107 100" fill="none" xmlns="http://www.w3.org/2000/svg">
<path d="M29.0252 99.832H16.7916C7.52759 99.832 0 92.2945 0 83.0404V16.7916C0 7.5276 7.53746 0 16.7916 0H29.0252C38.2892 0 45.8168 7.53747 45.8168 16.7916V83.0305C45.8168 92.2945 38.2793 99.8221 29.0252 99.8221V99.832ZM16.7916 8.40566C12.1645 8.40566 8.3958 12.1744 8.3958 16.8015V83.0404C8.3958 87.6675 12.1645 91.4362 16.7916 91.4362H29.0252C33.6522 91.4362 37.421 87.6675 37.421 83.0404V16.7916C37.421 12.1645 33.6522 8.39579 29.0252 8.39579H16.7916V8.40566Z" fill="#5E7699"/>
<path d="M80.1399 51.7855C65.8641 51.7855 54.2521 40.1734 54.2521 25.8976C54.2521 11.6218 65.8641 0.00976562 80.1399 0.00976562C94.4157 0.00976562 106.028 11.6218 106.028 25.8976C106.028 40.1734 94.4157 51.7855 80.1399 51.7855ZM80.1399 8.39569C70.4912 8.39569 62.6479 16.2489 62.6479 25.8877C62.6479 35.5266 70.501 43.3798 80.1399 43.3798C89.7788 43.3798 97.632 35.5266 97.632 25.8877C97.632 16.2489 89.7788 8.39569 80.1399 8.39569V8.39569Z" fill="url(#paint0_linear_3733_5840)"/>
<path d="M95.3135 100.001H64.9762C59.3626 100.001 54.2521 95.2157 54.2521 89.9572V69.7817C54.2521 64.5232 59.3626 59.7383 64.9762 59.7383H95.3135C100.927 59.7383 106.038 64.5232 106.038 69.7817V89.9572C106.038 95.2157 100.927 100.001 95.3135 100.001ZM64.9762 68.1439C63.7331 68.1439 62.7268 69.3476 62.6479 69.831V89.9572C62.7268 90.3913 63.7331 91.5949 64.9762 91.5949H95.3135C96.5566 91.5949 97.5629 90.3913 97.6418 89.9079V69.7817C97.5629 69.3476 96.5566 68.1439 95.3135 68.1439H64.9762Z" fill="url(#paint1_linear_3733_5840)"/>
<defs>
<linearGradient id="paint0_linear_3733_5840" x1="54.2521" y1="25.8976" x2="106.038" y2="25.8976" gradientUnits="userSpaceOnUse">
<stop stop-color="#FF7044"/>
<stop offset="1" stop-color="#FF7044"/>
</linearGradient>
<linearGradient id="paint1_linear_3733_5840" x1="54.2521" y1="79.8744" x2="106.038" y2="79.8744" gradientUnits="userSpaceOnUse">
<stop stop-color="#FF7044"/>
<stop offset="1" stop-color="#FF7044"/>
</linearGradient>
</defs>
</svg>
