<svg width="24" height="24" viewBox="0 0 24 24" fill="none" xmlns="http://www.w3.org/2000/svg">
<path d="M3.77658 20.7393C8.60315 25.281 16.1976 25.0501 20.7393 20.2235C25.281 15.3969 25.0501 7.80245 20.2235 3.26076C15.3969 -1.28092 7.80245 -1.04998 3.26076 3.77658C-1.28092 8.60315 -1.04998 16.1976 3.77658 20.7393Z" fill="url(#paint0_linear_8744_20850)"/>
<path fill-rule="evenodd" clip-rule="evenodd" d="M5.37528 3.55562C5.37528 3.55562 9.27062 5.81744 10.5421 8.39265C11.0043 8.26566 11.49 8.19653 11.9853 8.19653C12.4898 8.19653 12.9844 8.26826 13.4543 8.39984C14.7221 5.82165 18.6247 3.55562 18.6247 3.55562C18.7628 5.02531 18.6337 8.55297 17.0938 11.5037C17.0047 11.3509 16.9188 11.208 16.833 11.071C17.345 10.0133 17.4944 9.33143 17.5069 8.03084C17.2117 9.21139 17.0393 9.87594 16.4994 10.57C16.1674 10.1016 15.7813 9.64412 15.1847 9.00061L15.1853 8.9836C15.3836 7.78008 15.6879 7.05531 16.323 5.73871C15.0815 7.19459 14.4885 8.37581 14.5063 9.42844L14.4962 9.4186C14.5041 10.0149 14.7078 10.5699 15.1005 11.11L15.1753 10.5439L15.5141 10.751C15.4721 10.6233 15.4299 10.5169 15.3903 10.4169C15.3476 10.3088 15.3078 10.2081 15.2741 10.0962C15.2785 10.0999 15.283 10.1036 15.2874 10.1073C15.2863 10.1036 15.2852 10.0999 15.284 10.0962C15.7709 10.5005 16.2086 10.9624 16.9441 11.7807L16.9344 11.798L16.9248 11.7887C16.9599 11.9785 16.9781 12.1715 16.9781 12.3666C16.9781 12.6813 16.9306 13.0755 16.8417 13.5204C16.9812 13.6012 17.1187 13.7118 17.2081 13.8855C17.0195 13.8887 16.8894 13.9043 16.7456 13.954C16.7406 13.975 16.7354 13.9962 16.7302 14.0174C17.2408 14.5105 17.4724 14.8603 17.8056 15.5148C17.2815 15.0789 16.9502 14.8093 16.5763 14.5863C16.5595 14.6439 16.5422 14.7018 16.5244 14.7601C16.8116 15.268 16.8672 15.6424 16.7357 16.288C16.4887 16.0743 16.311 15.9242 16.1531 15.8408C16.0371 16.1449 15.9106 16.4509 15.7747 16.7535C15.6834 16.8417 15.6101 16.9374 15.5377 17.032C15.3438 17.2853 15.1559 17.5308 14.6449 17.6032C14.6724 18.303 14.5176 18.6097 14.3531 18.9359C14.2706 19.0993 14.1856 19.2676 14.12 19.4927C13.9903 19.6441 13.858 19.7851 13.7234 19.914C12.8905 20.3308 12.8471 20.3102 12.0694 19.9415L11.9721 19.8953C11.1 20.3078 11.0372 20.3299 10.2977 19.9615C10.1209 19.7971 9.94799 19.6115 9.77994 19.4087C9.71865 19.2244 9.64493 19.0783 9.57306 18.9359C9.40846 18.6097 9.25375 18.303 9.2812 17.6032C8.77016 17.5308 8.58227 17.2853 8.38837 17.032C8.33983 16.9686 8.2909 16.9047 8.23644 16.8429C8.0868 16.515 7.94816 16.1826 7.82191 15.8523C7.66285 15.9352 7.48411 16.0862 7.23489 16.3019C7.10299 15.6541 7.15932 15.2794 7.44894 14.769C7.4314 14.7117 7.41432 14.6547 7.39771 14.598C7.02245 14.8215 6.69065 15.0913 6.16502 15.5287C6.49877 14.873 6.73064 14.523 7.24323 14.0286C7.2383 14.0087 7.23343 13.9889 7.22864 13.9691C7.08342 13.9184 6.95268 13.9025 6.76251 13.8993C6.85245 13.7246 6.99107 13.6137 7.13144 13.5328C7.04083 13.0828 6.99246 12.6842 6.99246 12.3666C6.99246 12.1729 7.01045 11.9812 7.04504 11.7927C7.78711 10.9669 8.22677 10.5025 8.71591 10.0962C8.68224 10.2081 8.64243 10.3088 8.59965 10.4169C8.56009 10.5169 8.51799 10.6233 8.47587 10.751L8.81468 10.5439L8.88957 11.11C9.97375 9.61878 9.61729 8.0142 7.67705 5.73871C8.31205 7.05531 8.61642 7.78011 8.81471 8.9836L8.81533 9.00061C8.21874 9.64412 7.83263 10.1016 7.50057 10.57C6.96067 9.87594 6.78833 9.21139 6.49308 8.03084C6.5056 9.33143 6.65504 10.0133 7.16707 11.071C7.08123 11.2079 6.99537 11.3508 6.90626 11.5037C5.36633 8.55291 5.23724 5.0253 5.37528 3.55562ZM10.6158 14.5482L10.1736 13.7197L8.93253 13.4988C8.98668 14.376 9.57447 14.7139 10.6158 14.5482ZM13.9682 13.7197L13.526 14.5482C14.5674 14.7139 15.1551 14.376 15.2093 13.4988L13.9682 13.7197ZM11.1909 18.0377C10.998 18.1699 10.8789 18.3512 10.8789 18.5515C10.8789 18.9556 11.3643 19.2832 11.9631 19.2832C12.5619 19.2832 13.0473 18.9556 13.0473 18.5515C13.0473 18.3409 12.9155 18.151 12.7045 18.0175C12.4908 18.1009 12.2178 18.151 11.9203 18.151C11.6477 18.151 11.3957 18.109 11.1909 18.0377Z" fill="white"/>
<defs>
<linearGradient id="paint0_linear_8744_20850" x1="-1.42223e-06" y1="12" x2="24.0001" y2="12" gradientUnits="userSpaceOnUse">
<stop stop-color="#032963"/>
<stop offset="0.604502" stop-color="#040D21"/>
</linearGradient>
</defs>
</svg>
